%TF.GenerationSoftware,KiCad,Pcbnew,8.0.1*%
%TF.CreationDate,2024-04-01T15:32:46-05:00*%
%TF.ProjectId,ece445_headset,65636534-3435-45f6-9865-61647365742e,rev?*%
%TF.SameCoordinates,Original*%
%TF.FileFunction,Paste,Top*%
%TF.FilePolarity,Positive*%
%FSLAX46Y46*%
G04 Gerber Fmt 4.6, Leading zero omitted, Abs format (unit mm)*
G04 Created by KiCad (PCBNEW 8.0.1) date 2024-04-01 15:32:46*
%MOMM*%
%LPD*%
G01*
G04 APERTURE LIST*
G04 Aperture macros list*
%AMRoundRect*
0 Rectangle with rounded corners*
0 $1 Rounding radius*
0 $2 $3 $4 $5 $6 $7 $8 $9 X,Y pos of 4 corners*
0 Add a 4 corners polygon primitive as box body*
4,1,4,$2,$3,$4,$5,$6,$7,$8,$9,$2,$3,0*
0 Add four circle primitives for the rounded corners*
1,1,$1+$1,$2,$3*
1,1,$1+$1,$4,$5*
1,1,$1+$1,$6,$7*
1,1,$1+$1,$8,$9*
0 Add four rect primitives between the rounded corners*
20,1,$1+$1,$2,$3,$4,$5,0*
20,1,$1+$1,$4,$5,$6,$7,0*
20,1,$1+$1,$6,$7,$8,$9,0*
20,1,$1+$1,$8,$9,$2,$3,0*%
G04 Aperture macros list end*
%ADD10RoundRect,0.250000X-0.475000X0.250000X-0.475000X-0.250000X0.475000X-0.250000X0.475000X0.250000X0*%
%ADD11RoundRect,0.250000X0.475000X-0.250000X0.475000X0.250000X-0.475000X0.250000X-0.475000X-0.250000X0*%
%ADD12RoundRect,0.250000X0.262500X0.450000X-0.262500X0.450000X-0.262500X-0.450000X0.262500X-0.450000X0*%
%ADD13RoundRect,0.060000X0.615000X-0.240000X0.615000X0.240000X-0.615000X0.240000X-0.615000X-0.240000X0*%
%ADD14RoundRect,0.250000X-0.262500X-0.450000X0.262500X-0.450000X0.262500X0.450000X-0.262500X0.450000X0*%
%ADD15RoundRect,0.250000X-0.450000X0.262500X-0.450000X-0.262500X0.450000X-0.262500X0.450000X0.262500X0*%
%ADD16R,1.550000X1.300000*%
%ADD17R,1.300000X1.550000*%
%ADD18R,1.498600X0.889000*%
%ADD19R,0.889000X1.498600*%
%ADD20R,0.889000X0.889000*%
%ADD21RoundRect,0.150000X-0.587500X-0.150000X0.587500X-0.150000X0.587500X0.150000X-0.587500X0.150000X0*%
G04 APERTURE END LIST*
D10*
%TO.C,C4*%
X84470000Y-68500000D03*
X84470000Y-70400000D03*
%TD*%
%TO.C,C5*%
X82000000Y-68500000D03*
X82000000Y-70400000D03*
%TD*%
D11*
%TO.C,C6*%
X79000000Y-49900000D03*
X79000000Y-48000000D03*
%TD*%
D12*
%TO.C,R3*%
X94912500Y-77000000D03*
X93087500Y-77000000D03*
%TD*%
%TO.C,R1*%
X78412500Y-69500000D03*
X76587500Y-69500000D03*
%TD*%
%TO.C,R4*%
X78412500Y-67000000D03*
X76587500Y-67000000D03*
%TD*%
D11*
%TO.C,C9*%
X77000000Y-79450000D03*
X77000000Y-77550000D03*
%TD*%
D13*
%TO.C,U3*%
X85685000Y-79450000D03*
X85685000Y-78500000D03*
X85685000Y-77550000D03*
X83315000Y-77550000D03*
X83315000Y-79450000D03*
%TD*%
D14*
%TO.C,R2*%
X93587500Y-80000000D03*
X95412500Y-80000000D03*
%TD*%
D15*
%TO.C,R8*%
X90000000Y-69500000D03*
X90000000Y-71325000D03*
%TD*%
%TO.C,R7*%
X79000000Y-52087500D03*
X79000000Y-53912500D03*
%TD*%
D11*
%TO.C,C7*%
X76000000Y-49950000D03*
X76000000Y-48050000D03*
%TD*%
%TO.C,C2*%
X76000000Y-53950000D03*
X76000000Y-52050000D03*
%TD*%
D16*
%TO.C,SW2*%
X100475000Y-73750000D03*
X92525000Y-73750000D03*
X100475000Y-69250000D03*
X92525000Y-69250000D03*
%TD*%
D10*
%TO.C,C3*%
X90000000Y-73462500D03*
X90000000Y-75362500D03*
%TD*%
D17*
%TO.C,SW1*%
X78500000Y-56500000D03*
X78500000Y-64450000D03*
X74000000Y-56500000D03*
X74000000Y-64450000D03*
%TD*%
D18*
%TO.C,U2*%
X82000000Y-48000000D03*
X82000000Y-49270000D03*
X82000000Y-50540000D03*
X82000000Y-51810000D03*
X82000000Y-53080000D03*
X82000000Y-54350000D03*
X82000000Y-55620000D03*
X82000000Y-56890000D03*
X82000000Y-58160000D03*
X82000000Y-59430000D03*
X82000000Y-60700000D03*
X82000000Y-61970000D03*
X82000000Y-63240000D03*
X82000000Y-64510000D03*
D19*
X83765000Y-65760000D03*
X85035000Y-65760000D03*
X86305000Y-65760000D03*
X87575000Y-65760000D03*
X88845000Y-65760000D03*
X90115000Y-65760000D03*
X91385000Y-65760000D03*
X92655000Y-65760000D03*
X93925000Y-65760000D03*
X95195000Y-65760000D03*
X96465000Y-65760000D03*
X97735000Y-65760000D03*
D18*
X99500000Y-64510000D03*
X99500000Y-63240000D03*
X99500000Y-61970000D03*
X99500000Y-60700000D03*
X99500000Y-59430000D03*
X99500000Y-58160000D03*
X99500000Y-56890000D03*
X99500000Y-55620000D03*
X99500000Y-54350000D03*
X99500000Y-53080000D03*
X99500000Y-51810000D03*
X99500000Y-50540000D03*
X99500000Y-49270000D03*
X99500000Y-48000000D03*
D20*
X89500000Y-55720000D03*
X89500000Y-54320000D03*
X88100000Y-54320000D03*
X88100000Y-55720000D03*
X88100000Y-57120000D03*
X89500000Y-57120000D03*
X90900000Y-57120000D03*
X90900000Y-55720000D03*
X90900000Y-54320000D03*
%TD*%
D11*
%TO.C,C8*%
X80000000Y-79450000D03*
X80000000Y-77550000D03*
%TD*%
D21*
%TO.C,Q1*%
X98500000Y-79100000D03*
X98500000Y-81000000D03*
X100375000Y-80050000D03*
%TD*%
D12*
%TO.C,R6*%
X90412500Y-78500000D03*
X88587500Y-78500000D03*
%TD*%
%TO.C,R5*%
X100000000Y-77000000D03*
X98175000Y-77000000D03*
%TD*%
D21*
%TO.C,Q2*%
X88625000Y-81050000D03*
X88625000Y-82950000D03*
X90500000Y-82000000D03*
%TD*%
D10*
%TO.C,C1*%
X87000000Y-68500000D03*
X87000000Y-70400000D03*
%TD*%
M02*
