%TF.GenerationSoftware,KiCad,Pcbnew,8.0.1*%
%TF.CreationDate,2024-04-01T15:32:46-05:00*%
%TF.ProjectId,ece445_headset,65636534-3435-45f6-9865-61647365742e,rev?*%
%TF.SameCoordinates,Original*%
%TF.FileFunction,Legend,Top*%
%TF.FilePolarity,Positive*%
%FSLAX46Y46*%
G04 Gerber Fmt 4.6, Leading zero omitted, Abs format (unit mm)*
G04 Created by KiCad (PCBNEW 8.0.1) date 2024-04-01 15:32:46*
%MOMM*%
%LPD*%
G01*
G04 APERTURE LIST*
%ADD10C,0.100000*%
%ADD11C,0.150000*%
%ADD12C,0.120000*%
%ADD13C,0.127000*%
%ADD14C,0.200000*%
%ADD15C,0.300000*%
%ADD16C,0.152400*%
G04 APERTURE END LIST*
D10*
G36*
X85265945Y-86532107D02*
G01*
X85244696Y-86529176D01*
X85194325Y-86518136D01*
X85144725Y-86509808D01*
X85095897Y-86504192D01*
X85041038Y-86501093D01*
X85020725Y-86500844D01*
X84969561Y-86502340D01*
X84918452Y-86506408D01*
X84897871Y-86508660D01*
X84846420Y-86515506D01*
X84796722Y-86523834D01*
X84754256Y-86532107D01*
X84759355Y-86582442D01*
X84760362Y-86609043D01*
X84759630Y-86665265D01*
X84757786Y-86722348D01*
X84755313Y-86777137D01*
X84752623Y-86826926D01*
X84749360Y-86880472D01*
X84748639Y-86891632D01*
X85049546Y-86859881D01*
X85102672Y-86853980D01*
X85151394Y-86849012D01*
X85200493Y-86845108D01*
X85212456Y-86844738D01*
X85259084Y-86860585D01*
X85263014Y-86864033D01*
X85283592Y-86909395D01*
X85283775Y-86915324D01*
X85267960Y-86964112D01*
X85220516Y-86985422D01*
X85057117Y-87001053D01*
X84739846Y-87032316D01*
X84736935Y-87083802D01*
X84735205Y-87121709D01*
X84733736Y-87172237D01*
X84733496Y-87200355D01*
X84734268Y-87251234D01*
X84737703Y-87305823D01*
X84746912Y-87356156D01*
X84755478Y-87373279D01*
X84805433Y-87389231D01*
X84857797Y-87391824D01*
X84863433Y-87391842D01*
X84912720Y-87391842D01*
X84965752Y-87391842D01*
X84991416Y-87391842D01*
X85040742Y-87391842D01*
X85092598Y-87391842D01*
X85120376Y-87391842D01*
X85160676Y-87384026D01*
X85200732Y-87376210D01*
X85250487Y-87390095D01*
X85272877Y-87435787D01*
X85273517Y-87448750D01*
X85258923Y-87495706D01*
X85215143Y-87519337D01*
X85160126Y-87526292D01*
X85104102Y-87529628D01*
X85055254Y-87531238D01*
X84999048Y-87532204D01*
X84948786Y-87532513D01*
X84935484Y-87532526D01*
X84884625Y-87531663D01*
X84827758Y-87528159D01*
X84778346Y-87521960D01*
X84728889Y-87510964D01*
X84679644Y-87490264D01*
X84662177Y-87477327D01*
X84633326Y-87437515D01*
X84614843Y-87386652D01*
X84604024Y-87331147D01*
X84598550Y-87276498D01*
X84596489Y-87227283D01*
X84596231Y-87200844D01*
X84596849Y-87149659D01*
X84598185Y-87106322D01*
X84600514Y-87056466D01*
X84603172Y-87006737D01*
X84603803Y-86995680D01*
X84596231Y-86962707D01*
X84609176Y-86921674D01*
X84613116Y-86863253D01*
X84616389Y-86809804D01*
X84619434Y-86752231D01*
X84621518Y-86701819D01*
X84622733Y-86652055D01*
X84622854Y-86633712D01*
X84619007Y-86583291D01*
X84616015Y-86560683D01*
X84610305Y-86511522D01*
X84609176Y-86487411D01*
X84618827Y-86438444D01*
X84658036Y-86409016D01*
X84677808Y-86407055D01*
X84724763Y-86421008D01*
X84727390Y-86422930D01*
X84777951Y-86404789D01*
X84826747Y-86389748D01*
X84878384Y-86376784D01*
X84882972Y-86375792D01*
X84932308Y-86366892D01*
X84983760Y-86361396D01*
X85020725Y-86360160D01*
X85071286Y-86361102D01*
X85127615Y-86364720D01*
X85179204Y-86371051D01*
X85233400Y-86381867D01*
X85281144Y-86396376D01*
X85287438Y-86398750D01*
X85325778Y-86429825D01*
X85333356Y-86462498D01*
X85315526Y-86509637D01*
X85271403Y-86531909D01*
X85265945Y-86532107D01*
G37*
G36*
X86132763Y-86688422D02*
G01*
X86086395Y-86668864D01*
X86066817Y-86638353D01*
X86041672Y-86595397D01*
X86031158Y-86586329D01*
X85982554Y-86579352D01*
X85959595Y-86579002D01*
X85908502Y-86588817D01*
X85861517Y-86613509D01*
X85819551Y-86646637D01*
X85783386Y-86682678D01*
X85746135Y-86726388D01*
X85738555Y-86736050D01*
X85709092Y-86775378D01*
X85674316Y-86827215D01*
X85644692Y-86878365D01*
X85620220Y-86928827D01*
X85600900Y-86978603D01*
X85586732Y-87027692D01*
X85577716Y-87076094D01*
X85573691Y-87135631D01*
X85578193Y-87184985D01*
X85593754Y-87235064D01*
X85620429Y-87280135D01*
X85630600Y-87292679D01*
X85669445Y-87328486D01*
X85713013Y-87351030D01*
X85761303Y-87360313D01*
X85771528Y-87360579D01*
X85824605Y-87355667D01*
X85873500Y-87342536D01*
X85913677Y-87325652D01*
X85956647Y-87301002D01*
X86001822Y-87271335D01*
X86035799Y-87247739D01*
X86078885Y-87223185D01*
X86094905Y-87219895D01*
X86140447Y-87237948D01*
X86144242Y-87241877D01*
X86164192Y-87287143D01*
X86164270Y-87290481D01*
X86145665Y-87336372D01*
X86138136Y-87343726D01*
X86092761Y-87380649D01*
X86047247Y-87412648D01*
X86001597Y-87439725D01*
X85955809Y-87461878D01*
X85909884Y-87479109D01*
X85852284Y-87493724D01*
X85794469Y-87500647D01*
X85771284Y-87501263D01*
X85719523Y-87497338D01*
X85670854Y-87485566D01*
X85625276Y-87465946D01*
X85582789Y-87438477D01*
X85543393Y-87403160D01*
X85530949Y-87389644D01*
X85498743Y-87347778D01*
X85473200Y-87303147D01*
X85454321Y-87255752D01*
X85442105Y-87205591D01*
X85436553Y-87152666D01*
X85436182Y-87134410D01*
X85439232Y-87074750D01*
X85448379Y-87014716D01*
X85463625Y-86954307D01*
X85484970Y-86893525D01*
X85504980Y-86847693D01*
X85528421Y-86801651D01*
X85555292Y-86755398D01*
X85585594Y-86708935D01*
X85619326Y-86662261D01*
X85631332Y-86646657D01*
X85672045Y-86597827D01*
X85712848Y-86555508D01*
X85753744Y-86519700D01*
X85794731Y-86490403D01*
X85846093Y-86462936D01*
X85897599Y-86445642D01*
X85949248Y-86438521D01*
X85959595Y-86438318D01*
X86009690Y-86440414D01*
X86019923Y-86441493D01*
X86067306Y-86451263D01*
X86109383Y-86424947D01*
X86129832Y-86422686D01*
X86175418Y-86446252D01*
X86189672Y-86483014D01*
X86197185Y-86534706D01*
X86200276Y-86586455D01*
X86200662Y-86614905D01*
X86185519Y-86662533D01*
X86143067Y-86687790D01*
X86132763Y-86688422D01*
G37*
G36*
X86983461Y-86532107D02*
G01*
X86962212Y-86529176D01*
X86911841Y-86518136D01*
X86862241Y-86509808D01*
X86813413Y-86504192D01*
X86758553Y-86501093D01*
X86738241Y-86500844D01*
X86687077Y-86502340D01*
X86635967Y-86506408D01*
X86615387Y-86508660D01*
X86563936Y-86515506D01*
X86514237Y-86523834D01*
X86471772Y-86532107D01*
X86476870Y-86582442D01*
X86477878Y-86609043D01*
X86477145Y-86665265D01*
X86475302Y-86722348D01*
X86472829Y-86777137D01*
X86470139Y-86826926D01*
X86466876Y-86880472D01*
X86466154Y-86891632D01*
X86767062Y-86859881D01*
X86820188Y-86853980D01*
X86868910Y-86849012D01*
X86918009Y-86845108D01*
X86929972Y-86844738D01*
X86976599Y-86860585D01*
X86980530Y-86864033D01*
X87001108Y-86909395D01*
X87001290Y-86915324D01*
X86985476Y-86964112D01*
X86938032Y-86985422D01*
X86774633Y-87001053D01*
X86457362Y-87032316D01*
X86454451Y-87083802D01*
X86452721Y-87121709D01*
X86451252Y-87172237D01*
X86451011Y-87200355D01*
X86451784Y-87251234D01*
X86455219Y-87305823D01*
X86464428Y-87356156D01*
X86472993Y-87373279D01*
X86522949Y-87389231D01*
X86575312Y-87391824D01*
X86580949Y-87391842D01*
X86630236Y-87391842D01*
X86683267Y-87391842D01*
X86708932Y-87391842D01*
X86758257Y-87391842D01*
X86810114Y-87391842D01*
X86837892Y-87391842D01*
X86878192Y-87384026D01*
X86918248Y-87376210D01*
X86968003Y-87390095D01*
X86990393Y-87435787D01*
X86991032Y-87448750D01*
X86976439Y-87495706D01*
X86932658Y-87519337D01*
X86877642Y-87526292D01*
X86821617Y-87529628D01*
X86772770Y-87531238D01*
X86716564Y-87532204D01*
X86666302Y-87532513D01*
X86653000Y-87532526D01*
X86602140Y-87531663D01*
X86545274Y-87528159D01*
X86495861Y-87521960D01*
X86446405Y-87510964D01*
X86397160Y-87490264D01*
X86379692Y-87477327D01*
X86350841Y-87437515D01*
X86332358Y-87386652D01*
X86321539Y-87331147D01*
X86316065Y-87276498D01*
X86314004Y-87227283D01*
X86313747Y-87200844D01*
X86314365Y-87149659D01*
X86315701Y-87106322D01*
X86318030Y-87056466D01*
X86320688Y-87006737D01*
X86321318Y-86995680D01*
X86313747Y-86962707D01*
X86326692Y-86921674D01*
X86330632Y-86863253D01*
X86333905Y-86809804D01*
X86336950Y-86752231D01*
X86339034Y-86701819D01*
X86340249Y-86652055D01*
X86340369Y-86633712D01*
X86336523Y-86583291D01*
X86333531Y-86560683D01*
X86327820Y-86511522D01*
X86326692Y-86487411D01*
X86336343Y-86438444D01*
X86375552Y-86409016D01*
X86395324Y-86407055D01*
X86442279Y-86421008D01*
X86444905Y-86422930D01*
X86495466Y-86404789D01*
X86544263Y-86389748D01*
X86595900Y-86376784D01*
X86600488Y-86375792D01*
X86649824Y-86366892D01*
X86701275Y-86361396D01*
X86738241Y-86360160D01*
X86788802Y-86361102D01*
X86845131Y-86364720D01*
X86896719Y-86371051D01*
X86950915Y-86381867D01*
X86998660Y-86396376D01*
X87004954Y-86398750D01*
X87043294Y-86429825D01*
X87050872Y-86462498D01*
X87033042Y-86509637D01*
X86988918Y-86531909D01*
X86983461Y-86532107D01*
G37*
G36*
X87726666Y-86402589D02*
G01*
X87753364Y-86446988D01*
X87754047Y-86459078D01*
X87754047Y-87032316D01*
X87782135Y-87031584D01*
X87831432Y-87035020D01*
X87880853Y-87051850D01*
X87908158Y-87094696D01*
X87908653Y-87103391D01*
X87892115Y-87149982D01*
X87856385Y-87169337D01*
X87805533Y-87173744D01*
X87754047Y-87173000D01*
X87754047Y-87422861D01*
X87738415Y-87469938D01*
X87691521Y-87485631D01*
X87644396Y-87469628D01*
X87621295Y-87421619D01*
X87618736Y-87388667D01*
X87620202Y-87354717D01*
X87621667Y-87324675D01*
X87620935Y-87173000D01*
X87317829Y-87164452D01*
X87264687Y-87163760D01*
X87215778Y-87161104D01*
X87187404Y-87157369D01*
X87140509Y-87139722D01*
X87124877Y-87107787D01*
X87141181Y-87059497D01*
X87160026Y-87032316D01*
X87334438Y-87032316D01*
X87620935Y-87032316D01*
X87620935Y-86586817D01*
X87587248Y-86641283D01*
X87554975Y-86693120D01*
X87524114Y-86742330D01*
X87494665Y-86788913D01*
X87466629Y-86832868D01*
X87440005Y-86874196D01*
X87406704Y-86925212D01*
X87375914Y-86971557D01*
X87347635Y-87013231D01*
X87334438Y-87032316D01*
X87160026Y-87032316D01*
X87162735Y-87028408D01*
X87221842Y-86957090D01*
X87559630Y-86456392D01*
X87594252Y-86419403D01*
X87638605Y-86396562D01*
X87676378Y-86391423D01*
X87726666Y-86402589D01*
G37*
G36*
X88580539Y-86402589D02*
G01*
X88607237Y-86446988D01*
X88607920Y-86459078D01*
X88607920Y-87032316D01*
X88636008Y-87031584D01*
X88685305Y-87035020D01*
X88734726Y-87051850D01*
X88762031Y-87094696D01*
X88762526Y-87103391D01*
X88745988Y-87149982D01*
X88710258Y-87169337D01*
X88659406Y-87173744D01*
X88607920Y-87173000D01*
X88607920Y-87422861D01*
X88592288Y-87469938D01*
X88545394Y-87485631D01*
X88498269Y-87469628D01*
X88475168Y-87421619D01*
X88472609Y-87388667D01*
X88474075Y-87354717D01*
X88475540Y-87324675D01*
X88474808Y-87173000D01*
X88171702Y-87164452D01*
X88118560Y-87163760D01*
X88069651Y-87161104D01*
X88041277Y-87157369D01*
X87994382Y-87139722D01*
X87978750Y-87107787D01*
X87995054Y-87059497D01*
X88013899Y-87032316D01*
X88188311Y-87032316D01*
X88474808Y-87032316D01*
X88474808Y-86586817D01*
X88441121Y-86641283D01*
X88408848Y-86693120D01*
X88377987Y-86742330D01*
X88348538Y-86788913D01*
X88320502Y-86832868D01*
X88293878Y-86874196D01*
X88260577Y-86925212D01*
X88229787Y-86971557D01*
X88201508Y-87013231D01*
X88188311Y-87032316D01*
X88013899Y-87032316D01*
X88016608Y-87028408D01*
X88075715Y-86957090D01*
X88413503Y-86456392D01*
X88448125Y-86419403D01*
X88492478Y-86396562D01*
X88530251Y-86391423D01*
X88580539Y-86402589D01*
G37*
G36*
X89185554Y-87501263D02*
G01*
X89127157Y-87497721D01*
X89073780Y-87487095D01*
X89025424Y-87469385D01*
X88982089Y-87444591D01*
X88943774Y-87412713D01*
X88910481Y-87373751D01*
X88898569Y-87356182D01*
X88886113Y-87317592D01*
X88906054Y-87272170D01*
X88907362Y-87270942D01*
X88952141Y-87251235D01*
X88955478Y-87251158D01*
X89000963Y-87271328D01*
X89008967Y-87279490D01*
X89042723Y-87314937D01*
X89063921Y-87332247D01*
X89109202Y-87351614D01*
X89157837Y-87359583D01*
X89185554Y-87360579D01*
X89235641Y-87356441D01*
X89288104Y-87341581D01*
X89335468Y-87315912D01*
X89377734Y-87279436D01*
X89382658Y-87274117D01*
X89415463Y-87230748D01*
X89438895Y-87183197D01*
X89452954Y-87131464D01*
X89457568Y-87082766D01*
X89457641Y-87075547D01*
X89455033Y-87024551D01*
X89446017Y-86974596D01*
X89428661Y-86927799D01*
X89424668Y-86920209D01*
X89393599Y-86880410D01*
X89349009Y-86853656D01*
X89299006Y-86844812D01*
X89293510Y-86844738D01*
X89242150Y-86847554D01*
X89191781Y-86857959D01*
X89173342Y-86864766D01*
X89131345Y-86889813D01*
X89098360Y-86919232D01*
X89023621Y-87001297D01*
X88981401Y-87029287D01*
X88961828Y-87032316D01*
X88916147Y-87013521D01*
X88914933Y-87012288D01*
X88895901Y-86965920D01*
X88895882Y-86964173D01*
X88899757Y-86913167D01*
X88904909Y-86858861D01*
X88906873Y-86838876D01*
X88912311Y-86785868D01*
X88918090Y-86726283D01*
X88922735Y-86674117D01*
X88926813Y-86621309D01*
X88929714Y-86567515D01*
X88930076Y-86547739D01*
X88920247Y-86499416D01*
X88918108Y-86494005D01*
X88906140Y-86450774D01*
X88937171Y-86412867D01*
X88978192Y-86407787D01*
X89019713Y-86410230D01*
X89061479Y-86412672D01*
X89111243Y-86412001D01*
X89161630Y-86410615D01*
X89180914Y-86409986D01*
X89230979Y-86408317D01*
X89281175Y-86407195D01*
X89300593Y-86407055D01*
X89349883Y-86408258D01*
X89356769Y-86408520D01*
X89406917Y-86409711D01*
X89413189Y-86409741D01*
X89450802Y-86404612D01*
X89488171Y-86399483D01*
X89534022Y-86417362D01*
X89535310Y-86418534D01*
X89556071Y-86462009D01*
X89533161Y-86506362D01*
X89485911Y-86526193D01*
X89431343Y-86533656D01*
X89393161Y-86534794D01*
X89343659Y-86533720D01*
X89339672Y-86533572D01*
X89300593Y-86532107D01*
X89184333Y-86534305D01*
X89068318Y-86537969D01*
X89064746Y-86587520D01*
X89059363Y-86639011D01*
X89052814Y-86696393D01*
X89045992Y-86753551D01*
X89042916Y-86778792D01*
X89087048Y-86749671D01*
X89137164Y-86727702D01*
X89184883Y-86714564D01*
X89236998Y-86706681D01*
X89293510Y-86704054D01*
X89347689Y-86708167D01*
X89396836Y-86720506D01*
X89447815Y-86745298D01*
X89491945Y-86781287D01*
X89524319Y-86821046D01*
X89550586Y-86867143D01*
X89570401Y-86918452D01*
X89582250Y-86966581D01*
X89589360Y-87018539D01*
X89591730Y-87074326D01*
X89589083Y-87130219D01*
X89581140Y-87182952D01*
X89567902Y-87232525D01*
X89549369Y-87278937D01*
X89525541Y-87322188D01*
X89496418Y-87362280D01*
X89483286Y-87377431D01*
X89446265Y-87413105D01*
X89405725Y-87442733D01*
X89361667Y-87466314D01*
X89314091Y-87483849D01*
X89262997Y-87495337D01*
X89208384Y-87500779D01*
X89185554Y-87501263D01*
G37*
G36*
X90163747Y-87286573D02*
G01*
X90182040Y-87239628D01*
X90183286Y-87238457D01*
X90229454Y-87219967D01*
X90233112Y-87219895D01*
X90278999Y-87240503D01*
X90292219Y-87256531D01*
X90323352Y-87296159D01*
X90354745Y-87323942D01*
X90401140Y-87344801D01*
X90454186Y-87356250D01*
X90504077Y-87360257D01*
X90524494Y-87360579D01*
X90576792Y-87357953D01*
X90627198Y-87350076D01*
X90675710Y-87336948D01*
X90722330Y-87318569D01*
X90767821Y-87292943D01*
X90806129Y-87258734D01*
X90831782Y-87213972D01*
X90839078Y-87168604D01*
X90827476Y-87118153D01*
X90796793Y-87079150D01*
X90752782Y-87049636D01*
X90740893Y-87043796D01*
X90691071Y-87024418D01*
X90641562Y-87012026D01*
X90587138Y-87004184D01*
X90535484Y-87001053D01*
X90483262Y-86996504D01*
X90435040Y-86987009D01*
X90385570Y-86970416D01*
X90350593Y-86953182D01*
X90307957Y-86921949D01*
X90274553Y-86879587D01*
X90256566Y-86829574D01*
X90253140Y-86791981D01*
X90259778Y-86738929D01*
X90279694Y-86687910D01*
X90307331Y-86645798D01*
X90344723Y-86605180D01*
X90383335Y-86572474D01*
X90391870Y-86566057D01*
X90433529Y-86538263D01*
X90484088Y-86511130D01*
X90535264Y-86490779D01*
X90587059Y-86477212D01*
X90639472Y-86470429D01*
X90665910Y-86469581D01*
X90718323Y-86473050D01*
X90770593Y-86482325D01*
X90816364Y-86494249D01*
X90864983Y-86511362D01*
X90909153Y-86538530D01*
X90927494Y-86576071D01*
X90913917Y-86623054D01*
X90865701Y-86641528D01*
X90815173Y-86635326D01*
X90769469Y-86625652D01*
X90718784Y-86615336D01*
X90667832Y-86610239D01*
X90662979Y-86610265D01*
X90611490Y-86613699D01*
X90558345Y-86624315D01*
X90510262Y-86642078D01*
X90481018Y-86657892D01*
X90440446Y-86689510D01*
X90411595Y-86732741D01*
X90404082Y-86773175D01*
X90429483Y-86816894D01*
X90476416Y-86838167D01*
X90505687Y-86845471D01*
X90556688Y-86852758D01*
X90607922Y-86857319D01*
X90651988Y-86860369D01*
X90708560Y-86867428D01*
X90760306Y-86879810D01*
X90807227Y-86897515D01*
X90855868Y-86924901D01*
X90897941Y-86959532D01*
X90933417Y-87001771D01*
X90958757Y-87048375D01*
X90973961Y-87099346D01*
X90979030Y-87154682D01*
X90975338Y-87204287D01*
X90961165Y-87259562D01*
X90936361Y-87310200D01*
X90900926Y-87356202D01*
X90863277Y-87390995D01*
X90827843Y-87416510D01*
X90777190Y-87445313D01*
X90723601Y-87468156D01*
X90676700Y-87482640D01*
X90627760Y-87492986D01*
X90576780Y-87499193D01*
X90523761Y-87501263D01*
X90469747Y-87498913D01*
X90417766Y-87491866D01*
X90367819Y-87480120D01*
X90319906Y-87463676D01*
X90293440Y-87452170D01*
X90249960Y-87427967D01*
X90210411Y-87395736D01*
X90179953Y-87353635D01*
X90165219Y-87305916D01*
X90163747Y-87286573D01*
G37*
G36*
X91429951Y-86411040D02*
G01*
X91482703Y-86422996D01*
X91533936Y-86442923D01*
X91583649Y-86470821D01*
X91611374Y-86490341D01*
X91652461Y-86526185D01*
X91685048Y-86564656D01*
X91712321Y-86612860D01*
X91728024Y-86664640D01*
X91732274Y-86711870D01*
X91729120Y-86761967D01*
X91717007Y-86817723D01*
X91695810Y-86868722D01*
X91665527Y-86914964D01*
X91626160Y-86956449D01*
X91603070Y-86975408D01*
X91558107Y-87005372D01*
X91509865Y-87029137D01*
X91458342Y-87046703D01*
X91403539Y-87058069D01*
X91345456Y-87063235D01*
X91325366Y-87063579D01*
X91274286Y-87058911D01*
X91241591Y-87054542D01*
X91239497Y-87109557D01*
X91238112Y-87169102D01*
X91237246Y-87227461D01*
X91236742Y-87279866D01*
X91236406Y-87337355D01*
X91236238Y-87399927D01*
X91236217Y-87433119D01*
X91219484Y-87480249D01*
X91218387Y-87481479D01*
X91173691Y-87501263D01*
X91128262Y-87482456D01*
X91110432Y-87436050D01*
X91110432Y-87234305D01*
X91111211Y-87178740D01*
X91113169Y-87121705D01*
X91115797Y-87066568D01*
X91118655Y-87016212D01*
X91122122Y-86961848D01*
X91122889Y-86950495D01*
X91125283Y-86914836D01*
X91249895Y-86914836D01*
X91325366Y-86922896D01*
X91374167Y-86920359D01*
X91425676Y-86911250D01*
X91472635Y-86895515D01*
X91520027Y-86869895D01*
X91557855Y-86838525D01*
X91587491Y-86797139D01*
X91603450Y-86749301D01*
X91606489Y-86713824D01*
X91594915Y-86664330D01*
X91563968Y-86623728D01*
X91524180Y-86593900D01*
X91480269Y-86571586D01*
X91429351Y-86555357D01*
X91376190Y-86548144D01*
X91359804Y-86547739D01*
X91310569Y-86548741D01*
X91306071Y-86548960D01*
X91265771Y-86552623D01*
X91264305Y-86667173D01*
X91249895Y-86914836D01*
X91125283Y-86914836D01*
X91126865Y-86891267D01*
X91130244Y-86837537D01*
X91133513Y-86780319D01*
X91135923Y-86731017D01*
X91137801Y-86677597D01*
X91138032Y-86666441D01*
X91138032Y-86571674D01*
X91139402Y-86522633D01*
X91146336Y-86473000D01*
X91171127Y-86429647D01*
X91213747Y-86420732D01*
X91263882Y-86411626D01*
X91276029Y-86410474D01*
X91327514Y-86407709D01*
X91375680Y-86407055D01*
X91429951Y-86411040D01*
G37*
G36*
X92463049Y-87470000D02*
G01*
X92414445Y-87462184D01*
X92366817Y-87454368D01*
X92316199Y-87455295D01*
X92265896Y-87457119D01*
X92261549Y-87457299D01*
X92210436Y-87459197D01*
X92160627Y-87460218D01*
X92156036Y-87460230D01*
X92106973Y-87462539D01*
X92076657Y-87465115D01*
X92025695Y-87469065D01*
X91997278Y-87470000D01*
X91975296Y-87467313D01*
X91953314Y-87464382D01*
X91906965Y-87445968D01*
X91891521Y-87417243D01*
X91884027Y-87367036D01*
X91883217Y-87333224D01*
X91885345Y-87283737D01*
X91893520Y-87228714D01*
X91907825Y-87178447D01*
X91928261Y-87132938D01*
X91959852Y-87085856D01*
X91970411Y-87073593D01*
X92008531Y-87038841D01*
X92050968Y-87005858D01*
X92097668Y-86971912D01*
X92143866Y-86939622D01*
X92185589Y-86911172D01*
X92230606Y-86879878D01*
X92271507Y-86848979D01*
X92309992Y-86814873D01*
X92316748Y-86807613D01*
X92347917Y-86764837D01*
X92367542Y-86717720D01*
X92375623Y-86666262D01*
X92375854Y-86655450D01*
X92357848Y-86609631D01*
X92318946Y-86578269D01*
X92272259Y-86556355D01*
X92223525Y-86547768D01*
X92220516Y-86547739D01*
X92170284Y-86553906D01*
X92121987Y-86572408D01*
X92100348Y-86585108D01*
X92002163Y-86664487D01*
X91958226Y-86688212D01*
X91954780Y-86688422D01*
X91906360Y-86677109D01*
X91884018Y-86632952D01*
X91883949Y-86629316D01*
X91899900Y-86582316D01*
X91910083Y-86571186D01*
X91948933Y-86534351D01*
X91989464Y-86499444D01*
X92030556Y-86468771D01*
X92049546Y-86456636D01*
X92096644Y-86432668D01*
X92144514Y-86416545D01*
X92193158Y-86408265D01*
X92220516Y-86407055D01*
X92274692Y-86410947D01*
X92325846Y-86422625D01*
X92373977Y-86442088D01*
X92419085Y-86469337D01*
X92457058Y-86501909D01*
X92489034Y-86543801D01*
X92508830Y-86590669D01*
X92516443Y-86642513D01*
X92516538Y-86649344D01*
X92513722Y-86699673D01*
X92504314Y-86750785D01*
X92496510Y-86776838D01*
X92477010Y-86822416D01*
X92450657Y-86864688D01*
X92436182Y-86883084D01*
X92401552Y-86918433D01*
X92361298Y-86951768D01*
X92318763Y-86982414D01*
X92276871Y-87009780D01*
X92261793Y-87019127D01*
X92216458Y-87047721D01*
X92171447Y-87077651D01*
X92130395Y-87107334D01*
X92092044Y-87140272D01*
X92058797Y-87181304D01*
X92035258Y-87226489D01*
X92021427Y-87275826D01*
X92017306Y-87329316D01*
X92158722Y-87319790D01*
X92210391Y-87317715D01*
X92263292Y-87315837D01*
X92314018Y-87314406D01*
X92366817Y-87313684D01*
X92417681Y-87318264D01*
X92465736Y-87332002D01*
X92507977Y-87357020D01*
X92527529Y-87399902D01*
X92511214Y-87446041D01*
X92508967Y-87448750D01*
X92464750Y-87469979D01*
X92463049Y-87470000D01*
G37*
G36*
X93259254Y-86402589D02*
G01*
X93285953Y-86446988D01*
X93286636Y-86459078D01*
X93286636Y-87032316D01*
X93314724Y-87031584D01*
X93364021Y-87035020D01*
X93413442Y-87051850D01*
X93440747Y-87094696D01*
X93441242Y-87103391D01*
X93424704Y-87149982D01*
X93388974Y-87169337D01*
X93338122Y-87173744D01*
X93286636Y-87173000D01*
X93286636Y-87422861D01*
X93271004Y-87469938D01*
X93224110Y-87485631D01*
X93176985Y-87469628D01*
X93153884Y-87421619D01*
X93151325Y-87388667D01*
X93152791Y-87354717D01*
X93154256Y-87324675D01*
X93153524Y-87173000D01*
X92850418Y-87164452D01*
X92797276Y-87163760D01*
X92748367Y-87161104D01*
X92719993Y-87157369D01*
X92673098Y-87139722D01*
X92657466Y-87107787D01*
X92673770Y-87059497D01*
X92692615Y-87032316D01*
X92867027Y-87032316D01*
X93153524Y-87032316D01*
X93153524Y-86586817D01*
X93119837Y-86641283D01*
X93087564Y-86693120D01*
X93056703Y-86742330D01*
X93027254Y-86788913D01*
X92999218Y-86832868D01*
X92972594Y-86874196D01*
X92939293Y-86925212D01*
X92908503Y-86971557D01*
X92880224Y-87013231D01*
X92867027Y-87032316D01*
X92692615Y-87032316D01*
X92695324Y-87028408D01*
X92754431Y-86957090D01*
X93092219Y-86456392D01*
X93126841Y-86419403D01*
X93171194Y-86396562D01*
X93208967Y-86391423D01*
X93259254Y-86402589D01*
G37*
G36*
X94789462Y-87040621D02*
G01*
X94777368Y-87091755D01*
X94762336Y-87140256D01*
X94744365Y-87186124D01*
X94717769Y-87239756D01*
X94686582Y-87289274D01*
X94650803Y-87334677D01*
X94610432Y-87375966D01*
X94566644Y-87412062D01*
X94520458Y-87442040D01*
X94471876Y-87465901D01*
X94420896Y-87483643D01*
X94367519Y-87495267D01*
X94311745Y-87500773D01*
X94288764Y-87501263D01*
X94238010Y-87499026D01*
X94182552Y-87490440D01*
X94133035Y-87475413D01*
X94082776Y-87449743D01*
X94040605Y-87415307D01*
X94035240Y-87409672D01*
X94002312Y-87365111D01*
X93980525Y-87319939D01*
X93964679Y-87268328D01*
X93954776Y-87210276D01*
X93951062Y-87156980D01*
X93950732Y-87134410D01*
X93952783Y-87080121D01*
X93958937Y-87025331D01*
X93969194Y-86970040D01*
X93983552Y-86914248D01*
X94002014Y-86857955D01*
X94024578Y-86801161D01*
X94034752Y-86778304D01*
X94056562Y-86733611D01*
X94085918Y-86680847D01*
X94117599Y-86631530D01*
X94151606Y-86585659D01*
X94187938Y-86543235D01*
X94226596Y-86504258D01*
X94250907Y-86482526D01*
X94295512Y-86449507D01*
X94341399Y-86425922D01*
X94388568Y-86411772D01*
X94437020Y-86407055D01*
X94489513Y-86412756D01*
X94541810Y-86426218D01*
X94589247Y-86442689D01*
X94601884Y-86447599D01*
X94650610Y-86469354D01*
X94695673Y-86498768D01*
X94724982Y-86540510D01*
X94726936Y-86555066D01*
X94708689Y-86601663D01*
X94706175Y-86604403D01*
X94662169Y-86625707D01*
X94656838Y-86625896D01*
X94614340Y-86609288D01*
X94569874Y-86585305D01*
X94522949Y-86565109D01*
X94475122Y-86551585D01*
X94437020Y-86547739D01*
X94387686Y-86559062D01*
X94343280Y-86587195D01*
X94329309Y-86599274D01*
X94294870Y-86635727D01*
X94261028Y-86676932D01*
X94248220Y-86693307D01*
X94211011Y-86744407D01*
X94178763Y-86796591D01*
X94151477Y-86849859D01*
X94129152Y-86904211D01*
X94111787Y-86959646D01*
X94099385Y-87016166D01*
X94091943Y-87073769D01*
X94089462Y-87132456D01*
X94091367Y-87183269D01*
X94098210Y-87232584D01*
X94113761Y-87281089D01*
X94129274Y-87306357D01*
X94167624Y-87337227D01*
X94217465Y-87354172D01*
X94267608Y-87360102D01*
X94288764Y-87360579D01*
X94340970Y-87356874D01*
X94390091Y-87345759D01*
X94436126Y-87327235D01*
X94479075Y-87301300D01*
X94502233Y-87283154D01*
X94541255Y-87243766D01*
X94574761Y-87197622D01*
X94599090Y-87152694D01*
X94619366Y-87102802D01*
X94635589Y-87047948D01*
X94577461Y-87052124D01*
X94521992Y-87058853D01*
X94469183Y-87068134D01*
X94419034Y-87079967D01*
X94371543Y-87094352D01*
X94318066Y-87114983D01*
X94309525Y-87118778D01*
X94278506Y-87126106D01*
X94232238Y-87105846D01*
X94228436Y-87101437D01*
X94210037Y-87054692D01*
X94209874Y-87049169D01*
X94227075Y-87001932D01*
X94246266Y-86985422D01*
X94297849Y-86962906D01*
X94346681Y-86947640D01*
X94402236Y-86934818D01*
X94464516Y-86924437D01*
X94515639Y-86918255D01*
X94570544Y-86913446D01*
X94629232Y-86910012D01*
X94691702Y-86907951D01*
X94757955Y-86907264D01*
X94804781Y-86924652D01*
X94807292Y-86927048D01*
X94827242Y-86973158D01*
X94827320Y-86976873D01*
X94811016Y-87024382D01*
X94789462Y-87040621D01*
G37*
G36*
X95477983Y-86948053D02*
G01*
X95467669Y-86996027D01*
X95431186Y-87029354D01*
X95409351Y-87032316D01*
X95363231Y-87013360D01*
X95350244Y-86965150D01*
X95348046Y-86917522D01*
X95346092Y-86860369D01*
X95294556Y-86869040D01*
X95243002Y-86884049D01*
X95198248Y-86904623D01*
X95172191Y-86921430D01*
X95132636Y-86957498D01*
X95100884Y-86999554D01*
X95075734Y-87044949D01*
X95070586Y-87056008D01*
X95072051Y-87431898D01*
X95059055Y-87479315D01*
X95012374Y-87500992D01*
X95004152Y-87501263D01*
X94956889Y-87481824D01*
X94943579Y-87432386D01*
X94943579Y-86954647D01*
X94944708Y-86903299D01*
X94945289Y-86887236D01*
X94946797Y-86837929D01*
X94946999Y-86819825D01*
X94960308Y-86770387D01*
X95007571Y-86750949D01*
X95053626Y-86771659D01*
X95071971Y-86816988D01*
X95075471Y-86859148D01*
X95117390Y-86823474D01*
X95160717Y-86793847D01*
X95205451Y-86770265D01*
X95251593Y-86752731D01*
X95299141Y-86741243D01*
X95348097Y-86735801D01*
X95368073Y-86735317D01*
X95416678Y-86745636D01*
X95451116Y-86776594D01*
X95470926Y-86824293D01*
X95478042Y-86875744D01*
X95478715Y-86900669D01*
X95477983Y-86948053D01*
G37*
G36*
X95972620Y-86755354D02*
G01*
X96024045Y-86771627D01*
X96069112Y-86799893D01*
X96107820Y-86840149D01*
X96131577Y-86876245D01*
X96153455Y-86922554D01*
X96169724Y-86972790D01*
X96180383Y-87026953D01*
X96185054Y-87076503D01*
X96185799Y-87120000D01*
X96182404Y-87175406D01*
X96173686Y-87227688D01*
X96159644Y-87276843D01*
X96140278Y-87322874D01*
X96115588Y-87365778D01*
X96106175Y-87379385D01*
X96071193Y-87420805D01*
X96032193Y-87453654D01*
X95989173Y-87477935D01*
X95942136Y-87493645D01*
X95891079Y-87500787D01*
X95873168Y-87501263D01*
X95824263Y-87497195D01*
X95772121Y-87482587D01*
X95723978Y-87457353D01*
X95685134Y-87426559D01*
X95674598Y-87416266D01*
X95642968Y-87378619D01*
X95617503Y-87336387D01*
X95598203Y-87289570D01*
X95585068Y-87238167D01*
X95578098Y-87182179D01*
X95577145Y-87162498D01*
X95577165Y-87161765D01*
X95712700Y-87161765D01*
X95716989Y-87213693D01*
X95731815Y-87263324D01*
X95760356Y-87308110D01*
X95766922Y-87315150D01*
X95806413Y-87344563D01*
X95854712Y-87359470D01*
X95873412Y-87360579D01*
X95924119Y-87353332D01*
X95969262Y-87331590D01*
X95996266Y-87309043D01*
X96027383Y-87269435D01*
X96047767Y-87222051D01*
X96056935Y-87172757D01*
X96058060Y-87154926D01*
X96057953Y-87093377D01*
X96052747Y-87040010D01*
X96039071Y-86984807D01*
X96012143Y-86935440D01*
X95973743Y-86904482D01*
X95923872Y-86891934D01*
X95914445Y-86891632D01*
X95861240Y-86898950D01*
X95815106Y-86921454D01*
X95776043Y-86959143D01*
X95757397Y-86986643D01*
X95735790Y-87031502D01*
X95721255Y-87079800D01*
X95713791Y-87131536D01*
X95712700Y-87161765D01*
X95577165Y-87161765D01*
X95578711Y-87105734D01*
X95586339Y-87051581D01*
X95600029Y-87000038D01*
X95619781Y-86951106D01*
X95645595Y-86904783D01*
X95655547Y-86889923D01*
X95687398Y-86849886D01*
X95730514Y-86810800D01*
X95778972Y-86781485D01*
X95832770Y-86761942D01*
X95881682Y-86753120D01*
X95923482Y-86750949D01*
X95972620Y-86755354D01*
G37*
G36*
X96911933Y-87064312D02*
G01*
X96912073Y-87114842D01*
X96912380Y-87167269D01*
X96912665Y-87206461D01*
X96913019Y-87256019D01*
X96913295Y-87306410D01*
X96913398Y-87348611D01*
X96915596Y-87392819D01*
X96918039Y-87436782D01*
X96899243Y-87482049D01*
X96898011Y-87483189D01*
X96851199Y-87501245D01*
X96849406Y-87501263D01*
X96801991Y-87487120D01*
X96781995Y-87456566D01*
X96731686Y-87478172D01*
X96683463Y-87491442D01*
X96631943Y-87499124D01*
X96584159Y-87501263D01*
X96530988Y-87497446D01*
X96479443Y-87484433D01*
X96435170Y-87462184D01*
X96396571Y-87427955D01*
X96370438Y-87384375D01*
X96357501Y-87336643D01*
X96349832Y-87281879D01*
X96343462Y-87229023D01*
X96338392Y-87178076D01*
X96334623Y-87129036D01*
X96331815Y-87072708D01*
X96330879Y-87019127D01*
X96332502Y-86965304D01*
X96336669Y-86914055D01*
X96343401Y-86859600D01*
X96351395Y-86809323D01*
X96374544Y-86763775D01*
X96416608Y-86750949D01*
X96463434Y-86767049D01*
X96465945Y-86769267D01*
X96485953Y-86814615D01*
X96485973Y-86816406D01*
X96482443Y-86865866D01*
X96475959Y-86914591D01*
X96469634Y-86964082D01*
X96466227Y-87012866D01*
X96466189Y-87017418D01*
X96466663Y-87071120D01*
X96468082Y-87120854D01*
X96470811Y-87172061D01*
X96473761Y-87208415D01*
X96479832Y-87259294D01*
X96489240Y-87309898D01*
X96496231Y-87335910D01*
X96540928Y-87354228D01*
X96584159Y-87360579D01*
X96636765Y-87358299D01*
X96690994Y-87351460D01*
X96740560Y-87341553D01*
X96778576Y-87331758D01*
X96778087Y-87195226D01*
X96776622Y-87064801D01*
X96777077Y-87011735D01*
X96778442Y-86961349D01*
X96781186Y-86905950D01*
X96785168Y-86854198D01*
X96789567Y-86812742D01*
X96810022Y-86766397D01*
X96856245Y-86750949D01*
X96903071Y-86767263D01*
X96905582Y-86769511D01*
X96924389Y-86815429D01*
X96911933Y-87064312D01*
G37*
G36*
X97187927Y-86723349D02*
G01*
X97206245Y-86770244D01*
X97204291Y-86792958D01*
X97199406Y-86832037D01*
X97243153Y-86804480D01*
X97289226Y-86781060D01*
X97313468Y-86771221D01*
X97360618Y-86757363D01*
X97412214Y-86751028D01*
X97418492Y-86750949D01*
X97468678Y-86755448D01*
X97520500Y-86772071D01*
X97565076Y-86800942D01*
X97602406Y-86842062D01*
X97624633Y-86878932D01*
X97644714Y-86926398D01*
X97659862Y-86980105D01*
X97668921Y-87031107D01*
X97674357Y-87086694D01*
X97676118Y-87136519D01*
X97676168Y-87146866D01*
X97673369Y-87201955D01*
X97664971Y-87253284D01*
X97650975Y-87300851D01*
X97627570Y-87351593D01*
X97596545Y-87397215D01*
X97556873Y-87437757D01*
X97511802Y-87468341D01*
X97461330Y-87488968D01*
X97405460Y-87499637D01*
X97371109Y-87501263D01*
X97322308Y-87498665D01*
X97270275Y-87490873D01*
X97220167Y-87479281D01*
X97218702Y-87807787D01*
X97201958Y-87854671D01*
X97199651Y-87857124D01*
X97153127Y-87876401D01*
X97151290Y-87876420D01*
X97105352Y-87859246D01*
X97102930Y-87856880D01*
X97084197Y-87810369D01*
X97084124Y-87806566D01*
X97086078Y-87527397D01*
X97086078Y-87248960D01*
X97085122Y-87192660D01*
X97083719Y-87138249D01*
X97081870Y-87085727D01*
X97079575Y-87035095D01*
X97077292Y-86995191D01*
X97212595Y-86995191D01*
X97215129Y-87045508D01*
X97217232Y-87096624D01*
X97218907Y-87148538D01*
X97220152Y-87201252D01*
X97220967Y-87254765D01*
X97221354Y-87309077D01*
X97221388Y-87331025D01*
X97268228Y-87346610D01*
X97319698Y-87357087D01*
X97371109Y-87360579D01*
X97420883Y-87354186D01*
X97466488Y-87332389D01*
X97502512Y-87295122D01*
X97526325Y-87247517D01*
X97538499Y-87195552D01*
X97541591Y-87147110D01*
X97540130Y-87094192D01*
X97534882Y-87041240D01*
X97524417Y-86991268D01*
X97511060Y-86955380D01*
X97481095Y-86914106D01*
X97433696Y-86892628D01*
X97418736Y-86891632D01*
X97369394Y-86896389D01*
X97320855Y-86912150D01*
X97304675Y-86920453D01*
X97263459Y-86949396D01*
X97226216Y-86982163D01*
X97212595Y-86995191D01*
X97077292Y-86995191D01*
X97076332Y-86978411D01*
X97075819Y-86970523D01*
X97065561Y-86828862D01*
X97071203Y-86778149D01*
X97083391Y-86745331D01*
X97118418Y-86708931D01*
X97143230Y-86704054D01*
X97187927Y-86723349D01*
G37*
G36*
X98684579Y-86425163D02*
G01*
X98685868Y-86426350D01*
X98707296Y-86470382D01*
X98707362Y-86472023D01*
X98683356Y-86516753D01*
X98650040Y-86553160D01*
X98637264Y-86565812D01*
X98497069Y-86700390D01*
X98463814Y-86740576D01*
X98436537Y-86786205D01*
X98414398Y-86834291D01*
X98401570Y-86867941D01*
X98447650Y-86847854D01*
X98494508Y-86830488D01*
X98505861Y-86826908D01*
X98553428Y-86815692D01*
X98579623Y-86813475D01*
X98637253Y-86816429D01*
X98689612Y-86825290D01*
X98736698Y-86840059D01*
X98784969Y-86864756D01*
X98826064Y-86897494D01*
X98859563Y-86937453D01*
X98884835Y-86984028D01*
X98901878Y-87037217D01*
X98909938Y-87088073D01*
X98912037Y-87134166D01*
X98908774Y-87192263D01*
X98898985Y-87246204D01*
X98882671Y-87295990D01*
X98859830Y-87341619D01*
X98830464Y-87383093D01*
X98819225Y-87395994D01*
X98780654Y-87431769D01*
X98737480Y-87460142D01*
X98689704Y-87481114D01*
X98637325Y-87494683D01*
X98580344Y-87500851D01*
X98560327Y-87501263D01*
X98506618Y-87498126D01*
X98457536Y-87488717D01*
X98404745Y-87469145D01*
X98358617Y-87440540D01*
X98319153Y-87402901D01*
X98296545Y-87372791D01*
X98269232Y-87323251D01*
X98251160Y-87275412D01*
X98238016Y-87222610D01*
X98229802Y-87164845D01*
X98226721Y-87112916D01*
X98226448Y-87091179D01*
X98226621Y-87086782D01*
X98360537Y-87086782D01*
X98363117Y-87140379D01*
X98370856Y-87188815D01*
X98385730Y-87237139D01*
X98401814Y-87270209D01*
X98431581Y-87309746D01*
X98473754Y-87340722D01*
X98525124Y-87357402D01*
X98564480Y-87360579D01*
X98613450Y-87356335D01*
X98661536Y-87341416D01*
X98706263Y-87312240D01*
X98725191Y-87292679D01*
X98753141Y-87249464D01*
X98770739Y-87198283D01*
X98777726Y-87145409D01*
X98778192Y-87126350D01*
X98772897Y-87076686D01*
X98752564Y-87028234D01*
X98723970Y-86997145D01*
X98680199Y-86972671D01*
X98629137Y-86959238D01*
X98574004Y-86954327D01*
X98560572Y-86954159D01*
X98511191Y-86957758D01*
X98463470Y-86969604D01*
X98454570Y-86972965D01*
X98411103Y-86995405D01*
X98364689Y-87021325D01*
X98360796Y-87070601D01*
X98360537Y-87086782D01*
X98226621Y-87086782D01*
X98228869Y-87029716D01*
X98236133Y-86969798D01*
X98248240Y-86911426D01*
X98265191Y-86854599D01*
X98286983Y-86799318D01*
X98313619Y-86745583D01*
X98345098Y-86693393D01*
X98381420Y-86642749D01*
X98422584Y-86593650D01*
X98468591Y-86546098D01*
X98501953Y-86515254D01*
X98566434Y-86451507D01*
X98605757Y-86419600D01*
X98637997Y-86407055D01*
X98684579Y-86425163D01*
G37*
G36*
X99638878Y-86402589D02*
G01*
X99665576Y-86446988D01*
X99666259Y-86459078D01*
X99666259Y-87032316D01*
X99694347Y-87031584D01*
X99743644Y-87035020D01*
X99793065Y-87051850D01*
X99820371Y-87094696D01*
X99820865Y-87103391D01*
X99804327Y-87149982D01*
X99768597Y-87169337D01*
X99717745Y-87173744D01*
X99666259Y-87173000D01*
X99666259Y-87422861D01*
X99650628Y-87469938D01*
X99603733Y-87485631D01*
X99556608Y-87469628D01*
X99533507Y-87421619D01*
X99530949Y-87388667D01*
X99532414Y-87354717D01*
X99533879Y-87324675D01*
X99533147Y-87173000D01*
X99230041Y-87164452D01*
X99176899Y-87163760D01*
X99127990Y-87161104D01*
X99099616Y-87157369D01*
X99052721Y-87139722D01*
X99037090Y-87107787D01*
X99053393Y-87059497D01*
X99072238Y-87032316D01*
X99246650Y-87032316D01*
X99533147Y-87032316D01*
X99533147Y-86586817D01*
X99499461Y-86641283D01*
X99467187Y-86693120D01*
X99436326Y-86742330D01*
X99406877Y-86788913D01*
X99378841Y-86832868D01*
X99352217Y-86874196D01*
X99318916Y-86925212D01*
X99288126Y-86971557D01*
X99259848Y-87013231D01*
X99246650Y-87032316D01*
X99072238Y-87032316D01*
X99074947Y-87028408D01*
X99134054Y-86957090D01*
X99471842Y-86456392D01*
X99506464Y-86419403D01*
X99550817Y-86396562D01*
X99588590Y-86391423D01*
X99638878Y-86402589D01*
G37*
G36*
X84854396Y-88100000D02*
G01*
X84905070Y-88108371D01*
X84955846Y-88121843D01*
X85004977Y-88141731D01*
X85013154Y-88145917D01*
X85062870Y-88174149D01*
X85107696Y-88203522D01*
X85147632Y-88234038D01*
X85193273Y-88276502D01*
X85230220Y-88320996D01*
X85258474Y-88367520D01*
X85278034Y-88416075D01*
X85288901Y-88466660D01*
X85291346Y-88505931D01*
X85285423Y-88556581D01*
X85267655Y-88604239D01*
X85238040Y-88648905D01*
X85202410Y-88685533D01*
X85196580Y-88690579D01*
X85156112Y-88720788D01*
X85110912Y-88747182D01*
X85060980Y-88769759D01*
X85013407Y-88786384D01*
X85006315Y-88788520D01*
X85058056Y-88817532D01*
X85106424Y-88846925D01*
X85151418Y-88876699D01*
X85193039Y-88906856D01*
X85231285Y-88937394D01*
X85274350Y-88976103D01*
X85312143Y-89015408D01*
X85325785Y-89031297D01*
X85343614Y-89078192D01*
X85326363Y-89124654D01*
X85322609Y-89128750D01*
X85277000Y-89149916D01*
X85273517Y-89150000D01*
X85227521Y-89130465D01*
X85224668Y-89127773D01*
X85181586Y-89086445D01*
X85137611Y-89047731D01*
X85092743Y-89011632D01*
X85046981Y-88978148D01*
X85000327Y-88947278D01*
X84952780Y-88919023D01*
X84904340Y-88893383D01*
X84855006Y-88870357D01*
X84804780Y-88849945D01*
X84753661Y-88832149D01*
X84719085Y-88821737D01*
X84724703Y-88957536D01*
X84728122Y-89094312D01*
X84712075Y-89141424D01*
X84708583Y-89145359D01*
X84663145Y-89165552D01*
X84659490Y-89165631D01*
X84612636Y-89147814D01*
X84610153Y-89145359D01*
X84590785Y-89100391D01*
X84590614Y-89094801D01*
X84589767Y-89041998D01*
X84587964Y-88989476D01*
X84585800Y-88940006D01*
X84585484Y-88933356D01*
X84583241Y-88882950D01*
X84581337Y-88829303D01*
X84580375Y-88778653D01*
X84580355Y-88771667D01*
X84581972Y-88720904D01*
X84584912Y-88679588D01*
X84722505Y-88679588D01*
X84752302Y-88680321D01*
X84783077Y-88681053D01*
X84835656Y-88679879D01*
X84893084Y-88675368D01*
X84944329Y-88667474D01*
X84996301Y-88653988D01*
X85045394Y-88632937D01*
X85087031Y-88604155D01*
X85116957Y-88575785D01*
X85146383Y-88535135D01*
X85153349Y-88508862D01*
X85144771Y-88454695D01*
X85122743Y-88408331D01*
X85092349Y-88369140D01*
X85051577Y-88331234D01*
X85044905Y-88325924D01*
X85000840Y-88295088D01*
X84955841Y-88270539D01*
X84909906Y-88252278D01*
X84856264Y-88239108D01*
X84835833Y-88236287D01*
X84734228Y-88227739D01*
X84741067Y-88313224D01*
X84744879Y-88363382D01*
X84745952Y-88398709D01*
X84744461Y-88449105D01*
X84740869Y-88498863D01*
X84736915Y-88539148D01*
X84722505Y-88679588D01*
X84584912Y-88679588D01*
X84585698Y-88668551D01*
X84590827Y-88613841D01*
X84594033Y-88583600D01*
X84599458Y-88531882D01*
X84604026Y-88480102D01*
X84607085Y-88431193D01*
X84607955Y-88396022D01*
X84605868Y-88346065D01*
X84601766Y-88296719D01*
X84601360Y-88292463D01*
X84597091Y-88242104D01*
X84594791Y-88193158D01*
X84594766Y-88188660D01*
X84605156Y-88139429D01*
X84616748Y-88120027D01*
X84657143Y-88090089D01*
X84688799Y-88087055D01*
X84854396Y-88100000D01*
G37*
G36*
X85831306Y-88433376D02*
G01*
X85880460Y-88440657D01*
X85929481Y-88454651D01*
X85963014Y-88469783D01*
X86005872Y-88500906D01*
X86037042Y-88545003D01*
X86050289Y-88593256D01*
X86051674Y-88617306D01*
X86040752Y-88667727D01*
X86011550Y-88710808D01*
X85974005Y-88743824D01*
X85929312Y-88768775D01*
X85884980Y-88789949D01*
X85835322Y-88812145D01*
X85828436Y-88815143D01*
X85566120Y-88930425D01*
X85600538Y-88970443D01*
X85641083Y-89001593D01*
X85661863Y-89012979D01*
X85711602Y-89030849D01*
X85763024Y-89039258D01*
X85795464Y-89040579D01*
X85846999Y-89036304D01*
X85894986Y-89026537D01*
X85906838Y-89023482D01*
X85955747Y-89006950D01*
X85998209Y-88981318D01*
X86011130Y-88966573D01*
X86048224Y-88933371D01*
X86061444Y-88931158D01*
X86104187Y-88950209D01*
X86123237Y-88994661D01*
X86111240Y-89042408D01*
X86079927Y-89081668D01*
X86035776Y-89113614D01*
X86000383Y-89132170D01*
X85954609Y-89151299D01*
X85902982Y-89167407D01*
X85852088Y-89177379D01*
X85801926Y-89181215D01*
X85795708Y-89181263D01*
X85739534Y-89178532D01*
X85687516Y-89170340D01*
X85639654Y-89156688D01*
X85589067Y-89133857D01*
X85544138Y-89103593D01*
X85508446Y-89068932D01*
X85476138Y-89022373D01*
X85456446Y-88977218D01*
X85444139Y-88927221D01*
X85439216Y-88872381D01*
X85439113Y-88862770D01*
X85441035Y-88813189D01*
X85554396Y-88813189D01*
X85765177Y-88720132D01*
X85816155Y-88696352D01*
X85860306Y-88673950D01*
X85907043Y-88647175D01*
X85942498Y-88622679D01*
X85900929Y-88595760D01*
X85850105Y-88578811D01*
X85796452Y-88572081D01*
X85776901Y-88571632D01*
X85727285Y-88577524D01*
X85679042Y-88597614D01*
X85640946Y-88628249D01*
X85637438Y-88631960D01*
X85605401Y-88675476D01*
X85581298Y-88724836D01*
X85563636Y-88776822D01*
X85554396Y-88813189D01*
X85441035Y-88813189D01*
X85441224Y-88808313D01*
X85447557Y-88756682D01*
X85458111Y-88707877D01*
X85476349Y-88653043D01*
X85500667Y-88602278D01*
X85525575Y-88563084D01*
X85556505Y-88525018D01*
X85597698Y-88487855D01*
X85643339Y-88459982D01*
X85693428Y-88441401D01*
X85747965Y-88432110D01*
X85776901Y-88430949D01*
X85831306Y-88433376D01*
G37*
G36*
X86552128Y-89181263D02*
G01*
X86500928Y-89178360D01*
X86445363Y-89167638D01*
X86394286Y-89149015D01*
X86347697Y-89122491D01*
X86317166Y-89098709D01*
X86278623Y-89058133D01*
X86249546Y-89012275D01*
X86229937Y-88961134D01*
X86220663Y-88913095D01*
X86218248Y-88870097D01*
X86221511Y-88819055D01*
X86231300Y-88767412D01*
X86247614Y-88715168D01*
X86270455Y-88662323D01*
X86294474Y-88617826D01*
X86311060Y-88590928D01*
X86343908Y-88544840D01*
X86378031Y-88506564D01*
X86420664Y-88470943D01*
X86465135Y-88446572D01*
X86519339Y-88432355D01*
X86543335Y-88430949D01*
X86595977Y-88435517D01*
X86648215Y-88447730D01*
X86693789Y-88463433D01*
X86739737Y-88485476D01*
X86778711Y-88516292D01*
X86798711Y-88561774D01*
X86798813Y-88565526D01*
X86782539Y-88612079D01*
X86781472Y-88613398D01*
X86738974Y-88634159D01*
X86704291Y-88623168D01*
X86675959Y-88601430D01*
X86630619Y-88581061D01*
X86581154Y-88573058D01*
X86543335Y-88571632D01*
X86495316Y-88585082D01*
X86456285Y-88616092D01*
X86421786Y-88658774D01*
X86404605Y-88685450D01*
X86380242Y-88729745D01*
X86359726Y-88777105D01*
X86345987Y-88826225D01*
X86342079Y-88866189D01*
X86349381Y-88918789D01*
X86371286Y-88963077D01*
X86403872Y-88996127D01*
X86447397Y-89021435D01*
X86498714Y-89036238D01*
X86552128Y-89040579D01*
X86603039Y-89032571D01*
X86640055Y-89017864D01*
X86719678Y-88973900D01*
X86749232Y-88962421D01*
X86793196Y-88984159D01*
X86811686Y-89030255D01*
X86811758Y-89033740D01*
X86791515Y-89079888D01*
X86752270Y-89112050D01*
X86706001Y-89137299D01*
X86656306Y-89158551D01*
X86606980Y-89174007D01*
X86555975Y-89181220D01*
X86552128Y-89181263D01*
G37*
G36*
X87317280Y-88433376D02*
G01*
X87366434Y-88440657D01*
X87415455Y-88454651D01*
X87448988Y-88469783D01*
X87491846Y-88500906D01*
X87523015Y-88545003D01*
X87536262Y-88593256D01*
X87537648Y-88617306D01*
X87526726Y-88667727D01*
X87497524Y-88710808D01*
X87459979Y-88743824D01*
X87415286Y-88768775D01*
X87370953Y-88789949D01*
X87321295Y-88812145D01*
X87314410Y-88815143D01*
X87052093Y-88930425D01*
X87086511Y-88970443D01*
X87127056Y-89001593D01*
X87147836Y-89012979D01*
X87197575Y-89030849D01*
X87248998Y-89039258D01*
X87281437Y-89040579D01*
X87332972Y-89036304D01*
X87380959Y-89026537D01*
X87392812Y-89023482D01*
X87441720Y-89006950D01*
X87484182Y-88981318D01*
X87497103Y-88966573D01*
X87534198Y-88933371D01*
X87547418Y-88931158D01*
X87590160Y-88950209D01*
X87609211Y-88994661D01*
X87597213Y-89042408D01*
X87565900Y-89081668D01*
X87521749Y-89113614D01*
X87486357Y-89132170D01*
X87440582Y-89151299D01*
X87388955Y-89167407D01*
X87338061Y-89177379D01*
X87287900Y-89181215D01*
X87281681Y-89181263D01*
X87225507Y-89178532D01*
X87173489Y-89170340D01*
X87125627Y-89156688D01*
X87075041Y-89133857D01*
X87030111Y-89103593D01*
X86994419Y-89068932D01*
X86962112Y-89022373D01*
X86942420Y-88977218D01*
X86930112Y-88927221D01*
X86925189Y-88872381D01*
X86925087Y-88862770D01*
X86927009Y-88813189D01*
X87040369Y-88813189D01*
X87251151Y-88720132D01*
X87302128Y-88696352D01*
X87346280Y-88673950D01*
X87393017Y-88647175D01*
X87428471Y-88622679D01*
X87386902Y-88595760D01*
X87336079Y-88578811D01*
X87282425Y-88572081D01*
X87262875Y-88571632D01*
X87213258Y-88577524D01*
X87165016Y-88597614D01*
X87126920Y-88628249D01*
X87123412Y-88631960D01*
X87091374Y-88675476D01*
X87067271Y-88724836D01*
X87049610Y-88776822D01*
X87040369Y-88813189D01*
X86927009Y-88813189D01*
X86927198Y-88808313D01*
X86933530Y-88756682D01*
X86944085Y-88707877D01*
X86962323Y-88653043D01*
X86986640Y-88602278D01*
X87011549Y-88563084D01*
X87042479Y-88525018D01*
X87083672Y-88487855D01*
X87129313Y-88459982D01*
X87179401Y-88441401D01*
X87233938Y-88432110D01*
X87262875Y-88430949D01*
X87317280Y-88433376D01*
G37*
G36*
X87858827Y-88259002D02*
G01*
X87811051Y-88245458D01*
X87801674Y-88238485D01*
X87777949Y-88194036D01*
X87777739Y-88188660D01*
X87797397Y-88143000D01*
X87801674Y-88139078D01*
X87846771Y-88119048D01*
X87858827Y-88118318D01*
X87906281Y-88132023D01*
X87915491Y-88139078D01*
X87938975Y-88183285D01*
X87939183Y-88188660D01*
X87919725Y-88234520D01*
X87915491Y-88238485D01*
X87868905Y-88258501D01*
X87858827Y-88259002D01*
G37*
G36*
X87889846Y-88829309D02*
G01*
X87890396Y-88881516D01*
X87891529Y-88934375D01*
X87892044Y-88954605D01*
X87893435Y-89007126D01*
X87894334Y-89056546D01*
X87894487Y-89080146D01*
X87879241Y-89126698D01*
X87875924Y-89130460D01*
X87830816Y-89149923D01*
X87827076Y-89150000D01*
X87781137Y-89132826D01*
X87778715Y-89130460D01*
X87759982Y-89083949D01*
X87759909Y-89080146D01*
X87759298Y-89027756D01*
X87758039Y-88974839D01*
X87757466Y-88954605D01*
X87756076Y-88902113D01*
X87755177Y-88852802D01*
X87755024Y-88829309D01*
X87755832Y-88780301D01*
X87757969Y-88729086D01*
X87761035Y-88677568D01*
X87761863Y-88665422D01*
X87765287Y-88612762D01*
X87767777Y-88560278D01*
X87768918Y-88509874D01*
X87768946Y-88501535D01*
X87784392Y-88454257D01*
X87787752Y-88450488D01*
X87834291Y-88430968D01*
X87836113Y-88430949D01*
X87882080Y-88448122D01*
X87884473Y-88450488D01*
X87903356Y-88495732D01*
X87903524Y-88501535D01*
X87902715Y-88550543D01*
X87900578Y-88601758D01*
X87897513Y-88653275D01*
X87896685Y-88665422D01*
X87893379Y-88718082D01*
X87890975Y-88770565D01*
X87889873Y-88820969D01*
X87889846Y-88829309D01*
G37*
G36*
X88436217Y-89114584D02*
G01*
X88419609Y-89162028D01*
X88373691Y-89177843D01*
X88325820Y-89159141D01*
X88300662Y-89118736D01*
X88195638Y-88840544D01*
X88073517Y-88526203D01*
X88066434Y-88495917D01*
X88086375Y-88451198D01*
X88087683Y-88450000D01*
X88133779Y-88431023D01*
X88137264Y-88430949D01*
X88182937Y-88448727D01*
X88196371Y-88468562D01*
X88370760Y-88947522D01*
X88391030Y-88902929D01*
X88413190Y-88851397D01*
X88433099Y-88803155D01*
X88454320Y-88750094D01*
X88472241Y-88704176D01*
X88491002Y-88655175D01*
X88500697Y-88629518D01*
X88517607Y-88582097D01*
X88536264Y-88532819D01*
X88554178Y-88487008D01*
X88559071Y-88474668D01*
X88592598Y-88437097D01*
X88619399Y-88430949D01*
X88666297Y-88448551D01*
X88668981Y-88450976D01*
X88690209Y-88496413D01*
X88690230Y-88498115D01*
X88674293Y-88551467D01*
X88654372Y-88603594D01*
X88631684Y-88659994D01*
X88609550Y-88713598D01*
X88590625Y-88758749D01*
X88576901Y-88791207D01*
X88436217Y-89114584D01*
G37*
G36*
X89156917Y-88433376D02*
G01*
X89206071Y-88440657D01*
X89255092Y-88454651D01*
X89288625Y-88469783D01*
X89331483Y-88500906D01*
X89362653Y-88545003D01*
X89375900Y-88593256D01*
X89377285Y-88617306D01*
X89366363Y-88667727D01*
X89337161Y-88710808D01*
X89299616Y-88743824D01*
X89254923Y-88768775D01*
X89210590Y-88789949D01*
X89160933Y-88812145D01*
X89154047Y-88815143D01*
X88891730Y-88930425D01*
X88926148Y-88970443D01*
X88966694Y-89001593D01*
X88987473Y-89012979D01*
X89037212Y-89030849D01*
X89088635Y-89039258D01*
X89121074Y-89040579D01*
X89172609Y-89036304D01*
X89220596Y-89026537D01*
X89232449Y-89023482D01*
X89281357Y-89006950D01*
X89323819Y-88981318D01*
X89336741Y-88966573D01*
X89373835Y-88933371D01*
X89387055Y-88931158D01*
X89429797Y-88950209D01*
X89448848Y-88994661D01*
X89436851Y-89042408D01*
X89405537Y-89081668D01*
X89361386Y-89113614D01*
X89325994Y-89132170D01*
X89280219Y-89151299D01*
X89228593Y-89167407D01*
X89177698Y-89177379D01*
X89127537Y-89181215D01*
X89121318Y-89181263D01*
X89065144Y-89178532D01*
X89013126Y-89170340D01*
X88965264Y-89156688D01*
X88914678Y-89133857D01*
X88869748Y-89103593D01*
X88834056Y-89068932D01*
X88801749Y-89022373D01*
X88782057Y-88977218D01*
X88769749Y-88927221D01*
X88764826Y-88872381D01*
X88764724Y-88862770D01*
X88766646Y-88813189D01*
X88880006Y-88813189D01*
X89090788Y-88720132D01*
X89141765Y-88696352D01*
X89185917Y-88673950D01*
X89232654Y-88647175D01*
X89268108Y-88622679D01*
X89226539Y-88595760D01*
X89175716Y-88578811D01*
X89122062Y-88572081D01*
X89102512Y-88571632D01*
X89052895Y-88577524D01*
X89004653Y-88597614D01*
X88966557Y-88628249D01*
X88963049Y-88631960D01*
X88931011Y-88675476D01*
X88906908Y-88724836D01*
X88889247Y-88776822D01*
X88880006Y-88813189D01*
X88766646Y-88813189D01*
X88766835Y-88808313D01*
X88773167Y-88756682D01*
X88783722Y-88707877D01*
X88801960Y-88653043D01*
X88826277Y-88602278D01*
X88851186Y-88563084D01*
X88882116Y-88525018D01*
X88923309Y-88487855D01*
X88968950Y-88459982D01*
X89019039Y-88441401D01*
X89073575Y-88432110D01*
X89102512Y-88430949D01*
X89156917Y-88433376D01*
G37*
G36*
X90101709Y-88628053D02*
G01*
X90091395Y-88676027D01*
X90054913Y-88709354D01*
X90033077Y-88712316D01*
X89986958Y-88693360D01*
X89973970Y-88645150D01*
X89971772Y-88597522D01*
X89969818Y-88540369D01*
X89918283Y-88549040D01*
X89866728Y-88564049D01*
X89821975Y-88584623D01*
X89795917Y-88601430D01*
X89756362Y-88637498D01*
X89724611Y-88679554D01*
X89699460Y-88724949D01*
X89694312Y-88736008D01*
X89695778Y-89111898D01*
X89682781Y-89159315D01*
X89636100Y-89180992D01*
X89627878Y-89181263D01*
X89580615Y-89161824D01*
X89567306Y-89112386D01*
X89567306Y-88634647D01*
X89568435Y-88583299D01*
X89569016Y-88567236D01*
X89570523Y-88517929D01*
X89570725Y-88499825D01*
X89584035Y-88450387D01*
X89631297Y-88430949D01*
X89677353Y-88451659D01*
X89695697Y-88496988D01*
X89699197Y-88539148D01*
X89741117Y-88503474D01*
X89784443Y-88473847D01*
X89829178Y-88450265D01*
X89875319Y-88432731D01*
X89922868Y-88421243D01*
X89971824Y-88415801D01*
X89991800Y-88415317D01*
X90040404Y-88425636D01*
X90074842Y-88456594D01*
X90094653Y-88504293D01*
X90101768Y-88555744D01*
X90102442Y-88580669D01*
X90101709Y-88628053D01*
G37*
G36*
X91015824Y-88090947D02*
G01*
X91067316Y-88102622D01*
X91117872Y-88122082D01*
X91167493Y-88149325D01*
X91195429Y-88168387D01*
X91239089Y-88205021D01*
X91273716Y-88244763D01*
X91299310Y-88287613D01*
X91315871Y-88333572D01*
X91323399Y-88382639D01*
X91323900Y-88399685D01*
X91320549Y-88452305D01*
X91310496Y-88501323D01*
X91289584Y-88555390D01*
X91259021Y-88604271D01*
X91226180Y-88641044D01*
X91186636Y-88674214D01*
X91234920Y-88696318D01*
X91281466Y-88722645D01*
X91323531Y-88753710D01*
X91340753Y-88769958D01*
X91372009Y-88810647D01*
X91389590Y-88857673D01*
X91392044Y-88884263D01*
X91383243Y-88934700D01*
X91360271Y-88979156D01*
X91327882Y-89017925D01*
X91301919Y-89041800D01*
X91262243Y-89072817D01*
X91217223Y-89100654D01*
X91170760Y-89121912D01*
X91120353Y-89139010D01*
X91065760Y-89153210D01*
X91006980Y-89164512D01*
X90956943Y-89171467D01*
X90904227Y-89176568D01*
X90848831Y-89179814D01*
X90790757Y-89181205D01*
X90775819Y-89181263D01*
X90729730Y-89163204D01*
X90719644Y-89153907D01*
X90694528Y-89110121D01*
X90693265Y-89097487D01*
X90693265Y-89040579D01*
X90829309Y-89040579D01*
X90883933Y-89037764D01*
X90935301Y-89033137D01*
X90992646Y-89025191D01*
X91045302Y-89014636D01*
X91093270Y-89001469D01*
X91122644Y-88991242D01*
X91166787Y-88970126D01*
X91208998Y-88940208D01*
X91214480Y-88935554D01*
X91249556Y-88900482D01*
X91256489Y-88883531D01*
X91225492Y-88843650D01*
X91179209Y-88818043D01*
X91168562Y-88813189D01*
X91119584Y-88792821D01*
X91071567Y-88776781D01*
X91040090Y-88768492D01*
X90967306Y-88757013D01*
X90940195Y-88758234D01*
X90912351Y-88759211D01*
X90861626Y-88756476D01*
X90833461Y-88752861D01*
X90831271Y-88803713D01*
X90829799Y-88855463D01*
X90829309Y-88902826D01*
X90829309Y-89040579D01*
X90693265Y-89040579D01*
X90693265Y-88900872D01*
X90694044Y-88847367D01*
X90696002Y-88792111D01*
X90698630Y-88738479D01*
X90701489Y-88689364D01*
X90704955Y-88636231D01*
X90705722Y-88625122D01*
X90706679Y-88611200D01*
X90842986Y-88611200D01*
X90895069Y-88615274D01*
X90944339Y-88618519D01*
X90947522Y-88618527D01*
X90996951Y-88611551D01*
X91046938Y-88596659D01*
X91090975Y-88574311D01*
X91117027Y-88555268D01*
X91151266Y-88518766D01*
X91176167Y-88471864D01*
X91186750Y-88423942D01*
X91187857Y-88400907D01*
X91175925Y-88350486D01*
X91147191Y-88310277D01*
X91115561Y-88282449D01*
X91074375Y-88256002D01*
X91027072Y-88236768D01*
X90978147Y-88228219D01*
X90963154Y-88227739D01*
X90913351Y-88228391D01*
X90864199Y-88231550D01*
X90858129Y-88232379D01*
X90856664Y-88350348D01*
X90842986Y-88611200D01*
X90706679Y-88611200D01*
X90709698Y-88567283D01*
X90713078Y-88514669D01*
X90716346Y-88458426D01*
X90719074Y-88402316D01*
X90720761Y-88350728D01*
X90720865Y-88345219D01*
X90721429Y-88295243D01*
X90723479Y-88243706D01*
X90726501Y-88189850D01*
X90728436Y-88160083D01*
X90750049Y-88116096D01*
X90751151Y-88115387D01*
X90799404Y-88102991D01*
X90850863Y-88094138D01*
X90905528Y-88088825D01*
X90955989Y-88087082D01*
X90963398Y-88087055D01*
X91015824Y-88090947D01*
G37*
G36*
X91896696Y-88435354D02*
G01*
X91948120Y-88451627D01*
X91993187Y-88479893D01*
X92031896Y-88520149D01*
X92055652Y-88556245D01*
X92077531Y-88602554D01*
X92093800Y-88652790D01*
X92104459Y-88706953D01*
X92109130Y-88756503D01*
X92109874Y-88800000D01*
X92106479Y-88855406D01*
X92097761Y-88907688D01*
X92083719Y-88956843D01*
X92064353Y-89002874D01*
X92039664Y-89045778D01*
X92030251Y-89059385D01*
X91995269Y-89100805D01*
X91956268Y-89133654D01*
X91913249Y-89157935D01*
X91866211Y-89173645D01*
X91815155Y-89180787D01*
X91797243Y-89181263D01*
X91748338Y-89177195D01*
X91696196Y-89162587D01*
X91648053Y-89137353D01*
X91609209Y-89106559D01*
X91598674Y-89096266D01*
X91567043Y-89058619D01*
X91541578Y-89016387D01*
X91522278Y-88969570D01*
X91509143Y-88918167D01*
X91502174Y-88862179D01*
X91501221Y-88842498D01*
X91501241Y-88841765D01*
X91636775Y-88841765D01*
X91641065Y-88893693D01*
X91655891Y-88943324D01*
X91684431Y-88988110D01*
X91690997Y-88995150D01*
X91730488Y-89024563D01*
X91778787Y-89039470D01*
X91797487Y-89040579D01*
X91848194Y-89033332D01*
X91893337Y-89011590D01*
X91920341Y-88989043D01*
X91951459Y-88949435D01*
X91971842Y-88902051D01*
X91981011Y-88852757D01*
X91982135Y-88834926D01*
X91982028Y-88773377D01*
X91976823Y-88720010D01*
X91963146Y-88664807D01*
X91936218Y-88615440D01*
X91897819Y-88584482D01*
X91847947Y-88571934D01*
X91838520Y-88571632D01*
X91785315Y-88578950D01*
X91739181Y-88601454D01*
X91700118Y-88639143D01*
X91681472Y-88666643D01*
X91659866Y-88711502D01*
X91645331Y-88759800D01*
X91637867Y-88811536D01*
X91636775Y-88841765D01*
X91501241Y-88841765D01*
X91502786Y-88785734D01*
X91510414Y-88731581D01*
X91524104Y-88680038D01*
X91543856Y-88631106D01*
X91569671Y-88584783D01*
X91579623Y-88569923D01*
X91611473Y-88529886D01*
X91654590Y-88490800D01*
X91703047Y-88461485D01*
X91756845Y-88441942D01*
X91805757Y-88433120D01*
X91847557Y-88430949D01*
X91896696Y-88435354D01*
G37*
G36*
X92653510Y-88436068D02*
G01*
X92704806Y-88449881D01*
X92736601Y-88461967D01*
X92781702Y-88484950D01*
X92818877Y-88519560D01*
X92829902Y-88555268D01*
X92815980Y-88588241D01*
X92808266Y-88637378D01*
X92805233Y-88674703D01*
X92802932Y-88724357D01*
X92801607Y-88778261D01*
X92801081Y-88828332D01*
X92801911Y-88878382D01*
X92806308Y-88929124D01*
X92812805Y-88963642D01*
X92828412Y-89012985D01*
X92847400Y-89063206D01*
X92856036Y-89085031D01*
X92871667Y-89121667D01*
X92875819Y-89133391D01*
X92856524Y-89178820D01*
X92811828Y-89196894D01*
X92770713Y-89168009D01*
X92764445Y-89161723D01*
X92732083Y-89123369D01*
X92718527Y-89103105D01*
X92675037Y-89127413D01*
X92628401Y-89150412D01*
X92602267Y-89161479D01*
X92553687Y-89176916D01*
X92518492Y-89181263D01*
X92461291Y-89178094D01*
X92410220Y-89168589D01*
X92358386Y-89149490D01*
X92314898Y-89121766D01*
X92284263Y-89091137D01*
X92257235Y-89049745D01*
X92236846Y-88999728D01*
X92224653Y-88949991D01*
X92217337Y-88893918D01*
X92214966Y-88842349D01*
X92214916Y-88834438D01*
X92350453Y-88834438D01*
X92353602Y-88888338D01*
X92364488Y-88938666D01*
X92387815Y-88985772D01*
X92390265Y-88989043D01*
X92429222Y-89022411D01*
X92476918Y-89038113D01*
X92509944Y-89040579D01*
X92560219Y-89036951D01*
X92610015Y-89023749D01*
X92621807Y-89018597D01*
X92665192Y-88990828D01*
X92691172Y-88970725D01*
X92684839Y-88920716D01*
X92678657Y-88866105D01*
X92674020Y-88817384D01*
X92670564Y-88767988D01*
X92669190Y-88721353D01*
X92671798Y-88672300D01*
X92672854Y-88662491D01*
X92680547Y-88612528D01*
X92684089Y-88594836D01*
X92640614Y-88577250D01*
X92611549Y-88571632D01*
X92560120Y-88576609D01*
X92512325Y-88591538D01*
X92468163Y-88616420D01*
X92427634Y-88651256D01*
X92393867Y-88692472D01*
X92369748Y-88736741D01*
X92355277Y-88784063D01*
X92350453Y-88834438D01*
X92214916Y-88834438D01*
X92214898Y-88831507D01*
X92217689Y-88780933D01*
X92226061Y-88732708D01*
X92243475Y-88677939D01*
X92268926Y-88626554D01*
X92302414Y-88578551D01*
X92329204Y-88548429D01*
X92366080Y-88514585D01*
X92413181Y-88481543D01*
X92463390Y-88456762D01*
X92516707Y-88440241D01*
X92573133Y-88431981D01*
X92602512Y-88430949D01*
X92653510Y-88436068D01*
G37*
G36*
X93525994Y-88628053D02*
G01*
X93515680Y-88676027D01*
X93479198Y-88709354D01*
X93457362Y-88712316D01*
X93411242Y-88693360D01*
X93398255Y-88645150D01*
X93396057Y-88597522D01*
X93394103Y-88540369D01*
X93342568Y-88549040D01*
X93291013Y-88564049D01*
X93246260Y-88584623D01*
X93220202Y-88601430D01*
X93180647Y-88637498D01*
X93148895Y-88679554D01*
X93123745Y-88724949D01*
X93118597Y-88736008D01*
X93120062Y-89111898D01*
X93107066Y-89159315D01*
X93060385Y-89180992D01*
X93052163Y-89181263D01*
X93004900Y-89161824D01*
X92991591Y-89112386D01*
X92991591Y-88634647D01*
X92992719Y-88583299D01*
X92993300Y-88567236D01*
X92994808Y-88517929D01*
X92995010Y-88499825D01*
X93008319Y-88450387D01*
X93055582Y-88430949D01*
X93101637Y-88451659D01*
X93119982Y-88496988D01*
X93123482Y-88539148D01*
X93165401Y-88503474D01*
X93208728Y-88473847D01*
X93253462Y-88450265D01*
X93299604Y-88432731D01*
X93347152Y-88421243D01*
X93396108Y-88415801D01*
X93416085Y-88415317D01*
X93464689Y-88425636D01*
X93499127Y-88456594D01*
X93518937Y-88504293D01*
X93526053Y-88555744D01*
X93526727Y-88580669D01*
X93525994Y-88628053D01*
G37*
G36*
X94308304Y-88072400D02*
G01*
X94323935Y-88122226D01*
X94322626Y-88174791D01*
X94320088Y-88225804D01*
X94317096Y-88274694D01*
X94313250Y-88330767D01*
X94308548Y-88394022D01*
X94304461Y-88446177D01*
X94299893Y-88502371D01*
X94296580Y-88542079D01*
X94292947Y-88592286D01*
X94290352Y-88642524D01*
X94288795Y-88692792D01*
X94288276Y-88743091D01*
X94288608Y-88798259D01*
X94289604Y-88849947D01*
X94291783Y-88909663D01*
X94294999Y-88963940D01*
X94299253Y-89012779D01*
X94305728Y-89064207D01*
X94309525Y-89086985D01*
X94310746Y-89102616D01*
X94291451Y-89147801D01*
X94246999Y-89165631D01*
X94202653Y-89141398D01*
X94184473Y-89103593D01*
X94140555Y-89132398D01*
X94095141Y-89155125D01*
X94081891Y-89160502D01*
X94034413Y-89174694D01*
X93985159Y-89180938D01*
X93970760Y-89181263D01*
X93919171Y-89177922D01*
X93871017Y-89167902D01*
X93819179Y-89147768D01*
X93772015Y-89118541D01*
X93735310Y-89086252D01*
X93702606Y-89047867D01*
X93676669Y-89005618D01*
X93657498Y-88959504D01*
X93645093Y-88909527D01*
X93639454Y-88855686D01*
X93639078Y-88836880D01*
X93639213Y-88833705D01*
X93760711Y-88833705D01*
X93766841Y-88884362D01*
X93785231Y-88930391D01*
X93815881Y-88971793D01*
X93823482Y-88979518D01*
X93864941Y-89011718D01*
X93910550Y-89031992D01*
X93960310Y-89040340D01*
X93970760Y-89040579D01*
X94021057Y-89036124D01*
X94068457Y-89020307D01*
X94111744Y-88991345D01*
X94144661Y-88965596D01*
X94164445Y-88945324D01*
X94162491Y-88831751D01*
X94163224Y-88755547D01*
X94164445Y-88678122D01*
X94138425Y-88636629D01*
X94100445Y-88601687D01*
X94095080Y-88598255D01*
X94047575Y-88578288D01*
X93998995Y-88571736D01*
X93991521Y-88571632D01*
X93937375Y-88575724D01*
X93885110Y-88590106D01*
X93842003Y-88614844D01*
X93818353Y-88637090D01*
X93790489Y-88679007D01*
X93773377Y-88725059D01*
X93763470Y-88779384D01*
X93760711Y-88833705D01*
X93639213Y-88833705D01*
X93641452Y-88781119D01*
X93648571Y-88728936D01*
X93660438Y-88680331D01*
X93680943Y-88626727D01*
X93708283Y-88578276D01*
X93736287Y-88541835D01*
X93774775Y-88504151D01*
X93817334Y-88474264D01*
X93863962Y-88452173D01*
X93914661Y-88437879D01*
X93969429Y-88431382D01*
X93988590Y-88430949D01*
X94039170Y-88433863D01*
X94087783Y-88444825D01*
X94111688Y-88455617D01*
X94176168Y-88503000D01*
X94177987Y-88450795D01*
X94179869Y-88401892D01*
X94182480Y-88341824D01*
X94185204Y-88287625D01*
X94188771Y-88228130D01*
X94192517Y-88177806D01*
X94198062Y-88122760D01*
X94198883Y-88116364D01*
X94218911Y-88070935D01*
X94261409Y-88055792D01*
X94308304Y-88072400D01*
G37*
G36*
X84730401Y-89774702D02*
G01*
X84737648Y-89811018D01*
X84734228Y-89839106D01*
X84730809Y-89867194D01*
X84728855Y-90017159D01*
X84727390Y-90192037D01*
X84771411Y-90164480D01*
X84817162Y-90141060D01*
X84840963Y-90131221D01*
X84890118Y-90116670D01*
X84939355Y-90110968D01*
X84942323Y-90110949D01*
X84995778Y-90114933D01*
X85045317Y-90126885D01*
X85090941Y-90146806D01*
X85132650Y-90174696D01*
X85170442Y-90210554D01*
X85182170Y-90224277D01*
X85211553Y-90265928D01*
X85234858Y-90311014D01*
X85252082Y-90359534D01*
X85263228Y-90411489D01*
X85268294Y-90466879D01*
X85268632Y-90486106D01*
X85265077Y-90543158D01*
X85254412Y-90596896D01*
X85236638Y-90647320D01*
X85211754Y-90694429D01*
X85179760Y-90738224D01*
X85167515Y-90752086D01*
X85127945Y-90789189D01*
X85084889Y-90818615D01*
X85038346Y-90840366D01*
X84988317Y-90854439D01*
X84934802Y-90860836D01*
X84916189Y-90861263D01*
X84864868Y-90858225D01*
X84815928Y-90849112D01*
X84769369Y-90833923D01*
X84725191Y-90812658D01*
X84686861Y-90843570D01*
X84671702Y-90845631D01*
X84627250Y-90827557D01*
X84609176Y-90782128D01*
X84610781Y-90732011D01*
X84610886Y-90729860D01*
X84612580Y-90680797D01*
X84612595Y-90677348D01*
X84612214Y-90625150D01*
X84611359Y-90573295D01*
X84610210Y-90520558D01*
X84608928Y-90469885D01*
X84608688Y-90460949D01*
X84608682Y-90460704D01*
X84726657Y-90460704D01*
X84727390Y-90563286D01*
X84728122Y-90671242D01*
X84773717Y-90690004D01*
X84820935Y-90708122D01*
X84868984Y-90717842D01*
X84916189Y-90720579D01*
X84969403Y-90715285D01*
X85016937Y-90699404D01*
X85058790Y-90672936D01*
X85079588Y-90653656D01*
X85110521Y-90613267D01*
X85131331Y-90567661D01*
X85142017Y-90516838D01*
X85143579Y-90486350D01*
X85139503Y-90433808D01*
X85127273Y-90386367D01*
X85104123Y-90339636D01*
X85092044Y-90322707D01*
X85053495Y-90285226D01*
X85007456Y-90261627D01*
X84953928Y-90251910D01*
X84942323Y-90251632D01*
X84892608Y-90257429D01*
X84845440Y-90273194D01*
X84827041Y-90281919D01*
X84784769Y-90307796D01*
X84740903Y-90337850D01*
X84728122Y-90346887D01*
X84726657Y-90460704D01*
X84608682Y-90460704D01*
X84607443Y-90409351D01*
X84606316Y-90355558D01*
X84605457Y-90302522D01*
X84605038Y-90253624D01*
X84605024Y-90244305D01*
X84605127Y-90194434D01*
X84605339Y-90140621D01*
X84605585Y-90089043D01*
X84605757Y-90055750D01*
X84606006Y-90006834D01*
X84606231Y-89957624D01*
X84606418Y-89906786D01*
X84606489Y-89866706D01*
X84613852Y-89816427D01*
X84623586Y-89792944D01*
X84658658Y-89757262D01*
X84686113Y-89751423D01*
X84730401Y-89774702D01*
G37*
G36*
X86024808Y-90217927D02*
G01*
X85787159Y-90727662D01*
X85765822Y-90773244D01*
X85740965Y-90827559D01*
X85718123Y-90878917D01*
X85697297Y-90927317D01*
X85678487Y-90972759D01*
X85658574Y-91023386D01*
X85652581Y-91039316D01*
X85607152Y-91171451D01*
X85578825Y-91211345D01*
X85545359Y-91220788D01*
X85498189Y-91204903D01*
X85495533Y-91202714D01*
X85474773Y-91158262D01*
X85484039Y-91109322D01*
X85499241Y-91062145D01*
X85516614Y-91015216D01*
X85538621Y-90960120D01*
X85558166Y-90913439D01*
X85580318Y-90862164D01*
X85605075Y-90806295D01*
X85623028Y-90766496D01*
X85377076Y-90291200D01*
X85346301Y-90240886D01*
X85328192Y-90194608D01*
X85327739Y-90187641D01*
X85344194Y-90140010D01*
X85349232Y-90134152D01*
X85392844Y-90111152D01*
X85397836Y-90110949D01*
X85443108Y-90131209D01*
X85446441Y-90135617D01*
X85475899Y-90179592D01*
X85505898Y-90227987D01*
X85536440Y-90280800D01*
X85567524Y-90338033D01*
X85591192Y-90383858D01*
X85615166Y-90432169D01*
X85639444Y-90482965D01*
X85664027Y-90536248D01*
X85688914Y-90592016D01*
X85697278Y-90611158D01*
X85798883Y-90369113D01*
X85819345Y-90324191D01*
X85842848Y-90274451D01*
X85865954Y-90227586D01*
X85888663Y-90183596D01*
X85904640Y-90153935D01*
X85937460Y-90116994D01*
X85962281Y-90110949D01*
X86008017Y-90128200D01*
X86012107Y-90131953D01*
X86033654Y-90176444D01*
X86033845Y-90181779D01*
X86024808Y-90217927D01*
G37*
G36*
X87243335Y-89892107D02*
G01*
X87222086Y-89889176D01*
X87171715Y-89878136D01*
X87122115Y-89869808D01*
X87073287Y-89864192D01*
X87018428Y-89861093D01*
X86998115Y-89860844D01*
X86946951Y-89862340D01*
X86895842Y-89866408D01*
X86875261Y-89868660D01*
X86823810Y-89875506D01*
X86774112Y-89883834D01*
X86731646Y-89892107D01*
X86736745Y-89942442D01*
X86737752Y-89969043D01*
X86737020Y-90025265D01*
X86735176Y-90082348D01*
X86732704Y-90137137D01*
X86730013Y-90186926D01*
X86726750Y-90240472D01*
X86726029Y-90251632D01*
X87026936Y-90219881D01*
X87080062Y-90213980D01*
X87128785Y-90209012D01*
X87177883Y-90205108D01*
X87189846Y-90204738D01*
X87236474Y-90220585D01*
X87240404Y-90224033D01*
X87260982Y-90269395D01*
X87261165Y-90275324D01*
X87245350Y-90324112D01*
X87197906Y-90345422D01*
X87034508Y-90361053D01*
X86717236Y-90392316D01*
X86714325Y-90443802D01*
X86712595Y-90481709D01*
X86711126Y-90532237D01*
X86710886Y-90560355D01*
X86711659Y-90611234D01*
X86715093Y-90665823D01*
X86724302Y-90716156D01*
X86732868Y-90733279D01*
X86782823Y-90749231D01*
X86835187Y-90751824D01*
X86840823Y-90751842D01*
X86890110Y-90751842D01*
X86943142Y-90751842D01*
X86968806Y-90751842D01*
X87018132Y-90751842D01*
X87069989Y-90751842D01*
X87097766Y-90751842D01*
X87138066Y-90744026D01*
X87178122Y-90736210D01*
X87227877Y-90750095D01*
X87250267Y-90795787D01*
X87250907Y-90808750D01*
X87236313Y-90855706D01*
X87192533Y-90879337D01*
X87137516Y-90886292D01*
X87081492Y-90889628D01*
X87032644Y-90891238D01*
X86976439Y-90892204D01*
X86926176Y-90892513D01*
X86912875Y-90892526D01*
X86862015Y-90891663D01*
X86805148Y-90888159D01*
X86755736Y-90881960D01*
X86706279Y-90870964D01*
X86657034Y-90850264D01*
X86639567Y-90837327D01*
X86610716Y-90797515D01*
X86592233Y-90746652D01*
X86581414Y-90691147D01*
X86575940Y-90636498D01*
X86573879Y-90587283D01*
X86573621Y-90560844D01*
X86574240Y-90509659D01*
X86575575Y-90466322D01*
X86577904Y-90416466D01*
X86580562Y-90366737D01*
X86581193Y-90355680D01*
X86573621Y-90322707D01*
X86586566Y-90281674D01*
X86590506Y-90223253D01*
X86593779Y-90169804D01*
X86596824Y-90112231D01*
X86598908Y-90061819D01*
X86600124Y-90012055D01*
X86600244Y-89993712D01*
X86596397Y-89943291D01*
X86593405Y-89920683D01*
X86587695Y-89871522D01*
X86586566Y-89847411D01*
X86596218Y-89798444D01*
X86635426Y-89769016D01*
X86655198Y-89767055D01*
X86702153Y-89781008D01*
X86704780Y-89782930D01*
X86755341Y-89764789D01*
X86804137Y-89749748D01*
X86855774Y-89736784D01*
X86860362Y-89735792D01*
X86909698Y-89726892D01*
X86961150Y-89721396D01*
X86998115Y-89720160D01*
X87048676Y-89721102D01*
X87105005Y-89724720D01*
X87156594Y-89731051D01*
X87210790Y-89741867D01*
X87258535Y-89756376D01*
X87264829Y-89758750D01*
X87303168Y-89789825D01*
X87310746Y-89822498D01*
X87292916Y-89869637D01*
X87248793Y-89891909D01*
X87243335Y-89892107D01*
G37*
G36*
X87621667Y-90280697D02*
G01*
X87611409Y-90628743D01*
X87610522Y-90682296D01*
X87608633Y-90735066D01*
X87606366Y-90784529D01*
X87606036Y-90791165D01*
X87589767Y-90839083D01*
X87545986Y-90860989D01*
X87538625Y-90861263D01*
X87490239Y-90845592D01*
X87471477Y-90798580D01*
X87471214Y-90789944D01*
X87471813Y-90735547D01*
X87473107Y-90683942D01*
X87474792Y-90633235D01*
X87477011Y-90576552D01*
X87478785Y-90535443D01*
X87480967Y-90484401D01*
X87483096Y-90428645D01*
X87484693Y-90378882D01*
X87485884Y-90328401D01*
X87486357Y-90280697D01*
X87486520Y-90230772D01*
X87487011Y-90177808D01*
X87487829Y-90121805D01*
X87488791Y-90071385D01*
X87489776Y-90027662D01*
X87490938Y-89975380D01*
X87491860Y-89925332D01*
X87492631Y-89869763D01*
X87493075Y-89817233D01*
X87493196Y-89774626D01*
X87506098Y-89726708D01*
X87552444Y-89704802D01*
X87560607Y-89704528D01*
X87609343Y-89719931D01*
X87628241Y-89766138D01*
X87628506Y-89774626D01*
X87628343Y-89824551D01*
X87627852Y-89877515D01*
X87627034Y-89933518D01*
X87626072Y-89983939D01*
X87625087Y-90027662D01*
X87623925Y-90079943D01*
X87623003Y-90129992D01*
X87622232Y-90185560D01*
X87621788Y-90238090D01*
X87621667Y-90280697D01*
G37*
G36*
X87961409Y-89939002D02*
G01*
X87913633Y-89925458D01*
X87904256Y-89918485D01*
X87880531Y-89874036D01*
X87880321Y-89868660D01*
X87899979Y-89823000D01*
X87904256Y-89819078D01*
X87949353Y-89799048D01*
X87961409Y-89798318D01*
X88008863Y-89812023D01*
X88018073Y-89819078D01*
X88041557Y-89863285D01*
X88041765Y-89868660D01*
X88022307Y-89914520D01*
X88018073Y-89918485D01*
X87971487Y-89938501D01*
X87961409Y-89939002D01*
G37*
G36*
X87992428Y-90509309D02*
G01*
X87992978Y-90561516D01*
X87994111Y-90614375D01*
X87994626Y-90634605D01*
X87996017Y-90687126D01*
X87996916Y-90736546D01*
X87997069Y-90760146D01*
X87981823Y-90806698D01*
X87978506Y-90810460D01*
X87933398Y-90829923D01*
X87929658Y-90830000D01*
X87883719Y-90812826D01*
X87881297Y-90810460D01*
X87862564Y-90763949D01*
X87862491Y-90760146D01*
X87861880Y-90707756D01*
X87860621Y-90654839D01*
X87860048Y-90634605D01*
X87858658Y-90582113D01*
X87857759Y-90532802D01*
X87857606Y-90509309D01*
X87858414Y-90460301D01*
X87860551Y-90409086D01*
X87863617Y-90357568D01*
X87864445Y-90345422D01*
X87867869Y-90292762D01*
X87870359Y-90240278D01*
X87871500Y-90189874D01*
X87871528Y-90181535D01*
X87886973Y-90134257D01*
X87890334Y-90130488D01*
X87936873Y-90110968D01*
X87938695Y-90110949D01*
X87984662Y-90128122D01*
X87987055Y-90130488D01*
X88005938Y-90175732D01*
X88006106Y-90181535D01*
X88005297Y-90230543D01*
X88003160Y-90281758D01*
X88000095Y-90333275D01*
X87999267Y-90345422D01*
X87995961Y-90398082D01*
X87993557Y-90450565D01*
X87992455Y-90500969D01*
X87992428Y-90509309D01*
G37*
G36*
X88600055Y-90116068D02*
G01*
X88651352Y-90129881D01*
X88683147Y-90141967D01*
X88728248Y-90164950D01*
X88765423Y-90199560D01*
X88776448Y-90235268D01*
X88762526Y-90268241D01*
X88754812Y-90317378D01*
X88751779Y-90354703D01*
X88749478Y-90404357D01*
X88748153Y-90458261D01*
X88747627Y-90508332D01*
X88748457Y-90558382D01*
X88752853Y-90609124D01*
X88759351Y-90643642D01*
X88774957Y-90692985D01*
X88793945Y-90743206D01*
X88802581Y-90765031D01*
X88818213Y-90801667D01*
X88822365Y-90813391D01*
X88803070Y-90858820D01*
X88758374Y-90876894D01*
X88717259Y-90848009D01*
X88710990Y-90841723D01*
X88678628Y-90803369D01*
X88665073Y-90783105D01*
X88621582Y-90807413D01*
X88574947Y-90830412D01*
X88548813Y-90841479D01*
X88500232Y-90856916D01*
X88465038Y-90861263D01*
X88407836Y-90858094D01*
X88356766Y-90848589D01*
X88304932Y-90829490D01*
X88261443Y-90801766D01*
X88230809Y-90771137D01*
X88203781Y-90729745D01*
X88183392Y-90679728D01*
X88171198Y-90629991D01*
X88163883Y-90573918D01*
X88161512Y-90522349D01*
X88161462Y-90514438D01*
X88296999Y-90514438D01*
X88300148Y-90568338D01*
X88311034Y-90618666D01*
X88334361Y-90665772D01*
X88336810Y-90669043D01*
X88375768Y-90702411D01*
X88423464Y-90718113D01*
X88456489Y-90720579D01*
X88506765Y-90716951D01*
X88556560Y-90703749D01*
X88568353Y-90698597D01*
X88611738Y-90670828D01*
X88637718Y-90650725D01*
X88631385Y-90600716D01*
X88625203Y-90546105D01*
X88620566Y-90497384D01*
X88617110Y-90447988D01*
X88615736Y-90401353D01*
X88618344Y-90352300D01*
X88619399Y-90342491D01*
X88627093Y-90292528D01*
X88630635Y-90274836D01*
X88587159Y-90257250D01*
X88558094Y-90251632D01*
X88506666Y-90256609D01*
X88458871Y-90271538D01*
X88414709Y-90296420D01*
X88374180Y-90331256D01*
X88340413Y-90372472D01*
X88316294Y-90416741D01*
X88301823Y-90464063D01*
X88296999Y-90514438D01*
X88161462Y-90514438D01*
X88161444Y-90511507D01*
X88164235Y-90460933D01*
X88172607Y-90412708D01*
X88190020Y-90357939D01*
X88215471Y-90306554D01*
X88248959Y-90258551D01*
X88275750Y-90228429D01*
X88312626Y-90194585D01*
X88359727Y-90161543D01*
X88409936Y-90136762D01*
X88463253Y-90120241D01*
X88519679Y-90111981D01*
X88549057Y-90110949D01*
X88600055Y-90116068D01*
G37*
G36*
X89401953Y-90298527D02*
G01*
X89355430Y-90280146D01*
X89348953Y-90270683D01*
X89335595Y-90220542D01*
X89331123Y-90189106D01*
X89280060Y-90203292D01*
X89228273Y-90219197D01*
X89179012Y-90235046D01*
X89172365Y-90237222D01*
X89123913Y-90260502D01*
X89082669Y-90293250D01*
X89061511Y-90337901D01*
X89060990Y-90345910D01*
X89101535Y-90356901D01*
X89157943Y-90368273D01*
X89208650Y-90381138D01*
X89260603Y-90398037D01*
X89310474Y-90419839D01*
X89336496Y-90434815D01*
X89380179Y-90469648D01*
X89413132Y-90510676D01*
X89435357Y-90557898D01*
X89446852Y-90611314D01*
X89448604Y-90644619D01*
X89442544Y-90697360D01*
X89424363Y-90743232D01*
X89394061Y-90782235D01*
X89351639Y-90814368D01*
X89303078Y-90837037D01*
X89254267Y-90850959D01*
X89200144Y-90859019D01*
X89148429Y-90861263D01*
X89098391Y-90858906D01*
X89049666Y-90851834D01*
X89002254Y-90840049D01*
X88976482Y-90831465D01*
X88930214Y-90810659D01*
X88890968Y-90779370D01*
X88871138Y-90734078D01*
X88870725Y-90725708D01*
X88890896Y-90679598D01*
X88892219Y-90678325D01*
X88938129Y-90658132D01*
X88941556Y-90658053D01*
X88986281Y-90679788D01*
X88996510Y-90688583D01*
X89044275Y-90707817D01*
X89070516Y-90713007D01*
X89120167Y-90719329D01*
X89148185Y-90720579D01*
X89199219Y-90717573D01*
X89249790Y-90706901D01*
X89293534Y-90684935D01*
X89313782Y-90643642D01*
X89303465Y-90595814D01*
X89272514Y-90557570D01*
X89227680Y-90531619D01*
X89183356Y-90517124D01*
X89111793Y-90501737D01*
X89059877Y-90489034D01*
X89011242Y-90472089D01*
X88982100Y-90456552D01*
X88946045Y-90419942D01*
X88928370Y-90370835D01*
X88926413Y-90343956D01*
X88931170Y-90294640D01*
X88948744Y-90244181D01*
X88979268Y-90201341D01*
X89022742Y-90166122D01*
X89061723Y-90145631D01*
X89111261Y-90127184D01*
X89161369Y-90111746D01*
X89193614Y-90102644D01*
X89240626Y-90089230D01*
X89290566Y-90073207D01*
X89323551Y-90060390D01*
X89372419Y-90048843D01*
X89384612Y-90048422D01*
X89430579Y-90064952D01*
X89432972Y-90067229D01*
X89451949Y-90112581D01*
X89452023Y-90116322D01*
X89459044Y-90166581D01*
X89460572Y-90173475D01*
X89468820Y-90222665D01*
X89469120Y-90230628D01*
X89452376Y-90277325D01*
X89450069Y-90279720D01*
X89403775Y-90298509D01*
X89401953Y-90298527D01*
G37*
G36*
X90609204Y-89768661D02*
G01*
X90660247Y-89773481D01*
X90718952Y-89784025D01*
X90771993Y-89799589D01*
X90819368Y-89820175D01*
X90861079Y-89845781D01*
X90890369Y-89869881D01*
X90923440Y-89906259D01*
X90950905Y-89948683D01*
X90972766Y-89997153D01*
X90989021Y-90051670D01*
X90999670Y-90112233D01*
X91004155Y-90165038D01*
X91005163Y-90207180D01*
X91003145Y-90266524D01*
X90997088Y-90324386D01*
X90986994Y-90380768D01*
X90972862Y-90435669D01*
X90954693Y-90489090D01*
X90932486Y-90541030D01*
X90906241Y-90591489D01*
X90875959Y-90640467D01*
X90837540Y-90692216D01*
X90796412Y-90737065D01*
X90752574Y-90775014D01*
X90706027Y-90806064D01*
X90656770Y-90830213D01*
X90604804Y-90847463D01*
X90550128Y-90857813D01*
X90492742Y-90861263D01*
X90433588Y-90858400D01*
X90377332Y-90849814D01*
X90323975Y-90835503D01*
X90273515Y-90815467D01*
X90225953Y-90789707D01*
X90181289Y-90758223D01*
X90164235Y-90744026D01*
X90123073Y-90703188D01*
X90088887Y-90658832D01*
X90061678Y-90610958D01*
X90041446Y-90559565D01*
X90028190Y-90504655D01*
X90021911Y-90446226D01*
X90021359Y-90422114D01*
X90161549Y-90422114D01*
X90166247Y-90478596D01*
X90180342Y-90530286D01*
X90203834Y-90577184D01*
X90236722Y-90619290D01*
X90259734Y-90641200D01*
X90303108Y-90672130D01*
X90350736Y-90695463D01*
X90402618Y-90711199D01*
X90458754Y-90719338D01*
X90492742Y-90720579D01*
X90543447Y-90716411D01*
X90591303Y-90703906D01*
X90636307Y-90683066D01*
X90678462Y-90653889D01*
X90717766Y-90616376D01*
X90754220Y-90570527D01*
X90768004Y-90549853D01*
X90795938Y-90501225D01*
X90819137Y-90450749D01*
X90837602Y-90398424D01*
X90851332Y-90344250D01*
X90860328Y-90288228D01*
X90864589Y-90230358D01*
X90864968Y-90206692D01*
X90863173Y-90157052D01*
X90856281Y-90103861D01*
X90841707Y-90050595D01*
X90816435Y-90001311D01*
X90791451Y-89972463D01*
X90750357Y-89944146D01*
X90704482Y-89926005D01*
X90649351Y-89914059D01*
X90594729Y-89908750D01*
X90554535Y-89907739D01*
X90503205Y-89911889D01*
X90454391Y-89924339D01*
X90408093Y-89945090D01*
X90364312Y-89974142D01*
X90323047Y-90011494D01*
X90284299Y-90057146D01*
X90269504Y-90077732D01*
X90238404Y-90127355D01*
X90212574Y-90178529D01*
X90192017Y-90231254D01*
X90176730Y-90285529D01*
X90166715Y-90341354D01*
X90161970Y-90398730D01*
X90161549Y-90422114D01*
X90021359Y-90422114D01*
X90021353Y-90421870D01*
X90023555Y-90362473D01*
X90030161Y-90304450D01*
X90041171Y-90247801D01*
X90056585Y-90192526D01*
X90076403Y-90138624D01*
X90100625Y-90086097D01*
X90129251Y-90034943D01*
X90162281Y-89985163D01*
X90192456Y-89946185D01*
X90234813Y-89900178D01*
X90279598Y-89860986D01*
X90326809Y-89828611D01*
X90376448Y-89803051D01*
X90428513Y-89784307D01*
X90483006Y-89772380D01*
X90539926Y-89767268D01*
X90554535Y-89767055D01*
X90609204Y-89768661D01*
G37*
G36*
X91376657Y-89836908D02*
G01*
X91379091Y-89886200D01*
X91380076Y-89898457D01*
X91383511Y-89948374D01*
X91383740Y-89960006D01*
X91376438Y-90010345D01*
X91339748Y-90046264D01*
X91321946Y-90048422D01*
X91275281Y-90031249D01*
X91267480Y-90017892D01*
X91262238Y-89967106D01*
X91262107Y-89952435D01*
X91258897Y-89901574D01*
X91258199Y-89894549D01*
X91254664Y-89844814D01*
X91254535Y-89836908D01*
X91255564Y-89785029D01*
X91259909Y-89743607D01*
X91283816Y-89700918D01*
X91320481Y-89688897D01*
X91364445Y-89705994D01*
X91382274Y-89748981D01*
X91379344Y-89792944D01*
X91376657Y-89836908D01*
G37*
G36*
X92718771Y-90892526D02*
G01*
X92672218Y-90873473D01*
X92657711Y-90855645D01*
X92636893Y-90810312D01*
X92622648Y-90759646D01*
X92620586Y-90750621D01*
X92595917Y-90628499D01*
X92584142Y-90576284D01*
X92572571Y-90518065D01*
X92562164Y-90461864D01*
X92550735Y-90397107D01*
X92541491Y-90342925D01*
X92531672Y-90283929D01*
X92521278Y-90220121D01*
X92510309Y-90151500D01*
X92506524Y-90127557D01*
X92369260Y-90555471D01*
X92328715Y-90690293D01*
X92313083Y-90737524D01*
X92293757Y-90786708D01*
X92277180Y-90821451D01*
X92238420Y-90853642D01*
X92199511Y-90861263D01*
X92152064Y-90846486D01*
X92135764Y-90830000D01*
X92117045Y-90783843D01*
X92108164Y-90754040D01*
X92088381Y-90675394D01*
X92075518Y-90628096D01*
X92062944Y-90580176D01*
X92050657Y-90531634D01*
X92038658Y-90482469D01*
X92026947Y-90432681D01*
X92015523Y-90382271D01*
X92004387Y-90331238D01*
X91993538Y-90279583D01*
X91982977Y-90227305D01*
X91972704Y-90174405D01*
X91966015Y-90138792D01*
X91941346Y-90264822D01*
X91852686Y-90636315D01*
X91846082Y-90688844D01*
X91836600Y-90742770D01*
X91826688Y-90791525D01*
X91818248Y-90830000D01*
X91786666Y-90867918D01*
X91750348Y-90876894D01*
X91703208Y-90859854D01*
X91696615Y-90852958D01*
X91679585Y-90806118D01*
X91679518Y-90802400D01*
X91681785Y-90750116D01*
X91687338Y-90701338D01*
X91696222Y-90648902D01*
X91708438Y-90592808D01*
X91721163Y-90543269D01*
X91726901Y-90522742D01*
X91802616Y-90236734D01*
X91842428Y-90013251D01*
X91853897Y-89958262D01*
X91867559Y-89903746D01*
X91883546Y-89854149D01*
X91906175Y-89808087D01*
X91943427Y-89773827D01*
X91974075Y-89767055D01*
X92021073Y-89787567D01*
X92040753Y-89819567D01*
X92057926Y-89871912D01*
X92070402Y-89923796D01*
X92081393Y-89978258D01*
X92090762Y-90030688D01*
X92098394Y-90077243D01*
X92108183Y-90136159D01*
X92119231Y-90196281D01*
X92131539Y-90257609D01*
X92145106Y-90320143D01*
X92156108Y-90367834D01*
X92167818Y-90416204D01*
X92180236Y-90465253D01*
X92193363Y-90514980D01*
X92207198Y-90565385D01*
X92211967Y-90582337D01*
X92230778Y-90530895D01*
X92249108Y-90479057D01*
X92266956Y-90426824D01*
X92284324Y-90374197D01*
X92301211Y-90321174D01*
X92317618Y-90267756D01*
X92333543Y-90213944D01*
X92348988Y-90159736D01*
X92363951Y-90105133D01*
X92378434Y-90050136D01*
X92387822Y-90013251D01*
X92408339Y-89909692D01*
X92420520Y-89859610D01*
X92438106Y-89813708D01*
X92440579Y-89808820D01*
X92477063Y-89775049D01*
X92514096Y-89767055D01*
X92560438Y-89787578D01*
X92589307Y-89832498D01*
X92604221Y-89874277D01*
X92614773Y-89926303D01*
X92622544Y-89977226D01*
X92629123Y-90026290D01*
X92631088Y-90041828D01*
X92638864Y-90101133D01*
X92646988Y-90158790D01*
X92655459Y-90214798D01*
X92664278Y-90269157D01*
X92673445Y-90321868D01*
X92682960Y-90372930D01*
X92692823Y-90422343D01*
X92706514Y-90485663D01*
X92720823Y-90546052D01*
X92731960Y-90589420D01*
X92765666Y-90711542D01*
X92779319Y-90762198D01*
X92789938Y-90809956D01*
X92791556Y-90825115D01*
X92771806Y-90870538D01*
X92769085Y-90872986D01*
X92723986Y-90892354D01*
X92718771Y-90892526D01*
G37*
G36*
X93311988Y-90116068D02*
G01*
X93363285Y-90129881D01*
X93395080Y-90141967D01*
X93440181Y-90164950D01*
X93477356Y-90199560D01*
X93488381Y-90235268D01*
X93474459Y-90268241D01*
X93466745Y-90317378D01*
X93463712Y-90354703D01*
X93461411Y-90404357D01*
X93460086Y-90458261D01*
X93459560Y-90508332D01*
X93460390Y-90558382D01*
X93464786Y-90609124D01*
X93471284Y-90643642D01*
X93486890Y-90692985D01*
X93505878Y-90743206D01*
X93514515Y-90765031D01*
X93530146Y-90801667D01*
X93534298Y-90813391D01*
X93515003Y-90858820D01*
X93470307Y-90876894D01*
X93429192Y-90848009D01*
X93422923Y-90841723D01*
X93390561Y-90803369D01*
X93377006Y-90783105D01*
X93333515Y-90807413D01*
X93286880Y-90830412D01*
X93260746Y-90841479D01*
X93212165Y-90856916D01*
X93176971Y-90861263D01*
X93119769Y-90858094D01*
X93068699Y-90848589D01*
X93016865Y-90829490D01*
X92973376Y-90801766D01*
X92942742Y-90771137D01*
X92915714Y-90729745D01*
X92895325Y-90679728D01*
X92883131Y-90629991D01*
X92875816Y-90573918D01*
X92873445Y-90522349D01*
X92873395Y-90514438D01*
X93008932Y-90514438D01*
X93012081Y-90568338D01*
X93022967Y-90618666D01*
X93046294Y-90665772D01*
X93048743Y-90669043D01*
X93087701Y-90702411D01*
X93135397Y-90718113D01*
X93168422Y-90720579D01*
X93218698Y-90716951D01*
X93268493Y-90703749D01*
X93280286Y-90698597D01*
X93323671Y-90670828D01*
X93349651Y-90650725D01*
X93343318Y-90600716D01*
X93337136Y-90546105D01*
X93332499Y-90497384D01*
X93329043Y-90447988D01*
X93327669Y-90401353D01*
X93330277Y-90352300D01*
X93331332Y-90342491D01*
X93339026Y-90292528D01*
X93342568Y-90274836D01*
X93299092Y-90257250D01*
X93270027Y-90251632D01*
X93218599Y-90256609D01*
X93170804Y-90271538D01*
X93126642Y-90296420D01*
X93086113Y-90331256D01*
X93052346Y-90372472D01*
X93028227Y-90416741D01*
X93013756Y-90464063D01*
X93008932Y-90514438D01*
X92873395Y-90514438D01*
X92873377Y-90511507D01*
X92876168Y-90460933D01*
X92884540Y-90412708D01*
X92901953Y-90357939D01*
X92927404Y-90306554D01*
X92960892Y-90258551D01*
X92987683Y-90228429D01*
X93024559Y-90194585D01*
X93071660Y-90161543D01*
X93121869Y-90136762D01*
X93175186Y-90120241D01*
X93231612Y-90111981D01*
X93260990Y-90110949D01*
X93311988Y-90116068D01*
G37*
G36*
X93824459Y-90280697D02*
G01*
X93814200Y-90628743D01*
X93813314Y-90682296D01*
X93811425Y-90735066D01*
X93809158Y-90784529D01*
X93808827Y-90791165D01*
X93792558Y-90839083D01*
X93748778Y-90860989D01*
X93741416Y-90861263D01*
X93693030Y-90845592D01*
X93674268Y-90798580D01*
X93674005Y-90789944D01*
X93674604Y-90735547D01*
X93675898Y-90683942D01*
X93677584Y-90633235D01*
X93679802Y-90576552D01*
X93681577Y-90535443D01*
X93683758Y-90484401D01*
X93685887Y-90428645D01*
X93687484Y-90378882D01*
X93688675Y-90328401D01*
X93689148Y-90280697D01*
X93689312Y-90230772D01*
X93689803Y-90177808D01*
X93690621Y-90121805D01*
X93691582Y-90071385D01*
X93692568Y-90027662D01*
X93693730Y-89975380D01*
X93694651Y-89925332D01*
X93695423Y-89869763D01*
X93695867Y-89817233D01*
X93695987Y-89774626D01*
X93708890Y-89726708D01*
X93755235Y-89704802D01*
X93763398Y-89704528D01*
X93812134Y-89719931D01*
X93831032Y-89766138D01*
X93831297Y-89774626D01*
X93831134Y-89824551D01*
X93830643Y-89877515D01*
X93829825Y-89933518D01*
X93828863Y-89983939D01*
X93827878Y-90027662D01*
X93826716Y-90079943D01*
X93825794Y-90129992D01*
X93825023Y-90185560D01*
X93824579Y-90238090D01*
X93824459Y-90280697D01*
G37*
G36*
X94207431Y-90280697D02*
G01*
X94197173Y-90628743D01*
X94196286Y-90682296D01*
X94194397Y-90735066D01*
X94192131Y-90784529D01*
X94191800Y-90791165D01*
X94175531Y-90839083D01*
X94131751Y-90860989D01*
X94124389Y-90861263D01*
X94076003Y-90845592D01*
X94057241Y-90798580D01*
X94056978Y-90789944D01*
X94057577Y-90735547D01*
X94058871Y-90683942D01*
X94060557Y-90633235D01*
X94062775Y-90576552D01*
X94064549Y-90535443D01*
X94066731Y-90484401D01*
X94068860Y-90428645D01*
X94070457Y-90378882D01*
X94071648Y-90328401D01*
X94072121Y-90280697D01*
X94072285Y-90230772D01*
X94072775Y-90177808D01*
X94073594Y-90121805D01*
X94074555Y-90071385D01*
X94075540Y-90027662D01*
X94076702Y-89975380D01*
X94077624Y-89925332D01*
X94078395Y-89869763D01*
X94078840Y-89817233D01*
X94078960Y-89774626D01*
X94091863Y-89726708D01*
X94138208Y-89704802D01*
X94146371Y-89704528D01*
X94195107Y-89719931D01*
X94214005Y-89766138D01*
X94214270Y-89774626D01*
X94214107Y-89824551D01*
X94213616Y-89877515D01*
X94212798Y-89933518D01*
X94211836Y-89983939D01*
X94210851Y-90027662D01*
X94209689Y-90079943D01*
X94208767Y-90129992D01*
X94207996Y-90185560D01*
X94207552Y-90238090D01*
X94207431Y-90280697D01*
G37*
G36*
X94772548Y-90113376D02*
G01*
X94821702Y-90120657D01*
X94870723Y-90134651D01*
X94904256Y-90149783D01*
X94947114Y-90180906D01*
X94978284Y-90225003D01*
X94991531Y-90273256D01*
X94992916Y-90297306D01*
X94981994Y-90347727D01*
X94952792Y-90390808D01*
X94915247Y-90423824D01*
X94870555Y-90448775D01*
X94826222Y-90469949D01*
X94776564Y-90492145D01*
X94769678Y-90495143D01*
X94507362Y-90610425D01*
X94541780Y-90650443D01*
X94582325Y-90681593D01*
X94603105Y-90692979D01*
X94652844Y-90710849D01*
X94704266Y-90719258D01*
X94736706Y-90720579D01*
X94788241Y-90716304D01*
X94836228Y-90706537D01*
X94848080Y-90703482D01*
X94896989Y-90686950D01*
X94939451Y-90661318D01*
X94952372Y-90646573D01*
X94989467Y-90613371D01*
X95002686Y-90611158D01*
X95045429Y-90630209D01*
X95064480Y-90674661D01*
X95052482Y-90722408D01*
X95021169Y-90761668D01*
X94977018Y-90793614D01*
X94941625Y-90812170D01*
X94895851Y-90831299D01*
X94844224Y-90847407D01*
X94793330Y-90857379D01*
X94743169Y-90861215D01*
X94736950Y-90861263D01*
X94680776Y-90858532D01*
X94628758Y-90850340D01*
X94580896Y-90836688D01*
X94530310Y-90813857D01*
X94485380Y-90783593D01*
X94449688Y-90748932D01*
X94417381Y-90702373D01*
X94397689Y-90657218D01*
X94385381Y-90607221D01*
X94380458Y-90552381D01*
X94380355Y-90542770D01*
X94382277Y-90493189D01*
X94495638Y-90493189D01*
X94706420Y-90400132D01*
X94757397Y-90376352D01*
X94801548Y-90353950D01*
X94848286Y-90327175D01*
X94883740Y-90302679D01*
X94842171Y-90275760D01*
X94791347Y-90258811D01*
X94737694Y-90252081D01*
X94718143Y-90251632D01*
X94668527Y-90257524D01*
X94620285Y-90277614D01*
X94582188Y-90308249D01*
X94578681Y-90311960D01*
X94546643Y-90355476D01*
X94522540Y-90404836D01*
X94504878Y-90456822D01*
X94495638Y-90493189D01*
X94382277Y-90493189D01*
X94382466Y-90488313D01*
X94388799Y-90436682D01*
X94399353Y-90387877D01*
X94417591Y-90333043D01*
X94441909Y-90282278D01*
X94466817Y-90243084D01*
X94497747Y-90205018D01*
X94538940Y-90167855D01*
X94584581Y-90139982D01*
X94634670Y-90121401D01*
X94689207Y-90112110D01*
X94718143Y-90110949D01*
X94772548Y-90113376D01*
G37*
G36*
X95781821Y-90217927D02*
G01*
X95544173Y-90727662D01*
X95522836Y-90773244D01*
X95497978Y-90827559D01*
X95475137Y-90878917D01*
X95454311Y-90927317D01*
X95435500Y-90972759D01*
X95415587Y-91023386D01*
X95409595Y-91039316D01*
X95364166Y-91171451D01*
X95335838Y-91211345D01*
X95302372Y-91220788D01*
X95255203Y-91204903D01*
X95252547Y-91202714D01*
X95231786Y-91158262D01*
X95241052Y-91109322D01*
X95256254Y-91062145D01*
X95273628Y-91015216D01*
X95295634Y-90960120D01*
X95315180Y-90913439D01*
X95337331Y-90862164D01*
X95362089Y-90806295D01*
X95380041Y-90766496D01*
X95134089Y-90291200D01*
X95103314Y-90240886D01*
X95085205Y-90194608D01*
X95084752Y-90187641D01*
X95101208Y-90140010D01*
X95106245Y-90134152D01*
X95149857Y-90111152D01*
X95154849Y-90110949D01*
X95200121Y-90131209D01*
X95203454Y-90135617D01*
X95232912Y-90179592D01*
X95262912Y-90227987D01*
X95293453Y-90280800D01*
X95324537Y-90338033D01*
X95348206Y-90383858D01*
X95372179Y-90432169D01*
X95396457Y-90482965D01*
X95421040Y-90536248D01*
X95445928Y-90592016D01*
X95454291Y-90611158D01*
X95555896Y-90369113D01*
X95576358Y-90324191D01*
X95599862Y-90274451D01*
X95622968Y-90227586D01*
X95645676Y-90183596D01*
X95661653Y-90153935D01*
X95694474Y-90116994D01*
X95719295Y-90110949D01*
X95765030Y-90128200D01*
X95769120Y-90131953D01*
X95790667Y-90176444D01*
X95790858Y-90181779D01*
X95781821Y-90217927D01*
G37*
D11*
X84333333Y-72259580D02*
X84285714Y-72307200D01*
X84285714Y-72307200D02*
X84142857Y-72354819D01*
X84142857Y-72354819D02*
X84047619Y-72354819D01*
X84047619Y-72354819D02*
X83904762Y-72307200D01*
X83904762Y-72307200D02*
X83809524Y-72211961D01*
X83809524Y-72211961D02*
X83761905Y-72116723D01*
X83761905Y-72116723D02*
X83714286Y-71926247D01*
X83714286Y-71926247D02*
X83714286Y-71783390D01*
X83714286Y-71783390D02*
X83761905Y-71592914D01*
X83761905Y-71592914D02*
X83809524Y-71497676D01*
X83809524Y-71497676D02*
X83904762Y-71402438D01*
X83904762Y-71402438D02*
X84047619Y-71354819D01*
X84047619Y-71354819D02*
X84142857Y-71354819D01*
X84142857Y-71354819D02*
X84285714Y-71402438D01*
X84285714Y-71402438D02*
X84333333Y-71450057D01*
X85190476Y-71688152D02*
X85190476Y-72354819D01*
X84952381Y-71307200D02*
X84714286Y-72021485D01*
X84714286Y-72021485D02*
X85333333Y-72021485D01*
X74166666Y-79499819D02*
X74166666Y-80214104D01*
X74166666Y-80214104D02*
X74119047Y-80356961D01*
X74119047Y-80356961D02*
X74023809Y-80452200D01*
X74023809Y-80452200D02*
X73880952Y-80499819D01*
X73880952Y-80499819D02*
X73785714Y-80499819D01*
X74547619Y-79499819D02*
X75166666Y-79499819D01*
X75166666Y-79499819D02*
X74833333Y-79880771D01*
X74833333Y-79880771D02*
X74976190Y-79880771D01*
X74976190Y-79880771D02*
X75071428Y-79928390D01*
X75071428Y-79928390D02*
X75119047Y-79976009D01*
X75119047Y-79976009D02*
X75166666Y-80071247D01*
X75166666Y-80071247D02*
X75166666Y-80309342D01*
X75166666Y-80309342D02*
X75119047Y-80404580D01*
X75119047Y-80404580D02*
X75071428Y-80452200D01*
X75071428Y-80452200D02*
X74976190Y-80499819D01*
X74976190Y-80499819D02*
X74690476Y-80499819D01*
X74690476Y-80499819D02*
X74595238Y-80452200D01*
X74595238Y-80452200D02*
X74547619Y-80404580D01*
X81833333Y-72259580D02*
X81785714Y-72307200D01*
X81785714Y-72307200D02*
X81642857Y-72354819D01*
X81642857Y-72354819D02*
X81547619Y-72354819D01*
X81547619Y-72354819D02*
X81404762Y-72307200D01*
X81404762Y-72307200D02*
X81309524Y-72211961D01*
X81309524Y-72211961D02*
X81261905Y-72116723D01*
X81261905Y-72116723D02*
X81214286Y-71926247D01*
X81214286Y-71926247D02*
X81214286Y-71783390D01*
X81214286Y-71783390D02*
X81261905Y-71592914D01*
X81261905Y-71592914D02*
X81309524Y-71497676D01*
X81309524Y-71497676D02*
X81404762Y-71402438D01*
X81404762Y-71402438D02*
X81547619Y-71354819D01*
X81547619Y-71354819D02*
X81642857Y-71354819D01*
X81642857Y-71354819D02*
X81785714Y-71402438D01*
X81785714Y-71402438D02*
X81833333Y-71450057D01*
X82738095Y-71354819D02*
X82261905Y-71354819D01*
X82261905Y-71354819D02*
X82214286Y-71831009D01*
X82214286Y-71831009D02*
X82261905Y-71783390D01*
X82261905Y-71783390D02*
X82357143Y-71735771D01*
X82357143Y-71735771D02*
X82595238Y-71735771D01*
X82595238Y-71735771D02*
X82690476Y-71783390D01*
X82690476Y-71783390D02*
X82738095Y-71831009D01*
X82738095Y-71831009D02*
X82785714Y-71926247D01*
X82785714Y-71926247D02*
X82785714Y-72164342D01*
X82785714Y-72164342D02*
X82738095Y-72259580D01*
X82738095Y-72259580D02*
X82690476Y-72307200D01*
X82690476Y-72307200D02*
X82595238Y-72354819D01*
X82595238Y-72354819D02*
X82357143Y-72354819D01*
X82357143Y-72354819D02*
X82261905Y-72307200D01*
X82261905Y-72307200D02*
X82214286Y-72259580D01*
X77859580Y-49166666D02*
X77907200Y-49214285D01*
X77907200Y-49214285D02*
X77954819Y-49357142D01*
X77954819Y-49357142D02*
X77954819Y-49452380D01*
X77954819Y-49452380D02*
X77907200Y-49595237D01*
X77907200Y-49595237D02*
X77811961Y-49690475D01*
X77811961Y-49690475D02*
X77716723Y-49738094D01*
X77716723Y-49738094D02*
X77526247Y-49785713D01*
X77526247Y-49785713D02*
X77383390Y-49785713D01*
X77383390Y-49785713D02*
X77192914Y-49738094D01*
X77192914Y-49738094D02*
X77097676Y-49690475D01*
X77097676Y-49690475D02*
X77002438Y-49595237D01*
X77002438Y-49595237D02*
X76954819Y-49452380D01*
X76954819Y-49452380D02*
X76954819Y-49357142D01*
X76954819Y-49357142D02*
X77002438Y-49214285D01*
X77002438Y-49214285D02*
X77050057Y-49166666D01*
X76954819Y-48309523D02*
X76954819Y-48499999D01*
X76954819Y-48499999D02*
X77002438Y-48595237D01*
X77002438Y-48595237D02*
X77050057Y-48642856D01*
X77050057Y-48642856D02*
X77192914Y-48738094D01*
X77192914Y-48738094D02*
X77383390Y-48785713D01*
X77383390Y-48785713D02*
X77764342Y-48785713D01*
X77764342Y-48785713D02*
X77859580Y-48738094D01*
X77859580Y-48738094D02*
X77907200Y-48690475D01*
X77907200Y-48690475D02*
X77954819Y-48595237D01*
X77954819Y-48595237D02*
X77954819Y-48404761D01*
X77954819Y-48404761D02*
X77907200Y-48309523D01*
X77907200Y-48309523D02*
X77859580Y-48261904D01*
X77859580Y-48261904D02*
X77764342Y-48214285D01*
X77764342Y-48214285D02*
X77526247Y-48214285D01*
X77526247Y-48214285D02*
X77431009Y-48261904D01*
X77431009Y-48261904D02*
X77383390Y-48309523D01*
X77383390Y-48309523D02*
X77335771Y-48404761D01*
X77335771Y-48404761D02*
X77335771Y-48595237D01*
X77335771Y-48595237D02*
X77383390Y-48690475D01*
X77383390Y-48690475D02*
X77431009Y-48738094D01*
X77431009Y-48738094D02*
X77526247Y-48785713D01*
X93833333Y-78954819D02*
X93500000Y-78478628D01*
X93261905Y-78954819D02*
X93261905Y-77954819D01*
X93261905Y-77954819D02*
X93642857Y-77954819D01*
X93642857Y-77954819D02*
X93738095Y-78002438D01*
X93738095Y-78002438D02*
X93785714Y-78050057D01*
X93785714Y-78050057D02*
X93833333Y-78145295D01*
X93833333Y-78145295D02*
X93833333Y-78288152D01*
X93833333Y-78288152D02*
X93785714Y-78383390D01*
X93785714Y-78383390D02*
X93738095Y-78431009D01*
X93738095Y-78431009D02*
X93642857Y-78478628D01*
X93642857Y-78478628D02*
X93261905Y-78478628D01*
X94166667Y-77954819D02*
X94785714Y-77954819D01*
X94785714Y-77954819D02*
X94452381Y-78335771D01*
X94452381Y-78335771D02*
X94595238Y-78335771D01*
X94595238Y-78335771D02*
X94690476Y-78383390D01*
X94690476Y-78383390D02*
X94738095Y-78431009D01*
X94738095Y-78431009D02*
X94785714Y-78526247D01*
X94785714Y-78526247D02*
X94785714Y-78764342D01*
X94785714Y-78764342D02*
X94738095Y-78859580D01*
X94738095Y-78859580D02*
X94690476Y-78907200D01*
X94690476Y-78907200D02*
X94595238Y-78954819D01*
X94595238Y-78954819D02*
X94309524Y-78954819D01*
X94309524Y-78954819D02*
X94214286Y-78907200D01*
X94214286Y-78907200D02*
X94166667Y-78859580D01*
X80454819Y-69666666D02*
X79978628Y-69999999D01*
X80454819Y-70238094D02*
X79454819Y-70238094D01*
X79454819Y-70238094D02*
X79454819Y-69857142D01*
X79454819Y-69857142D02*
X79502438Y-69761904D01*
X79502438Y-69761904D02*
X79550057Y-69714285D01*
X79550057Y-69714285D02*
X79645295Y-69666666D01*
X79645295Y-69666666D02*
X79788152Y-69666666D01*
X79788152Y-69666666D02*
X79883390Y-69714285D01*
X79883390Y-69714285D02*
X79931009Y-69761904D01*
X79931009Y-69761904D02*
X79978628Y-69857142D01*
X79978628Y-69857142D02*
X79978628Y-70238094D01*
X80454819Y-68714285D02*
X80454819Y-69285713D01*
X80454819Y-68999999D02*
X79454819Y-68999999D01*
X79454819Y-68999999D02*
X79597676Y-69095237D01*
X79597676Y-69095237D02*
X79692914Y-69190475D01*
X79692914Y-69190475D02*
X79740533Y-69285713D01*
X80542319Y-67166666D02*
X80066128Y-67499999D01*
X80542319Y-67738094D02*
X79542319Y-67738094D01*
X79542319Y-67738094D02*
X79542319Y-67357142D01*
X79542319Y-67357142D02*
X79589938Y-67261904D01*
X79589938Y-67261904D02*
X79637557Y-67214285D01*
X79637557Y-67214285D02*
X79732795Y-67166666D01*
X79732795Y-67166666D02*
X79875652Y-67166666D01*
X79875652Y-67166666D02*
X79970890Y-67214285D01*
X79970890Y-67214285D02*
X80018509Y-67261904D01*
X80018509Y-67261904D02*
X80066128Y-67357142D01*
X80066128Y-67357142D02*
X80066128Y-67738094D01*
X79875652Y-66309523D02*
X80542319Y-66309523D01*
X79494700Y-66547618D02*
X80208985Y-66785713D01*
X80208985Y-66785713D02*
X80208985Y-66166666D01*
X78859580Y-78666666D02*
X78907200Y-78714285D01*
X78907200Y-78714285D02*
X78954819Y-78857142D01*
X78954819Y-78857142D02*
X78954819Y-78952380D01*
X78954819Y-78952380D02*
X78907200Y-79095237D01*
X78907200Y-79095237D02*
X78811961Y-79190475D01*
X78811961Y-79190475D02*
X78716723Y-79238094D01*
X78716723Y-79238094D02*
X78526247Y-79285713D01*
X78526247Y-79285713D02*
X78383390Y-79285713D01*
X78383390Y-79285713D02*
X78192914Y-79238094D01*
X78192914Y-79238094D02*
X78097676Y-79190475D01*
X78097676Y-79190475D02*
X78002438Y-79095237D01*
X78002438Y-79095237D02*
X77954819Y-78952380D01*
X77954819Y-78952380D02*
X77954819Y-78857142D01*
X77954819Y-78857142D02*
X78002438Y-78714285D01*
X78002438Y-78714285D02*
X78050057Y-78666666D01*
X78954819Y-78190475D02*
X78954819Y-77999999D01*
X78954819Y-77999999D02*
X78907200Y-77904761D01*
X78907200Y-77904761D02*
X78859580Y-77857142D01*
X78859580Y-77857142D02*
X78716723Y-77761904D01*
X78716723Y-77761904D02*
X78526247Y-77714285D01*
X78526247Y-77714285D02*
X78145295Y-77714285D01*
X78145295Y-77714285D02*
X78050057Y-77761904D01*
X78050057Y-77761904D02*
X78002438Y-77809523D01*
X78002438Y-77809523D02*
X77954819Y-77904761D01*
X77954819Y-77904761D02*
X77954819Y-78095237D01*
X77954819Y-78095237D02*
X78002438Y-78190475D01*
X78002438Y-78190475D02*
X78050057Y-78238094D01*
X78050057Y-78238094D02*
X78145295Y-78285713D01*
X78145295Y-78285713D02*
X78383390Y-78285713D01*
X78383390Y-78285713D02*
X78478628Y-78238094D01*
X78478628Y-78238094D02*
X78526247Y-78190475D01*
X78526247Y-78190475D02*
X78573866Y-78095237D01*
X78573866Y-78095237D02*
X78573866Y-77904761D01*
X78573866Y-77904761D02*
X78526247Y-77809523D01*
X78526247Y-77809523D02*
X78478628Y-77761904D01*
X78478628Y-77761904D02*
X78383390Y-77714285D01*
X82388472Y-76060882D02*
X82388472Y-76710630D01*
X82388472Y-76710630D02*
X82426692Y-76787071D01*
X82426692Y-76787071D02*
X82464913Y-76825292D01*
X82464913Y-76825292D02*
X82541354Y-76863512D01*
X82541354Y-76863512D02*
X82694236Y-76863512D01*
X82694236Y-76863512D02*
X82770677Y-76825292D01*
X82770677Y-76825292D02*
X82808897Y-76787071D01*
X82808897Y-76787071D02*
X82847118Y-76710630D01*
X82847118Y-76710630D02*
X82847118Y-76060882D01*
X83152881Y-76060882D02*
X83649747Y-76060882D01*
X83649747Y-76060882D02*
X83382204Y-76366646D01*
X83382204Y-76366646D02*
X83496865Y-76366646D01*
X83496865Y-76366646D02*
X83573306Y-76404866D01*
X83573306Y-76404866D02*
X83611527Y-76443087D01*
X83611527Y-76443087D02*
X83649747Y-76519528D01*
X83649747Y-76519528D02*
X83649747Y-76710630D01*
X83649747Y-76710630D02*
X83611527Y-76787071D01*
X83611527Y-76787071D02*
X83573306Y-76825292D01*
X83573306Y-76825292D02*
X83496865Y-76863512D01*
X83496865Y-76863512D02*
X83267542Y-76863512D01*
X83267542Y-76863512D02*
X83191101Y-76825292D01*
X83191101Y-76825292D02*
X83152881Y-76787071D01*
X94333333Y-81954819D02*
X94000000Y-81478628D01*
X93761905Y-81954819D02*
X93761905Y-80954819D01*
X93761905Y-80954819D02*
X94142857Y-80954819D01*
X94142857Y-80954819D02*
X94238095Y-81002438D01*
X94238095Y-81002438D02*
X94285714Y-81050057D01*
X94285714Y-81050057D02*
X94333333Y-81145295D01*
X94333333Y-81145295D02*
X94333333Y-81288152D01*
X94333333Y-81288152D02*
X94285714Y-81383390D01*
X94285714Y-81383390D02*
X94238095Y-81431009D01*
X94238095Y-81431009D02*
X94142857Y-81478628D01*
X94142857Y-81478628D02*
X93761905Y-81478628D01*
X94714286Y-81050057D02*
X94761905Y-81002438D01*
X94761905Y-81002438D02*
X94857143Y-80954819D01*
X94857143Y-80954819D02*
X95095238Y-80954819D01*
X95095238Y-80954819D02*
X95190476Y-81002438D01*
X95190476Y-81002438D02*
X95238095Y-81050057D01*
X95238095Y-81050057D02*
X95285714Y-81145295D01*
X95285714Y-81145295D02*
X95285714Y-81240533D01*
X95285714Y-81240533D02*
X95238095Y-81383390D01*
X95238095Y-81383390D02*
X94666667Y-81954819D01*
X94666667Y-81954819D02*
X95285714Y-81954819D01*
X89833333Y-68317319D02*
X89500000Y-67841128D01*
X89261905Y-68317319D02*
X89261905Y-67317319D01*
X89261905Y-67317319D02*
X89642857Y-67317319D01*
X89642857Y-67317319D02*
X89738095Y-67364938D01*
X89738095Y-67364938D02*
X89785714Y-67412557D01*
X89785714Y-67412557D02*
X89833333Y-67507795D01*
X89833333Y-67507795D02*
X89833333Y-67650652D01*
X89833333Y-67650652D02*
X89785714Y-67745890D01*
X89785714Y-67745890D02*
X89738095Y-67793509D01*
X89738095Y-67793509D02*
X89642857Y-67841128D01*
X89642857Y-67841128D02*
X89261905Y-67841128D01*
X90404762Y-67745890D02*
X90309524Y-67698271D01*
X90309524Y-67698271D02*
X90261905Y-67650652D01*
X90261905Y-67650652D02*
X90214286Y-67555414D01*
X90214286Y-67555414D02*
X90214286Y-67507795D01*
X90214286Y-67507795D02*
X90261905Y-67412557D01*
X90261905Y-67412557D02*
X90309524Y-67364938D01*
X90309524Y-67364938D02*
X90404762Y-67317319D01*
X90404762Y-67317319D02*
X90595238Y-67317319D01*
X90595238Y-67317319D02*
X90690476Y-67364938D01*
X90690476Y-67364938D02*
X90738095Y-67412557D01*
X90738095Y-67412557D02*
X90785714Y-67507795D01*
X90785714Y-67507795D02*
X90785714Y-67555414D01*
X90785714Y-67555414D02*
X90738095Y-67650652D01*
X90738095Y-67650652D02*
X90690476Y-67698271D01*
X90690476Y-67698271D02*
X90595238Y-67745890D01*
X90595238Y-67745890D02*
X90404762Y-67745890D01*
X90404762Y-67745890D02*
X90309524Y-67793509D01*
X90309524Y-67793509D02*
X90261905Y-67841128D01*
X90261905Y-67841128D02*
X90214286Y-67936366D01*
X90214286Y-67936366D02*
X90214286Y-68126842D01*
X90214286Y-68126842D02*
X90261905Y-68222080D01*
X90261905Y-68222080D02*
X90309524Y-68269700D01*
X90309524Y-68269700D02*
X90404762Y-68317319D01*
X90404762Y-68317319D02*
X90595238Y-68317319D01*
X90595238Y-68317319D02*
X90690476Y-68269700D01*
X90690476Y-68269700D02*
X90738095Y-68222080D01*
X90738095Y-68222080D02*
X90785714Y-68126842D01*
X90785714Y-68126842D02*
X90785714Y-67936366D01*
X90785714Y-67936366D02*
X90738095Y-67841128D01*
X90738095Y-67841128D02*
X90690476Y-67793509D01*
X90690476Y-67793509D02*
X90595238Y-67745890D01*
X100954819Y-76833333D02*
X101669104Y-76833333D01*
X101669104Y-76833333D02*
X101811961Y-76880952D01*
X101811961Y-76880952D02*
X101907200Y-76976190D01*
X101907200Y-76976190D02*
X101954819Y-77119047D01*
X101954819Y-77119047D02*
X101954819Y-77214285D01*
X101288152Y-75928571D02*
X101954819Y-75928571D01*
X100907200Y-76166666D02*
X101621485Y-76404761D01*
X101621485Y-76404761D02*
X101621485Y-75785714D01*
X73166666Y-76954819D02*
X73166666Y-77669104D01*
X73166666Y-77669104D02*
X73119047Y-77811961D01*
X73119047Y-77811961D02*
X73023809Y-77907200D01*
X73023809Y-77907200D02*
X72880952Y-77954819D01*
X72880952Y-77954819D02*
X72785714Y-77954819D01*
X73642857Y-77954819D02*
X73642857Y-76954819D01*
X73642857Y-76954819D02*
X74023809Y-76954819D01*
X74023809Y-76954819D02*
X74119047Y-77002438D01*
X74119047Y-77002438D02*
X74166666Y-77050057D01*
X74166666Y-77050057D02*
X74214285Y-77145295D01*
X74214285Y-77145295D02*
X74214285Y-77288152D01*
X74214285Y-77288152D02*
X74166666Y-77383390D01*
X74166666Y-77383390D02*
X74119047Y-77431009D01*
X74119047Y-77431009D02*
X74023809Y-77478628D01*
X74023809Y-77478628D02*
X73642857Y-77478628D01*
X74547619Y-76954819D02*
X75166666Y-76954819D01*
X75166666Y-76954819D02*
X74833333Y-77335771D01*
X74833333Y-77335771D02*
X74976190Y-77335771D01*
X74976190Y-77335771D02*
X75071428Y-77383390D01*
X75071428Y-77383390D02*
X75119047Y-77431009D01*
X75119047Y-77431009D02*
X75166666Y-77526247D01*
X75166666Y-77526247D02*
X75166666Y-77764342D01*
X75166666Y-77764342D02*
X75119047Y-77859580D01*
X75119047Y-77859580D02*
X75071428Y-77907200D01*
X75071428Y-77907200D02*
X74976190Y-77954819D01*
X74976190Y-77954819D02*
X74690476Y-77954819D01*
X74690476Y-77954819D02*
X74595238Y-77907200D01*
X74595238Y-77907200D02*
X74547619Y-77859580D01*
X108454819Y-84833333D02*
X109169104Y-84833333D01*
X109169104Y-84833333D02*
X109311961Y-84880952D01*
X109311961Y-84880952D02*
X109407200Y-84976190D01*
X109407200Y-84976190D02*
X109454819Y-85119047D01*
X109454819Y-85119047D02*
X109454819Y-85214285D01*
X109454819Y-84357142D02*
X108454819Y-84357142D01*
X108454819Y-84357142D02*
X108454819Y-83976190D01*
X108454819Y-83976190D02*
X108502438Y-83880952D01*
X108502438Y-83880952D02*
X108550057Y-83833333D01*
X108550057Y-83833333D02*
X108645295Y-83785714D01*
X108645295Y-83785714D02*
X108788152Y-83785714D01*
X108788152Y-83785714D02*
X108883390Y-83833333D01*
X108883390Y-83833333D02*
X108931009Y-83880952D01*
X108931009Y-83880952D02*
X108978628Y-83976190D01*
X108978628Y-83976190D02*
X108978628Y-84357142D01*
X109454819Y-82833333D02*
X109454819Y-83404761D01*
X109454819Y-83119047D02*
X108454819Y-83119047D01*
X108454819Y-83119047D02*
X108597676Y-83214285D01*
X108597676Y-83214285D02*
X108692914Y-83309523D01*
X108692914Y-83309523D02*
X108740533Y-83404761D01*
X77954819Y-53166666D02*
X77478628Y-53499999D01*
X77954819Y-53738094D02*
X76954819Y-53738094D01*
X76954819Y-53738094D02*
X76954819Y-53357142D01*
X76954819Y-53357142D02*
X77002438Y-53261904D01*
X77002438Y-53261904D02*
X77050057Y-53214285D01*
X77050057Y-53214285D02*
X77145295Y-53166666D01*
X77145295Y-53166666D02*
X77288152Y-53166666D01*
X77288152Y-53166666D02*
X77383390Y-53214285D01*
X77383390Y-53214285D02*
X77431009Y-53261904D01*
X77431009Y-53261904D02*
X77478628Y-53357142D01*
X77478628Y-53357142D02*
X77478628Y-53738094D01*
X76954819Y-52833332D02*
X76954819Y-52166666D01*
X76954819Y-52166666D02*
X77954819Y-52595237D01*
X74859580Y-49166666D02*
X74907200Y-49214285D01*
X74907200Y-49214285D02*
X74954819Y-49357142D01*
X74954819Y-49357142D02*
X74954819Y-49452380D01*
X74954819Y-49452380D02*
X74907200Y-49595237D01*
X74907200Y-49595237D02*
X74811961Y-49690475D01*
X74811961Y-49690475D02*
X74716723Y-49738094D01*
X74716723Y-49738094D02*
X74526247Y-49785713D01*
X74526247Y-49785713D02*
X74383390Y-49785713D01*
X74383390Y-49785713D02*
X74192914Y-49738094D01*
X74192914Y-49738094D02*
X74097676Y-49690475D01*
X74097676Y-49690475D02*
X74002438Y-49595237D01*
X74002438Y-49595237D02*
X73954819Y-49452380D01*
X73954819Y-49452380D02*
X73954819Y-49357142D01*
X73954819Y-49357142D02*
X74002438Y-49214285D01*
X74002438Y-49214285D02*
X74050057Y-49166666D01*
X73954819Y-48833332D02*
X73954819Y-48166666D01*
X73954819Y-48166666D02*
X74954819Y-48595237D01*
X74679580Y-53166666D02*
X74727200Y-53214285D01*
X74727200Y-53214285D02*
X74774819Y-53357142D01*
X74774819Y-53357142D02*
X74774819Y-53452380D01*
X74774819Y-53452380D02*
X74727200Y-53595237D01*
X74727200Y-53595237D02*
X74631961Y-53690475D01*
X74631961Y-53690475D02*
X74536723Y-53738094D01*
X74536723Y-53738094D02*
X74346247Y-53785713D01*
X74346247Y-53785713D02*
X74203390Y-53785713D01*
X74203390Y-53785713D02*
X74012914Y-53738094D01*
X74012914Y-53738094D02*
X73917676Y-53690475D01*
X73917676Y-53690475D02*
X73822438Y-53595237D01*
X73822438Y-53595237D02*
X73774819Y-53452380D01*
X73774819Y-53452380D02*
X73774819Y-53357142D01*
X73774819Y-53357142D02*
X73822438Y-53214285D01*
X73822438Y-53214285D02*
X73870057Y-53166666D01*
X73870057Y-52785713D02*
X73822438Y-52738094D01*
X73822438Y-52738094D02*
X73774819Y-52642856D01*
X73774819Y-52642856D02*
X73774819Y-52404761D01*
X73774819Y-52404761D02*
X73822438Y-52309523D01*
X73822438Y-52309523D02*
X73870057Y-52261904D01*
X73870057Y-52261904D02*
X73965295Y-52214285D01*
X73965295Y-52214285D02*
X74060533Y-52214285D01*
X74060533Y-52214285D02*
X74203390Y-52261904D01*
X74203390Y-52261904D02*
X74774819Y-52833332D01*
X74774819Y-52833332D02*
X74774819Y-52214285D01*
X99166667Y-67407200D02*
X99309524Y-67454819D01*
X99309524Y-67454819D02*
X99547619Y-67454819D01*
X99547619Y-67454819D02*
X99642857Y-67407200D01*
X99642857Y-67407200D02*
X99690476Y-67359580D01*
X99690476Y-67359580D02*
X99738095Y-67264342D01*
X99738095Y-67264342D02*
X99738095Y-67169104D01*
X99738095Y-67169104D02*
X99690476Y-67073866D01*
X99690476Y-67073866D02*
X99642857Y-67026247D01*
X99642857Y-67026247D02*
X99547619Y-66978628D01*
X99547619Y-66978628D02*
X99357143Y-66931009D01*
X99357143Y-66931009D02*
X99261905Y-66883390D01*
X99261905Y-66883390D02*
X99214286Y-66835771D01*
X99214286Y-66835771D02*
X99166667Y-66740533D01*
X99166667Y-66740533D02*
X99166667Y-66645295D01*
X99166667Y-66645295D02*
X99214286Y-66550057D01*
X99214286Y-66550057D02*
X99261905Y-66502438D01*
X99261905Y-66502438D02*
X99357143Y-66454819D01*
X99357143Y-66454819D02*
X99595238Y-66454819D01*
X99595238Y-66454819D02*
X99738095Y-66502438D01*
X100071429Y-66454819D02*
X100309524Y-67454819D01*
X100309524Y-67454819D02*
X100500000Y-66740533D01*
X100500000Y-66740533D02*
X100690476Y-67454819D01*
X100690476Y-67454819D02*
X100928572Y-66454819D01*
X101261905Y-66550057D02*
X101309524Y-66502438D01*
X101309524Y-66502438D02*
X101404762Y-66454819D01*
X101404762Y-66454819D02*
X101642857Y-66454819D01*
X101642857Y-66454819D02*
X101738095Y-66502438D01*
X101738095Y-66502438D02*
X101785714Y-66550057D01*
X101785714Y-66550057D02*
X101833333Y-66645295D01*
X101833333Y-66645295D02*
X101833333Y-66740533D01*
X101833333Y-66740533D02*
X101785714Y-66883390D01*
X101785714Y-66883390D02*
X101214286Y-67454819D01*
X101214286Y-67454819D02*
X101833333Y-67454819D01*
X276738095Y-87654819D02*
X276738095Y-86654819D01*
X276738095Y-87131009D02*
X277309523Y-87131009D01*
X277309523Y-87654819D02*
X277309523Y-86654819D01*
X277690476Y-86654819D02*
X278309523Y-86654819D01*
X278309523Y-86654819D02*
X277976190Y-87035771D01*
X277976190Y-87035771D02*
X278119047Y-87035771D01*
X278119047Y-87035771D02*
X278214285Y-87083390D01*
X278214285Y-87083390D02*
X278261904Y-87131009D01*
X278261904Y-87131009D02*
X278309523Y-87226247D01*
X278309523Y-87226247D02*
X278309523Y-87464342D01*
X278309523Y-87464342D02*
X278261904Y-87559580D01*
X278261904Y-87559580D02*
X278214285Y-87607200D01*
X278214285Y-87607200D02*
X278119047Y-87654819D01*
X278119047Y-87654819D02*
X277833333Y-87654819D01*
X277833333Y-87654819D02*
X277738095Y-87607200D01*
X277738095Y-87607200D02*
X277690476Y-87559580D01*
X89833333Y-77222080D02*
X89785714Y-77269700D01*
X89785714Y-77269700D02*
X89642857Y-77317319D01*
X89642857Y-77317319D02*
X89547619Y-77317319D01*
X89547619Y-77317319D02*
X89404762Y-77269700D01*
X89404762Y-77269700D02*
X89309524Y-77174461D01*
X89309524Y-77174461D02*
X89261905Y-77079223D01*
X89261905Y-77079223D02*
X89214286Y-76888747D01*
X89214286Y-76888747D02*
X89214286Y-76745890D01*
X89214286Y-76745890D02*
X89261905Y-76555414D01*
X89261905Y-76555414D02*
X89309524Y-76460176D01*
X89309524Y-76460176D02*
X89404762Y-76364938D01*
X89404762Y-76364938D02*
X89547619Y-76317319D01*
X89547619Y-76317319D02*
X89642857Y-76317319D01*
X89642857Y-76317319D02*
X89785714Y-76364938D01*
X89785714Y-76364938D02*
X89833333Y-76412557D01*
X90166667Y-76317319D02*
X90785714Y-76317319D01*
X90785714Y-76317319D02*
X90452381Y-76698271D01*
X90452381Y-76698271D02*
X90595238Y-76698271D01*
X90595238Y-76698271D02*
X90690476Y-76745890D01*
X90690476Y-76745890D02*
X90738095Y-76793509D01*
X90738095Y-76793509D02*
X90785714Y-76888747D01*
X90785714Y-76888747D02*
X90785714Y-77126842D01*
X90785714Y-77126842D02*
X90738095Y-77222080D01*
X90738095Y-77222080D02*
X90690476Y-77269700D01*
X90690476Y-77269700D02*
X90595238Y-77317319D01*
X90595238Y-77317319D02*
X90309524Y-77317319D01*
X90309524Y-77317319D02*
X90214286Y-77269700D01*
X90214286Y-77269700D02*
X90166667Y-77222080D01*
X72666667Y-55407200D02*
X72809524Y-55454819D01*
X72809524Y-55454819D02*
X73047619Y-55454819D01*
X73047619Y-55454819D02*
X73142857Y-55407200D01*
X73142857Y-55407200D02*
X73190476Y-55359580D01*
X73190476Y-55359580D02*
X73238095Y-55264342D01*
X73238095Y-55264342D02*
X73238095Y-55169104D01*
X73238095Y-55169104D02*
X73190476Y-55073866D01*
X73190476Y-55073866D02*
X73142857Y-55026247D01*
X73142857Y-55026247D02*
X73047619Y-54978628D01*
X73047619Y-54978628D02*
X72857143Y-54931009D01*
X72857143Y-54931009D02*
X72761905Y-54883390D01*
X72761905Y-54883390D02*
X72714286Y-54835771D01*
X72714286Y-54835771D02*
X72666667Y-54740533D01*
X72666667Y-54740533D02*
X72666667Y-54645295D01*
X72666667Y-54645295D02*
X72714286Y-54550057D01*
X72714286Y-54550057D02*
X72761905Y-54502438D01*
X72761905Y-54502438D02*
X72857143Y-54454819D01*
X72857143Y-54454819D02*
X73095238Y-54454819D01*
X73095238Y-54454819D02*
X73238095Y-54502438D01*
X73571429Y-54454819D02*
X73809524Y-55454819D01*
X73809524Y-55454819D02*
X74000000Y-54740533D01*
X74000000Y-54740533D02*
X74190476Y-55454819D01*
X74190476Y-55454819D02*
X74428572Y-54454819D01*
X75333333Y-55454819D02*
X74761905Y-55454819D01*
X75047619Y-55454819D02*
X75047619Y-54454819D01*
X75047619Y-54454819D02*
X74952381Y-54597676D01*
X74952381Y-54597676D02*
X74857143Y-54692914D01*
X74857143Y-54692914D02*
X74761905Y-54740533D01*
X104117670Y-44759307D02*
X104117670Y-45478620D01*
X104117670Y-45478620D02*
X104069716Y-45622483D01*
X104069716Y-45622483D02*
X103973807Y-45718392D01*
X103973807Y-45718392D02*
X103829945Y-45766346D01*
X103829945Y-45766346D02*
X103734036Y-45766346D01*
X105124709Y-45766346D02*
X104549258Y-45766346D01*
X104836984Y-45766346D02*
X104836984Y-44759307D01*
X104836984Y-44759307D02*
X104741075Y-44903169D01*
X104741075Y-44903169D02*
X104645167Y-44999078D01*
X104645167Y-44999078D02*
X104549258Y-45047032D01*
X89988095Y-52714819D02*
X89988095Y-53524342D01*
X89988095Y-53524342D02*
X90035714Y-53619580D01*
X90035714Y-53619580D02*
X90083333Y-53667200D01*
X90083333Y-53667200D02*
X90178571Y-53714819D01*
X90178571Y-53714819D02*
X90369047Y-53714819D01*
X90369047Y-53714819D02*
X90464285Y-53667200D01*
X90464285Y-53667200D02*
X90511904Y-53619580D01*
X90511904Y-53619580D02*
X90559523Y-53524342D01*
X90559523Y-53524342D02*
X90559523Y-52714819D01*
X90988095Y-52810057D02*
X91035714Y-52762438D01*
X91035714Y-52762438D02*
X91130952Y-52714819D01*
X91130952Y-52714819D02*
X91369047Y-52714819D01*
X91369047Y-52714819D02*
X91464285Y-52762438D01*
X91464285Y-52762438D02*
X91511904Y-52810057D01*
X91511904Y-52810057D02*
X91559523Y-52905295D01*
X91559523Y-52905295D02*
X91559523Y-53000533D01*
X91559523Y-53000533D02*
X91511904Y-53143390D01*
X91511904Y-53143390D02*
X90940476Y-53714819D01*
X90940476Y-53714819D02*
X91559523Y-53714819D01*
X80615700Y-47454819D02*
X80615700Y-47692914D01*
X80377605Y-47597676D02*
X80615700Y-47692914D01*
X80615700Y-47692914D02*
X80853795Y-47597676D01*
X80472843Y-47883390D02*
X80615700Y-47692914D01*
X80615700Y-47692914D02*
X80758557Y-47883390D01*
X80615700Y-47454819D02*
X80615700Y-47692914D01*
X80377605Y-47597676D02*
X80615700Y-47692914D01*
X80615700Y-47692914D02*
X80853795Y-47597676D01*
X80472843Y-47883390D02*
X80615700Y-47692914D01*
X80615700Y-47692914D02*
X80758557Y-47883390D01*
X276738095Y-79704819D02*
X276738095Y-78704819D01*
X276738095Y-79181009D02*
X277309523Y-79181009D01*
X277309523Y-79704819D02*
X277309523Y-78704819D01*
X277738095Y-78800057D02*
X277785714Y-78752438D01*
X277785714Y-78752438D02*
X277880952Y-78704819D01*
X277880952Y-78704819D02*
X278119047Y-78704819D01*
X278119047Y-78704819D02*
X278214285Y-78752438D01*
X278214285Y-78752438D02*
X278261904Y-78800057D01*
X278261904Y-78800057D02*
X278309523Y-78895295D01*
X278309523Y-78895295D02*
X278309523Y-78990533D01*
X278309523Y-78990533D02*
X278261904Y-79133390D01*
X278261904Y-79133390D02*
X277690476Y-79704819D01*
X277690476Y-79704819D02*
X278309523Y-79704819D01*
X81859580Y-78666666D02*
X81907200Y-78714285D01*
X81907200Y-78714285D02*
X81954819Y-78857142D01*
X81954819Y-78857142D02*
X81954819Y-78952380D01*
X81954819Y-78952380D02*
X81907200Y-79095237D01*
X81907200Y-79095237D02*
X81811961Y-79190475D01*
X81811961Y-79190475D02*
X81716723Y-79238094D01*
X81716723Y-79238094D02*
X81526247Y-79285713D01*
X81526247Y-79285713D02*
X81383390Y-79285713D01*
X81383390Y-79285713D02*
X81192914Y-79238094D01*
X81192914Y-79238094D02*
X81097676Y-79190475D01*
X81097676Y-79190475D02*
X81002438Y-79095237D01*
X81002438Y-79095237D02*
X80954819Y-78952380D01*
X80954819Y-78952380D02*
X80954819Y-78857142D01*
X80954819Y-78857142D02*
X81002438Y-78714285D01*
X81002438Y-78714285D02*
X81050057Y-78666666D01*
X81383390Y-78095237D02*
X81335771Y-78190475D01*
X81335771Y-78190475D02*
X81288152Y-78238094D01*
X81288152Y-78238094D02*
X81192914Y-78285713D01*
X81192914Y-78285713D02*
X81145295Y-78285713D01*
X81145295Y-78285713D02*
X81050057Y-78238094D01*
X81050057Y-78238094D02*
X81002438Y-78190475D01*
X81002438Y-78190475D02*
X80954819Y-78095237D01*
X80954819Y-78095237D02*
X80954819Y-77904761D01*
X80954819Y-77904761D02*
X81002438Y-77809523D01*
X81002438Y-77809523D02*
X81050057Y-77761904D01*
X81050057Y-77761904D02*
X81145295Y-77714285D01*
X81145295Y-77714285D02*
X81192914Y-77714285D01*
X81192914Y-77714285D02*
X81288152Y-77761904D01*
X81288152Y-77761904D02*
X81335771Y-77809523D01*
X81335771Y-77809523D02*
X81383390Y-77904761D01*
X81383390Y-77904761D02*
X81383390Y-78095237D01*
X81383390Y-78095237D02*
X81431009Y-78190475D01*
X81431009Y-78190475D02*
X81478628Y-78238094D01*
X81478628Y-78238094D02*
X81573866Y-78285713D01*
X81573866Y-78285713D02*
X81764342Y-78285713D01*
X81764342Y-78285713D02*
X81859580Y-78238094D01*
X81859580Y-78238094D02*
X81907200Y-78190475D01*
X81907200Y-78190475D02*
X81954819Y-78095237D01*
X81954819Y-78095237D02*
X81954819Y-77904761D01*
X81954819Y-77904761D02*
X81907200Y-77809523D01*
X81907200Y-77809523D02*
X81859580Y-77761904D01*
X81859580Y-77761904D02*
X81764342Y-77714285D01*
X81764342Y-77714285D02*
X81573866Y-77714285D01*
X81573866Y-77714285D02*
X81478628Y-77761904D01*
X81478628Y-77761904D02*
X81431009Y-77809523D01*
X81431009Y-77809523D02*
X81383390Y-77904761D01*
X276738095Y-71754819D02*
X276738095Y-70754819D01*
X276738095Y-71231009D02*
X277309523Y-71231009D01*
X277309523Y-71754819D02*
X277309523Y-70754819D01*
X278309523Y-71754819D02*
X277738095Y-71754819D01*
X278023809Y-71754819D02*
X278023809Y-70754819D01*
X278023809Y-70754819D02*
X277928571Y-70897676D01*
X277928571Y-70897676D02*
X277833333Y-70992914D01*
X277833333Y-70992914D02*
X277738095Y-71040533D01*
X76738095Y-70954819D02*
X77309523Y-70954819D01*
X77023809Y-71954819D02*
X77023809Y-70954819D01*
X77642857Y-71954819D02*
X77642857Y-70954819D01*
X77642857Y-70954819D02*
X78023809Y-70954819D01*
X78023809Y-70954819D02*
X78119047Y-71002438D01*
X78119047Y-71002438D02*
X78166666Y-71050057D01*
X78166666Y-71050057D02*
X78214285Y-71145295D01*
X78214285Y-71145295D02*
X78214285Y-71288152D01*
X78214285Y-71288152D02*
X78166666Y-71383390D01*
X78166666Y-71383390D02*
X78119047Y-71431009D01*
X78119047Y-71431009D02*
X78023809Y-71478628D01*
X78023809Y-71478628D02*
X77642857Y-71478628D01*
X79166666Y-71954819D02*
X78595238Y-71954819D01*
X78880952Y-71954819D02*
X78880952Y-70954819D01*
X78880952Y-70954819D02*
X78785714Y-71097676D01*
X78785714Y-71097676D02*
X78690476Y-71192914D01*
X78690476Y-71192914D02*
X78595238Y-71240533D01*
X97550057Y-80095238D02*
X97502438Y-80190476D01*
X97502438Y-80190476D02*
X97407200Y-80285714D01*
X97407200Y-80285714D02*
X97264342Y-80428571D01*
X97264342Y-80428571D02*
X97216723Y-80523809D01*
X97216723Y-80523809D02*
X97216723Y-80619047D01*
X97454819Y-80571428D02*
X97407200Y-80666666D01*
X97407200Y-80666666D02*
X97311961Y-80761904D01*
X97311961Y-80761904D02*
X97121485Y-80809523D01*
X97121485Y-80809523D02*
X96788152Y-80809523D01*
X96788152Y-80809523D02*
X96597676Y-80761904D01*
X96597676Y-80761904D02*
X96502438Y-80666666D01*
X96502438Y-80666666D02*
X96454819Y-80571428D01*
X96454819Y-80571428D02*
X96454819Y-80380952D01*
X96454819Y-80380952D02*
X96502438Y-80285714D01*
X96502438Y-80285714D02*
X96597676Y-80190476D01*
X96597676Y-80190476D02*
X96788152Y-80142857D01*
X96788152Y-80142857D02*
X97121485Y-80142857D01*
X97121485Y-80142857D02*
X97311961Y-80190476D01*
X97311961Y-80190476D02*
X97407200Y-80285714D01*
X97407200Y-80285714D02*
X97454819Y-80380952D01*
X97454819Y-80380952D02*
X97454819Y-80571428D01*
X97454819Y-79190476D02*
X97454819Y-79761904D01*
X97454819Y-79476190D02*
X96454819Y-79476190D01*
X96454819Y-79476190D02*
X96597676Y-79571428D01*
X96597676Y-79571428D02*
X96692914Y-79666666D01*
X96692914Y-79666666D02*
X96740533Y-79761904D01*
X92454819Y-78666666D02*
X91978628Y-78999999D01*
X92454819Y-79238094D02*
X91454819Y-79238094D01*
X91454819Y-79238094D02*
X91454819Y-78857142D01*
X91454819Y-78857142D02*
X91502438Y-78761904D01*
X91502438Y-78761904D02*
X91550057Y-78714285D01*
X91550057Y-78714285D02*
X91645295Y-78666666D01*
X91645295Y-78666666D02*
X91788152Y-78666666D01*
X91788152Y-78666666D02*
X91883390Y-78714285D01*
X91883390Y-78714285D02*
X91931009Y-78761904D01*
X91931009Y-78761904D02*
X91978628Y-78857142D01*
X91978628Y-78857142D02*
X91978628Y-79238094D01*
X91454819Y-77809523D02*
X91454819Y-77999999D01*
X91454819Y-77999999D02*
X91502438Y-78095237D01*
X91502438Y-78095237D02*
X91550057Y-78142856D01*
X91550057Y-78142856D02*
X91692914Y-78238094D01*
X91692914Y-78238094D02*
X91883390Y-78285713D01*
X91883390Y-78285713D02*
X92264342Y-78285713D01*
X92264342Y-78285713D02*
X92359580Y-78238094D01*
X92359580Y-78238094D02*
X92407200Y-78190475D01*
X92407200Y-78190475D02*
X92454819Y-78095237D01*
X92454819Y-78095237D02*
X92454819Y-77904761D01*
X92454819Y-77904761D02*
X92407200Y-77809523D01*
X92407200Y-77809523D02*
X92359580Y-77761904D01*
X92359580Y-77761904D02*
X92264342Y-77714285D01*
X92264342Y-77714285D02*
X92026247Y-77714285D01*
X92026247Y-77714285D02*
X91931009Y-77761904D01*
X91931009Y-77761904D02*
X91883390Y-77809523D01*
X91883390Y-77809523D02*
X91835771Y-77904761D01*
X91835771Y-77904761D02*
X91835771Y-78095237D01*
X91835771Y-78095237D02*
X91883390Y-78190475D01*
X91883390Y-78190475D02*
X91931009Y-78238094D01*
X91931009Y-78238094D02*
X92026247Y-78285713D01*
X93454819Y-84333333D02*
X94169104Y-84333333D01*
X94169104Y-84333333D02*
X94311961Y-84380952D01*
X94311961Y-84380952D02*
X94407200Y-84476190D01*
X94407200Y-84476190D02*
X94454819Y-84619047D01*
X94454819Y-84619047D02*
X94454819Y-84714285D01*
X93550057Y-83904761D02*
X93502438Y-83857142D01*
X93502438Y-83857142D02*
X93454819Y-83761904D01*
X93454819Y-83761904D02*
X93454819Y-83523809D01*
X93454819Y-83523809D02*
X93502438Y-83428571D01*
X93502438Y-83428571D02*
X93550057Y-83380952D01*
X93550057Y-83380952D02*
X93645295Y-83333333D01*
X93645295Y-83333333D02*
X93740533Y-83333333D01*
X93740533Y-83333333D02*
X93883390Y-83380952D01*
X93883390Y-83380952D02*
X94454819Y-83952380D01*
X94454819Y-83952380D02*
X94454819Y-83333333D01*
X276738095Y-95604819D02*
X276738095Y-94604819D01*
X276738095Y-95081009D02*
X277309523Y-95081009D01*
X277309523Y-95604819D02*
X277309523Y-94604819D01*
X278214285Y-94938152D02*
X278214285Y-95604819D01*
X277976190Y-94557200D02*
X277738095Y-95271485D01*
X277738095Y-95271485D02*
X278357142Y-95271485D01*
X97042319Y-77166666D02*
X96566128Y-77499999D01*
X97042319Y-77738094D02*
X96042319Y-77738094D01*
X96042319Y-77738094D02*
X96042319Y-77357142D01*
X96042319Y-77357142D02*
X96089938Y-77261904D01*
X96089938Y-77261904D02*
X96137557Y-77214285D01*
X96137557Y-77214285D02*
X96232795Y-77166666D01*
X96232795Y-77166666D02*
X96375652Y-77166666D01*
X96375652Y-77166666D02*
X96470890Y-77214285D01*
X96470890Y-77214285D02*
X96518509Y-77261904D01*
X96518509Y-77261904D02*
X96566128Y-77357142D01*
X96566128Y-77357142D02*
X96566128Y-77738094D01*
X96042319Y-76261904D02*
X96042319Y-76738094D01*
X96042319Y-76738094D02*
X96518509Y-76785713D01*
X96518509Y-76785713D02*
X96470890Y-76738094D01*
X96470890Y-76738094D02*
X96423271Y-76642856D01*
X96423271Y-76642856D02*
X96423271Y-76404761D01*
X96423271Y-76404761D02*
X96470890Y-76309523D01*
X96470890Y-76309523D02*
X96518509Y-76261904D01*
X96518509Y-76261904D02*
X96613747Y-76214285D01*
X96613747Y-76214285D02*
X96851842Y-76214285D01*
X96851842Y-76214285D02*
X96947080Y-76261904D01*
X96947080Y-76261904D02*
X96994700Y-76309523D01*
X96994700Y-76309523D02*
X97042319Y-76404761D01*
X97042319Y-76404761D02*
X97042319Y-76642856D01*
X97042319Y-76642856D02*
X96994700Y-76738094D01*
X96994700Y-76738094D02*
X96947080Y-76785713D01*
X92550057Y-82032738D02*
X92502438Y-82127976D01*
X92502438Y-82127976D02*
X92407200Y-82223214D01*
X92407200Y-82223214D02*
X92264342Y-82366071D01*
X92264342Y-82366071D02*
X92216723Y-82461309D01*
X92216723Y-82461309D02*
X92216723Y-82556547D01*
X92454819Y-82508928D02*
X92407200Y-82604166D01*
X92407200Y-82604166D02*
X92311961Y-82699404D01*
X92311961Y-82699404D02*
X92121485Y-82747023D01*
X92121485Y-82747023D02*
X91788152Y-82747023D01*
X91788152Y-82747023D02*
X91597676Y-82699404D01*
X91597676Y-82699404D02*
X91502438Y-82604166D01*
X91502438Y-82604166D02*
X91454819Y-82508928D01*
X91454819Y-82508928D02*
X91454819Y-82318452D01*
X91454819Y-82318452D02*
X91502438Y-82223214D01*
X91502438Y-82223214D02*
X91597676Y-82127976D01*
X91597676Y-82127976D02*
X91788152Y-82080357D01*
X91788152Y-82080357D02*
X92121485Y-82080357D01*
X92121485Y-82080357D02*
X92311961Y-82127976D01*
X92311961Y-82127976D02*
X92407200Y-82223214D01*
X92407200Y-82223214D02*
X92454819Y-82318452D01*
X92454819Y-82318452D02*
X92454819Y-82508928D01*
X91550057Y-81699404D02*
X91502438Y-81651785D01*
X91502438Y-81651785D02*
X91454819Y-81556547D01*
X91454819Y-81556547D02*
X91454819Y-81318452D01*
X91454819Y-81318452D02*
X91502438Y-81223214D01*
X91502438Y-81223214D02*
X91550057Y-81175595D01*
X91550057Y-81175595D02*
X91645295Y-81127976D01*
X91645295Y-81127976D02*
X91740533Y-81127976D01*
X91740533Y-81127976D02*
X91883390Y-81175595D01*
X91883390Y-81175595D02*
X92454819Y-81747023D01*
X92454819Y-81747023D02*
X92454819Y-81127976D01*
X86833333Y-72259580D02*
X86785714Y-72307200D01*
X86785714Y-72307200D02*
X86642857Y-72354819D01*
X86642857Y-72354819D02*
X86547619Y-72354819D01*
X86547619Y-72354819D02*
X86404762Y-72307200D01*
X86404762Y-72307200D02*
X86309524Y-72211961D01*
X86309524Y-72211961D02*
X86261905Y-72116723D01*
X86261905Y-72116723D02*
X86214286Y-71926247D01*
X86214286Y-71926247D02*
X86214286Y-71783390D01*
X86214286Y-71783390D02*
X86261905Y-71592914D01*
X86261905Y-71592914D02*
X86309524Y-71497676D01*
X86309524Y-71497676D02*
X86404762Y-71402438D01*
X86404762Y-71402438D02*
X86547619Y-71354819D01*
X86547619Y-71354819D02*
X86642857Y-71354819D01*
X86642857Y-71354819D02*
X86785714Y-71402438D01*
X86785714Y-71402438D02*
X86833333Y-71450057D01*
X87785714Y-72354819D02*
X87214286Y-72354819D01*
X87500000Y-72354819D02*
X87500000Y-71354819D01*
X87500000Y-71354819D02*
X87404762Y-71497676D01*
X87404762Y-71497676D02*
X87309524Y-71592914D01*
X87309524Y-71592914D02*
X87214286Y-71640533D01*
X73166666Y-71954819D02*
X73166666Y-72669104D01*
X73166666Y-72669104D02*
X73119047Y-72811961D01*
X73119047Y-72811961D02*
X73023809Y-72907200D01*
X73023809Y-72907200D02*
X72880952Y-72954819D01*
X72880952Y-72954819D02*
X72785714Y-72954819D01*
X73642857Y-72954819D02*
X73642857Y-71954819D01*
X73642857Y-71954819D02*
X74023809Y-71954819D01*
X74023809Y-71954819D02*
X74119047Y-72002438D01*
X74119047Y-72002438D02*
X74166666Y-72050057D01*
X74166666Y-72050057D02*
X74214285Y-72145295D01*
X74214285Y-72145295D02*
X74214285Y-72288152D01*
X74214285Y-72288152D02*
X74166666Y-72383390D01*
X74166666Y-72383390D02*
X74119047Y-72431009D01*
X74119047Y-72431009D02*
X74023809Y-72478628D01*
X74023809Y-72478628D02*
X73642857Y-72478628D01*
X74595238Y-72050057D02*
X74642857Y-72002438D01*
X74642857Y-72002438D02*
X74738095Y-71954819D01*
X74738095Y-71954819D02*
X74976190Y-71954819D01*
X74976190Y-71954819D02*
X75071428Y-72002438D01*
X75071428Y-72002438D02*
X75119047Y-72050057D01*
X75119047Y-72050057D02*
X75166666Y-72145295D01*
X75166666Y-72145295D02*
X75166666Y-72240533D01*
X75166666Y-72240533D02*
X75119047Y-72383390D01*
X75119047Y-72383390D02*
X74547619Y-72954819D01*
X74547619Y-72954819D02*
X75166666Y-72954819D01*
X87454819Y-75761904D02*
X87454819Y-75190476D01*
X88454819Y-75476190D02*
X87454819Y-75476190D01*
X88454819Y-74857142D02*
X87454819Y-74857142D01*
X87454819Y-74857142D02*
X87454819Y-74476190D01*
X87454819Y-74476190D02*
X87502438Y-74380952D01*
X87502438Y-74380952D02*
X87550057Y-74333333D01*
X87550057Y-74333333D02*
X87645295Y-74285714D01*
X87645295Y-74285714D02*
X87788152Y-74285714D01*
X87788152Y-74285714D02*
X87883390Y-74333333D01*
X87883390Y-74333333D02*
X87931009Y-74380952D01*
X87931009Y-74380952D02*
X87978628Y-74476190D01*
X87978628Y-74476190D02*
X87978628Y-74857142D01*
X87550057Y-73904761D02*
X87502438Y-73857142D01*
X87502438Y-73857142D02*
X87454819Y-73761904D01*
X87454819Y-73761904D02*
X87454819Y-73523809D01*
X87454819Y-73523809D02*
X87502438Y-73428571D01*
X87502438Y-73428571D02*
X87550057Y-73380952D01*
X87550057Y-73380952D02*
X87645295Y-73333333D01*
X87645295Y-73333333D02*
X87740533Y-73333333D01*
X87740533Y-73333333D02*
X87883390Y-73380952D01*
X87883390Y-73380952D02*
X88454819Y-73952380D01*
X88454819Y-73952380D02*
X88454819Y-73333333D01*
D12*
%TO.C,C4*%
X83735000Y-69188748D02*
X83735000Y-69711252D01*
X85205000Y-69188748D02*
X85205000Y-69711252D01*
%TO.C,J3*%
X73115000Y-90465000D02*
X73115000Y-91205000D01*
X73115000Y-91205000D02*
X73615000Y-91205000D01*
X73355000Y-81044000D02*
X73355000Y-90965000D01*
X73355000Y-81044000D02*
X83635000Y-81044000D01*
X73355000Y-84004000D02*
X83635000Y-84004000D01*
X73355000Y-88905000D02*
X83635000Y-88905000D01*
X73355000Y-90405000D02*
X83635000Y-90405000D01*
X73355000Y-90965000D02*
X83635000Y-90965000D01*
X79808000Y-87328000D02*
X79761000Y-87374000D01*
X80001000Y-87544000D02*
X79966000Y-87579000D01*
X82105000Y-85030000D02*
X82070000Y-85066000D01*
X82310000Y-85236000D02*
X82263000Y-85282000D01*
X83635000Y-81044000D02*
X83635000Y-90965000D01*
X74419574Y-86988042D02*
G75*
G02*
X74420001Y-85621001I1535419J683041D01*
G01*
X75271958Y-84769574D02*
G75*
G02*
X76638999Y-84770001I683041J-1535419D01*
G01*
X75983805Y-87985252D02*
G75*
G02*
X75271000Y-87839999I-28806J1680253D01*
G01*
X76638318Y-87839755D02*
G75*
G02*
X75955000Y-87984999I-683318J1534755D01*
G01*
X77490426Y-85621958D02*
G75*
G02*
X77490000Y-86989000I-1535426J-683042D01*
G01*
X82715000Y-86305000D02*
G75*
G02*
X79355000Y-86305000I-1680000J0D01*
G01*
X79355000Y-86305000D02*
G75*
G02*
X82715000Y-86305000I1680000J0D01*
G01*
%TO.C,C5*%
X81265000Y-69188748D02*
X81265000Y-69711252D01*
X82735000Y-69188748D02*
X82735000Y-69711252D01*
%TO.C,C6*%
X78265000Y-49211252D02*
X78265000Y-48688748D01*
X79735000Y-49211252D02*
X79735000Y-48688748D01*
%TO.C,R3*%
X94227064Y-76265000D02*
X93772936Y-76265000D01*
X94227064Y-77735000D02*
X93772936Y-77735000D01*
%TO.C,R1*%
X77727064Y-68765000D02*
X77272936Y-68765000D01*
X77727064Y-70235000D02*
X77272936Y-70235000D01*
%TO.C,R4*%
X77727064Y-66265000D02*
X77272936Y-66265000D01*
X77727064Y-67735000D02*
X77272936Y-67735000D01*
%TO.C,C9*%
X76265000Y-78761252D02*
X76265000Y-78238748D01*
X77735000Y-78761252D02*
X77735000Y-78238748D01*
D13*
%TO.C,U3*%
X83650000Y-76950000D02*
X83650000Y-77050000D01*
X83650000Y-76950000D02*
X85350000Y-76950000D01*
X83650000Y-80050000D02*
X83650000Y-79950000D01*
X83650000Y-80050000D02*
X85350000Y-80050000D01*
X85350000Y-76950000D02*
X85350000Y-77050000D01*
X85350000Y-80050000D02*
X85350000Y-79950000D01*
D14*
X87069000Y-79450000D02*
G75*
G02*
X86869000Y-79450000I-100000J0D01*
G01*
X86869000Y-79450000D02*
G75*
G02*
X87069000Y-79450000I100000J0D01*
G01*
D12*
%TO.C,R2*%
X94272936Y-79265000D02*
X94727064Y-79265000D01*
X94272936Y-80735000D02*
X94727064Y-80735000D01*
%TO.C,R8*%
X89265000Y-70185436D02*
X89265000Y-70639564D01*
X90735000Y-70185436D02*
X90735000Y-70639564D01*
%TO.C,J4*%
X102670000Y-60630000D02*
X111790000Y-60630000D01*
X102670000Y-81210000D02*
X102670000Y-60630000D01*
X103980000Y-61930000D02*
X110480000Y-61930000D01*
X103980000Y-79910000D02*
X103980000Y-61930000D01*
X110480000Y-61930000D02*
X110480000Y-68870000D01*
X110480000Y-68870000D02*
X110480000Y-68870000D01*
X110480000Y-68870000D02*
X111790000Y-68870000D01*
X110480000Y-72970000D02*
X110480000Y-79910000D01*
X110480000Y-79910000D02*
X103980000Y-79910000D01*
X111790000Y-60630000D02*
X111790000Y-81210000D01*
X111790000Y-72970000D02*
X110480000Y-72970000D01*
X111790000Y-81210000D02*
X102670000Y-81210000D01*
X112180000Y-76000000D02*
X113180000Y-76500000D01*
X113180000Y-75500000D02*
X112180000Y-76000000D01*
X113180000Y-76500000D02*
X113180000Y-75500000D01*
%TO.C,JP3*%
X73000000Y-73600000D02*
X75000000Y-73600000D01*
X73000000Y-76400000D02*
X73000000Y-73600000D01*
X75000000Y-73600000D02*
X75000000Y-76400000D01*
X75000000Y-76400000D02*
X73000000Y-76400000D01*
%TO.C,JP1*%
X110000000Y-82600000D02*
X112000000Y-82600000D01*
X110000000Y-85400000D02*
X110000000Y-82600000D01*
X112000000Y-82600000D02*
X112000000Y-85400000D01*
X112000000Y-85400000D02*
X110000000Y-85400000D01*
%TO.C,R7*%
X78265000Y-52772936D02*
X78265000Y-53227064D01*
X79735000Y-52772936D02*
X79735000Y-53227064D01*
%TO.C,C7*%
X75265000Y-49261252D02*
X75265000Y-48738748D01*
X76735000Y-49261252D02*
X76735000Y-48738748D01*
%TO.C,C2*%
X75265000Y-53261252D02*
X75265000Y-52738748D01*
X76735000Y-53261252D02*
X76735000Y-52738748D01*
%TO.C,SW2*%
X93350000Y-68050000D02*
X99650000Y-68050000D01*
X93350000Y-68300000D02*
X93350000Y-68050000D01*
X93350000Y-72800000D02*
X93350000Y-70200000D01*
X93350000Y-74950000D02*
X93350000Y-74700000D01*
X99650000Y-68050000D02*
X99650000Y-68300000D01*
X99650000Y-70200000D02*
X99650000Y-72800000D01*
X99650000Y-74700000D02*
X99650000Y-74950000D01*
X99650000Y-74950000D02*
X93350000Y-74950000D01*
%TO.C,C3*%
X89265000Y-74151248D02*
X89265000Y-74673752D01*
X90735000Y-74151248D02*
X90735000Y-74673752D01*
%TO.C,SW1*%
X72800000Y-57325000D02*
X73050000Y-57325000D01*
X72800000Y-63625000D02*
X72800000Y-57325000D01*
X73050000Y-63625000D02*
X72800000Y-63625000D01*
X74950000Y-57325000D02*
X77550000Y-57325000D01*
X77550000Y-63625000D02*
X74950000Y-63625000D01*
X79450000Y-57325000D02*
X79700000Y-57325000D01*
X79700000Y-57325000D02*
X79700000Y-63625000D01*
X79700000Y-63625000D02*
X79450000Y-63625000D01*
D13*
%TO.C,J1*%
X102000000Y-47000000D02*
X102000000Y-60000000D01*
X102000000Y-60000000D02*
X112000000Y-60000000D01*
X105635000Y-47000000D02*
X102000000Y-47000000D01*
X112000000Y-47000000D02*
X108365000Y-47000000D01*
X112000000Y-60000000D02*
X112000000Y-47000000D01*
D15*
X107100000Y-60651000D02*
G75*
G02*
X106900000Y-60651000I-100000J0D01*
G01*
X106900000Y-60651000D02*
G75*
G02*
X107100000Y-60651000I100000J0D01*
G01*
D16*
%TO.C,U2*%
X81618700Y-40382200D02*
X99881300Y-40382200D01*
X81618700Y-47222760D02*
X81618700Y-40382200D01*
X81618700Y-66137800D02*
X81618700Y-65287240D01*
X82987760Y-66137800D02*
X81618700Y-66137800D01*
X99881300Y-40382200D02*
X99881300Y-47222760D01*
X99881300Y-65287240D02*
X99881300Y-66137800D01*
X99881300Y-66137800D02*
X98512240Y-66137800D01*
D12*
%TO.C,C8*%
X79265000Y-78761252D02*
X79265000Y-78238748D01*
X80735000Y-78761252D02*
X80735000Y-78238748D01*
D11*
%TO.C,TP1*%
X79750000Y-74000000D02*
G75*
G02*
X76250000Y-74000000I-1750000J0D01*
G01*
X76250000Y-74000000D02*
G75*
G02*
X79750000Y-74000000I1750000J0D01*
G01*
D12*
%TO.C,Q1*%
X99437500Y-78490000D02*
X98787500Y-78490000D01*
X99437500Y-78490000D02*
X100087500Y-78490000D01*
X99437500Y-81610000D02*
X98787500Y-81610000D01*
X99437500Y-81610000D02*
X100087500Y-81610000D01*
X98275000Y-78540000D02*
X98035000Y-78210000D01*
X98515000Y-78210000D01*
X98275000Y-78540000D01*
G36*
X98275000Y-78540000D02*
G01*
X98035000Y-78210000D01*
X98515000Y-78210000D01*
X98275000Y-78540000D01*
G37*
%TO.C,R6*%
X89727064Y-77765000D02*
X89272936Y-77765000D01*
X89727064Y-79235000D02*
X89272936Y-79235000D01*
%TO.C,J2*%
X95050000Y-85330000D02*
X95050000Y-84000000D01*
X96380000Y-85330000D02*
X95050000Y-85330000D01*
X97650000Y-82670000D02*
X107870000Y-82670000D01*
X97650000Y-85330000D02*
X97650000Y-82670000D01*
X97650000Y-85330000D02*
X107870000Y-85330000D01*
X107870000Y-85330000D02*
X107870000Y-82670000D01*
%TO.C,R5*%
X99314564Y-76265000D02*
X98860436Y-76265000D01*
X99314564Y-77735000D02*
X98860436Y-77735000D01*
%TO.C,Q2*%
X89562500Y-80440000D02*
X88912500Y-80440000D01*
X89562500Y-80440000D02*
X90212500Y-80440000D01*
X89562500Y-83560000D02*
X88912500Y-83560000D01*
X89562500Y-83560000D02*
X90212500Y-83560000D01*
X88400000Y-80490000D02*
X88160000Y-80160000D01*
X88640000Y-80160000D01*
X88400000Y-80490000D01*
G36*
X88400000Y-80490000D02*
G01*
X88160000Y-80160000D01*
X88640000Y-80160000D01*
X88400000Y-80490000D01*
G37*
%TO.C,C1*%
X86265000Y-69188748D02*
X86265000Y-69711252D01*
X87735000Y-69188748D02*
X87735000Y-69711252D01*
%TO.C,JP2*%
X72500000Y-67300000D02*
X72500000Y-67900000D01*
X72500000Y-67900000D02*
X72800000Y-67600000D01*
X72800000Y-67600000D02*
X72500000Y-67300000D01*
X73050000Y-66250000D02*
X75000000Y-66250000D01*
X73050000Y-71750000D02*
X73050000Y-66250000D01*
X75000000Y-66250000D02*
X75000000Y-71750000D01*
X75000000Y-71750000D02*
X73050000Y-71750000D01*
D11*
%TO.C,TP2*%
X87250000Y-74500000D02*
G75*
G02*
X83750000Y-74500000I-1750000J0D01*
G01*
X83750000Y-74500000D02*
G75*
G02*
X87250000Y-74500000I1750000J0D01*
G01*
%TD*%
M02*
