M48
; DRILL file {KiCad 8.0.1} date 2024-04-01T15:33:29-0500
; FORMAT={-:-/ absolute / inch / decimal}
; #@! TF.CreationDate,2024-04-01T15:33:29-05:00
; #@! TF.GenerationSoftware,Kicad,Pcbnew,8.0.1
; #@! TF.FileFunction,MixedPlating,1,2
FMAT,2
INCH
; #@! TA.AperFunction,Plated,PTH,ViaDrill
T1C0.0118
; #@! TA.AperFunction,Plated,PTH,ComponentDrill
T2C0.0394
; #@! TA.AperFunction,Plated,PTH,ComponentDrill
T3C0.0512
; #@! TA.AperFunction,Plated,PTH,ComponentDrill
T4C0.0630
; #@! TA.AperFunction,NonPlated,NPTH,ComponentDrill
T5C0.1260
%
G90
G05
T1
X2.8937Y-2.5984
X2.9331Y-1.8898
X2.9429Y-2.0472
X2.9429Y-2.5984
X2.9724Y-2.9134
X3.0512Y-1.8898
X3.0512Y-2.0472
X3.0512Y-2.3228
X3.0512Y-2.3819
X3.0512Y-2.4409
X3.0906Y-2.687
X3.1102Y-2.3228
X3.1102Y-2.3819
X3.1102Y-2.4409
X3.1102Y-3.1988
X3.1102Y-3.2382
X3.119Y-2.0824
X3.1496Y-3.1988
X3.1496Y-3.2382
X3.1693Y-1.8898
X3.189Y-3.1988
X3.189Y-3.2382
X3.1988Y-2.8543
X3.1988Y-2.8937
X3.1988Y-2.9331
X3.1988Y-2.9724
X3.2283Y-3.1988
X3.2283Y-3.2382
X3.2382Y-2.8543
X3.2382Y-2.8937
X3.2382Y-2.9331
X3.2382Y-2.9724
X3.2874Y-1.8898
X3.3268Y-3.0906
X3.4055Y-2.1457
X3.4055Y-2.185
X3.4055Y-2.2244
X3.4055Y-2.2638
X3.4646Y-2.0866
X3.4646Y-2.3031
X3.5013Y-2.781
X3.5039Y-2.0866
X3.5236Y-2.3031
X3.5433Y-2.0866
X3.563Y-2.3031
X3.5827Y-2.0866
X3.6024Y-2.3031
X3.6417Y-2.126
X3.6417Y-2.1654
X3.6417Y-2.2047
X3.6417Y-2.2441
X3.75Y-2.7756
X3.75Y-2.815
X3.75Y-2.8543
X3.7697Y-3.3781
X3.7894Y-2.7756
X3.7894Y-2.815
X3.7894Y-2.8543
X3.8287Y-2.7756
X3.8287Y-2.815
X3.8287Y-2.8543
X3.8583Y-1.8898
X3.8681Y-2.5295
X3.8976Y-2.9035
X3.9567Y-2.8543
X3.9567Y-2.9528
X3.9764Y-1.8898
X3.9862Y-2.7756
X4.0157Y-2.9035
X4.018Y-2.7438
X4.0209Y-2.6179
X4.0354Y-2.1457
X4.0404Y-2.225
X4.0447Y-2.7958
X4.0456Y-2.6423
X4.067Y-2.8181
X4.0703Y-2.6673
X4.1634Y-3.1791
X4.1634Y-3.2185
X4.1732Y-2.3917
X4.1732Y-2.4311
X4.1732Y-2.4705
X4.2028Y-3.1791
X4.2028Y-3.2185
X4.2126Y-2.3917
X4.2126Y-2.4311
X4.2126Y-2.4705
X4.2421Y-3.1791
X4.2421Y-3.2185
X4.252Y-2.3917
X4.252Y-2.4311
X4.252Y-2.4705
X4.2815Y-3.1791
X4.2815Y-3.2185
T2
X3.7945Y-3.3071
X3.8945Y-3.3071
X3.9945Y-3.3071
X4.0945Y-3.3071
X4.1717Y-2.5921
X4.1717Y-2.6921
X4.1717Y-2.7921
X4.1717Y-2.8921
X4.1717Y-2.9921
X4.1945Y-3.3071
X4.2717Y-2.5921
X4.2717Y-2.6921
X4.2717Y-2.7921
X4.2717Y-2.8921
X4.2717Y-2.9921
T3
X2.9904Y-3.3978
X3.1904Y-3.3978
T4
X3.0709Y-2.9134
X3.3661Y-2.9331
T5
X10.9252Y-2.9724
X10.9252Y-3.2854
X10.9252Y-3.5984
X10.9252Y-3.9114
T2
G00X4.2126Y-1.8878
M15
G01X4.2126Y-1.9469
M16
G05
T3
G00X4.189Y-2.2598
M15
G01X4.2362Y-2.2598
M16
G05
M30
