%TF.GenerationSoftware,KiCad,Pcbnew,8.0.1*%
%TF.CreationDate,2024-04-01T15:32:46-05:00*%
%TF.ProjectId,ece445_headset,65636534-3435-45f6-9865-61647365742e,rev?*%
%TF.SameCoordinates,Original*%
%TF.FileFunction,Copper,L2,Bot*%
%TF.FilePolarity,Positive*%
%FSLAX46Y46*%
G04 Gerber Fmt 4.6, Leading zero omitted, Abs format (unit mm)*
G04 Created by KiCad (PCBNEW 8.0.1) date 2024-04-01 15:32:46*
%MOMM*%
%LPD*%
G01*
G04 APERTURE LIST*
G04 Aperture macros list*
%AMRoundRect*
0 Rectangle with rounded corners*
0 $1 Rounding radius*
0 $2 $3 $4 $5 $6 $7 $8 $9 X,Y pos of 4 corners*
0 Add a 4 corners polygon primitive as box body*
4,1,4,$2,$3,$4,$5,$6,$7,$8,$9,$2,$3,0*
0 Add four circle primitives for the rounded corners*
1,1,$1+$1,$2,$3*
1,1,$1+$1,$4,$5*
1,1,$1+$1,$6,$7*
1,1,$1+$1,$8,$9*
0 Add four rect primitives between the rounded corners*
20,1,$1+$1,$2,$3,$4,$5,0*
20,1,$1+$1,$4,$5,$6,$7,0*
20,1,$1+$1,$6,$7,$8,$9,0*
20,1,$1+$1,$8,$9,$2,$3,0*%
G04 Aperture macros list end*
%TA.AperFunction,ComponentPad*%
%ADD10R,2.600000X2.600000*%
%TD*%
%TA.AperFunction,ComponentPad*%
%ADD11C,2.600000*%
%TD*%
%TA.AperFunction,ComponentPad*%
%ADD12RoundRect,0.250000X0.600000X0.600000X-0.600000X0.600000X-0.600000X-0.600000X0.600000X-0.600000X0*%
%TD*%
%TA.AperFunction,ComponentPad*%
%ADD13C,1.700000*%
%TD*%
%TA.AperFunction,ComponentPad*%
%ADD14O,4.200000X2.100000*%
%TD*%
%TA.AperFunction,ComponentPad*%
%ADD15O,1.800000X3.600000*%
%TD*%
%TA.AperFunction,ComponentPad*%
%ADD16C,2.800000*%
%TD*%
%TA.AperFunction,ComponentPad*%
%ADD17R,1.700000X1.700000*%
%TD*%
%TA.AperFunction,ComponentPad*%
%ADD18O,1.700000X1.700000*%
%TD*%
%TA.AperFunction,ViaPad*%
%ADD19C,0.600000*%
%TD*%
%TA.AperFunction,Conductor*%
%ADD20C,0.254000*%
%TD*%
%TA.AperFunction,Conductor*%
%ADD21C,0.508000*%
%TD*%
G04 APERTURE END LIST*
D10*
%TO.P,J3,1,Pin_1*%
%TO.N,GND*%
X75955000Y-86305000D03*
D11*
%TO.P,J3,2,Pin_2*%
%TO.N,+BATT*%
X81035000Y-86305000D03*
%TD*%
D12*
%TO.P,J4,1,VTref*%
%TO.N,Net-(J4-VTref)*%
X108500000Y-76000000D03*
D13*
%TO.P,J4,2,SWDIO/TMS*%
%TO.N,/MTMS*%
X105960000Y-76000000D03*
%TO.P,J4,3,GND*%
%TO.N,GND*%
X108500000Y-73460000D03*
%TO.P,J4,4,SWDCLK/TCK*%
%TO.N,/MTCK*%
X105960000Y-73460000D03*
%TO.P,J4,5,GND*%
%TO.N,GND*%
X108500000Y-70920000D03*
%TO.P,J4,6,SWO/TDO*%
%TO.N,/MTDO*%
X105960000Y-70920000D03*
%TO.P,J4,7,KEY*%
%TO.N,unconnected-(J4-KEY-Pad7)*%
X108500000Y-68380000D03*
%TO.P,J4,8,NC/TDI*%
%TO.N,/MTDI*%
X105960000Y-68380000D03*
%TO.P,J4,9,GNDDetect*%
%TO.N,GND*%
X108500000Y-65840000D03*
%TO.P,J4,10,~{RESET}*%
%TO.N,/CHIP_PU*%
X105960000Y-65840000D03*
%TD*%
D14*
%TO.P,J1,1*%
%TO.N,GND*%
X107000000Y-57400000D03*
D15*
%TO.P,J1,2*%
%TO.N,/CSV_OUT*%
X107000000Y-48700000D03*
%TD*%
D16*
%TO.P,TP1,1,1*%
%TO.N,Net-(JP3-A)*%
X78000000Y-74000000D03*
%TD*%
D17*
%TO.P,J2,1,Pin_1*%
%TO.N,/RTS*%
X96380000Y-84000000D03*
D18*
%TO.P,J2,2,Pin_2*%
%TO.N,/DTR*%
X98920000Y-84000000D03*
%TO.P,J2,3,Pin_3*%
%TO.N,/TX*%
X101460000Y-84000000D03*
%TO.P,J2,4,Pin_4*%
%TO.N,/RX*%
X104000000Y-84000000D03*
%TO.P,J2,5,Pin_5*%
%TO.N,GND*%
X106540000Y-84000000D03*
%TD*%
D16*
%TO.P,TP2,1,1*%
%TO.N,GND*%
X85500000Y-74500000D03*
%TD*%
D19*
%TO.N,GND*%
X95250000Y-70500000D03*
X91500000Y-58500000D03*
X82000000Y-81250000D03*
X108750000Y-80750000D03*
X90000000Y-53000000D03*
X83500000Y-48000000D03*
X100500000Y-75000000D03*
X106000000Y-61750000D03*
X74750000Y-52000000D03*
X97250000Y-71500000D03*
X77500000Y-48000000D03*
X91000000Y-53000000D03*
X107000000Y-61750000D03*
X96250000Y-71500000D03*
X81000000Y-82250000D03*
X80500000Y-48000000D03*
X86500000Y-56500000D03*
X79000000Y-59000000D03*
X84500000Y-78500000D03*
X98000000Y-48000000D03*
X106750000Y-80750000D03*
X79000000Y-82250000D03*
X90500000Y-58500000D03*
X101000000Y-48000000D03*
X96250000Y-72500000D03*
X106750000Y-81750000D03*
X81250000Y-75500000D03*
X92500000Y-56000000D03*
X105750000Y-80750000D03*
X107000000Y-60750000D03*
X107750000Y-80750000D03*
X81250000Y-73500000D03*
X97250000Y-70500000D03*
X82250000Y-72500000D03*
X107750000Y-81750000D03*
X92500000Y-54000000D03*
X79000000Y-60500000D03*
X73500000Y-66000000D03*
X105750000Y-81750000D03*
X100500000Y-72500000D03*
X108000000Y-62750000D03*
X74500000Y-48000000D03*
X74750000Y-66000000D03*
X80000000Y-81250000D03*
X82250000Y-74500000D03*
X95250000Y-72500000D03*
X81250000Y-72500000D03*
X79000000Y-81250000D03*
X89000000Y-53000000D03*
X102000000Y-73750000D03*
X82250000Y-73500000D03*
X89500000Y-58500000D03*
X99000000Y-73750000D03*
X86500000Y-57500000D03*
X82000000Y-82250000D03*
X106000000Y-60750000D03*
X107000000Y-62750000D03*
X92500000Y-55000000D03*
X95250000Y-71500000D03*
X86500000Y-55500000D03*
X77500000Y-52000000D03*
X77500000Y-60500000D03*
X97250000Y-72500000D03*
X81000000Y-81250000D03*
X82250000Y-75500000D03*
X79000000Y-62000000D03*
X88000000Y-53000000D03*
X81250000Y-74500000D03*
X86500000Y-54500000D03*
X108000000Y-61750000D03*
X108750000Y-81750000D03*
X108000000Y-60750000D03*
X106000000Y-62750000D03*
X77500000Y-59000000D03*
X88000000Y-58500000D03*
X92500000Y-57000000D03*
X80000000Y-82250000D03*
X77500000Y-62000000D03*
X96250000Y-70500000D03*
%TO.N,/CHIP_PU*%
X98250000Y-64249302D03*
X101250000Y-70500000D03*
%TO.N,+3V3*%
X75500000Y-74000000D03*
X79221546Y-52891742D03*
X88933000Y-70637474D03*
X78500000Y-68250000D03*
X95750000Y-85804000D03*
%TO.N,/TX*%
X102627000Y-56514783D03*
X102757886Y-67115104D03*
X102735617Y-71014383D03*
X102500000Y-54500000D03*
%TO.N,/RX*%
X103385800Y-67749086D03*
X103301070Y-71579836D03*
%TO.N,/MTMS*%
X102131856Y-66495144D03*
X102056644Y-69693356D03*
%TD*%
D20*
%TO.N,/CHIP_PU*%
X105960000Y-65840000D02*
X99840698Y-65840000D01*
X101250000Y-70500000D02*
X101250000Y-67249302D01*
X101250000Y-67249302D02*
X99840698Y-65840000D01*
X99840698Y-65840000D02*
X98250000Y-64249302D01*
D21*
%TO.N,+3V3*%
X79221546Y-53971546D02*
X80500000Y-55250000D01*
X74000000Y-80000000D02*
X78000000Y-84000000D01*
X95576000Y-85804000D02*
X93136000Y-83364000D01*
X88750000Y-70820474D02*
X88750000Y-78978000D01*
X75500000Y-74121952D02*
X74000000Y-75621952D01*
X92500000Y-84000000D02*
X93136000Y-83364000D01*
X78000000Y-84000000D02*
X92500000Y-84000000D01*
X88933000Y-70637474D02*
X88750000Y-70820474D01*
X95750000Y-85804000D02*
X95576000Y-85804000D01*
X75500000Y-74000000D02*
X75500000Y-74121952D01*
X80500000Y-66250000D02*
X78500000Y-68250000D01*
X80500000Y-55250000D02*
X80500000Y-66250000D01*
X88750000Y-78978000D02*
X93136000Y-83364000D01*
X74000000Y-75621952D02*
X74000000Y-80000000D01*
X79221546Y-52891742D02*
X79221546Y-53971546D01*
D20*
%TO.N,/TX*%
X102500000Y-54500000D02*
X102500000Y-56387783D01*
X101627000Y-83833000D02*
X101460000Y-84000000D01*
X102757886Y-70992114D02*
X102735617Y-71014383D01*
X102500000Y-56387783D02*
X102627000Y-56514783D01*
X102757886Y-67115104D02*
X102757886Y-70992114D01*
%TO.N,/RX*%
X103385800Y-71495106D02*
X103301070Y-71579836D01*
X103385800Y-67749086D02*
X103385800Y-71495106D01*
%TO.N,/MTMS*%
X102131856Y-66495144D02*
X102131856Y-69618144D01*
X102131856Y-69618144D02*
X102056644Y-69693356D01*
%TD*%
%TA.AperFunction,Conductor*%
%TO.N,GND*%
G36*
X108034075Y-73652993D02*
G01*
X108099901Y-73767007D01*
X108192993Y-73860099D01*
X108307007Y-73925925D01*
X108370590Y-73942962D01*
X107734208Y-74579342D01*
X107723788Y-74631193D01*
X107675172Y-74681376D01*
X107653032Y-74691205D01*
X107580674Y-74715182D01*
X107580663Y-74715187D01*
X107431342Y-74807289D01*
X107307289Y-74931342D01*
X107215187Y-75080663D01*
X107215183Y-75080673D01*
X107212335Y-75089268D01*
X107172560Y-75146711D01*
X107108044Y-75173531D01*
X107039268Y-75161214D01*
X107002517Y-75132233D01*
X107002324Y-75132427D01*
X107000682Y-75130785D01*
X106999642Y-75129965D01*
X106998494Y-75128597D01*
X106831402Y-74961506D01*
X106831396Y-74961501D01*
X106645842Y-74831575D01*
X106602217Y-74776998D01*
X106595023Y-74707500D01*
X106626546Y-74645145D01*
X106645842Y-74628425D01*
X106705121Y-74586917D01*
X106831401Y-74498495D01*
X106998495Y-74331401D01*
X107128732Y-74145403D01*
X107183307Y-74101780D01*
X107252805Y-74094586D01*
X107315160Y-74126109D01*
X107331880Y-74145405D01*
X107385073Y-74221373D01*
X108017037Y-73589409D01*
X108034075Y-73652993D01*
G37*
%TD.AperFunction*%
%TA.AperFunction,Conductor*%
G36*
X108034075Y-71112993D02*
G01*
X108099901Y-71227007D01*
X108192993Y-71320099D01*
X108307007Y-71385925D01*
X108370590Y-71402962D01*
X107738625Y-72034925D01*
X107815031Y-72088425D01*
X107858655Y-72143002D01*
X107865848Y-72212501D01*
X107834326Y-72274855D01*
X107815029Y-72291576D01*
X107738625Y-72345072D01*
X108370590Y-72977037D01*
X108307007Y-72994075D01*
X108192993Y-73059901D01*
X108099901Y-73152993D01*
X108034075Y-73267007D01*
X108017037Y-73330590D01*
X107385073Y-72698626D01*
X107331881Y-72774594D01*
X107277304Y-72818219D01*
X107207806Y-72825413D01*
X107145451Y-72793891D01*
X107128730Y-72774594D01*
X106998494Y-72588597D01*
X106831402Y-72421506D01*
X106831396Y-72421501D01*
X106645842Y-72291575D01*
X106602217Y-72236998D01*
X106595023Y-72167500D01*
X106626546Y-72105145D01*
X106645842Y-72088425D01*
X106722248Y-72034925D01*
X106831401Y-71958495D01*
X106998495Y-71791401D01*
X107128732Y-71605403D01*
X107183307Y-71561780D01*
X107252805Y-71554586D01*
X107315160Y-71586109D01*
X107331880Y-71605405D01*
X107385073Y-71681373D01*
X108017037Y-71049409D01*
X108034075Y-71112993D01*
G37*
%TD.AperFunction*%
%TA.AperFunction,Conductor*%
G36*
X107314855Y-69046546D02*
G01*
X107331575Y-69065842D01*
X107461500Y-69251395D01*
X107461505Y-69251401D01*
X107628599Y-69418495D01*
X107814158Y-69548425D01*
X107814594Y-69548730D01*
X107858218Y-69603307D01*
X107865411Y-69672806D01*
X107833889Y-69735160D01*
X107814593Y-69751880D01*
X107738626Y-69805072D01*
X107738625Y-69805072D01*
X108370590Y-70437037D01*
X108307007Y-70454075D01*
X108192993Y-70519901D01*
X108099901Y-70612993D01*
X108034075Y-70727007D01*
X108017037Y-70790590D01*
X107385073Y-70158626D01*
X107331881Y-70234594D01*
X107277304Y-70278219D01*
X107207806Y-70285413D01*
X107145451Y-70253891D01*
X107128730Y-70234594D01*
X106998494Y-70048597D01*
X106831402Y-69881506D01*
X106831396Y-69881501D01*
X106645842Y-69751575D01*
X106602217Y-69696998D01*
X106595023Y-69627500D01*
X106626546Y-69565145D01*
X106645842Y-69548425D01*
X106668026Y-69532891D01*
X106831401Y-69418495D01*
X106998495Y-69251401D01*
X107128425Y-69065842D01*
X107183002Y-69022217D01*
X107252500Y-69015023D01*
X107314855Y-69046546D01*
G37*
%TD.AperFunction*%
%TA.AperFunction,Conductor*%
G36*
X108034075Y-66032993D02*
G01*
X108099901Y-66147007D01*
X108192993Y-66240099D01*
X108307007Y-66305925D01*
X108370590Y-66322962D01*
X107738625Y-66954925D01*
X107814594Y-67008119D01*
X107858219Y-67062696D01*
X107865413Y-67132194D01*
X107833890Y-67194549D01*
X107814595Y-67211269D01*
X107628594Y-67341508D01*
X107461505Y-67508597D01*
X107331575Y-67694158D01*
X107276998Y-67737783D01*
X107207500Y-67744977D01*
X107145145Y-67713454D01*
X107128425Y-67694158D01*
X106998494Y-67508597D01*
X106831402Y-67341506D01*
X106831396Y-67341501D01*
X106645842Y-67211575D01*
X106602217Y-67156998D01*
X106595023Y-67087500D01*
X106626546Y-67025145D01*
X106645842Y-67008425D01*
X106668026Y-66992891D01*
X106831401Y-66878495D01*
X106998495Y-66711401D01*
X107128732Y-66525403D01*
X107183307Y-66481780D01*
X107252805Y-66474586D01*
X107315160Y-66506109D01*
X107331880Y-66525405D01*
X107385073Y-66601373D01*
X108017037Y-65969409D01*
X108034075Y-66032993D01*
G37*
%TD.AperFunction*%
%TA.AperFunction,Conductor*%
G36*
X105602338Y-47270185D02*
G01*
X105648093Y-47322989D01*
X105658037Y-47392147D01*
X105653230Y-47412818D01*
X105633985Y-47472047D01*
X105599500Y-47689778D01*
X105599500Y-49710221D01*
X105633985Y-49927952D01*
X105702103Y-50137603D01*
X105702104Y-50137606D01*
X105802187Y-50334025D01*
X105931752Y-50512358D01*
X105931756Y-50512363D01*
X106087636Y-50668243D01*
X106087641Y-50668247D01*
X106243192Y-50781260D01*
X106265978Y-50797815D01*
X106394375Y-50863237D01*
X106462393Y-50897895D01*
X106462396Y-50897896D01*
X106567221Y-50931955D01*
X106672049Y-50966015D01*
X106889778Y-51000500D01*
X106889779Y-51000500D01*
X107110221Y-51000500D01*
X107110222Y-51000500D01*
X107327951Y-50966015D01*
X107537606Y-50897895D01*
X107734022Y-50797815D01*
X107912365Y-50668242D01*
X108068242Y-50512365D01*
X108197815Y-50334022D01*
X108297895Y-50137606D01*
X108366015Y-49927951D01*
X108400500Y-49710222D01*
X108400500Y-47689778D01*
X108366015Y-47472049D01*
X108346770Y-47412818D01*
X108344775Y-47342977D01*
X108380855Y-47283144D01*
X108443556Y-47252316D01*
X108464701Y-47250500D01*
X111875500Y-47250500D01*
X111942539Y-47270185D01*
X111988294Y-47322989D01*
X111999500Y-47374500D01*
X111999500Y-90875500D01*
X111979815Y-90942539D01*
X111927011Y-90988294D01*
X111875500Y-90999500D01*
X73124500Y-90999500D01*
X73057461Y-90979815D01*
X73011706Y-90927011D01*
X73000500Y-90875500D01*
X73000500Y-80101613D01*
X73020185Y-80034574D01*
X73072989Y-79988819D01*
X73142147Y-79978875D01*
X73205703Y-80007900D01*
X73243477Y-80066678D01*
X73246117Y-80077421D01*
X73274493Y-80220073D01*
X73274496Y-80220083D01*
X73331366Y-80357381D01*
X73331372Y-80357392D01*
X73413942Y-80480968D01*
X73413943Y-80480969D01*
X77226295Y-84293319D01*
X77259780Y-84354642D01*
X77254796Y-84424334D01*
X77212924Y-84480267D01*
X77147460Y-84504684D01*
X77138614Y-84505000D01*
X76205000Y-84505000D01*
X76205000Y-85704998D01*
X76144598Y-85679979D01*
X76019019Y-85655000D01*
X75890981Y-85655000D01*
X75765402Y-85679979D01*
X75705000Y-85704998D01*
X75705000Y-84505000D01*
X74607155Y-84505000D01*
X74547627Y-84511401D01*
X74547620Y-84511403D01*
X74412913Y-84561645D01*
X74412906Y-84561649D01*
X74297812Y-84647809D01*
X74297809Y-84647812D01*
X74211649Y-84762906D01*
X74211645Y-84762913D01*
X74161403Y-84897620D01*
X74161401Y-84897627D01*
X74155000Y-84957155D01*
X74155000Y-86055000D01*
X75354999Y-86055000D01*
X75329979Y-86115402D01*
X75305000Y-86240981D01*
X75305000Y-86369019D01*
X75329979Y-86494598D01*
X75354999Y-86555000D01*
X74155000Y-86555000D01*
X74155000Y-87652844D01*
X74161401Y-87712372D01*
X74161403Y-87712379D01*
X74211645Y-87847086D01*
X74211649Y-87847093D01*
X74297809Y-87962187D01*
X74297812Y-87962190D01*
X74412906Y-88048350D01*
X74412913Y-88048354D01*
X74547620Y-88098596D01*
X74547627Y-88098598D01*
X74607155Y-88104999D01*
X74607172Y-88105000D01*
X75705000Y-88105000D01*
X75705000Y-86905001D01*
X75765402Y-86930021D01*
X75890981Y-86955000D01*
X76019019Y-86955000D01*
X76144598Y-86930021D01*
X76205000Y-86905001D01*
X76205000Y-88105000D01*
X77302828Y-88105000D01*
X77302844Y-88104999D01*
X77362372Y-88098598D01*
X77362379Y-88098596D01*
X77497086Y-88048354D01*
X77497093Y-88048350D01*
X77612187Y-87962190D01*
X77612190Y-87962187D01*
X77698350Y-87847093D01*
X77698354Y-87847086D01*
X77748596Y-87712379D01*
X77748598Y-87712372D01*
X77754999Y-87652844D01*
X77755000Y-87652827D01*
X77755000Y-86555000D01*
X76555001Y-86555000D01*
X76580021Y-86494598D01*
X76605000Y-86369019D01*
X76605000Y-86240981D01*
X76580021Y-86115402D01*
X76555001Y-86055000D01*
X77755000Y-86055000D01*
X77755000Y-84957172D01*
X77754999Y-84957155D01*
X77747769Y-84889913D01*
X77749201Y-84889758D01*
X77752488Y-84828480D01*
X77793356Y-84771810D01*
X77858375Y-84746230D01*
X77893612Y-84748119D01*
X77925688Y-84754500D01*
X79742973Y-84754500D01*
X79810012Y-84774185D01*
X79855767Y-84826989D01*
X79865711Y-84896147D01*
X79836686Y-84959703D01*
X79827314Y-84969399D01*
X79711442Y-85076910D01*
X79543185Y-85287898D01*
X79408258Y-85521599D01*
X79408256Y-85521603D01*
X79309666Y-85772804D01*
X79309664Y-85772811D01*
X79249616Y-86035898D01*
X79229451Y-86304995D01*
X79229451Y-86305004D01*
X79249616Y-86574101D01*
X79309664Y-86837188D01*
X79309666Y-86837195D01*
X79355901Y-86955000D01*
X79408257Y-87088398D01*
X79543185Y-87322102D01*
X79679080Y-87492509D01*
X79711442Y-87533089D01*
X79898183Y-87706358D01*
X79909259Y-87716635D01*
X80132226Y-87868651D01*
X80375359Y-87985738D01*
X80633228Y-88065280D01*
X80633229Y-88065280D01*
X80633232Y-88065281D01*
X80900063Y-88105499D01*
X80900068Y-88105499D01*
X80900071Y-88105500D01*
X80900072Y-88105500D01*
X81169928Y-88105500D01*
X81169929Y-88105500D01*
X81169936Y-88105499D01*
X81436767Y-88065281D01*
X81436768Y-88065280D01*
X81436772Y-88065280D01*
X81694641Y-87985738D01*
X81937775Y-87868651D01*
X82160741Y-87716635D01*
X82358561Y-87533085D01*
X82526815Y-87322102D01*
X82661743Y-87088398D01*
X82760334Y-86837195D01*
X82820383Y-86574103D01*
X82835752Y-86369019D01*
X82840549Y-86305004D01*
X82840549Y-86304995D01*
X82823744Y-86080747D01*
X82820383Y-86035897D01*
X82760334Y-85772805D01*
X82661743Y-85521602D01*
X82526815Y-85287898D01*
X82358561Y-85076915D01*
X82358560Y-85076914D01*
X82358557Y-85076910D01*
X82242686Y-84969399D01*
X82206931Y-84909371D01*
X82209306Y-84839541D01*
X82249056Y-84782081D01*
X82313562Y-84755233D01*
X82327027Y-84754500D01*
X92419554Y-84754500D01*
X92419574Y-84754501D01*
X92425688Y-84754501D01*
X92574314Y-84754501D01*
X92695894Y-84730315D01*
X92695894Y-84730316D01*
X92695900Y-84730313D01*
X92720080Y-84725505D01*
X92755942Y-84710649D01*
X92776944Y-84701951D01*
X92776947Y-84701949D01*
X92776955Y-84701946D01*
X92857389Y-84668630D01*
X92980966Y-84586059D01*
X93048319Y-84518704D01*
X93109639Y-84485220D01*
X93179331Y-84490204D01*
X93223680Y-84518705D01*
X95095030Y-86390056D01*
X95095033Y-86390059D01*
X95218604Y-86472626D01*
X95218610Y-86472630D01*
X95315703Y-86512846D01*
X95355920Y-86529505D01*
X95380105Y-86534315D01*
X95448764Y-86547972D01*
X95465504Y-86552542D01*
X95570745Y-86589368D01*
X95570749Y-86589368D01*
X95570751Y-86589369D01*
X95570748Y-86589369D01*
X95749996Y-86609565D01*
X95750000Y-86609565D01*
X95750004Y-86609565D01*
X95929249Y-86589369D01*
X95929252Y-86589368D01*
X95929255Y-86589368D01*
X96099522Y-86529789D01*
X96252262Y-86433816D01*
X96379816Y-86306262D01*
X96475789Y-86153522D01*
X96535368Y-85983255D01*
X96555565Y-85804000D01*
X96552050Y-85772805D01*
X96535369Y-85624750D01*
X96535366Y-85624737D01*
X96497126Y-85515454D01*
X96493564Y-85445675D01*
X96528292Y-85385048D01*
X96590286Y-85352820D01*
X96614167Y-85350499D01*
X97277871Y-85350499D01*
X97277872Y-85350499D01*
X97337483Y-85344091D01*
X97472331Y-85293796D01*
X97587546Y-85207546D01*
X97673796Y-85092331D01*
X97722810Y-84960916D01*
X97764681Y-84904984D01*
X97830145Y-84880566D01*
X97898418Y-84895417D01*
X97926673Y-84916569D01*
X98048599Y-85038495D01*
X98145384Y-85106265D01*
X98242165Y-85174032D01*
X98242167Y-85174033D01*
X98242170Y-85174035D01*
X98456337Y-85273903D01*
X98684592Y-85335063D01*
X98872918Y-85351539D01*
X98919999Y-85355659D01*
X98920000Y-85355659D01*
X98920001Y-85355659D01*
X98959234Y-85352226D01*
X99155408Y-85335063D01*
X99383663Y-85273903D01*
X99597830Y-85174035D01*
X99791401Y-85038495D01*
X99958495Y-84871401D01*
X100088425Y-84685842D01*
X100143002Y-84642217D01*
X100212500Y-84635023D01*
X100274855Y-84666546D01*
X100291575Y-84685842D01*
X100421281Y-84871082D01*
X100421505Y-84871401D01*
X100588599Y-85038495D01*
X100685384Y-85106265D01*
X100782165Y-85174032D01*
X100782167Y-85174033D01*
X100782170Y-85174035D01*
X100996337Y-85273903D01*
X101224592Y-85335063D01*
X101412918Y-85351539D01*
X101459999Y-85355659D01*
X101460000Y-85355659D01*
X101460001Y-85355659D01*
X101499234Y-85352226D01*
X101695408Y-85335063D01*
X101923663Y-85273903D01*
X102137830Y-85174035D01*
X102331401Y-85038495D01*
X102498495Y-84871401D01*
X102628425Y-84685842D01*
X102683002Y-84642217D01*
X102752500Y-84635023D01*
X102814855Y-84666546D01*
X102831575Y-84685842D01*
X102961281Y-84871082D01*
X102961505Y-84871401D01*
X103128599Y-85038495D01*
X103225384Y-85106265D01*
X103322165Y-85174032D01*
X103322167Y-85174033D01*
X103322170Y-85174035D01*
X103536337Y-85273903D01*
X103764592Y-85335063D01*
X103952918Y-85351539D01*
X103999999Y-85355659D01*
X104000000Y-85355659D01*
X104000001Y-85355659D01*
X104039234Y-85352226D01*
X104235408Y-85335063D01*
X104463663Y-85273903D01*
X104677830Y-85174035D01*
X104871401Y-85038495D01*
X105038495Y-84871401D01*
X105168730Y-84685405D01*
X105223307Y-84641781D01*
X105292805Y-84634587D01*
X105355160Y-84666110D01*
X105371879Y-84685405D01*
X105501890Y-84871078D01*
X105668917Y-85038105D01*
X105862421Y-85173600D01*
X106076507Y-85273429D01*
X106076516Y-85273433D01*
X106290000Y-85330634D01*
X106290000Y-84433012D01*
X106347007Y-84465925D01*
X106474174Y-84500000D01*
X106605826Y-84500000D01*
X106732993Y-84465925D01*
X106790000Y-84433012D01*
X106790000Y-85330633D01*
X107003483Y-85273433D01*
X107003492Y-85273429D01*
X107217578Y-85173600D01*
X107411082Y-85038105D01*
X107578105Y-84871082D01*
X107713600Y-84677578D01*
X107813429Y-84463492D01*
X107813432Y-84463486D01*
X107870636Y-84250000D01*
X106973012Y-84250000D01*
X107005925Y-84192993D01*
X107040000Y-84065826D01*
X107040000Y-83934174D01*
X107005925Y-83807007D01*
X106973012Y-83750000D01*
X107870636Y-83750000D01*
X107870635Y-83749999D01*
X107813432Y-83536513D01*
X107813429Y-83536507D01*
X107713600Y-83322422D01*
X107713599Y-83322420D01*
X107578113Y-83128926D01*
X107578108Y-83128920D01*
X107411082Y-82961894D01*
X107217578Y-82826399D01*
X107003492Y-82726570D01*
X107003486Y-82726567D01*
X106790000Y-82669364D01*
X106790000Y-83566988D01*
X106732993Y-83534075D01*
X106605826Y-83500000D01*
X106474174Y-83500000D01*
X106347007Y-83534075D01*
X106290000Y-83566988D01*
X106290000Y-82669364D01*
X106289999Y-82669364D01*
X106076513Y-82726567D01*
X106076507Y-82726570D01*
X105862422Y-82826399D01*
X105862420Y-82826400D01*
X105668926Y-82961886D01*
X105668920Y-82961891D01*
X105501891Y-83128920D01*
X105501890Y-83128922D01*
X105371880Y-83314595D01*
X105317303Y-83358219D01*
X105247804Y-83365412D01*
X105185450Y-83333890D01*
X105168730Y-83314594D01*
X105038494Y-83128597D01*
X104871402Y-82961506D01*
X104871395Y-82961501D01*
X104677834Y-82825967D01*
X104677830Y-82825965D01*
X104677828Y-82825964D01*
X104463663Y-82726097D01*
X104463659Y-82726096D01*
X104463655Y-82726094D01*
X104235413Y-82664938D01*
X104235403Y-82664936D01*
X104000001Y-82644341D01*
X103999999Y-82644341D01*
X103764596Y-82664936D01*
X103764586Y-82664938D01*
X103536344Y-82726094D01*
X103536335Y-82726098D01*
X103322171Y-82825964D01*
X103322169Y-82825965D01*
X103128597Y-82961505D01*
X102961505Y-83128597D01*
X102831575Y-83314158D01*
X102776998Y-83357783D01*
X102707500Y-83364977D01*
X102645145Y-83333454D01*
X102628425Y-83314158D01*
X102498494Y-83128597D01*
X102331402Y-82961506D01*
X102331395Y-82961501D01*
X102137834Y-82825967D01*
X102137830Y-82825965D01*
X102137828Y-82825964D01*
X101923663Y-82726097D01*
X101923659Y-82726096D01*
X101923655Y-82726094D01*
X101695413Y-82664938D01*
X101695403Y-82664936D01*
X101460001Y-82644341D01*
X101459999Y-82644341D01*
X101224596Y-82664936D01*
X101224586Y-82664938D01*
X100996344Y-82726094D01*
X100996335Y-82726098D01*
X100782171Y-82825964D01*
X100782169Y-82825965D01*
X100588597Y-82961505D01*
X100421505Y-83128597D01*
X100291575Y-83314158D01*
X100236998Y-83357783D01*
X100167500Y-83364977D01*
X100105145Y-83333454D01*
X100088425Y-83314158D01*
X99958494Y-83128597D01*
X99791402Y-82961506D01*
X99791395Y-82961501D01*
X99597834Y-82825967D01*
X99597830Y-82825965D01*
X99597828Y-82825964D01*
X99383663Y-82726097D01*
X99383659Y-82726096D01*
X99383655Y-82726094D01*
X99155413Y-82664938D01*
X99155403Y-82664936D01*
X98920001Y-82644341D01*
X98919999Y-82644341D01*
X98684596Y-82664936D01*
X98684586Y-82664938D01*
X98456344Y-82726094D01*
X98456335Y-82726098D01*
X98242171Y-82825964D01*
X98242169Y-82825965D01*
X98048600Y-82961503D01*
X97926673Y-83083430D01*
X97865350Y-83116914D01*
X97795658Y-83111930D01*
X97739725Y-83070058D01*
X97722810Y-83039081D01*
X97673797Y-82907671D01*
X97673793Y-82907664D01*
X97587547Y-82792455D01*
X97587544Y-82792452D01*
X97472335Y-82706206D01*
X97472328Y-82706202D01*
X97337482Y-82655908D01*
X97337483Y-82655908D01*
X97277883Y-82649501D01*
X97277881Y-82649500D01*
X97277873Y-82649500D01*
X97277864Y-82649500D01*
X95482129Y-82649500D01*
X95482123Y-82649501D01*
X95422516Y-82655908D01*
X95287671Y-82706202D01*
X95287664Y-82706206D01*
X95172455Y-82792452D01*
X95172452Y-82792455D01*
X95086206Y-82907664D01*
X95086202Y-82907671D01*
X95035908Y-83042517D01*
X95029501Y-83102116D01*
X95029500Y-83102135D01*
X95029500Y-83891112D01*
X95009815Y-83958151D01*
X94957011Y-84003906D01*
X94887853Y-84013850D01*
X94824297Y-83984825D01*
X94817819Y-83978793D01*
X93612647Y-82773621D01*
X93612624Y-82773600D01*
X89540819Y-78701794D01*
X89507334Y-78640471D01*
X89504500Y-78614113D01*
X89504500Y-71249414D01*
X89524185Y-71182375D01*
X89540819Y-71161733D01*
X89547237Y-71155315D01*
X89562816Y-71139736D01*
X89658789Y-70986996D01*
X89718368Y-70816729D01*
X89726319Y-70746162D01*
X89738565Y-70637477D01*
X89738565Y-70637470D01*
X89718369Y-70458224D01*
X89718368Y-70458219D01*
X89676829Y-70339508D01*
X89658789Y-70287952D01*
X89652673Y-70278219D01*
X89562815Y-70135211D01*
X89435262Y-70007658D01*
X89282523Y-69911685D01*
X89112254Y-69852105D01*
X89112249Y-69852104D01*
X88933004Y-69831909D01*
X88932996Y-69831909D01*
X88753750Y-69852104D01*
X88753745Y-69852105D01*
X88583476Y-69911685D01*
X88430737Y-70007658D01*
X88303184Y-70135211D01*
X88203507Y-70293847D01*
X88202705Y-70293343D01*
X88184618Y-70318829D01*
X88163946Y-70339501D01*
X88163942Y-70339506D01*
X88081373Y-70463079D01*
X88081366Y-70463091D01*
X88066078Y-70500003D01*
X88061059Y-70512121D01*
X88047031Y-70545987D01*
X88033004Y-70579852D01*
X88024495Y-70600393D01*
X88024493Y-70600399D01*
X87995499Y-70746159D01*
X87995499Y-70900899D01*
X87995500Y-70900920D01*
X87995500Y-78898552D01*
X87995499Y-78898578D01*
X87995499Y-78903688D01*
X87995499Y-79052312D01*
X87995499Y-79052314D01*
X87995498Y-79052314D01*
X88024493Y-79198073D01*
X88024496Y-79198083D01*
X88081366Y-79335381D01*
X88081372Y-79335392D01*
X88163942Y-79458968D01*
X88163943Y-79458969D01*
X91738795Y-83033819D01*
X91772280Y-83095142D01*
X91767296Y-83164834D01*
X91725424Y-83220767D01*
X91659960Y-83245184D01*
X91651114Y-83245500D01*
X78363886Y-83245500D01*
X78296847Y-83225815D01*
X78276205Y-83209181D01*
X74790819Y-79723794D01*
X74757334Y-79662471D01*
X74754500Y-79636113D01*
X74754500Y-75985837D01*
X74774185Y-75918798D01*
X74790814Y-75898160D01*
X75980963Y-74708012D01*
X75980966Y-74708011D01*
X76030055Y-74658921D01*
X76091374Y-74625439D01*
X76161066Y-74630423D01*
X76216999Y-74672294D01*
X76233914Y-74703270D01*
X76266827Y-74791511D01*
X76266830Y-74791518D01*
X76397109Y-75030107D01*
X76397110Y-75030108D01*
X76397113Y-75030113D01*
X76560029Y-75247742D01*
X76560033Y-75247746D01*
X76560038Y-75247752D01*
X76752247Y-75439961D01*
X76752253Y-75439966D01*
X76752258Y-75439971D01*
X76969887Y-75602887D01*
X76969891Y-75602889D01*
X76969892Y-75602890D01*
X77208481Y-75733169D01*
X77208480Y-75733169D01*
X77208484Y-75733170D01*
X77208487Y-75733172D01*
X77463199Y-75828175D01*
X77728840Y-75885961D01*
X77980605Y-75903967D01*
X77999999Y-75905355D01*
X78000000Y-75905355D01*
X78000001Y-75905355D01*
X78018100Y-75904060D01*
X78271160Y-75885961D01*
X78536801Y-75828175D01*
X78791513Y-75733172D01*
X78791517Y-75733169D01*
X78791519Y-75733169D01*
X78934448Y-75655124D01*
X79030113Y-75602887D01*
X79247742Y-75439971D01*
X79439971Y-75247742D01*
X79602887Y-75030113D01*
X79714360Y-74825965D01*
X79733169Y-74791519D01*
X79733169Y-74791517D01*
X79733172Y-74791513D01*
X79828175Y-74536801D01*
X79836180Y-74500001D01*
X83595147Y-74500001D01*
X83614536Y-74771090D01*
X83614537Y-74771097D01*
X83672305Y-75036654D01*
X83767285Y-75291306D01*
X83767287Y-75291310D01*
X83897532Y-75529835D01*
X83897537Y-75529843D01*
X83991321Y-75655123D01*
X83991322Y-75655124D01*
X84784153Y-74862293D01*
X84791049Y-74878942D01*
X84878599Y-75009970D01*
X84990030Y-75121401D01*
X85121058Y-75208951D01*
X85137705Y-75215846D01*
X84344874Y-76008676D01*
X84470163Y-76102466D01*
X84470164Y-76102467D01*
X84708689Y-76232712D01*
X84708693Y-76232714D01*
X84963345Y-76327694D01*
X85228902Y-76385462D01*
X85228909Y-76385463D01*
X85499999Y-76404853D01*
X85500001Y-76404853D01*
X85771090Y-76385463D01*
X85771097Y-76385462D01*
X86036654Y-76327694D01*
X86291306Y-76232714D01*
X86291310Y-76232712D01*
X86529844Y-76102462D01*
X86655123Y-76008677D01*
X86655124Y-76008676D01*
X85862294Y-75215846D01*
X85878942Y-75208951D01*
X86009970Y-75121401D01*
X86121401Y-75009970D01*
X86208951Y-74878942D01*
X86215846Y-74862294D01*
X87008676Y-75655124D01*
X87008677Y-75655123D01*
X87102462Y-75529844D01*
X87232712Y-75291310D01*
X87232714Y-75291306D01*
X87327694Y-75036654D01*
X87385462Y-74771097D01*
X87385463Y-74771090D01*
X87404853Y-74500001D01*
X87404853Y-74499998D01*
X87385463Y-74228909D01*
X87385462Y-74228902D01*
X87327694Y-73963345D01*
X87232714Y-73708693D01*
X87232712Y-73708689D01*
X87102467Y-73470164D01*
X87102466Y-73470163D01*
X87008676Y-73344874D01*
X86215846Y-74137704D01*
X86208951Y-74121058D01*
X86121401Y-73990030D01*
X86009970Y-73878599D01*
X85878942Y-73791049D01*
X85862294Y-73784153D01*
X86655124Y-72991322D01*
X86655123Y-72991321D01*
X86529843Y-72897537D01*
X86529835Y-72897532D01*
X86291310Y-72767287D01*
X86291306Y-72767285D01*
X86036654Y-72672305D01*
X85771097Y-72614537D01*
X85771090Y-72614536D01*
X85500001Y-72595147D01*
X85499999Y-72595147D01*
X85228909Y-72614536D01*
X85228902Y-72614537D01*
X84963345Y-72672305D01*
X84708693Y-72767285D01*
X84708689Y-72767287D01*
X84470164Y-72897532D01*
X84470156Y-72897537D01*
X84344875Y-72991321D01*
X84344874Y-72991322D01*
X85137705Y-73784153D01*
X85121058Y-73791049D01*
X84990030Y-73878599D01*
X84878599Y-73990030D01*
X84791049Y-74121058D01*
X84784153Y-74137705D01*
X83991322Y-73344874D01*
X83991321Y-73344875D01*
X83897537Y-73470156D01*
X83897532Y-73470164D01*
X83767287Y-73708689D01*
X83767285Y-73708693D01*
X83672305Y-73963345D01*
X83614537Y-74228902D01*
X83614536Y-74228909D01*
X83595147Y-74499998D01*
X83595147Y-74500001D01*
X79836180Y-74500001D01*
X79885961Y-74271160D01*
X79905355Y-74000000D01*
X79885961Y-73728840D01*
X79828175Y-73463199D01*
X79733172Y-73208487D01*
X79733169Y-73208483D01*
X79733168Y-73208478D01*
X79602890Y-72969892D01*
X79602889Y-72969891D01*
X79602887Y-72969887D01*
X79439971Y-72752258D01*
X79439966Y-72752253D01*
X79439961Y-72752247D01*
X79247752Y-72560038D01*
X79247746Y-72560033D01*
X79247742Y-72560029D01*
X79030113Y-72397113D01*
X79030108Y-72397110D01*
X79030107Y-72397109D01*
X78791518Y-72266830D01*
X78791519Y-72266830D01*
X78741920Y-72248330D01*
X78536801Y-72171825D01*
X78536794Y-72171823D01*
X78536793Y-72171823D01*
X78271167Y-72114040D01*
X78271160Y-72114039D01*
X78000001Y-72094645D01*
X77999999Y-72094645D01*
X77728839Y-72114039D01*
X77728832Y-72114040D01*
X77463206Y-72171823D01*
X77463202Y-72171824D01*
X77463199Y-72171825D01*
X77354143Y-72212501D01*
X77208480Y-72266830D01*
X76969892Y-72397109D01*
X76969891Y-72397110D01*
X76752259Y-72560028D01*
X76752247Y-72560038D01*
X76560038Y-72752247D01*
X76560028Y-72752259D01*
X76397110Y-72969891D01*
X76397109Y-72969892D01*
X76266832Y-73208478D01*
X76266827Y-73208488D01*
X76218457Y-73338171D01*
X76176586Y-73394104D01*
X76111121Y-73418520D01*
X76042848Y-73403668D01*
X76014595Y-73382517D01*
X76002262Y-73370184D01*
X75849523Y-73274211D01*
X75679254Y-73214631D01*
X75679249Y-73214630D01*
X75500004Y-73194435D01*
X75499996Y-73194435D01*
X75320750Y-73214630D01*
X75320745Y-73214631D01*
X75150476Y-73274211D01*
X74997737Y-73370184D01*
X74870184Y-73497737D01*
X74774210Y-73650478D01*
X74713457Y-73824103D01*
X74684096Y-73870830D01*
X73413943Y-75140982D01*
X73413942Y-75140983D01*
X73331372Y-75264559D01*
X73331366Y-75264570D01*
X73274496Y-75401868D01*
X73274493Y-75401878D01*
X73246117Y-75544530D01*
X73213731Y-75606441D01*
X73153015Y-75641015D01*
X73083246Y-75637274D01*
X73026574Y-75596407D01*
X73000993Y-75531389D01*
X73000500Y-75520338D01*
X73000500Y-68250003D01*
X77694435Y-68250003D01*
X77714630Y-68429249D01*
X77714631Y-68429254D01*
X77774211Y-68599523D01*
X77870184Y-68752262D01*
X77997738Y-68879816D01*
X78150478Y-68975789D01*
X78283162Y-69022217D01*
X78320745Y-69035368D01*
X78320750Y-69035369D01*
X78499996Y-69055565D01*
X78500000Y-69055565D01*
X78500004Y-69055565D01*
X78679249Y-69035369D01*
X78679252Y-69035368D01*
X78679255Y-69035368D01*
X78849522Y-68975789D01*
X79002262Y-68879816D01*
X79129816Y-68752262D01*
X79225789Y-68599522D01*
X79225789Y-68599520D01*
X79229494Y-68593625D01*
X79230299Y-68594131D01*
X79248382Y-68568641D01*
X80980963Y-66836060D01*
X80980966Y-66836059D01*
X81086059Y-66730966D01*
X81168629Y-66607390D01*
X81225505Y-66470080D01*
X81240224Y-66396083D01*
X81254501Y-66324312D01*
X81254501Y-66175688D01*
X81254501Y-66170578D01*
X81254500Y-66170552D01*
X81254500Y-64249305D01*
X97444435Y-64249305D01*
X97464630Y-64428551D01*
X97464631Y-64428556D01*
X97524211Y-64598825D01*
X97620184Y-64751564D01*
X97747738Y-64879118D01*
X97900478Y-64975091D01*
X98070745Y-65034670D01*
X98114635Y-65039615D01*
X98179048Y-65066680D01*
X98188433Y-65075154D01*
X100586181Y-67472902D01*
X100619666Y-67534225D01*
X100622500Y-67560583D01*
X100622500Y-69958328D01*
X100603494Y-70024300D01*
X100524211Y-70150476D01*
X100464631Y-70320745D01*
X100464630Y-70320750D01*
X100444435Y-70499996D01*
X100444435Y-70500003D01*
X100464630Y-70679249D01*
X100464631Y-70679254D01*
X100524211Y-70849523D01*
X100610592Y-70986996D01*
X100620184Y-71002262D01*
X100747738Y-71129816D01*
X100798534Y-71161733D01*
X100898862Y-71224774D01*
X100900478Y-71225789D01*
X101036980Y-71273553D01*
X101070745Y-71285368D01*
X101070750Y-71285369D01*
X101249996Y-71305565D01*
X101250000Y-71305565D01*
X101250004Y-71305565D01*
X101429249Y-71285369D01*
X101429252Y-71285368D01*
X101429255Y-71285368D01*
X101599522Y-71225789D01*
X101752262Y-71129816D01*
X101752269Y-71129808D01*
X101753139Y-71129116D01*
X101753814Y-71128840D01*
X101758158Y-71126111D01*
X101758635Y-71126871D01*
X101817824Y-71102702D01*
X101886520Y-71115453D01*
X101937417Y-71163320D01*
X101946966Y-71187408D01*
X101947949Y-71187065D01*
X102009828Y-71363906D01*
X102105801Y-71516645D01*
X102233355Y-71644199D01*
X102386095Y-71740172D01*
X102440160Y-71759090D01*
X102469876Y-71769488D01*
X102526652Y-71810210D01*
X102545963Y-71845574D01*
X102575281Y-71929359D01*
X102575282Y-71929360D01*
X102671254Y-72082098D01*
X102798808Y-72209652D01*
X102889150Y-72266418D01*
X102929187Y-72291575D01*
X102951548Y-72305625D01*
X103064281Y-72345072D01*
X103121815Y-72365204D01*
X103121820Y-72365205D01*
X103301066Y-72385401D01*
X103301070Y-72385401D01*
X103301074Y-72385401D01*
X103480319Y-72365205D01*
X103480322Y-72365204D01*
X103480325Y-72365204D01*
X103650592Y-72305625D01*
X103803332Y-72209652D01*
X103930886Y-72082098D01*
X104026859Y-71929358D01*
X104086438Y-71759091D01*
X104099383Y-71644199D01*
X104106635Y-71579839D01*
X104106635Y-71579832D01*
X104086439Y-71400586D01*
X104086436Y-71400573D01*
X104026859Y-71230312D01*
X104025578Y-71227652D01*
X104024921Y-71224774D01*
X104024560Y-71223742D01*
X104024676Y-71223701D01*
X104013300Y-71173855D01*
X104013300Y-68290757D01*
X104032307Y-68224784D01*
X104111588Y-68098610D01*
X104121337Y-68070750D01*
X104171168Y-67928341D01*
X104173464Y-67907967D01*
X104191365Y-67749089D01*
X104191365Y-67749082D01*
X104171169Y-67569836D01*
X104171168Y-67569831D01*
X104149741Y-67508597D01*
X104111589Y-67399564D01*
X104015616Y-67246824D01*
X103888062Y-67119270D01*
X103867097Y-67106097D01*
X103735321Y-67023296D01*
X103653847Y-66994787D01*
X103607688Y-66978636D01*
X103550914Y-66937915D01*
X103531602Y-66902549D01*
X103483675Y-66765582D01*
X103415745Y-66657472D01*
X103396745Y-66590235D01*
X103417113Y-66523400D01*
X103470380Y-66478186D01*
X103520739Y-66467500D01*
X104686173Y-66467500D01*
X104753212Y-66487185D01*
X104787747Y-66520375D01*
X104921501Y-66711396D01*
X104921505Y-66711401D01*
X105088597Y-66878493D01*
X105088603Y-66878498D01*
X105274158Y-67008425D01*
X105317783Y-67063002D01*
X105324977Y-67132500D01*
X105293454Y-67194855D01*
X105274158Y-67211575D01*
X105088597Y-67341505D01*
X104921505Y-67508597D01*
X104785965Y-67702169D01*
X104785964Y-67702171D01*
X104686098Y-67916335D01*
X104686094Y-67916344D01*
X104624938Y-68144586D01*
X104624936Y-68144596D01*
X104604341Y-68379999D01*
X104604341Y-68380000D01*
X104624936Y-68615403D01*
X104624938Y-68615413D01*
X104686094Y-68843655D01*
X104686096Y-68843659D01*
X104686097Y-68843663D01*
X104747708Y-68975788D01*
X104785965Y-69057830D01*
X104785967Y-69057834D01*
X104894281Y-69212521D01*
X104921501Y-69251396D01*
X104921506Y-69251402D01*
X105088597Y-69418493D01*
X105088603Y-69418498D01*
X105274158Y-69548425D01*
X105317783Y-69603002D01*
X105324977Y-69672500D01*
X105293454Y-69734855D01*
X105274158Y-69751575D01*
X105088597Y-69881505D01*
X104921505Y-70048597D01*
X104785965Y-70242169D01*
X104785964Y-70242171D01*
X104686098Y-70456335D01*
X104686094Y-70456344D01*
X104624938Y-70684586D01*
X104624936Y-70684596D01*
X104604341Y-70919999D01*
X104604341Y-70920000D01*
X104624936Y-71155403D01*
X104624938Y-71155413D01*
X104686094Y-71383655D01*
X104686096Y-71383659D01*
X104686097Y-71383663D01*
X104748108Y-71516645D01*
X104785965Y-71597830D01*
X104785967Y-71597834D01*
X104844462Y-71681373D01*
X104921501Y-71791396D01*
X104921506Y-71791402D01*
X105088597Y-71958493D01*
X105088603Y-71958498D01*
X105274158Y-72088425D01*
X105317783Y-72143002D01*
X105324977Y-72212500D01*
X105293454Y-72274855D01*
X105274158Y-72291575D01*
X105088597Y-72421505D01*
X104921505Y-72588597D01*
X104785965Y-72782169D01*
X104785964Y-72782171D01*
X104686098Y-72996335D01*
X104686094Y-72996344D01*
X104624938Y-73224586D01*
X104624936Y-73224596D01*
X104604341Y-73459999D01*
X104604341Y-73460000D01*
X104624936Y-73695403D01*
X104624938Y-73695413D01*
X104686094Y-73923655D01*
X104686096Y-73923659D01*
X104686097Y-73923663D01*
X104717045Y-73990030D01*
X104785965Y-74137830D01*
X104785967Y-74137834D01*
X104844462Y-74221373D01*
X104921501Y-74331396D01*
X104921506Y-74331402D01*
X105088597Y-74498493D01*
X105088603Y-74498498D01*
X105274158Y-74628425D01*
X105317783Y-74683002D01*
X105324977Y-74752500D01*
X105293454Y-74814855D01*
X105274158Y-74831575D01*
X105088597Y-74961505D01*
X104921505Y-75128597D01*
X104785965Y-75322169D01*
X104785964Y-75322171D01*
X104686098Y-75536335D01*
X104686094Y-75536344D01*
X104624938Y-75764586D01*
X104624936Y-75764596D01*
X104604341Y-75999999D01*
X104604341Y-76000000D01*
X104624936Y-76235403D01*
X104624938Y-76235413D01*
X104686094Y-76463655D01*
X104686096Y-76463659D01*
X104686097Y-76463663D01*
X104770499Y-76644663D01*
X104785965Y-76677830D01*
X104785967Y-76677834D01*
X104892670Y-76830220D01*
X104921505Y-76871401D01*
X105088599Y-77038495D01*
X105131675Y-77068657D01*
X105282165Y-77174032D01*
X105282167Y-77174033D01*
X105282170Y-77174035D01*
X105496337Y-77273903D01*
X105724592Y-77335063D01*
X105901034Y-77350500D01*
X105959999Y-77355659D01*
X105960000Y-77355659D01*
X105960001Y-77355659D01*
X106018966Y-77350500D01*
X106195408Y-77335063D01*
X106423663Y-77273903D01*
X106637830Y-77174035D01*
X106831401Y-77038495D01*
X106998495Y-76871401D01*
X106998504Y-76871388D01*
X106999636Y-76870040D01*
X107000293Y-76869602D01*
X107002323Y-76867573D01*
X107002730Y-76867980D01*
X107057805Y-76831334D01*
X107127666Y-76830220D01*
X107187038Y-76867053D01*
X107212335Y-76910733D01*
X107215186Y-76919334D01*
X107307288Y-77068656D01*
X107431344Y-77192712D01*
X107580666Y-77284814D01*
X107747203Y-77339999D01*
X107849991Y-77350500D01*
X109150008Y-77350499D01*
X109252797Y-77339999D01*
X109419334Y-77284814D01*
X109568656Y-77192712D01*
X109692712Y-77068656D01*
X109784814Y-76919334D01*
X109839999Y-76752797D01*
X109850500Y-76650009D01*
X109850499Y-75349992D01*
X109839999Y-75247203D01*
X109784814Y-75080666D01*
X109692712Y-74931344D01*
X109568656Y-74807288D01*
X109475888Y-74750069D01*
X109419336Y-74715187D01*
X109419331Y-74715185D01*
X109346967Y-74691206D01*
X109289522Y-74651433D01*
X109262699Y-74586917D01*
X109262585Y-74576137D01*
X108629409Y-73942962D01*
X108692993Y-73925925D01*
X108807007Y-73860099D01*
X108900099Y-73767007D01*
X108965925Y-73652993D01*
X108982962Y-73589410D01*
X109614925Y-74221373D01*
X109614926Y-74221373D01*
X109673598Y-74137582D01*
X109673600Y-74137578D01*
X109773429Y-73923492D01*
X109773433Y-73923483D01*
X109834567Y-73695326D01*
X109834569Y-73695315D01*
X109855157Y-73460001D01*
X109855157Y-73459998D01*
X109834569Y-73224684D01*
X109834567Y-73224673D01*
X109773433Y-72996516D01*
X109773429Y-72996507D01*
X109673600Y-72782423D01*
X109673599Y-72782421D01*
X109614925Y-72698626D01*
X109614925Y-72698625D01*
X108982962Y-73330589D01*
X108965925Y-73267007D01*
X108900099Y-73152993D01*
X108807007Y-73059901D01*
X108692993Y-72994075D01*
X108629410Y-72977037D01*
X109261373Y-72345073D01*
X109184969Y-72291576D01*
X109141344Y-72236999D01*
X109134150Y-72167501D01*
X109165672Y-72105146D01*
X109184968Y-72088425D01*
X109261373Y-72034925D01*
X108629409Y-71402962D01*
X108692993Y-71385925D01*
X108807007Y-71320099D01*
X108900099Y-71227007D01*
X108965925Y-71112993D01*
X108982962Y-71049410D01*
X109614925Y-71681373D01*
X109614926Y-71681373D01*
X109673598Y-71597582D01*
X109673600Y-71597578D01*
X109773429Y-71383492D01*
X109773433Y-71383483D01*
X109834567Y-71155326D01*
X109834569Y-71155315D01*
X109855157Y-70920001D01*
X109855157Y-70919998D01*
X109834569Y-70684684D01*
X109834567Y-70684673D01*
X109773433Y-70456516D01*
X109773429Y-70456507D01*
X109673600Y-70242423D01*
X109673599Y-70242421D01*
X109614925Y-70158626D01*
X109614925Y-70158625D01*
X108982962Y-70790589D01*
X108965925Y-70727007D01*
X108900099Y-70612993D01*
X108807007Y-70519901D01*
X108692993Y-70454075D01*
X108629410Y-70437037D01*
X109261373Y-69805073D01*
X109261373Y-69805072D01*
X109185405Y-69751880D01*
X109141780Y-69697304D01*
X109134586Y-69627805D01*
X109166108Y-69565451D01*
X109185399Y-69548734D01*
X109371401Y-69418495D01*
X109538495Y-69251401D01*
X109674035Y-69057830D01*
X109773903Y-68843663D01*
X109835063Y-68615408D01*
X109855659Y-68380000D01*
X109835063Y-68144592D01*
X109788626Y-67971285D01*
X109773905Y-67916344D01*
X109773904Y-67916343D01*
X109773903Y-67916337D01*
X109674035Y-67702171D01*
X109668425Y-67694158D01*
X109538494Y-67508597D01*
X109371402Y-67341506D01*
X109371401Y-67341505D01*
X109185405Y-67211269D01*
X109141781Y-67156692D01*
X109134588Y-67087193D01*
X109166110Y-67024839D01*
X109185405Y-67008119D01*
X109261373Y-66954925D01*
X108629409Y-66322962D01*
X108692993Y-66305925D01*
X108807007Y-66240099D01*
X108900099Y-66147007D01*
X108965925Y-66032993D01*
X108982962Y-65969410D01*
X109614925Y-66601373D01*
X109614926Y-66601373D01*
X109673598Y-66517582D01*
X109673600Y-66517578D01*
X109773429Y-66303492D01*
X109773433Y-66303483D01*
X109834567Y-66075326D01*
X109834569Y-66075315D01*
X109855157Y-65840001D01*
X109855157Y-65839998D01*
X109834569Y-65604684D01*
X109834567Y-65604673D01*
X109773433Y-65376516D01*
X109773429Y-65376507D01*
X109673600Y-65162423D01*
X109673599Y-65162421D01*
X109614925Y-65078626D01*
X109614925Y-65078625D01*
X108982962Y-65710589D01*
X108965925Y-65647007D01*
X108900099Y-65532993D01*
X108807007Y-65439901D01*
X108692993Y-65374075D01*
X108629410Y-65357037D01*
X109261373Y-64725073D01*
X109261373Y-64725072D01*
X109177583Y-64666402D01*
X109177579Y-64666400D01*
X108963492Y-64566570D01*
X108963483Y-64566566D01*
X108735326Y-64505432D01*
X108735315Y-64505430D01*
X108500002Y-64484843D01*
X108499998Y-64484843D01*
X108264684Y-64505430D01*
X108264673Y-64505432D01*
X108036516Y-64566566D01*
X108036507Y-64566570D01*
X107822419Y-64666401D01*
X107738625Y-64725072D01*
X108370590Y-65357037D01*
X108307007Y-65374075D01*
X108192993Y-65439901D01*
X108099901Y-65532993D01*
X108034075Y-65647007D01*
X108017037Y-65710590D01*
X107385073Y-65078626D01*
X107331881Y-65154594D01*
X107277304Y-65198219D01*
X107207806Y-65205413D01*
X107145451Y-65173891D01*
X107128730Y-65154594D01*
X106998494Y-64968597D01*
X106831402Y-64801506D01*
X106831395Y-64801501D01*
X106637834Y-64665967D01*
X106637830Y-64665965D01*
X106637828Y-64665964D01*
X106423663Y-64566097D01*
X106423659Y-64566096D01*
X106423655Y-64566094D01*
X106195413Y-64504938D01*
X106195403Y-64504936D01*
X105960001Y-64484341D01*
X105959999Y-64484341D01*
X105724596Y-64504936D01*
X105724586Y-64504938D01*
X105496344Y-64566094D01*
X105496335Y-64566098D01*
X105282171Y-64665964D01*
X105282169Y-64665965D01*
X105088597Y-64801505D01*
X104921505Y-64968597D01*
X104787749Y-65159623D01*
X104733172Y-65203248D01*
X104686174Y-65212500D01*
X100151979Y-65212500D01*
X100084940Y-65192815D01*
X100064298Y-65176181D01*
X99075852Y-64187735D01*
X99042367Y-64126412D01*
X99040314Y-64113950D01*
X99035368Y-64070047D01*
X98975789Y-63899780D01*
X98879816Y-63747040D01*
X98752262Y-63619486D01*
X98599523Y-63523513D01*
X98429254Y-63463933D01*
X98429249Y-63463932D01*
X98250004Y-63443737D01*
X98249996Y-63443737D01*
X98070750Y-63463932D01*
X98070745Y-63463933D01*
X97900476Y-63523513D01*
X97747737Y-63619486D01*
X97620184Y-63747039D01*
X97524211Y-63899778D01*
X97464631Y-64070047D01*
X97464630Y-64070052D01*
X97444435Y-64249298D01*
X97444435Y-64249305D01*
X81254500Y-64249305D01*
X81254500Y-57650000D01*
X104420275Y-57650000D01*
X104438165Y-57762959D01*
X104513560Y-57994998D01*
X104624321Y-58212377D01*
X104767728Y-58409759D01*
X104940240Y-58582271D01*
X105137622Y-58725678D01*
X105355001Y-58836439D01*
X105587040Y-58911834D01*
X105828007Y-58950000D01*
X106750000Y-58950000D01*
X106750000Y-58050000D01*
X107250000Y-58050000D01*
X107250000Y-58950000D01*
X108171993Y-58950000D01*
X108412959Y-58911834D01*
X108644998Y-58836439D01*
X108862377Y-58725678D01*
X109059759Y-58582271D01*
X109232271Y-58409759D01*
X109375678Y-58212377D01*
X109486439Y-57994998D01*
X109561834Y-57762959D01*
X109579725Y-57650000D01*
X108200001Y-57650000D01*
X108225021Y-57589598D01*
X108250000Y-57464019D01*
X108250000Y-57335981D01*
X108225021Y-57210402D01*
X108200001Y-57150000D01*
X109579725Y-57150000D01*
X109561834Y-57037040D01*
X109486439Y-56805001D01*
X109375678Y-56587622D01*
X109232271Y-56390240D01*
X109059759Y-56217728D01*
X108862377Y-56074321D01*
X108644998Y-55963560D01*
X108412959Y-55888165D01*
X108171993Y-55850000D01*
X107250000Y-55850000D01*
X107250000Y-56750000D01*
X106750000Y-56750000D01*
X106750000Y-55850000D01*
X105828007Y-55850000D01*
X105587040Y-55888165D01*
X105355001Y-55963560D01*
X105137622Y-56074321D01*
X104940240Y-56217728D01*
X104767728Y-56390240D01*
X104624321Y-56587622D01*
X104513560Y-56805001D01*
X104438165Y-57037040D01*
X104420275Y-57150000D01*
X105799999Y-57150000D01*
X105774979Y-57210402D01*
X105750000Y-57335981D01*
X105750000Y-57464019D01*
X105774979Y-57589598D01*
X105799999Y-57650000D01*
X104420275Y-57650000D01*
X81254500Y-57650000D01*
X81254500Y-55330446D01*
X81254501Y-55330425D01*
X81254501Y-55175685D01*
X81225506Y-55029925D01*
X81225504Y-55029919D01*
X81214059Y-55002287D01*
X81214047Y-55002260D01*
X81185993Y-54934530D01*
X81168630Y-54892611D01*
X81086059Y-54769034D01*
X81086057Y-54769031D01*
X80817029Y-54500003D01*
X101694435Y-54500003D01*
X101714630Y-54679249D01*
X101714631Y-54679254D01*
X101774211Y-54849524D01*
X101853493Y-54975698D01*
X101872500Y-55041671D01*
X101872500Y-56226242D01*
X101865542Y-56267197D01*
X101841631Y-56335528D01*
X101841630Y-56335533D01*
X101821435Y-56514779D01*
X101821435Y-56514786D01*
X101841630Y-56694032D01*
X101841631Y-56694037D01*
X101901211Y-56864306D01*
X101997184Y-57017045D01*
X102124738Y-57144599D01*
X102277478Y-57240572D01*
X102447745Y-57300151D01*
X102447750Y-57300152D01*
X102626996Y-57320348D01*
X102627000Y-57320348D01*
X102627004Y-57320348D01*
X102806249Y-57300152D01*
X102806252Y-57300151D01*
X102806255Y-57300151D01*
X102976522Y-57240572D01*
X103129262Y-57144599D01*
X103256816Y-57017045D01*
X103352789Y-56864305D01*
X103412368Y-56694038D01*
X103432565Y-56514783D01*
X103412368Y-56335528D01*
X103352789Y-56165261D01*
X103256816Y-56012521D01*
X103163818Y-55919523D01*
X103130334Y-55858199D01*
X103127500Y-55831842D01*
X103127500Y-55041671D01*
X103146507Y-54975698D01*
X103172376Y-54934529D01*
X103225789Y-54849522D01*
X103285368Y-54679255D01*
X103305565Y-54500000D01*
X103300214Y-54452512D01*
X103285369Y-54320750D01*
X103285368Y-54320745D01*
X103240187Y-54191625D01*
X103225789Y-54150478D01*
X103129816Y-53997738D01*
X103002262Y-53870184D01*
X102849523Y-53774211D01*
X102679254Y-53714631D01*
X102679249Y-53714630D01*
X102500004Y-53694435D01*
X102499996Y-53694435D01*
X102320750Y-53714630D01*
X102320745Y-53714631D01*
X102150476Y-53774211D01*
X101997737Y-53870184D01*
X101870184Y-53997737D01*
X101774211Y-54150476D01*
X101714631Y-54320745D01*
X101714630Y-54320750D01*
X101694435Y-54499996D01*
X101694435Y-54500003D01*
X80817029Y-54500003D01*
X80012365Y-53695339D01*
X79978880Y-53634016D01*
X79976046Y-53607658D01*
X79976046Y-53180279D01*
X79983005Y-53139324D01*
X80006914Y-53070997D01*
X80027111Y-52891742D01*
X80006914Y-52712487D01*
X79947335Y-52542220D01*
X79851362Y-52389480D01*
X79723808Y-52261926D01*
X79571069Y-52165953D01*
X79400800Y-52106373D01*
X79400795Y-52106372D01*
X79221550Y-52086177D01*
X79221542Y-52086177D01*
X79042296Y-52106372D01*
X79042291Y-52106373D01*
X78872022Y-52165953D01*
X78719283Y-52261926D01*
X78591730Y-52389479D01*
X78495757Y-52542218D01*
X78436177Y-52712487D01*
X78436176Y-52712492D01*
X78415981Y-52891738D01*
X78415981Y-52891745D01*
X78436176Y-53070988D01*
X78436178Y-53070998D01*
X78460087Y-53139324D01*
X78467046Y-53180279D01*
X78467046Y-53892098D01*
X78467045Y-53892124D01*
X78467045Y-53897234D01*
X78467045Y-54045858D01*
X78487856Y-54150478D01*
X78496041Y-54191625D01*
X78500656Y-54202766D01*
X78500657Y-54202770D01*
X78552912Y-54328927D01*
X78552918Y-54328938D01*
X78635488Y-54452514D01*
X78635489Y-54452515D01*
X79709181Y-55526206D01*
X79742666Y-55587529D01*
X79745500Y-55613887D01*
X79745500Y-65886112D01*
X79725815Y-65953151D01*
X79709181Y-65973793D01*
X78181357Y-67501616D01*
X78155869Y-67519705D01*
X78156373Y-67520507D01*
X77997737Y-67620184D01*
X77870184Y-67747737D01*
X77774211Y-67900476D01*
X77714631Y-68070745D01*
X77714630Y-68070750D01*
X77694435Y-68249996D01*
X77694435Y-68250003D01*
X73000500Y-68250003D01*
X73000500Y-47374500D01*
X73020185Y-47307461D01*
X73072989Y-47261706D01*
X73124500Y-47250500D01*
X105535299Y-47250500D01*
X105602338Y-47270185D01*
G37*
%TD.AperFunction*%
%TD*%
M02*
