%TF.GenerationSoftware,KiCad,Pcbnew,8.0.1*%
%TF.CreationDate,2024-04-01T15:32:46-05:00*%
%TF.ProjectId,ece445_headset,65636534-3435-45f6-9865-61647365742e,rev?*%
%TF.SameCoordinates,Original*%
%TF.FileFunction,Copper,L1,Top*%
%TF.FilePolarity,Positive*%
%FSLAX46Y46*%
G04 Gerber Fmt 4.6, Leading zero omitted, Abs format (unit mm)*
G04 Created by KiCad (PCBNEW 8.0.1) date 2024-04-01 15:32:46*
%MOMM*%
%LPD*%
G01*
G04 APERTURE LIST*
G04 Aperture macros list*
%AMRoundRect*
0 Rectangle with rounded corners*
0 $1 Rounding radius*
0 $2 $3 $4 $5 $6 $7 $8 $9 X,Y pos of 4 corners*
0 Add a 4 corners polygon primitive as box body*
4,1,4,$2,$3,$4,$5,$6,$7,$8,$9,$2,$3,0*
0 Add four circle primitives for the rounded corners*
1,1,$1+$1,$2,$3*
1,1,$1+$1,$4,$5*
1,1,$1+$1,$6,$7*
1,1,$1+$1,$8,$9*
0 Add four rect primitives between the rounded corners*
20,1,$1+$1,$2,$3,$4,$5,0*
20,1,$1+$1,$4,$5,$6,$7,0*
20,1,$1+$1,$6,$7,$8,$9,0*
20,1,$1+$1,$8,$9,$2,$3,0*%
%AMFreePoly0*
4,1,6,1.000000,0.000000,0.500000,-0.750000,-0.500000,-0.750000,-0.500000,0.750000,0.500000,0.750000,1.000000,0.000000,1.000000,0.000000,$1*%
%AMFreePoly1*
4,1,6,0.500000,-0.750000,-0.650000,-0.750000,-0.150000,0.000000,-0.650000,0.750000,0.500000,0.750000,0.500000,-0.750000,0.500000,-0.750000,$1*%
%AMFreePoly2*
4,1,7,0.700000,0.000000,1.200000,-0.750000,-1.200000,-0.750000,-0.700000,0.000000,-1.200000,0.750000,1.200000,0.750000,0.700000,0.000000,0.700000,0.000000,$1*%
G04 Aperture macros list end*
%TA.AperFunction,SMDPad,CuDef*%
%ADD10RoundRect,0.250000X-0.475000X0.250000X-0.475000X-0.250000X0.475000X-0.250000X0.475000X0.250000X0*%
%TD*%
%TA.AperFunction,ComponentPad*%
%ADD11R,2.600000X2.600000*%
%TD*%
%TA.AperFunction,ComponentPad*%
%ADD12C,2.600000*%
%TD*%
%TA.AperFunction,SMDPad,CuDef*%
%ADD13RoundRect,0.250000X0.475000X-0.250000X0.475000X0.250000X-0.475000X0.250000X-0.475000X-0.250000X0*%
%TD*%
%TA.AperFunction,SMDPad,CuDef*%
%ADD14RoundRect,0.250000X0.262500X0.450000X-0.262500X0.450000X-0.262500X-0.450000X0.262500X-0.450000X0*%
%TD*%
%TA.AperFunction,SMDPad,CuDef*%
%ADD15RoundRect,0.060000X0.615000X-0.240000X0.615000X0.240000X-0.615000X0.240000X-0.615000X-0.240000X0*%
%TD*%
%TA.AperFunction,SMDPad,CuDef*%
%ADD16RoundRect,0.250000X-0.262500X-0.450000X0.262500X-0.450000X0.262500X0.450000X-0.262500X0.450000X0*%
%TD*%
%TA.AperFunction,SMDPad,CuDef*%
%ADD17RoundRect,0.250000X-0.450000X0.262500X-0.450000X-0.262500X0.450000X-0.262500X0.450000X0.262500X0*%
%TD*%
%TA.AperFunction,ComponentPad*%
%ADD18RoundRect,0.250000X0.600000X0.600000X-0.600000X0.600000X-0.600000X-0.600000X0.600000X-0.600000X0*%
%TD*%
%TA.AperFunction,ComponentPad*%
%ADD19C,1.700000*%
%TD*%
%TA.AperFunction,SMDPad,CuDef*%
%ADD20FreePoly0,90.000000*%
%TD*%
%TA.AperFunction,SMDPad,CuDef*%
%ADD21FreePoly1,90.000000*%
%TD*%
%TA.AperFunction,SMDPad,CuDef*%
%ADD22R,1.550000X1.300000*%
%TD*%
%TA.AperFunction,SMDPad,CuDef*%
%ADD23R,1.300000X1.550000*%
%TD*%
%TA.AperFunction,ComponentPad*%
%ADD24O,4.200000X2.100000*%
%TD*%
%TA.AperFunction,ComponentPad*%
%ADD25O,1.800000X3.600000*%
%TD*%
%TA.AperFunction,SMDPad,CuDef*%
%ADD26R,1.498600X0.889000*%
%TD*%
%TA.AperFunction,SMDPad,CuDef*%
%ADD27R,0.889000X1.498600*%
%TD*%
%TA.AperFunction,SMDPad,CuDef*%
%ADD28R,0.889000X0.889000*%
%TD*%
%TA.AperFunction,ComponentPad*%
%ADD29C,2.800000*%
%TD*%
%TA.AperFunction,SMDPad,CuDef*%
%ADD30RoundRect,0.150000X-0.587500X-0.150000X0.587500X-0.150000X0.587500X0.150000X-0.587500X0.150000X0*%
%TD*%
%TA.AperFunction,ComponentPad*%
%ADD31R,1.700000X1.700000*%
%TD*%
%TA.AperFunction,ComponentPad*%
%ADD32O,1.700000X1.700000*%
%TD*%
%TA.AperFunction,SMDPad,CuDef*%
%ADD33FreePoly0,270.000000*%
%TD*%
%TA.AperFunction,SMDPad,CuDef*%
%ADD34FreePoly2,270.000000*%
%TD*%
%TA.AperFunction,ViaPad*%
%ADD35C,0.600000*%
%TD*%
%TA.AperFunction,Conductor*%
%ADD36C,0.508000*%
%TD*%
%TA.AperFunction,Conductor*%
%ADD37C,0.254000*%
%TD*%
G04 APERTURE END LIST*
D10*
%TO.P,C4,1*%
%TO.N,+BATT*%
X84470000Y-68500000D03*
%TO.P,C4,2*%
%TO.N,GND*%
X84470000Y-70400000D03*
%TD*%
D11*
%TO.P,J3,1,Pin_1*%
%TO.N,GND*%
X75955000Y-86305000D03*
D12*
%TO.P,J3,2,Pin_2*%
%TO.N,+BATT*%
X81035000Y-86305000D03*
%TD*%
D10*
%TO.P,C5,1*%
%TO.N,+BATT*%
X82000000Y-68500000D03*
%TO.P,C5,2*%
%TO.N,GND*%
X82000000Y-70400000D03*
%TD*%
D13*
%TO.P,C6,1*%
%TO.N,+3V3*%
X79000000Y-49900000D03*
%TO.P,C6,2*%
%TO.N,GND*%
X79000000Y-48000000D03*
%TD*%
D14*
%TO.P,R3,1*%
%TO.N,/RTS*%
X94912500Y-77000000D03*
%TO.P,R3,2*%
%TO.N,Net-(Q2-B)*%
X93087500Y-77000000D03*
%TD*%
%TO.P,R1,1*%
%TO.N,/GPIO46_STRAPPING*%
X78412500Y-69500000D03*
%TO.P,R1,2*%
%TO.N,+3V3*%
X76587500Y-69500000D03*
%TD*%
%TO.P,R4,1*%
%TO.N,/GPIO3_STRAPPING*%
X78412500Y-67000000D03*
%TO.P,R4,2*%
%TO.N,Net-(JP2-C)*%
X76587500Y-67000000D03*
%TD*%
D13*
%TO.P,C9,1*%
%TO.N,Net-(JP3-A)*%
X77000000Y-79450000D03*
%TO.P,C9,2*%
%TO.N,GND*%
X77000000Y-77550000D03*
%TD*%
D15*
%TO.P,U3,1,VIN*%
%TO.N,+BATT*%
X85685000Y-79450000D03*
%TO.P,U3,2,GND*%
%TO.N,GND*%
X85685000Y-78500000D03*
%TO.P,U3,3,EN*%
%TO.N,+BATT*%
X85685000Y-77550000D03*
%TO.P,U3,4,NC*%
%TO.N,unconnected-(U3-NC-Pad4)*%
X83315000Y-77550000D03*
%TO.P,U3,5,VOUT*%
%TO.N,Net-(JP3-A)*%
X83315000Y-79450000D03*
%TD*%
D16*
%TO.P,R2,1*%
%TO.N,/DTR*%
X93587500Y-80000000D03*
%TO.P,R2,2*%
%TO.N,Net-(Q1-B)*%
X95412500Y-80000000D03*
%TD*%
D17*
%TO.P,R8,1*%
%TO.N,+3V3*%
X90000000Y-69500000D03*
%TO.P,R8,2*%
%TO.N,/GPIO0_STRAPPING*%
X90000000Y-71325000D03*
%TD*%
D18*
%TO.P,J4,1,VTref*%
%TO.N,Net-(J4-VTref)*%
X108500000Y-76000000D03*
D19*
%TO.P,J4,2,SWDIO/TMS*%
%TO.N,/MTMS*%
X105960000Y-76000000D03*
%TO.P,J4,3,GND*%
%TO.N,GND*%
X108500000Y-73460000D03*
%TO.P,J4,4,SWDCLK/TCK*%
%TO.N,/MTCK*%
X105960000Y-73460000D03*
%TO.P,J4,5,GND*%
%TO.N,GND*%
X108500000Y-70920000D03*
%TO.P,J4,6,SWO/TDO*%
%TO.N,/MTDO*%
X105960000Y-70920000D03*
%TO.P,J4,7,KEY*%
%TO.N,unconnected-(J4-KEY-Pad7)*%
X108500000Y-68380000D03*
%TO.P,J4,8,NC/TDI*%
%TO.N,/MTDI*%
X105960000Y-68380000D03*
%TO.P,J4,9,GNDDetect*%
%TO.N,GND*%
X108500000Y-65840000D03*
%TO.P,J4,10,~{RESET}*%
%TO.N,/CHIP_PU*%
X105960000Y-65840000D03*
%TD*%
D20*
%TO.P,JP3,1,A*%
%TO.N,Net-(JP3-A)*%
X74000000Y-75725000D03*
D21*
%TO.P,JP3,2,B*%
%TO.N,+3V3*%
X74000000Y-74275000D03*
%TD*%
D20*
%TO.P,JP1,1,A*%
%TO.N,+3V3*%
X111000000Y-84725000D03*
D21*
%TO.P,JP1,2,B*%
%TO.N,Net-(J4-VTref)*%
X111000000Y-83275000D03*
%TD*%
D17*
%TO.P,R7,1*%
%TO.N,+3V3*%
X79000000Y-52087500D03*
%TO.P,R7,2*%
%TO.N,/CHIP_PU*%
X79000000Y-53912500D03*
%TD*%
D13*
%TO.P,C7,1*%
%TO.N,+3V3*%
X76000000Y-49950000D03*
%TO.P,C7,2*%
%TO.N,GND*%
X76000000Y-48050000D03*
%TD*%
%TO.P,C2,1*%
%TO.N,/CHIP_PU*%
X76000000Y-53950000D03*
%TO.P,C2,2*%
%TO.N,GND*%
X76000000Y-52050000D03*
%TD*%
D22*
%TO.P,SW2,1,1*%
%TO.N,GND*%
X100475000Y-73750000D03*
X92525000Y-73750000D03*
%TO.P,SW2,2,2*%
%TO.N,/GPIO0_STRAPPING*%
X100475000Y-69250000D03*
X92525000Y-69250000D03*
%TD*%
D10*
%TO.P,C3,1*%
%TO.N,/GPIO0_STRAPPING*%
X90000000Y-73462500D03*
%TO.P,C3,2*%
%TO.N,GND*%
X90000000Y-75362500D03*
%TD*%
D23*
%TO.P,SW1,1,1*%
%TO.N,GND*%
X78500000Y-56500000D03*
X78500000Y-64450000D03*
%TO.P,SW1,2,2*%
%TO.N,/CHIP_PU*%
X74000000Y-56500000D03*
X74000000Y-64450000D03*
%TD*%
D24*
%TO.P,J1,1*%
%TO.N,GND*%
X107000000Y-57400000D03*
D25*
%TO.P,J1,2*%
%TO.N,/CSV_OUT*%
X107000000Y-48700000D03*
%TD*%
D26*
%TO.P,U2,1,GND*%
%TO.N,GND*%
X82000000Y-48000000D03*
%TO.P,U2,2,3V3*%
%TO.N,+3V3*%
X82000000Y-49270000D03*
%TO.P,U2,3,EN*%
%TO.N,/CHIP_PU*%
X82000000Y-50540000D03*
%TO.P,U2,4,IO4*%
%TO.N,/GPIO4*%
X82000000Y-51810000D03*
%TO.P,U2,5,IO5*%
%TO.N,/GPIO5*%
X82000000Y-53080000D03*
%TO.P,U2,6,IO6*%
%TO.N,/GPIO6*%
X82000000Y-54350000D03*
%TO.P,U2,7,IO7*%
%TO.N,/GPIO7*%
X82000000Y-55620000D03*
%TO.P,U2,8,IO15*%
%TO.N,/GPIO15*%
X82000000Y-56890000D03*
%TO.P,U2,9,IO16*%
%TO.N,/GPIO16*%
X82000000Y-58160000D03*
%TO.P,U2,10,IO17*%
%TO.N,/GPIO17*%
X82000000Y-59430000D03*
%TO.P,U2,11,IO18*%
%TO.N,/GPIO18*%
X82000000Y-60700000D03*
%TO.P,U2,12,IO8*%
%TO.N,/GPIO8*%
X82000000Y-61970000D03*
%TO.P,U2,13,IO19*%
%TO.N,/GPIO19*%
X82000000Y-63240000D03*
%TO.P,U2,14,IO20*%
%TO.N,/GPIO20*%
X82000000Y-64510000D03*
D27*
%TO.P,U2,15,IO3*%
%TO.N,/GPIO3_STRAPPING*%
X83765000Y-65760000D03*
%TO.P,U2,16,IO46*%
%TO.N,/GPIO46_STRAPPING*%
X85035000Y-65760000D03*
%TO.P,U2,17,IO9*%
%TO.N,/GPIO9*%
X86305000Y-65760000D03*
%TO.P,U2,18,IO10*%
%TO.N,/GPIO10*%
X87575000Y-65760000D03*
%TO.P,U2,19,IO11*%
%TO.N,/GPIO11*%
X88845000Y-65760000D03*
%TO.P,U2,20,IO12*%
%TO.N,/GPIO12*%
X90115000Y-65760000D03*
%TO.P,U2,21,IO13*%
%TO.N,/GPIO21*%
X91385000Y-65760000D03*
%TO.P,U2,22,IO14*%
%TO.N,/GPIO14*%
X92655000Y-65760000D03*
%TO.P,U2,23,IO21*%
%TO.N,/GPIO23*%
X93925000Y-65760000D03*
%TO.P,U2,24,IO47*%
%TO.N,/GPIO24*%
X95195000Y-65760000D03*
%TO.P,U2,25,IO48*%
%TO.N,/GPIO48*%
X96465000Y-65760000D03*
%TO.P,U2,26,IO45*%
%TO.N,/GPIO45_STRAPPING*%
X97735000Y-65760000D03*
D26*
%TO.P,U2,27,IO0*%
%TO.N,/GPIO0_STRAPPING*%
X99500000Y-64510000D03*
%TO.P,U2,28,IO35*%
%TO.N,/GPIO28*%
X99500000Y-63240000D03*
%TO.P,U2,29,IO36*%
%TO.N,/GPIO29*%
X99500000Y-61970000D03*
%TO.P,U2,30,IO37*%
%TO.N,/GPIO37*%
X99500000Y-60700000D03*
%TO.P,U2,31,IO38*%
%TO.N,/GPIO38*%
X99500000Y-59430000D03*
%TO.P,U2,32,IO39*%
%TO.N,/MTCK*%
X99500000Y-58160000D03*
%TO.P,U2,33,IO40*%
%TO.N,/MTDO*%
X99500000Y-56890000D03*
%TO.P,U2,34,IO41*%
%TO.N,/MTDI*%
X99500000Y-55620000D03*
%TO.P,U2,35,IO42*%
%TO.N,/MTMS*%
X99500000Y-54350000D03*
%TO.P,U2,36,RXD0*%
%TO.N,/RX*%
X99500000Y-53080000D03*
%TO.P,U2,37,TXD0*%
%TO.N,/TX*%
X99500000Y-51810000D03*
%TO.P,U2,38,IO2*%
%TO.N,/CSV_OUT*%
X99500000Y-50540000D03*
%TO.P,U2,39,IO1*%
%TO.N,/GPIO1*%
X99500000Y-49270000D03*
%TO.P,U2,40,GND*%
%TO.N,GND*%
X99500000Y-48000000D03*
D28*
%TO.P,U2,41,GND*%
X89500000Y-55720000D03*
%TO.P,U2,42,GND*%
X89500000Y-54320000D03*
%TO.P,U2,43,GND*%
X88100000Y-54320000D03*
%TO.P,U2,44,GND*%
X88100000Y-55720000D03*
%TO.P,U2,45,GND*%
X88100000Y-57120000D03*
%TO.P,U2,46,GND*%
X89500000Y-57120000D03*
%TO.P,U2,47,GND*%
X90900000Y-57120000D03*
%TO.P,U2,48,GND*%
X90900000Y-55720000D03*
%TO.P,U2,49,GND*%
X90900000Y-54320000D03*
%TD*%
D13*
%TO.P,C8,1*%
%TO.N,Net-(JP3-A)*%
X80000000Y-79450000D03*
%TO.P,C8,2*%
%TO.N,GND*%
X80000000Y-77550000D03*
%TD*%
D29*
%TO.P,TP1,1,1*%
%TO.N,Net-(JP3-A)*%
X78000000Y-74000000D03*
%TD*%
D30*
%TO.P,Q1,1,B*%
%TO.N,Net-(Q1-B)*%
X98500000Y-79100000D03*
%TO.P,Q1,2,E*%
%TO.N,/RTS*%
X98500000Y-81000000D03*
%TO.P,Q1,3,C*%
%TO.N,Net-(Q1-C)*%
X100375000Y-80050000D03*
%TD*%
D14*
%TO.P,R6,1*%
%TO.N,Net-(Q2-C)*%
X90412500Y-78500000D03*
%TO.P,R6,2*%
%TO.N,/GPIO0_STRAPPING*%
X88587500Y-78500000D03*
%TD*%
D31*
%TO.P,J2,1,Pin_1*%
%TO.N,/RTS*%
X96380000Y-84000000D03*
D32*
%TO.P,J2,2,Pin_2*%
%TO.N,/DTR*%
X98920000Y-84000000D03*
%TO.P,J2,3,Pin_3*%
%TO.N,/TX*%
X101460000Y-84000000D03*
%TO.P,J2,4,Pin_4*%
%TO.N,/RX*%
X104000000Y-84000000D03*
%TO.P,J2,5,Pin_5*%
%TO.N,GND*%
X106540000Y-84000000D03*
%TD*%
D14*
%TO.P,R5,1*%
%TO.N,Net-(Q1-C)*%
X100000000Y-77000000D03*
%TO.P,R5,2*%
%TO.N,/CHIP_PU*%
X98175000Y-77000000D03*
%TD*%
D30*
%TO.P,Q2,1,B*%
%TO.N,Net-(Q2-B)*%
X88625000Y-81050000D03*
%TO.P,Q2,2,E*%
%TO.N,/DTR*%
X88625000Y-82950000D03*
%TO.P,Q2,3,C*%
%TO.N,Net-(Q2-C)*%
X90500000Y-82000000D03*
%TD*%
D10*
%TO.P,C1,1*%
%TO.N,+BATT*%
X87000000Y-68500000D03*
%TO.P,C1,2*%
%TO.N,GND*%
X87000000Y-70400000D03*
%TD*%
D33*
%TO.P,JP2,1,A*%
%TO.N,GND*%
X74000000Y-67000000D03*
D34*
%TO.P,JP2,2,C*%
%TO.N,Net-(JP2-C)*%
X74000000Y-69000000D03*
D20*
%TO.P,JP2,3,B*%
%TO.N,+3V3*%
X74000000Y-71000000D03*
%TD*%
D29*
%TO.P,TP2,1,1*%
%TO.N,GND*%
X85500000Y-74500000D03*
%TD*%
D35*
%TO.N,GND*%
X95250000Y-70500000D03*
X91500000Y-58500000D03*
X82000000Y-81250000D03*
X108750000Y-80750000D03*
X90000000Y-53000000D03*
X83500000Y-48000000D03*
X100500000Y-75000000D03*
X106000000Y-61750000D03*
X74750000Y-52000000D03*
X97250000Y-71500000D03*
X77500000Y-48000000D03*
X91000000Y-53000000D03*
X107000000Y-61750000D03*
X96250000Y-71500000D03*
X81000000Y-82250000D03*
X80500000Y-48000000D03*
X86500000Y-56500000D03*
X79000000Y-59000000D03*
X84500000Y-78500000D03*
X98000000Y-48000000D03*
X106750000Y-80750000D03*
X79000000Y-82250000D03*
X90500000Y-58500000D03*
X101000000Y-48000000D03*
X96250000Y-72500000D03*
X106750000Y-81750000D03*
X81250000Y-75500000D03*
X92500000Y-56000000D03*
X105750000Y-80750000D03*
X107000000Y-60750000D03*
X107750000Y-80750000D03*
X81250000Y-73500000D03*
X97250000Y-70500000D03*
X82250000Y-72500000D03*
X107750000Y-81750000D03*
X92500000Y-54000000D03*
X79000000Y-60500000D03*
X73500000Y-66000000D03*
X105750000Y-81750000D03*
X100500000Y-72500000D03*
X108000000Y-62750000D03*
X74500000Y-48000000D03*
X74750000Y-66000000D03*
X80000000Y-81250000D03*
X82250000Y-74500000D03*
X95250000Y-72500000D03*
X81250000Y-72500000D03*
X79000000Y-81250000D03*
X89000000Y-53000000D03*
X102000000Y-73750000D03*
X82250000Y-73500000D03*
X89500000Y-58500000D03*
X99000000Y-73750000D03*
X86500000Y-57500000D03*
X82000000Y-82250000D03*
X106000000Y-60750000D03*
X107000000Y-62750000D03*
X92500000Y-55000000D03*
X95250000Y-71500000D03*
X86500000Y-55500000D03*
X77500000Y-52000000D03*
X77500000Y-60500000D03*
X97250000Y-72500000D03*
X81000000Y-81250000D03*
X82250000Y-75500000D03*
X79000000Y-62000000D03*
X88000000Y-53000000D03*
X81250000Y-74500000D03*
X86500000Y-54500000D03*
X108000000Y-61750000D03*
X108750000Y-81750000D03*
X108000000Y-60750000D03*
X106000000Y-62750000D03*
X77500000Y-59000000D03*
X88000000Y-58500000D03*
X92500000Y-57000000D03*
X80000000Y-82250000D03*
X77500000Y-62000000D03*
X96250000Y-70500000D03*
%TO.N,/CHIP_PU*%
X98250000Y-64249302D03*
X101250000Y-70500000D03*
%TO.N,+3V3*%
X75500000Y-74000000D03*
X79221546Y-52891742D03*
X88933000Y-70637474D03*
X78500000Y-68250000D03*
X95750000Y-85804000D03*
%TO.N,/TX*%
X102627000Y-56514783D03*
X102757886Y-67115104D03*
X102735617Y-71014383D03*
X102500000Y-54500000D03*
%TO.N,/RX*%
X103385800Y-67749086D03*
X103301070Y-71579836D03*
%TO.N,/MTMS*%
X102131856Y-66495144D03*
X102056644Y-69693356D03*
%TD*%
D36*
%TO.N,+BATT*%
X85685000Y-79450000D02*
X86359999Y-79450000D01*
X87000000Y-68500000D02*
X88179000Y-69679000D01*
X82000000Y-68500000D02*
X84470000Y-68500000D01*
X86359999Y-77550000D02*
X85685000Y-77550000D01*
X87000000Y-68500000D02*
X84470000Y-68500000D01*
X87000000Y-68500000D02*
X87000000Y-68641658D01*
X88179000Y-75056000D02*
X85685000Y-77550000D01*
X86814000Y-78995999D02*
X86814000Y-78004001D01*
X86814000Y-78004001D02*
X86359999Y-77550000D01*
X88179000Y-69679000D02*
X88179000Y-75056000D01*
X85685000Y-81655000D02*
X85685000Y-79450000D01*
X81035000Y-86305000D02*
X85685000Y-81655000D01*
X86359999Y-79450000D02*
X86814000Y-78995999D01*
D37*
%TO.N,/CHIP_PU*%
X76050000Y-54000000D02*
X76000000Y-53950000D01*
X98250000Y-64249302D02*
X98250000Y-54250000D01*
X80500000Y-51036700D02*
X80500000Y-52500000D01*
X74000000Y-55950000D02*
X74000000Y-56500000D01*
X101250000Y-70500000D02*
X98175000Y-73575000D01*
X98250698Y-64250000D02*
X98250000Y-64249302D01*
X74000000Y-56500000D02*
X74000000Y-64450000D01*
X98250000Y-54250000D02*
X94500000Y-50500000D01*
X94500000Y-50500000D02*
X81036700Y-50500000D01*
X81036700Y-50500000D02*
X80500000Y-51036700D01*
X98175000Y-73575000D02*
X98175000Y-77000000D01*
X76000000Y-53950000D02*
X74000000Y-55950000D01*
X79000000Y-54000000D02*
X76050000Y-54000000D01*
X94540000Y-50540000D02*
X82000000Y-50540000D01*
X80500000Y-52500000D02*
X79000000Y-54000000D01*
%TO.N,/GPIO0_STRAPPING*%
X99500000Y-67775000D02*
X100475000Y-68750000D01*
X88587500Y-78500000D02*
X88760000Y-78327500D01*
X90000000Y-71325000D02*
X90000000Y-71275000D01*
X88760000Y-78327500D02*
X88760000Y-74702500D01*
X88760000Y-74702500D02*
X90000000Y-73462500D01*
X90000000Y-71275000D02*
X92525000Y-68750000D01*
X92525000Y-68750000D02*
X100475000Y-68750000D01*
X90000000Y-73462500D02*
X90000000Y-71325000D01*
X99500000Y-64510000D02*
X99500000Y-67775000D01*
D36*
%TO.N,+3V3*%
X95796000Y-85758000D02*
X109967000Y-85758000D01*
X74000000Y-73250000D02*
X74750000Y-73250000D01*
X74000000Y-73250000D02*
X74000000Y-74266097D01*
X77837500Y-68250000D02*
X76587500Y-69500000D01*
X109967000Y-85758000D02*
X111000000Y-84725000D01*
X79221546Y-52309046D02*
X79000000Y-52087500D01*
X74000000Y-71000000D02*
X74000000Y-73250000D01*
X95750000Y-85804000D02*
X95796000Y-85758000D01*
X74750000Y-73250000D02*
X75500000Y-74000000D01*
X76000000Y-49950000D02*
X78950000Y-49950000D01*
X76000000Y-49950000D02*
X76000000Y-50000000D01*
X76587500Y-69500000D02*
X75087500Y-71000000D01*
X88933000Y-70567000D02*
X90000000Y-69500000D01*
X75087500Y-71000000D02*
X74000000Y-71000000D01*
X79630000Y-49270000D02*
X82000000Y-49270000D01*
X79000000Y-49900000D02*
X79000000Y-52087500D01*
X88933000Y-70637474D02*
X88933000Y-70567000D01*
X79221546Y-52891742D02*
X79221546Y-52309046D01*
X78950000Y-49950000D02*
X79000000Y-49900000D01*
X79000000Y-49900000D02*
X79630000Y-49270000D01*
X78500000Y-68250000D02*
X77837500Y-68250000D01*
%TO.N,Net-(JP3-A)*%
X76275000Y-75725000D02*
X78000000Y-74000000D01*
X80000000Y-79450000D02*
X83315000Y-79450000D01*
X77000000Y-79450000D02*
X80000000Y-79450000D01*
X77000000Y-79450000D02*
X74000000Y-76450000D01*
X74000000Y-76450000D02*
X74000000Y-75725000D01*
X74000000Y-75725000D02*
X76275000Y-75725000D01*
D37*
%TO.N,/DTR*%
X98920000Y-84000000D02*
X97743000Y-85177000D01*
X91337500Y-82950000D02*
X93587500Y-80700000D01*
X88625000Y-82950000D02*
X91337500Y-82950000D01*
X90852000Y-85177000D02*
X88625000Y-82950000D01*
X97743000Y-85177000D02*
X90852000Y-85177000D01*
X93587500Y-80700000D02*
X93587500Y-80000000D01*
%TO.N,/TX*%
X98922200Y-51810000D02*
X99500000Y-51810000D01*
X102758856Y-66991144D02*
X102758856Y-67114134D01*
X103500000Y-81960000D02*
X101460000Y-84000000D01*
X100060000Y-51810000D02*
X99500000Y-51810000D01*
X102674070Y-71839548D02*
X103500000Y-72665478D01*
X102627000Y-56514783D02*
X102758856Y-56646639D01*
X102674070Y-71075930D02*
X102674070Y-71839548D01*
X102735617Y-71014383D02*
X102674070Y-71075930D01*
X103500000Y-72665478D02*
X103500000Y-81960000D01*
X102500000Y-54250000D02*
X100060000Y-51810000D01*
X102758856Y-67114134D02*
X102757886Y-67115104D01*
X102500000Y-54500000D02*
X102500000Y-54250000D01*
X102758856Y-56646639D02*
X102758856Y-66991144D01*
%TO.N,/RTS*%
X94912500Y-77000000D02*
X94573000Y-77339500D01*
X96380000Y-83120000D02*
X98500000Y-81000000D01*
X95177072Y-81300000D02*
X98200000Y-81300000D01*
X98200000Y-81300000D02*
X98500000Y-81000000D01*
X94573000Y-80695928D02*
X95177072Y-81300000D01*
X96380000Y-84000000D02*
X96380000Y-83120000D01*
X94573000Y-77339500D02*
X94573000Y-80695928D01*
%TO.N,/RX*%
X103250000Y-56778495D02*
X103254000Y-56774495D01*
X103254000Y-56256200D02*
X100077800Y-53080000D01*
X103385800Y-67749086D02*
X103385800Y-66862376D01*
X100077800Y-53080000D02*
X99500000Y-53080000D01*
X103301070Y-71579836D02*
X104000000Y-72278766D01*
X98922200Y-53080000D02*
X99500000Y-53080000D01*
X103385800Y-66862376D02*
X103250000Y-66726576D01*
X103254000Y-56774495D02*
X103254000Y-56256200D01*
X104000000Y-72278766D02*
X104000000Y-84000000D01*
X103250000Y-66726576D02*
X103250000Y-56778495D01*
%TO.N,/MTMS*%
X102056644Y-69693356D02*
X102301304Y-69693356D01*
X102000000Y-56272200D02*
X100077800Y-54350000D01*
X102056644Y-69693356D02*
X101928974Y-69821026D01*
X100077800Y-54350000D02*
X99500000Y-54350000D01*
X102131856Y-66495144D02*
X102000000Y-66363288D01*
X102301304Y-69693356D02*
X104783000Y-72175052D01*
X104783000Y-72175052D02*
X104783000Y-74823000D01*
X102000000Y-66363288D02*
X102000000Y-56272200D01*
X104783000Y-74823000D02*
X105960000Y-76000000D01*
%TO.N,/MTDO*%
X105960000Y-70920000D02*
X104920000Y-70920000D01*
X104920000Y-70920000D02*
X101030300Y-67030300D01*
X101030300Y-67030300D02*
X101030300Y-57417000D01*
X100503300Y-56890000D02*
X99500000Y-56890000D01*
X101030300Y-57417000D02*
X100503300Y-56890000D01*
%TO.N,/MTDI*%
X100503300Y-55620000D02*
X99500000Y-55620000D01*
X103130000Y-68380000D02*
X101500000Y-66750000D01*
X101500000Y-56616700D02*
X100503300Y-55620000D01*
X101500000Y-66750000D02*
X101500000Y-56616700D01*
X105960000Y-68380000D02*
X103130000Y-68380000D01*
%TO.N,/MTCK*%
X100077800Y-58160000D02*
X100576300Y-58658500D01*
X100576300Y-67326300D02*
X105960000Y-72710000D01*
X99500000Y-58160000D02*
X100077800Y-58160000D01*
X105960000Y-72710000D02*
X105960000Y-73460000D01*
X100576300Y-58658500D02*
X100576300Y-67326300D01*
%TO.N,/CSV_OUT*%
X107500000Y-48800000D02*
X105760000Y-50540000D01*
X105760000Y-50540000D02*
X99500000Y-50540000D01*
%TO.N,Net-(JP2-C)*%
X76000000Y-67000000D02*
X74000000Y-69000000D01*
X76587500Y-67000000D02*
X76000000Y-67000000D01*
%TO.N,Net-(Q2-C)*%
X90412500Y-78500000D02*
X90412500Y-81912500D01*
X90412500Y-81912500D02*
X90500000Y-82000000D01*
%TO.N,Net-(Q2-B)*%
X89427000Y-80248000D02*
X89427000Y-77573000D01*
X90000000Y-77000000D02*
X93087500Y-77000000D01*
X88625000Y-81050000D02*
X89427000Y-80248000D01*
X89427000Y-77573000D02*
X90000000Y-77000000D01*
D36*
%TO.N,Net-(J4-VTref)*%
X108500000Y-76000000D02*
X111000000Y-78500000D01*
X111000000Y-78500000D02*
X111000000Y-83266097D01*
D37*
%TO.N,/GPIO46_STRAPPING*%
X80912500Y-67000000D02*
X84372800Y-67000000D01*
X78412500Y-69500000D02*
X80912500Y-67000000D01*
X85035000Y-66337800D02*
X85035000Y-65760000D01*
X84372800Y-67000000D02*
X85035000Y-66337800D01*
%TO.N,/GPIO3_STRAPPING*%
X79652500Y-65760000D02*
X78412500Y-67000000D01*
X83765000Y-65760000D02*
X79652500Y-65760000D01*
%TO.N,Net-(Q1-C)*%
X100000000Y-79675000D02*
X100375000Y-80050000D01*
X100000000Y-77000000D02*
X100000000Y-79675000D01*
%TO.N,Net-(Q1-B)*%
X95412500Y-80000000D02*
X97600000Y-80000000D01*
X97600000Y-80000000D02*
X98500000Y-79100000D01*
%TD*%
%TA.AperFunction,Conductor*%
%TO.N,GND*%
G36*
X73232766Y-76728022D02*
G01*
X73296320Y-76757045D01*
X73329679Y-76803306D01*
X73331368Y-76807385D01*
X73331372Y-76807392D01*
X73413942Y-76930968D01*
X73413943Y-76930969D01*
X75738181Y-79255205D01*
X75771666Y-79316528D01*
X75774500Y-79342886D01*
X75774500Y-79750001D01*
X75774501Y-79750019D01*
X75785000Y-79852796D01*
X75785001Y-79852799D01*
X75840185Y-80019331D01*
X75840187Y-80019336D01*
X75874829Y-80075500D01*
X75932288Y-80168656D01*
X76056344Y-80292712D01*
X76205666Y-80384814D01*
X76372203Y-80439999D01*
X76474991Y-80450500D01*
X77525008Y-80450499D01*
X77525016Y-80450498D01*
X77525019Y-80450498D01*
X77581302Y-80444748D01*
X77627797Y-80439999D01*
X77794334Y-80384814D01*
X77943656Y-80292712D01*
X77995549Y-80240819D01*
X78056872Y-80207334D01*
X78083230Y-80204500D01*
X78916770Y-80204500D01*
X78983809Y-80224185D01*
X79004451Y-80240819D01*
X79056344Y-80292712D01*
X79205666Y-80384814D01*
X79372203Y-80439999D01*
X79474991Y-80450500D01*
X80525008Y-80450499D01*
X80525016Y-80450498D01*
X80525019Y-80450498D01*
X80581302Y-80444748D01*
X80627797Y-80439999D01*
X80794334Y-80384814D01*
X80943656Y-80292712D01*
X80995549Y-80240819D01*
X81056872Y-80207334D01*
X81083230Y-80204500D01*
X82452789Y-80204500D01*
X82500241Y-80213938D01*
X82553680Y-80236074D01*
X82663259Y-80250500D01*
X83966740Y-80250499D01*
X83966742Y-80250499D01*
X84040274Y-80240819D01*
X84076320Y-80236074D01*
X84212669Y-80179596D01*
X84329754Y-80089754D01*
X84401625Y-79996089D01*
X84458052Y-79954887D01*
X84527798Y-79950732D01*
X84588718Y-79984944D01*
X84598371Y-79996084D01*
X84670246Y-80089754D01*
X84764564Y-80162126D01*
X84787331Y-80179596D01*
X84853953Y-80207192D01*
X84908356Y-80251033D01*
X84930421Y-80317327D01*
X84930500Y-80321753D01*
X84930500Y-81291112D01*
X84910815Y-81358151D01*
X84894181Y-81378793D01*
X81712373Y-84560601D01*
X81651050Y-84594086D01*
X81588142Y-84591411D01*
X81436773Y-84544720D01*
X81436767Y-84544718D01*
X81169936Y-84504500D01*
X81169929Y-84504500D01*
X80900071Y-84504500D01*
X80900063Y-84504500D01*
X80633232Y-84544718D01*
X80633226Y-84544720D01*
X80375358Y-84624262D01*
X80132230Y-84741346D01*
X79909258Y-84893365D01*
X79711442Y-85076910D01*
X79543185Y-85287898D01*
X79408258Y-85521599D01*
X79408256Y-85521603D01*
X79309666Y-85772804D01*
X79309664Y-85772811D01*
X79249616Y-86035898D01*
X79229451Y-86304995D01*
X79229451Y-86305004D01*
X79249616Y-86574101D01*
X79309664Y-86837188D01*
X79309666Y-86837195D01*
X79355901Y-86955000D01*
X79408257Y-87088398D01*
X79543185Y-87322102D01*
X79679080Y-87492509D01*
X79711442Y-87533089D01*
X79898183Y-87706358D01*
X79909259Y-87716635D01*
X80132226Y-87868651D01*
X80375359Y-87985738D01*
X80633228Y-88065280D01*
X80633229Y-88065280D01*
X80633232Y-88065281D01*
X80900063Y-88105499D01*
X80900068Y-88105499D01*
X80900071Y-88105500D01*
X80900072Y-88105500D01*
X81169928Y-88105500D01*
X81169929Y-88105500D01*
X81169936Y-88105499D01*
X81436767Y-88065281D01*
X81436768Y-88065280D01*
X81436772Y-88065280D01*
X81694641Y-87985738D01*
X81937775Y-87868651D01*
X82160741Y-87716635D01*
X82358561Y-87533085D01*
X82526815Y-87322102D01*
X82661743Y-87088398D01*
X82760334Y-86837195D01*
X82820383Y-86574103D01*
X82837622Y-86344056D01*
X82840549Y-86305004D01*
X82840549Y-86304995D01*
X82823744Y-86080747D01*
X82820383Y-86035897D01*
X82760334Y-85772805D01*
X82754448Y-85757810D01*
X82748280Y-85688215D01*
X82780717Y-85626331D01*
X82782135Y-85624888D01*
X86271059Y-82135966D01*
X86353630Y-82012389D01*
X86398780Y-81903386D01*
X86410505Y-81875080D01*
X86415394Y-81850500D01*
X86439501Y-81729312D01*
X86439501Y-81580688D01*
X86439501Y-81575578D01*
X86439500Y-81575552D01*
X86439500Y-80321753D01*
X86459185Y-80254714D01*
X86511989Y-80208959D01*
X86516047Y-80207192D01*
X86522546Y-80204500D01*
X86582669Y-80179596D01*
X86584336Y-80178316D01*
X86612378Y-80162126D01*
X86656338Y-80143918D01*
X86677921Y-80134977D01*
X86717388Y-80118630D01*
X86840965Y-80036059D01*
X87294963Y-79582059D01*
X87294966Y-79582058D01*
X87400059Y-79476965D01*
X87482629Y-79353389D01*
X87482631Y-79353383D01*
X87484240Y-79350976D01*
X87537852Y-79306171D01*
X87607177Y-79297463D01*
X87670205Y-79327617D01*
X87692881Y-79354768D01*
X87719056Y-79397204D01*
X87732288Y-79418656D01*
X87856344Y-79542712D01*
X88005666Y-79634814D01*
X88172203Y-79689999D01*
X88274991Y-79700500D01*
X88675500Y-79700499D01*
X88742539Y-79720183D01*
X88788294Y-79772987D01*
X88799500Y-79824499D01*
X88799500Y-79936719D01*
X88779815Y-80003758D01*
X88763181Y-80024400D01*
X88574400Y-80213181D01*
X88513077Y-80246666D01*
X88486719Y-80249500D01*
X87971798Y-80249500D01*
X87934932Y-80252401D01*
X87934926Y-80252402D01*
X87777106Y-80298254D01*
X87777103Y-80298255D01*
X87635637Y-80381917D01*
X87635629Y-80381923D01*
X87519423Y-80498129D01*
X87519417Y-80498137D01*
X87435755Y-80639603D01*
X87435754Y-80639606D01*
X87389902Y-80797426D01*
X87389901Y-80797432D01*
X87387000Y-80834298D01*
X87387000Y-81265701D01*
X87389901Y-81302567D01*
X87389902Y-81302573D01*
X87435754Y-81460393D01*
X87435755Y-81460396D01*
X87519417Y-81601862D01*
X87519423Y-81601870D01*
X87635629Y-81718076D01*
X87635633Y-81718079D01*
X87635635Y-81718081D01*
X87777102Y-81801744D01*
X87782575Y-81803334D01*
X87934926Y-81847597D01*
X87934929Y-81847597D01*
X87934931Y-81847598D01*
X87971806Y-81850500D01*
X89138000Y-81850500D01*
X89205039Y-81870185D01*
X89250794Y-81922989D01*
X89262000Y-81974500D01*
X89262000Y-82025500D01*
X89242315Y-82092539D01*
X89189511Y-82138294D01*
X89138000Y-82149500D01*
X87971798Y-82149500D01*
X87934932Y-82152401D01*
X87934926Y-82152402D01*
X87777106Y-82198254D01*
X87777103Y-82198255D01*
X87635637Y-82281917D01*
X87635629Y-82281923D01*
X87519423Y-82398129D01*
X87519417Y-82398137D01*
X87435755Y-82539603D01*
X87435754Y-82539606D01*
X87389902Y-82697426D01*
X87389901Y-82697432D01*
X87387000Y-82734298D01*
X87387000Y-83165701D01*
X87389901Y-83202567D01*
X87389902Y-83202573D01*
X87435754Y-83360393D01*
X87435755Y-83360396D01*
X87519417Y-83501862D01*
X87519423Y-83501870D01*
X87635629Y-83618076D01*
X87635633Y-83618079D01*
X87635635Y-83618081D01*
X87777102Y-83701744D01*
X87818724Y-83713836D01*
X87934926Y-83747597D01*
X87934929Y-83747597D01*
X87934931Y-83747598D01*
X87971806Y-83750500D01*
X88486719Y-83750500D01*
X88553758Y-83770185D01*
X88574400Y-83786819D01*
X90364589Y-85577008D01*
X90412408Y-85624827D01*
X90451994Y-85664413D01*
X90451996Y-85664414D01*
X90554756Y-85733076D01*
X90554758Y-85733077D01*
X90554767Y-85733083D01*
X90579772Y-85743440D01*
X90602071Y-85752677D01*
X90636213Y-85766819D01*
X90668966Y-85780386D01*
X90768137Y-85800112D01*
X90790192Y-85804499D01*
X90790196Y-85804500D01*
X90790197Y-85804500D01*
X94833678Y-85804500D01*
X94900717Y-85824185D01*
X94946472Y-85876989D01*
X94956898Y-85914617D01*
X94964630Y-85983249D01*
X95024210Y-86153521D01*
X95024211Y-86153522D01*
X95120184Y-86306262D01*
X95247738Y-86433816D01*
X95326814Y-86483503D01*
X95395671Y-86526769D01*
X95400478Y-86529789D01*
X95527120Y-86574103D01*
X95570745Y-86589368D01*
X95570750Y-86589369D01*
X95749996Y-86609565D01*
X95750000Y-86609565D01*
X95750004Y-86609565D01*
X95929249Y-86589369D01*
X95929252Y-86589368D01*
X95929255Y-86589368D01*
X96099522Y-86529789D01*
X96099523Y-86529787D01*
X96099529Y-86529786D01*
X96105795Y-86526769D01*
X96106701Y-86528650D01*
X96162762Y-86512500D01*
X109886554Y-86512500D01*
X109886574Y-86512501D01*
X109892688Y-86512501D01*
X110041314Y-86512501D01*
X110162894Y-86488315D01*
X110162894Y-86488316D01*
X110162900Y-86488313D01*
X110187080Y-86483505D01*
X110257104Y-86454500D01*
X110324389Y-86426630D01*
X110447966Y-86344059D01*
X111025205Y-85766818D01*
X111086528Y-85733334D01*
X111112886Y-85730500D01*
X111750000Y-85730500D01*
X111821940Y-85725355D01*
X111840562Y-85719886D01*
X111910432Y-85719885D01*
X111969211Y-85757658D01*
X111998237Y-85821213D01*
X111999500Y-85838863D01*
X111999500Y-90875500D01*
X111979815Y-90942539D01*
X111927011Y-90988294D01*
X111875500Y-90999500D01*
X73124500Y-90999500D01*
X73057461Y-90979815D01*
X73011706Y-90927011D01*
X73000500Y-90875500D01*
X73000500Y-87652844D01*
X74155000Y-87652844D01*
X74161401Y-87712372D01*
X74161403Y-87712379D01*
X74211645Y-87847086D01*
X74211649Y-87847093D01*
X74297809Y-87962187D01*
X74297812Y-87962190D01*
X74412906Y-88048350D01*
X74412913Y-88048354D01*
X74547620Y-88098596D01*
X74547627Y-88098598D01*
X74607155Y-88104999D01*
X74607172Y-88105000D01*
X75705000Y-88105000D01*
X75705000Y-86905001D01*
X75765402Y-86930021D01*
X75890981Y-86955000D01*
X76019019Y-86955000D01*
X76144598Y-86930021D01*
X76205000Y-86905001D01*
X76205000Y-88105000D01*
X77302828Y-88105000D01*
X77302844Y-88104999D01*
X77362372Y-88098598D01*
X77362379Y-88098596D01*
X77497086Y-88048354D01*
X77497093Y-88048350D01*
X77612187Y-87962190D01*
X77612190Y-87962187D01*
X77698350Y-87847093D01*
X77698354Y-87847086D01*
X77748596Y-87712379D01*
X77748598Y-87712372D01*
X77754999Y-87652844D01*
X77755000Y-87652827D01*
X77755000Y-86555000D01*
X76555001Y-86555000D01*
X76580021Y-86494598D01*
X76605000Y-86369019D01*
X76605000Y-86240981D01*
X76580021Y-86115402D01*
X76555001Y-86055000D01*
X77755000Y-86055000D01*
X77755000Y-84957172D01*
X77754999Y-84957155D01*
X77748598Y-84897627D01*
X77748596Y-84897620D01*
X77698354Y-84762913D01*
X77698350Y-84762906D01*
X77612190Y-84647812D01*
X77612187Y-84647809D01*
X77497093Y-84561649D01*
X77497086Y-84561645D01*
X77362379Y-84511403D01*
X77362372Y-84511401D01*
X77302844Y-84505000D01*
X76205000Y-84505000D01*
X76205000Y-85704998D01*
X76144598Y-85679979D01*
X76019019Y-85655000D01*
X75890981Y-85655000D01*
X75765402Y-85679979D01*
X75705000Y-85704998D01*
X75705000Y-84505000D01*
X74607155Y-84505000D01*
X74547627Y-84511401D01*
X74547620Y-84511403D01*
X74412913Y-84561645D01*
X74412906Y-84561649D01*
X74297812Y-84647809D01*
X74297809Y-84647812D01*
X74211649Y-84762906D01*
X74211645Y-84762913D01*
X74161403Y-84897620D01*
X74161401Y-84897627D01*
X74155000Y-84957155D01*
X74155000Y-86055000D01*
X75354999Y-86055000D01*
X75329979Y-86115402D01*
X75305000Y-86240981D01*
X75305000Y-86369019D01*
X75329979Y-86494598D01*
X75354999Y-86555000D01*
X74155000Y-86555000D01*
X74155000Y-87652844D01*
X73000500Y-87652844D01*
X73000500Y-76837731D01*
X73020185Y-76770692D01*
X73072989Y-76724937D01*
X73142145Y-76714993D01*
X73232766Y-76728022D01*
G37*
%TD.AperFunction*%
%TA.AperFunction,Conductor*%
G36*
X104832703Y-76751083D02*
G01*
X104853075Y-76773673D01*
X104919109Y-76867980D01*
X104921505Y-76871401D01*
X105088599Y-77038495D01*
X105131675Y-77068657D01*
X105282165Y-77174032D01*
X105282167Y-77174033D01*
X105282170Y-77174035D01*
X105496337Y-77273903D01*
X105724592Y-77335063D01*
X105901034Y-77350500D01*
X105959999Y-77355659D01*
X105960000Y-77355659D01*
X105960001Y-77355659D01*
X106018966Y-77350500D01*
X106195408Y-77335063D01*
X106423663Y-77273903D01*
X106637830Y-77174035D01*
X106831401Y-77038495D01*
X106998495Y-76871401D01*
X106998504Y-76871388D01*
X106999636Y-76870040D01*
X107000293Y-76869602D01*
X107002323Y-76867573D01*
X107002730Y-76867980D01*
X107057805Y-76831334D01*
X107127666Y-76830220D01*
X107187038Y-76867053D01*
X107212337Y-76910735D01*
X107215185Y-76919331D01*
X107215187Y-76919336D01*
X107222362Y-76930968D01*
X107307288Y-77068656D01*
X107431344Y-77192712D01*
X107580666Y-77284814D01*
X107747203Y-77339999D01*
X107849991Y-77350500D01*
X108732112Y-77350499D01*
X108799151Y-77370183D01*
X108819793Y-77386818D01*
X110209181Y-78776205D01*
X110242666Y-78837528D01*
X110245500Y-78863886D01*
X110245500Y-82162017D01*
X110225815Y-82229056D01*
X110173011Y-82274811D01*
X110156436Y-82280994D01*
X110097546Y-82298286D01*
X110040008Y-82315181D01*
X110040006Y-82315182D01*
X110040005Y-82315182D01*
X109918969Y-82392967D01*
X109918965Y-82392971D01*
X109824750Y-82501700D01*
X109824744Y-82501709D01*
X109764976Y-82632580D01*
X109764975Y-82632585D01*
X109744500Y-82774999D01*
X109744500Y-83925021D01*
X109750923Y-84005330D01*
X109750925Y-84005338D01*
X109759787Y-84033745D01*
X109764151Y-84088319D01*
X109744500Y-84224999D01*
X109744500Y-84862113D01*
X109724815Y-84929152D01*
X109708181Y-84949794D01*
X109690794Y-84967181D01*
X109629471Y-85000666D01*
X109603113Y-85003500D01*
X107723589Y-85003500D01*
X107656550Y-84983815D01*
X107610795Y-84931011D01*
X107600851Y-84861853D01*
X107622014Y-84808376D01*
X107713600Y-84677578D01*
X107813429Y-84463492D01*
X107813432Y-84463486D01*
X107870636Y-84250000D01*
X106973012Y-84250000D01*
X107005925Y-84192993D01*
X107040000Y-84065826D01*
X107040000Y-83934174D01*
X107005925Y-83807007D01*
X106973012Y-83750000D01*
X107870636Y-83750000D01*
X107870635Y-83749999D01*
X107813432Y-83536513D01*
X107813429Y-83536507D01*
X107713600Y-83322422D01*
X107713599Y-83322420D01*
X107578113Y-83128926D01*
X107578108Y-83128920D01*
X107411082Y-82961894D01*
X107217578Y-82826399D01*
X107003492Y-82726570D01*
X107003486Y-82726567D01*
X106790000Y-82669364D01*
X106790000Y-83566988D01*
X106732993Y-83534075D01*
X106605826Y-83500000D01*
X106474174Y-83500000D01*
X106347007Y-83534075D01*
X106290000Y-83566988D01*
X106290000Y-82669364D01*
X106289999Y-82669364D01*
X106076513Y-82726567D01*
X106076507Y-82726570D01*
X105862422Y-82826399D01*
X105862420Y-82826400D01*
X105668926Y-82961886D01*
X105668920Y-82961891D01*
X105501891Y-83128920D01*
X105501890Y-83128922D01*
X105371880Y-83314595D01*
X105317303Y-83358219D01*
X105247804Y-83365412D01*
X105185450Y-83333890D01*
X105168730Y-83314594D01*
X105038494Y-83128597D01*
X104871402Y-82961506D01*
X104871401Y-82961505D01*
X104680376Y-82827748D01*
X104636752Y-82773171D01*
X104627500Y-82726173D01*
X104627500Y-76844796D01*
X104647185Y-76777757D01*
X104699989Y-76732002D01*
X104769147Y-76722058D01*
X104832703Y-76751083D01*
G37*
%TD.AperFunction*%
%TA.AperFunction,Conductor*%
G36*
X101886520Y-71115453D02*
G01*
X101937417Y-71163320D01*
X101946966Y-71187408D01*
X101947949Y-71187065D01*
X102009827Y-71363904D01*
X102009828Y-71363905D01*
X102027563Y-71392130D01*
X102046570Y-71458103D01*
X102046570Y-71901355D01*
X102070682Y-72022575D01*
X102070684Y-72022583D01*
X102095503Y-72082501D01*
X102117985Y-72136778D01*
X102147006Y-72180210D01*
X102147006Y-72180211D01*
X102186660Y-72239558D01*
X102186663Y-72239561D01*
X102836181Y-72889078D01*
X102869666Y-72950401D01*
X102872500Y-72976759D01*
X102872500Y-81648718D01*
X102852815Y-81715757D01*
X102836181Y-81736399D01*
X101913415Y-82659164D01*
X101852092Y-82692649D01*
X101793641Y-82691258D01*
X101695413Y-82664938D01*
X101695403Y-82664936D01*
X101460001Y-82644341D01*
X101459999Y-82644341D01*
X101224596Y-82664936D01*
X101224586Y-82664938D01*
X100996344Y-82726094D01*
X100996335Y-82726098D01*
X100782171Y-82825964D01*
X100782169Y-82825965D01*
X100588597Y-82961505D01*
X100421505Y-83128597D01*
X100291575Y-83314158D01*
X100236998Y-83357783D01*
X100167500Y-83364977D01*
X100105145Y-83333454D01*
X100088425Y-83314158D01*
X99958494Y-83128597D01*
X99791402Y-82961506D01*
X99791395Y-82961501D01*
X99597834Y-82825967D01*
X99597830Y-82825965D01*
X99579136Y-82817248D01*
X99383663Y-82726097D01*
X99383659Y-82726096D01*
X99383655Y-82726094D01*
X99155413Y-82664938D01*
X99155403Y-82664936D01*
X98920001Y-82644341D01*
X98919999Y-82644341D01*
X98684596Y-82664936D01*
X98684586Y-82664938D01*
X98456344Y-82726094D01*
X98456335Y-82726098D01*
X98242171Y-82825964D01*
X98242169Y-82825965D01*
X98048600Y-82961503D01*
X97926673Y-83083430D01*
X97865350Y-83116914D01*
X97795658Y-83111930D01*
X97739725Y-83070058D01*
X97722810Y-83039081D01*
X97673797Y-82907671D01*
X97673795Y-82907668D01*
X97655113Y-82882712D01*
X97630695Y-82817248D01*
X97645546Y-82748975D01*
X97666694Y-82720723D01*
X98550600Y-81836819D01*
X98611923Y-81803334D01*
X98638281Y-81800500D01*
X99153186Y-81800500D01*
X99153194Y-81800500D01*
X99190069Y-81797598D01*
X99190071Y-81797597D01*
X99190073Y-81797597D01*
X99231691Y-81785505D01*
X99347898Y-81751744D01*
X99489365Y-81668081D01*
X99605581Y-81551865D01*
X99689244Y-81410398D01*
X99735098Y-81252569D01*
X99738000Y-81215694D01*
X99738000Y-80974500D01*
X99757685Y-80907461D01*
X99810489Y-80861706D01*
X99862000Y-80850500D01*
X101028186Y-80850500D01*
X101028194Y-80850500D01*
X101065069Y-80847598D01*
X101065071Y-80847597D01*
X101065073Y-80847597D01*
X101110847Y-80834298D01*
X101222898Y-80801744D01*
X101364365Y-80718081D01*
X101480581Y-80601865D01*
X101564244Y-80460398D01*
X101598005Y-80344191D01*
X101610097Y-80302573D01*
X101610098Y-80302567D01*
X101610437Y-80298256D01*
X101613000Y-80265694D01*
X101613000Y-79834306D01*
X101610098Y-79797431D01*
X101602996Y-79772987D01*
X101564245Y-79639606D01*
X101564244Y-79639603D01*
X101564244Y-79639602D01*
X101480581Y-79498135D01*
X101480579Y-79498133D01*
X101480576Y-79498129D01*
X101364370Y-79381923D01*
X101364362Y-79381917D01*
X101252122Y-79315539D01*
X101222898Y-79298256D01*
X101222897Y-79298255D01*
X101222896Y-79298255D01*
X101222893Y-79298254D01*
X101065073Y-79252402D01*
X101065067Y-79252401D01*
X101028201Y-79249500D01*
X101028194Y-79249500D01*
X100751500Y-79249500D01*
X100684461Y-79229815D01*
X100638706Y-79177011D01*
X100627500Y-79125500D01*
X100627500Y-78175853D01*
X100647185Y-78108814D01*
X100686401Y-78070316D01*
X100731156Y-78042712D01*
X100855212Y-77918656D01*
X100947314Y-77769334D01*
X101002499Y-77602797D01*
X101013000Y-77500009D01*
X101012999Y-76499992D01*
X101009821Y-76468886D01*
X101002499Y-76397203D01*
X101002498Y-76397200D01*
X100986102Y-76347720D01*
X100947314Y-76230666D01*
X100855212Y-76081344D01*
X100731156Y-75957288D01*
X100615513Y-75885959D01*
X100581836Y-75865187D01*
X100581831Y-75865185D01*
X100580362Y-75864698D01*
X100415297Y-75810001D01*
X100415295Y-75810000D01*
X100312510Y-75799500D01*
X99687498Y-75799500D01*
X99687480Y-75799501D01*
X99584703Y-75810000D01*
X99584700Y-75810001D01*
X99418168Y-75865185D01*
X99418163Y-75865187D01*
X99268842Y-75957289D01*
X99175181Y-76050951D01*
X99113858Y-76084436D01*
X99044166Y-76079452D01*
X98999819Y-76050951D01*
X98906155Y-75957287D01*
X98861402Y-75929683D01*
X98814678Y-75877735D01*
X98802500Y-75824145D01*
X98802500Y-74000000D01*
X99200000Y-74000000D01*
X99200000Y-74447844D01*
X99206401Y-74507372D01*
X99206403Y-74507379D01*
X99256645Y-74642086D01*
X99256649Y-74642093D01*
X99342809Y-74757187D01*
X99342812Y-74757190D01*
X99457906Y-74843350D01*
X99457913Y-74843354D01*
X99592620Y-74893596D01*
X99592627Y-74893598D01*
X99652155Y-74899999D01*
X99652172Y-74900000D01*
X100225000Y-74900000D01*
X100225000Y-74000000D01*
X100725000Y-74000000D01*
X100725000Y-74900000D01*
X101297828Y-74900000D01*
X101297844Y-74899999D01*
X101357372Y-74893598D01*
X101357379Y-74893596D01*
X101492086Y-74843354D01*
X101492093Y-74843350D01*
X101607187Y-74757190D01*
X101607190Y-74757187D01*
X101693350Y-74642093D01*
X101693354Y-74642086D01*
X101743596Y-74507379D01*
X101743598Y-74507372D01*
X101749999Y-74447844D01*
X101750000Y-74447827D01*
X101750000Y-74000000D01*
X100725000Y-74000000D01*
X100225000Y-74000000D01*
X99200000Y-74000000D01*
X98802500Y-74000000D01*
X98802500Y-73886280D01*
X98822185Y-73819241D01*
X98838814Y-73798604D01*
X99101100Y-73536317D01*
X99162422Y-73502834D01*
X99188780Y-73500000D01*
X100225000Y-73500000D01*
X100225000Y-72600000D01*
X100725000Y-72600000D01*
X100725000Y-73500000D01*
X101750000Y-73500000D01*
X101750000Y-73052172D01*
X101749999Y-73052155D01*
X101743598Y-72992627D01*
X101743596Y-72992620D01*
X101693354Y-72857913D01*
X101693350Y-72857906D01*
X101607190Y-72742812D01*
X101607187Y-72742809D01*
X101492093Y-72656649D01*
X101492086Y-72656645D01*
X101357379Y-72606403D01*
X101357372Y-72606401D01*
X101297844Y-72600000D01*
X100725000Y-72600000D01*
X100225000Y-72600000D01*
X100218890Y-72593890D01*
X100185405Y-72532567D01*
X100190389Y-72462875D01*
X100218890Y-72418528D01*
X100755387Y-71882031D01*
X101311567Y-71325850D01*
X101372888Y-71292367D01*
X101385345Y-71290315D01*
X101429255Y-71285368D01*
X101599522Y-71225789D01*
X101752262Y-71129816D01*
X101752269Y-71129808D01*
X101753139Y-71129116D01*
X101753814Y-71128840D01*
X101758158Y-71126111D01*
X101758635Y-71126871D01*
X101817824Y-71102702D01*
X101886520Y-71115453D01*
G37*
%TD.AperFunction*%
%TA.AperFunction,Conductor*%
G36*
X99142540Y-69397185D02*
G01*
X99188295Y-69449989D01*
X99199501Y-69501500D01*
X99199501Y-69947876D01*
X99205908Y-70007483D01*
X99256202Y-70142328D01*
X99256206Y-70142335D01*
X99342452Y-70257544D01*
X99342455Y-70257547D01*
X99457664Y-70343793D01*
X99457671Y-70343797D01*
X99592517Y-70394091D01*
X99592516Y-70394091D01*
X99599444Y-70394835D01*
X99652127Y-70400500D01*
X100162719Y-70400499D01*
X100229757Y-70420183D01*
X100275512Y-70472987D01*
X100285456Y-70542146D01*
X100256431Y-70605702D01*
X100250399Y-70612180D01*
X98393502Y-72469079D01*
X97774992Y-73087589D01*
X97687589Y-73174992D01*
X97624227Y-73269821D01*
X97618916Y-73277769D01*
X97605061Y-73311214D01*
X97605062Y-73311215D01*
X97571614Y-73391964D01*
X97569286Y-73403668D01*
X97550575Y-73497738D01*
X97547500Y-73513197D01*
X97547500Y-73513198D01*
X97547500Y-75824145D01*
X97527815Y-75891184D01*
X97488598Y-75929683D01*
X97443844Y-75957287D01*
X97319789Y-76081342D01*
X97227687Y-76230663D01*
X97227685Y-76230668D01*
X97227008Y-76232712D01*
X97172501Y-76397203D01*
X97172501Y-76397204D01*
X97172500Y-76397204D01*
X97162000Y-76499983D01*
X97162000Y-77500001D01*
X97162001Y-77500019D01*
X97172500Y-77602796D01*
X97172501Y-77602799D01*
X97211562Y-77720676D01*
X97227686Y-77769334D01*
X97319788Y-77918656D01*
X97443844Y-78042712D01*
X97593166Y-78134814D01*
X97603564Y-78138259D01*
X97661008Y-78178029D01*
X97687833Y-78242545D01*
X97675519Y-78311321D01*
X97627977Y-78362522D01*
X97627682Y-78362697D01*
X97510638Y-78431916D01*
X97510629Y-78431923D01*
X97394423Y-78548129D01*
X97394417Y-78548137D01*
X97310755Y-78689603D01*
X97310754Y-78689606D01*
X97264902Y-78847426D01*
X97264901Y-78847432D01*
X97262000Y-78884298D01*
X97262000Y-79248500D01*
X97242315Y-79315539D01*
X97189511Y-79361294D01*
X97138000Y-79372500D01*
X96496354Y-79372500D01*
X96429315Y-79352815D01*
X96383560Y-79300011D01*
X96378648Y-79287504D01*
X96367945Y-79255205D01*
X96359814Y-79230666D01*
X96267712Y-79081344D01*
X96143656Y-78957288D01*
X95994334Y-78865186D01*
X95827797Y-78810001D01*
X95827795Y-78810000D01*
X95725016Y-78799500D01*
X95725009Y-78799500D01*
X95324500Y-78799500D01*
X95257461Y-78779815D01*
X95211706Y-78727011D01*
X95200500Y-78675500D01*
X95200500Y-78314981D01*
X95220185Y-78247942D01*
X95272989Y-78202187D01*
X95311899Y-78191623D01*
X95312391Y-78191572D01*
X95327797Y-78189999D01*
X95494334Y-78134814D01*
X95643656Y-78042712D01*
X95767712Y-77918656D01*
X95859814Y-77769334D01*
X95914999Y-77602797D01*
X95925500Y-77500009D01*
X95925499Y-76499992D01*
X95922321Y-76468886D01*
X95914999Y-76397203D01*
X95914998Y-76397200D01*
X95898602Y-76347720D01*
X95859814Y-76230666D01*
X95767712Y-76081344D01*
X95643656Y-75957288D01*
X95528013Y-75885959D01*
X95494336Y-75865187D01*
X95494331Y-75865185D01*
X95492862Y-75864698D01*
X95327797Y-75810001D01*
X95327795Y-75810000D01*
X95225010Y-75799500D01*
X94599998Y-75799500D01*
X94599980Y-75799501D01*
X94497203Y-75810000D01*
X94497200Y-75810001D01*
X94330668Y-75865185D01*
X94330663Y-75865187D01*
X94181342Y-75957289D01*
X94087681Y-76050951D01*
X94026358Y-76084436D01*
X93956666Y-76079452D01*
X93912319Y-76050951D01*
X93818657Y-75957289D01*
X93818656Y-75957288D01*
X93703013Y-75885959D01*
X93669336Y-75865187D01*
X93669331Y-75865185D01*
X93667862Y-75864698D01*
X93502797Y-75810001D01*
X93502795Y-75810000D01*
X93400010Y-75799500D01*
X92774998Y-75799500D01*
X92774980Y-75799501D01*
X92672203Y-75810000D01*
X92672200Y-75810001D01*
X92505668Y-75865185D01*
X92505663Y-75865187D01*
X92356342Y-75957289D01*
X92232289Y-76081342D01*
X92140187Y-76230663D01*
X92140185Y-76230668D01*
X92121352Y-76287504D01*
X92081579Y-76344949D01*
X92017063Y-76371772D01*
X92003646Y-76372500D01*
X91075023Y-76372500D01*
X91007984Y-76352815D01*
X90962229Y-76300011D01*
X90952285Y-76230853D01*
X90981310Y-76167297D01*
X90987342Y-76160819D01*
X91067315Y-76080845D01*
X91159356Y-75931624D01*
X91159358Y-75931619D01*
X91214505Y-75765197D01*
X91214506Y-75765190D01*
X91224999Y-75662486D01*
X91225000Y-75662473D01*
X91225000Y-75612500D01*
X89874000Y-75612500D01*
X89806961Y-75592815D01*
X89761206Y-75540011D01*
X89750000Y-75488500D01*
X89750000Y-75236500D01*
X89769685Y-75169461D01*
X89822489Y-75123706D01*
X89874000Y-75112500D01*
X91224999Y-75112500D01*
X91224999Y-75062528D01*
X91224998Y-75062513D01*
X91214506Y-74959804D01*
X91190297Y-74886748D01*
X91187895Y-74816919D01*
X91223626Y-74756877D01*
X91286147Y-74725684D01*
X91355606Y-74733244D01*
X91384956Y-74752883D01*
X91385712Y-74751875D01*
X91507906Y-74843350D01*
X91507913Y-74843354D01*
X91642620Y-74893596D01*
X91642627Y-74893598D01*
X91702155Y-74899999D01*
X91702172Y-74900000D01*
X92275000Y-74900000D01*
X92275000Y-74000000D01*
X92775000Y-74000000D01*
X92775000Y-74900000D01*
X93347828Y-74900000D01*
X93347844Y-74899999D01*
X93407372Y-74893598D01*
X93407379Y-74893596D01*
X93542086Y-74843354D01*
X93542093Y-74843350D01*
X93657187Y-74757190D01*
X93657190Y-74757187D01*
X93743350Y-74642093D01*
X93743354Y-74642086D01*
X93793596Y-74507379D01*
X93793598Y-74507372D01*
X93799999Y-74447844D01*
X93800000Y-74447827D01*
X93800000Y-74000000D01*
X92775000Y-74000000D01*
X92275000Y-74000000D01*
X92275000Y-72600000D01*
X92775000Y-72600000D01*
X92775000Y-73500000D01*
X93800000Y-73500000D01*
X93800000Y-73052172D01*
X93799999Y-73052155D01*
X93793598Y-72992627D01*
X93793596Y-72992620D01*
X93743354Y-72857913D01*
X93743350Y-72857906D01*
X93657190Y-72742812D01*
X93657187Y-72742809D01*
X93542093Y-72656649D01*
X93542086Y-72656645D01*
X93407379Y-72606403D01*
X93407372Y-72606401D01*
X93347844Y-72600000D01*
X92775000Y-72600000D01*
X92275000Y-72600000D01*
X91702155Y-72600000D01*
X91642627Y-72606401D01*
X91642620Y-72606403D01*
X91507913Y-72656645D01*
X91507906Y-72656649D01*
X91392812Y-72742809D01*
X91323392Y-72835542D01*
X91267458Y-72877412D01*
X91197766Y-72882396D01*
X91136444Y-72848910D01*
X91118587Y-72826326D01*
X91067712Y-72743844D01*
X90943657Y-72619789D01*
X90943656Y-72619788D01*
X90846769Y-72560028D01*
X90794336Y-72527687D01*
X90794327Y-72527683D01*
X90751713Y-72513562D01*
X90694269Y-72473789D01*
X90667447Y-72409273D01*
X90679763Y-72340497D01*
X90727307Y-72289298D01*
X90751710Y-72278153D01*
X90769334Y-72272314D01*
X90918656Y-72180212D01*
X91042712Y-72056156D01*
X91134814Y-71906834D01*
X91189999Y-71740297D01*
X91200500Y-71637509D01*
X91200499Y-71013279D01*
X91220183Y-70946241D01*
X91236813Y-70925604D01*
X91725600Y-70436818D01*
X91786923Y-70403333D01*
X91813281Y-70400499D01*
X93347871Y-70400499D01*
X93347872Y-70400499D01*
X93407483Y-70394091D01*
X93542331Y-70343796D01*
X93657546Y-70257546D01*
X93743796Y-70142331D01*
X93794091Y-70007483D01*
X93800500Y-69947873D01*
X93800500Y-69501500D01*
X93820185Y-69434461D01*
X93872989Y-69388706D01*
X93924500Y-69377500D01*
X99075501Y-69377500D01*
X99142540Y-69397185D01*
G37*
%TD.AperFunction*%
%TA.AperFunction,Conductor*%
G36*
X80693834Y-68208597D02*
G01*
X80749767Y-68250469D01*
X80774184Y-68315933D01*
X80774500Y-68324779D01*
X80774500Y-68800001D01*
X80774501Y-68800019D01*
X80785000Y-68902796D01*
X80785001Y-68902799D01*
X80840185Y-69069331D01*
X80840187Y-69069336D01*
X80854747Y-69092941D01*
X80932288Y-69218656D01*
X81056344Y-69342712D01*
X81059628Y-69344737D01*
X81059653Y-69344753D01*
X81061445Y-69346746D01*
X81062011Y-69347193D01*
X81061934Y-69347289D01*
X81106379Y-69396699D01*
X81117603Y-69465661D01*
X81089761Y-69529744D01*
X81059665Y-69555826D01*
X81056660Y-69557679D01*
X81056655Y-69557683D01*
X80932684Y-69681654D01*
X80840643Y-69830875D01*
X80840641Y-69830880D01*
X80785494Y-69997302D01*
X80785493Y-69997309D01*
X80775000Y-70100013D01*
X80775000Y-70150000D01*
X87126000Y-70150000D01*
X87193039Y-70169685D01*
X87238794Y-70222489D01*
X87250000Y-70274000D01*
X87250000Y-71399999D01*
X87300500Y-71399999D01*
X87367539Y-71419684D01*
X87413294Y-71472488D01*
X87424500Y-71523999D01*
X87424500Y-73574095D01*
X87404815Y-73641134D01*
X87352011Y-73686889D01*
X87282853Y-73696833D01*
X87219297Y-73667808D01*
X87191668Y-73633522D01*
X87102467Y-73470164D01*
X87102466Y-73470163D01*
X87008676Y-73344874D01*
X86215846Y-74137705D01*
X86208951Y-74121058D01*
X86121401Y-73990030D01*
X86009970Y-73878599D01*
X85878942Y-73791049D01*
X85862294Y-73784153D01*
X86655124Y-72991322D01*
X86655123Y-72991321D01*
X86529843Y-72897537D01*
X86529835Y-72897532D01*
X86291310Y-72767287D01*
X86291306Y-72767285D01*
X86036654Y-72672305D01*
X85771097Y-72614537D01*
X85771090Y-72614536D01*
X85500001Y-72595147D01*
X85499999Y-72595147D01*
X85228909Y-72614536D01*
X85228902Y-72614537D01*
X84963345Y-72672305D01*
X84708693Y-72767285D01*
X84708689Y-72767287D01*
X84470164Y-72897532D01*
X84470156Y-72897537D01*
X84344875Y-72991321D01*
X84344874Y-72991322D01*
X85137705Y-73784153D01*
X85121058Y-73791049D01*
X84990030Y-73878599D01*
X84878599Y-73990030D01*
X84791049Y-74121058D01*
X84784153Y-74137705D01*
X83991322Y-73344874D01*
X83991321Y-73344875D01*
X83897537Y-73470156D01*
X83897532Y-73470164D01*
X83767287Y-73708689D01*
X83767285Y-73708693D01*
X83672305Y-73963345D01*
X83614537Y-74228902D01*
X83614536Y-74228909D01*
X83595147Y-74499998D01*
X83595147Y-74500001D01*
X83614536Y-74771090D01*
X83614537Y-74771097D01*
X83672305Y-75036654D01*
X83767285Y-75291306D01*
X83767287Y-75291310D01*
X83897532Y-75529835D01*
X83897537Y-75529843D01*
X83991321Y-75655123D01*
X83991322Y-75655124D01*
X84784153Y-74862293D01*
X84791049Y-74878942D01*
X84878599Y-75009970D01*
X84990030Y-75121401D01*
X85121058Y-75208951D01*
X85137705Y-75215846D01*
X84344874Y-76008676D01*
X84470163Y-76102466D01*
X84470164Y-76102467D01*
X84708689Y-76232712D01*
X84708693Y-76232714D01*
X84963345Y-76327694D01*
X85228902Y-76385462D01*
X85228909Y-76385463D01*
X85474728Y-76403045D01*
X85540192Y-76427462D01*
X85582064Y-76483395D01*
X85587048Y-76553087D01*
X85553563Y-76614410D01*
X85454792Y-76713181D01*
X85393469Y-76746666D01*
X85367111Y-76749500D01*
X85033257Y-76749500D01*
X84923688Y-76763924D01*
X84923679Y-76763926D01*
X84787331Y-76820403D01*
X84670246Y-76910246D01*
X84598376Y-77003909D01*
X84541948Y-77045112D01*
X84472202Y-77049267D01*
X84411282Y-77015055D01*
X84401624Y-77003909D01*
X84345654Y-76930968D01*
X84329754Y-76910246D01*
X84235250Y-76837731D01*
X84212668Y-76820403D01*
X84076320Y-76763926D01*
X84076318Y-76763925D01*
X83966741Y-76749500D01*
X82663257Y-76749500D01*
X82553688Y-76763924D01*
X82553679Y-76763926D01*
X82417331Y-76820403D01*
X82300246Y-76910246D01*
X82210403Y-77027331D01*
X82153926Y-77163679D01*
X82153925Y-77163681D01*
X82139500Y-77273258D01*
X82139500Y-77826742D01*
X82153924Y-77936311D01*
X82153926Y-77936320D01*
X82210403Y-78072668D01*
X82210404Y-78072669D01*
X82300246Y-78189754D01*
X82417331Y-78279596D01*
X82553680Y-78336074D01*
X82663259Y-78350500D01*
X83966740Y-78350499D01*
X83966742Y-78350499D01*
X84031128Y-78342022D01*
X84076320Y-78336074D01*
X84212669Y-78279596D01*
X84311383Y-78203850D01*
X84376548Y-78178658D01*
X84444993Y-78192696D01*
X84474547Y-78214547D01*
X84510000Y-78250000D01*
X84706668Y-78250000D01*
X84773707Y-78269685D01*
X84782152Y-78275623D01*
X84787326Y-78279593D01*
X84787333Y-78279597D01*
X84818220Y-78292390D01*
X84923680Y-78336074D01*
X85033259Y-78350500D01*
X85811000Y-78350499D01*
X85878039Y-78370183D01*
X85923794Y-78422987D01*
X85935000Y-78474499D01*
X85935000Y-78525500D01*
X85915315Y-78592539D01*
X85862511Y-78638294D01*
X85811000Y-78649500D01*
X85033257Y-78649500D01*
X84923688Y-78663924D01*
X84923679Y-78663926D01*
X84787333Y-78720402D01*
X84787326Y-78720406D01*
X84782152Y-78724377D01*
X84716982Y-78749570D01*
X84706668Y-78750000D01*
X84510001Y-78750000D01*
X84474547Y-78785454D01*
X84413223Y-78818938D01*
X84343532Y-78813953D01*
X84311386Y-78796152D01*
X84212669Y-78720404D01*
X84212668Y-78720403D01*
X84212666Y-78720402D01*
X84076320Y-78663926D01*
X84076318Y-78663925D01*
X83966741Y-78649500D01*
X82663257Y-78649500D01*
X82553688Y-78663924D01*
X82553679Y-78663926D01*
X82500242Y-78686061D01*
X82452789Y-78695500D01*
X81083230Y-78695500D01*
X81016191Y-78675815D01*
X80995549Y-78659181D01*
X80943657Y-78607289D01*
X80943656Y-78607288D01*
X80940342Y-78605243D01*
X80938546Y-78603248D01*
X80937989Y-78602807D01*
X80938064Y-78602711D01*
X80893618Y-78553297D01*
X80882397Y-78484334D01*
X80910240Y-78420252D01*
X80940348Y-78394165D01*
X80943342Y-78392318D01*
X81067315Y-78268345D01*
X81159356Y-78119124D01*
X81159358Y-78119119D01*
X81214505Y-77952697D01*
X81214506Y-77952690D01*
X81224999Y-77849986D01*
X81225000Y-77849973D01*
X81225000Y-77800000D01*
X78775001Y-77800000D01*
X78775001Y-77849986D01*
X78785494Y-77952697D01*
X78840641Y-78119119D01*
X78840643Y-78119124D01*
X78932684Y-78268345D01*
X79056655Y-78392316D01*
X79056659Y-78392319D01*
X79059656Y-78394168D01*
X79061279Y-78395972D01*
X79062323Y-78396798D01*
X79062181Y-78396976D01*
X79106381Y-78446116D01*
X79117602Y-78515079D01*
X79089759Y-78579161D01*
X79059661Y-78605241D01*
X79056349Y-78607283D01*
X79056343Y-78607288D01*
X79004451Y-78659181D01*
X78943128Y-78692666D01*
X78916770Y-78695500D01*
X78083230Y-78695500D01*
X78016191Y-78675815D01*
X77995549Y-78659181D01*
X77943657Y-78607289D01*
X77943656Y-78607288D01*
X77940342Y-78605243D01*
X77938546Y-78603248D01*
X77937989Y-78602807D01*
X77938064Y-78602711D01*
X77893618Y-78553297D01*
X77882397Y-78484334D01*
X77910240Y-78420252D01*
X77940348Y-78394165D01*
X77943342Y-78392318D01*
X78067315Y-78268345D01*
X78159356Y-78119124D01*
X78159358Y-78119119D01*
X78214505Y-77952697D01*
X78214506Y-77952690D01*
X78224999Y-77849986D01*
X78225000Y-77849973D01*
X78225000Y-77800000D01*
X76874000Y-77800000D01*
X76806961Y-77780315D01*
X76761206Y-77727511D01*
X76750000Y-77676000D01*
X76750000Y-76550000D01*
X77250000Y-76550000D01*
X77250000Y-77300000D01*
X78224999Y-77300000D01*
X78775000Y-77300000D01*
X79750000Y-77300000D01*
X79750000Y-76550000D01*
X80250000Y-76550000D01*
X80250000Y-77300000D01*
X81224999Y-77300000D01*
X81224999Y-77250028D01*
X81224998Y-77250013D01*
X81214505Y-77147302D01*
X81159358Y-76980880D01*
X81159356Y-76980875D01*
X81067315Y-76831654D01*
X80943345Y-76707684D01*
X80794124Y-76615643D01*
X80794119Y-76615641D01*
X80627697Y-76560494D01*
X80627690Y-76560493D01*
X80524986Y-76550000D01*
X80250000Y-76550000D01*
X79750000Y-76550000D01*
X79475029Y-76550000D01*
X79475012Y-76550001D01*
X79372302Y-76560494D01*
X79205880Y-76615641D01*
X79205875Y-76615643D01*
X79056654Y-76707684D01*
X78932684Y-76831654D01*
X78840643Y-76980875D01*
X78840641Y-76980880D01*
X78785494Y-77147302D01*
X78785493Y-77147309D01*
X78775000Y-77250013D01*
X78775000Y-77300000D01*
X78224999Y-77300000D01*
X78224999Y-77250028D01*
X78224998Y-77250013D01*
X78214505Y-77147302D01*
X78159358Y-76980880D01*
X78159356Y-76980875D01*
X78067315Y-76831654D01*
X77943345Y-76707684D01*
X77794124Y-76615643D01*
X77794119Y-76615641D01*
X77627697Y-76560494D01*
X77627690Y-76560493D01*
X77524986Y-76550000D01*
X77250000Y-76550000D01*
X76750000Y-76550000D01*
X76715994Y-76515995D01*
X76682509Y-76454672D01*
X76687493Y-76384980D01*
X76729364Y-76329046D01*
X76734765Y-76325224D01*
X76755966Y-76311059D01*
X77243449Y-75823574D01*
X77304769Y-75790092D01*
X77374457Y-75795075D01*
X77463199Y-75828175D01*
X77728840Y-75885961D01*
X77980605Y-75903967D01*
X77999999Y-75905355D01*
X78000000Y-75905355D01*
X78000001Y-75905355D01*
X78018100Y-75904060D01*
X78271160Y-75885961D01*
X78536801Y-75828175D01*
X78791513Y-75733172D01*
X78791517Y-75733169D01*
X78791519Y-75733169D01*
X78934448Y-75655124D01*
X79030113Y-75602887D01*
X79247742Y-75439971D01*
X79439971Y-75247742D01*
X79602887Y-75030113D01*
X79714360Y-74825965D01*
X79733169Y-74791519D01*
X79733169Y-74791517D01*
X79733172Y-74791513D01*
X79828175Y-74536801D01*
X79885961Y-74271160D01*
X79905355Y-74000000D01*
X79885961Y-73728840D01*
X79828175Y-73463199D01*
X79733172Y-73208487D01*
X79733169Y-73208483D01*
X79733168Y-73208478D01*
X79602890Y-72969892D01*
X79602889Y-72969891D01*
X79602887Y-72969887D01*
X79439971Y-72752258D01*
X79439966Y-72752253D01*
X79439961Y-72752247D01*
X79247752Y-72560038D01*
X79247746Y-72560033D01*
X79247742Y-72560029D01*
X79030113Y-72397113D01*
X79030108Y-72397110D01*
X79030107Y-72397109D01*
X78791518Y-72266830D01*
X78791519Y-72266830D01*
X78741920Y-72248330D01*
X78536801Y-72171825D01*
X78536794Y-72171823D01*
X78536793Y-72171823D01*
X78271167Y-72114040D01*
X78271160Y-72114039D01*
X78000001Y-72094645D01*
X77999999Y-72094645D01*
X77728839Y-72114039D01*
X77728832Y-72114040D01*
X77463206Y-72171823D01*
X77463202Y-72171824D01*
X77463199Y-72171825D01*
X77354143Y-72212501D01*
X77208480Y-72266830D01*
X76969892Y-72397109D01*
X76969891Y-72397110D01*
X76752259Y-72560028D01*
X76752247Y-72560038D01*
X76560038Y-72752247D01*
X76560028Y-72752259D01*
X76397110Y-72969891D01*
X76397109Y-72969892D01*
X76266832Y-73208478D01*
X76266827Y-73208488D01*
X76218457Y-73338171D01*
X76176586Y-73394104D01*
X76111121Y-73418520D01*
X76042848Y-73403668D01*
X76014595Y-73382517D01*
X76002262Y-73370184D01*
X75955133Y-73340571D01*
X75849522Y-73274211D01*
X75849519Y-73274210D01*
X75843626Y-73270507D01*
X75844130Y-73269704D01*
X75818639Y-73251615D01*
X75230969Y-72663943D01*
X75230968Y-72663942D01*
X75157027Y-72614537D01*
X75107389Y-72581370D01*
X75107386Y-72581368D01*
X75107385Y-72581368D01*
X75026955Y-72548053D01*
X74970080Y-72524495D01*
X74945894Y-72519684D01*
X74915118Y-72513562D01*
X74854307Y-72501465D01*
X74792396Y-72469079D01*
X74757823Y-72408363D01*
X74754500Y-72379848D01*
X74754500Y-72112982D01*
X74774185Y-72045943D01*
X74826989Y-72000188D01*
X74843561Y-71994006D01*
X74959992Y-71959819D01*
X75081032Y-71882031D01*
X75169898Y-71779475D01*
X75228673Y-71741703D01*
X75239411Y-71739064D01*
X75256033Y-71735757D01*
X75283396Y-71730315D01*
X75283398Y-71730314D01*
X75307580Y-71725505D01*
X75376061Y-71697139D01*
X75444889Y-71668630D01*
X75568466Y-71586059D01*
X76417705Y-70736817D01*
X76479028Y-70703333D01*
X76505386Y-70700499D01*
X76900002Y-70700499D01*
X76900008Y-70700499D01*
X77002797Y-70689999D01*
X77169334Y-70634814D01*
X77318656Y-70542712D01*
X77412319Y-70449049D01*
X77473642Y-70415564D01*
X77543334Y-70420548D01*
X77587681Y-70449049D01*
X77681344Y-70542712D01*
X77830666Y-70634814D01*
X77997203Y-70689999D01*
X78099991Y-70700500D01*
X78725008Y-70700499D01*
X78725016Y-70700498D01*
X78725019Y-70700498D01*
X78781302Y-70694748D01*
X78827797Y-70689999D01*
X78948506Y-70650000D01*
X80775001Y-70650000D01*
X80775001Y-70699986D01*
X80785494Y-70802697D01*
X80840641Y-70969119D01*
X80840643Y-70969124D01*
X80932684Y-71118345D01*
X81056654Y-71242315D01*
X81205875Y-71334356D01*
X81205880Y-71334358D01*
X81372302Y-71389505D01*
X81372309Y-71389506D01*
X81475019Y-71399999D01*
X81749999Y-71399999D01*
X81750000Y-71399998D01*
X81750000Y-70650000D01*
X82250000Y-70650000D01*
X82250000Y-71399999D01*
X82524972Y-71399999D01*
X82524986Y-71399998D01*
X82627697Y-71389505D01*
X82794119Y-71334358D01*
X82794124Y-71334356D01*
X82943345Y-71242315D01*
X83067317Y-71118343D01*
X83129461Y-71017592D01*
X83181409Y-70970867D01*
X83250371Y-70959644D01*
X83314454Y-70987488D01*
X83340539Y-71017592D01*
X83402682Y-71118343D01*
X83526654Y-71242315D01*
X83675875Y-71334356D01*
X83675880Y-71334358D01*
X83842302Y-71389505D01*
X83842309Y-71389506D01*
X83945019Y-71399999D01*
X84219999Y-71399999D01*
X84220000Y-71399998D01*
X84220000Y-70650000D01*
X84720000Y-70650000D01*
X84720000Y-71399999D01*
X84994972Y-71399999D01*
X84994986Y-71399998D01*
X85097697Y-71389505D01*
X85264119Y-71334358D01*
X85264124Y-71334356D01*
X85413345Y-71242315D01*
X85537315Y-71118345D01*
X85629461Y-70968954D01*
X85681409Y-70922230D01*
X85750372Y-70911007D01*
X85814454Y-70938851D01*
X85840539Y-70968954D01*
X85932684Y-71118345D01*
X86056654Y-71242315D01*
X86205875Y-71334356D01*
X86205880Y-71334358D01*
X86372302Y-71389505D01*
X86372309Y-71389506D01*
X86475019Y-71399999D01*
X86749999Y-71399999D01*
X86750000Y-71399998D01*
X86750000Y-70650000D01*
X84720000Y-70650000D01*
X84220000Y-70650000D01*
X82250000Y-70650000D01*
X81750000Y-70650000D01*
X80775001Y-70650000D01*
X78948506Y-70650000D01*
X78994334Y-70634814D01*
X79143656Y-70542712D01*
X79267712Y-70418656D01*
X79359814Y-70269334D01*
X79414999Y-70102797D01*
X79425500Y-70000009D01*
X79425499Y-69425779D01*
X79445183Y-69358741D01*
X79461813Y-69338104D01*
X80562821Y-68237096D01*
X80624142Y-68203613D01*
X80693834Y-68208597D01*
G37*
%TD.AperFunction*%
%TA.AperFunction,Conductor*%
G36*
X111942539Y-47270185D02*
G01*
X111988294Y-47322989D01*
X111999500Y-47374500D01*
X111999500Y-78398386D01*
X111979815Y-78465425D01*
X111927011Y-78511180D01*
X111857853Y-78521124D01*
X111794297Y-78492099D01*
X111756523Y-78433321D01*
X111753883Y-78422578D01*
X111725506Y-78279926D01*
X111725505Y-78279923D01*
X111725505Y-78279921D01*
X111725370Y-78279596D01*
X111700117Y-78218629D01*
X111668630Y-78142611D01*
X111640153Y-78099992D01*
X111640153Y-78099991D01*
X111640151Y-78099990D01*
X111586059Y-78019034D01*
X111586056Y-78019030D01*
X111476647Y-77909621D01*
X111476624Y-77909600D01*
X109886818Y-76319794D01*
X109853333Y-76258471D01*
X109850499Y-76232113D01*
X109850499Y-75349998D01*
X109850498Y-75349981D01*
X109839999Y-75247203D01*
X109839998Y-75247200D01*
X109836452Y-75236500D01*
X109784814Y-75080666D01*
X109692712Y-74931344D01*
X109568656Y-74807288D01*
X109465198Y-74743475D01*
X109419336Y-74715187D01*
X109419331Y-74715185D01*
X109346967Y-74691206D01*
X109289522Y-74651433D01*
X109262699Y-74586917D01*
X109262585Y-74576137D01*
X108629409Y-73942962D01*
X108692993Y-73925925D01*
X108807007Y-73860099D01*
X108900099Y-73767007D01*
X108965925Y-73652993D01*
X108982962Y-73589410D01*
X109614925Y-74221373D01*
X109614926Y-74221373D01*
X109673598Y-74137582D01*
X109673600Y-74137578D01*
X109773429Y-73923492D01*
X109773433Y-73923483D01*
X109834567Y-73695326D01*
X109834569Y-73695315D01*
X109855157Y-73460001D01*
X109855157Y-73459998D01*
X109834569Y-73224684D01*
X109834567Y-73224673D01*
X109773433Y-72996516D01*
X109773429Y-72996507D01*
X109673600Y-72782423D01*
X109673599Y-72782421D01*
X109614925Y-72698626D01*
X109614925Y-72698625D01*
X108982962Y-73330589D01*
X108965925Y-73267007D01*
X108900099Y-73152993D01*
X108807007Y-73059901D01*
X108692993Y-72994075D01*
X108629410Y-72977037D01*
X109261373Y-72345073D01*
X109184969Y-72291576D01*
X109141344Y-72236999D01*
X109134150Y-72167501D01*
X109165672Y-72105146D01*
X109184968Y-72088425D01*
X109261373Y-72034925D01*
X108629409Y-71402962D01*
X108692993Y-71385925D01*
X108807007Y-71320099D01*
X108900099Y-71227007D01*
X108965925Y-71112993D01*
X108982962Y-71049410D01*
X109614925Y-71681373D01*
X109614926Y-71681373D01*
X109673598Y-71597582D01*
X109673600Y-71597578D01*
X109773429Y-71383492D01*
X109773433Y-71383483D01*
X109834567Y-71155326D01*
X109834569Y-71155315D01*
X109855157Y-70920001D01*
X109855157Y-70919998D01*
X109834569Y-70684684D01*
X109834567Y-70684673D01*
X109773433Y-70456516D01*
X109773429Y-70456507D01*
X109673600Y-70242423D01*
X109673599Y-70242421D01*
X109614925Y-70158626D01*
X109614925Y-70158625D01*
X108982962Y-70790589D01*
X108965925Y-70727007D01*
X108900099Y-70612993D01*
X108807007Y-70519901D01*
X108692993Y-70454075D01*
X108629410Y-70437037D01*
X109261373Y-69805073D01*
X109261373Y-69805072D01*
X109185405Y-69751880D01*
X109141780Y-69697304D01*
X109134586Y-69627805D01*
X109166108Y-69565451D01*
X109185399Y-69548734D01*
X109371401Y-69418495D01*
X109538495Y-69251401D01*
X109674035Y-69057830D01*
X109773903Y-68843663D01*
X109835063Y-68615408D01*
X109855659Y-68380000D01*
X109835063Y-68144592D01*
X109773903Y-67916337D01*
X109674035Y-67702171D01*
X109668425Y-67694158D01*
X109538494Y-67508597D01*
X109371402Y-67341506D01*
X109371401Y-67341505D01*
X109185405Y-67211269D01*
X109141781Y-67156692D01*
X109134588Y-67087193D01*
X109166110Y-67024839D01*
X109185405Y-67008119D01*
X109261373Y-66954925D01*
X108629409Y-66322962D01*
X108692993Y-66305925D01*
X108807007Y-66240099D01*
X108900099Y-66147007D01*
X108965925Y-66032993D01*
X108982962Y-65969410D01*
X109614925Y-66601373D01*
X109614926Y-66601373D01*
X109673598Y-66517582D01*
X109673600Y-66517578D01*
X109773429Y-66303492D01*
X109773433Y-66303483D01*
X109834567Y-66075326D01*
X109834569Y-66075315D01*
X109855157Y-65840001D01*
X109855157Y-65839998D01*
X109834569Y-65604684D01*
X109834567Y-65604673D01*
X109773433Y-65376516D01*
X109773429Y-65376507D01*
X109673600Y-65162423D01*
X109673599Y-65162421D01*
X109614925Y-65078626D01*
X109614925Y-65078625D01*
X108982962Y-65710589D01*
X108965925Y-65647007D01*
X108900099Y-65532993D01*
X108807007Y-65439901D01*
X108692993Y-65374075D01*
X108629410Y-65357037D01*
X109261373Y-64725073D01*
X109261373Y-64725072D01*
X109177583Y-64666402D01*
X109177579Y-64666400D01*
X108963492Y-64566570D01*
X108963483Y-64566566D01*
X108735326Y-64505432D01*
X108735315Y-64505430D01*
X108500002Y-64484843D01*
X108499998Y-64484843D01*
X108264684Y-64505430D01*
X108264673Y-64505432D01*
X108036516Y-64566566D01*
X108036507Y-64566570D01*
X107822419Y-64666401D01*
X107738625Y-64725072D01*
X108370590Y-65357037D01*
X108307007Y-65374075D01*
X108192993Y-65439901D01*
X108099901Y-65532993D01*
X108034075Y-65647007D01*
X108017037Y-65710590D01*
X107385073Y-65078626D01*
X107331881Y-65154594D01*
X107277304Y-65198219D01*
X107207806Y-65205413D01*
X107145451Y-65173891D01*
X107128730Y-65154594D01*
X106998494Y-64968597D01*
X106831402Y-64801506D01*
X106831395Y-64801501D01*
X106637834Y-64665967D01*
X106637830Y-64665965D01*
X106637828Y-64665964D01*
X106423663Y-64566097D01*
X106423659Y-64566096D01*
X106423655Y-64566094D01*
X106195413Y-64504938D01*
X106195403Y-64504936D01*
X105960001Y-64484341D01*
X105959999Y-64484341D01*
X105724596Y-64504936D01*
X105724586Y-64504938D01*
X105496344Y-64566094D01*
X105496335Y-64566098D01*
X105282171Y-64665964D01*
X105282169Y-64665965D01*
X105088597Y-64801505D01*
X104921505Y-64968597D01*
X104785965Y-65162169D01*
X104785964Y-65162171D01*
X104686098Y-65376335D01*
X104686094Y-65376344D01*
X104624938Y-65604586D01*
X104624936Y-65604596D01*
X104604341Y-65839999D01*
X104604341Y-65840000D01*
X104624936Y-66075403D01*
X104624938Y-66075413D01*
X104686094Y-66303655D01*
X104686096Y-66303659D01*
X104686097Y-66303663D01*
X104742127Y-66423819D01*
X104785965Y-66517830D01*
X104785967Y-66517834D01*
X104886873Y-66661942D01*
X104921501Y-66711396D01*
X104921506Y-66711402D01*
X105088597Y-66878493D01*
X105088603Y-66878498D01*
X105274158Y-67008425D01*
X105317783Y-67063002D01*
X105324977Y-67132500D01*
X105293454Y-67194855D01*
X105274158Y-67211575D01*
X105088597Y-67341505D01*
X104921505Y-67508597D01*
X104787749Y-67699623D01*
X104733172Y-67743248D01*
X104686174Y-67752500D01*
X104302563Y-67752500D01*
X104235524Y-67732815D01*
X104189769Y-67680011D01*
X104179343Y-67642383D01*
X104171169Y-67569836D01*
X104171168Y-67569831D01*
X104169542Y-67565185D01*
X104111589Y-67399564D01*
X104104259Y-67387899D01*
X104032306Y-67273386D01*
X104013300Y-67207414D01*
X104013300Y-66800570D01*
X103989186Y-66679346D01*
X103989185Y-66679345D01*
X103989185Y-66679341D01*
X103941883Y-66565143D01*
X103898396Y-66500060D01*
X103877520Y-66433383D01*
X103877500Y-66431171D01*
X103877500Y-57650000D01*
X104420275Y-57650000D01*
X104438165Y-57762959D01*
X104513560Y-57994998D01*
X104624321Y-58212377D01*
X104767728Y-58409759D01*
X104940240Y-58582271D01*
X105137622Y-58725678D01*
X105355001Y-58836439D01*
X105587040Y-58911834D01*
X105828007Y-58950000D01*
X106750000Y-58950000D01*
X106750000Y-58050000D01*
X107250000Y-58050000D01*
X107250000Y-58950000D01*
X108171993Y-58950000D01*
X108412959Y-58911834D01*
X108644998Y-58836439D01*
X108862377Y-58725678D01*
X109059759Y-58582271D01*
X109232271Y-58409759D01*
X109375678Y-58212377D01*
X109486439Y-57994998D01*
X109561834Y-57762959D01*
X109579725Y-57650000D01*
X108200001Y-57650000D01*
X108225021Y-57589598D01*
X108250000Y-57464019D01*
X108250000Y-57335981D01*
X108225021Y-57210402D01*
X108200001Y-57150000D01*
X109579725Y-57150000D01*
X109561834Y-57037040D01*
X109486439Y-56805001D01*
X109375678Y-56587622D01*
X109232271Y-56390240D01*
X109059759Y-56217728D01*
X108862377Y-56074321D01*
X108644998Y-55963560D01*
X108412959Y-55888165D01*
X108171993Y-55850000D01*
X107250000Y-55850000D01*
X107250000Y-56750000D01*
X106750000Y-56750000D01*
X106750000Y-55850000D01*
X105828007Y-55850000D01*
X105587040Y-55888165D01*
X105355001Y-55963560D01*
X105137622Y-56074321D01*
X104940240Y-56217728D01*
X104767728Y-56390240D01*
X104624321Y-56587622D01*
X104513560Y-56805001D01*
X104438165Y-57037040D01*
X104420275Y-57150000D01*
X105799999Y-57150000D01*
X105774979Y-57210402D01*
X105750000Y-57335981D01*
X105750000Y-57464019D01*
X105774979Y-57589598D01*
X105799999Y-57650000D01*
X104420275Y-57650000D01*
X103877500Y-57650000D01*
X103877500Y-56868620D01*
X103879883Y-56844426D01*
X103881500Y-56836297D01*
X103881500Y-56194394D01*
X103857386Y-56073170D01*
X103857385Y-56073169D01*
X103857385Y-56073165D01*
X103814653Y-55970000D01*
X103810086Y-55958973D01*
X103810079Y-55958960D01*
X103741412Y-55856193D01*
X103735219Y-55850000D01*
X103654008Y-55768789D01*
X103096329Y-55211110D01*
X103062844Y-55149787D01*
X103067828Y-55080095D01*
X103096328Y-55035749D01*
X103129816Y-55002262D01*
X103225789Y-54849522D01*
X103285368Y-54679255D01*
X103285369Y-54679249D01*
X103305565Y-54500003D01*
X103305565Y-54499996D01*
X103285369Y-54320750D01*
X103285368Y-54320745D01*
X103251871Y-54225016D01*
X103225789Y-54150478D01*
X103129816Y-53997738D01*
X103006800Y-53874722D01*
X102991380Y-53855932D01*
X102987412Y-53849994D01*
X102987411Y-53849992D01*
X102900008Y-53762589D01*
X100786118Y-51648699D01*
X100752633Y-51587376D01*
X100749799Y-51561018D01*
X100749799Y-51317629D01*
X100749799Y-51317628D01*
X100748415Y-51304753D01*
X100760821Y-51235995D01*
X100808432Y-51184858D01*
X100871705Y-51167500D01*
X105821804Y-51167500D01*
X105821805Y-51167499D01*
X105943035Y-51143386D01*
X106039604Y-51103385D01*
X106057233Y-51096083D01*
X106160008Y-51027411D01*
X106247411Y-50940008D01*
X106284170Y-50903248D01*
X106345491Y-50869763D01*
X106415183Y-50874747D01*
X106428137Y-50880440D01*
X106462394Y-50897895D01*
X106462396Y-50897896D01*
X106536930Y-50922113D01*
X106672049Y-50966015D01*
X106889778Y-51000500D01*
X106889779Y-51000500D01*
X107110221Y-51000500D01*
X107110222Y-51000500D01*
X107327951Y-50966015D01*
X107537606Y-50897895D01*
X107734022Y-50797815D01*
X107912365Y-50668242D01*
X108068242Y-50512365D01*
X108197815Y-50334022D01*
X108297895Y-50137606D01*
X108366015Y-49927951D01*
X108400500Y-49710222D01*
X108400500Y-47689778D01*
X108366015Y-47472049D01*
X108346770Y-47412818D01*
X108344775Y-47342977D01*
X108380855Y-47283144D01*
X108443556Y-47252316D01*
X108464701Y-47250500D01*
X111875500Y-47250500D01*
X111942539Y-47270185D01*
G37*
%TD.AperFunction*%
%TA.AperFunction,Conductor*%
G36*
X108034075Y-73652993D02*
G01*
X108099901Y-73767007D01*
X108192993Y-73860099D01*
X108307007Y-73925925D01*
X108370590Y-73942962D01*
X107734208Y-74579342D01*
X107723788Y-74631193D01*
X107675172Y-74681376D01*
X107653032Y-74691205D01*
X107580674Y-74715182D01*
X107580663Y-74715187D01*
X107431342Y-74807289D01*
X107307289Y-74931342D01*
X107215187Y-75080663D01*
X107215183Y-75080673D01*
X107212335Y-75089268D01*
X107172560Y-75146711D01*
X107108044Y-75173531D01*
X107039268Y-75161214D01*
X107002517Y-75132233D01*
X107002324Y-75132427D01*
X107000682Y-75130785D01*
X106999642Y-75129965D01*
X106998494Y-75128597D01*
X106831402Y-74961506D01*
X106831396Y-74961501D01*
X106645842Y-74831575D01*
X106602217Y-74776998D01*
X106595023Y-74707500D01*
X106626546Y-74645145D01*
X106645842Y-74628425D01*
X106705121Y-74586917D01*
X106831401Y-74498495D01*
X106998495Y-74331401D01*
X107128732Y-74145403D01*
X107183307Y-74101780D01*
X107252805Y-74094586D01*
X107315160Y-74126109D01*
X107331880Y-74145405D01*
X107385073Y-74221373D01*
X108017037Y-73589409D01*
X108034075Y-73652993D01*
G37*
%TD.AperFunction*%
%TA.AperFunction,Conductor*%
G36*
X108034075Y-71112993D02*
G01*
X108099901Y-71227007D01*
X108192993Y-71320099D01*
X108307007Y-71385925D01*
X108370590Y-71402962D01*
X107738625Y-72034925D01*
X107815031Y-72088425D01*
X107858655Y-72143002D01*
X107865848Y-72212501D01*
X107834326Y-72274855D01*
X107815029Y-72291576D01*
X107738625Y-72345072D01*
X108370590Y-72977037D01*
X108307007Y-72994075D01*
X108192993Y-73059901D01*
X108099901Y-73152993D01*
X108034075Y-73267007D01*
X108017037Y-73330590D01*
X107385073Y-72698626D01*
X107331881Y-72774594D01*
X107277304Y-72818219D01*
X107207806Y-72825413D01*
X107145451Y-72793891D01*
X107128730Y-72774594D01*
X106998494Y-72588597D01*
X106831402Y-72421506D01*
X106831396Y-72421501D01*
X106645842Y-72291575D01*
X106602217Y-72236998D01*
X106595023Y-72167500D01*
X106626546Y-72105145D01*
X106645842Y-72088425D01*
X106747006Y-72017589D01*
X106831401Y-71958495D01*
X106998495Y-71791401D01*
X107128732Y-71605403D01*
X107183307Y-71561780D01*
X107252805Y-71554586D01*
X107315160Y-71586109D01*
X107331880Y-71605405D01*
X107385073Y-71681373D01*
X108017037Y-71049409D01*
X108034075Y-71112993D01*
G37*
%TD.AperFunction*%
%TA.AperFunction,Conductor*%
G36*
X107314855Y-69046546D02*
G01*
X107331575Y-69065842D01*
X107461500Y-69251395D01*
X107461505Y-69251401D01*
X107628599Y-69418495D01*
X107787479Y-69529744D01*
X107814594Y-69548730D01*
X107858218Y-69603307D01*
X107865411Y-69672806D01*
X107833889Y-69735160D01*
X107814593Y-69751880D01*
X107738626Y-69805072D01*
X107738625Y-69805072D01*
X108370590Y-70437037D01*
X108307007Y-70454075D01*
X108192993Y-70519901D01*
X108099901Y-70612993D01*
X108034075Y-70727007D01*
X108017037Y-70790590D01*
X107385073Y-70158626D01*
X107331881Y-70234594D01*
X107277304Y-70278219D01*
X107207806Y-70285413D01*
X107145451Y-70253891D01*
X107128730Y-70234594D01*
X106998494Y-70048597D01*
X106831402Y-69881506D01*
X106831396Y-69881501D01*
X106645842Y-69751575D01*
X106602217Y-69696998D01*
X106595023Y-69627500D01*
X106626546Y-69565145D01*
X106645842Y-69548425D01*
X106709459Y-69503880D01*
X106831401Y-69418495D01*
X106998495Y-69251401D01*
X107128425Y-69065842D01*
X107183002Y-69022217D01*
X107252500Y-69015023D01*
X107314855Y-69046546D01*
G37*
%TD.AperFunction*%
%TA.AperFunction,Conductor*%
G36*
X108034075Y-66032993D02*
G01*
X108099901Y-66147007D01*
X108192993Y-66240099D01*
X108307007Y-66305925D01*
X108370590Y-66322962D01*
X107738625Y-66954925D01*
X107814594Y-67008119D01*
X107858219Y-67062696D01*
X107865413Y-67132194D01*
X107833890Y-67194549D01*
X107814595Y-67211269D01*
X107628594Y-67341508D01*
X107461505Y-67508597D01*
X107331575Y-67694158D01*
X107276998Y-67737783D01*
X107207500Y-67744977D01*
X107145145Y-67713454D01*
X107128425Y-67694158D01*
X106998494Y-67508597D01*
X106831402Y-67341506D01*
X106831396Y-67341501D01*
X106645842Y-67211575D01*
X106602217Y-67156998D01*
X106595023Y-67087500D01*
X106626546Y-67025145D01*
X106645842Y-67008425D01*
X106763871Y-66925780D01*
X106831401Y-66878495D01*
X106998495Y-66711401D01*
X107128732Y-66525403D01*
X107183307Y-66481780D01*
X107252805Y-66474586D01*
X107315160Y-66506109D01*
X107331880Y-66525405D01*
X107385073Y-66601373D01*
X108017037Y-65969409D01*
X108034075Y-66032993D01*
G37*
%TD.AperFunction*%
%TA.AperFunction,Conductor*%
G36*
X80669534Y-53320397D02*
G01*
X80725467Y-53362269D01*
X80749884Y-53427733D01*
X80750200Y-53436578D01*
X80750200Y-53572369D01*
X80750201Y-53572376D01*
X80756608Y-53631982D01*
X80771410Y-53671669D01*
X80776393Y-53741361D01*
X80771410Y-53758331D01*
X80756608Y-53798017D01*
X80750382Y-53855932D01*
X80750201Y-53857623D01*
X80750200Y-53857635D01*
X80750200Y-54842370D01*
X80750201Y-54842376D01*
X80756608Y-54901982D01*
X80771410Y-54941669D01*
X80776393Y-55011361D01*
X80771410Y-55028331D01*
X80756608Y-55068017D01*
X80755310Y-55080095D01*
X80750201Y-55127623D01*
X80750200Y-55127635D01*
X80750200Y-56112370D01*
X80750201Y-56112376D01*
X80756608Y-56171982D01*
X80771410Y-56211669D01*
X80776393Y-56281361D01*
X80771410Y-56298331D01*
X80756608Y-56338017D01*
X80750994Y-56390240D01*
X80750201Y-56397623D01*
X80750200Y-56397635D01*
X80750200Y-57382370D01*
X80750201Y-57382376D01*
X80756608Y-57441982D01*
X80771410Y-57481669D01*
X80776393Y-57551361D01*
X80771410Y-57568331D01*
X80756608Y-57608017D01*
X80753324Y-57638569D01*
X80750201Y-57667623D01*
X80750200Y-57667635D01*
X80750200Y-58652370D01*
X80750201Y-58652376D01*
X80756608Y-58711982D01*
X80771410Y-58751669D01*
X80776393Y-58821361D01*
X80771410Y-58838331D01*
X80756608Y-58878017D01*
X80752973Y-58911834D01*
X80750201Y-58937623D01*
X80750200Y-58937635D01*
X80750200Y-59922370D01*
X80750201Y-59922376D01*
X80756608Y-59981982D01*
X80771410Y-60021669D01*
X80776393Y-60091361D01*
X80771410Y-60108331D01*
X80756608Y-60148017D01*
X80750201Y-60207616D01*
X80750201Y-60207623D01*
X80750200Y-60207635D01*
X80750200Y-61192370D01*
X80750201Y-61192376D01*
X80756608Y-61251982D01*
X80771410Y-61291669D01*
X80776393Y-61361361D01*
X80771410Y-61378331D01*
X80756608Y-61418017D01*
X80750201Y-61477616D01*
X80750201Y-61477623D01*
X80750200Y-61477635D01*
X80750200Y-62462370D01*
X80750201Y-62462376D01*
X80756608Y-62521982D01*
X80771410Y-62561669D01*
X80776393Y-62631361D01*
X80771410Y-62648331D01*
X80756608Y-62688017D01*
X80750201Y-62747616D01*
X80750201Y-62747623D01*
X80750200Y-62747635D01*
X80750200Y-63732370D01*
X80750201Y-63732376D01*
X80756608Y-63791982D01*
X80771410Y-63831669D01*
X80776393Y-63901361D01*
X80771410Y-63918331D01*
X80756608Y-63958017D01*
X80750201Y-64017616D01*
X80750201Y-64017623D01*
X80750200Y-64017635D01*
X80750201Y-65005693D01*
X80749273Y-65005693D01*
X80734095Y-65069877D01*
X80683808Y-65118385D01*
X80626351Y-65132500D01*
X79774000Y-65132500D01*
X79706961Y-65112815D01*
X79661206Y-65060011D01*
X79650000Y-65008500D01*
X79650000Y-64700000D01*
X77350000Y-64700000D01*
X77350000Y-65272844D01*
X77356401Y-65332372D01*
X77356403Y-65332379D01*
X77406645Y-65467086D01*
X77406649Y-65467093D01*
X77492809Y-65582187D01*
X77492812Y-65582190D01*
X77607906Y-65668350D01*
X77607913Y-65668354D01*
X77708017Y-65705690D01*
X77763950Y-65747561D01*
X77788368Y-65813025D01*
X77773517Y-65881298D01*
X77729783Y-65927410D01*
X77681342Y-65957289D01*
X77587681Y-66050951D01*
X77526358Y-66084436D01*
X77456666Y-66079452D01*
X77412319Y-66050951D01*
X77318657Y-65957289D01*
X77318656Y-65957288D01*
X77169334Y-65865186D01*
X77002797Y-65810001D01*
X77002795Y-65810000D01*
X76900010Y-65799500D01*
X76274998Y-65799500D01*
X76274980Y-65799501D01*
X76172203Y-65810000D01*
X76172200Y-65810001D01*
X76005668Y-65865185D01*
X76005663Y-65865187D01*
X75856342Y-65957289D01*
X75732289Y-66081342D01*
X75640187Y-66230663D01*
X75640186Y-66230666D01*
X75585197Y-66396614D01*
X75585001Y-66397204D01*
X75585000Y-66397205D01*
X75574649Y-66498529D01*
X75548253Y-66563221D01*
X75538972Y-66573607D01*
X74852381Y-67260198D01*
X74791058Y-67293683D01*
X74749122Y-67295535D01*
X74741509Y-67294570D01*
X74599454Y-67317438D01*
X74599451Y-67317439D01*
X74469598Y-67379399D01*
X74068783Y-67646609D01*
X74002084Y-67667417D01*
X73934723Y-67648862D01*
X73931217Y-67646609D01*
X73530401Y-67379399D01*
X73459994Y-67340182D01*
X73459987Y-67340179D01*
X73321942Y-67299645D01*
X73321940Y-67299645D01*
X73178060Y-67299645D01*
X73178057Y-67299645D01*
X73159434Y-67305113D01*
X73089564Y-67305113D01*
X73030786Y-67267338D01*
X73001762Y-67203782D01*
X73000500Y-67186136D01*
X73000500Y-65807418D01*
X73020185Y-65740379D01*
X73072989Y-65694624D01*
X73142147Y-65684680D01*
X73167833Y-65691236D01*
X73242517Y-65719091D01*
X73242516Y-65719091D01*
X73249444Y-65719835D01*
X73302127Y-65725500D01*
X74697872Y-65725499D01*
X74757483Y-65719091D01*
X74892331Y-65668796D01*
X75007546Y-65582546D01*
X75093796Y-65467331D01*
X75144091Y-65332483D01*
X75150500Y-65272873D01*
X75150499Y-64200000D01*
X77350000Y-64200000D01*
X78250000Y-64200000D01*
X78250000Y-63175000D01*
X78750000Y-63175000D01*
X78750000Y-64200000D01*
X79650000Y-64200000D01*
X79650000Y-63627172D01*
X79649999Y-63627155D01*
X79643598Y-63567627D01*
X79643596Y-63567620D01*
X79593354Y-63432913D01*
X79593350Y-63432906D01*
X79507190Y-63317812D01*
X79507187Y-63317809D01*
X79392093Y-63231649D01*
X79392086Y-63231645D01*
X79257379Y-63181403D01*
X79257372Y-63181401D01*
X79197844Y-63175000D01*
X78750000Y-63175000D01*
X78250000Y-63175000D01*
X77802155Y-63175000D01*
X77742627Y-63181401D01*
X77742620Y-63181403D01*
X77607913Y-63231645D01*
X77607906Y-63231649D01*
X77492812Y-63317809D01*
X77492809Y-63317812D01*
X77406649Y-63432906D01*
X77406645Y-63432913D01*
X77356403Y-63567620D01*
X77356401Y-63567627D01*
X77350000Y-63627155D01*
X77350000Y-64200000D01*
X75150499Y-64200000D01*
X75150499Y-63627128D01*
X75144091Y-63567517D01*
X75093884Y-63432906D01*
X75093797Y-63432671D01*
X75093793Y-63432664D01*
X75007547Y-63317455D01*
X75007544Y-63317452D01*
X74892335Y-63231206D01*
X74892328Y-63231202D01*
X74757482Y-63180908D01*
X74757484Y-63180908D01*
X74738243Y-63178840D01*
X74673692Y-63152101D01*
X74633845Y-63094708D01*
X74627500Y-63055551D01*
X74627500Y-57894448D01*
X74647185Y-57827409D01*
X74699989Y-57781654D01*
X74738248Y-57771158D01*
X74757483Y-57769091D01*
X74892331Y-57718796D01*
X75007546Y-57632546D01*
X75093796Y-57517331D01*
X75144091Y-57382483D01*
X75150500Y-57322873D01*
X75150499Y-56750000D01*
X77350000Y-56750000D01*
X77350000Y-57322844D01*
X77356401Y-57382372D01*
X77356403Y-57382379D01*
X77406645Y-57517086D01*
X77406649Y-57517093D01*
X77492809Y-57632187D01*
X77492812Y-57632190D01*
X77607906Y-57718350D01*
X77607913Y-57718354D01*
X77742620Y-57768596D01*
X77742627Y-57768598D01*
X77802155Y-57774999D01*
X77802172Y-57775000D01*
X78250000Y-57775000D01*
X78250000Y-56750000D01*
X78750000Y-56750000D01*
X78750000Y-57775000D01*
X79197828Y-57775000D01*
X79197844Y-57774999D01*
X79257372Y-57768598D01*
X79257379Y-57768596D01*
X79392086Y-57718354D01*
X79392093Y-57718350D01*
X79507187Y-57632190D01*
X79507190Y-57632187D01*
X79593350Y-57517093D01*
X79593354Y-57517086D01*
X79643596Y-57382379D01*
X79643598Y-57382372D01*
X79649999Y-57322844D01*
X79650000Y-57322827D01*
X79650000Y-56750000D01*
X78750000Y-56750000D01*
X78250000Y-56750000D01*
X77350000Y-56750000D01*
X75150499Y-56750000D01*
X75150499Y-56250000D01*
X77350000Y-56250000D01*
X78250000Y-56250000D01*
X78250000Y-55225000D01*
X78750000Y-55225000D01*
X78750000Y-56250000D01*
X79650000Y-56250000D01*
X79650000Y-55677172D01*
X79649999Y-55677155D01*
X79643598Y-55617627D01*
X79643596Y-55617620D01*
X79593354Y-55482913D01*
X79593350Y-55482906D01*
X79507190Y-55367812D01*
X79507187Y-55367809D01*
X79392093Y-55281649D01*
X79392086Y-55281645D01*
X79257379Y-55231403D01*
X79257372Y-55231401D01*
X79197844Y-55225000D01*
X78750000Y-55225000D01*
X78250000Y-55225000D01*
X77802155Y-55225000D01*
X77742627Y-55231401D01*
X77742620Y-55231403D01*
X77607913Y-55281645D01*
X77607906Y-55281649D01*
X77492812Y-55367809D01*
X77492809Y-55367812D01*
X77406649Y-55482906D01*
X77406645Y-55482913D01*
X77356403Y-55617620D01*
X77356401Y-55617627D01*
X77350000Y-55677155D01*
X77350000Y-56250000D01*
X75150499Y-56250000D01*
X75150499Y-55738279D01*
X75170184Y-55671241D01*
X75186813Y-55650604D01*
X75850600Y-54986818D01*
X75911923Y-54953333D01*
X75938281Y-54950499D01*
X76525002Y-54950499D01*
X76525008Y-54950499D01*
X76627797Y-54939999D01*
X76794334Y-54884814D01*
X76943656Y-54792712D01*
X77067712Y-54668656D01*
X77067712Y-54668655D01*
X77072549Y-54663819D01*
X77133872Y-54630334D01*
X77160230Y-54627500D01*
X77889770Y-54627500D01*
X77956809Y-54647185D01*
X77977451Y-54663819D01*
X78081344Y-54767712D01*
X78230666Y-54859814D01*
X78397203Y-54914999D01*
X78499991Y-54925500D01*
X79500008Y-54925499D01*
X79500016Y-54925498D01*
X79500019Y-54925498D01*
X79556302Y-54919748D01*
X79602797Y-54914999D01*
X79769334Y-54859814D01*
X79918656Y-54767712D01*
X80042712Y-54643656D01*
X80134814Y-54494334D01*
X80189999Y-54327797D01*
X80200500Y-54225009D01*
X80200499Y-53738279D01*
X80220183Y-53671241D01*
X80236813Y-53650604D01*
X80538521Y-53348896D01*
X80599842Y-53315413D01*
X80669534Y-53320397D01*
G37*
%TD.AperFunction*%
%TA.AperFunction,Conductor*%
G36*
X94295758Y-51187185D02*
G01*
X94316400Y-51203819D01*
X97586181Y-54473600D01*
X97619666Y-54534923D01*
X97622500Y-54561281D01*
X97622500Y-63707630D01*
X97603494Y-63773602D01*
X97524211Y-63899778D01*
X97464631Y-64070047D01*
X97464630Y-64070052D01*
X97444435Y-64249298D01*
X97444435Y-64249306D01*
X97458294Y-64372317D01*
X97446239Y-64441139D01*
X97398890Y-64492518D01*
X97335075Y-64510200D01*
X97242630Y-64510200D01*
X97242623Y-64510201D01*
X97183017Y-64516608D01*
X97143331Y-64531410D01*
X97073639Y-64536393D01*
X97056669Y-64531410D01*
X97016981Y-64516608D01*
X97016983Y-64516608D01*
X96957383Y-64510201D01*
X96957381Y-64510200D01*
X96957373Y-64510200D01*
X96957364Y-64510200D01*
X95972629Y-64510200D01*
X95972623Y-64510201D01*
X95913017Y-64516608D01*
X95873331Y-64531410D01*
X95803639Y-64536393D01*
X95786669Y-64531410D01*
X95746981Y-64516608D01*
X95746983Y-64516608D01*
X95687383Y-64510201D01*
X95687381Y-64510200D01*
X95687373Y-64510200D01*
X95687364Y-64510200D01*
X94702629Y-64510200D01*
X94702623Y-64510201D01*
X94643017Y-64516608D01*
X94603331Y-64531410D01*
X94533639Y-64536393D01*
X94516669Y-64531410D01*
X94476981Y-64516608D01*
X94476983Y-64516608D01*
X94417383Y-64510201D01*
X94417381Y-64510200D01*
X94417373Y-64510200D01*
X94417364Y-64510200D01*
X93432629Y-64510200D01*
X93432623Y-64510201D01*
X93373017Y-64516608D01*
X93333331Y-64531410D01*
X93263639Y-64536393D01*
X93246669Y-64531410D01*
X93206981Y-64516608D01*
X93206983Y-64516608D01*
X93147383Y-64510201D01*
X93147381Y-64510200D01*
X93147373Y-64510200D01*
X93147364Y-64510200D01*
X92162629Y-64510200D01*
X92162623Y-64510201D01*
X92103017Y-64516608D01*
X92063331Y-64531410D01*
X91993639Y-64536393D01*
X91976669Y-64531410D01*
X91936981Y-64516608D01*
X91936983Y-64516608D01*
X91877383Y-64510201D01*
X91877381Y-64510200D01*
X91877373Y-64510200D01*
X91877364Y-64510200D01*
X90892629Y-64510200D01*
X90892623Y-64510201D01*
X90833017Y-64516608D01*
X90793331Y-64531410D01*
X90723639Y-64536393D01*
X90706669Y-64531410D01*
X90666981Y-64516608D01*
X90666983Y-64516608D01*
X90607383Y-64510201D01*
X90607381Y-64510200D01*
X90607373Y-64510200D01*
X90607364Y-64510200D01*
X89622629Y-64510200D01*
X89622623Y-64510201D01*
X89563017Y-64516608D01*
X89523331Y-64531410D01*
X89453639Y-64536393D01*
X89436669Y-64531410D01*
X89396981Y-64516608D01*
X89396983Y-64516608D01*
X89337383Y-64510201D01*
X89337381Y-64510200D01*
X89337373Y-64510200D01*
X89337364Y-64510200D01*
X88352629Y-64510200D01*
X88352623Y-64510201D01*
X88293017Y-64516608D01*
X88253331Y-64531410D01*
X88183639Y-64536393D01*
X88166669Y-64531410D01*
X88126981Y-64516608D01*
X88126983Y-64516608D01*
X88067383Y-64510201D01*
X88067381Y-64510200D01*
X88067373Y-64510200D01*
X88067364Y-64510200D01*
X87082629Y-64510200D01*
X87082623Y-64510201D01*
X87023017Y-64516608D01*
X86983331Y-64531410D01*
X86913639Y-64536393D01*
X86896669Y-64531410D01*
X86856981Y-64516608D01*
X86856983Y-64516608D01*
X86797383Y-64510201D01*
X86797381Y-64510200D01*
X86797373Y-64510200D01*
X86797364Y-64510200D01*
X85812629Y-64510200D01*
X85812623Y-64510201D01*
X85753017Y-64516608D01*
X85713331Y-64531410D01*
X85643639Y-64536393D01*
X85626669Y-64531410D01*
X85586981Y-64516608D01*
X85586983Y-64516608D01*
X85527383Y-64510201D01*
X85527381Y-64510200D01*
X85527373Y-64510200D01*
X85527364Y-64510200D01*
X84542629Y-64510200D01*
X84542623Y-64510201D01*
X84483017Y-64516608D01*
X84443331Y-64531410D01*
X84373639Y-64536393D01*
X84356669Y-64531410D01*
X84316981Y-64516608D01*
X84316983Y-64516608D01*
X84257383Y-64510201D01*
X84257381Y-64510200D01*
X84257373Y-64510200D01*
X84257365Y-64510200D01*
X83373799Y-64510200D01*
X83306760Y-64490515D01*
X83261005Y-64437711D01*
X83249799Y-64386200D01*
X83249799Y-64017629D01*
X83249798Y-64017623D01*
X83249797Y-64017616D01*
X83243391Y-63958017D01*
X83228590Y-63918334D01*
X83223605Y-63848642D01*
X83228589Y-63831669D01*
X83243391Y-63791983D01*
X83249800Y-63732373D01*
X83249799Y-62747628D01*
X83243391Y-62688017D01*
X83228590Y-62648334D01*
X83223605Y-62578642D01*
X83228589Y-62561669D01*
X83243391Y-62521983D01*
X83249800Y-62462373D01*
X83249799Y-61477628D01*
X83243391Y-61418017D01*
X83228590Y-61378334D01*
X83223605Y-61308642D01*
X83228589Y-61291669D01*
X83243391Y-61251983D01*
X83249800Y-61192373D01*
X83249799Y-60207628D01*
X83243391Y-60148017D01*
X83228590Y-60108334D01*
X83223605Y-60038642D01*
X83228589Y-60021669D01*
X83243391Y-59981983D01*
X83249800Y-59922373D01*
X83249799Y-58937628D01*
X83243391Y-58878017D01*
X83228590Y-58838334D01*
X83223605Y-58768642D01*
X83228589Y-58751669D01*
X83243391Y-58711983D01*
X83249800Y-58652373D01*
X83249799Y-57667628D01*
X83243391Y-57608017D01*
X83228590Y-57568334D01*
X83223605Y-57498642D01*
X83228589Y-57481669D01*
X83243391Y-57441983D01*
X83249800Y-57382373D01*
X83249800Y-57370000D01*
X87155500Y-57370000D01*
X87155500Y-57612344D01*
X87161901Y-57671872D01*
X87161903Y-57671879D01*
X87212145Y-57806586D01*
X87212149Y-57806593D01*
X87298309Y-57921687D01*
X87298312Y-57921690D01*
X87413406Y-58007850D01*
X87413413Y-58007854D01*
X87548120Y-58058096D01*
X87548127Y-58058098D01*
X87607655Y-58064499D01*
X87607672Y-58064500D01*
X87850000Y-58064500D01*
X87850000Y-57370000D01*
X88350000Y-57370000D01*
X88350000Y-58064500D01*
X88592328Y-58064500D01*
X88592344Y-58064499D01*
X88651872Y-58058098D01*
X88651876Y-58058097D01*
X88756666Y-58019013D01*
X88826358Y-58014029D01*
X88843334Y-58019013D01*
X88948123Y-58058097D01*
X88948127Y-58058098D01*
X89007655Y-58064499D01*
X89007672Y-58064500D01*
X89250000Y-58064500D01*
X89250000Y-57370000D01*
X89750000Y-57370000D01*
X89750000Y-58064500D01*
X89992328Y-58064500D01*
X89992344Y-58064499D01*
X90051872Y-58058098D01*
X90051876Y-58058097D01*
X90156666Y-58019013D01*
X90226358Y-58014029D01*
X90243334Y-58019013D01*
X90348123Y-58058097D01*
X90348127Y-58058098D01*
X90407655Y-58064499D01*
X90407672Y-58064500D01*
X90650000Y-58064500D01*
X90650000Y-57370000D01*
X91150000Y-57370000D01*
X91150000Y-58064500D01*
X91392328Y-58064500D01*
X91392344Y-58064499D01*
X91451872Y-58058098D01*
X91451879Y-58058096D01*
X91586586Y-58007854D01*
X91586593Y-58007850D01*
X91701687Y-57921690D01*
X91701690Y-57921687D01*
X91787850Y-57806593D01*
X91787854Y-57806586D01*
X91838096Y-57671879D01*
X91838098Y-57671872D01*
X91844499Y-57612344D01*
X91844500Y-57612327D01*
X91844500Y-57370000D01*
X91150000Y-57370000D01*
X90650000Y-57370000D01*
X89750000Y-57370000D01*
X89250000Y-57370000D01*
X88350000Y-57370000D01*
X87850000Y-57370000D01*
X87155500Y-57370000D01*
X83249800Y-57370000D01*
X83249799Y-56397628D01*
X83243391Y-56338017D01*
X83228590Y-56298334D01*
X83223605Y-56228642D01*
X83228589Y-56211669D01*
X83243391Y-56171983D01*
X83249800Y-56112373D01*
X83249800Y-55970000D01*
X87155500Y-55970000D01*
X87155500Y-56212344D01*
X87161901Y-56271872D01*
X87161903Y-56271880D01*
X87200986Y-56376667D01*
X87205970Y-56446359D01*
X87200986Y-56463333D01*
X87161903Y-56568119D01*
X87161901Y-56568127D01*
X87155500Y-56627655D01*
X87155500Y-56870000D01*
X87850000Y-56870000D01*
X87850000Y-55970000D01*
X88350000Y-55970000D01*
X88350000Y-56870000D01*
X89250000Y-56870000D01*
X89250000Y-55970000D01*
X89750000Y-55970000D01*
X89750000Y-56870000D01*
X90650000Y-56870000D01*
X90650000Y-55970000D01*
X91150000Y-55970000D01*
X91150000Y-56870000D01*
X91844500Y-56870000D01*
X91844500Y-56627672D01*
X91844499Y-56627655D01*
X91838098Y-56568127D01*
X91838097Y-56568123D01*
X91799013Y-56463334D01*
X91794029Y-56393642D01*
X91799013Y-56376666D01*
X91838097Y-56271876D01*
X91838098Y-56271872D01*
X91844499Y-56212344D01*
X91844500Y-56212327D01*
X91844500Y-55970000D01*
X91150000Y-55970000D01*
X90650000Y-55970000D01*
X89750000Y-55970000D01*
X89250000Y-55970000D01*
X88350000Y-55970000D01*
X87850000Y-55970000D01*
X87155500Y-55970000D01*
X83249800Y-55970000D01*
X83249799Y-55127628D01*
X83243391Y-55068017D01*
X83241644Y-55063334D01*
X83228590Y-55028334D01*
X83223605Y-54958642D01*
X83228589Y-54941669D01*
X83243391Y-54901983D01*
X83249800Y-54842373D01*
X83249800Y-54570000D01*
X87155500Y-54570000D01*
X87155500Y-54812344D01*
X87161901Y-54871872D01*
X87161903Y-54871880D01*
X87200986Y-54976667D01*
X87205970Y-55046359D01*
X87200986Y-55063333D01*
X87161903Y-55168119D01*
X87161901Y-55168127D01*
X87155500Y-55227655D01*
X87155500Y-55470000D01*
X87850000Y-55470000D01*
X87850000Y-54570000D01*
X88350000Y-54570000D01*
X88350000Y-55470000D01*
X89250000Y-55470000D01*
X89250000Y-54570000D01*
X89750000Y-54570000D01*
X89750000Y-55470000D01*
X90650000Y-55470000D01*
X90650000Y-54570000D01*
X91150000Y-54570000D01*
X91150000Y-55470000D01*
X91844500Y-55470000D01*
X91844500Y-55227672D01*
X91844499Y-55227655D01*
X91838098Y-55168127D01*
X91838097Y-55168123D01*
X91799013Y-55063334D01*
X91794029Y-54993642D01*
X91799013Y-54976666D01*
X91838097Y-54871876D01*
X91838098Y-54871872D01*
X91844499Y-54812344D01*
X91844500Y-54812327D01*
X91844500Y-54570000D01*
X91150000Y-54570000D01*
X90650000Y-54570000D01*
X89750000Y-54570000D01*
X89250000Y-54570000D01*
X88350000Y-54570000D01*
X87850000Y-54570000D01*
X87155500Y-54570000D01*
X83249800Y-54570000D01*
X83249799Y-54070000D01*
X87155500Y-54070000D01*
X87850000Y-54070000D01*
X87850000Y-53375500D01*
X88350000Y-53375500D01*
X88350000Y-54070000D01*
X89250000Y-54070000D01*
X89250000Y-53375500D01*
X89750000Y-53375500D01*
X89750000Y-54070000D01*
X90650000Y-54070000D01*
X90650000Y-53375500D01*
X91150000Y-53375500D01*
X91150000Y-54070000D01*
X91844500Y-54070000D01*
X91844500Y-53827672D01*
X91844499Y-53827655D01*
X91838098Y-53768127D01*
X91838096Y-53768120D01*
X91787854Y-53633413D01*
X91787850Y-53633406D01*
X91701690Y-53518312D01*
X91701687Y-53518309D01*
X91586593Y-53432149D01*
X91586586Y-53432145D01*
X91451879Y-53381903D01*
X91451872Y-53381901D01*
X91392344Y-53375500D01*
X91150000Y-53375500D01*
X90650000Y-53375500D01*
X90407655Y-53375500D01*
X90348127Y-53381901D01*
X90348119Y-53381903D01*
X90243333Y-53420986D01*
X90173641Y-53425970D01*
X90156667Y-53420986D01*
X90051880Y-53381903D01*
X90051872Y-53381901D01*
X89992344Y-53375500D01*
X89750000Y-53375500D01*
X89250000Y-53375500D01*
X89007655Y-53375500D01*
X88948127Y-53381901D01*
X88948119Y-53381903D01*
X88843333Y-53420986D01*
X88773641Y-53425970D01*
X88756667Y-53420986D01*
X88651880Y-53381903D01*
X88651872Y-53381901D01*
X88592344Y-53375500D01*
X88350000Y-53375500D01*
X87850000Y-53375500D01*
X87607655Y-53375500D01*
X87548127Y-53381901D01*
X87548120Y-53381903D01*
X87413413Y-53432145D01*
X87413406Y-53432149D01*
X87298312Y-53518309D01*
X87298309Y-53518312D01*
X87212149Y-53633406D01*
X87212145Y-53633413D01*
X87161903Y-53768120D01*
X87161901Y-53768127D01*
X87155500Y-53827655D01*
X87155500Y-54070000D01*
X83249799Y-54070000D01*
X83249799Y-53857628D01*
X83243391Y-53798017D01*
X83228590Y-53758334D01*
X83223605Y-53688642D01*
X83228589Y-53671669D01*
X83243391Y-53631983D01*
X83249800Y-53572373D01*
X83249799Y-52587628D01*
X83243391Y-52528017D01*
X83233984Y-52502797D01*
X83228590Y-52488334D01*
X83223605Y-52418642D01*
X83228589Y-52401669D01*
X83243391Y-52361983D01*
X83249800Y-52302373D01*
X83249799Y-51317628D01*
X83248415Y-51304753D01*
X83260821Y-51235995D01*
X83308432Y-51184858D01*
X83371705Y-51167500D01*
X94228719Y-51167500D01*
X94295758Y-51187185D01*
G37*
%TD.AperFunction*%
%TA.AperFunction,Conductor*%
G36*
X74827605Y-47270185D02*
G01*
X74873360Y-47322989D01*
X74883304Y-47392147D01*
X74866104Y-47439597D01*
X74840646Y-47480869D01*
X74840641Y-47480880D01*
X74785494Y-47647302D01*
X74785493Y-47647309D01*
X74775000Y-47750013D01*
X74775000Y-47800000D01*
X77224999Y-47800000D01*
X77224999Y-47750028D01*
X77224998Y-47750013D01*
X77214505Y-47647302D01*
X77159358Y-47480880D01*
X77159353Y-47480869D01*
X77133896Y-47439597D01*
X77115455Y-47372205D01*
X77136377Y-47305541D01*
X77190019Y-47260771D01*
X77239434Y-47250500D01*
X77730113Y-47250500D01*
X77797152Y-47270185D01*
X77842907Y-47322989D01*
X77852851Y-47392147D01*
X77842496Y-47426904D01*
X77840641Y-47430881D01*
X77785494Y-47597302D01*
X77785493Y-47597309D01*
X77775000Y-47700013D01*
X77775000Y-47750000D01*
X80224999Y-47750000D01*
X80224999Y-47700028D01*
X80224998Y-47700013D01*
X80214505Y-47597302D01*
X80159358Y-47430881D01*
X80157504Y-47426904D01*
X80147013Y-47357826D01*
X80175533Y-47294043D01*
X80234010Y-47255804D01*
X80269887Y-47250500D01*
X80652218Y-47250500D01*
X80719257Y-47270185D01*
X80765012Y-47322989D01*
X80774956Y-47392147D01*
X80768400Y-47417834D01*
X80757102Y-47448123D01*
X80757101Y-47448127D01*
X80750700Y-47507655D01*
X80750700Y-47750000D01*
X83249300Y-47750000D01*
X83249300Y-47507672D01*
X83249299Y-47507655D01*
X83242898Y-47448127D01*
X83242897Y-47448123D01*
X83231600Y-47417834D01*
X83226616Y-47348143D01*
X83260100Y-47286819D01*
X83321423Y-47253334D01*
X83347782Y-47250500D01*
X98152218Y-47250500D01*
X98219257Y-47270185D01*
X98265012Y-47322989D01*
X98274956Y-47392147D01*
X98268400Y-47417834D01*
X98257102Y-47448123D01*
X98257101Y-47448127D01*
X98250700Y-47507655D01*
X98250700Y-47750000D01*
X100749300Y-47750000D01*
X100749300Y-47507672D01*
X100749299Y-47507655D01*
X100742898Y-47448127D01*
X100742897Y-47448123D01*
X100731600Y-47417834D01*
X100726616Y-47348143D01*
X100760100Y-47286819D01*
X100821423Y-47253334D01*
X100847782Y-47250500D01*
X105535299Y-47250500D01*
X105602338Y-47270185D01*
X105648093Y-47322989D01*
X105658037Y-47392147D01*
X105653230Y-47412818D01*
X105633985Y-47472047D01*
X105599500Y-47689778D01*
X105599500Y-49710226D01*
X105603679Y-49736618D01*
X105594722Y-49805911D01*
X105568889Y-49843690D01*
X105536402Y-49876179D01*
X105475080Y-49909665D01*
X105448718Y-49912500D01*
X100871705Y-49912500D01*
X100804666Y-49892815D01*
X100758911Y-49840011D01*
X100748416Y-49775243D01*
X100749799Y-49762378D01*
X100749800Y-49762373D01*
X100749799Y-48777628D01*
X100743391Y-48718017D01*
X100728322Y-48677617D01*
X100723339Y-48607927D01*
X100728324Y-48590949D01*
X100742898Y-48551876D01*
X100749299Y-48492344D01*
X100749300Y-48492327D01*
X100749300Y-48250000D01*
X98250700Y-48250000D01*
X98250700Y-48492344D01*
X98257101Y-48551872D01*
X98257103Y-48551880D01*
X98271676Y-48590952D01*
X98276660Y-48660644D01*
X98271677Y-48677616D01*
X98256608Y-48718018D01*
X98251198Y-48768345D01*
X98250201Y-48777623D01*
X98250200Y-48777635D01*
X98250200Y-49762370D01*
X98250201Y-49762376D01*
X98256608Y-49821982D01*
X98271410Y-49861669D01*
X98276393Y-49931361D01*
X98271410Y-49948331D01*
X98256608Y-49988017D01*
X98250201Y-50047616D01*
X98250200Y-50047635D01*
X98250200Y-51032370D01*
X98250201Y-51032376D01*
X98256608Y-51091982D01*
X98271410Y-51131669D01*
X98276393Y-51201361D01*
X98271410Y-51218331D01*
X98256608Y-51258017D01*
X98251584Y-51304754D01*
X98250201Y-51317625D01*
X98250200Y-51317635D01*
X98250200Y-52302370D01*
X98250201Y-52302376D01*
X98256608Y-52361982D01*
X98271410Y-52401669D01*
X98276393Y-52471361D01*
X98271410Y-52488331D01*
X98256608Y-52528017D01*
X98250201Y-52587616D01*
X98250201Y-52587623D01*
X98250200Y-52587635D01*
X98250200Y-53063418D01*
X98230515Y-53130457D01*
X98177711Y-53176212D01*
X98108553Y-53186156D01*
X98044997Y-53157131D01*
X98038519Y-53151099D01*
X94900011Y-50012591D01*
X94900006Y-50012587D01*
X94842723Y-49974313D01*
X94842722Y-49974312D01*
X94797230Y-49943915D01*
X94797228Y-49943914D01*
X94763785Y-49930062D01*
X94683035Y-49896614D01*
X94683027Y-49896612D01*
X94561807Y-49872500D01*
X94561803Y-49872500D01*
X83373800Y-49872500D01*
X83306761Y-49852815D01*
X83261006Y-49800011D01*
X83249800Y-49748500D01*
X83249799Y-48777629D01*
X83249798Y-48777623D01*
X83249797Y-48777616D01*
X83243391Y-48718017D01*
X83228322Y-48677617D01*
X83223339Y-48607927D01*
X83228324Y-48590949D01*
X83242898Y-48551876D01*
X83249299Y-48492344D01*
X83249300Y-48492327D01*
X83249300Y-48250000D01*
X80750700Y-48250000D01*
X80750700Y-48391500D01*
X80731015Y-48458539D01*
X80678211Y-48504294D01*
X80626700Y-48515500D01*
X80340295Y-48515500D01*
X80273256Y-48495815D01*
X80227501Y-48443011D01*
X80216937Y-48378896D01*
X80224999Y-48299983D01*
X80225000Y-48299973D01*
X80225000Y-48250000D01*
X77775001Y-48250000D01*
X77775001Y-48299986D01*
X77785494Y-48402697D01*
X77840641Y-48569119D01*
X77840643Y-48569124D01*
X77932684Y-48718345D01*
X78056655Y-48842316D01*
X78056659Y-48842319D01*
X78059656Y-48844168D01*
X78061279Y-48845972D01*
X78062323Y-48846798D01*
X78062181Y-48846976D01*
X78106381Y-48896116D01*
X78117602Y-48965079D01*
X78089759Y-49029161D01*
X78059661Y-49055241D01*
X78056349Y-49057283D01*
X77954450Y-49159182D01*
X77893127Y-49192666D01*
X77866769Y-49195500D01*
X77083230Y-49195500D01*
X77016191Y-49175815D01*
X76995549Y-49159181D01*
X76943657Y-49107289D01*
X76943656Y-49107288D01*
X76940342Y-49105243D01*
X76938546Y-49103248D01*
X76937989Y-49102807D01*
X76938064Y-49102711D01*
X76893618Y-49053297D01*
X76882397Y-48984334D01*
X76910240Y-48920252D01*
X76940348Y-48894165D01*
X76943342Y-48892318D01*
X77067315Y-48768345D01*
X77159356Y-48619124D01*
X77159358Y-48619119D01*
X77214505Y-48452697D01*
X77214506Y-48452690D01*
X77224999Y-48349986D01*
X77225000Y-48349973D01*
X77225000Y-48300000D01*
X74775001Y-48300000D01*
X74775001Y-48349986D01*
X74785494Y-48452697D01*
X74840641Y-48619119D01*
X74840643Y-48619124D01*
X74932684Y-48768345D01*
X75056655Y-48892316D01*
X75056659Y-48892319D01*
X75059656Y-48894168D01*
X75061279Y-48895972D01*
X75062323Y-48896798D01*
X75062181Y-48896976D01*
X75106381Y-48946116D01*
X75117602Y-49015079D01*
X75089759Y-49079161D01*
X75059661Y-49105241D01*
X75056349Y-49107283D01*
X75056343Y-49107288D01*
X74932289Y-49231342D01*
X74840187Y-49380663D01*
X74840186Y-49380666D01*
X74785001Y-49547203D01*
X74785001Y-49547204D01*
X74785000Y-49547204D01*
X74774500Y-49649983D01*
X74774500Y-50250001D01*
X74774501Y-50250019D01*
X74785000Y-50352796D01*
X74785001Y-50352799D01*
X74837874Y-50512358D01*
X74840186Y-50519334D01*
X74932288Y-50668656D01*
X75056344Y-50792712D01*
X75205666Y-50884814D01*
X75205670Y-50884815D01*
X75212209Y-50887864D01*
X75210804Y-50890876D01*
X75256146Y-50922113D01*
X75283120Y-50986565D01*
X75270967Y-51055370D01*
X75223544Y-51106681D01*
X75212287Y-51112653D01*
X75205882Y-51115639D01*
X75056654Y-51207684D01*
X74932684Y-51331654D01*
X74840643Y-51480875D01*
X74840641Y-51480880D01*
X74785494Y-51647302D01*
X74785493Y-51647309D01*
X74775000Y-51750013D01*
X74775000Y-51800000D01*
X77224999Y-51800000D01*
X77224999Y-51750028D01*
X77224998Y-51750013D01*
X77214505Y-51647302D01*
X77159358Y-51480880D01*
X77159356Y-51480875D01*
X77067315Y-51331654D01*
X76943345Y-51207684D01*
X76794115Y-51115638D01*
X76787715Y-51112654D01*
X76735275Y-51066482D01*
X76716123Y-50999289D01*
X76736338Y-50932408D01*
X76788014Y-50888342D01*
X76787791Y-50887864D01*
X76794326Y-50884816D01*
X76794334Y-50884814D01*
X76943656Y-50792712D01*
X76995549Y-50740819D01*
X77056872Y-50707334D01*
X77083230Y-50704500D01*
X77966770Y-50704500D01*
X78033809Y-50724185D01*
X78054451Y-50740819D01*
X78056344Y-50742712D01*
X78186597Y-50823052D01*
X78233321Y-50874998D01*
X78245500Y-50928590D01*
X78245500Y-51061828D01*
X78225815Y-51128867D01*
X78186597Y-51167366D01*
X78081347Y-51232285D01*
X78081343Y-51232288D01*
X77957289Y-51356342D01*
X77865187Y-51505663D01*
X77865186Y-51505666D01*
X77810001Y-51672203D01*
X77810001Y-51672204D01*
X77810000Y-51672204D01*
X77799500Y-51774983D01*
X77799500Y-52400001D01*
X77799501Y-52400019D01*
X77810000Y-52502796D01*
X77810001Y-52502799D01*
X77865185Y-52669331D01*
X77865187Y-52669336D01*
X77957289Y-52818657D01*
X78050951Y-52912319D01*
X78084436Y-52973642D01*
X78079452Y-53043334D01*
X78050951Y-53087681D01*
X77957288Y-53181343D01*
X77957287Y-53181344D01*
X77875715Y-53313596D01*
X77823767Y-53360321D01*
X77770176Y-53372500D01*
X77223984Y-53372500D01*
X77156945Y-53352815D01*
X77118445Y-53313596D01*
X77067712Y-53231344D01*
X76943657Y-53107289D01*
X76943656Y-53107288D01*
X76940342Y-53105243D01*
X76938546Y-53103248D01*
X76937989Y-53102807D01*
X76938064Y-53102711D01*
X76893618Y-53053297D01*
X76882397Y-52984334D01*
X76910240Y-52920252D01*
X76940348Y-52894165D01*
X76943342Y-52892318D01*
X77067315Y-52768345D01*
X77159356Y-52619124D01*
X77159358Y-52619119D01*
X77214505Y-52452697D01*
X77214506Y-52452690D01*
X77224999Y-52349986D01*
X77225000Y-52349973D01*
X77225000Y-52300000D01*
X74775001Y-52300000D01*
X74775001Y-52349986D01*
X74785494Y-52452697D01*
X74840641Y-52619119D01*
X74840643Y-52619124D01*
X74932684Y-52768345D01*
X75056655Y-52892316D01*
X75056659Y-52892319D01*
X75059656Y-52894168D01*
X75061279Y-52895972D01*
X75062323Y-52896798D01*
X75062181Y-52896976D01*
X75106381Y-52946116D01*
X75117602Y-53015079D01*
X75089759Y-53079161D01*
X75059661Y-53105241D01*
X75056349Y-53107283D01*
X75056343Y-53107288D01*
X74932289Y-53231342D01*
X74840187Y-53380663D01*
X74840185Y-53380668D01*
X74812349Y-53464670D01*
X74785001Y-53547203D01*
X74785001Y-53547204D01*
X74785000Y-53547204D01*
X74774500Y-53649983D01*
X74774500Y-54236717D01*
X74754815Y-54303756D01*
X74738181Y-54324398D01*
X73874398Y-55188181D01*
X73813075Y-55221666D01*
X73786717Y-55224500D01*
X73302129Y-55224500D01*
X73302123Y-55224501D01*
X73242514Y-55230909D01*
X73167832Y-55258763D01*
X73098140Y-55263747D01*
X73036817Y-55230261D01*
X73003333Y-55168937D01*
X73000500Y-55142581D01*
X73000500Y-47374500D01*
X73020185Y-47307461D01*
X73072989Y-47261706D01*
X73124500Y-47250500D01*
X74760566Y-47250500D01*
X74827605Y-47270185D01*
G37*
%TD.AperFunction*%
%TD*%
M02*
