%TF.GenerationSoftware,KiCad,Pcbnew,8.0.1*%
%TF.CreationDate,2024-04-01T15:32:46-05:00*%
%TF.ProjectId,ece445_headset,65636534-3435-45f6-9865-61647365742e,rev?*%
%TF.SameCoordinates,Original*%
%TF.FileFunction,Soldermask,Top*%
%TF.FilePolarity,Negative*%
%FSLAX46Y46*%
G04 Gerber Fmt 4.6, Leading zero omitted, Abs format (unit mm)*
G04 Created by KiCad (PCBNEW 8.0.1) date 2024-04-01 15:32:46*
%MOMM*%
%LPD*%
G01*
G04 APERTURE LIST*
G04 Aperture macros list*
%AMRoundRect*
0 Rectangle with rounded corners*
0 $1 Rounding radius*
0 $2 $3 $4 $5 $6 $7 $8 $9 X,Y pos of 4 corners*
0 Add a 4 corners polygon primitive as box body*
4,1,4,$2,$3,$4,$5,$6,$7,$8,$9,$2,$3,0*
0 Add four circle primitives for the rounded corners*
1,1,$1+$1,$2,$3*
1,1,$1+$1,$4,$5*
1,1,$1+$1,$6,$7*
1,1,$1+$1,$8,$9*
0 Add four rect primitives between the rounded corners*
20,1,$1+$1,$2,$3,$4,$5,0*
20,1,$1+$1,$4,$5,$6,$7,0*
20,1,$1+$1,$6,$7,$8,$9,0*
20,1,$1+$1,$8,$9,$2,$3,0*%
%AMFreePoly0*
4,1,6,1.000000,0.000000,0.500000,-0.750000,-0.500000,-0.750000,-0.500000,0.750000,0.500000,0.750000,1.000000,0.000000,1.000000,0.000000,$1*%
%AMFreePoly1*
4,1,6,0.500000,-0.750000,-0.650000,-0.750000,-0.150000,0.000000,-0.650000,0.750000,0.500000,0.750000,0.500000,-0.750000,0.500000,-0.750000,$1*%
G04 Aperture macros list end*
%ADD10RoundRect,0.250000X-0.475000X0.250000X-0.475000X-0.250000X0.475000X-0.250000X0.475000X0.250000X0*%
%ADD11R,2.600000X2.600000*%
%ADD12C,2.600000*%
%ADD13RoundRect,0.250000X0.475000X-0.250000X0.475000X0.250000X-0.475000X0.250000X-0.475000X-0.250000X0*%
%ADD14RoundRect,0.250000X0.262500X0.450000X-0.262500X0.450000X-0.262500X-0.450000X0.262500X-0.450000X0*%
%ADD15RoundRect,0.080400X0.696600X-0.321600X0.696600X0.321600X-0.696600X0.321600X-0.696600X-0.321600X0*%
%ADD16RoundRect,0.250000X-0.262500X-0.450000X0.262500X-0.450000X0.262500X0.450000X-0.262500X0.450000X0*%
%ADD17RoundRect,0.250000X-0.450000X0.262500X-0.450000X-0.262500X0.450000X-0.262500X0.450000X0.262500X0*%
%ADD18RoundRect,0.250000X0.600000X0.600000X-0.600000X0.600000X-0.600000X-0.600000X0.600000X-0.600000X0*%
%ADD19C,1.700000*%
%ADD20FreePoly0,90.000000*%
%ADD21FreePoly1,90.000000*%
%ADD22R,1.550000X1.300000*%
%ADD23C,3.200000*%
%ADD24R,1.300000X1.550000*%
%ADD25O,4.404000X2.304000*%
%ADD26O,2.004000X3.804000*%
%ADD27R,1.498600X0.889000*%
%ADD28R,0.889000X1.498600*%
%ADD29R,0.889000X0.889000*%
%ADD30C,2.800000*%
%ADD31RoundRect,0.150000X-0.587500X-0.150000X0.587500X-0.150000X0.587500X0.150000X-0.587500X0.150000X0*%
%ADD32R,1.700000X1.700000*%
%ADD33O,1.700000X1.700000*%
%ADD34R,1.500000X1.500000*%
%ADD35FreePoly0,270.000000*%
G04 APERTURE END LIST*
D10*
%TO.C,C4*%
X84470000Y-68500000D03*
X84470000Y-70400000D03*
%TD*%
D11*
%TO.C,J3*%
X75955000Y-86305000D03*
D12*
X81035000Y-86305000D03*
%TD*%
D10*
%TO.C,C5*%
X82000000Y-68500000D03*
X82000000Y-70400000D03*
%TD*%
D13*
%TO.C,C6*%
X79000000Y-49900000D03*
X79000000Y-48000000D03*
%TD*%
D14*
%TO.C,R3*%
X94912500Y-77000000D03*
X93087500Y-77000000D03*
%TD*%
%TO.C,R1*%
X78412500Y-69500000D03*
X76587500Y-69500000D03*
%TD*%
%TO.C,R4*%
X78412500Y-67000000D03*
X76587500Y-67000000D03*
%TD*%
D13*
%TO.C,C9*%
X77000000Y-79450000D03*
X77000000Y-77550000D03*
%TD*%
D15*
%TO.C,U3*%
X85685000Y-79450000D03*
X85685000Y-78500000D03*
X85685000Y-77550000D03*
X83315000Y-77550000D03*
X83315000Y-79450000D03*
%TD*%
D16*
%TO.C,R2*%
X93587500Y-80000000D03*
X95412500Y-80000000D03*
%TD*%
D17*
%TO.C,R8*%
X90000000Y-69500000D03*
X90000000Y-71325000D03*
%TD*%
D18*
%TO.C,J4*%
X108500000Y-76000000D03*
D19*
X105960000Y-76000000D03*
X108500000Y-73460000D03*
X105960000Y-73460000D03*
X108500000Y-70920000D03*
X105960000Y-70920000D03*
X108500000Y-68380000D03*
X105960000Y-68380000D03*
X108500000Y-65840000D03*
X105960000Y-65840000D03*
%TD*%
D20*
%TO.C,JP3*%
X74000000Y-75725000D03*
D21*
X74000000Y-74275000D03*
%TD*%
D20*
%TO.C,JP1*%
X111000000Y-84725000D03*
D21*
X111000000Y-83275000D03*
%TD*%
D17*
%TO.C,R7*%
X79000000Y-52087500D03*
X79000000Y-53912500D03*
%TD*%
D13*
%TO.C,C7*%
X76000000Y-49950000D03*
X76000000Y-48050000D03*
%TD*%
%TO.C,C2*%
X76000000Y-53950000D03*
X76000000Y-52050000D03*
%TD*%
D22*
%TO.C,SW2*%
X100475000Y-73750000D03*
X92525000Y-73750000D03*
X100475000Y-69250000D03*
X92525000Y-69250000D03*
%TD*%
D23*
%TO.C,H3*%
X277500000Y-91400000D03*
%TD*%
D10*
%TO.C,C3*%
X90000000Y-73462500D03*
X90000000Y-75362500D03*
%TD*%
D24*
%TO.C,SW1*%
X78500000Y-56500000D03*
X78500000Y-64450000D03*
X74000000Y-56500000D03*
X74000000Y-64450000D03*
%TD*%
D25*
%TO.C,J1*%
X107000000Y-57400000D03*
D26*
X107000000Y-48700000D03*
%TD*%
D27*
%TO.C,U2*%
X82000000Y-48000000D03*
X82000000Y-49270000D03*
X82000000Y-50540000D03*
X82000000Y-51810000D03*
X82000000Y-53080000D03*
X82000000Y-54350000D03*
X82000000Y-55620000D03*
X82000000Y-56890000D03*
X82000000Y-58160000D03*
X82000000Y-59430000D03*
X82000000Y-60700000D03*
X82000000Y-61970000D03*
X82000000Y-63240000D03*
X82000000Y-64510000D03*
D28*
X83765000Y-65760000D03*
X85035000Y-65760000D03*
X86305000Y-65760000D03*
X87575000Y-65760000D03*
X88845000Y-65760000D03*
X90115000Y-65760000D03*
X91385000Y-65760000D03*
X92655000Y-65760000D03*
X93925000Y-65760000D03*
X95195000Y-65760000D03*
X96465000Y-65760000D03*
X97735000Y-65760000D03*
D27*
X99500000Y-64510000D03*
X99500000Y-63240000D03*
X99500000Y-61970000D03*
X99500000Y-60700000D03*
X99500000Y-59430000D03*
X99500000Y-58160000D03*
X99500000Y-56890000D03*
X99500000Y-55620000D03*
X99500000Y-54350000D03*
X99500000Y-53080000D03*
X99500000Y-51810000D03*
X99500000Y-50540000D03*
X99500000Y-49270000D03*
X99500000Y-48000000D03*
D29*
X89500000Y-55720000D03*
X89500000Y-54320000D03*
X88100000Y-54320000D03*
X88100000Y-55720000D03*
X88100000Y-57120000D03*
X89500000Y-57120000D03*
X90900000Y-57120000D03*
X90900000Y-55720000D03*
X90900000Y-54320000D03*
%TD*%
D23*
%TO.C,H2*%
X277500000Y-83450000D03*
%TD*%
D13*
%TO.C,C8*%
X80000000Y-79450000D03*
X80000000Y-77550000D03*
%TD*%
D23*
%TO.C,H1*%
X277500000Y-75500000D03*
%TD*%
D30*
%TO.C,TP1*%
X78000000Y-74000000D03*
%TD*%
D31*
%TO.C,Q1*%
X98500000Y-79100000D03*
X98500000Y-81000000D03*
X100375000Y-80050000D03*
%TD*%
D14*
%TO.C,R6*%
X90412500Y-78500000D03*
X88587500Y-78500000D03*
%TD*%
D32*
%TO.C,J2*%
X96380000Y-84000000D03*
D33*
X98920000Y-84000000D03*
X101460000Y-84000000D03*
X104000000Y-84000000D03*
X106540000Y-84000000D03*
%TD*%
D23*
%TO.C,H4*%
X277500000Y-99350000D03*
%TD*%
D14*
%TO.C,R5*%
X100000000Y-77000000D03*
X98175000Y-77000000D03*
%TD*%
D31*
%TO.C,Q2*%
X88625000Y-81050000D03*
X88625000Y-82950000D03*
X90500000Y-82000000D03*
%TD*%
D10*
%TO.C,C1*%
X87000000Y-68500000D03*
X87000000Y-70400000D03*
%TD*%
D34*
%TO.C,JP2*%
X74000000Y-67800000D03*
X74000000Y-70200000D03*
D35*
X74000000Y-67000000D03*
D20*
X74000000Y-71000000D03*
%TD*%
D30*
%TO.C,TP2*%
X85500000Y-74500000D03*
%TD*%
M02*
