%TF.GenerationSoftware,KiCad,Pcbnew,8.0.1*%
%TF.CreationDate,2024-04-01T15:48:32-05:00*%
%TF.ProjectId,adapter_board,61646170-7465-4725-9f62-6f6172642e6b,rev?*%
%TF.SameCoordinates,Original*%
%TF.FileFunction,Copper,L1,Top*%
%TF.FilePolarity,Positive*%
%FSLAX46Y46*%
G04 Gerber Fmt 4.6, Leading zero omitted, Abs format (unit mm)*
G04 Created by KiCad (PCBNEW 8.0.1) date 2024-04-01 15:48:32*
%MOMM*%
%LPD*%
G01*
G04 APERTURE LIST*
G04 Aperture macros list*
%AMRoundRect*
0 Rectangle with rounded corners*
0 $1 Rounding radius*
0 $2 $3 $4 $5 $6 $7 $8 $9 X,Y pos of 4 corners*
0 Add a 4 corners polygon primitive as box body*
4,1,4,$2,$3,$4,$5,$6,$7,$8,$9,$2,$3,0*
0 Add four circle primitives for the rounded corners*
1,1,$1+$1,$2,$3*
1,1,$1+$1,$4,$5*
1,1,$1+$1,$6,$7*
1,1,$1+$1,$8,$9*
0 Add four rect primitives between the rounded corners*
20,1,$1+$1,$2,$3,$4,$5,0*
20,1,$1+$1,$4,$5,$6,$7,0*
20,1,$1+$1,$6,$7,$8,$9,0*
20,1,$1+$1,$8,$9,$2,$3,0*%
%AMFreePoly0*
4,1,6,1.000000,0.000000,0.500000,-0.750000,-0.500000,-0.750000,-0.500000,0.750000,0.500000,0.750000,1.000000,0.000000,1.000000,0.000000,$1*%
%AMFreePoly1*
4,1,6,0.500000,-0.750000,-0.650000,-0.750000,-0.150000,0.000000,-0.650000,0.750000,0.500000,0.750000,0.500000,-0.750000,0.500000,-0.750000,$1*%
G04 Aperture macros list end*
%TA.AperFunction,SMDPad,CuDef*%
%ADD10R,0.939800X2.057400*%
%TD*%
%TA.AperFunction,SMDPad,CuDef*%
%ADD11RoundRect,0.060000X-0.615000X0.240000X-0.615000X-0.240000X0.615000X-0.240000X0.615000X0.240000X0*%
%TD*%
%TA.AperFunction,SMDPad,CuDef*%
%ADD12RoundRect,0.250000X-0.337500X-0.475000X0.337500X-0.475000X0.337500X0.475000X-0.337500X0.475000X0*%
%TD*%
%TA.AperFunction,ComponentPad*%
%ADD13R,1.500000X1.500000*%
%TD*%
%TA.AperFunction,SMDPad,CuDef*%
%ADD14FreePoly0,0.000000*%
%TD*%
%TA.AperFunction,SMDPad,CuDef*%
%ADD15FreePoly1,0.000000*%
%TD*%
%TA.AperFunction,ViaPad*%
%ADD16C,0.800000*%
%TD*%
%TA.AperFunction,Conductor*%
%ADD17C,0.508000*%
%TD*%
G04 APERTURE END LIST*
D10*
%TO.P,J3,1,1*%
%TO.N,unconnected-(J3-Pad1)*%
X156000000Y-58399945D03*
%TO.P,J3,2,2*%
%TO.N,unconnected-(J3-Pad2)*%
X157999999Y-61599946D03*
%TO.P,J3,3,3*%
%TO.N,unconnected-(J3-Pad3)*%
X160000000Y-58399945D03*
%TO.P,J3,4,4*%
%TO.N,unconnected-(J3-Pad4)*%
X162000001Y-61599946D03*
%TO.P,J3,5,5*%
%TO.N,unconnected-(J3-Pad5)*%
X163999999Y-58399945D03*
%TO.P,J3,6,6*%
%TO.N,unconnected-(J3-Pad6)*%
X166000001Y-61599946D03*
%TO.P,J3,7,7*%
%TO.N,unconnected-(J3-Pad7)*%
X167999999Y-58399945D03*
%TO.P,J3,8,8*%
%TO.N,unconnected-(J3-Pad8)*%
X170000000Y-61599946D03*
%TO.P,J3,9,9*%
%TO.N,/LDO_IN*%
X171999999Y-58399945D03*
%TO.P,J3,10,10*%
%TO.N,unconnected-(J3-Pad10)*%
X174000000Y-61599946D03*
%TD*%
D11*
%TO.P,U1,1,VIN*%
%TO.N,/LDO_IN*%
X169250000Y-72710000D03*
%TO.P,U1,2,GND*%
%TO.N,GND*%
X169250000Y-73660000D03*
%TO.P,U1,3,EN*%
%TO.N,/LDO_IN*%
X169250000Y-74610000D03*
%TO.P,U1,4,NC*%
%TO.N,unconnected-(U1-NC-Pad4)*%
X171620000Y-74610000D03*
%TO.P,U1,5,VOUT*%
%TO.N,Net-(JP1-A)*%
X171620000Y-72710000D03*
%TD*%
D10*
%TO.P,J2,1,1*%
%TO.N,unconnected-(J2-Pad1)*%
X156000000Y-80399945D03*
%TO.P,J2,2,2*%
%TO.N,unconnected-(J2-Pad2)*%
X157999999Y-83599946D03*
%TO.P,J2,3,3*%
%TO.N,unconnected-(J2-Pad3)*%
X160000000Y-80399945D03*
%TO.P,J2,4,4*%
%TO.N,unconnected-(J2-Pad4)*%
X162000001Y-83599946D03*
%TO.P,J2,5,5*%
%TO.N,unconnected-(J2-Pad5)*%
X163999999Y-80399945D03*
%TO.P,J2,6,6*%
%TO.N,unconnected-(J2-Pad6)*%
X166000001Y-83599946D03*
%TO.P,J2,7,7*%
%TO.N,unconnected-(J2-Pad7)*%
X167999999Y-80399945D03*
%TO.P,J2,8,8*%
%TO.N,unconnected-(J2-Pad8)*%
X170000000Y-83599946D03*
%TO.P,J2,9,9*%
%TO.N,unconnected-(J2-Pad9)*%
X171999999Y-80399945D03*
%TO.P,J2,10,10*%
%TO.N,GND*%
X174000000Y-83599946D03*
%TD*%
D12*
%TO.P,C3,1*%
%TO.N,/LDO_IN*%
X158895000Y-76230000D03*
%TO.P,C3,2*%
%TO.N,GND*%
X160970000Y-76230000D03*
%TD*%
%TO.P,C2,1*%
%TO.N,/LDO_IN*%
X158895000Y-73220000D03*
%TO.P,C2,2*%
%TO.N,GND*%
X160970000Y-73220000D03*
%TD*%
%TO.P,C4,1*%
%TO.N,Net-(JP1-A)*%
X164355000Y-72950000D03*
%TO.P,C4,2*%
%TO.N,GND*%
X166430000Y-72950000D03*
%TD*%
D13*
%TO.P,TP1,1,1*%
%TO.N,Net-(JP1-A)*%
X170270000Y-67460000D03*
%TD*%
D12*
%TO.P,C5,1*%
%TO.N,Net-(JP1-A)*%
X164355000Y-75960000D03*
%TO.P,C5,2*%
%TO.N,GND*%
X166430000Y-75960000D03*
%TD*%
D14*
%TO.P,JP1,1,A*%
%TO.N,Net-(JP1-A)*%
X163410000Y-65850000D03*
D15*
%TO.P,JP1,2,B*%
%TO.N,/3v3*%
X164860000Y-65850000D03*
%TD*%
D12*
%TO.P,C1,1*%
%TO.N,/LDO_IN*%
X158895000Y-70210000D03*
%TO.P,C1,2*%
%TO.N,GND*%
X160970000Y-70210000D03*
%TD*%
D16*
%TO.N,GND*%
X162150000Y-75680000D03*
X166580000Y-74510000D03*
X162150000Y-72270000D03*
X161130000Y-68420000D03*
X166150000Y-71290000D03*
X172720000Y-83760000D03*
X175200000Y-83610000D03*
%TO.N,/LDO_IN*%
X167740000Y-70570000D03*
X172570000Y-66310000D03*
%TO.N,/3v3*%
X169200000Y-63930000D03*
%TD*%
D17*
%TO.N,Net-(JP1-A)*%
X163410000Y-65850000D02*
X163410000Y-75015000D01*
X164420874Y-67460000D02*
X170270000Y-67460000D01*
X171620000Y-72710000D02*
X170270000Y-71360000D01*
X163410000Y-65850000D02*
X163410000Y-72005000D01*
X170270000Y-71360000D02*
X170270000Y-67460000D01*
X163410000Y-65850000D02*
X163410000Y-66449126D01*
X163410000Y-75015000D02*
X164355000Y-75960000D01*
X163410000Y-72005000D02*
X164355000Y-72950000D01*
X163410000Y-66449126D02*
X164420874Y-67460000D01*
%TO.N,/LDO_IN*%
X168616432Y-72710000D02*
X169250000Y-72710000D01*
X169250000Y-74970000D02*
X169250000Y-74610000D01*
X158895000Y-73220000D02*
X158895000Y-70210000D01*
X167740000Y-71200000D02*
X169250000Y-72710000D01*
X171970000Y-58350000D02*
X172570000Y-58950000D01*
X172570000Y-58950000D02*
X172570000Y-66310000D01*
X168121000Y-73205432D02*
X168616432Y-72710000D01*
X167740000Y-70570000D02*
X167740000Y-71200000D01*
X171999999Y-58399945D02*
X171999999Y-58379999D01*
X169250000Y-74610000D02*
X168575001Y-74610000D01*
X158895000Y-76230000D02*
X160074000Y-77409000D01*
X171999999Y-58379999D02*
X171970000Y-58350000D01*
X168121000Y-74155999D02*
X168121000Y-73205432D01*
X158895000Y-76230000D02*
X158895000Y-73220000D01*
X166811000Y-77409000D02*
X169250000Y-74970000D01*
X160074000Y-77409000D02*
X166811000Y-77409000D01*
X168575001Y-74610000D02*
X168121000Y-74155999D01*
%TO.N,/3v3*%
X164868903Y-65841097D02*
X164868903Y-65850000D01*
X169200000Y-63930000D02*
X166780000Y-63930000D01*
X166780000Y-63930000D02*
X164868903Y-65841097D01*
%TD*%
%TA.AperFunction,Conductor*%
%TO.N,GND*%
G36*
X164312689Y-68207762D02*
G01*
X164320462Y-68209309D01*
X164346559Y-68214501D01*
X164346562Y-68214501D01*
X164501300Y-68214501D01*
X164501320Y-68214500D01*
X168903460Y-68214500D01*
X168970499Y-68234185D01*
X169016254Y-68286989D01*
X169024136Y-68309983D01*
X169025907Y-68317479D01*
X169076202Y-68452328D01*
X169076206Y-68452335D01*
X169162452Y-68567544D01*
X169162455Y-68567547D01*
X169277664Y-68653793D01*
X169277671Y-68653797D01*
X169345093Y-68678943D01*
X169412517Y-68704091D01*
X169412521Y-68704091D01*
X169420009Y-68705861D01*
X169480727Y-68740431D01*
X169513116Y-68802341D01*
X169515500Y-68826539D01*
X169515500Y-71280552D01*
X169515499Y-71280578D01*
X169515499Y-71434312D01*
X169522698Y-71470500D01*
X169522698Y-71470502D01*
X169539980Y-71557386D01*
X169541102Y-71563023D01*
X169544495Y-71580079D01*
X169552954Y-71600500D01*
X169558649Y-71614249D01*
X169566117Y-71683719D01*
X169534841Y-71746198D01*
X169474752Y-71781850D01*
X169404927Y-71779355D01*
X169356406Y-71749382D01*
X168615546Y-71008522D01*
X168582061Y-70947199D01*
X168585295Y-70882526D01*
X168625674Y-70758256D01*
X168645460Y-70570000D01*
X168625674Y-70381744D01*
X168567179Y-70201716D01*
X168472533Y-70037784D01*
X168345871Y-69897112D01*
X168345870Y-69897111D01*
X168192734Y-69785851D01*
X168192729Y-69785848D01*
X168019807Y-69708857D01*
X168019802Y-69708855D01*
X167874001Y-69677865D01*
X167834646Y-69669500D01*
X167645354Y-69669500D01*
X167612897Y-69676398D01*
X167460197Y-69708855D01*
X167460192Y-69708857D01*
X167287270Y-69785848D01*
X167287265Y-69785851D01*
X167134129Y-69897111D01*
X167007466Y-70037785D01*
X166912821Y-70201715D01*
X166912818Y-70201722D01*
X166854327Y-70381740D01*
X166854326Y-70381744D01*
X166834540Y-70570000D01*
X166854326Y-70758256D01*
X166854327Y-70758259D01*
X166912818Y-70938277D01*
X166912821Y-70938284D01*
X166950956Y-71004336D01*
X166968887Y-71035392D01*
X166985500Y-71097392D01*
X166985500Y-71120552D01*
X166985499Y-71120578D01*
X166985499Y-71274312D01*
X166997844Y-71336369D01*
X166997844Y-71336372D01*
X167014493Y-71420072D01*
X167014495Y-71420080D01*
X167035380Y-71470500D01*
X167035380Y-71470501D01*
X167066099Y-71544665D01*
X167071370Y-71557389D01*
X167071373Y-71557394D01*
X167073240Y-71560887D01*
X167073665Y-71562931D01*
X167073701Y-71563017D01*
X167073684Y-71563023D01*
X167087481Y-71629290D01*
X167062480Y-71694533D01*
X167006175Y-71735903D01*
X166936441Y-71740265D01*
X166924882Y-71737047D01*
X166920197Y-71735494D01*
X166920190Y-71735493D01*
X166817486Y-71725000D01*
X166680000Y-71725000D01*
X166680000Y-74174999D01*
X166817472Y-74174999D01*
X166817486Y-74174998D01*
X166920197Y-74164505D01*
X167086619Y-74109358D01*
X167086626Y-74109355D01*
X167177401Y-74053364D01*
X167244794Y-74034923D01*
X167311457Y-74055845D01*
X167356227Y-74109487D01*
X167366499Y-74158902D01*
X167366499Y-74230311D01*
X167366499Y-74230313D01*
X167366498Y-74230313D01*
X167395493Y-74376072D01*
X167395496Y-74376082D01*
X167452366Y-74513380D01*
X167452372Y-74513391D01*
X167534942Y-74636967D01*
X167534943Y-74636968D01*
X167937794Y-75039817D01*
X167971279Y-75101140D01*
X167966295Y-75170831D01*
X167937794Y-75215179D01*
X167720598Y-75432375D01*
X167659275Y-75465860D01*
X167589583Y-75460876D01*
X167533650Y-75419004D01*
X167509559Y-75357295D01*
X167507006Y-75332303D01*
X167451858Y-75165880D01*
X167451856Y-75165875D01*
X167359815Y-75016654D01*
X167235845Y-74892684D01*
X167086624Y-74800643D01*
X167086619Y-74800641D01*
X166920197Y-74745494D01*
X166920190Y-74745493D01*
X166817486Y-74735000D01*
X166680000Y-74735000D01*
X166680000Y-76086000D01*
X166660315Y-76153039D01*
X166607511Y-76198794D01*
X166556000Y-76210000D01*
X166304000Y-76210000D01*
X166236961Y-76190315D01*
X166191206Y-76137511D01*
X166180000Y-76086000D01*
X166180000Y-74735000D01*
X166042527Y-74735000D01*
X166042512Y-74735001D01*
X165939802Y-74745494D01*
X165773380Y-74800641D01*
X165773375Y-74800643D01*
X165624154Y-74892684D01*
X165500183Y-75016655D01*
X165500179Y-75016660D01*
X165498326Y-75019665D01*
X165496518Y-75021290D01*
X165495702Y-75022323D01*
X165495525Y-75022183D01*
X165446374Y-75066385D01*
X165377411Y-75077601D01*
X165313331Y-75049752D01*
X165287253Y-75019653D01*
X165287237Y-75019628D01*
X165285212Y-75016344D01*
X165161156Y-74892288D01*
X165011834Y-74800186D01*
X164845297Y-74745001D01*
X164845295Y-74745000D01*
X164742516Y-74734500D01*
X164742509Y-74734500D01*
X164288500Y-74734500D01*
X164221461Y-74714815D01*
X164175706Y-74662011D01*
X164164500Y-74610500D01*
X164164500Y-74299499D01*
X164184185Y-74232460D01*
X164236989Y-74186705D01*
X164288500Y-74175499D01*
X164742502Y-74175499D01*
X164742508Y-74175499D01*
X164845297Y-74164999D01*
X165011834Y-74109814D01*
X165161156Y-74017712D01*
X165285212Y-73893656D01*
X165287252Y-73890347D01*
X165289245Y-73888555D01*
X165289693Y-73887989D01*
X165289789Y-73888065D01*
X165339194Y-73843623D01*
X165408156Y-73832395D01*
X165472240Y-73860234D01*
X165498329Y-73890339D01*
X165500181Y-73893341D01*
X165500183Y-73893344D01*
X165624154Y-74017315D01*
X165773375Y-74109356D01*
X165773380Y-74109358D01*
X165939802Y-74164505D01*
X165939809Y-74164506D01*
X166042519Y-74174999D01*
X166179999Y-74174999D01*
X166180000Y-74174998D01*
X166180000Y-71725000D01*
X166042527Y-71725000D01*
X166042512Y-71725001D01*
X165939802Y-71735494D01*
X165773380Y-71790641D01*
X165773375Y-71790643D01*
X165624154Y-71882684D01*
X165500183Y-72006655D01*
X165500179Y-72006660D01*
X165498326Y-72009665D01*
X165496518Y-72011290D01*
X165495702Y-72012323D01*
X165495525Y-72012183D01*
X165446374Y-72056385D01*
X165377411Y-72067601D01*
X165313331Y-72039752D01*
X165287253Y-72009653D01*
X165287237Y-72009628D01*
X165285212Y-72006344D01*
X165161156Y-71882288D01*
X165011834Y-71790186D01*
X164845297Y-71735001D01*
X164845295Y-71735000D01*
X164742516Y-71724500D01*
X164742509Y-71724500D01*
X164288500Y-71724500D01*
X164221461Y-71704815D01*
X164175706Y-71652011D01*
X164164500Y-71600500D01*
X164164500Y-68329380D01*
X164184185Y-68262341D01*
X164236989Y-68216586D01*
X164306147Y-68206642D01*
X164312689Y-68207762D01*
G37*
%TD.AperFunction*%
%TA.AperFunction,Conductor*%
G36*
X176833039Y-55909685D02*
G01*
X176878794Y-55962489D01*
X176890000Y-56014000D01*
X176890000Y-87046000D01*
X176870315Y-87113039D01*
X176817511Y-87158794D01*
X176766000Y-87170000D01*
X152024000Y-87170000D01*
X151956961Y-87150315D01*
X151911206Y-87097511D01*
X151900000Y-87046000D01*
X151900000Y-84676516D01*
X157029599Y-84676516D01*
X157029600Y-84676522D01*
X157036007Y-84736129D01*
X157086301Y-84870974D01*
X157086305Y-84870981D01*
X157172551Y-84986190D01*
X157172554Y-84986193D01*
X157287763Y-85072439D01*
X157287770Y-85072443D01*
X157422616Y-85122737D01*
X157422615Y-85122737D01*
X157429543Y-85123481D01*
X157482226Y-85129146D01*
X158517771Y-85129145D01*
X158577382Y-85122737D01*
X158712230Y-85072442D01*
X158827445Y-84986192D01*
X158913695Y-84870977D01*
X158963990Y-84736129D01*
X158970399Y-84676519D01*
X158970399Y-84676516D01*
X161029601Y-84676516D01*
X161029602Y-84676522D01*
X161036009Y-84736129D01*
X161086303Y-84870974D01*
X161086307Y-84870981D01*
X161172553Y-84986190D01*
X161172556Y-84986193D01*
X161287765Y-85072439D01*
X161287772Y-85072443D01*
X161422618Y-85122737D01*
X161422617Y-85122737D01*
X161429545Y-85123481D01*
X161482228Y-85129146D01*
X162517773Y-85129145D01*
X162577384Y-85122737D01*
X162712232Y-85072442D01*
X162827447Y-84986192D01*
X162913697Y-84870977D01*
X162963992Y-84736129D01*
X162970401Y-84676519D01*
X162970401Y-84676516D01*
X165029601Y-84676516D01*
X165029602Y-84676522D01*
X165036009Y-84736129D01*
X165086303Y-84870974D01*
X165086307Y-84870981D01*
X165172553Y-84986190D01*
X165172556Y-84986193D01*
X165287765Y-85072439D01*
X165287772Y-85072443D01*
X165422618Y-85122737D01*
X165422617Y-85122737D01*
X165429545Y-85123481D01*
X165482228Y-85129146D01*
X166517773Y-85129145D01*
X166577384Y-85122737D01*
X166712232Y-85072442D01*
X166827447Y-84986192D01*
X166913697Y-84870977D01*
X166963992Y-84736129D01*
X166970401Y-84676519D01*
X166970401Y-84676516D01*
X169029600Y-84676516D01*
X169029601Y-84676522D01*
X169036008Y-84736129D01*
X169086302Y-84870974D01*
X169086306Y-84870981D01*
X169172552Y-84986190D01*
X169172555Y-84986193D01*
X169287764Y-85072439D01*
X169287771Y-85072443D01*
X169422617Y-85122737D01*
X169422616Y-85122737D01*
X169429544Y-85123481D01*
X169482227Y-85129146D01*
X170517772Y-85129145D01*
X170577383Y-85122737D01*
X170712231Y-85072442D01*
X170827446Y-84986192D01*
X170913696Y-84870977D01*
X170963991Y-84736129D01*
X170970400Y-84676519D01*
X170970399Y-83849946D01*
X173030100Y-83849946D01*
X173030100Y-84676490D01*
X173036501Y-84736018D01*
X173036503Y-84736025D01*
X173086745Y-84870732D01*
X173086749Y-84870739D01*
X173172909Y-84985833D01*
X173172912Y-84985836D01*
X173288006Y-85071996D01*
X173288013Y-85072000D01*
X173422720Y-85122242D01*
X173422727Y-85122244D01*
X173482255Y-85128645D01*
X173482272Y-85128646D01*
X173750000Y-85128646D01*
X173750000Y-83849946D01*
X174250000Y-83849946D01*
X174250000Y-85128646D01*
X174517728Y-85128646D01*
X174517744Y-85128645D01*
X174577272Y-85122244D01*
X174577279Y-85122242D01*
X174711986Y-85072000D01*
X174711993Y-85071996D01*
X174827087Y-84985836D01*
X174827090Y-84985833D01*
X174913250Y-84870739D01*
X174913254Y-84870732D01*
X174963496Y-84736025D01*
X174963498Y-84736018D01*
X174969899Y-84676490D01*
X174969900Y-84676473D01*
X174969900Y-83849946D01*
X174250000Y-83849946D01*
X173750000Y-83849946D01*
X173030100Y-83849946D01*
X170970399Y-83849946D01*
X170970399Y-83349946D01*
X173030100Y-83349946D01*
X173750000Y-83349946D01*
X173750000Y-82071246D01*
X174250000Y-82071246D01*
X174250000Y-83349946D01*
X174969900Y-83349946D01*
X174969900Y-82523418D01*
X174969899Y-82523401D01*
X174963498Y-82463873D01*
X174963496Y-82463866D01*
X174913254Y-82329159D01*
X174913250Y-82329152D01*
X174827090Y-82214058D01*
X174827087Y-82214055D01*
X174711993Y-82127895D01*
X174711986Y-82127891D01*
X174577279Y-82077649D01*
X174577272Y-82077647D01*
X174517744Y-82071246D01*
X174250000Y-82071246D01*
X173750000Y-82071246D01*
X173482255Y-82071246D01*
X173422727Y-82077647D01*
X173422720Y-82077649D01*
X173288013Y-82127891D01*
X173288006Y-82127895D01*
X173172912Y-82214055D01*
X173172909Y-82214058D01*
X173086749Y-82329152D01*
X173086745Y-82329159D01*
X173036503Y-82463866D01*
X173036501Y-82463873D01*
X173030100Y-82523401D01*
X173030100Y-83349946D01*
X170970399Y-83349946D01*
X170970399Y-82523374D01*
X170963991Y-82463763D01*
X170913784Y-82329152D01*
X170913697Y-82328917D01*
X170913693Y-82328910D01*
X170827447Y-82213701D01*
X170827444Y-82213698D01*
X170712235Y-82127452D01*
X170712228Y-82127448D01*
X170577382Y-82077154D01*
X170577383Y-82077154D01*
X170517783Y-82070747D01*
X170517781Y-82070746D01*
X170517773Y-82070746D01*
X170517764Y-82070746D01*
X169482229Y-82070746D01*
X169482223Y-82070747D01*
X169422616Y-82077154D01*
X169287771Y-82127448D01*
X169287764Y-82127452D01*
X169172555Y-82213698D01*
X169172552Y-82213701D01*
X169086306Y-82328910D01*
X169086302Y-82328917D01*
X169036008Y-82463763D01*
X169029601Y-82523362D01*
X169029601Y-82523369D01*
X169029600Y-82523381D01*
X169029600Y-84676516D01*
X166970401Y-84676516D01*
X166970400Y-82523374D01*
X166963992Y-82463763D01*
X166913785Y-82329152D01*
X166913698Y-82328917D01*
X166913694Y-82328910D01*
X166827448Y-82213701D01*
X166827445Y-82213698D01*
X166712236Y-82127452D01*
X166712229Y-82127448D01*
X166577383Y-82077154D01*
X166577384Y-82077154D01*
X166517784Y-82070747D01*
X166517782Y-82070746D01*
X166517774Y-82070746D01*
X166517765Y-82070746D01*
X165482230Y-82070746D01*
X165482224Y-82070747D01*
X165422617Y-82077154D01*
X165287772Y-82127448D01*
X165287765Y-82127452D01*
X165172556Y-82213698D01*
X165172553Y-82213701D01*
X165086307Y-82328910D01*
X165086303Y-82328917D01*
X165036009Y-82463763D01*
X165029602Y-82523362D01*
X165029602Y-82523369D01*
X165029601Y-82523381D01*
X165029601Y-84676516D01*
X162970401Y-84676516D01*
X162970400Y-82523374D01*
X162963992Y-82463763D01*
X162913785Y-82329152D01*
X162913698Y-82328917D01*
X162913694Y-82328910D01*
X162827448Y-82213701D01*
X162827445Y-82213698D01*
X162712236Y-82127452D01*
X162712229Y-82127448D01*
X162577383Y-82077154D01*
X162577384Y-82077154D01*
X162517784Y-82070747D01*
X162517782Y-82070746D01*
X162517774Y-82070746D01*
X162517765Y-82070746D01*
X161482230Y-82070746D01*
X161482224Y-82070747D01*
X161422617Y-82077154D01*
X161287772Y-82127448D01*
X161287765Y-82127452D01*
X161172556Y-82213698D01*
X161172553Y-82213701D01*
X161086307Y-82328910D01*
X161086303Y-82328917D01*
X161036009Y-82463763D01*
X161029602Y-82523362D01*
X161029602Y-82523369D01*
X161029601Y-82523381D01*
X161029601Y-84676516D01*
X158970399Y-84676516D01*
X158970398Y-82523374D01*
X158963990Y-82463763D01*
X158913783Y-82329152D01*
X158913696Y-82328917D01*
X158913692Y-82328910D01*
X158827446Y-82213701D01*
X158827443Y-82213698D01*
X158712234Y-82127452D01*
X158712227Y-82127448D01*
X158577381Y-82077154D01*
X158577382Y-82077154D01*
X158517782Y-82070747D01*
X158517780Y-82070746D01*
X158517772Y-82070746D01*
X158517763Y-82070746D01*
X157482228Y-82070746D01*
X157482222Y-82070747D01*
X157422615Y-82077154D01*
X157287770Y-82127448D01*
X157287763Y-82127452D01*
X157172554Y-82213698D01*
X157172551Y-82213701D01*
X157086305Y-82328910D01*
X157086301Y-82328917D01*
X157036007Y-82463763D01*
X157029600Y-82523362D01*
X157029600Y-82523369D01*
X157029599Y-82523381D01*
X157029599Y-84676516D01*
X151900000Y-84676516D01*
X151900000Y-81476515D01*
X155029600Y-81476515D01*
X155029601Y-81476521D01*
X155036008Y-81536128D01*
X155086302Y-81670973D01*
X155086306Y-81670980D01*
X155172552Y-81786189D01*
X155172555Y-81786192D01*
X155287764Y-81872438D01*
X155287771Y-81872442D01*
X155422617Y-81922736D01*
X155422616Y-81922736D01*
X155429544Y-81923480D01*
X155482227Y-81929145D01*
X156517772Y-81929144D01*
X156577383Y-81922736D01*
X156712231Y-81872441D01*
X156827446Y-81786191D01*
X156913696Y-81670976D01*
X156963991Y-81536128D01*
X156970400Y-81476518D01*
X156970400Y-81476515D01*
X159029600Y-81476515D01*
X159029601Y-81476521D01*
X159036008Y-81536128D01*
X159086302Y-81670973D01*
X159086306Y-81670980D01*
X159172552Y-81786189D01*
X159172555Y-81786192D01*
X159287764Y-81872438D01*
X159287771Y-81872442D01*
X159422617Y-81922736D01*
X159422616Y-81922736D01*
X159429544Y-81923480D01*
X159482227Y-81929145D01*
X160517772Y-81929144D01*
X160577383Y-81922736D01*
X160712231Y-81872441D01*
X160827446Y-81786191D01*
X160913696Y-81670976D01*
X160963991Y-81536128D01*
X160970400Y-81476518D01*
X160970400Y-81476515D01*
X163029599Y-81476515D01*
X163029600Y-81476521D01*
X163036007Y-81536128D01*
X163086301Y-81670973D01*
X163086305Y-81670980D01*
X163172551Y-81786189D01*
X163172554Y-81786192D01*
X163287763Y-81872438D01*
X163287770Y-81872442D01*
X163422616Y-81922736D01*
X163422615Y-81922736D01*
X163429543Y-81923480D01*
X163482226Y-81929145D01*
X164517771Y-81929144D01*
X164577382Y-81922736D01*
X164712230Y-81872441D01*
X164827445Y-81786191D01*
X164913695Y-81670976D01*
X164963990Y-81536128D01*
X164970399Y-81476518D01*
X164970399Y-81476515D01*
X167029599Y-81476515D01*
X167029600Y-81476521D01*
X167036007Y-81536128D01*
X167086301Y-81670973D01*
X167086305Y-81670980D01*
X167172551Y-81786189D01*
X167172554Y-81786192D01*
X167287763Y-81872438D01*
X167287770Y-81872442D01*
X167422616Y-81922736D01*
X167422615Y-81922736D01*
X167429543Y-81923480D01*
X167482226Y-81929145D01*
X168517771Y-81929144D01*
X168577382Y-81922736D01*
X168712230Y-81872441D01*
X168827445Y-81786191D01*
X168913695Y-81670976D01*
X168963990Y-81536128D01*
X168970399Y-81476518D01*
X168970399Y-81476515D01*
X171029599Y-81476515D01*
X171029600Y-81476521D01*
X171036007Y-81536128D01*
X171086301Y-81670973D01*
X171086305Y-81670980D01*
X171172551Y-81786189D01*
X171172554Y-81786192D01*
X171287763Y-81872438D01*
X171287770Y-81872442D01*
X171422616Y-81922736D01*
X171422615Y-81922736D01*
X171429543Y-81923480D01*
X171482226Y-81929145D01*
X172517771Y-81929144D01*
X172577382Y-81922736D01*
X172712230Y-81872441D01*
X172827445Y-81786191D01*
X172913695Y-81670976D01*
X172963990Y-81536128D01*
X172970399Y-81476518D01*
X172970398Y-79323373D01*
X172963990Y-79263762D01*
X172913695Y-79128914D01*
X172913694Y-79128913D01*
X172913692Y-79128909D01*
X172827446Y-79013700D01*
X172827443Y-79013697D01*
X172712234Y-78927451D01*
X172712227Y-78927447D01*
X172577381Y-78877153D01*
X172577382Y-78877153D01*
X172517782Y-78870746D01*
X172517780Y-78870745D01*
X172517772Y-78870745D01*
X172517763Y-78870745D01*
X171482228Y-78870745D01*
X171482222Y-78870746D01*
X171422615Y-78877153D01*
X171287770Y-78927447D01*
X171287763Y-78927451D01*
X171172554Y-79013697D01*
X171172551Y-79013700D01*
X171086305Y-79128909D01*
X171086301Y-79128916D01*
X171036007Y-79263762D01*
X171029600Y-79323361D01*
X171029600Y-79323368D01*
X171029599Y-79323380D01*
X171029599Y-81476515D01*
X168970399Y-81476515D01*
X168970398Y-79323373D01*
X168963990Y-79263762D01*
X168913695Y-79128914D01*
X168913694Y-79128913D01*
X168913692Y-79128909D01*
X168827446Y-79013700D01*
X168827443Y-79013697D01*
X168712234Y-78927451D01*
X168712227Y-78927447D01*
X168577381Y-78877153D01*
X168577382Y-78877153D01*
X168517782Y-78870746D01*
X168517780Y-78870745D01*
X168517772Y-78870745D01*
X168517763Y-78870745D01*
X167482228Y-78870745D01*
X167482222Y-78870746D01*
X167422615Y-78877153D01*
X167287770Y-78927447D01*
X167287763Y-78927451D01*
X167172554Y-79013697D01*
X167172551Y-79013700D01*
X167086305Y-79128909D01*
X167086301Y-79128916D01*
X167036007Y-79263762D01*
X167029600Y-79323361D01*
X167029600Y-79323368D01*
X167029599Y-79323380D01*
X167029599Y-81476515D01*
X164970399Y-81476515D01*
X164970398Y-79323373D01*
X164963990Y-79263762D01*
X164913695Y-79128914D01*
X164913694Y-79128913D01*
X164913692Y-79128909D01*
X164827446Y-79013700D01*
X164827443Y-79013697D01*
X164712234Y-78927451D01*
X164712227Y-78927447D01*
X164577381Y-78877153D01*
X164577382Y-78877153D01*
X164517782Y-78870746D01*
X164517780Y-78870745D01*
X164517772Y-78870745D01*
X164517763Y-78870745D01*
X163482228Y-78870745D01*
X163482222Y-78870746D01*
X163422615Y-78877153D01*
X163287770Y-78927447D01*
X163287763Y-78927451D01*
X163172554Y-79013697D01*
X163172551Y-79013700D01*
X163086305Y-79128909D01*
X163086301Y-79128916D01*
X163036007Y-79263762D01*
X163029600Y-79323361D01*
X163029600Y-79323368D01*
X163029599Y-79323380D01*
X163029599Y-81476515D01*
X160970400Y-81476515D01*
X160970399Y-79323373D01*
X160963991Y-79263762D01*
X160913696Y-79128914D01*
X160913695Y-79128913D01*
X160913693Y-79128909D01*
X160827447Y-79013700D01*
X160827444Y-79013697D01*
X160712235Y-78927451D01*
X160712228Y-78927447D01*
X160577382Y-78877153D01*
X160577383Y-78877153D01*
X160517783Y-78870746D01*
X160517781Y-78870745D01*
X160517773Y-78870745D01*
X160517764Y-78870745D01*
X159482229Y-78870745D01*
X159482223Y-78870746D01*
X159422616Y-78877153D01*
X159287771Y-78927447D01*
X159287764Y-78927451D01*
X159172555Y-79013697D01*
X159172552Y-79013700D01*
X159086306Y-79128909D01*
X159086302Y-79128916D01*
X159036008Y-79263762D01*
X159029601Y-79323361D01*
X159029601Y-79323368D01*
X159029600Y-79323380D01*
X159029600Y-81476515D01*
X156970400Y-81476515D01*
X156970399Y-79323373D01*
X156963991Y-79263762D01*
X156913696Y-79128914D01*
X156913695Y-79128913D01*
X156913693Y-79128909D01*
X156827447Y-79013700D01*
X156827444Y-79013697D01*
X156712235Y-78927451D01*
X156712228Y-78927447D01*
X156577382Y-78877153D01*
X156577383Y-78877153D01*
X156517783Y-78870746D01*
X156517781Y-78870745D01*
X156517773Y-78870745D01*
X156517764Y-78870745D01*
X155482229Y-78870745D01*
X155482223Y-78870746D01*
X155422616Y-78877153D01*
X155287771Y-78927447D01*
X155287764Y-78927451D01*
X155172555Y-79013697D01*
X155172552Y-79013700D01*
X155086306Y-79128909D01*
X155086302Y-79128916D01*
X155036008Y-79263762D01*
X155029601Y-79323361D01*
X155029601Y-79323368D01*
X155029600Y-79323380D01*
X155029600Y-81476515D01*
X151900000Y-81476515D01*
X151900000Y-76755001D01*
X157807000Y-76755001D01*
X157807001Y-76755019D01*
X157817500Y-76857796D01*
X157817501Y-76857799D01*
X157872685Y-77024331D01*
X157872686Y-77024334D01*
X157964788Y-77173656D01*
X158088844Y-77297712D01*
X158238166Y-77389814D01*
X158404703Y-77444999D01*
X158507491Y-77455500D01*
X159002112Y-77455499D01*
X159069151Y-77475183D01*
X159089793Y-77491818D01*
X159483600Y-77885624D01*
X159483621Y-77885647D01*
X159593029Y-77995055D01*
X159593032Y-77995057D01*
X159593034Y-77995059D01*
X159675605Y-78050230D01*
X159716611Y-78077630D01*
X159797043Y-78110945D01*
X159797044Y-78110946D01*
X159820603Y-78120704D01*
X159853920Y-78134505D01*
X159853929Y-78134506D01*
X159853930Y-78134507D01*
X159878103Y-78139315D01*
X159878110Y-78139316D01*
X159999686Y-78163501D01*
X159999688Y-78163501D01*
X160154426Y-78163501D01*
X160154446Y-78163500D01*
X166730554Y-78163500D01*
X166730574Y-78163501D01*
X166736688Y-78163501D01*
X166885314Y-78163501D01*
X167006894Y-78139315D01*
X167006894Y-78139316D01*
X167006900Y-78139313D01*
X167031080Y-78134505D01*
X167066942Y-78119649D01*
X167087944Y-78110951D01*
X167087947Y-78110949D01*
X167087955Y-78110946D01*
X167168389Y-78077630D01*
X167291966Y-77995059D01*
X169720756Y-75566266D01*
X169720761Y-75566263D01*
X169730964Y-75556059D01*
X169730966Y-75556059D01*
X169836059Y-75450966D01*
X169836059Y-75450965D01*
X169840367Y-75446658D01*
X169841766Y-75448057D01*
X169891967Y-75413845D01*
X169913919Y-75408896D01*
X169968052Y-75401769D01*
X170011320Y-75396074D01*
X170147669Y-75339596D01*
X170264754Y-75249754D01*
X170336625Y-75156089D01*
X170393052Y-75114887D01*
X170462798Y-75110732D01*
X170523718Y-75144944D01*
X170533371Y-75156084D01*
X170605246Y-75249754D01*
X170722331Y-75339596D01*
X170858680Y-75396074D01*
X170968259Y-75410500D01*
X172271740Y-75410499D01*
X172271742Y-75410499D01*
X172336128Y-75402022D01*
X172381320Y-75396074D01*
X172517669Y-75339596D01*
X172634754Y-75249754D01*
X172724596Y-75132669D01*
X172781074Y-74996320D01*
X172795500Y-74886741D01*
X172795499Y-74333260D01*
X172793697Y-74319573D01*
X172781075Y-74223688D01*
X172781074Y-74223680D01*
X172724596Y-74087331D01*
X172634754Y-73970246D01*
X172534943Y-73893659D01*
X172517668Y-73880403D01*
X172381320Y-73823926D01*
X172381318Y-73823925D01*
X172271741Y-73809500D01*
X170968257Y-73809500D01*
X170858688Y-73823924D01*
X170858679Y-73823926D01*
X170722330Y-73880403D01*
X170623619Y-73956147D01*
X170558449Y-73981341D01*
X170490005Y-73967302D01*
X170460452Y-73945452D01*
X170425000Y-73910000D01*
X170228332Y-73910000D01*
X170161293Y-73890315D01*
X170152848Y-73884377D01*
X170147673Y-73880406D01*
X170147666Y-73880402D01*
X170011320Y-73823926D01*
X170011318Y-73823925D01*
X169901742Y-73809500D01*
X169901741Y-73809500D01*
X169124000Y-73809500D01*
X169056961Y-73789815D01*
X169011206Y-73737011D01*
X169000000Y-73685500D01*
X169000000Y-73634499D01*
X169019685Y-73567460D01*
X169072489Y-73521705D01*
X169124000Y-73510499D01*
X169901742Y-73510499D01*
X169966128Y-73502022D01*
X170011320Y-73496074D01*
X170147669Y-73439596D01*
X170147673Y-73439593D01*
X170152848Y-73435623D01*
X170218018Y-73410430D01*
X170228332Y-73410000D01*
X170424997Y-73410000D01*
X170460451Y-73374546D01*
X170521774Y-73341061D01*
X170591466Y-73346045D01*
X170623616Y-73363849D01*
X170637556Y-73374546D01*
X170722330Y-73439596D01*
X170778808Y-73462989D01*
X170858680Y-73496074D01*
X170968259Y-73510500D01*
X172271740Y-73510499D01*
X172271742Y-73510499D01*
X172336128Y-73502022D01*
X172381320Y-73496074D01*
X172517669Y-73439596D01*
X172634754Y-73349754D01*
X172724596Y-73232669D01*
X172781074Y-73096320D01*
X172795500Y-72986741D01*
X172795499Y-72433260D01*
X172794499Y-72425666D01*
X172781075Y-72323688D01*
X172781074Y-72323680D01*
X172724596Y-72187331D01*
X172634754Y-72070246D01*
X172517669Y-71980404D01*
X172517668Y-71980403D01*
X172381320Y-71923926D01*
X172381318Y-71923925D01*
X172271742Y-71909500D01*
X172271741Y-71909500D01*
X171937886Y-71909500D01*
X171870847Y-71889815D01*
X171850205Y-71873181D01*
X171060819Y-71083794D01*
X171027334Y-71022471D01*
X171024500Y-70996113D01*
X171024500Y-68826539D01*
X171044185Y-68759500D01*
X171096989Y-68713745D01*
X171119991Y-68705861D01*
X171127477Y-68704091D01*
X171127483Y-68704091D01*
X171262331Y-68653796D01*
X171377546Y-68567546D01*
X171463796Y-68452331D01*
X171514091Y-68317483D01*
X171520500Y-68257873D01*
X171520499Y-66755983D01*
X171540184Y-66688945D01*
X171592987Y-66643190D01*
X171662146Y-66633246D01*
X171725702Y-66662271D01*
X171751886Y-66693985D01*
X171837463Y-66842211D01*
X171837465Y-66842214D01*
X171964129Y-66982888D01*
X172117265Y-67094148D01*
X172117270Y-67094151D01*
X172290192Y-67171142D01*
X172290197Y-67171144D01*
X172475354Y-67210500D01*
X172475355Y-67210500D01*
X172664644Y-67210500D01*
X172664646Y-67210500D01*
X172849803Y-67171144D01*
X173022730Y-67094151D01*
X173175871Y-66982888D01*
X173302533Y-66842216D01*
X173397179Y-66678284D01*
X173455674Y-66498256D01*
X173475460Y-66310000D01*
X173455674Y-66121744D01*
X173397179Y-65941716D01*
X173341111Y-65844604D01*
X173324500Y-65782606D01*
X173324500Y-63250234D01*
X173344185Y-63183195D01*
X173396989Y-63137440D01*
X173461756Y-63126945D01*
X173482227Y-63129146D01*
X174517772Y-63129145D01*
X174577383Y-63122737D01*
X174712231Y-63072442D01*
X174827446Y-62986192D01*
X174913696Y-62870977D01*
X174963991Y-62736129D01*
X174970400Y-62676519D01*
X174970399Y-60523374D01*
X174963991Y-60463763D01*
X174913696Y-60328915D01*
X174913695Y-60328914D01*
X174913693Y-60328910D01*
X174827447Y-60213701D01*
X174827444Y-60213698D01*
X174712235Y-60127452D01*
X174712228Y-60127448D01*
X174577382Y-60077154D01*
X174577383Y-60077154D01*
X174517783Y-60070747D01*
X174517781Y-60070746D01*
X174517773Y-60070746D01*
X174517764Y-60070746D01*
X173482229Y-60070746D01*
X173482213Y-60070747D01*
X173461749Y-60072947D01*
X173392990Y-60060538D01*
X173341855Y-60012925D01*
X173324500Y-59949657D01*
X173324500Y-59030446D01*
X173324501Y-59030425D01*
X173324501Y-58875685D01*
X173295506Y-58729926D01*
X173295504Y-58729918D01*
X173238631Y-58592614D01*
X173238628Y-58592609D01*
X173223574Y-58570078D01*
X173156057Y-58469031D01*
X173046647Y-58359621D01*
X173046624Y-58359600D01*
X173006717Y-58319693D01*
X172973232Y-58258370D01*
X172970398Y-58232012D01*
X172970398Y-57323374D01*
X172970397Y-57323368D01*
X172970396Y-57323361D01*
X172963990Y-57263762D01*
X172913695Y-57128914D01*
X172913694Y-57128913D01*
X172913692Y-57128909D01*
X172827446Y-57013700D01*
X172827443Y-57013697D01*
X172712234Y-56927451D01*
X172712227Y-56927447D01*
X172577381Y-56877153D01*
X172577382Y-56877153D01*
X172517782Y-56870746D01*
X172517780Y-56870745D01*
X172517772Y-56870745D01*
X172517763Y-56870745D01*
X171482228Y-56870745D01*
X171482222Y-56870746D01*
X171422615Y-56877153D01*
X171287770Y-56927447D01*
X171287763Y-56927451D01*
X171172554Y-57013697D01*
X171172551Y-57013700D01*
X171086305Y-57128909D01*
X171086301Y-57128916D01*
X171036007Y-57263762D01*
X171029600Y-57323361D01*
X171029600Y-57323368D01*
X171029599Y-57323380D01*
X171029599Y-59476515D01*
X171029600Y-59476521D01*
X171036007Y-59536128D01*
X171086301Y-59670973D01*
X171086305Y-59670980D01*
X171172551Y-59786189D01*
X171172554Y-59786192D01*
X171287763Y-59872438D01*
X171287770Y-59872442D01*
X171332717Y-59889206D01*
X171422616Y-59922736D01*
X171482226Y-59929145D01*
X171691500Y-59929144D01*
X171758539Y-59948828D01*
X171804294Y-60001632D01*
X171815500Y-60053144D01*
X171815500Y-65782606D01*
X171798888Y-65844604D01*
X171769304Y-65895847D01*
X171742820Y-65941718D01*
X171742818Y-65941722D01*
X171684327Y-66121740D01*
X171684326Y-66121744D01*
X171674429Y-66215909D01*
X171664540Y-66310000D01*
X171669580Y-66357950D01*
X171657010Y-66426679D01*
X171609278Y-66477703D01*
X171541538Y-66494821D01*
X171475297Y-66472599D01*
X171446993Y-66445222D01*
X171377547Y-66352455D01*
X171377544Y-66352452D01*
X171262335Y-66266206D01*
X171262328Y-66266202D01*
X171127482Y-66215908D01*
X171127483Y-66215908D01*
X171067883Y-66209501D01*
X171067881Y-66209500D01*
X171067873Y-66209500D01*
X171067864Y-66209500D01*
X169472129Y-66209500D01*
X169472123Y-66209501D01*
X169412516Y-66215908D01*
X169277671Y-66266202D01*
X169277664Y-66266206D01*
X169162455Y-66352452D01*
X169162452Y-66352455D01*
X169076206Y-66467664D01*
X169076202Y-66467671D01*
X169025909Y-66602515D01*
X169024139Y-66610009D01*
X168989569Y-66670727D01*
X168927659Y-66703116D01*
X168903461Y-66705500D01*
X165989500Y-66705500D01*
X165922461Y-66685815D01*
X165876706Y-66633011D01*
X165865500Y-66581500D01*
X165865500Y-65962886D01*
X165885185Y-65895847D01*
X165901819Y-65875205D01*
X167056205Y-64720819D01*
X167117528Y-64687334D01*
X167143886Y-64684500D01*
X168666169Y-64684500D01*
X168733208Y-64704185D01*
X168739056Y-64708183D01*
X168747269Y-64714150D01*
X168747270Y-64714151D01*
X168920192Y-64791142D01*
X168920197Y-64791144D01*
X169105354Y-64830500D01*
X169105355Y-64830500D01*
X169294644Y-64830500D01*
X169294646Y-64830500D01*
X169479803Y-64791144D01*
X169652730Y-64714151D01*
X169805871Y-64602888D01*
X169932533Y-64462216D01*
X170027179Y-64298284D01*
X170085674Y-64118256D01*
X170105460Y-63930000D01*
X170085674Y-63741744D01*
X170027179Y-63561716D01*
X169932533Y-63397784D01*
X169893334Y-63354249D01*
X169877008Y-63336117D01*
X169846778Y-63273125D01*
X169855403Y-63203790D01*
X169900145Y-63150125D01*
X169966797Y-63129167D01*
X169969158Y-63129145D01*
X170517771Y-63129145D01*
X170517772Y-63129145D01*
X170577383Y-63122737D01*
X170712231Y-63072442D01*
X170827446Y-62986192D01*
X170913696Y-62870977D01*
X170963991Y-62736129D01*
X170970400Y-62676519D01*
X170970399Y-60523374D01*
X170963991Y-60463763D01*
X170913696Y-60328915D01*
X170913695Y-60328914D01*
X170913693Y-60328910D01*
X170827447Y-60213701D01*
X170827444Y-60213698D01*
X170712235Y-60127452D01*
X170712228Y-60127448D01*
X170577382Y-60077154D01*
X170577383Y-60077154D01*
X170517783Y-60070747D01*
X170517781Y-60070746D01*
X170517773Y-60070746D01*
X170517764Y-60070746D01*
X169482229Y-60070746D01*
X169482223Y-60070747D01*
X169422616Y-60077154D01*
X169287771Y-60127448D01*
X169287764Y-60127452D01*
X169172555Y-60213698D01*
X169172552Y-60213701D01*
X169086306Y-60328910D01*
X169086302Y-60328917D01*
X169036008Y-60463763D01*
X169029601Y-60523362D01*
X169029601Y-60523369D01*
X169029600Y-60523381D01*
X169029600Y-62676516D01*
X169029601Y-62676522D01*
X169036008Y-62736129D01*
X169089403Y-62879287D01*
X169088075Y-62879782D01*
X169100914Y-62938817D01*
X169076493Y-63004279D01*
X169020556Y-63046147D01*
X169003011Y-63051253D01*
X168920197Y-63068855D01*
X168920192Y-63068857D01*
X168747270Y-63145848D01*
X168747269Y-63145849D01*
X168739056Y-63151817D01*
X168673250Y-63175298D01*
X168666169Y-63175500D01*
X166933453Y-63175500D01*
X166866414Y-63155815D01*
X166820659Y-63103011D01*
X166810715Y-63033853D01*
X166834187Y-62977189D01*
X166913694Y-62870981D01*
X166913693Y-62870981D01*
X166913697Y-62870977D01*
X166963992Y-62736129D01*
X166970401Y-62676519D01*
X166970400Y-60523374D01*
X166963992Y-60463763D01*
X166913697Y-60328915D01*
X166913696Y-60328914D01*
X166913694Y-60328910D01*
X166827448Y-60213701D01*
X166827445Y-60213698D01*
X166712236Y-60127452D01*
X166712229Y-60127448D01*
X166577383Y-60077154D01*
X166577384Y-60077154D01*
X166517784Y-60070747D01*
X166517782Y-60070746D01*
X166517774Y-60070746D01*
X166517765Y-60070746D01*
X165482230Y-60070746D01*
X165482224Y-60070747D01*
X165422617Y-60077154D01*
X165287772Y-60127448D01*
X165287765Y-60127452D01*
X165172556Y-60213698D01*
X165172553Y-60213701D01*
X165086307Y-60328910D01*
X165086303Y-60328917D01*
X165036009Y-60463763D01*
X165029602Y-60523362D01*
X165029602Y-60523369D01*
X165029601Y-60523381D01*
X165029601Y-62676516D01*
X165029602Y-62676522D01*
X165036009Y-62736129D01*
X165086303Y-62870974D01*
X165086307Y-62870981D01*
X165172553Y-62986190D01*
X165172556Y-62986193D01*
X165287765Y-63072439D01*
X165287772Y-63072443D01*
X165422618Y-63122737D01*
X165422617Y-63122737D01*
X165429545Y-63123481D01*
X165482228Y-63129146D01*
X166214466Y-63129145D01*
X166281505Y-63148829D01*
X166327260Y-63201633D01*
X166337204Y-63270792D01*
X166308179Y-63334348D01*
X166302148Y-63340825D01*
X166193942Y-63449033D01*
X165084794Y-64558181D01*
X165023471Y-64591666D01*
X164997113Y-64594500D01*
X164209978Y-64594500D01*
X164129669Y-64600923D01*
X164129658Y-64600925D01*
X164101253Y-64609787D01*
X164046680Y-64614151D01*
X163910000Y-64594500D01*
X162910000Y-64594500D01*
X162909997Y-64594500D01*
X162838059Y-64599644D01*
X162700005Y-64640182D01*
X162578969Y-64717967D01*
X162578965Y-64717971D01*
X162484750Y-64826700D01*
X162484744Y-64826709D01*
X162424976Y-64957580D01*
X162424975Y-64957585D01*
X162404500Y-65099999D01*
X162404500Y-66600002D01*
X162409644Y-66671940D01*
X162419499Y-66705500D01*
X162450181Y-66809992D01*
X162527969Y-66931032D01*
X162612704Y-67004456D01*
X162650477Y-67063232D01*
X162655500Y-67098167D01*
X162655500Y-71925552D01*
X162655499Y-71925578D01*
X162655499Y-72085425D01*
X162655500Y-72085446D01*
X162655500Y-74935552D01*
X162655499Y-74935578D01*
X162655499Y-75089314D01*
X162675543Y-75190076D01*
X162675543Y-75190078D01*
X162684493Y-75235074D01*
X162684496Y-75235084D01*
X162702533Y-75278628D01*
X162702534Y-75278630D01*
X162741366Y-75372381D01*
X162741372Y-75372392D01*
X162823942Y-75495968D01*
X162823943Y-75495969D01*
X163230681Y-75902706D01*
X163264166Y-75964029D01*
X163267000Y-75990387D01*
X163267000Y-76485001D01*
X163267001Y-76485016D01*
X163270361Y-76517898D01*
X163257592Y-76586590D01*
X163209711Y-76637475D01*
X163147003Y-76654500D01*
X162181500Y-76654500D01*
X162114461Y-76634815D01*
X162068706Y-76582011D01*
X162057500Y-76530500D01*
X162057500Y-76480000D01*
X160844000Y-76480000D01*
X160776961Y-76460315D01*
X160731206Y-76407511D01*
X160720000Y-76356000D01*
X160720000Y-75005000D01*
X161220000Y-75005000D01*
X161220000Y-75980000D01*
X162057499Y-75980000D01*
X162057499Y-75705028D01*
X162057498Y-75705013D01*
X162047005Y-75602302D01*
X161991858Y-75435880D01*
X161991856Y-75435875D01*
X161899815Y-75286654D01*
X161775845Y-75162684D01*
X161626624Y-75070643D01*
X161626619Y-75070641D01*
X161460197Y-75015494D01*
X161460190Y-75015493D01*
X161357486Y-75005000D01*
X161220000Y-75005000D01*
X160720000Y-75005000D01*
X160582527Y-75005000D01*
X160582512Y-75005001D01*
X160479802Y-75015494D01*
X160313380Y-75070641D01*
X160313375Y-75070643D01*
X160164154Y-75162684D01*
X160040183Y-75286655D01*
X160040179Y-75286660D01*
X160038326Y-75289665D01*
X160036518Y-75291290D01*
X160035702Y-75292323D01*
X160035525Y-75292183D01*
X159986374Y-75336385D01*
X159917411Y-75347601D01*
X159853331Y-75319752D01*
X159827253Y-75289653D01*
X159827237Y-75289628D01*
X159825212Y-75286344D01*
X159701156Y-75162288D01*
X159701154Y-75162286D01*
X159696584Y-75158672D01*
X159656210Y-75101648D01*
X159649500Y-75061410D01*
X159649500Y-74388589D01*
X159669185Y-74321550D01*
X159696590Y-74291322D01*
X159701149Y-74287716D01*
X159701156Y-74287712D01*
X159825212Y-74163656D01*
X159827252Y-74160347D01*
X159829245Y-74158555D01*
X159829693Y-74157989D01*
X159829789Y-74158065D01*
X159879194Y-74113623D01*
X159948156Y-74102395D01*
X160012240Y-74130234D01*
X160038329Y-74160339D01*
X160040181Y-74163341D01*
X160040183Y-74163344D01*
X160164154Y-74287315D01*
X160313375Y-74379356D01*
X160313380Y-74379358D01*
X160479802Y-74434505D01*
X160479809Y-74434506D01*
X160582519Y-74444999D01*
X160719999Y-74444999D01*
X160720000Y-74444998D01*
X160720000Y-73470000D01*
X161220000Y-73470000D01*
X161220000Y-74444999D01*
X161357472Y-74444999D01*
X161357486Y-74444998D01*
X161460197Y-74434505D01*
X161626619Y-74379358D01*
X161626624Y-74379356D01*
X161775845Y-74287315D01*
X161899815Y-74163345D01*
X161991856Y-74014124D01*
X161991858Y-74014119D01*
X162047005Y-73847697D01*
X162047006Y-73847690D01*
X162057499Y-73744986D01*
X162057500Y-73744973D01*
X162057500Y-73470000D01*
X161220000Y-73470000D01*
X160720000Y-73470000D01*
X160720000Y-71995000D01*
X161220000Y-71995000D01*
X161220000Y-72970000D01*
X162057499Y-72970000D01*
X162057499Y-72695028D01*
X162057498Y-72695013D01*
X162047005Y-72592302D01*
X161991858Y-72425880D01*
X161991856Y-72425875D01*
X161899815Y-72276654D01*
X161775845Y-72152684D01*
X161626624Y-72060643D01*
X161626619Y-72060641D01*
X161460197Y-72005494D01*
X161460190Y-72005493D01*
X161357486Y-71995000D01*
X161220000Y-71995000D01*
X160720000Y-71995000D01*
X160582527Y-71995000D01*
X160582512Y-71995001D01*
X160479802Y-72005494D01*
X160313380Y-72060641D01*
X160313375Y-72060643D01*
X160164154Y-72152684D01*
X160040183Y-72276655D01*
X160040179Y-72276660D01*
X160038326Y-72279665D01*
X160036518Y-72281290D01*
X160035702Y-72282323D01*
X160035525Y-72282183D01*
X159986374Y-72326385D01*
X159917411Y-72337601D01*
X159853331Y-72309752D01*
X159827253Y-72279653D01*
X159827237Y-72279628D01*
X159825212Y-72276344D01*
X159701156Y-72152288D01*
X159701154Y-72152286D01*
X159696584Y-72148672D01*
X159656210Y-72091648D01*
X159649500Y-72051410D01*
X159649500Y-71378589D01*
X159669185Y-71311550D01*
X159696590Y-71281322D01*
X159701149Y-71277716D01*
X159701156Y-71277712D01*
X159825212Y-71153656D01*
X159827252Y-71150347D01*
X159829245Y-71148555D01*
X159829693Y-71147989D01*
X159829789Y-71148065D01*
X159879194Y-71103623D01*
X159948156Y-71092395D01*
X160012240Y-71120234D01*
X160038329Y-71150339D01*
X160040181Y-71153341D01*
X160040183Y-71153344D01*
X160164154Y-71277315D01*
X160313375Y-71369356D01*
X160313380Y-71369358D01*
X160479802Y-71424505D01*
X160479809Y-71424506D01*
X160582519Y-71434999D01*
X160719999Y-71434999D01*
X160720000Y-71434998D01*
X160720000Y-70460000D01*
X161220000Y-70460000D01*
X161220000Y-71434999D01*
X161357472Y-71434999D01*
X161357486Y-71434998D01*
X161460197Y-71424505D01*
X161626619Y-71369358D01*
X161626624Y-71369356D01*
X161775845Y-71277315D01*
X161899815Y-71153345D01*
X161991856Y-71004124D01*
X161991858Y-71004119D01*
X162047005Y-70837697D01*
X162047006Y-70837690D01*
X162057499Y-70734986D01*
X162057500Y-70734973D01*
X162057500Y-70460000D01*
X161220000Y-70460000D01*
X160720000Y-70460000D01*
X160720000Y-68985000D01*
X161220000Y-68985000D01*
X161220000Y-69960000D01*
X162057499Y-69960000D01*
X162057499Y-69685028D01*
X162057498Y-69685013D01*
X162047005Y-69582302D01*
X161991858Y-69415880D01*
X161991856Y-69415875D01*
X161899815Y-69266654D01*
X161775845Y-69142684D01*
X161626624Y-69050643D01*
X161626619Y-69050641D01*
X161460197Y-68995494D01*
X161460190Y-68995493D01*
X161357486Y-68985000D01*
X161220000Y-68985000D01*
X160720000Y-68985000D01*
X160582527Y-68985000D01*
X160582512Y-68985001D01*
X160479802Y-68995494D01*
X160313380Y-69050641D01*
X160313375Y-69050643D01*
X160164154Y-69142684D01*
X160040183Y-69266655D01*
X160040179Y-69266660D01*
X160038326Y-69269665D01*
X160036518Y-69271290D01*
X160035702Y-69272323D01*
X160035525Y-69272183D01*
X159986374Y-69316385D01*
X159917411Y-69327601D01*
X159853331Y-69299752D01*
X159827253Y-69269653D01*
X159827237Y-69269628D01*
X159825212Y-69266344D01*
X159701156Y-69142288D01*
X159551834Y-69050186D01*
X159385297Y-68995001D01*
X159385295Y-68995000D01*
X159282510Y-68984500D01*
X158507498Y-68984500D01*
X158507480Y-68984501D01*
X158404703Y-68995000D01*
X158404700Y-68995001D01*
X158238168Y-69050185D01*
X158238163Y-69050187D01*
X158088842Y-69142289D01*
X157964789Y-69266342D01*
X157872687Y-69415663D01*
X157872685Y-69415668D01*
X157872615Y-69415880D01*
X157817501Y-69582203D01*
X157817501Y-69582204D01*
X157817500Y-69582204D01*
X157807000Y-69684983D01*
X157807000Y-70735001D01*
X157807001Y-70735019D01*
X157817500Y-70837796D01*
X157817501Y-70837799D01*
X157869962Y-70996113D01*
X157872686Y-71004334D01*
X157964788Y-71153656D01*
X158088844Y-71277712D01*
X158088846Y-71277713D01*
X158093410Y-71281322D01*
X158133787Y-71338344D01*
X158140500Y-71378589D01*
X158140500Y-72051410D01*
X158120815Y-72118449D01*
X158093416Y-72148672D01*
X158088845Y-72152286D01*
X157964789Y-72276342D01*
X157872687Y-72425663D01*
X157872685Y-72425668D01*
X157844849Y-72509670D01*
X157817501Y-72592203D01*
X157817501Y-72592204D01*
X157817500Y-72592204D01*
X157807000Y-72694983D01*
X157807000Y-73745001D01*
X157807001Y-73745019D01*
X157817500Y-73847796D01*
X157817501Y-73847799D01*
X157872685Y-74014331D01*
X157872687Y-74014336D01*
X157885385Y-74034923D01*
X157964788Y-74163656D01*
X158088844Y-74287712D01*
X158088846Y-74287713D01*
X158093410Y-74291322D01*
X158133787Y-74348344D01*
X158140500Y-74388589D01*
X158140500Y-75061410D01*
X158120815Y-75128449D01*
X158093416Y-75158672D01*
X158088845Y-75162286D01*
X157964789Y-75286342D01*
X157872687Y-75435663D01*
X157872685Y-75435668D01*
X157844849Y-75519670D01*
X157817501Y-75602203D01*
X157817501Y-75602204D01*
X157817500Y-75602204D01*
X157807000Y-75704983D01*
X157807000Y-76755001D01*
X151900000Y-76755001D01*
X151900000Y-62676516D01*
X157029599Y-62676516D01*
X157029600Y-62676522D01*
X157036007Y-62736129D01*
X157086301Y-62870974D01*
X157086305Y-62870981D01*
X157172551Y-62986190D01*
X157172554Y-62986193D01*
X157287763Y-63072439D01*
X157287770Y-63072443D01*
X157422616Y-63122737D01*
X157422615Y-63122737D01*
X157429543Y-63123481D01*
X157482226Y-63129146D01*
X158517771Y-63129145D01*
X158577382Y-63122737D01*
X158712230Y-63072442D01*
X158827445Y-62986192D01*
X158913695Y-62870977D01*
X158963990Y-62736129D01*
X158970399Y-62676519D01*
X158970399Y-62676516D01*
X161029601Y-62676516D01*
X161029602Y-62676522D01*
X161036009Y-62736129D01*
X161086303Y-62870974D01*
X161086307Y-62870981D01*
X161172553Y-62986190D01*
X161172556Y-62986193D01*
X161287765Y-63072439D01*
X161287772Y-63072443D01*
X161422618Y-63122737D01*
X161422617Y-63122737D01*
X161429545Y-63123481D01*
X161482228Y-63129146D01*
X162517773Y-63129145D01*
X162577384Y-63122737D01*
X162712232Y-63072442D01*
X162827447Y-62986192D01*
X162913697Y-62870977D01*
X162963992Y-62736129D01*
X162970401Y-62676519D01*
X162970400Y-60523374D01*
X162963992Y-60463763D01*
X162913697Y-60328915D01*
X162913696Y-60328914D01*
X162913694Y-60328910D01*
X162827448Y-60213701D01*
X162827445Y-60213698D01*
X162712236Y-60127452D01*
X162712229Y-60127448D01*
X162577383Y-60077154D01*
X162577384Y-60077154D01*
X162517784Y-60070747D01*
X162517782Y-60070746D01*
X162517774Y-60070746D01*
X162517765Y-60070746D01*
X161482230Y-60070746D01*
X161482224Y-60070747D01*
X161422617Y-60077154D01*
X161287772Y-60127448D01*
X161287765Y-60127452D01*
X161172556Y-60213698D01*
X161172553Y-60213701D01*
X161086307Y-60328910D01*
X161086303Y-60328917D01*
X161036009Y-60463763D01*
X161029602Y-60523362D01*
X161029602Y-60523369D01*
X161029601Y-60523381D01*
X161029601Y-62676516D01*
X158970399Y-62676516D01*
X158970398Y-60523374D01*
X158963990Y-60463763D01*
X158913695Y-60328915D01*
X158913694Y-60328914D01*
X158913692Y-60328910D01*
X158827446Y-60213701D01*
X158827443Y-60213698D01*
X158712234Y-60127452D01*
X158712227Y-60127448D01*
X158577381Y-60077154D01*
X158577382Y-60077154D01*
X158517782Y-60070747D01*
X158517780Y-60070746D01*
X158517772Y-60070746D01*
X158517763Y-60070746D01*
X157482228Y-60070746D01*
X157482222Y-60070747D01*
X157422615Y-60077154D01*
X157287770Y-60127448D01*
X157287763Y-60127452D01*
X157172554Y-60213698D01*
X157172551Y-60213701D01*
X157086305Y-60328910D01*
X157086301Y-60328917D01*
X157036007Y-60463763D01*
X157029600Y-60523362D01*
X157029600Y-60523369D01*
X157029599Y-60523381D01*
X157029599Y-62676516D01*
X151900000Y-62676516D01*
X151900000Y-59476515D01*
X155029600Y-59476515D01*
X155029601Y-59476521D01*
X155036008Y-59536128D01*
X155086302Y-59670973D01*
X155086306Y-59670980D01*
X155172552Y-59786189D01*
X155172555Y-59786192D01*
X155287764Y-59872438D01*
X155287771Y-59872442D01*
X155422617Y-59922736D01*
X155422616Y-59922736D01*
X155429544Y-59923480D01*
X155482227Y-59929145D01*
X156517772Y-59929144D01*
X156577383Y-59922736D01*
X156712231Y-59872441D01*
X156827446Y-59786191D01*
X156913696Y-59670976D01*
X156963991Y-59536128D01*
X156970400Y-59476518D01*
X156970400Y-59476515D01*
X159029600Y-59476515D01*
X159029601Y-59476521D01*
X159036008Y-59536128D01*
X159086302Y-59670973D01*
X159086306Y-59670980D01*
X159172552Y-59786189D01*
X159172555Y-59786192D01*
X159287764Y-59872438D01*
X159287771Y-59872442D01*
X159422617Y-59922736D01*
X159422616Y-59922736D01*
X159429544Y-59923480D01*
X159482227Y-59929145D01*
X160517772Y-59929144D01*
X160577383Y-59922736D01*
X160712231Y-59872441D01*
X160827446Y-59786191D01*
X160913696Y-59670976D01*
X160963991Y-59536128D01*
X160970400Y-59476518D01*
X160970400Y-59476515D01*
X163029599Y-59476515D01*
X163029600Y-59476521D01*
X163036007Y-59536128D01*
X163086301Y-59670973D01*
X163086305Y-59670980D01*
X163172551Y-59786189D01*
X163172554Y-59786192D01*
X163287763Y-59872438D01*
X163287770Y-59872442D01*
X163422616Y-59922736D01*
X163422615Y-59922736D01*
X163429543Y-59923480D01*
X163482226Y-59929145D01*
X164517771Y-59929144D01*
X164577382Y-59922736D01*
X164712230Y-59872441D01*
X164827445Y-59786191D01*
X164913695Y-59670976D01*
X164963990Y-59536128D01*
X164970399Y-59476518D01*
X164970399Y-59476515D01*
X167029599Y-59476515D01*
X167029600Y-59476521D01*
X167036007Y-59536128D01*
X167086301Y-59670973D01*
X167086305Y-59670980D01*
X167172551Y-59786189D01*
X167172554Y-59786192D01*
X167287763Y-59872438D01*
X167287770Y-59872442D01*
X167422616Y-59922736D01*
X167422615Y-59922736D01*
X167429543Y-59923480D01*
X167482226Y-59929145D01*
X168517771Y-59929144D01*
X168577382Y-59922736D01*
X168712230Y-59872441D01*
X168827445Y-59786191D01*
X168913695Y-59670976D01*
X168963990Y-59536128D01*
X168970399Y-59476518D01*
X168970398Y-57323373D01*
X168963990Y-57263762D01*
X168913695Y-57128914D01*
X168913694Y-57128913D01*
X168913692Y-57128909D01*
X168827446Y-57013700D01*
X168827443Y-57013697D01*
X168712234Y-56927451D01*
X168712227Y-56927447D01*
X168577381Y-56877153D01*
X168577382Y-56877153D01*
X168517782Y-56870746D01*
X168517780Y-56870745D01*
X168517772Y-56870745D01*
X168517763Y-56870745D01*
X167482228Y-56870745D01*
X167482222Y-56870746D01*
X167422615Y-56877153D01*
X167287770Y-56927447D01*
X167287763Y-56927451D01*
X167172554Y-57013697D01*
X167172551Y-57013700D01*
X167086305Y-57128909D01*
X167086301Y-57128916D01*
X167036007Y-57263762D01*
X167029600Y-57323361D01*
X167029600Y-57323368D01*
X167029599Y-57323380D01*
X167029599Y-59476515D01*
X164970399Y-59476515D01*
X164970398Y-57323373D01*
X164963990Y-57263762D01*
X164913695Y-57128914D01*
X164913694Y-57128913D01*
X164913692Y-57128909D01*
X164827446Y-57013700D01*
X164827443Y-57013697D01*
X164712234Y-56927451D01*
X164712227Y-56927447D01*
X164577381Y-56877153D01*
X164577382Y-56877153D01*
X164517782Y-56870746D01*
X164517780Y-56870745D01*
X164517772Y-56870745D01*
X164517763Y-56870745D01*
X163482228Y-56870745D01*
X163482222Y-56870746D01*
X163422615Y-56877153D01*
X163287770Y-56927447D01*
X163287763Y-56927451D01*
X163172554Y-57013697D01*
X163172551Y-57013700D01*
X163086305Y-57128909D01*
X163086301Y-57128916D01*
X163036007Y-57263762D01*
X163029600Y-57323361D01*
X163029600Y-57323368D01*
X163029599Y-57323380D01*
X163029599Y-59476515D01*
X160970400Y-59476515D01*
X160970399Y-57323373D01*
X160963991Y-57263762D01*
X160913696Y-57128914D01*
X160913695Y-57128913D01*
X160913693Y-57128909D01*
X160827447Y-57013700D01*
X160827444Y-57013697D01*
X160712235Y-56927451D01*
X160712228Y-56927447D01*
X160577382Y-56877153D01*
X160577383Y-56877153D01*
X160517783Y-56870746D01*
X160517781Y-56870745D01*
X160517773Y-56870745D01*
X160517764Y-56870745D01*
X159482229Y-56870745D01*
X159482223Y-56870746D01*
X159422616Y-56877153D01*
X159287771Y-56927447D01*
X159287764Y-56927451D01*
X159172555Y-57013697D01*
X159172552Y-57013700D01*
X159086306Y-57128909D01*
X159086302Y-57128916D01*
X159036008Y-57263762D01*
X159029601Y-57323361D01*
X159029601Y-57323368D01*
X159029600Y-57323380D01*
X159029600Y-59476515D01*
X156970400Y-59476515D01*
X156970399Y-57323373D01*
X156963991Y-57263762D01*
X156913696Y-57128914D01*
X156913695Y-57128913D01*
X156913693Y-57128909D01*
X156827447Y-57013700D01*
X156827444Y-57013697D01*
X156712235Y-56927451D01*
X156712228Y-56927447D01*
X156577382Y-56877153D01*
X156577383Y-56877153D01*
X156517783Y-56870746D01*
X156517781Y-56870745D01*
X156517773Y-56870745D01*
X156517764Y-56870745D01*
X155482229Y-56870745D01*
X155482223Y-56870746D01*
X155422616Y-56877153D01*
X155287771Y-56927447D01*
X155287764Y-56927451D01*
X155172555Y-57013697D01*
X155172552Y-57013700D01*
X155086306Y-57128909D01*
X155086302Y-57128916D01*
X155036008Y-57263762D01*
X155029601Y-57323361D01*
X155029601Y-57323368D01*
X155029600Y-57323380D01*
X155029600Y-59476515D01*
X151900000Y-59476515D01*
X151900000Y-56014000D01*
X151919685Y-55946961D01*
X151972489Y-55901206D01*
X152024000Y-55890000D01*
X176766000Y-55890000D01*
X176833039Y-55909685D01*
G37*
%TD.AperFunction*%
%TD*%
M02*
