%TF.GenerationSoftware,KiCad,Pcbnew,8.0.1*%
%TF.CreationDate,2024-04-01T15:48:33-05:00*%
%TF.ProjectId,adapter_board,61646170-7465-4725-9f62-6f6172642e6b,rev?*%
%TF.SameCoordinates,Original*%
%TF.FileFunction,Legend,Bot*%
%TF.FilePolarity,Positive*%
%FSLAX46Y46*%
G04 Gerber Fmt 4.6, Leading zero omitted, Abs format (unit mm)*
G04 Created by KiCad (PCBNEW 8.0.1) date 2024-04-01 15:48:33*
%MOMM*%
%LPD*%
G01*
G04 APERTURE LIST*
%ADD10C,0.150000*%
%ADD11C,0.508000*%
%ADD12C,0.152400*%
G04 APERTURE END LIST*
D10*
X170678214Y-70476177D02*
X170344881Y-70476177D01*
X170202024Y-70999987D02*
X170678214Y-70999987D01*
X170678214Y-70999987D02*
X170678214Y-69999987D01*
X170678214Y-69999987D02*
X170202024Y-69999987D01*
X169202024Y-70904748D02*
X169249643Y-70952368D01*
X169249643Y-70952368D02*
X169392500Y-70999987D01*
X169392500Y-70999987D02*
X169487738Y-70999987D01*
X169487738Y-70999987D02*
X169630595Y-70952368D01*
X169630595Y-70952368D02*
X169725833Y-70857129D01*
X169725833Y-70857129D02*
X169773452Y-70761891D01*
X169773452Y-70761891D02*
X169821071Y-70571415D01*
X169821071Y-70571415D02*
X169821071Y-70428558D01*
X169821071Y-70428558D02*
X169773452Y-70238082D01*
X169773452Y-70238082D02*
X169725833Y-70142844D01*
X169725833Y-70142844D02*
X169630595Y-70047606D01*
X169630595Y-70047606D02*
X169487738Y-69999987D01*
X169487738Y-69999987D02*
X169392500Y-69999987D01*
X169392500Y-69999987D02*
X169249643Y-70047606D01*
X169249643Y-70047606D02*
X169202024Y-70095225D01*
X168773452Y-70476177D02*
X168440119Y-70476177D01*
X168297262Y-70999987D02*
X168773452Y-70999987D01*
X168773452Y-70999987D02*
X168773452Y-69999987D01*
X168773452Y-69999987D02*
X168297262Y-69999987D01*
X167440119Y-70333320D02*
X167440119Y-70999987D01*
X167678214Y-69952368D02*
X167916309Y-70666653D01*
X167916309Y-70666653D02*
X167297262Y-70666653D01*
X166487738Y-70333320D02*
X166487738Y-70999987D01*
X166725833Y-69952368D02*
X166963928Y-70666653D01*
X166963928Y-70666653D02*
X166344881Y-70666653D01*
X165487738Y-69999987D02*
X165963928Y-69999987D01*
X165963928Y-69999987D02*
X166011547Y-70476177D01*
X166011547Y-70476177D02*
X165963928Y-70428558D01*
X165963928Y-70428558D02*
X165868690Y-70380939D01*
X165868690Y-70380939D02*
X165630595Y-70380939D01*
X165630595Y-70380939D02*
X165535357Y-70428558D01*
X165535357Y-70428558D02*
X165487738Y-70476177D01*
X165487738Y-70476177D02*
X165440119Y-70571415D01*
X165440119Y-70571415D02*
X165440119Y-70809510D01*
X165440119Y-70809510D02*
X165487738Y-70904748D01*
X165487738Y-70904748D02*
X165535357Y-70952368D01*
X165535357Y-70952368D02*
X165630595Y-70999987D01*
X165630595Y-70999987D02*
X165868690Y-70999987D01*
X165868690Y-70999987D02*
X165963928Y-70952368D01*
X165963928Y-70952368D02*
X166011547Y-70904748D01*
X164297261Y-70952368D02*
X164154404Y-70999987D01*
X164154404Y-70999987D02*
X163916309Y-70999987D01*
X163916309Y-70999987D02*
X163821071Y-70952368D01*
X163821071Y-70952368D02*
X163773452Y-70904748D01*
X163773452Y-70904748D02*
X163725833Y-70809510D01*
X163725833Y-70809510D02*
X163725833Y-70714272D01*
X163725833Y-70714272D02*
X163773452Y-70619034D01*
X163773452Y-70619034D02*
X163821071Y-70571415D01*
X163821071Y-70571415D02*
X163916309Y-70523796D01*
X163916309Y-70523796D02*
X164106785Y-70476177D01*
X164106785Y-70476177D02*
X164202023Y-70428558D01*
X164202023Y-70428558D02*
X164249642Y-70380939D01*
X164249642Y-70380939D02*
X164297261Y-70285701D01*
X164297261Y-70285701D02*
X164297261Y-70190463D01*
X164297261Y-70190463D02*
X164249642Y-70095225D01*
X164249642Y-70095225D02*
X164202023Y-70047606D01*
X164202023Y-70047606D02*
X164106785Y-69999987D01*
X164106785Y-69999987D02*
X163868690Y-69999987D01*
X163868690Y-69999987D02*
X163725833Y-70047606D01*
X163297261Y-70999987D02*
X163297261Y-69999987D01*
X163297261Y-69999987D02*
X162916309Y-69999987D01*
X162916309Y-69999987D02*
X162821071Y-70047606D01*
X162821071Y-70047606D02*
X162773452Y-70095225D01*
X162773452Y-70095225D02*
X162725833Y-70190463D01*
X162725833Y-70190463D02*
X162725833Y-70333320D01*
X162725833Y-70333320D02*
X162773452Y-70428558D01*
X162773452Y-70428558D02*
X162821071Y-70476177D01*
X162821071Y-70476177D02*
X162916309Y-70523796D01*
X162916309Y-70523796D02*
X163297261Y-70523796D01*
X162344880Y-70095225D02*
X162297261Y-70047606D01*
X162297261Y-70047606D02*
X162202023Y-69999987D01*
X162202023Y-69999987D02*
X161963928Y-69999987D01*
X161963928Y-69999987D02*
X161868690Y-70047606D01*
X161868690Y-70047606D02*
X161821071Y-70095225D01*
X161821071Y-70095225D02*
X161773452Y-70190463D01*
X161773452Y-70190463D02*
X161773452Y-70285701D01*
X161773452Y-70285701D02*
X161821071Y-70428558D01*
X161821071Y-70428558D02*
X162392499Y-70999987D01*
X162392499Y-70999987D02*
X161773452Y-70999987D01*
X160916309Y-70333320D02*
X160916309Y-70999987D01*
X161154404Y-69952368D02*
X161392499Y-70666653D01*
X161392499Y-70666653D02*
X160773452Y-70666653D01*
X170559167Y-72324216D02*
X170082977Y-72324216D01*
X170654405Y-72609931D02*
X170321072Y-71609931D01*
X170321072Y-71609931D02*
X169987739Y-72609931D01*
X169225834Y-72609931D02*
X169225834Y-71609931D01*
X169225834Y-72562312D02*
X169321072Y-72609931D01*
X169321072Y-72609931D02*
X169511548Y-72609931D01*
X169511548Y-72609931D02*
X169606786Y-72562312D01*
X169606786Y-72562312D02*
X169654405Y-72514692D01*
X169654405Y-72514692D02*
X169702024Y-72419454D01*
X169702024Y-72419454D02*
X169702024Y-72133740D01*
X169702024Y-72133740D02*
X169654405Y-72038502D01*
X169654405Y-72038502D02*
X169606786Y-71990883D01*
X169606786Y-71990883D02*
X169511548Y-71943264D01*
X169511548Y-71943264D02*
X169321072Y-71943264D01*
X169321072Y-71943264D02*
X169225834Y-71990883D01*
X168321072Y-72609931D02*
X168321072Y-72086121D01*
X168321072Y-72086121D02*
X168368691Y-71990883D01*
X168368691Y-71990883D02*
X168463929Y-71943264D01*
X168463929Y-71943264D02*
X168654405Y-71943264D01*
X168654405Y-71943264D02*
X168749643Y-71990883D01*
X168321072Y-72562312D02*
X168416310Y-72609931D01*
X168416310Y-72609931D02*
X168654405Y-72609931D01*
X168654405Y-72609931D02*
X168749643Y-72562312D01*
X168749643Y-72562312D02*
X168797262Y-72467073D01*
X168797262Y-72467073D02*
X168797262Y-72371835D01*
X168797262Y-72371835D02*
X168749643Y-72276597D01*
X168749643Y-72276597D02*
X168654405Y-72228978D01*
X168654405Y-72228978D02*
X168416310Y-72228978D01*
X168416310Y-72228978D02*
X168321072Y-72181359D01*
X167844881Y-71943264D02*
X167844881Y-72943264D01*
X167844881Y-71990883D02*
X167749643Y-71943264D01*
X167749643Y-71943264D02*
X167559167Y-71943264D01*
X167559167Y-71943264D02*
X167463929Y-71990883D01*
X167463929Y-71990883D02*
X167416310Y-72038502D01*
X167416310Y-72038502D02*
X167368691Y-72133740D01*
X167368691Y-72133740D02*
X167368691Y-72419454D01*
X167368691Y-72419454D02*
X167416310Y-72514692D01*
X167416310Y-72514692D02*
X167463929Y-72562312D01*
X167463929Y-72562312D02*
X167559167Y-72609931D01*
X167559167Y-72609931D02*
X167749643Y-72609931D01*
X167749643Y-72609931D02*
X167844881Y-72562312D01*
X167082976Y-71943264D02*
X166702024Y-71943264D01*
X166940119Y-71609931D02*
X166940119Y-72467073D01*
X166940119Y-72467073D02*
X166892500Y-72562312D01*
X166892500Y-72562312D02*
X166797262Y-72609931D01*
X166797262Y-72609931D02*
X166702024Y-72609931D01*
X165987738Y-72562312D02*
X166082976Y-72609931D01*
X166082976Y-72609931D02*
X166273452Y-72609931D01*
X166273452Y-72609931D02*
X166368690Y-72562312D01*
X166368690Y-72562312D02*
X166416309Y-72467073D01*
X166416309Y-72467073D02*
X166416309Y-72086121D01*
X166416309Y-72086121D02*
X166368690Y-71990883D01*
X166368690Y-71990883D02*
X166273452Y-71943264D01*
X166273452Y-71943264D02*
X166082976Y-71943264D01*
X166082976Y-71943264D02*
X165987738Y-71990883D01*
X165987738Y-71990883D02*
X165940119Y-72086121D01*
X165940119Y-72086121D02*
X165940119Y-72181359D01*
X165940119Y-72181359D02*
X166416309Y-72276597D01*
X165511547Y-72609931D02*
X165511547Y-71943264D01*
X165511547Y-72133740D02*
X165463928Y-72038502D01*
X165463928Y-72038502D02*
X165416309Y-71990883D01*
X165416309Y-71990883D02*
X165321071Y-71943264D01*
X165321071Y-71943264D02*
X165225833Y-71943264D01*
X163797261Y-72086121D02*
X163654404Y-72133740D01*
X163654404Y-72133740D02*
X163606785Y-72181359D01*
X163606785Y-72181359D02*
X163559166Y-72276597D01*
X163559166Y-72276597D02*
X163559166Y-72419454D01*
X163559166Y-72419454D02*
X163606785Y-72514692D01*
X163606785Y-72514692D02*
X163654404Y-72562312D01*
X163654404Y-72562312D02*
X163749642Y-72609931D01*
X163749642Y-72609931D02*
X164130594Y-72609931D01*
X164130594Y-72609931D02*
X164130594Y-71609931D01*
X164130594Y-71609931D02*
X163797261Y-71609931D01*
X163797261Y-71609931D02*
X163702023Y-71657550D01*
X163702023Y-71657550D02*
X163654404Y-71705169D01*
X163654404Y-71705169D02*
X163606785Y-71800407D01*
X163606785Y-71800407D02*
X163606785Y-71895645D01*
X163606785Y-71895645D02*
X163654404Y-71990883D01*
X163654404Y-71990883D02*
X163702023Y-72038502D01*
X163702023Y-72038502D02*
X163797261Y-72086121D01*
X163797261Y-72086121D02*
X164130594Y-72086121D01*
X162987737Y-72609931D02*
X163082975Y-72562312D01*
X163082975Y-72562312D02*
X163130594Y-72514692D01*
X163130594Y-72514692D02*
X163178213Y-72419454D01*
X163178213Y-72419454D02*
X163178213Y-72133740D01*
X163178213Y-72133740D02*
X163130594Y-72038502D01*
X163130594Y-72038502D02*
X163082975Y-71990883D01*
X163082975Y-71990883D02*
X162987737Y-71943264D01*
X162987737Y-71943264D02*
X162844880Y-71943264D01*
X162844880Y-71943264D02*
X162749642Y-71990883D01*
X162749642Y-71990883D02*
X162702023Y-72038502D01*
X162702023Y-72038502D02*
X162654404Y-72133740D01*
X162654404Y-72133740D02*
X162654404Y-72419454D01*
X162654404Y-72419454D02*
X162702023Y-72514692D01*
X162702023Y-72514692D02*
X162749642Y-72562312D01*
X162749642Y-72562312D02*
X162844880Y-72609931D01*
X162844880Y-72609931D02*
X162987737Y-72609931D01*
X161797261Y-72609931D02*
X161797261Y-72086121D01*
X161797261Y-72086121D02*
X161844880Y-71990883D01*
X161844880Y-71990883D02*
X161940118Y-71943264D01*
X161940118Y-71943264D02*
X162130594Y-71943264D01*
X162130594Y-71943264D02*
X162225832Y-71990883D01*
X161797261Y-72562312D02*
X161892499Y-72609931D01*
X161892499Y-72609931D02*
X162130594Y-72609931D01*
X162130594Y-72609931D02*
X162225832Y-72562312D01*
X162225832Y-72562312D02*
X162273451Y-72467073D01*
X162273451Y-72467073D02*
X162273451Y-72371835D01*
X162273451Y-72371835D02*
X162225832Y-72276597D01*
X162225832Y-72276597D02*
X162130594Y-72228978D01*
X162130594Y-72228978D02*
X161892499Y-72228978D01*
X161892499Y-72228978D02*
X161797261Y-72181359D01*
X161321070Y-72609931D02*
X161321070Y-71943264D01*
X161321070Y-72133740D02*
X161273451Y-72038502D01*
X161273451Y-72038502D02*
X161225832Y-71990883D01*
X161225832Y-71990883D02*
X161130594Y-71943264D01*
X161130594Y-71943264D02*
X161035356Y-71943264D01*
X160273451Y-72609931D02*
X160273451Y-71609931D01*
X160273451Y-72562312D02*
X160368689Y-72609931D01*
X160368689Y-72609931D02*
X160559165Y-72609931D01*
X160559165Y-72609931D02*
X160654403Y-72562312D01*
X160654403Y-72562312D02*
X160702022Y-72514692D01*
X160702022Y-72514692D02*
X160749641Y-72419454D01*
X160749641Y-72419454D02*
X160749641Y-72133740D01*
X160749641Y-72133740D02*
X160702022Y-72038502D01*
X160702022Y-72038502D02*
X160654403Y-71990883D01*
X160654403Y-71990883D02*
X160559165Y-71943264D01*
X160559165Y-71943264D02*
X160368689Y-71943264D01*
X160368689Y-71943264D02*
X160273451Y-71990883D01*
X168559166Y-73219875D02*
X167987738Y-73219875D01*
X168273452Y-74219875D02*
X168273452Y-73219875D01*
X167273452Y-74172256D02*
X167368690Y-74219875D01*
X167368690Y-74219875D02*
X167559166Y-74219875D01*
X167559166Y-74219875D02*
X167654404Y-74172256D01*
X167654404Y-74172256D02*
X167702023Y-74077017D01*
X167702023Y-74077017D02*
X167702023Y-73696065D01*
X167702023Y-73696065D02*
X167654404Y-73600827D01*
X167654404Y-73600827D02*
X167559166Y-73553208D01*
X167559166Y-73553208D02*
X167368690Y-73553208D01*
X167368690Y-73553208D02*
X167273452Y-73600827D01*
X167273452Y-73600827D02*
X167225833Y-73696065D01*
X167225833Y-73696065D02*
X167225833Y-73791303D01*
X167225833Y-73791303D02*
X167702023Y-73886541D01*
X166368690Y-74219875D02*
X166368690Y-73696065D01*
X166368690Y-73696065D02*
X166416309Y-73600827D01*
X166416309Y-73600827D02*
X166511547Y-73553208D01*
X166511547Y-73553208D02*
X166702023Y-73553208D01*
X166702023Y-73553208D02*
X166797261Y-73600827D01*
X166368690Y-74172256D02*
X166463928Y-74219875D01*
X166463928Y-74219875D02*
X166702023Y-74219875D01*
X166702023Y-74219875D02*
X166797261Y-74172256D01*
X166797261Y-74172256D02*
X166844880Y-74077017D01*
X166844880Y-74077017D02*
X166844880Y-73981779D01*
X166844880Y-73981779D02*
X166797261Y-73886541D01*
X166797261Y-73886541D02*
X166702023Y-73838922D01*
X166702023Y-73838922D02*
X166463928Y-73838922D01*
X166463928Y-73838922D02*
X166368690Y-73791303D01*
X165892499Y-74219875D02*
X165892499Y-73553208D01*
X165892499Y-73648446D02*
X165844880Y-73600827D01*
X165844880Y-73600827D02*
X165749642Y-73553208D01*
X165749642Y-73553208D02*
X165606785Y-73553208D01*
X165606785Y-73553208D02*
X165511547Y-73600827D01*
X165511547Y-73600827D02*
X165463928Y-73696065D01*
X165463928Y-73696065D02*
X165463928Y-74219875D01*
X165463928Y-73696065D02*
X165416309Y-73600827D01*
X165416309Y-73600827D02*
X165321071Y-73553208D01*
X165321071Y-73553208D02*
X165178214Y-73553208D01*
X165178214Y-73553208D02*
X165082975Y-73600827D01*
X165082975Y-73600827D02*
X165035356Y-73696065D01*
X165035356Y-73696065D02*
X165035356Y-74219875D01*
X163368690Y-73219875D02*
X163559166Y-73219875D01*
X163559166Y-73219875D02*
X163654404Y-73267494D01*
X163654404Y-73267494D02*
X163702023Y-73315113D01*
X163702023Y-73315113D02*
X163797261Y-73457970D01*
X163797261Y-73457970D02*
X163844880Y-73648446D01*
X163844880Y-73648446D02*
X163844880Y-74029398D01*
X163844880Y-74029398D02*
X163797261Y-74124636D01*
X163797261Y-74124636D02*
X163749642Y-74172256D01*
X163749642Y-74172256D02*
X163654404Y-74219875D01*
X163654404Y-74219875D02*
X163463928Y-74219875D01*
X163463928Y-74219875D02*
X163368690Y-74172256D01*
X163368690Y-74172256D02*
X163321071Y-74124636D01*
X163321071Y-74124636D02*
X163273452Y-74029398D01*
X163273452Y-74029398D02*
X163273452Y-73791303D01*
X163273452Y-73791303D02*
X163321071Y-73696065D01*
X163321071Y-73696065D02*
X163368690Y-73648446D01*
X163368690Y-73648446D02*
X163463928Y-73600827D01*
X163463928Y-73600827D02*
X163654404Y-73600827D01*
X163654404Y-73600827D02*
X163749642Y-73648446D01*
X163749642Y-73648446D02*
X163797261Y-73696065D01*
X163797261Y-73696065D02*
X163844880Y-73791303D01*
X162416309Y-73553208D02*
X162416309Y-74219875D01*
X162654404Y-73172256D02*
X162892499Y-73886541D01*
X162892499Y-73886541D02*
X162273452Y-73886541D01*
X170916309Y-75829819D02*
X170916309Y-74829819D01*
X170916309Y-75306009D02*
X170344881Y-75306009D01*
X170344881Y-75829819D02*
X170344881Y-74829819D01*
X169440119Y-75163152D02*
X169440119Y-75829819D01*
X169868690Y-75163152D02*
X169868690Y-75686961D01*
X169868690Y-75686961D02*
X169821071Y-75782200D01*
X169821071Y-75782200D02*
X169725833Y-75829819D01*
X169725833Y-75829819D02*
X169582976Y-75829819D01*
X169582976Y-75829819D02*
X169487738Y-75782200D01*
X169487738Y-75782200D02*
X169440119Y-75734580D01*
X168963928Y-75163152D02*
X168963928Y-75829819D01*
X168963928Y-75258390D02*
X168916309Y-75210771D01*
X168916309Y-75210771D02*
X168821071Y-75163152D01*
X168821071Y-75163152D02*
X168678214Y-75163152D01*
X168678214Y-75163152D02*
X168582976Y-75210771D01*
X168582976Y-75210771D02*
X168535357Y-75306009D01*
X168535357Y-75306009D02*
X168535357Y-75829819D01*
X168202023Y-75163152D02*
X167821071Y-75163152D01*
X168059166Y-74829819D02*
X168059166Y-75686961D01*
X168059166Y-75686961D02*
X168011547Y-75782200D01*
X168011547Y-75782200D02*
X167916309Y-75829819D01*
X167916309Y-75829819D02*
X167821071Y-75829819D01*
X167106785Y-75782200D02*
X167202023Y-75829819D01*
X167202023Y-75829819D02*
X167392499Y-75829819D01*
X167392499Y-75829819D02*
X167487737Y-75782200D01*
X167487737Y-75782200D02*
X167535356Y-75686961D01*
X167535356Y-75686961D02*
X167535356Y-75306009D01*
X167535356Y-75306009D02*
X167487737Y-75210771D01*
X167487737Y-75210771D02*
X167392499Y-75163152D01*
X167392499Y-75163152D02*
X167202023Y-75163152D01*
X167202023Y-75163152D02*
X167106785Y-75210771D01*
X167106785Y-75210771D02*
X167059166Y-75306009D01*
X167059166Y-75306009D02*
X167059166Y-75401247D01*
X167059166Y-75401247D02*
X167535356Y-75496485D01*
X166630594Y-75829819D02*
X166630594Y-75163152D01*
X166630594Y-75353628D02*
X166582975Y-75258390D01*
X166582975Y-75258390D02*
X166535356Y-75210771D01*
X166535356Y-75210771D02*
X166440118Y-75163152D01*
X166440118Y-75163152D02*
X166344880Y-75163152D01*
X164916308Y-75306009D02*
X164773451Y-75353628D01*
X164773451Y-75353628D02*
X164725832Y-75401247D01*
X164725832Y-75401247D02*
X164678213Y-75496485D01*
X164678213Y-75496485D02*
X164678213Y-75639342D01*
X164678213Y-75639342D02*
X164725832Y-75734580D01*
X164725832Y-75734580D02*
X164773451Y-75782200D01*
X164773451Y-75782200D02*
X164868689Y-75829819D01*
X164868689Y-75829819D02*
X165249641Y-75829819D01*
X165249641Y-75829819D02*
X165249641Y-74829819D01*
X165249641Y-74829819D02*
X164916308Y-74829819D01*
X164916308Y-74829819D02*
X164821070Y-74877438D01*
X164821070Y-74877438D02*
X164773451Y-74925057D01*
X164773451Y-74925057D02*
X164725832Y-75020295D01*
X164725832Y-75020295D02*
X164725832Y-75115533D01*
X164725832Y-75115533D02*
X164773451Y-75210771D01*
X164773451Y-75210771D02*
X164821070Y-75258390D01*
X164821070Y-75258390D02*
X164916308Y-75306009D01*
X164916308Y-75306009D02*
X165249641Y-75306009D01*
X163821070Y-75829819D02*
X163821070Y-75306009D01*
X163821070Y-75306009D02*
X163868689Y-75210771D01*
X163868689Y-75210771D02*
X163963927Y-75163152D01*
X163963927Y-75163152D02*
X164154403Y-75163152D01*
X164154403Y-75163152D02*
X164249641Y-75210771D01*
X163821070Y-75782200D02*
X163916308Y-75829819D01*
X163916308Y-75829819D02*
X164154403Y-75829819D01*
X164154403Y-75829819D02*
X164249641Y-75782200D01*
X164249641Y-75782200D02*
X164297260Y-75686961D01*
X164297260Y-75686961D02*
X164297260Y-75591723D01*
X164297260Y-75591723D02*
X164249641Y-75496485D01*
X164249641Y-75496485D02*
X164154403Y-75448866D01*
X164154403Y-75448866D02*
X163916308Y-75448866D01*
X163916308Y-75448866D02*
X163821070Y-75401247D01*
X163344879Y-75829819D02*
X163344879Y-75163152D01*
X163344879Y-74829819D02*
X163392498Y-74877438D01*
X163392498Y-74877438D02*
X163344879Y-74925057D01*
X163344879Y-74925057D02*
X163297260Y-74877438D01*
X163297260Y-74877438D02*
X163344879Y-74829819D01*
X163344879Y-74829819D02*
X163344879Y-74925057D01*
X162916308Y-75782200D02*
X162821070Y-75829819D01*
X162821070Y-75829819D02*
X162630594Y-75829819D01*
X162630594Y-75829819D02*
X162535356Y-75782200D01*
X162535356Y-75782200D02*
X162487737Y-75686961D01*
X162487737Y-75686961D02*
X162487737Y-75639342D01*
X162487737Y-75639342D02*
X162535356Y-75544104D01*
X162535356Y-75544104D02*
X162630594Y-75496485D01*
X162630594Y-75496485D02*
X162773451Y-75496485D01*
X162773451Y-75496485D02*
X162868689Y-75448866D01*
X162868689Y-75448866D02*
X162916308Y-75353628D01*
X162916308Y-75353628D02*
X162916308Y-75306009D01*
X162916308Y-75306009D02*
X162868689Y-75210771D01*
X162868689Y-75210771D02*
X162773451Y-75163152D01*
X162773451Y-75163152D02*
X162630594Y-75163152D01*
X162630594Y-75163152D02*
X162535356Y-75210771D01*
X161630594Y-75829819D02*
X161630594Y-74829819D01*
X161630594Y-75782200D02*
X161725832Y-75829819D01*
X161725832Y-75829819D02*
X161916308Y-75829819D01*
X161916308Y-75829819D02*
X162011546Y-75782200D01*
X162011546Y-75782200D02*
X162059165Y-75734580D01*
X162059165Y-75734580D02*
X162106784Y-75639342D01*
X162106784Y-75639342D02*
X162106784Y-75353628D01*
X162106784Y-75353628D02*
X162059165Y-75258390D01*
X162059165Y-75258390D02*
X162011546Y-75210771D01*
X162011546Y-75210771D02*
X161916308Y-75163152D01*
X161916308Y-75163152D02*
X161725832Y-75163152D01*
X161725832Y-75163152D02*
X161630594Y-75210771D01*
X160773451Y-75782200D02*
X160868689Y-75829819D01*
X160868689Y-75829819D02*
X161059165Y-75829819D01*
X161059165Y-75829819D02*
X161154403Y-75782200D01*
X161154403Y-75782200D02*
X161202022Y-75686961D01*
X161202022Y-75686961D02*
X161202022Y-75306009D01*
X161202022Y-75306009D02*
X161154403Y-75210771D01*
X161154403Y-75210771D02*
X161059165Y-75163152D01*
X161059165Y-75163152D02*
X160868689Y-75163152D01*
X160868689Y-75163152D02*
X160773451Y-75210771D01*
X160773451Y-75210771D02*
X160725832Y-75306009D01*
X160725832Y-75306009D02*
X160725832Y-75401247D01*
X160725832Y-75401247D02*
X161202022Y-75496485D01*
X160297260Y-75163152D02*
X160297260Y-75829819D01*
X160297260Y-75258390D02*
X160249641Y-75210771D01*
X160249641Y-75210771D02*
X160154403Y-75163152D01*
X160154403Y-75163152D02*
X160011546Y-75163152D01*
X160011546Y-75163152D02*
X159916308Y-75210771D01*
X159916308Y-75210771D02*
X159868689Y-75306009D01*
X159868689Y-75306009D02*
X159868689Y-75829819D01*
X154386009Y-64656779D02*
X154386009Y-64990112D01*
X154909819Y-65132969D02*
X154909819Y-64656779D01*
X154909819Y-64656779D02*
X153909819Y-64656779D01*
X153909819Y-64656779D02*
X153909819Y-65132969D01*
X154862200Y-65513922D02*
X154909819Y-65656779D01*
X154909819Y-65656779D02*
X154909819Y-65894874D01*
X154909819Y-65894874D02*
X154862200Y-65990112D01*
X154862200Y-65990112D02*
X154814580Y-66037731D01*
X154814580Y-66037731D02*
X154719342Y-66085350D01*
X154719342Y-66085350D02*
X154624104Y-66085350D01*
X154624104Y-66085350D02*
X154528866Y-66037731D01*
X154528866Y-66037731D02*
X154481247Y-65990112D01*
X154481247Y-65990112D02*
X154433628Y-65894874D01*
X154433628Y-65894874D02*
X154386009Y-65704398D01*
X154386009Y-65704398D02*
X154338390Y-65609160D01*
X154338390Y-65609160D02*
X154290771Y-65561541D01*
X154290771Y-65561541D02*
X154195533Y-65513922D01*
X154195533Y-65513922D02*
X154100295Y-65513922D01*
X154100295Y-65513922D02*
X154005057Y-65561541D01*
X154005057Y-65561541D02*
X153957438Y-65609160D01*
X153957438Y-65609160D02*
X153909819Y-65704398D01*
X153909819Y-65704398D02*
X153909819Y-65942493D01*
X153909819Y-65942493D02*
X153957438Y-66085350D01*
X154909819Y-66513922D02*
X153909819Y-66513922D01*
X153909819Y-66513922D02*
X153909819Y-66894874D01*
X153909819Y-66894874D02*
X153957438Y-66990112D01*
X153957438Y-66990112D02*
X154005057Y-67037731D01*
X154005057Y-67037731D02*
X154100295Y-67085350D01*
X154100295Y-67085350D02*
X154243152Y-67085350D01*
X154243152Y-67085350D02*
X154338390Y-67037731D01*
X154338390Y-67037731D02*
X154386009Y-66990112D01*
X154386009Y-66990112D02*
X154433628Y-66894874D01*
X154433628Y-66894874D02*
X154433628Y-66513922D01*
X153909819Y-67418684D02*
X153909819Y-68037731D01*
X153909819Y-68037731D02*
X154290771Y-67704398D01*
X154290771Y-67704398D02*
X154290771Y-67847255D01*
X154290771Y-67847255D02*
X154338390Y-67942493D01*
X154338390Y-67942493D02*
X154386009Y-67990112D01*
X154386009Y-67990112D02*
X154481247Y-68037731D01*
X154481247Y-68037731D02*
X154719342Y-68037731D01*
X154719342Y-68037731D02*
X154814580Y-67990112D01*
X154814580Y-67990112D02*
X154862200Y-67942493D01*
X154862200Y-67942493D02*
X154909819Y-67847255D01*
X154909819Y-67847255D02*
X154909819Y-67561541D01*
X154909819Y-67561541D02*
X154862200Y-67466303D01*
X154862200Y-67466303D02*
X154814580Y-67418684D01*
X154005057Y-68418684D02*
X153957438Y-68466303D01*
X153957438Y-68466303D02*
X153909819Y-68561541D01*
X153909819Y-68561541D02*
X153909819Y-68799636D01*
X153909819Y-68799636D02*
X153957438Y-68894874D01*
X153957438Y-68894874D02*
X154005057Y-68942493D01*
X154005057Y-68942493D02*
X154100295Y-68990112D01*
X154100295Y-68990112D02*
X154195533Y-68990112D01*
X154195533Y-68990112D02*
X154338390Y-68942493D01*
X154338390Y-68942493D02*
X154909819Y-68371065D01*
X154909819Y-68371065D02*
X154909819Y-68990112D01*
X154814580Y-70752017D02*
X154862200Y-70704398D01*
X154862200Y-70704398D02*
X154909819Y-70561541D01*
X154909819Y-70561541D02*
X154909819Y-70466303D01*
X154909819Y-70466303D02*
X154862200Y-70323446D01*
X154862200Y-70323446D02*
X154766961Y-70228208D01*
X154766961Y-70228208D02*
X154671723Y-70180589D01*
X154671723Y-70180589D02*
X154481247Y-70132970D01*
X154481247Y-70132970D02*
X154338390Y-70132970D01*
X154338390Y-70132970D02*
X154147914Y-70180589D01*
X154147914Y-70180589D02*
X154052676Y-70228208D01*
X154052676Y-70228208D02*
X153957438Y-70323446D01*
X153957438Y-70323446D02*
X153909819Y-70466303D01*
X153909819Y-70466303D02*
X153909819Y-70561541D01*
X153909819Y-70561541D02*
X153957438Y-70704398D01*
X153957438Y-70704398D02*
X154005057Y-70752017D01*
X154909819Y-71609160D02*
X154386009Y-71609160D01*
X154386009Y-71609160D02*
X154290771Y-71561541D01*
X154290771Y-71561541D02*
X154243152Y-71466303D01*
X154243152Y-71466303D02*
X154243152Y-71275827D01*
X154243152Y-71275827D02*
X154290771Y-71180589D01*
X154862200Y-71609160D02*
X154909819Y-71513922D01*
X154909819Y-71513922D02*
X154909819Y-71275827D01*
X154909819Y-71275827D02*
X154862200Y-71180589D01*
X154862200Y-71180589D02*
X154766961Y-71132970D01*
X154766961Y-71132970D02*
X154671723Y-71132970D01*
X154671723Y-71132970D02*
X154576485Y-71180589D01*
X154576485Y-71180589D02*
X154528866Y-71275827D01*
X154528866Y-71275827D02*
X154528866Y-71513922D01*
X154528866Y-71513922D02*
X154481247Y-71609160D01*
X154909819Y-72085351D02*
X154243152Y-72085351D01*
X154338390Y-72085351D02*
X154290771Y-72132970D01*
X154290771Y-72132970D02*
X154243152Y-72228208D01*
X154243152Y-72228208D02*
X154243152Y-72371065D01*
X154243152Y-72371065D02*
X154290771Y-72466303D01*
X154290771Y-72466303D02*
X154386009Y-72513922D01*
X154386009Y-72513922D02*
X154909819Y-72513922D01*
X154386009Y-72513922D02*
X154290771Y-72561541D01*
X154290771Y-72561541D02*
X154243152Y-72656779D01*
X154243152Y-72656779D02*
X154243152Y-72799636D01*
X154243152Y-72799636D02*
X154290771Y-72894875D01*
X154290771Y-72894875D02*
X154386009Y-72942494D01*
X154386009Y-72942494D02*
X154909819Y-72942494D01*
X154386009Y-74513922D02*
X154386009Y-74180589D01*
X154909819Y-74180589D02*
X153909819Y-74180589D01*
X153909819Y-74180589D02*
X153909819Y-74656779D01*
X154909819Y-75037732D02*
X154243152Y-75037732D01*
X154433628Y-75037732D02*
X154338390Y-75085351D01*
X154338390Y-75085351D02*
X154290771Y-75132970D01*
X154290771Y-75132970D02*
X154243152Y-75228208D01*
X154243152Y-75228208D02*
X154243152Y-75323446D01*
X154909819Y-75799637D02*
X154862200Y-75704399D01*
X154862200Y-75704399D02*
X154814580Y-75656780D01*
X154814580Y-75656780D02*
X154719342Y-75609161D01*
X154719342Y-75609161D02*
X154433628Y-75609161D01*
X154433628Y-75609161D02*
X154338390Y-75656780D01*
X154338390Y-75656780D02*
X154290771Y-75704399D01*
X154290771Y-75704399D02*
X154243152Y-75799637D01*
X154243152Y-75799637D02*
X154243152Y-75942494D01*
X154243152Y-75942494D02*
X154290771Y-76037732D01*
X154290771Y-76037732D02*
X154338390Y-76085351D01*
X154338390Y-76085351D02*
X154433628Y-76132970D01*
X154433628Y-76132970D02*
X154719342Y-76132970D01*
X154719342Y-76132970D02*
X154814580Y-76085351D01*
X154814580Y-76085351D02*
X154862200Y-76037732D01*
X154862200Y-76037732D02*
X154909819Y-75942494D01*
X154909819Y-75942494D02*
X154909819Y-75799637D01*
X154243152Y-76561542D02*
X154909819Y-76561542D01*
X154338390Y-76561542D02*
X154290771Y-76609161D01*
X154290771Y-76609161D02*
X154243152Y-76704399D01*
X154243152Y-76704399D02*
X154243152Y-76847256D01*
X154243152Y-76847256D02*
X154290771Y-76942494D01*
X154290771Y-76942494D02*
X154386009Y-76990113D01*
X154386009Y-76990113D02*
X154909819Y-76990113D01*
X154243152Y-77323447D02*
X154243152Y-77704399D01*
X153909819Y-77466304D02*
X154766961Y-77466304D01*
X154766961Y-77466304D02*
X154862200Y-77513923D01*
X154862200Y-77513923D02*
X154909819Y-77609161D01*
X154909819Y-77609161D02*
X154909819Y-77704399D01*
X174476009Y-65026779D02*
X174476009Y-65360112D01*
X174999819Y-65502969D02*
X174999819Y-65026779D01*
X174999819Y-65026779D02*
X173999819Y-65026779D01*
X173999819Y-65026779D02*
X173999819Y-65502969D01*
X174952200Y-65883922D02*
X174999819Y-66026779D01*
X174999819Y-66026779D02*
X174999819Y-66264874D01*
X174999819Y-66264874D02*
X174952200Y-66360112D01*
X174952200Y-66360112D02*
X174904580Y-66407731D01*
X174904580Y-66407731D02*
X174809342Y-66455350D01*
X174809342Y-66455350D02*
X174714104Y-66455350D01*
X174714104Y-66455350D02*
X174618866Y-66407731D01*
X174618866Y-66407731D02*
X174571247Y-66360112D01*
X174571247Y-66360112D02*
X174523628Y-66264874D01*
X174523628Y-66264874D02*
X174476009Y-66074398D01*
X174476009Y-66074398D02*
X174428390Y-65979160D01*
X174428390Y-65979160D02*
X174380771Y-65931541D01*
X174380771Y-65931541D02*
X174285533Y-65883922D01*
X174285533Y-65883922D02*
X174190295Y-65883922D01*
X174190295Y-65883922D02*
X174095057Y-65931541D01*
X174095057Y-65931541D02*
X174047438Y-65979160D01*
X174047438Y-65979160D02*
X173999819Y-66074398D01*
X173999819Y-66074398D02*
X173999819Y-66312493D01*
X173999819Y-66312493D02*
X174047438Y-66455350D01*
X174999819Y-66883922D02*
X173999819Y-66883922D01*
X173999819Y-66883922D02*
X173999819Y-67264874D01*
X173999819Y-67264874D02*
X174047438Y-67360112D01*
X174047438Y-67360112D02*
X174095057Y-67407731D01*
X174095057Y-67407731D02*
X174190295Y-67455350D01*
X174190295Y-67455350D02*
X174333152Y-67455350D01*
X174333152Y-67455350D02*
X174428390Y-67407731D01*
X174428390Y-67407731D02*
X174476009Y-67360112D01*
X174476009Y-67360112D02*
X174523628Y-67264874D01*
X174523628Y-67264874D02*
X174523628Y-66883922D01*
X173999819Y-67788684D02*
X173999819Y-68407731D01*
X173999819Y-68407731D02*
X174380771Y-68074398D01*
X174380771Y-68074398D02*
X174380771Y-68217255D01*
X174380771Y-68217255D02*
X174428390Y-68312493D01*
X174428390Y-68312493D02*
X174476009Y-68360112D01*
X174476009Y-68360112D02*
X174571247Y-68407731D01*
X174571247Y-68407731D02*
X174809342Y-68407731D01*
X174809342Y-68407731D02*
X174904580Y-68360112D01*
X174904580Y-68360112D02*
X174952200Y-68312493D01*
X174952200Y-68312493D02*
X174999819Y-68217255D01*
X174999819Y-68217255D02*
X174999819Y-67931541D01*
X174999819Y-67931541D02*
X174952200Y-67836303D01*
X174952200Y-67836303D02*
X174904580Y-67788684D01*
X174095057Y-68788684D02*
X174047438Y-68836303D01*
X174047438Y-68836303D02*
X173999819Y-68931541D01*
X173999819Y-68931541D02*
X173999819Y-69169636D01*
X173999819Y-69169636D02*
X174047438Y-69264874D01*
X174047438Y-69264874D02*
X174095057Y-69312493D01*
X174095057Y-69312493D02*
X174190295Y-69360112D01*
X174190295Y-69360112D02*
X174285533Y-69360112D01*
X174285533Y-69360112D02*
X174428390Y-69312493D01*
X174428390Y-69312493D02*
X174999819Y-68741065D01*
X174999819Y-68741065D02*
X174999819Y-69360112D01*
X174904580Y-71122017D02*
X174952200Y-71074398D01*
X174952200Y-71074398D02*
X174999819Y-70931541D01*
X174999819Y-70931541D02*
X174999819Y-70836303D01*
X174999819Y-70836303D02*
X174952200Y-70693446D01*
X174952200Y-70693446D02*
X174856961Y-70598208D01*
X174856961Y-70598208D02*
X174761723Y-70550589D01*
X174761723Y-70550589D02*
X174571247Y-70502970D01*
X174571247Y-70502970D02*
X174428390Y-70502970D01*
X174428390Y-70502970D02*
X174237914Y-70550589D01*
X174237914Y-70550589D02*
X174142676Y-70598208D01*
X174142676Y-70598208D02*
X174047438Y-70693446D01*
X174047438Y-70693446D02*
X173999819Y-70836303D01*
X173999819Y-70836303D02*
X173999819Y-70931541D01*
X173999819Y-70931541D02*
X174047438Y-71074398D01*
X174047438Y-71074398D02*
X174095057Y-71122017D01*
X174999819Y-71979160D02*
X174476009Y-71979160D01*
X174476009Y-71979160D02*
X174380771Y-71931541D01*
X174380771Y-71931541D02*
X174333152Y-71836303D01*
X174333152Y-71836303D02*
X174333152Y-71645827D01*
X174333152Y-71645827D02*
X174380771Y-71550589D01*
X174952200Y-71979160D02*
X174999819Y-71883922D01*
X174999819Y-71883922D02*
X174999819Y-71645827D01*
X174999819Y-71645827D02*
X174952200Y-71550589D01*
X174952200Y-71550589D02*
X174856961Y-71502970D01*
X174856961Y-71502970D02*
X174761723Y-71502970D01*
X174761723Y-71502970D02*
X174666485Y-71550589D01*
X174666485Y-71550589D02*
X174618866Y-71645827D01*
X174618866Y-71645827D02*
X174618866Y-71883922D01*
X174618866Y-71883922D02*
X174571247Y-71979160D01*
X174999819Y-72455351D02*
X174333152Y-72455351D01*
X174428390Y-72455351D02*
X174380771Y-72502970D01*
X174380771Y-72502970D02*
X174333152Y-72598208D01*
X174333152Y-72598208D02*
X174333152Y-72741065D01*
X174333152Y-72741065D02*
X174380771Y-72836303D01*
X174380771Y-72836303D02*
X174476009Y-72883922D01*
X174476009Y-72883922D02*
X174999819Y-72883922D01*
X174476009Y-72883922D02*
X174380771Y-72931541D01*
X174380771Y-72931541D02*
X174333152Y-73026779D01*
X174333152Y-73026779D02*
X174333152Y-73169636D01*
X174333152Y-73169636D02*
X174380771Y-73264875D01*
X174380771Y-73264875D02*
X174476009Y-73312494D01*
X174476009Y-73312494D02*
X174999819Y-73312494D01*
X174476009Y-74883922D02*
X174523628Y-75026779D01*
X174523628Y-75026779D02*
X174571247Y-75074398D01*
X174571247Y-75074398D02*
X174666485Y-75122017D01*
X174666485Y-75122017D02*
X174809342Y-75122017D01*
X174809342Y-75122017D02*
X174904580Y-75074398D01*
X174904580Y-75074398D02*
X174952200Y-75026779D01*
X174952200Y-75026779D02*
X174999819Y-74931541D01*
X174999819Y-74931541D02*
X174999819Y-74550589D01*
X174999819Y-74550589D02*
X173999819Y-74550589D01*
X173999819Y-74550589D02*
X173999819Y-74883922D01*
X173999819Y-74883922D02*
X174047438Y-74979160D01*
X174047438Y-74979160D02*
X174095057Y-75026779D01*
X174095057Y-75026779D02*
X174190295Y-75074398D01*
X174190295Y-75074398D02*
X174285533Y-75074398D01*
X174285533Y-75074398D02*
X174380771Y-75026779D01*
X174380771Y-75026779D02*
X174428390Y-74979160D01*
X174428390Y-74979160D02*
X174476009Y-74883922D01*
X174476009Y-74883922D02*
X174476009Y-74550589D01*
X174999819Y-75979160D02*
X174476009Y-75979160D01*
X174476009Y-75979160D02*
X174380771Y-75931541D01*
X174380771Y-75931541D02*
X174333152Y-75836303D01*
X174333152Y-75836303D02*
X174333152Y-75645827D01*
X174333152Y-75645827D02*
X174380771Y-75550589D01*
X174952200Y-75979160D02*
X174999819Y-75883922D01*
X174999819Y-75883922D02*
X174999819Y-75645827D01*
X174999819Y-75645827D02*
X174952200Y-75550589D01*
X174952200Y-75550589D02*
X174856961Y-75502970D01*
X174856961Y-75502970D02*
X174761723Y-75502970D01*
X174761723Y-75502970D02*
X174666485Y-75550589D01*
X174666485Y-75550589D02*
X174618866Y-75645827D01*
X174618866Y-75645827D02*
X174618866Y-75883922D01*
X174618866Y-75883922D02*
X174571247Y-75979160D01*
X174952200Y-76883922D02*
X174999819Y-76788684D01*
X174999819Y-76788684D02*
X174999819Y-76598208D01*
X174999819Y-76598208D02*
X174952200Y-76502970D01*
X174952200Y-76502970D02*
X174904580Y-76455351D01*
X174904580Y-76455351D02*
X174809342Y-76407732D01*
X174809342Y-76407732D02*
X174523628Y-76407732D01*
X174523628Y-76407732D02*
X174428390Y-76455351D01*
X174428390Y-76455351D02*
X174380771Y-76502970D01*
X174380771Y-76502970D02*
X174333152Y-76598208D01*
X174333152Y-76598208D02*
X174333152Y-76788684D01*
X174333152Y-76788684D02*
X174380771Y-76883922D01*
X174999819Y-77312494D02*
X173999819Y-77312494D01*
X174618866Y-77407732D02*
X174999819Y-77693446D01*
X174333152Y-77693446D02*
X174714104Y-77312494D01*
X165333333Y-83965819D02*
X165333333Y-84680104D01*
X165333333Y-84680104D02*
X165380952Y-84822961D01*
X165380952Y-84822961D02*
X165476190Y-84918200D01*
X165476190Y-84918200D02*
X165619047Y-84965819D01*
X165619047Y-84965819D02*
X165714285Y-84965819D01*
X164333333Y-84965819D02*
X164904761Y-84965819D01*
X164619047Y-84965819D02*
X164619047Y-83965819D01*
X164619047Y-83965819D02*
X164714285Y-84108676D01*
X164714285Y-84108676D02*
X164809523Y-84203914D01*
X164809523Y-84203914D02*
X164904761Y-84251533D01*
X165333333Y-61105819D02*
X165333333Y-61820104D01*
X165333333Y-61820104D02*
X165380952Y-61962961D01*
X165380952Y-61962961D02*
X165476190Y-62058200D01*
X165476190Y-62058200D02*
X165619047Y-62105819D01*
X165619047Y-62105819D02*
X165714285Y-62105819D01*
X164428571Y-61439152D02*
X164428571Y-62105819D01*
X164666666Y-61058200D02*
X164904761Y-61772485D01*
X164904761Y-61772485D02*
X164285714Y-61772485D01*
D11*
%TO.C,J3*%
X154192300Y-58399945D02*
G75*
G02*
X153430300Y-58399945I-381000J0D01*
G01*
X153430300Y-58399945D02*
G75*
G02*
X154192300Y-58399945I381000J0D01*
G01*
%TO.C,J2*%
X154192300Y-80399945D02*
G75*
G02*
X153430300Y-80399945I-381000J0D01*
G01*
X153430300Y-80399945D02*
G75*
G02*
X154192300Y-80399945I381000J0D01*
G01*
D12*
%TO.C,J1*%
X154408200Y-80434300D02*
X154408200Y-85285700D01*
X154408200Y-85285700D02*
X155281960Y-85285700D01*
X156938040Y-85285700D02*
X160361960Y-85285700D01*
X157821960Y-80434300D02*
X154408200Y-80434300D01*
X162018040Y-85285700D02*
X165441960Y-85285700D01*
X162901960Y-80434300D02*
X159478040Y-80434300D01*
X167098040Y-85285700D02*
X170521960Y-85285700D01*
X167981960Y-80434300D02*
X164558040Y-80434300D01*
X172178040Y-85285700D02*
X175591800Y-85285700D01*
X173061960Y-80434300D02*
X169638040Y-80434300D01*
X175591800Y-80434300D02*
X174718040Y-80434300D01*
X175591800Y-85285700D02*
X175591800Y-80434300D01*
D11*
X154154200Y-84511000D02*
G75*
G02*
X153392200Y-84511000I-381000J0D01*
G01*
X153392200Y-84511000D02*
G75*
G02*
X154154200Y-84511000I381000J0D01*
G01*
D12*
%TO.C,J4*%
X154408200Y-57574300D02*
X154408200Y-62425700D01*
X154408200Y-62425700D02*
X155281960Y-62425700D01*
X156938040Y-62425700D02*
X160361960Y-62425700D01*
X157821960Y-57574300D02*
X154408200Y-57574300D01*
X162018040Y-62425700D02*
X165441960Y-62425700D01*
X162901960Y-57574300D02*
X159478040Y-57574300D01*
X167098040Y-62425700D02*
X170521960Y-62425700D01*
X167981960Y-57574300D02*
X164558040Y-57574300D01*
X172178040Y-62425700D02*
X175591800Y-62425700D01*
X173061960Y-57574300D02*
X169638040Y-57574300D01*
X175591800Y-57574300D02*
X174718040Y-57574300D01*
X175591800Y-62425700D02*
X175591800Y-57574300D01*
D11*
X154154200Y-61651000D02*
G75*
G02*
X153392200Y-61651000I-381000J0D01*
G01*
X153392200Y-61651000D02*
G75*
G02*
X154154200Y-61651000I381000J0D01*
G01*
%TD*%
M02*
