%TF.GenerationSoftware,KiCad,Pcbnew,8.0.1*%
%TF.CreationDate,2024-04-07T23:26:14-05:00*%
%TF.ProjectId,ece445_headset,65636534-3435-45f6-9865-61647365742e,rev?*%
%TF.SameCoordinates,Original*%
%TF.FileFunction,Legend,Top*%
%TF.FilePolarity,Positive*%
%FSLAX46Y46*%
G04 Gerber Fmt 4.6, Leading zero omitted, Abs format (unit mm)*
G04 Created by KiCad (PCBNEW 8.0.1) date 2024-04-07 23:26:14*
%MOMM*%
%LPD*%
G01*
G04 APERTURE LIST*
%ADD10C,0.100000*%
%ADD11C,0.150000*%
%ADD12C,0.120000*%
%ADD13C,0.127000*%
%ADD14C,0.200000*%
%ADD15C,0.300000*%
%ADD16C,0.152400*%
G04 APERTURE END LIST*
D10*
G36*
X144074459Y-72389080D02*
G01*
X144058522Y-72386882D01*
X144020744Y-72378602D01*
X143983544Y-72372356D01*
X143946923Y-72368144D01*
X143905778Y-72365820D01*
X143890544Y-72365633D01*
X143852171Y-72366755D01*
X143813839Y-72369806D01*
X143798403Y-72371495D01*
X143759815Y-72376629D01*
X143722541Y-72382875D01*
X143690692Y-72389080D01*
X143694516Y-72426832D01*
X143695272Y-72446782D01*
X143694722Y-72488949D01*
X143693340Y-72531761D01*
X143691485Y-72572852D01*
X143689467Y-72610195D01*
X143687020Y-72650354D01*
X143686479Y-72658724D01*
X143912159Y-72634911D01*
X143952004Y-72630485D01*
X143988546Y-72626759D01*
X144025370Y-72623831D01*
X144034342Y-72623553D01*
X144069313Y-72635438D01*
X144072260Y-72638025D01*
X144087694Y-72672046D01*
X144087831Y-72676493D01*
X144075970Y-72713084D01*
X144040387Y-72729066D01*
X143917838Y-72740790D01*
X143679884Y-72764237D01*
X143677701Y-72802851D01*
X143676404Y-72831282D01*
X143675302Y-72869178D01*
X143675122Y-72890266D01*
X143675701Y-72928426D01*
X143678277Y-72969367D01*
X143685184Y-73007117D01*
X143691608Y-73019959D01*
X143729074Y-73031923D01*
X143768347Y-73033868D01*
X143772575Y-73033881D01*
X143809540Y-73033881D01*
X143849314Y-73033881D01*
X143868562Y-73033881D01*
X143905556Y-73033881D01*
X143944449Y-73033881D01*
X143965282Y-73033881D01*
X143995507Y-73028019D01*
X144025549Y-73022158D01*
X144062865Y-73032571D01*
X144079658Y-73066840D01*
X144080137Y-73076563D01*
X144069192Y-73111779D01*
X144036357Y-73129502D01*
X143995094Y-73134719D01*
X143953076Y-73137221D01*
X143916440Y-73138428D01*
X143874286Y-73139153D01*
X143836589Y-73139384D01*
X143826613Y-73139394D01*
X143788468Y-73138747D01*
X143745819Y-73136119D01*
X143708759Y-73131470D01*
X143671667Y-73123223D01*
X143634733Y-73107698D01*
X143621632Y-73097995D01*
X143599994Y-73068136D01*
X143586132Y-73029989D01*
X143578018Y-72988360D01*
X143573912Y-72947373D01*
X143572366Y-72910462D01*
X143572173Y-72890633D01*
X143572637Y-72852244D01*
X143573639Y-72819741D01*
X143575386Y-72782349D01*
X143577379Y-72745053D01*
X143577852Y-72736760D01*
X143572173Y-72712030D01*
X143581882Y-72681256D01*
X143584837Y-72637439D01*
X143587292Y-72597353D01*
X143589576Y-72554173D01*
X143591138Y-72516364D01*
X143592050Y-72479041D01*
X143592140Y-72465284D01*
X143589255Y-72427468D01*
X143587011Y-72410512D01*
X143582728Y-72373641D01*
X143581882Y-72355558D01*
X143589120Y-72318833D01*
X143618527Y-72296762D01*
X143633356Y-72295291D01*
X143668572Y-72305756D01*
X143670542Y-72307198D01*
X143708463Y-72293591D01*
X143745060Y-72282311D01*
X143783788Y-72272588D01*
X143787229Y-72271844D01*
X143824231Y-72265169D01*
X143862820Y-72261047D01*
X143890544Y-72260120D01*
X143928465Y-72260826D01*
X143970711Y-72263540D01*
X144009403Y-72268288D01*
X144050050Y-72276400D01*
X144085858Y-72287282D01*
X144090579Y-72289063D01*
X144119333Y-72312369D01*
X144125017Y-72336873D01*
X144111645Y-72372227D01*
X144078552Y-72388932D01*
X144074459Y-72389080D01*
G37*
G36*
X144724572Y-72506317D02*
G01*
X144689796Y-72491648D01*
X144675113Y-72468764D01*
X144656254Y-72436548D01*
X144648368Y-72429747D01*
X144611915Y-72424514D01*
X144594696Y-72424251D01*
X144556377Y-72431613D01*
X144521138Y-72450132D01*
X144489663Y-72474977D01*
X144462539Y-72502008D01*
X144434601Y-72534791D01*
X144428916Y-72542037D01*
X144406819Y-72571533D01*
X144380737Y-72610411D01*
X144358519Y-72648773D01*
X144340165Y-72686620D01*
X144325675Y-72723952D01*
X144315049Y-72760769D01*
X144308287Y-72797071D01*
X144305268Y-72841723D01*
X144308644Y-72878739D01*
X144320315Y-72916298D01*
X144340322Y-72950101D01*
X144347950Y-72959509D01*
X144377083Y-72986364D01*
X144409759Y-73003273D01*
X144445977Y-73010235D01*
X144453646Y-73010434D01*
X144493453Y-73006750D01*
X144530125Y-72996902D01*
X144560258Y-72984239D01*
X144592485Y-72965751D01*
X144626366Y-72943501D01*
X144651849Y-72925804D01*
X144684164Y-72907389D01*
X144696179Y-72904921D01*
X144730335Y-72918461D01*
X144733182Y-72921407D01*
X144748144Y-72955357D01*
X144748203Y-72957861D01*
X144734249Y-72992279D01*
X144728602Y-72997794D01*
X144694570Y-73025486D01*
X144660435Y-73049486D01*
X144626198Y-73069794D01*
X144591857Y-73086409D01*
X144557413Y-73099332D01*
X144514213Y-73110293D01*
X144470852Y-73115485D01*
X144453463Y-73115947D01*
X144414642Y-73113004D01*
X144378140Y-73104174D01*
X144343957Y-73089459D01*
X144312092Y-73068858D01*
X144282545Y-73042370D01*
X144273211Y-73032233D01*
X144249057Y-73000833D01*
X144229900Y-72967360D01*
X144215741Y-72931814D01*
X144206579Y-72894193D01*
X144202414Y-72854499D01*
X144202137Y-72840807D01*
X144204424Y-72796062D01*
X144211284Y-72751037D01*
X144222719Y-72705730D01*
X144238727Y-72660144D01*
X144253735Y-72625770D01*
X144271316Y-72591238D01*
X144291469Y-72556548D01*
X144314195Y-72521701D01*
X144339494Y-72486696D01*
X144348499Y-72474993D01*
X144379033Y-72438370D01*
X144409636Y-72406631D01*
X144440308Y-72379775D01*
X144471048Y-72357802D01*
X144509570Y-72337202D01*
X144548199Y-72324231D01*
X144586936Y-72318891D01*
X144594696Y-72318738D01*
X144632268Y-72320310D01*
X144639942Y-72321120D01*
X144675479Y-72328447D01*
X144707037Y-72308710D01*
X144722374Y-72307015D01*
X144756563Y-72324689D01*
X144767254Y-72352260D01*
X144772889Y-72391029D01*
X144775207Y-72429841D01*
X144775497Y-72451179D01*
X144764139Y-72486899D01*
X144732300Y-72505843D01*
X144724572Y-72506317D01*
G37*
G36*
X145362595Y-72389080D02*
G01*
X145346659Y-72386882D01*
X145308880Y-72378602D01*
X145271681Y-72372356D01*
X145235059Y-72368144D01*
X145193915Y-72365820D01*
X145178681Y-72365633D01*
X145140308Y-72366755D01*
X145101975Y-72369806D01*
X145086540Y-72371495D01*
X145047952Y-72376629D01*
X145010678Y-72382875D01*
X144978829Y-72389080D01*
X144982653Y-72426832D01*
X144983408Y-72446782D01*
X144982859Y-72488949D01*
X144981476Y-72531761D01*
X144979622Y-72572852D01*
X144977604Y-72610195D01*
X144975157Y-72650354D01*
X144974616Y-72658724D01*
X145200296Y-72634911D01*
X145240141Y-72630485D01*
X145276682Y-72626759D01*
X145313506Y-72623831D01*
X145322479Y-72623553D01*
X145357449Y-72635438D01*
X145360397Y-72638025D01*
X145375831Y-72672046D01*
X145375968Y-72676493D01*
X145364107Y-72713084D01*
X145328524Y-72729066D01*
X145205975Y-72740790D01*
X144968021Y-72764237D01*
X144965838Y-72802851D01*
X144964541Y-72831282D01*
X144963439Y-72869178D01*
X144963258Y-72890266D01*
X144963838Y-72928426D01*
X144966414Y-72969367D01*
X144973321Y-73007117D01*
X144979745Y-73019959D01*
X145017211Y-73031923D01*
X145056484Y-73033868D01*
X145060711Y-73033881D01*
X145097677Y-73033881D01*
X145137450Y-73033881D01*
X145156699Y-73033881D01*
X145193693Y-73033881D01*
X145232586Y-73033881D01*
X145253419Y-73033881D01*
X145283644Y-73028019D01*
X145313686Y-73022158D01*
X145351002Y-73032571D01*
X145367794Y-73066840D01*
X145368274Y-73076563D01*
X145357329Y-73111779D01*
X145324494Y-73129502D01*
X145283231Y-73134719D01*
X145241213Y-73137221D01*
X145204577Y-73138428D01*
X145162423Y-73139153D01*
X145124726Y-73139384D01*
X145114750Y-73139394D01*
X145076605Y-73138747D01*
X145033955Y-73136119D01*
X144996896Y-73131470D01*
X144959804Y-73123223D01*
X144922870Y-73107698D01*
X144909769Y-73097995D01*
X144888131Y-73068136D01*
X144874269Y-73029989D01*
X144866154Y-72988360D01*
X144862049Y-72947373D01*
X144860503Y-72910462D01*
X144860310Y-72890633D01*
X144860774Y-72852244D01*
X144861775Y-72819741D01*
X144863522Y-72782349D01*
X144865516Y-72745053D01*
X144865989Y-72736760D01*
X144860310Y-72712030D01*
X144870019Y-72681256D01*
X144872974Y-72637439D01*
X144875428Y-72597353D01*
X144877712Y-72554173D01*
X144879275Y-72516364D01*
X144880187Y-72479041D01*
X144880277Y-72465284D01*
X144877392Y-72427468D01*
X144875148Y-72410512D01*
X144870865Y-72373641D01*
X144870019Y-72355558D01*
X144877257Y-72318833D01*
X144906664Y-72296762D01*
X144921493Y-72295291D01*
X144956709Y-72305756D01*
X144958679Y-72307198D01*
X144996600Y-72293591D01*
X145033197Y-72282311D01*
X145071925Y-72272588D01*
X145075366Y-72271844D01*
X145112368Y-72265169D01*
X145150956Y-72261047D01*
X145178681Y-72260120D01*
X145216601Y-72260826D01*
X145258848Y-72263540D01*
X145297539Y-72268288D01*
X145338186Y-72276400D01*
X145373995Y-72287282D01*
X145378715Y-72289063D01*
X145407470Y-72312369D01*
X145413154Y-72336873D01*
X145399781Y-72372227D01*
X145366689Y-72388932D01*
X145362595Y-72389080D01*
G37*
G36*
X145919999Y-72291942D02*
G01*
X145940023Y-72325241D01*
X145940535Y-72334309D01*
X145940535Y-72764237D01*
X145961601Y-72763688D01*
X145998574Y-72766265D01*
X146035640Y-72778887D01*
X146056119Y-72811022D01*
X146056489Y-72817543D01*
X146044086Y-72852487D01*
X146017288Y-72867002D01*
X145979149Y-72870308D01*
X145940535Y-72869750D01*
X145940535Y-73057145D01*
X145928811Y-73092454D01*
X145893640Y-73104223D01*
X145858297Y-73092221D01*
X145840971Y-73056214D01*
X145839052Y-73031500D01*
X145840151Y-73006038D01*
X145841250Y-72983506D01*
X145840701Y-72869750D01*
X145613372Y-72863339D01*
X145573515Y-72862820D01*
X145536833Y-72860828D01*
X145515553Y-72858026D01*
X145480382Y-72844791D01*
X145468658Y-72820840D01*
X145480886Y-72784622D01*
X145495019Y-72764237D01*
X145625828Y-72764237D01*
X145840701Y-72764237D01*
X145840701Y-72430113D01*
X145815436Y-72470962D01*
X145791231Y-72509840D01*
X145768085Y-72546748D01*
X145745999Y-72581685D01*
X145724971Y-72614651D01*
X145705004Y-72645647D01*
X145680028Y-72683909D01*
X145656936Y-72718668D01*
X145635726Y-72749923D01*
X145625828Y-72764237D01*
X145495019Y-72764237D01*
X145497051Y-72761306D01*
X145541381Y-72707817D01*
X145794722Y-72332294D01*
X145820689Y-72304552D01*
X145853954Y-72287422D01*
X145882283Y-72283567D01*
X145919999Y-72291942D01*
G37*
G36*
X146560404Y-72291942D02*
G01*
X146580428Y-72325241D01*
X146580940Y-72334309D01*
X146580940Y-72764237D01*
X146602006Y-72763688D01*
X146638979Y-72766265D01*
X146676045Y-72778887D01*
X146696523Y-72811022D01*
X146696894Y-72817543D01*
X146684491Y-72852487D01*
X146657693Y-72867002D01*
X146619554Y-72870308D01*
X146580940Y-72869750D01*
X146580940Y-73057145D01*
X146569216Y-73092454D01*
X146534045Y-73104223D01*
X146498701Y-73092221D01*
X146481376Y-73056214D01*
X146479457Y-73031500D01*
X146480556Y-73006038D01*
X146481655Y-72983506D01*
X146481106Y-72869750D01*
X146253777Y-72863339D01*
X146213920Y-72862820D01*
X146177238Y-72860828D01*
X146155957Y-72858026D01*
X146120786Y-72844791D01*
X146109063Y-72820840D01*
X146121291Y-72784622D01*
X146135424Y-72764237D01*
X146266233Y-72764237D01*
X146481106Y-72764237D01*
X146481106Y-72430113D01*
X146455841Y-72470962D01*
X146431636Y-72509840D01*
X146408490Y-72546748D01*
X146386403Y-72581685D01*
X146365376Y-72614651D01*
X146345408Y-72645647D01*
X146320433Y-72683909D01*
X146297340Y-72718668D01*
X146276131Y-72749923D01*
X146266233Y-72764237D01*
X146135424Y-72764237D01*
X146137456Y-72761306D01*
X146181786Y-72707817D01*
X146435127Y-72332294D01*
X146461094Y-72304552D01*
X146494358Y-72287422D01*
X146522688Y-72283567D01*
X146560404Y-72291942D01*
G37*
G36*
X147014166Y-73115947D02*
G01*
X146970367Y-73113290D01*
X146930335Y-73105321D01*
X146894068Y-73092038D01*
X146861566Y-73073443D01*
X146832830Y-73049534D01*
X146807860Y-73020313D01*
X146798927Y-73007137D01*
X146789584Y-72978194D01*
X146804541Y-72944128D01*
X146805521Y-72943206D01*
X146839106Y-72928426D01*
X146841608Y-72928368D01*
X146875722Y-72943496D01*
X146881725Y-72949617D01*
X146907042Y-72976203D01*
X146922941Y-72989185D01*
X146956901Y-73003711D01*
X146993377Y-73009687D01*
X147014166Y-73010434D01*
X147051731Y-73007331D01*
X147091078Y-72996185D01*
X147126601Y-72976934D01*
X147158300Y-72949577D01*
X147161994Y-72945587D01*
X147186597Y-72913061D01*
X147204171Y-72877398D01*
X147214716Y-72838598D01*
X147218176Y-72802074D01*
X147218230Y-72796660D01*
X147216274Y-72758413D01*
X147209512Y-72720947D01*
X147196495Y-72685849D01*
X147193501Y-72680157D01*
X147170199Y-72650307D01*
X147136756Y-72630242D01*
X147099254Y-72623609D01*
X147095132Y-72623553D01*
X147056612Y-72625666D01*
X147018835Y-72633469D01*
X147005006Y-72638574D01*
X146973508Y-72657360D01*
X146948770Y-72679424D01*
X146892716Y-72740973D01*
X146861050Y-72761965D01*
X146846371Y-72764237D01*
X146812110Y-72750140D01*
X146811200Y-72749216D01*
X146796926Y-72714440D01*
X146796912Y-72713129D01*
X146799818Y-72674875D01*
X146803682Y-72634145D01*
X146805155Y-72619157D01*
X146809233Y-72579401D01*
X146813567Y-72534712D01*
X146817051Y-72495588D01*
X146820110Y-72455982D01*
X146822285Y-72415636D01*
X146822557Y-72400804D01*
X146815185Y-72364562D01*
X146813581Y-72360504D01*
X146804605Y-72328080D01*
X146827878Y-72299650D01*
X146858644Y-72295840D01*
X146889785Y-72297672D01*
X146921109Y-72299504D01*
X146958432Y-72299000D01*
X146996222Y-72297961D01*
X147010685Y-72297489D01*
X147048234Y-72296238D01*
X147085881Y-72295396D01*
X147100444Y-72295291D01*
X147137412Y-72296194D01*
X147142576Y-72296390D01*
X147180187Y-72297283D01*
X147184891Y-72297306D01*
X147213101Y-72293459D01*
X147241128Y-72289612D01*
X147275516Y-72303021D01*
X147276482Y-72303900D01*
X147292053Y-72336507D01*
X147274871Y-72369772D01*
X147239433Y-72384645D01*
X147198507Y-72390242D01*
X147169870Y-72391095D01*
X147132744Y-72390290D01*
X147129754Y-72390179D01*
X147100444Y-72389080D01*
X147013250Y-72390729D01*
X146926238Y-72393476D01*
X146923559Y-72430640D01*
X146919522Y-72469258D01*
X146914610Y-72512294D01*
X146909494Y-72555163D01*
X146907187Y-72574094D01*
X146940286Y-72552253D01*
X146977873Y-72535776D01*
X147013662Y-72525923D01*
X147052748Y-72520011D01*
X147095132Y-72518040D01*
X147135766Y-72521125D01*
X147172627Y-72530379D01*
X147210861Y-72548974D01*
X147243958Y-72575965D01*
X147268239Y-72605785D01*
X147287939Y-72640357D01*
X147302801Y-72678839D01*
X147311688Y-72714935D01*
X147317020Y-72753904D01*
X147318797Y-72795744D01*
X147316812Y-72837664D01*
X147310855Y-72877214D01*
X147300926Y-72914393D01*
X147287027Y-72949202D01*
X147269156Y-72981641D01*
X147247314Y-73011710D01*
X147237465Y-73023073D01*
X147209698Y-73049829D01*
X147179294Y-73072050D01*
X147146250Y-73089735D01*
X147110568Y-73102886D01*
X147072247Y-73111503D01*
X147031288Y-73115584D01*
X147014166Y-73115947D01*
G37*
G36*
X147747810Y-72954930D02*
G01*
X147761530Y-72919721D01*
X147762465Y-72918843D01*
X147797090Y-72904975D01*
X147799834Y-72904921D01*
X147834249Y-72920377D01*
X147844164Y-72932398D01*
X147867514Y-72962119D01*
X147891058Y-72982957D01*
X147925855Y-72998600D01*
X147965640Y-73007187D01*
X148003057Y-73010192D01*
X148018370Y-73010434D01*
X148057594Y-73008465D01*
X148095398Y-73002557D01*
X148131783Y-72992711D01*
X148166748Y-72978927D01*
X148200866Y-72959707D01*
X148229597Y-72934051D01*
X148248836Y-72900479D01*
X148254309Y-72866453D01*
X148245607Y-72828614D01*
X148222595Y-72799362D01*
X148189587Y-72777227D01*
X148180669Y-72772847D01*
X148143303Y-72758313D01*
X148106171Y-72749020D01*
X148065353Y-72743138D01*
X148026613Y-72740790D01*
X147987447Y-72737378D01*
X147951280Y-72730257D01*
X147914177Y-72717812D01*
X147887944Y-72704886D01*
X147855968Y-72681462D01*
X147830914Y-72649690D01*
X147817424Y-72612180D01*
X147814855Y-72583986D01*
X147819834Y-72544197D01*
X147834770Y-72505932D01*
X147855498Y-72474349D01*
X147883542Y-72443885D01*
X147912501Y-72419355D01*
X147918902Y-72414542D01*
X147950147Y-72393697D01*
X147988066Y-72373347D01*
X148026448Y-72358084D01*
X148065294Y-72347909D01*
X148104604Y-72342821D01*
X148124433Y-72342185D01*
X148163742Y-72344787D01*
X148202944Y-72351743D01*
X148237273Y-72360687D01*
X148273737Y-72373521D01*
X148306865Y-72393897D01*
X148320621Y-72422053D01*
X148310437Y-72457290D01*
X148274275Y-72471146D01*
X148236380Y-72466495D01*
X148202102Y-72459239D01*
X148164088Y-72451502D01*
X148125874Y-72447679D01*
X148122234Y-72447698D01*
X148083617Y-72450274D01*
X148043758Y-72458236D01*
X148007696Y-72471559D01*
X147985764Y-72483419D01*
X147955335Y-72507132D01*
X147933696Y-72539556D01*
X147928061Y-72569881D01*
X147947112Y-72602670D01*
X147982312Y-72618625D01*
X148004265Y-72624103D01*
X148042516Y-72629569D01*
X148080941Y-72632989D01*
X148113991Y-72635277D01*
X148156420Y-72640571D01*
X148195230Y-72649857D01*
X148230420Y-72663136D01*
X148266901Y-72683675D01*
X148298456Y-72709649D01*
X148325063Y-72741328D01*
X148344068Y-72776281D01*
X148355471Y-72814509D01*
X148359272Y-72856011D01*
X148356504Y-72893215D01*
X148345873Y-72934671D01*
X148327270Y-72972650D01*
X148300695Y-73007151D01*
X148272458Y-73033246D01*
X148245882Y-73052383D01*
X148207893Y-73073985D01*
X148167701Y-73091117D01*
X148132525Y-73101980D01*
X148095820Y-73109739D01*
X148057585Y-73114395D01*
X148017821Y-73115947D01*
X147977310Y-73114185D01*
X147938324Y-73108899D01*
X147900864Y-73100090D01*
X147864929Y-73087757D01*
X147845080Y-73079127D01*
X147812470Y-73060975D01*
X147782808Y-73036802D01*
X147759965Y-73005226D01*
X147748914Y-72969437D01*
X147747810Y-72954930D01*
G37*
G36*
X148697463Y-72298280D02*
G01*
X148737027Y-72307247D01*
X148775452Y-72322192D01*
X148812737Y-72343116D01*
X148833531Y-72357756D01*
X148864346Y-72384639D01*
X148888786Y-72413492D01*
X148909241Y-72449645D01*
X148921018Y-72488480D01*
X148924206Y-72523902D01*
X148921840Y-72561475D01*
X148912755Y-72603292D01*
X148896857Y-72641541D01*
X148874145Y-72676223D01*
X148844620Y-72707337D01*
X148827302Y-72721556D01*
X148793580Y-72744029D01*
X148757398Y-72761853D01*
X148718756Y-72775027D01*
X148677654Y-72783551D01*
X148634092Y-72787426D01*
X148619024Y-72787684D01*
X148580715Y-72784183D01*
X148556193Y-72780907D01*
X148554623Y-72822167D01*
X148553584Y-72866827D01*
X148552934Y-72910595D01*
X148552556Y-72949899D01*
X148552304Y-72993016D01*
X148552179Y-73039945D01*
X148552163Y-73064839D01*
X148539613Y-73100186D01*
X148538790Y-73101109D01*
X148505268Y-73115947D01*
X148471196Y-73101842D01*
X148457824Y-73067037D01*
X148457824Y-72915729D01*
X148458408Y-72874055D01*
X148459877Y-72831279D01*
X148461847Y-72789926D01*
X148463991Y-72752159D01*
X148466592Y-72711386D01*
X148467166Y-72702871D01*
X148468961Y-72676127D01*
X148562421Y-72676127D01*
X148619024Y-72682172D01*
X148655625Y-72680269D01*
X148694257Y-72673437D01*
X148729476Y-72661636D01*
X148765020Y-72642421D01*
X148793391Y-72618894D01*
X148815618Y-72587854D01*
X148827587Y-72551976D01*
X148829867Y-72525368D01*
X148821186Y-72488247D01*
X148797976Y-72457796D01*
X148768135Y-72435425D01*
X148735202Y-72418689D01*
X148697013Y-72406518D01*
X148657142Y-72401108D01*
X148644853Y-72400804D01*
X148607926Y-72401556D01*
X148604553Y-72401720D01*
X148574328Y-72404467D01*
X148573229Y-72490380D01*
X148562421Y-72676127D01*
X148468961Y-72676127D01*
X148470148Y-72658450D01*
X148472683Y-72618153D01*
X148475135Y-72575239D01*
X148476942Y-72538263D01*
X148478350Y-72498197D01*
X148478524Y-72489830D01*
X148478524Y-72418756D01*
X148479551Y-72381975D01*
X148484752Y-72344750D01*
X148503345Y-72312235D01*
X148535310Y-72305549D01*
X148572912Y-72298719D01*
X148582021Y-72297855D01*
X148620636Y-72295782D01*
X148656760Y-72295291D01*
X148697463Y-72298280D01*
G37*
G36*
X149472287Y-73092500D02*
G01*
X149435833Y-73086638D01*
X149400113Y-73080776D01*
X149362149Y-73081471D01*
X149324422Y-73082839D01*
X149321161Y-73082974D01*
X149282827Y-73084397D01*
X149245470Y-73085164D01*
X149242027Y-73085172D01*
X149205229Y-73086904D01*
X149182493Y-73088836D01*
X149144271Y-73091798D01*
X149122958Y-73092500D01*
X149106472Y-73090484D01*
X149089986Y-73088286D01*
X149055224Y-73074476D01*
X149043640Y-73052932D01*
X149038020Y-73015277D01*
X149037412Y-72989918D01*
X149039009Y-72952803D01*
X149045140Y-72911535D01*
X149055869Y-72873835D01*
X149071196Y-72839703D01*
X149094889Y-72804392D01*
X149102808Y-72795195D01*
X149131398Y-72769131D01*
X149163226Y-72744393D01*
X149198251Y-72718934D01*
X149232899Y-72694717D01*
X149264192Y-72673379D01*
X149297955Y-72649909D01*
X149328630Y-72626734D01*
X149357494Y-72601155D01*
X149362561Y-72595710D01*
X149385938Y-72563628D01*
X149400657Y-72528290D01*
X149406717Y-72489696D01*
X149406891Y-72481587D01*
X149393386Y-72447223D01*
X149364209Y-72423702D01*
X149329194Y-72407266D01*
X149292644Y-72400826D01*
X149290387Y-72400804D01*
X149252713Y-72405429D01*
X149216490Y-72419306D01*
X149200261Y-72428831D01*
X149126622Y-72488365D01*
X149093669Y-72506159D01*
X149091085Y-72506317D01*
X149054770Y-72497832D01*
X149038014Y-72464714D01*
X149037962Y-72461987D01*
X149049925Y-72426737D01*
X149057562Y-72418389D01*
X149086700Y-72390763D01*
X149117098Y-72364583D01*
X149147917Y-72341578D01*
X149162159Y-72332477D01*
X149197483Y-72314501D01*
X149233386Y-72302408D01*
X149269868Y-72296199D01*
X149290387Y-72295291D01*
X149331019Y-72298210D01*
X149369384Y-72306969D01*
X149405482Y-72321566D01*
X149439314Y-72342002D01*
X149467793Y-72366432D01*
X149491776Y-72397850D01*
X149506622Y-72433001D01*
X149512332Y-72471885D01*
X149512404Y-72477008D01*
X149510291Y-72514754D01*
X149503235Y-72553089D01*
X149497383Y-72572629D01*
X149482757Y-72606812D01*
X149462992Y-72638516D01*
X149452137Y-72652313D01*
X149426164Y-72678825D01*
X149395973Y-72703826D01*
X149364072Y-72726811D01*
X149332653Y-72747335D01*
X149321345Y-72754345D01*
X149287344Y-72775790D01*
X149253585Y-72798238D01*
X149222796Y-72820500D01*
X149194033Y-72845204D01*
X149169097Y-72875978D01*
X149151443Y-72909867D01*
X149141070Y-72946870D01*
X149137979Y-72986987D01*
X149244042Y-72979842D01*
X149282793Y-72978286D01*
X149322469Y-72976877D01*
X149360513Y-72975804D01*
X149400113Y-72975263D01*
X149438261Y-72978698D01*
X149474302Y-72989002D01*
X149505983Y-73007765D01*
X149520647Y-73039926D01*
X149508411Y-73074530D01*
X149506725Y-73076563D01*
X149473562Y-73092484D01*
X149472287Y-73092500D01*
G37*
G36*
X150069441Y-72291942D02*
G01*
X150089465Y-72325241D01*
X150089977Y-72334309D01*
X150089977Y-72764237D01*
X150111043Y-72763688D01*
X150148016Y-72766265D01*
X150185082Y-72778887D01*
X150205560Y-72811022D01*
X150205931Y-72817543D01*
X150193528Y-72852487D01*
X150166730Y-72867002D01*
X150128591Y-72870308D01*
X150089977Y-72869750D01*
X150089977Y-73057145D01*
X150078253Y-73092454D01*
X150043082Y-73104223D01*
X150007738Y-73092221D01*
X149990413Y-73056214D01*
X149988494Y-73031500D01*
X149989593Y-73006038D01*
X149990692Y-72983506D01*
X149990143Y-72869750D01*
X149762814Y-72863339D01*
X149722957Y-72862820D01*
X149686275Y-72860828D01*
X149664994Y-72858026D01*
X149629823Y-72844791D01*
X149618100Y-72820840D01*
X149630328Y-72784622D01*
X149644461Y-72764237D01*
X149775270Y-72764237D01*
X149990143Y-72764237D01*
X149990143Y-72430113D01*
X149964878Y-72470962D01*
X149940673Y-72509840D01*
X149917527Y-72546748D01*
X149895440Y-72581685D01*
X149874413Y-72614651D01*
X149854445Y-72645647D01*
X149829470Y-72683909D01*
X149806377Y-72718668D01*
X149785168Y-72749923D01*
X149775270Y-72764237D01*
X149644461Y-72764237D01*
X149646493Y-72761306D01*
X149690823Y-72707817D01*
X149944164Y-72332294D01*
X149970131Y-72304552D01*
X150003395Y-72287422D01*
X150031725Y-72283567D01*
X150069441Y-72291942D01*
G37*
G36*
X144169713Y-74030465D02*
G01*
X144160643Y-74068816D01*
X144149369Y-74105192D01*
X144135891Y-74139593D01*
X144115944Y-74179817D01*
X144092553Y-74216955D01*
X144065719Y-74251008D01*
X144035441Y-74281974D01*
X144002600Y-74309047D01*
X143967960Y-74331530D01*
X143931523Y-74349425D01*
X143893289Y-74362732D01*
X143853256Y-74371450D01*
X143811426Y-74375580D01*
X143794190Y-74375947D01*
X143756124Y-74374270D01*
X143714530Y-74367830D01*
X143677393Y-74356560D01*
X143639699Y-74337307D01*
X143608070Y-74311480D01*
X143604047Y-74307254D01*
X143579351Y-74273833D01*
X143563010Y-74239954D01*
X143551126Y-74201246D01*
X143543699Y-74157707D01*
X143540914Y-74117735D01*
X143540666Y-74100807D01*
X143542204Y-74060090D01*
X143546820Y-74018998D01*
X143554512Y-73977530D01*
X143565281Y-73935686D01*
X143579127Y-73893466D01*
X143596050Y-73850871D01*
X143603681Y-73833728D01*
X143620038Y-73800208D01*
X143642055Y-73760635D01*
X143665816Y-73723647D01*
X143691321Y-73689244D01*
X143718570Y-73657426D01*
X143747564Y-73628193D01*
X143765797Y-73611894D01*
X143799250Y-73587130D01*
X143833666Y-73569442D01*
X143869043Y-73558829D01*
X143905382Y-73555291D01*
X143944751Y-73559567D01*
X143983975Y-73569663D01*
X144019552Y-73582017D01*
X144029030Y-73585699D01*
X144065574Y-73602016D01*
X144099371Y-73624076D01*
X144121353Y-73655383D01*
X144122819Y-73666299D01*
X144109134Y-73701247D01*
X144107248Y-73703302D01*
X144074244Y-73719280D01*
X144070245Y-73719422D01*
X144038372Y-73706966D01*
X144005023Y-73688979D01*
X143969829Y-73673832D01*
X143933958Y-73663689D01*
X143905382Y-73660804D01*
X143868381Y-73669297D01*
X143835077Y-73690396D01*
X143824598Y-73699455D01*
X143798770Y-73726795D01*
X143773387Y-73757699D01*
X143763782Y-73769980D01*
X143735875Y-73808305D01*
X143711689Y-73847443D01*
X143691224Y-73887394D01*
X143674480Y-73928158D01*
X143661457Y-73969735D01*
X143652155Y-74012124D01*
X143646574Y-74055327D01*
X143644713Y-74099342D01*
X143646142Y-74137452D01*
X143651274Y-74174438D01*
X143662938Y-74210816D01*
X143674572Y-74229767D01*
X143703335Y-74252920D01*
X143740716Y-74265629D01*
X143778322Y-74270076D01*
X143794190Y-74270434D01*
X143833344Y-74267655D01*
X143870185Y-74259319D01*
X143904711Y-74245426D01*
X143936923Y-74225975D01*
X143954291Y-74212365D01*
X143983558Y-74182824D01*
X144008688Y-74148216D01*
X144026934Y-74114520D01*
X144042141Y-74077102D01*
X144054309Y-74035961D01*
X144010713Y-74039093D01*
X143969111Y-74044140D01*
X143929504Y-74051100D01*
X143891892Y-74059975D01*
X143856274Y-74070764D01*
X143816166Y-74086237D01*
X143809760Y-74089084D01*
X143786496Y-74094579D01*
X143751795Y-74079384D01*
X143748944Y-74076078D01*
X143735145Y-74041019D01*
X143735022Y-74036877D01*
X143747923Y-74001449D01*
X143762316Y-73989066D01*
X143801004Y-73972179D01*
X143837627Y-73960730D01*
X143879294Y-73951113D01*
X143926004Y-73943328D01*
X143964346Y-73938691D01*
X144005525Y-73935085D01*
X144049541Y-73932509D01*
X144096393Y-73930963D01*
X144146083Y-73930448D01*
X144181202Y-73943489D01*
X144183086Y-73945286D01*
X144198048Y-73979868D01*
X144198107Y-73982655D01*
X144185879Y-74018287D01*
X144169713Y-74030465D01*
G37*
G36*
X144686104Y-73961039D02*
G01*
X144678368Y-73997020D01*
X144651007Y-74022015D01*
X144634630Y-74024237D01*
X144600040Y-74010020D01*
X144590300Y-73973862D01*
X144588651Y-73938142D01*
X144587185Y-73895277D01*
X144548534Y-73901780D01*
X144509868Y-73913037D01*
X144476303Y-73928467D01*
X144456760Y-73941072D01*
X144427094Y-73968123D01*
X144403280Y-73999665D01*
X144384417Y-74033712D01*
X144380556Y-74042006D01*
X144381655Y-74323923D01*
X144371908Y-74359486D01*
X144336897Y-74375744D01*
X144330730Y-74375947D01*
X144295283Y-74361368D01*
X144285301Y-74324289D01*
X144285301Y-73965985D01*
X144286148Y-73927474D01*
X144286584Y-73915427D01*
X144287714Y-73878446D01*
X144287866Y-73864869D01*
X144297848Y-73827790D01*
X144333295Y-73813211D01*
X144367836Y-73828744D01*
X144381595Y-73862741D01*
X144384220Y-73894361D01*
X144415659Y-73867605D01*
X144448155Y-73845385D01*
X144481705Y-73827699D01*
X144516311Y-73814548D01*
X144551973Y-73805932D01*
X144588690Y-73801850D01*
X144603672Y-73801488D01*
X144640125Y-73809227D01*
X144665954Y-73832445D01*
X144680811Y-73868220D01*
X144686148Y-73906808D01*
X144686653Y-73925502D01*
X144686104Y-73961039D01*
G37*
G36*
X145057082Y-73816515D02*
G01*
X145095650Y-73828720D01*
X145129450Y-73849919D01*
X145158482Y-73880112D01*
X145176299Y-73907184D01*
X145192708Y-73941915D01*
X145204910Y-73979592D01*
X145212904Y-74020214D01*
X145216408Y-74057377D01*
X145216966Y-74090000D01*
X145214420Y-74131555D01*
X145207881Y-74170766D01*
X145197349Y-74207632D01*
X145182825Y-74242155D01*
X145164308Y-74274334D01*
X145157248Y-74284539D01*
X145131012Y-74315603D01*
X145101761Y-74340241D01*
X145069497Y-74358451D01*
X145034219Y-74370234D01*
X144995926Y-74375590D01*
X144982493Y-74375947D01*
X144945814Y-74372896D01*
X144906707Y-74361940D01*
X144870600Y-74343015D01*
X144841467Y-74319919D01*
X144833565Y-74312199D01*
X144809843Y-74283964D01*
X144790744Y-74252290D01*
X144776269Y-74217177D01*
X144766418Y-74178625D01*
X144761191Y-74136634D01*
X144760476Y-74121873D01*
X144760491Y-74121324D01*
X144862142Y-74121324D01*
X144865359Y-74160270D01*
X144876478Y-74197493D01*
X144897884Y-74231083D01*
X144902808Y-74236362D01*
X144932427Y-74258422D01*
X144968651Y-74269602D01*
X144982676Y-74270434D01*
X145020706Y-74264999D01*
X145054563Y-74248692D01*
X145074816Y-74231782D01*
X145098154Y-74202076D01*
X145113442Y-74166538D01*
X145120318Y-74129568D01*
X145121161Y-74116195D01*
X145121081Y-74070033D01*
X145117177Y-74030007D01*
X145106920Y-73988605D01*
X145086724Y-73951580D01*
X145057924Y-73928361D01*
X145020521Y-73918950D01*
X145013450Y-73918724D01*
X144973546Y-73924213D01*
X144938946Y-73941090D01*
X144909649Y-73969357D01*
X144895664Y-73989982D01*
X144879460Y-74023626D01*
X144868558Y-74059850D01*
X144862960Y-74098652D01*
X144862142Y-74121324D01*
X144760491Y-74121324D01*
X144761650Y-74079301D01*
X144767371Y-74038686D01*
X144777638Y-74000028D01*
X144792453Y-73963329D01*
X144811813Y-73928587D01*
X144819277Y-73917442D01*
X144843165Y-73887415D01*
X144875503Y-73858100D01*
X144911846Y-73836114D01*
X144952194Y-73821456D01*
X144988878Y-73814840D01*
X145020228Y-73813211D01*
X145057082Y-73816515D01*
G37*
G36*
X145761566Y-74048234D02*
G01*
X145761671Y-74086131D01*
X145761902Y-74125451D01*
X145762116Y-74154846D01*
X145762381Y-74192014D01*
X145762588Y-74229808D01*
X145762665Y-74261458D01*
X145764314Y-74294614D01*
X145766146Y-74327587D01*
X145752049Y-74361537D01*
X145751125Y-74362391D01*
X145716016Y-74375934D01*
X145714672Y-74375947D01*
X145679110Y-74365340D01*
X145664113Y-74342424D01*
X145626381Y-74358629D01*
X145590214Y-74368581D01*
X145551574Y-74374343D01*
X145515736Y-74375947D01*
X145475858Y-74373085D01*
X145437199Y-74363324D01*
X145403995Y-74346638D01*
X145375045Y-74320966D01*
X145355446Y-74288281D01*
X145345743Y-74252482D01*
X145339991Y-74211409D01*
X145335213Y-74171767D01*
X145331411Y-74133557D01*
X145328584Y-74096777D01*
X145326478Y-74054531D01*
X145325776Y-74014345D01*
X145326993Y-73973978D01*
X145330119Y-73935541D01*
X145335168Y-73894700D01*
X145341163Y-73856992D01*
X145358525Y-73822831D01*
X145390073Y-73813211D01*
X145425192Y-73825286D01*
X145427076Y-73826950D01*
X145442082Y-73860961D01*
X145442096Y-73862304D01*
X145439449Y-73899400D01*
X145434586Y-73935943D01*
X145429842Y-73973061D01*
X145427287Y-74009649D01*
X145427259Y-74013063D01*
X145427614Y-74053340D01*
X145428678Y-74090641D01*
X145430725Y-74129046D01*
X145432937Y-74156311D01*
X145437491Y-74194471D01*
X145444547Y-74232424D01*
X145449790Y-74251933D01*
X145483312Y-74265671D01*
X145515736Y-74270434D01*
X145555190Y-74268724D01*
X145595862Y-74263595D01*
X145633037Y-74256164D01*
X145661549Y-74248818D01*
X145661182Y-74146420D01*
X145660083Y-74048600D01*
X145660425Y-74008801D01*
X145661449Y-73971011D01*
X145663506Y-73929463D01*
X145666492Y-73890649D01*
X145669792Y-73859556D01*
X145685133Y-73824798D01*
X145719801Y-73813211D01*
X145754920Y-73825447D01*
X145756803Y-73827133D01*
X145770908Y-73861571D01*
X145761566Y-74048234D01*
G37*
G36*
X145968562Y-73792512D02*
G01*
X145982301Y-73827683D01*
X145980835Y-73844719D01*
X145977172Y-73874028D01*
X146009981Y-73853360D01*
X146044537Y-73835795D01*
X146062718Y-73828415D01*
X146098080Y-73818022D01*
X146136778Y-73813271D01*
X146141486Y-73813211D01*
X146179126Y-73816586D01*
X146217992Y-73829053D01*
X146251424Y-73850706D01*
X146279421Y-73881546D01*
X146296092Y-73909199D01*
X146311152Y-73944798D01*
X146322513Y-73985078D01*
X146329308Y-74023330D01*
X146333384Y-74065020D01*
X146334705Y-74102389D01*
X146334743Y-74110150D01*
X146332644Y-74151466D01*
X146326345Y-74189963D01*
X146315848Y-74225638D01*
X146298294Y-74263694D01*
X146275026Y-74297911D01*
X146245272Y-74328318D01*
X146211468Y-74351256D01*
X146173615Y-74366726D01*
X146131711Y-74374728D01*
X146105949Y-74375947D01*
X146069348Y-74373999D01*
X146030323Y-74368154D01*
X145992742Y-74359460D01*
X145991643Y-74605840D01*
X145979085Y-74641003D01*
X145977355Y-74642843D01*
X145942462Y-74657300D01*
X145941085Y-74657315D01*
X145906631Y-74644435D01*
X145904815Y-74642660D01*
X145890765Y-74607777D01*
X145890710Y-74604924D01*
X145892175Y-74395547D01*
X145892175Y-74186720D01*
X145891458Y-74144495D01*
X145890406Y-74103687D01*
X145889019Y-74064295D01*
X145887298Y-74026321D01*
X145885586Y-73996393D01*
X145987063Y-73996393D01*
X145988963Y-74034131D01*
X145990541Y-74072468D01*
X145991797Y-74111404D01*
X145992731Y-74150939D01*
X145993342Y-74191074D01*
X145993632Y-74231808D01*
X145993658Y-74248269D01*
X146028788Y-74259957D01*
X146067390Y-74267815D01*
X146105949Y-74270434D01*
X146143279Y-74265640D01*
X146177483Y-74249291D01*
X146204501Y-74221341D01*
X146222361Y-74185638D01*
X146231491Y-74146664D01*
X146233810Y-74110333D01*
X146232714Y-74070644D01*
X146228778Y-74030930D01*
X146220930Y-73993451D01*
X146210912Y-73966535D01*
X146188438Y-73935579D01*
X146152889Y-73919471D01*
X146141669Y-73918724D01*
X146104663Y-73922292D01*
X146068258Y-73934113D01*
X146056123Y-73940340D01*
X146025211Y-73962047D01*
X145997279Y-73986622D01*
X145987063Y-73996393D01*
X145885586Y-73996393D01*
X145884866Y-73983808D01*
X145884481Y-73977892D01*
X145876788Y-73871646D01*
X145881019Y-73833612D01*
X145890160Y-73808998D01*
X145916430Y-73781698D01*
X145935040Y-73778040D01*
X145968562Y-73792512D01*
G37*
G36*
X147091051Y-73568872D02*
G01*
X147092018Y-73569762D01*
X147108089Y-73602786D01*
X147108138Y-73604017D01*
X147090134Y-73637564D01*
X147065147Y-73664870D01*
X147055565Y-73674359D01*
X146950418Y-73775293D01*
X146925478Y-73805432D01*
X146905019Y-73839654D01*
X146888416Y-73875718D01*
X146878794Y-73900956D01*
X146913354Y-73885891D01*
X146948498Y-73872866D01*
X146957013Y-73870181D01*
X146992687Y-73861769D01*
X147012334Y-73860106D01*
X147055557Y-73862321D01*
X147094826Y-73868967D01*
X147130141Y-73880044D01*
X147166344Y-73898567D01*
X147197165Y-73923121D01*
X147222289Y-73953090D01*
X147241243Y-73988021D01*
X147254025Y-74027913D01*
X147260070Y-74066055D01*
X147261645Y-74100624D01*
X147259197Y-74144197D01*
X147251856Y-74184653D01*
X147239620Y-74221992D01*
X147222489Y-74256214D01*
X147200465Y-74287320D01*
X147192035Y-74296995D01*
X147163107Y-74323826D01*
X147130727Y-74345106D01*
X147094895Y-74360835D01*
X147055611Y-74371012D01*
X147012875Y-74375638D01*
X146997862Y-74375947D01*
X146957580Y-74373594D01*
X146920768Y-74366537D01*
X146881175Y-74351858D01*
X146846580Y-74330405D01*
X146816981Y-74302176D01*
X146800026Y-74279593D01*
X146779541Y-74242438D01*
X146765987Y-74206559D01*
X146756129Y-74166957D01*
X146749968Y-74123633D01*
X146747658Y-74084687D01*
X146747452Y-74068384D01*
X146747582Y-74065087D01*
X146848019Y-74065087D01*
X146849954Y-74105284D01*
X146855759Y-74141611D01*
X146866915Y-74177854D01*
X146878977Y-74202657D01*
X146901302Y-74232309D01*
X146932933Y-74255541D01*
X146971460Y-74268051D01*
X147000976Y-74270434D01*
X147037704Y-74267251D01*
X147073768Y-74256062D01*
X147107314Y-74234180D01*
X147121510Y-74219509D01*
X147142473Y-74187098D01*
X147155671Y-74148712D01*
X147160911Y-74109056D01*
X147161261Y-74094762D01*
X147157290Y-74057514D01*
X147142040Y-74021175D01*
X147120594Y-73997859D01*
X147087766Y-73979503D01*
X147049469Y-73969428D01*
X147008120Y-73965745D01*
X146998046Y-73965619D01*
X146961010Y-73968319D01*
X146925220Y-73977203D01*
X146918545Y-73979724D01*
X146885944Y-73996554D01*
X146851133Y-74015994D01*
X146848214Y-74052951D01*
X146848019Y-74065087D01*
X146747582Y-74065087D01*
X146749268Y-74022287D01*
X146754717Y-73977348D01*
X146763797Y-73933569D01*
X146776510Y-73890949D01*
X146792854Y-73849489D01*
X146812831Y-73809187D01*
X146836440Y-73770045D01*
X146863681Y-73732062D01*
X146894555Y-73695238D01*
X146929060Y-73659573D01*
X146954082Y-73636441D01*
X147002442Y-73588630D01*
X147031934Y-73564700D01*
X147056114Y-73555291D01*
X147091051Y-73568872D01*
G37*
G36*
X147806775Y-73551942D02*
G01*
X147826799Y-73585241D01*
X147827311Y-73594309D01*
X147827311Y-74024237D01*
X147848377Y-74023688D01*
X147885350Y-74026265D01*
X147922416Y-74038887D01*
X147942895Y-74071022D01*
X147943265Y-74077543D01*
X147930862Y-74112487D01*
X147904064Y-74127002D01*
X147865925Y-74130308D01*
X147827311Y-74129750D01*
X147827311Y-74317145D01*
X147815587Y-74352454D01*
X147780416Y-74364223D01*
X147745073Y-74352221D01*
X147727747Y-74316214D01*
X147725828Y-74291500D01*
X147726927Y-74266038D01*
X147728026Y-74243506D01*
X147727477Y-74129750D01*
X147500148Y-74123339D01*
X147460291Y-74122820D01*
X147423609Y-74120828D01*
X147402329Y-74118026D01*
X147367158Y-74104791D01*
X147355434Y-74080840D01*
X147367662Y-74044622D01*
X147381795Y-74024237D01*
X147512604Y-74024237D01*
X147727477Y-74024237D01*
X147727477Y-73690113D01*
X147702212Y-73730962D01*
X147678007Y-73769840D01*
X147654861Y-73806748D01*
X147632775Y-73841685D01*
X147611747Y-73874651D01*
X147591780Y-73905647D01*
X147566804Y-73943909D01*
X147543712Y-73978668D01*
X147522502Y-74009923D01*
X147512604Y-74024237D01*
X147381795Y-74024237D01*
X147383827Y-74021306D01*
X147428157Y-73967817D01*
X147681498Y-73592294D01*
X147707465Y-73564552D01*
X147740730Y-73547422D01*
X147769059Y-73543567D01*
X147806775Y-73551942D01*
G37*
G36*
X143765797Y-74825000D02*
G01*
X143803802Y-74831278D01*
X143841884Y-74841382D01*
X143878733Y-74856298D01*
X143884865Y-74859438D01*
X143922152Y-74880611D01*
X143955772Y-74902642D01*
X143985724Y-74925528D01*
X144019954Y-74957376D01*
X144047665Y-74990747D01*
X144068855Y-75025640D01*
X144083526Y-75062056D01*
X144091676Y-75099995D01*
X144093510Y-75129448D01*
X144089067Y-75167436D01*
X144075741Y-75203179D01*
X144053530Y-75236678D01*
X144026808Y-75264150D01*
X144022435Y-75267934D01*
X143992084Y-75290591D01*
X143958184Y-75310386D01*
X143920735Y-75327319D01*
X143885055Y-75339788D01*
X143879736Y-75341390D01*
X143918542Y-75363149D01*
X143954818Y-75385193D01*
X143988563Y-75407524D01*
X144019779Y-75430142D01*
X144048464Y-75453045D01*
X144080762Y-75482077D01*
X144109107Y-75511556D01*
X144119338Y-75523473D01*
X144132711Y-75558644D01*
X144119772Y-75593490D01*
X144116957Y-75596563D01*
X144082750Y-75612437D01*
X144080137Y-75612500D01*
X144045640Y-75597849D01*
X144043501Y-75595830D01*
X144011189Y-75564834D01*
X143978208Y-75535798D01*
X143944557Y-75508724D01*
X143910236Y-75483611D01*
X143875245Y-75460459D01*
X143839585Y-75439267D01*
X143803255Y-75420037D01*
X143766255Y-75402767D01*
X143728585Y-75387459D01*
X143690246Y-75374112D01*
X143664314Y-75366303D01*
X143668527Y-75468152D01*
X143671092Y-75570734D01*
X143659056Y-75606068D01*
X143656437Y-75609019D01*
X143622359Y-75624164D01*
X143619617Y-75624223D01*
X143584477Y-75610860D01*
X143582615Y-75609019D01*
X143568089Y-75575293D01*
X143567960Y-75571100D01*
X143567325Y-75531498D01*
X143565973Y-75492107D01*
X143564350Y-75455004D01*
X143564113Y-75450017D01*
X143562430Y-75412213D01*
X143561003Y-75371977D01*
X143560281Y-75333990D01*
X143560266Y-75328750D01*
X143561479Y-75290678D01*
X143563685Y-75259691D01*
X143666878Y-75259691D01*
X143689227Y-75260240D01*
X143712308Y-75260790D01*
X143751742Y-75259909D01*
X143794813Y-75256526D01*
X143833246Y-75250605D01*
X143872226Y-75240491D01*
X143909045Y-75224703D01*
X143940273Y-75203116D01*
X143962718Y-75181838D01*
X143984787Y-75151351D01*
X143990012Y-75131646D01*
X143983578Y-75091021D01*
X143967057Y-75056248D01*
X143944262Y-75026855D01*
X143913683Y-74998426D01*
X143908679Y-74994443D01*
X143875630Y-74971316D01*
X143841880Y-74952904D01*
X143807429Y-74939209D01*
X143767198Y-74929331D01*
X143751875Y-74927215D01*
X143675671Y-74920804D01*
X143680800Y-74984918D01*
X143683659Y-75022536D01*
X143684464Y-75049031D01*
X143683345Y-75086828D01*
X143680651Y-75124147D01*
X143677686Y-75154361D01*
X143666878Y-75259691D01*
X143563685Y-75259691D01*
X143564274Y-75251413D01*
X143568120Y-75210380D01*
X143570525Y-75187700D01*
X143574593Y-75148911D01*
X143578019Y-75110077D01*
X143580313Y-75073394D01*
X143580966Y-75047016D01*
X143579401Y-75009548D01*
X143576324Y-74972539D01*
X143576020Y-74969347D01*
X143572818Y-74931578D01*
X143571093Y-74894868D01*
X143571074Y-74891495D01*
X143578867Y-74854571D01*
X143587561Y-74840020D01*
X143617857Y-74817566D01*
X143641599Y-74815291D01*
X143765797Y-74825000D01*
G37*
G36*
X144498480Y-75075032D02*
G01*
X144535345Y-75080493D01*
X144572111Y-75090988D01*
X144597260Y-75102337D01*
X144629404Y-75125679D01*
X144652781Y-75158752D01*
X144662717Y-75194942D01*
X144663756Y-75212979D01*
X144655564Y-75250795D01*
X144633663Y-75283106D01*
X144605504Y-75307868D01*
X144571984Y-75326581D01*
X144538735Y-75342462D01*
X144501491Y-75359109D01*
X144496327Y-75361357D01*
X144299590Y-75447819D01*
X144325403Y-75477832D01*
X144355812Y-75501195D01*
X144371397Y-75509734D01*
X144408701Y-75523136D01*
X144447268Y-75529443D01*
X144471598Y-75530434D01*
X144510249Y-75527228D01*
X144546239Y-75519903D01*
X144555129Y-75517611D01*
X144591810Y-75505212D01*
X144623656Y-75485988D01*
X144633347Y-75474930D01*
X144661168Y-75450028D01*
X144671083Y-75448368D01*
X144703140Y-75462657D01*
X144717428Y-75495996D01*
X144708430Y-75531806D01*
X144684945Y-75561251D01*
X144651832Y-75585211D01*
X144625287Y-75599127D01*
X144590956Y-75613474D01*
X144552236Y-75625555D01*
X144514066Y-75633034D01*
X144476445Y-75635911D01*
X144471781Y-75635947D01*
X144429650Y-75633899D01*
X144390637Y-75627755D01*
X144354740Y-75617516D01*
X144316800Y-75600393D01*
X144283103Y-75577695D01*
X144256334Y-75551699D01*
X144232104Y-75516779D01*
X144217335Y-75482914D01*
X144208104Y-75445416D01*
X144204412Y-75404285D01*
X144204335Y-75397077D01*
X144205776Y-75359891D01*
X144290797Y-75359891D01*
X144448883Y-75290099D01*
X144487116Y-75272264D01*
X144520230Y-75255462D01*
X144555282Y-75235381D01*
X144581873Y-75217009D01*
X144550696Y-75196820D01*
X144512579Y-75184108D01*
X144472339Y-75179061D01*
X144457676Y-75178724D01*
X144420463Y-75183143D01*
X144384282Y-75198210D01*
X144355710Y-75221187D01*
X144353079Y-75223970D01*
X144329050Y-75256607D01*
X144310973Y-75293627D01*
X144297727Y-75332616D01*
X144290797Y-75359891D01*
X144205776Y-75359891D01*
X144205918Y-75356234D01*
X144210667Y-75317511D01*
X144218583Y-75280908D01*
X144232262Y-75239782D01*
X144250500Y-75201709D01*
X144269181Y-75172313D01*
X144292379Y-75143763D01*
X144323274Y-75115891D01*
X144357504Y-75094987D01*
X144395071Y-75081050D01*
X144435973Y-75074082D01*
X144457676Y-75073211D01*
X144498480Y-75075032D01*
G37*
G36*
X145039096Y-75635947D02*
G01*
X145000696Y-75633770D01*
X144959022Y-75625728D01*
X144920714Y-75611761D01*
X144885772Y-75591868D01*
X144862875Y-75574031D01*
X144833967Y-75543600D01*
X144812160Y-75509206D01*
X144797452Y-75470851D01*
X144790497Y-75434821D01*
X144788686Y-75402573D01*
X144791133Y-75364291D01*
X144798475Y-75325559D01*
X144810711Y-75286376D01*
X144827841Y-75246742D01*
X144845855Y-75213369D01*
X144858295Y-75193196D01*
X144882931Y-75158630D01*
X144908523Y-75129923D01*
X144940498Y-75103207D01*
X144973851Y-75084929D01*
X145014504Y-75074266D01*
X145032501Y-75073211D01*
X145071983Y-75076637D01*
X145111161Y-75085797D01*
X145145341Y-75097575D01*
X145179803Y-75114107D01*
X145209033Y-75137219D01*
X145224033Y-75171330D01*
X145224110Y-75174145D01*
X145211904Y-75209059D01*
X145211104Y-75210048D01*
X145179230Y-75225619D01*
X145153218Y-75217376D01*
X145131969Y-75201072D01*
X145097964Y-75185795D01*
X145060865Y-75179794D01*
X145032501Y-75178724D01*
X144996487Y-75188811D01*
X144967214Y-75212069D01*
X144941340Y-75244080D01*
X144928454Y-75264087D01*
X144910181Y-75297309D01*
X144894794Y-75332829D01*
X144884490Y-75369669D01*
X144881559Y-75399642D01*
X144887035Y-75439092D01*
X144903464Y-75472308D01*
X144927904Y-75497095D01*
X144960548Y-75516076D01*
X144999035Y-75527178D01*
X145039096Y-75530434D01*
X145077279Y-75524428D01*
X145105041Y-75513398D01*
X145164759Y-75480425D01*
X145186924Y-75471816D01*
X145219897Y-75488119D01*
X145233764Y-75522691D01*
X145233818Y-75525305D01*
X145218636Y-75559916D01*
X145189202Y-75584038D01*
X145154501Y-75602974D01*
X145117229Y-75618913D01*
X145080235Y-75630505D01*
X145041981Y-75635915D01*
X145039096Y-75635947D01*
G37*
G36*
X145612960Y-75075032D02*
G01*
X145649825Y-75080493D01*
X145686591Y-75090988D01*
X145711741Y-75102337D01*
X145743884Y-75125679D01*
X145767261Y-75158752D01*
X145777197Y-75194942D01*
X145778236Y-75212979D01*
X145770044Y-75250795D01*
X145748143Y-75283106D01*
X145719984Y-75307868D01*
X145686464Y-75326581D01*
X145653215Y-75342462D01*
X145615971Y-75359109D01*
X145610807Y-75361357D01*
X145414070Y-75447819D01*
X145439883Y-75477832D01*
X145470292Y-75501195D01*
X145485877Y-75509734D01*
X145523181Y-75523136D01*
X145561748Y-75529443D01*
X145586078Y-75530434D01*
X145624729Y-75527228D01*
X145660719Y-75519903D01*
X145669609Y-75517611D01*
X145706290Y-75505212D01*
X145738137Y-75485988D01*
X145747827Y-75474930D01*
X145775648Y-75450028D01*
X145785563Y-75448368D01*
X145817620Y-75462657D01*
X145831908Y-75495996D01*
X145822910Y-75531806D01*
X145799425Y-75561251D01*
X145766312Y-75585211D01*
X145739767Y-75599127D01*
X145705437Y-75613474D01*
X145666716Y-75625555D01*
X145628546Y-75633034D01*
X145590925Y-75635911D01*
X145586261Y-75635947D01*
X145544130Y-75633899D01*
X145505117Y-75627755D01*
X145469220Y-75617516D01*
X145431281Y-75600393D01*
X145397583Y-75577695D01*
X145370814Y-75551699D01*
X145346584Y-75516779D01*
X145331815Y-75482914D01*
X145322584Y-75445416D01*
X145318892Y-75404285D01*
X145318815Y-75397077D01*
X145320256Y-75359891D01*
X145405277Y-75359891D01*
X145563363Y-75290099D01*
X145601596Y-75272264D01*
X145634710Y-75255462D01*
X145669763Y-75235381D01*
X145696353Y-75217009D01*
X145665177Y-75196820D01*
X145627059Y-75184108D01*
X145586819Y-75179061D01*
X145572156Y-75178724D01*
X145534943Y-75183143D01*
X145498762Y-75198210D01*
X145470190Y-75221187D01*
X145467559Y-75223970D01*
X145443530Y-75256607D01*
X145425453Y-75293627D01*
X145412207Y-75332616D01*
X145405277Y-75359891D01*
X145320256Y-75359891D01*
X145320398Y-75356234D01*
X145325148Y-75317511D01*
X145333063Y-75280908D01*
X145346742Y-75239782D01*
X145364980Y-75201709D01*
X145383661Y-75172313D01*
X145406859Y-75143763D01*
X145437754Y-75115891D01*
X145471984Y-75094987D01*
X145509551Y-75081050D01*
X145550454Y-75074082D01*
X145572156Y-75073211D01*
X145612960Y-75075032D01*
G37*
G36*
X146019120Y-74944251D02*
G01*
X145983288Y-74934093D01*
X145976256Y-74928864D01*
X145958462Y-74895527D01*
X145958304Y-74891495D01*
X145973047Y-74857250D01*
X145976256Y-74854309D01*
X146010078Y-74839286D01*
X146019120Y-74838738D01*
X146054711Y-74849017D01*
X146061618Y-74854309D01*
X146079231Y-74887464D01*
X146079387Y-74891495D01*
X146064794Y-74925890D01*
X146061618Y-74928864D01*
X146026678Y-74943875D01*
X146019120Y-74944251D01*
G37*
G36*
X146042384Y-75371981D02*
G01*
X146042797Y-75411137D01*
X146043647Y-75450781D01*
X146044033Y-75465954D01*
X146045076Y-75505345D01*
X146045750Y-75542409D01*
X146045865Y-75560109D01*
X146034431Y-75595023D01*
X146031943Y-75597845D01*
X145998112Y-75612442D01*
X145995307Y-75612500D01*
X145960853Y-75599620D01*
X145959036Y-75597845D01*
X145944987Y-75562962D01*
X145944931Y-75560109D01*
X145944474Y-75520817D01*
X145943529Y-75481129D01*
X145943100Y-75465954D01*
X145942057Y-75426584D01*
X145941382Y-75389601D01*
X145941268Y-75371981D01*
X145941874Y-75335225D01*
X145943477Y-75296814D01*
X145945776Y-75258176D01*
X145946397Y-75249066D01*
X145948965Y-75209571D01*
X145950832Y-75170209D01*
X145951688Y-75132406D01*
X145951709Y-75126151D01*
X145963294Y-75090692D01*
X145965814Y-75087866D01*
X146000718Y-75073226D01*
X146002084Y-75073211D01*
X146036560Y-75086091D01*
X146038354Y-75087866D01*
X146052517Y-75121799D01*
X146052643Y-75126151D01*
X146052036Y-75162907D01*
X146050434Y-75201318D01*
X146048135Y-75239956D01*
X146047513Y-75249066D01*
X146045034Y-75288561D01*
X146043231Y-75327924D01*
X146042404Y-75365727D01*
X146042384Y-75371981D01*
G37*
G36*
X146452163Y-75585938D02*
G01*
X146439706Y-75621521D01*
X146405268Y-75633382D01*
X146369365Y-75619356D01*
X146350497Y-75589052D01*
X146271728Y-75380408D01*
X146180137Y-75144652D01*
X146174825Y-75121938D01*
X146189781Y-75088398D01*
X146190762Y-75087500D01*
X146225334Y-75073267D01*
X146227948Y-75073211D01*
X146262203Y-75086545D01*
X146272278Y-75101421D01*
X146403070Y-75460642D01*
X146418273Y-75427196D01*
X146434892Y-75388548D01*
X146449824Y-75352366D01*
X146465740Y-75312570D01*
X146479181Y-75278132D01*
X146493251Y-75241381D01*
X146500523Y-75222138D01*
X146513205Y-75186572D01*
X146527198Y-75149614D01*
X146540633Y-75115256D01*
X146544303Y-75106001D01*
X146569448Y-75077822D01*
X146589549Y-75073211D01*
X146624723Y-75086413D01*
X146626735Y-75088232D01*
X146642657Y-75122310D01*
X146642672Y-75123586D01*
X146630720Y-75163600D01*
X146615779Y-75202695D01*
X146598763Y-75244995D01*
X146582162Y-75285198D01*
X146567968Y-75319062D01*
X146557676Y-75343405D01*
X146452163Y-75585938D01*
G37*
G36*
X146992687Y-75075032D02*
G01*
X147029553Y-75080493D01*
X147066319Y-75090988D01*
X147091468Y-75102337D01*
X147123612Y-75125679D01*
X147146989Y-75158752D01*
X147156925Y-75194942D01*
X147157964Y-75212979D01*
X147149772Y-75250795D01*
X147127871Y-75283106D01*
X147099712Y-75307868D01*
X147066192Y-75326581D01*
X147032942Y-75342462D01*
X146995699Y-75359109D01*
X146990535Y-75361357D01*
X146793797Y-75447819D01*
X146819611Y-75477832D01*
X146850020Y-75501195D01*
X146865605Y-75509734D01*
X146902909Y-75523136D01*
X146941476Y-75529443D01*
X146965806Y-75530434D01*
X147004457Y-75527228D01*
X147040447Y-75519903D01*
X147049337Y-75517611D01*
X147086018Y-75505212D01*
X147117864Y-75485988D01*
X147127555Y-75474930D01*
X147155376Y-75450028D01*
X147165291Y-75448368D01*
X147197348Y-75462657D01*
X147211636Y-75495996D01*
X147202638Y-75531806D01*
X147179153Y-75561251D01*
X147146040Y-75585211D01*
X147119495Y-75599127D01*
X147085164Y-75613474D01*
X147046444Y-75625555D01*
X147008274Y-75633034D01*
X146970653Y-75635911D01*
X146965989Y-75635947D01*
X146923858Y-75633899D01*
X146884845Y-75627755D01*
X146848948Y-75617516D01*
X146811008Y-75600393D01*
X146777311Y-75577695D01*
X146750542Y-75551699D01*
X146726312Y-75516779D01*
X146711543Y-75482914D01*
X146702312Y-75445416D01*
X146698620Y-75404285D01*
X146698543Y-75397077D01*
X146699984Y-75359891D01*
X146785005Y-75359891D01*
X146943091Y-75290099D01*
X146981324Y-75272264D01*
X147014437Y-75255462D01*
X147049490Y-75235381D01*
X147076081Y-75217009D01*
X147044904Y-75196820D01*
X147006787Y-75184108D01*
X146966546Y-75179061D01*
X146951884Y-75178724D01*
X146914671Y-75183143D01*
X146878490Y-75198210D01*
X146849918Y-75221187D01*
X146847287Y-75223970D01*
X146823258Y-75256607D01*
X146805181Y-75293627D01*
X146791935Y-75332616D01*
X146785005Y-75359891D01*
X146699984Y-75359891D01*
X146700126Y-75356234D01*
X146704875Y-75317511D01*
X146712791Y-75280908D01*
X146726470Y-75239782D01*
X146744708Y-75201709D01*
X146763389Y-75172313D01*
X146786587Y-75143763D01*
X146817481Y-75115891D01*
X146851712Y-75094987D01*
X146889279Y-75081050D01*
X146930181Y-75074082D01*
X146951884Y-75073211D01*
X146992687Y-75075032D01*
G37*
G36*
X147701282Y-75221039D02*
G01*
X147693546Y-75257020D01*
X147666185Y-75282015D01*
X147649808Y-75284237D01*
X147615218Y-75270020D01*
X147605478Y-75233862D01*
X147603829Y-75198142D01*
X147602363Y-75155277D01*
X147563712Y-75161780D01*
X147525046Y-75173037D01*
X147491481Y-75188467D01*
X147471938Y-75201072D01*
X147442272Y-75228123D01*
X147418458Y-75259665D01*
X147399595Y-75293712D01*
X147395734Y-75302006D01*
X147396833Y-75583923D01*
X147387086Y-75619486D01*
X147352075Y-75635744D01*
X147345908Y-75635947D01*
X147310461Y-75621368D01*
X147300479Y-75584289D01*
X147300479Y-75225985D01*
X147301326Y-75187474D01*
X147301762Y-75175427D01*
X147302892Y-75138446D01*
X147303044Y-75124869D01*
X147313026Y-75087790D01*
X147348473Y-75073211D01*
X147383014Y-75088744D01*
X147396773Y-75122741D01*
X147399398Y-75154361D01*
X147430837Y-75127605D01*
X147463332Y-75105385D01*
X147496883Y-75087699D01*
X147531489Y-75074548D01*
X147567151Y-75065932D01*
X147603868Y-75061850D01*
X147618850Y-75061488D01*
X147655303Y-75069227D01*
X147681132Y-75092445D01*
X147695989Y-75128220D01*
X147701326Y-75166808D01*
X147701831Y-75185502D01*
X147701282Y-75221039D01*
G37*
G36*
X148386868Y-74818210D02*
G01*
X148425487Y-74826967D01*
X148463404Y-74841561D01*
X148500620Y-74861994D01*
X148521571Y-74876290D01*
X148554317Y-74903766D01*
X148580287Y-74933572D01*
X148599482Y-74965710D01*
X148611903Y-75000179D01*
X148617549Y-75036979D01*
X148617925Y-75049764D01*
X148615412Y-75089229D01*
X148607872Y-75125992D01*
X148592188Y-75166543D01*
X148569266Y-75203203D01*
X148544635Y-75230783D01*
X148514977Y-75255661D01*
X148551190Y-75272239D01*
X148586099Y-75291984D01*
X148617648Y-75315282D01*
X148630565Y-75327468D01*
X148654006Y-75357985D01*
X148667192Y-75393254D01*
X148669033Y-75413197D01*
X148662432Y-75451025D01*
X148645203Y-75484367D01*
X148620912Y-75513444D01*
X148601439Y-75531350D01*
X148571682Y-75554613D01*
X148537917Y-75575491D01*
X148503070Y-75591434D01*
X148465265Y-75604257D01*
X148424320Y-75614907D01*
X148380235Y-75623384D01*
X148342707Y-75628600D01*
X148303170Y-75632426D01*
X148261623Y-75634860D01*
X148218067Y-75635903D01*
X148206864Y-75635947D01*
X148172297Y-75622403D01*
X148164733Y-75615430D01*
X148145896Y-75582591D01*
X148144949Y-75573115D01*
X148144949Y-75530434D01*
X148246981Y-75530434D01*
X148287950Y-75528323D01*
X148326476Y-75524853D01*
X148369484Y-75518893D01*
X148408977Y-75510977D01*
X148444953Y-75501102D01*
X148466983Y-75493431D01*
X148500090Y-75477594D01*
X148531748Y-75455156D01*
X148535860Y-75451666D01*
X148562167Y-75425362D01*
X148567367Y-75412648D01*
X148544119Y-75382738D01*
X148509407Y-75363532D01*
X148501421Y-75359891D01*
X148464688Y-75344616D01*
X148428675Y-75332586D01*
X148405068Y-75326369D01*
X148350479Y-75317759D01*
X148330146Y-75318675D01*
X148309263Y-75319408D01*
X148271220Y-75317357D01*
X148250095Y-75314645D01*
X148248453Y-75352784D01*
X148247349Y-75391597D01*
X148246981Y-75427119D01*
X148246981Y-75530434D01*
X148144949Y-75530434D01*
X148144949Y-75425654D01*
X148145533Y-75385525D01*
X148147002Y-75344083D01*
X148148972Y-75303859D01*
X148151116Y-75267023D01*
X148153716Y-75227173D01*
X148154291Y-75218841D01*
X148155009Y-75208400D01*
X148257240Y-75208400D01*
X148296302Y-75211455D01*
X148333254Y-75213889D01*
X148335642Y-75213895D01*
X148372713Y-75208663D01*
X148410203Y-75197494D01*
X148443231Y-75180733D01*
X148462770Y-75166451D01*
X148488449Y-75139075D01*
X148507125Y-75103898D01*
X148515063Y-75067956D01*
X148515893Y-75050680D01*
X148506944Y-75012864D01*
X148485393Y-74982708D01*
X148461671Y-74961837D01*
X148430781Y-74942001D01*
X148395304Y-74927576D01*
X148358610Y-74921164D01*
X148347365Y-74920804D01*
X148310013Y-74921293D01*
X148273149Y-74923662D01*
X148268597Y-74924284D01*
X148267498Y-75012761D01*
X148257240Y-75208400D01*
X148155009Y-75208400D01*
X148157273Y-75175462D01*
X148159808Y-75136001D01*
X148162260Y-75093819D01*
X148164306Y-75051737D01*
X148165571Y-75013046D01*
X148165648Y-75008914D01*
X148166072Y-74971432D01*
X148167609Y-74932779D01*
X148169876Y-74892388D01*
X148171327Y-74870062D01*
X148187537Y-74837072D01*
X148188363Y-74836540D01*
X148224553Y-74827243D01*
X148263147Y-74820603D01*
X148304146Y-74816619D01*
X148341992Y-74815312D01*
X148347548Y-74815291D01*
X148386868Y-74818210D01*
G37*
G36*
X149047522Y-75076515D02*
G01*
X149086090Y-75088720D01*
X149119890Y-75109919D01*
X149148922Y-75140112D01*
X149166739Y-75167184D01*
X149183148Y-75201915D01*
X149195350Y-75239592D01*
X149203344Y-75280214D01*
X149206847Y-75317377D01*
X149207405Y-75350000D01*
X149204859Y-75391555D01*
X149198321Y-75430766D01*
X149187789Y-75467632D01*
X149173265Y-75502155D01*
X149154748Y-75534334D01*
X149147688Y-75544539D01*
X149121451Y-75575603D01*
X149092201Y-75600241D01*
X149059937Y-75618451D01*
X149024658Y-75630234D01*
X148986366Y-75635590D01*
X148972932Y-75635947D01*
X148936253Y-75632896D01*
X148897147Y-75621940D01*
X148861040Y-75603015D01*
X148831907Y-75579919D01*
X148824005Y-75572199D01*
X148800282Y-75543964D01*
X148781183Y-75512290D01*
X148766708Y-75477177D01*
X148756857Y-75438625D01*
X148751630Y-75396634D01*
X148750915Y-75381873D01*
X148750930Y-75381324D01*
X148852581Y-75381324D01*
X148855798Y-75420270D01*
X148866918Y-75457493D01*
X148888323Y-75491083D01*
X148893248Y-75496362D01*
X148922866Y-75518422D01*
X148959090Y-75529602D01*
X148973115Y-75530434D01*
X149011146Y-75524999D01*
X149045003Y-75508692D01*
X149065256Y-75491782D01*
X149088594Y-75462076D01*
X149103882Y-75426538D01*
X149110758Y-75389568D01*
X149111601Y-75376195D01*
X149111521Y-75330033D01*
X149107617Y-75290007D01*
X149097359Y-75248605D01*
X149077164Y-75211580D01*
X149048364Y-75188361D01*
X149010960Y-75178950D01*
X149003890Y-75178724D01*
X148963986Y-75184213D01*
X148929386Y-75201090D01*
X148900088Y-75229357D01*
X148886104Y-75249982D01*
X148869899Y-75283626D01*
X148858998Y-75319850D01*
X148853400Y-75358652D01*
X148852581Y-75381324D01*
X148750930Y-75381324D01*
X148752090Y-75339301D01*
X148757811Y-75298686D01*
X148768078Y-75260028D01*
X148782892Y-75223329D01*
X148802253Y-75188587D01*
X148809717Y-75177442D01*
X148833605Y-75147415D01*
X148865942Y-75118100D01*
X148902285Y-75096114D01*
X148942634Y-75081456D01*
X148979318Y-75074840D01*
X149010668Y-75073211D01*
X149047522Y-75076515D01*
G37*
G36*
X149615132Y-75077051D02*
G01*
X149653605Y-75087411D01*
X149677451Y-75096475D01*
X149711277Y-75113712D01*
X149739158Y-75139670D01*
X149747426Y-75166451D01*
X149736985Y-75191181D01*
X149731200Y-75228033D01*
X149728925Y-75256027D01*
X149727199Y-75293267D01*
X149726205Y-75333695D01*
X149725811Y-75371249D01*
X149726433Y-75408787D01*
X149729731Y-75446843D01*
X149734603Y-75472732D01*
X149746309Y-75509739D01*
X149760550Y-75547404D01*
X149767027Y-75563773D01*
X149778750Y-75591250D01*
X149781864Y-75600043D01*
X149767393Y-75634115D01*
X149733871Y-75647670D01*
X149703035Y-75626006D01*
X149698333Y-75621292D01*
X149674062Y-75592527D01*
X149663895Y-75577329D01*
X149631277Y-75595560D01*
X149596301Y-75612809D01*
X149576700Y-75621109D01*
X149540265Y-75632687D01*
X149513869Y-75635947D01*
X149470968Y-75633570D01*
X149432665Y-75626441D01*
X149393790Y-75612117D01*
X149361173Y-75591324D01*
X149338197Y-75568353D01*
X149317926Y-75537309D01*
X149302634Y-75499796D01*
X149293489Y-75462493D01*
X149288003Y-75420438D01*
X149286224Y-75381761D01*
X149286188Y-75375828D01*
X149387840Y-75375828D01*
X149390202Y-75416254D01*
X149398366Y-75453999D01*
X149415861Y-75489329D01*
X149417698Y-75491782D01*
X149446917Y-75516808D01*
X149482689Y-75528584D01*
X149507458Y-75530434D01*
X149545164Y-75527713D01*
X149582511Y-75517812D01*
X149591355Y-75513948D01*
X149623894Y-75493121D01*
X149643379Y-75478044D01*
X149638629Y-75440537D01*
X149633992Y-75399579D01*
X149630515Y-75363038D01*
X149627923Y-75325991D01*
X149626892Y-75291015D01*
X149628849Y-75254225D01*
X149629640Y-75246868D01*
X149635410Y-75209396D01*
X149638066Y-75196127D01*
X149605460Y-75182937D01*
X149583661Y-75178724D01*
X149545090Y-75182457D01*
X149509244Y-75193654D01*
X149476122Y-75212315D01*
X149445725Y-75238442D01*
X149420400Y-75269354D01*
X149402311Y-75302555D01*
X149391458Y-75338047D01*
X149387840Y-75375828D01*
X149286188Y-75375828D01*
X149286174Y-75373630D01*
X149288267Y-75335699D01*
X149294546Y-75299531D01*
X149307606Y-75258454D01*
X149326694Y-75219915D01*
X149351810Y-75183913D01*
X149371903Y-75161322D01*
X149399560Y-75135938D01*
X149434885Y-75111157D01*
X149472542Y-75092572D01*
X149512530Y-75080181D01*
X149554850Y-75073986D01*
X149576884Y-75073211D01*
X149615132Y-75077051D01*
G37*
G36*
X150269495Y-75221039D02*
G01*
X150261760Y-75257020D01*
X150234398Y-75282015D01*
X150218021Y-75284237D01*
X150183432Y-75270020D01*
X150173691Y-75233862D01*
X150172042Y-75198142D01*
X150170577Y-75155277D01*
X150131926Y-75161780D01*
X150093260Y-75173037D01*
X150059695Y-75188467D01*
X150040151Y-75201072D01*
X150010485Y-75228123D01*
X149986671Y-75259665D01*
X149967809Y-75293712D01*
X149963948Y-75302006D01*
X149965047Y-75583923D01*
X149955299Y-75619486D01*
X149920289Y-75635744D01*
X149914122Y-75635947D01*
X149878675Y-75621368D01*
X149868693Y-75584289D01*
X149868693Y-75225985D01*
X149869539Y-75187474D01*
X149869975Y-75175427D01*
X149871106Y-75138446D01*
X149871257Y-75124869D01*
X149881239Y-75087790D01*
X149916687Y-75073211D01*
X149951228Y-75088744D01*
X149964986Y-75122741D01*
X149967611Y-75154361D01*
X149999051Y-75127605D01*
X150031546Y-75105385D01*
X150065097Y-75087699D01*
X150099703Y-75074548D01*
X150135364Y-75065932D01*
X150172081Y-75061850D01*
X150187063Y-75061488D01*
X150223517Y-75069227D01*
X150249345Y-75092445D01*
X150264203Y-75128220D01*
X150269539Y-75166808D01*
X150270045Y-75185502D01*
X150269495Y-75221039D01*
G37*
G36*
X150856228Y-74804300D02*
G01*
X150867951Y-74841669D01*
X150866970Y-74881093D01*
X150865066Y-74919353D01*
X150862822Y-74956021D01*
X150859937Y-74998075D01*
X150856411Y-75045516D01*
X150853345Y-75084632D01*
X150849919Y-75126778D01*
X150847435Y-75156559D01*
X150844710Y-75194215D01*
X150842764Y-75231893D01*
X150841596Y-75269594D01*
X150841207Y-75307318D01*
X150841456Y-75348694D01*
X150842203Y-75387460D01*
X150843837Y-75432247D01*
X150846249Y-75472955D01*
X150849440Y-75509584D01*
X150854296Y-75548155D01*
X150857144Y-75565239D01*
X150858060Y-75576962D01*
X150843588Y-75610851D01*
X150810249Y-75624223D01*
X150776990Y-75606048D01*
X150763354Y-75577695D01*
X150730416Y-75599298D01*
X150696355Y-75616343D01*
X150686418Y-75620376D01*
X150650810Y-75631020D01*
X150613869Y-75635704D01*
X150603070Y-75635947D01*
X150564378Y-75633442D01*
X150528263Y-75625926D01*
X150489384Y-75610826D01*
X150454011Y-75588905D01*
X150426482Y-75564689D01*
X150401955Y-75535900D01*
X150382502Y-75504213D01*
X150368123Y-75469628D01*
X150358820Y-75432145D01*
X150354591Y-75391764D01*
X150354309Y-75377660D01*
X150354410Y-75375279D01*
X150445533Y-75375279D01*
X150450131Y-75413271D01*
X150463923Y-75447793D01*
X150486910Y-75478845D01*
X150492611Y-75484638D01*
X150523706Y-75508788D01*
X150557913Y-75523994D01*
X150595233Y-75530255D01*
X150603070Y-75530434D01*
X150640792Y-75527093D01*
X150676343Y-75515230D01*
X150708808Y-75493509D01*
X150733496Y-75474197D01*
X150748333Y-75458993D01*
X150746868Y-75373813D01*
X150747418Y-75316660D01*
X150748333Y-75258592D01*
X150728819Y-75227471D01*
X150700334Y-75201265D01*
X150696310Y-75198691D01*
X150660681Y-75183716D01*
X150624246Y-75178802D01*
X150618640Y-75178724D01*
X150578031Y-75181793D01*
X150538833Y-75192579D01*
X150506502Y-75211133D01*
X150488764Y-75227817D01*
X150467867Y-75259255D01*
X150455032Y-75293794D01*
X150447602Y-75334538D01*
X150445533Y-75375279D01*
X150354410Y-75375279D01*
X150356089Y-75335839D01*
X150361428Y-75296702D01*
X150370328Y-75260248D01*
X150385707Y-75220045D01*
X150406212Y-75183707D01*
X150427215Y-75156376D01*
X150456081Y-75128113D01*
X150488000Y-75105698D01*
X150522971Y-75089130D01*
X150560995Y-75078409D01*
X150602072Y-75073536D01*
X150616442Y-75073211D01*
X150654377Y-75075397D01*
X150690837Y-75083618D01*
X150708766Y-75091713D01*
X150757126Y-75127250D01*
X150758490Y-75088096D01*
X150759902Y-75051419D01*
X150761860Y-75006368D01*
X150763903Y-74965718D01*
X150766578Y-74921097D01*
X150769388Y-74883354D01*
X150773547Y-74842070D01*
X150774162Y-74837273D01*
X150789183Y-74803201D01*
X150821057Y-74791844D01*
X150856228Y-74804300D01*
G37*
G36*
X143672800Y-76081027D02*
G01*
X143678236Y-76108264D01*
X143675671Y-76129330D01*
X143673107Y-76150396D01*
X143671641Y-76262869D01*
X143670542Y-76394028D01*
X143703558Y-76373360D01*
X143737871Y-76355795D01*
X143755722Y-76348415D01*
X143792588Y-76337502D01*
X143829516Y-76333226D01*
X143831742Y-76333211D01*
X143871833Y-76336199D01*
X143908988Y-76345164D01*
X143943206Y-76360105D01*
X143974487Y-76381022D01*
X144002832Y-76407915D01*
X144011627Y-76418208D01*
X144033665Y-76449446D01*
X144051143Y-76483260D01*
X144064062Y-76519651D01*
X144072421Y-76558617D01*
X144076220Y-76600159D01*
X144076474Y-76614579D01*
X144073808Y-76657369D01*
X144065809Y-76697672D01*
X144052478Y-76735490D01*
X144033815Y-76770822D01*
X144009820Y-76803668D01*
X144000636Y-76814064D01*
X143970959Y-76841892D01*
X143938666Y-76863961D01*
X143903759Y-76880274D01*
X143866238Y-76890829D01*
X143826102Y-76895627D01*
X143812142Y-76895947D01*
X143773651Y-76893668D01*
X143736946Y-76886834D01*
X143702026Y-76875442D01*
X143668893Y-76859494D01*
X143640145Y-76882678D01*
X143628777Y-76884223D01*
X143595437Y-76870668D01*
X143581882Y-76836596D01*
X143583085Y-76799008D01*
X143583164Y-76797395D01*
X143584435Y-76760598D01*
X143584446Y-76758011D01*
X143584160Y-76718863D01*
X143583519Y-76679971D01*
X143582658Y-76640418D01*
X143581696Y-76602414D01*
X143581516Y-76595711D01*
X143581512Y-76595528D01*
X143669993Y-76595528D01*
X143670542Y-76672465D01*
X143671092Y-76753431D01*
X143705288Y-76767503D01*
X143740701Y-76781092D01*
X143776738Y-76788381D01*
X143812142Y-76790434D01*
X143852052Y-76786464D01*
X143887702Y-76774553D01*
X143919092Y-76754702D01*
X143934691Y-76740242D01*
X143957891Y-76709950D01*
X143973498Y-76675745D01*
X143981513Y-76637629D01*
X143982684Y-76614762D01*
X143979627Y-76575356D01*
X143970455Y-76539775D01*
X143953092Y-76504727D01*
X143944033Y-76492030D01*
X143915121Y-76463920D01*
X143880592Y-76446220D01*
X143840446Y-76438932D01*
X143831742Y-76438724D01*
X143794456Y-76443072D01*
X143759080Y-76454895D01*
X143745280Y-76461439D01*
X143713577Y-76480847D01*
X143680677Y-76503387D01*
X143671092Y-76510165D01*
X143669993Y-76595528D01*
X143581512Y-76595528D01*
X143580582Y-76557013D01*
X143579737Y-76516668D01*
X143579093Y-76476892D01*
X143578779Y-76440218D01*
X143578768Y-76433229D01*
X143578845Y-76395825D01*
X143579004Y-76355466D01*
X143579189Y-76316782D01*
X143579317Y-76291812D01*
X143579504Y-76255126D01*
X143579673Y-76218218D01*
X143579813Y-76180090D01*
X143579867Y-76150029D01*
X143585389Y-76112320D01*
X143592690Y-76094708D01*
X143618993Y-76067946D01*
X143639584Y-76063567D01*
X143672800Y-76081027D01*
G37*
G36*
X144643606Y-76413445D02*
G01*
X144465369Y-76795746D01*
X144449367Y-76829933D01*
X144430724Y-76870669D01*
X144413592Y-76909187D01*
X144397973Y-76945488D01*
X144383865Y-76979569D01*
X144368930Y-77017540D01*
X144364436Y-77029487D01*
X144330364Y-77128588D01*
X144309119Y-77158508D01*
X144284019Y-77165591D01*
X144248642Y-77153677D01*
X144246650Y-77152035D01*
X144231079Y-77118696D01*
X144238029Y-77081991D01*
X144249430Y-77046609D01*
X144262461Y-77011412D01*
X144278966Y-76970090D01*
X144293625Y-76935079D01*
X144310238Y-76896623D01*
X144328806Y-76854721D01*
X144342271Y-76824872D01*
X144157807Y-76468400D01*
X144134726Y-76430664D01*
X144121144Y-76395956D01*
X144120804Y-76390730D01*
X144133146Y-76355007D01*
X144136924Y-76350614D01*
X144169633Y-76333364D01*
X144173377Y-76333211D01*
X144207331Y-76348406D01*
X144209830Y-76351713D01*
X144231924Y-76384694D01*
X144254424Y-76420990D01*
X144277330Y-76460600D01*
X144300643Y-76503525D01*
X144318394Y-76537894D01*
X144336374Y-76574127D01*
X144354583Y-76612224D01*
X144373020Y-76652186D01*
X144391686Y-76694012D01*
X144397958Y-76708368D01*
X144474162Y-76526835D01*
X144489509Y-76493143D01*
X144507136Y-76455838D01*
X144524466Y-76420689D01*
X144541497Y-76387697D01*
X144553480Y-76365451D01*
X144578095Y-76337745D01*
X144596711Y-76333211D01*
X144631013Y-76346150D01*
X144634080Y-76348965D01*
X144650240Y-76382333D01*
X144650383Y-76386334D01*
X144643606Y-76413445D01*
G37*
G36*
X145557501Y-76169080D02*
G01*
X145541564Y-76166882D01*
X145503786Y-76158602D01*
X145466586Y-76152356D01*
X145429965Y-76148144D01*
X145388821Y-76145820D01*
X145373586Y-76145633D01*
X145335213Y-76146755D01*
X145296881Y-76149806D01*
X145281446Y-76151495D01*
X145242857Y-76156629D01*
X145205584Y-76162875D01*
X145173735Y-76169080D01*
X145177558Y-76206832D01*
X145178314Y-76226782D01*
X145177765Y-76268949D01*
X145176382Y-76311761D01*
X145174528Y-76352852D01*
X145172510Y-76390195D01*
X145170062Y-76430354D01*
X145169521Y-76438724D01*
X145395202Y-76414911D01*
X145435046Y-76410485D01*
X145471588Y-76406759D01*
X145508412Y-76403831D01*
X145517384Y-76403553D01*
X145552355Y-76415438D01*
X145555303Y-76418025D01*
X145570737Y-76452046D01*
X145570874Y-76456493D01*
X145559012Y-76493084D01*
X145523429Y-76509066D01*
X145400881Y-76520790D01*
X145162927Y-76544237D01*
X145160744Y-76582851D01*
X145159446Y-76611282D01*
X145158345Y-76649178D01*
X145158164Y-76670266D01*
X145158744Y-76708426D01*
X145161320Y-76749367D01*
X145168227Y-76787117D01*
X145174651Y-76799959D01*
X145212117Y-76811923D01*
X145251390Y-76813868D01*
X145255617Y-76813881D01*
X145292583Y-76813881D01*
X145332356Y-76813881D01*
X145351605Y-76813881D01*
X145388599Y-76813881D01*
X145427491Y-76813881D01*
X145448325Y-76813881D01*
X145478550Y-76808019D01*
X145508592Y-76802158D01*
X145545908Y-76812571D01*
X145562700Y-76846840D01*
X145563180Y-76856563D01*
X145552235Y-76891779D01*
X145519399Y-76909502D01*
X145478137Y-76914719D01*
X145436119Y-76917221D01*
X145399483Y-76918428D01*
X145357329Y-76919153D01*
X145319632Y-76919384D01*
X145309656Y-76919394D01*
X145271511Y-76918747D01*
X145228861Y-76916119D01*
X145191802Y-76911470D01*
X145154709Y-76903223D01*
X145117775Y-76887698D01*
X145104675Y-76877995D01*
X145083037Y-76848136D01*
X145069175Y-76809989D01*
X145061060Y-76768360D01*
X145056955Y-76727373D01*
X145055409Y-76690462D01*
X145055216Y-76670633D01*
X145055680Y-76632244D01*
X145056681Y-76599741D01*
X145058428Y-76562349D01*
X145060422Y-76525053D01*
X145060894Y-76516760D01*
X145055216Y-76492030D01*
X145064924Y-76461256D01*
X145067880Y-76417439D01*
X145070334Y-76377353D01*
X145072618Y-76334173D01*
X145074181Y-76296364D01*
X145075093Y-76259041D01*
X145075183Y-76245284D01*
X145072298Y-76207468D01*
X145070054Y-76190512D01*
X145065771Y-76153641D01*
X145064924Y-76135558D01*
X145072163Y-76098833D01*
X145101570Y-76076762D01*
X145116399Y-76075291D01*
X145151615Y-76085756D01*
X145153585Y-76087198D01*
X145191505Y-76073591D01*
X145228103Y-76062311D01*
X145266830Y-76052588D01*
X145270272Y-76051844D01*
X145307274Y-76045169D01*
X145345862Y-76041047D01*
X145373586Y-76040120D01*
X145411507Y-76040826D01*
X145453754Y-76043540D01*
X145492445Y-76048288D01*
X145533092Y-76056400D01*
X145568901Y-76067282D01*
X145573621Y-76069063D01*
X145602376Y-76092369D01*
X145608060Y-76116873D01*
X145594687Y-76152227D01*
X145561594Y-76168932D01*
X145557501Y-76169080D01*
G37*
G36*
X145841250Y-76460523D02*
G01*
X145833557Y-76721557D01*
X145832892Y-76761722D01*
X145831475Y-76801299D01*
X145829775Y-76838397D01*
X145829527Y-76843374D01*
X145817325Y-76879312D01*
X145784490Y-76895741D01*
X145778968Y-76895947D01*
X145742679Y-76884194D01*
X145728608Y-76848935D01*
X145728410Y-76842458D01*
X145728859Y-76801660D01*
X145729830Y-76762957D01*
X145731094Y-76724926D01*
X145732758Y-76682414D01*
X145734089Y-76651582D01*
X145735725Y-76613301D01*
X145737322Y-76571483D01*
X145738520Y-76534162D01*
X145739413Y-76496301D01*
X145739767Y-76460523D01*
X145739890Y-76423079D01*
X145740258Y-76383356D01*
X145740872Y-76341354D01*
X145741593Y-76303538D01*
X145742332Y-76270746D01*
X145743204Y-76231535D01*
X145743895Y-76193999D01*
X145744473Y-76152322D01*
X145744806Y-76112925D01*
X145744897Y-76080969D01*
X145754574Y-76045031D01*
X145789333Y-76028602D01*
X145795455Y-76028396D01*
X145832007Y-76039948D01*
X145846181Y-76074603D01*
X145846379Y-76080969D01*
X145846257Y-76118413D01*
X145845889Y-76158136D01*
X145845275Y-76200138D01*
X145844554Y-76237954D01*
X145843815Y-76270746D01*
X145842943Y-76309957D01*
X145842252Y-76347494D01*
X145841674Y-76389170D01*
X145841341Y-76428568D01*
X145841250Y-76460523D01*
G37*
G36*
X146096057Y-76204251D02*
G01*
X146060225Y-76194093D01*
X146053192Y-76188864D01*
X146035398Y-76155527D01*
X146035240Y-76151495D01*
X146049984Y-76117250D01*
X146053192Y-76114309D01*
X146087015Y-76099286D01*
X146096057Y-76098738D01*
X146131647Y-76109017D01*
X146138555Y-76114309D01*
X146156167Y-76147464D01*
X146156324Y-76151495D01*
X146141730Y-76185890D01*
X146138555Y-76188864D01*
X146103615Y-76203875D01*
X146096057Y-76204251D01*
G37*
G36*
X146119321Y-76631981D02*
G01*
X146119733Y-76671137D01*
X146120583Y-76710781D01*
X146120969Y-76725954D01*
X146122012Y-76765345D01*
X146122687Y-76802409D01*
X146122801Y-76820109D01*
X146111367Y-76855023D01*
X146108879Y-76857845D01*
X146075048Y-76872442D01*
X146072243Y-76872500D01*
X146037789Y-76859620D01*
X146035973Y-76857845D01*
X146021923Y-76822962D01*
X146021868Y-76820109D01*
X146021410Y-76780817D01*
X146020465Y-76741129D01*
X146020036Y-76725954D01*
X146018993Y-76686584D01*
X146018319Y-76649601D01*
X146018204Y-76631981D01*
X146018810Y-76595225D01*
X146020413Y-76556814D01*
X146022712Y-76518176D01*
X146023333Y-76509066D01*
X146025901Y-76469571D01*
X146027769Y-76430209D01*
X146028625Y-76392406D01*
X146028646Y-76386151D01*
X146040230Y-76350692D01*
X146042751Y-76347866D01*
X146077654Y-76333226D01*
X146079021Y-76333211D01*
X146113496Y-76346091D01*
X146115291Y-76347866D01*
X146129453Y-76381799D01*
X146129579Y-76386151D01*
X146128973Y-76422907D01*
X146127370Y-76461318D01*
X146125071Y-76499956D01*
X146124450Y-76509066D01*
X146121971Y-76548561D01*
X146120167Y-76587924D01*
X146119341Y-76625727D01*
X146119321Y-76631981D01*
G37*
G36*
X146575041Y-76337051D02*
G01*
X146613514Y-76347411D01*
X146637360Y-76356475D01*
X146671186Y-76373712D01*
X146699067Y-76399670D01*
X146707336Y-76426451D01*
X146696894Y-76451181D01*
X146691109Y-76488033D01*
X146688834Y-76516027D01*
X146687108Y-76553267D01*
X146686114Y-76593695D01*
X146685720Y-76631249D01*
X146686343Y-76668787D01*
X146689640Y-76706843D01*
X146694513Y-76732732D01*
X146706218Y-76769739D01*
X146720459Y-76807404D01*
X146726936Y-76823773D01*
X146738660Y-76851250D01*
X146741774Y-76860043D01*
X146727302Y-76894115D01*
X146693780Y-76907670D01*
X146662944Y-76886006D01*
X146658243Y-76881292D01*
X146633971Y-76852527D01*
X146623804Y-76837329D01*
X146591187Y-76855560D01*
X146556210Y-76872809D01*
X146536610Y-76881109D01*
X146500174Y-76892687D01*
X146473778Y-76895947D01*
X146430877Y-76893570D01*
X146392574Y-76886441D01*
X146353699Y-76872117D01*
X146321082Y-76851324D01*
X146298107Y-76828353D01*
X146277836Y-76797309D01*
X146262544Y-76759796D01*
X146253399Y-76722493D01*
X146247912Y-76680438D01*
X146246134Y-76641761D01*
X146246097Y-76635828D01*
X146347749Y-76635828D01*
X146350111Y-76676254D01*
X146358275Y-76713999D01*
X146375771Y-76749329D01*
X146377608Y-76751782D01*
X146406826Y-76776808D01*
X146442598Y-76788584D01*
X146467367Y-76790434D01*
X146505073Y-76787713D01*
X146542420Y-76777812D01*
X146551264Y-76773948D01*
X146583803Y-76753121D01*
X146603288Y-76738044D01*
X146598539Y-76700537D01*
X146593902Y-76659579D01*
X146590424Y-76623038D01*
X146587832Y-76585991D01*
X146586802Y-76551015D01*
X146588758Y-76514225D01*
X146589549Y-76506868D01*
X146595320Y-76469396D01*
X146597976Y-76456127D01*
X146565369Y-76442937D01*
X146543571Y-76438724D01*
X146504999Y-76442457D01*
X146469153Y-76453654D01*
X146436031Y-76472315D01*
X146405635Y-76498442D01*
X146380310Y-76529354D01*
X146362220Y-76562555D01*
X146351367Y-76598047D01*
X146347749Y-76635828D01*
X146246097Y-76635828D01*
X146246083Y-76633630D01*
X146248176Y-76595699D01*
X146254455Y-76559531D01*
X146267515Y-76518454D01*
X146286603Y-76479915D01*
X146311719Y-76443913D01*
X146331812Y-76421322D01*
X146359469Y-76395938D01*
X146394795Y-76371157D01*
X146432452Y-76352572D01*
X146472440Y-76340181D01*
X146514759Y-76333986D01*
X146536793Y-76333211D01*
X146575041Y-76337051D01*
G37*
G36*
X147176465Y-76473895D02*
G01*
X147141572Y-76460109D01*
X147136714Y-76453012D01*
X147126696Y-76415406D01*
X147123342Y-76391830D01*
X147085045Y-76402469D01*
X147046205Y-76414397D01*
X147009259Y-76426284D01*
X147004274Y-76427916D01*
X146967935Y-76445376D01*
X146937002Y-76469937D01*
X146921133Y-76503425D01*
X146920743Y-76509433D01*
X146951151Y-76517676D01*
X146993457Y-76526204D01*
X147031488Y-76535854D01*
X147070452Y-76548527D01*
X147107855Y-76564879D01*
X147127372Y-76576111D01*
X147160134Y-76602236D01*
X147184849Y-76633007D01*
X147201517Y-76668423D01*
X147210139Y-76708486D01*
X147211453Y-76733464D01*
X147206908Y-76773020D01*
X147193272Y-76807424D01*
X147170546Y-76836676D01*
X147138729Y-76860776D01*
X147102308Y-76877777D01*
X147065700Y-76888219D01*
X147025108Y-76894264D01*
X146986322Y-76895947D01*
X146948793Y-76894179D01*
X146912249Y-76888876D01*
X146876691Y-76880037D01*
X146857362Y-76873599D01*
X146822660Y-76857994D01*
X146793226Y-76834527D01*
X146778354Y-76800558D01*
X146778044Y-76794281D01*
X146793172Y-76759699D01*
X146794164Y-76758743D01*
X146828596Y-76743599D01*
X146831167Y-76743539D01*
X146864711Y-76759841D01*
X146872383Y-76766437D01*
X146908206Y-76780863D01*
X146927887Y-76784755D01*
X146965125Y-76789497D01*
X146986139Y-76790434D01*
X147024414Y-76788180D01*
X147062342Y-76780176D01*
X147095151Y-76763701D01*
X147110336Y-76732732D01*
X147102599Y-76696861D01*
X147079386Y-76668177D01*
X147045760Y-76648714D01*
X147012517Y-76637843D01*
X146958845Y-76626303D01*
X146919908Y-76616775D01*
X146883432Y-76604067D01*
X146861575Y-76592414D01*
X146834533Y-76564956D01*
X146821278Y-76528126D01*
X146819809Y-76507967D01*
X146823377Y-76470980D01*
X146836558Y-76433135D01*
X146859451Y-76401006D01*
X146892056Y-76374591D01*
X146921292Y-76359223D01*
X146958446Y-76345388D01*
X146996026Y-76333809D01*
X147020211Y-76326983D01*
X147055470Y-76316922D01*
X147092925Y-76304905D01*
X147117663Y-76295293D01*
X147154314Y-76286632D01*
X147163459Y-76286317D01*
X147197934Y-76298714D01*
X147199729Y-76300422D01*
X147213961Y-76334436D01*
X147214017Y-76337241D01*
X147219283Y-76374936D01*
X147220429Y-76380106D01*
X147226615Y-76416999D01*
X147226840Y-76422971D01*
X147214282Y-76457993D01*
X147212552Y-76459790D01*
X147177831Y-76473881D01*
X147176465Y-76473895D01*
G37*
G36*
X148081903Y-76076496D02*
G01*
X148120185Y-76080111D01*
X148164214Y-76088019D01*
X148203994Y-76099692D01*
X148239526Y-76115131D01*
X148270809Y-76134336D01*
X148292777Y-76152411D01*
X148317580Y-76179694D01*
X148338179Y-76211512D01*
X148354574Y-76247865D01*
X148366765Y-76288752D01*
X148374753Y-76334175D01*
X148378116Y-76373778D01*
X148378872Y-76405385D01*
X148377358Y-76449893D01*
X148372816Y-76493290D01*
X148365245Y-76535576D01*
X148354647Y-76576752D01*
X148341020Y-76616817D01*
X148324364Y-76655772D01*
X148304681Y-76693616D01*
X148281969Y-76730350D01*
X148253155Y-76769162D01*
X148222309Y-76802799D01*
X148189431Y-76831261D01*
X148154520Y-76854548D01*
X148117577Y-76872660D01*
X148078603Y-76885597D01*
X148037596Y-76893359D01*
X147994556Y-76895947D01*
X147950191Y-76893800D01*
X147907999Y-76887360D01*
X147867981Y-76876627D01*
X147830136Y-76861600D01*
X147794465Y-76842280D01*
X147760967Y-76818667D01*
X147748176Y-76808019D01*
X147717305Y-76777391D01*
X147691665Y-76744124D01*
X147671259Y-76708218D01*
X147656084Y-76669674D01*
X147646143Y-76628491D01*
X147641433Y-76584670D01*
X147641019Y-76566585D01*
X147746161Y-76566585D01*
X147749685Y-76608947D01*
X147760256Y-76647714D01*
X147777875Y-76682888D01*
X147802541Y-76714468D01*
X147819801Y-76730900D01*
X147852331Y-76754097D01*
X147888052Y-76771597D01*
X147926963Y-76783399D01*
X147969065Y-76789504D01*
X147994556Y-76790434D01*
X148032585Y-76787308D01*
X148068477Y-76777930D01*
X148102230Y-76762299D01*
X148133846Y-76740417D01*
X148163325Y-76712282D01*
X148190665Y-76677895D01*
X148201003Y-76662390D01*
X148221953Y-76625919D01*
X148239353Y-76588061D01*
X148253201Y-76548818D01*
X148263499Y-76508187D01*
X148270246Y-76466171D01*
X148273442Y-76422768D01*
X148273726Y-76405019D01*
X148272380Y-76367789D01*
X148267211Y-76327896D01*
X148256280Y-76287946D01*
X148237326Y-76250983D01*
X148218588Y-76229347D01*
X148187768Y-76208109D01*
X148153362Y-76194504D01*
X148112013Y-76185544D01*
X148071046Y-76181562D01*
X148040901Y-76180804D01*
X148002404Y-76183916D01*
X147965793Y-76193254D01*
X147931070Y-76208818D01*
X147898234Y-76230606D01*
X147867285Y-76258620D01*
X147838224Y-76292860D01*
X147827128Y-76308299D01*
X147803803Y-76345516D01*
X147784431Y-76383897D01*
X147769012Y-76423440D01*
X147757547Y-76464146D01*
X147750036Y-76506015D01*
X147746478Y-76549047D01*
X147746161Y-76566585D01*
X147641019Y-76566585D01*
X147641015Y-76566402D01*
X147642666Y-76521855D01*
X147647621Y-76478337D01*
X147655878Y-76435851D01*
X147667439Y-76394394D01*
X147682302Y-76353968D01*
X147700469Y-76314573D01*
X147721938Y-76276207D01*
X147746711Y-76238872D01*
X147769342Y-76209639D01*
X147801110Y-76175133D01*
X147834698Y-76145740D01*
X147870107Y-76121458D01*
X147907336Y-76102288D01*
X147946385Y-76088230D01*
X147987254Y-76079285D01*
X148029945Y-76075451D01*
X148040901Y-76075291D01*
X148081903Y-76076496D01*
G37*
G36*
X148657493Y-76127681D02*
G01*
X148659318Y-76164650D01*
X148660057Y-76173843D01*
X148662633Y-76211281D01*
X148662805Y-76220005D01*
X148657328Y-76257759D01*
X148629811Y-76284698D01*
X148616460Y-76286317D01*
X148581460Y-76273437D01*
X148575610Y-76263419D01*
X148571678Y-76225330D01*
X148571580Y-76214326D01*
X148569173Y-76176180D01*
X148568649Y-76170912D01*
X148565998Y-76133610D01*
X148565901Y-76127681D01*
X148566673Y-76088772D01*
X148569931Y-76057705D01*
X148587862Y-76025689D01*
X148615361Y-76016673D01*
X148648333Y-76029495D01*
X148661706Y-76061735D01*
X148659508Y-76094708D01*
X148657493Y-76127681D01*
G37*
G36*
X149664078Y-76919394D02*
G01*
X149629163Y-76905105D01*
X149618283Y-76891734D01*
X149602670Y-76857734D01*
X149591986Y-76819734D01*
X149590439Y-76812965D01*
X149571938Y-76721374D01*
X149563106Y-76682213D01*
X149554428Y-76638549D01*
X149546623Y-76596398D01*
X149538051Y-76547830D01*
X149531118Y-76507194D01*
X149523754Y-76462947D01*
X149515958Y-76415091D01*
X149507731Y-76363625D01*
X149504893Y-76345668D01*
X149401945Y-76666603D01*
X149371536Y-76767719D01*
X149359812Y-76803143D01*
X149345318Y-76840031D01*
X149332885Y-76866088D01*
X149303815Y-76890232D01*
X149274633Y-76895947D01*
X149239048Y-76884864D01*
X149226823Y-76872500D01*
X149212784Y-76837882D01*
X149206123Y-76815530D01*
X149191285Y-76756545D01*
X149181639Y-76721072D01*
X149172208Y-76685132D01*
X149162993Y-76648725D01*
X149153993Y-76611851D01*
X149145210Y-76574511D01*
X149136642Y-76536703D01*
X149128290Y-76498429D01*
X149120153Y-76459687D01*
X149112233Y-76420479D01*
X149104528Y-76380804D01*
X149099511Y-76354094D01*
X149081010Y-76448616D01*
X149014515Y-76727236D01*
X149009562Y-76766633D01*
X149002450Y-76807078D01*
X148995016Y-76843644D01*
X148988686Y-76872500D01*
X148965000Y-76900939D01*
X148937761Y-76907670D01*
X148902406Y-76894890D01*
X148897461Y-76889719D01*
X148884688Y-76854588D01*
X148884638Y-76851800D01*
X148886339Y-76812587D01*
X148890503Y-76776003D01*
X148897167Y-76736676D01*
X148906329Y-76694606D01*
X148915872Y-76657452D01*
X148920176Y-76642056D01*
X148976962Y-76427550D01*
X149006821Y-76259938D01*
X149015423Y-76218697D01*
X149025669Y-76177809D01*
X149037659Y-76140612D01*
X149054631Y-76106065D01*
X149082570Y-76080370D01*
X149105556Y-76075291D01*
X149140804Y-76090675D01*
X149155565Y-76114675D01*
X149168445Y-76153934D01*
X149177801Y-76192847D01*
X149186045Y-76233693D01*
X149193071Y-76273016D01*
X149198796Y-76307932D01*
X149206137Y-76352119D01*
X149214423Y-76397211D01*
X149223654Y-76443206D01*
X149233829Y-76490107D01*
X149242081Y-76525876D01*
X149250863Y-76562153D01*
X149260177Y-76598940D01*
X149270022Y-76636235D01*
X149280399Y-76674038D01*
X149283975Y-76686753D01*
X149298083Y-76648171D01*
X149311831Y-76609293D01*
X149325217Y-76570118D01*
X149338243Y-76530647D01*
X149350908Y-76490880D01*
X149363213Y-76450817D01*
X149375157Y-76410458D01*
X149386741Y-76369802D01*
X149397963Y-76328850D01*
X149408825Y-76287602D01*
X149415867Y-76259938D01*
X149431254Y-76182269D01*
X149440390Y-76144708D01*
X149453579Y-76110281D01*
X149455434Y-76106615D01*
X149482797Y-76081286D01*
X149510572Y-76075291D01*
X149545328Y-76090683D01*
X149566980Y-76124373D01*
X149578166Y-76155708D01*
X149586080Y-76194727D01*
X149591908Y-76232919D01*
X149596842Y-76269717D01*
X149598316Y-76281371D01*
X149604148Y-76325850D01*
X149610241Y-76369092D01*
X149616594Y-76411098D01*
X149623209Y-76451868D01*
X149630084Y-76491401D01*
X149637220Y-76529697D01*
X149644617Y-76566757D01*
X149654885Y-76614247D01*
X149665617Y-76659539D01*
X149673970Y-76692065D01*
X149699249Y-76783656D01*
X149709489Y-76821649D01*
X149717453Y-76857467D01*
X149718667Y-76868836D01*
X149703855Y-76902903D01*
X149701814Y-76904740D01*
X149667990Y-76919265D01*
X149664078Y-76919394D01*
G37*
G36*
X150108991Y-76337051D02*
G01*
X150147464Y-76347411D01*
X150171310Y-76356475D01*
X150205136Y-76373712D01*
X150233017Y-76399670D01*
X150241285Y-76426451D01*
X150230844Y-76451181D01*
X150225059Y-76488033D01*
X150222784Y-76516027D01*
X150221058Y-76553267D01*
X150220064Y-76593695D01*
X150219670Y-76631249D01*
X150220292Y-76668787D01*
X150223590Y-76706843D01*
X150228463Y-76732732D01*
X150240168Y-76769739D01*
X150254409Y-76807404D01*
X150260886Y-76823773D01*
X150272609Y-76851250D01*
X150275724Y-76860043D01*
X150261252Y-76894115D01*
X150227730Y-76907670D01*
X150196894Y-76886006D01*
X150192192Y-76881292D01*
X150167921Y-76852527D01*
X150157754Y-76837329D01*
X150125136Y-76855560D01*
X150090160Y-76872809D01*
X150070560Y-76881109D01*
X150034124Y-76892687D01*
X150007728Y-76895947D01*
X149964827Y-76893570D01*
X149926524Y-76886441D01*
X149887649Y-76872117D01*
X149855032Y-76851324D01*
X149832056Y-76828353D01*
X149811785Y-76797309D01*
X149796493Y-76759796D01*
X149787348Y-76722493D01*
X149781862Y-76680438D01*
X149780083Y-76641761D01*
X149780047Y-76635828D01*
X149881699Y-76635828D01*
X149884061Y-76676254D01*
X149892225Y-76713999D01*
X149909720Y-76749329D01*
X149911557Y-76751782D01*
X149940776Y-76776808D01*
X149976548Y-76788584D01*
X150001317Y-76790434D01*
X150039023Y-76787713D01*
X150076370Y-76777812D01*
X150085214Y-76773948D01*
X150117753Y-76753121D01*
X150137238Y-76738044D01*
X150132488Y-76700537D01*
X150127852Y-76659579D01*
X150124374Y-76623038D01*
X150121782Y-76585991D01*
X150120751Y-76551015D01*
X150122708Y-76514225D01*
X150123499Y-76506868D01*
X150129269Y-76469396D01*
X150131926Y-76456127D01*
X150099319Y-76442937D01*
X150077520Y-76438724D01*
X150038949Y-76442457D01*
X150003103Y-76453654D01*
X149969981Y-76472315D01*
X149939584Y-76498442D01*
X149914259Y-76529354D01*
X149896170Y-76562555D01*
X149885317Y-76598047D01*
X149881699Y-76635828D01*
X149780047Y-76635828D01*
X149780033Y-76633630D01*
X149782126Y-76595699D01*
X149788405Y-76559531D01*
X149801465Y-76518454D01*
X149820553Y-76479915D01*
X149845669Y-76443913D01*
X149865762Y-76421322D01*
X149893419Y-76395938D01*
X149928745Y-76371157D01*
X149966401Y-76352572D01*
X150006389Y-76340181D01*
X150048709Y-76333986D01*
X150070743Y-76333211D01*
X150108991Y-76337051D01*
G37*
G36*
X150493344Y-76460523D02*
G01*
X150485650Y-76721557D01*
X150484985Y-76761722D01*
X150483568Y-76801299D01*
X150481868Y-76838397D01*
X150481620Y-76843374D01*
X150469419Y-76879312D01*
X150436583Y-76895741D01*
X150431062Y-76895947D01*
X150394773Y-76884194D01*
X150380701Y-76848935D01*
X150380504Y-76842458D01*
X150380953Y-76801660D01*
X150381923Y-76762957D01*
X150383188Y-76724926D01*
X150384851Y-76682414D01*
X150386182Y-76651582D01*
X150387818Y-76613301D01*
X150389415Y-76571483D01*
X150390613Y-76534162D01*
X150391506Y-76496301D01*
X150391861Y-76460523D01*
X150391984Y-76423079D01*
X150392352Y-76383356D01*
X150392965Y-76341354D01*
X150393687Y-76303538D01*
X150394426Y-76270746D01*
X150395297Y-76231535D01*
X150395988Y-76193999D01*
X150396567Y-76152322D01*
X150396900Y-76112925D01*
X150396990Y-76080969D01*
X150406667Y-76045031D01*
X150441426Y-76028602D01*
X150447548Y-76028396D01*
X150484101Y-76039948D01*
X150498274Y-76074603D01*
X150498473Y-76080969D01*
X150498350Y-76118413D01*
X150497982Y-76158136D01*
X150497369Y-76200138D01*
X150496647Y-76237954D01*
X150495908Y-76270746D01*
X150495037Y-76309957D01*
X150494346Y-76347494D01*
X150493767Y-76389170D01*
X150493434Y-76428568D01*
X150493344Y-76460523D01*
G37*
G36*
X150780573Y-76460523D02*
G01*
X150772880Y-76721557D01*
X150772215Y-76761722D01*
X150770798Y-76801299D01*
X150769098Y-76838397D01*
X150768850Y-76843374D01*
X150756648Y-76879312D01*
X150723813Y-76895741D01*
X150718292Y-76895947D01*
X150682002Y-76884194D01*
X150667931Y-76848935D01*
X150667733Y-76842458D01*
X150668182Y-76801660D01*
X150669153Y-76762957D01*
X150670417Y-76724926D01*
X150672081Y-76682414D01*
X150673412Y-76651582D01*
X150675048Y-76613301D01*
X150676645Y-76571483D01*
X150677843Y-76534162D01*
X150678736Y-76496301D01*
X150679091Y-76460523D01*
X150679213Y-76423079D01*
X150679581Y-76383356D01*
X150680195Y-76341354D01*
X150680916Y-76303538D01*
X150681655Y-76270746D01*
X150682527Y-76231535D01*
X150683218Y-76193999D01*
X150683796Y-76152322D01*
X150684130Y-76112925D01*
X150684220Y-76080969D01*
X150693897Y-76045031D01*
X150728656Y-76028602D01*
X150734778Y-76028396D01*
X150771330Y-76039948D01*
X150785504Y-76074603D01*
X150785703Y-76080969D01*
X150785580Y-76118413D01*
X150785212Y-76158136D01*
X150784598Y-76200138D01*
X150783877Y-76237954D01*
X150783138Y-76270746D01*
X150782266Y-76309957D01*
X150781575Y-76347494D01*
X150780997Y-76389170D01*
X150780664Y-76428568D01*
X150780573Y-76460523D01*
G37*
G36*
X151204411Y-76335032D02*
G01*
X151241277Y-76340493D01*
X151278042Y-76350988D01*
X151303192Y-76362337D01*
X151335336Y-76385679D01*
X151358713Y-76418752D01*
X151368648Y-76454942D01*
X151369687Y-76472979D01*
X151361496Y-76510795D01*
X151339594Y-76543106D01*
X151311435Y-76567868D01*
X151277916Y-76586581D01*
X151244666Y-76602462D01*
X151207423Y-76619109D01*
X151202259Y-76621357D01*
X151005521Y-76707819D01*
X151031335Y-76737832D01*
X151061744Y-76761195D01*
X151077329Y-76769734D01*
X151114633Y-76783136D01*
X151153200Y-76789443D01*
X151177529Y-76790434D01*
X151216181Y-76787228D01*
X151252171Y-76779903D01*
X151261060Y-76777611D01*
X151297742Y-76765212D01*
X151329588Y-76745988D01*
X151339279Y-76734930D01*
X151367100Y-76710028D01*
X151377015Y-76708368D01*
X151409071Y-76722657D01*
X151423360Y-76755996D01*
X151414361Y-76791806D01*
X151390876Y-76821251D01*
X151357763Y-76845211D01*
X151331219Y-76859127D01*
X151296888Y-76873474D01*
X151258168Y-76885555D01*
X151219997Y-76893034D01*
X151182376Y-76895911D01*
X151177712Y-76895947D01*
X151135582Y-76893899D01*
X151096568Y-76887755D01*
X151060672Y-76877516D01*
X151022732Y-76860393D01*
X150989035Y-76837695D01*
X150962266Y-76811699D01*
X150938035Y-76776779D01*
X150923266Y-76742914D01*
X150914036Y-76705416D01*
X150910343Y-76664285D01*
X150910266Y-76657077D01*
X150911708Y-76619891D01*
X150996728Y-76619891D01*
X151154815Y-76550099D01*
X151193047Y-76532264D01*
X151226161Y-76515462D01*
X151261214Y-76495381D01*
X151287805Y-76477009D01*
X151256628Y-76456820D01*
X151218510Y-76444108D01*
X151178270Y-76439061D01*
X151163607Y-76438724D01*
X151126395Y-76443143D01*
X151090213Y-76458210D01*
X151061641Y-76481187D01*
X151059010Y-76483970D01*
X151034982Y-76516607D01*
X151016905Y-76553627D01*
X151003659Y-76592616D01*
X150996728Y-76619891D01*
X150911708Y-76619891D01*
X150911850Y-76616234D01*
X150916599Y-76577511D01*
X150924515Y-76540908D01*
X150938193Y-76499782D01*
X150956432Y-76461709D01*
X150975113Y-76432313D01*
X150998310Y-76403763D01*
X151029205Y-76375891D01*
X151063436Y-76354987D01*
X151101002Y-76341050D01*
X151141905Y-76334082D01*
X151163607Y-76333211D01*
X151204411Y-76335032D01*
G37*
G36*
X151961366Y-76413445D02*
G01*
X151783129Y-76795746D01*
X151767127Y-76829933D01*
X151748484Y-76870669D01*
X151731352Y-76909187D01*
X151715733Y-76945488D01*
X151701625Y-76979569D01*
X151686690Y-77017540D01*
X151682196Y-77029487D01*
X151648124Y-77128588D01*
X151626879Y-77158508D01*
X151601779Y-77165591D01*
X151566402Y-77153677D01*
X151564410Y-77152035D01*
X151548839Y-77118696D01*
X151555789Y-77081991D01*
X151567190Y-77046609D01*
X151580221Y-77011412D01*
X151596726Y-76970090D01*
X151611385Y-76935079D01*
X151627998Y-76896623D01*
X151646566Y-76854721D01*
X151660031Y-76824872D01*
X151475566Y-76468400D01*
X151452486Y-76430664D01*
X151438904Y-76395956D01*
X151438564Y-76390730D01*
X151450906Y-76355007D01*
X151454684Y-76350614D01*
X151487393Y-76333364D01*
X151491137Y-76333211D01*
X151525091Y-76348406D01*
X151527590Y-76351713D01*
X151549684Y-76384694D01*
X151572184Y-76420990D01*
X151595090Y-76460600D01*
X151618403Y-76503525D01*
X151636154Y-76537894D01*
X151654134Y-76574127D01*
X151672343Y-76612224D01*
X151690780Y-76652186D01*
X151709446Y-76694012D01*
X151715718Y-76708368D01*
X151791922Y-76526835D01*
X151807269Y-76493143D01*
X151824896Y-76455838D01*
X151842226Y-76420689D01*
X151859257Y-76387697D01*
X151871240Y-76365451D01*
X151895855Y-76337745D01*
X151914471Y-76333211D01*
X151948772Y-76346150D01*
X151951840Y-76348965D01*
X151968000Y-76382333D01*
X151968143Y-76386334D01*
X151961366Y-76413445D01*
G37*
D11*
X143859580Y-45666666D02*
X143907200Y-45714285D01*
X143907200Y-45714285D02*
X143954819Y-45857142D01*
X143954819Y-45857142D02*
X143954819Y-45952380D01*
X143954819Y-45952380D02*
X143907200Y-46095237D01*
X143907200Y-46095237D02*
X143811961Y-46190475D01*
X143811961Y-46190475D02*
X143716723Y-46238094D01*
X143716723Y-46238094D02*
X143526247Y-46285713D01*
X143526247Y-46285713D02*
X143383390Y-46285713D01*
X143383390Y-46285713D02*
X143192914Y-46238094D01*
X143192914Y-46238094D02*
X143097676Y-46190475D01*
X143097676Y-46190475D02*
X143002438Y-46095237D01*
X143002438Y-46095237D02*
X142954819Y-45952380D01*
X142954819Y-45952380D02*
X142954819Y-45857142D01*
X142954819Y-45857142D02*
X143002438Y-45714285D01*
X143002438Y-45714285D02*
X143050057Y-45666666D01*
X143288152Y-44809523D02*
X143954819Y-44809523D01*
X142907200Y-45047618D02*
X143621485Y-45285713D01*
X143621485Y-45285713D02*
X143621485Y-44666666D01*
X141666666Y-75004819D02*
X141666666Y-75719104D01*
X141666666Y-75719104D02*
X141619047Y-75861961D01*
X141619047Y-75861961D02*
X141523809Y-75957200D01*
X141523809Y-75957200D02*
X141380952Y-76004819D01*
X141380952Y-76004819D02*
X141285714Y-76004819D01*
X142047619Y-75004819D02*
X142666666Y-75004819D01*
X142666666Y-75004819D02*
X142333333Y-75385771D01*
X142333333Y-75385771D02*
X142476190Y-75385771D01*
X142476190Y-75385771D02*
X142571428Y-75433390D01*
X142571428Y-75433390D02*
X142619047Y-75481009D01*
X142619047Y-75481009D02*
X142666666Y-75576247D01*
X142666666Y-75576247D02*
X142666666Y-75814342D01*
X142666666Y-75814342D02*
X142619047Y-75909580D01*
X142619047Y-75909580D02*
X142571428Y-75957200D01*
X142571428Y-75957200D02*
X142476190Y-76004819D01*
X142476190Y-76004819D02*
X142190476Y-76004819D01*
X142190476Y-76004819D02*
X142095238Y-75957200D01*
X142095238Y-75957200D02*
X142047619Y-75909580D01*
X166333333Y-70359580D02*
X166285714Y-70407200D01*
X166285714Y-70407200D02*
X166142857Y-70454819D01*
X166142857Y-70454819D02*
X166047619Y-70454819D01*
X166047619Y-70454819D02*
X165904762Y-70407200D01*
X165904762Y-70407200D02*
X165809524Y-70311961D01*
X165809524Y-70311961D02*
X165761905Y-70216723D01*
X165761905Y-70216723D02*
X165714286Y-70026247D01*
X165714286Y-70026247D02*
X165714286Y-69883390D01*
X165714286Y-69883390D02*
X165761905Y-69692914D01*
X165761905Y-69692914D02*
X165809524Y-69597676D01*
X165809524Y-69597676D02*
X165904762Y-69502438D01*
X165904762Y-69502438D02*
X166047619Y-69454819D01*
X166047619Y-69454819D02*
X166142857Y-69454819D01*
X166142857Y-69454819D02*
X166285714Y-69502438D01*
X166285714Y-69502438D02*
X166333333Y-69550057D01*
X167238095Y-69454819D02*
X166761905Y-69454819D01*
X166761905Y-69454819D02*
X166714286Y-69931009D01*
X166714286Y-69931009D02*
X166761905Y-69883390D01*
X166761905Y-69883390D02*
X166857143Y-69835771D01*
X166857143Y-69835771D02*
X167095238Y-69835771D01*
X167095238Y-69835771D02*
X167190476Y-69883390D01*
X167190476Y-69883390D02*
X167238095Y-69931009D01*
X167238095Y-69931009D02*
X167285714Y-70026247D01*
X167285714Y-70026247D02*
X167285714Y-70264342D01*
X167285714Y-70264342D02*
X167238095Y-70359580D01*
X167238095Y-70359580D02*
X167190476Y-70407200D01*
X167190476Y-70407200D02*
X167095238Y-70454819D01*
X167095238Y-70454819D02*
X166857143Y-70454819D01*
X166857143Y-70454819D02*
X166761905Y-70407200D01*
X166761905Y-70407200D02*
X166714286Y-70359580D01*
X149859580Y-45716666D02*
X149907200Y-45764285D01*
X149907200Y-45764285D02*
X149954819Y-45907142D01*
X149954819Y-45907142D02*
X149954819Y-46002380D01*
X149954819Y-46002380D02*
X149907200Y-46145237D01*
X149907200Y-46145237D02*
X149811961Y-46240475D01*
X149811961Y-46240475D02*
X149716723Y-46288094D01*
X149716723Y-46288094D02*
X149526247Y-46335713D01*
X149526247Y-46335713D02*
X149383390Y-46335713D01*
X149383390Y-46335713D02*
X149192914Y-46288094D01*
X149192914Y-46288094D02*
X149097676Y-46240475D01*
X149097676Y-46240475D02*
X149002438Y-46145237D01*
X149002438Y-46145237D02*
X148954819Y-46002380D01*
X148954819Y-46002380D02*
X148954819Y-45907142D01*
X148954819Y-45907142D02*
X149002438Y-45764285D01*
X149002438Y-45764285D02*
X149050057Y-45716666D01*
X148954819Y-44859523D02*
X148954819Y-45049999D01*
X148954819Y-45049999D02*
X149002438Y-45145237D01*
X149002438Y-45145237D02*
X149050057Y-45192856D01*
X149050057Y-45192856D02*
X149192914Y-45288094D01*
X149192914Y-45288094D02*
X149383390Y-45335713D01*
X149383390Y-45335713D02*
X149764342Y-45335713D01*
X149764342Y-45335713D02*
X149859580Y-45288094D01*
X149859580Y-45288094D02*
X149907200Y-45240475D01*
X149907200Y-45240475D02*
X149954819Y-45145237D01*
X149954819Y-45145237D02*
X149954819Y-44954761D01*
X149954819Y-44954761D02*
X149907200Y-44859523D01*
X149907200Y-44859523D02*
X149859580Y-44811904D01*
X149859580Y-44811904D02*
X149764342Y-44764285D01*
X149764342Y-44764285D02*
X149526247Y-44764285D01*
X149526247Y-44764285D02*
X149431009Y-44811904D01*
X149431009Y-44811904D02*
X149383390Y-44859523D01*
X149383390Y-44859523D02*
X149335771Y-44954761D01*
X149335771Y-44954761D02*
X149335771Y-45145237D01*
X149335771Y-45145237D02*
X149383390Y-45240475D01*
X149383390Y-45240475D02*
X149431009Y-45288094D01*
X149431009Y-45288094D02*
X149526247Y-45335713D01*
X171333333Y-70367319D02*
X171000000Y-69891128D01*
X170761905Y-70367319D02*
X170761905Y-69367319D01*
X170761905Y-69367319D02*
X171142857Y-69367319D01*
X171142857Y-69367319D02*
X171238095Y-69414938D01*
X171238095Y-69414938D02*
X171285714Y-69462557D01*
X171285714Y-69462557D02*
X171333333Y-69557795D01*
X171333333Y-69557795D02*
X171333333Y-69700652D01*
X171333333Y-69700652D02*
X171285714Y-69795890D01*
X171285714Y-69795890D02*
X171238095Y-69843509D01*
X171238095Y-69843509D02*
X171142857Y-69891128D01*
X171142857Y-69891128D02*
X170761905Y-69891128D01*
X171666667Y-69367319D02*
X172285714Y-69367319D01*
X172285714Y-69367319D02*
X171952381Y-69748271D01*
X171952381Y-69748271D02*
X172095238Y-69748271D01*
X172095238Y-69748271D02*
X172190476Y-69795890D01*
X172190476Y-69795890D02*
X172238095Y-69843509D01*
X172238095Y-69843509D02*
X172285714Y-69938747D01*
X172285714Y-69938747D02*
X172285714Y-70176842D01*
X172285714Y-70176842D02*
X172238095Y-70272080D01*
X172238095Y-70272080D02*
X172190476Y-70319700D01*
X172190476Y-70319700D02*
X172095238Y-70367319D01*
X172095238Y-70367319D02*
X171809524Y-70367319D01*
X171809524Y-70367319D02*
X171714286Y-70319700D01*
X171714286Y-70319700D02*
X171666667Y-70272080D01*
X152333333Y-72454819D02*
X152000000Y-71978628D01*
X151761905Y-72454819D02*
X151761905Y-71454819D01*
X151761905Y-71454819D02*
X152142857Y-71454819D01*
X152142857Y-71454819D02*
X152238095Y-71502438D01*
X152238095Y-71502438D02*
X152285714Y-71550057D01*
X152285714Y-71550057D02*
X152333333Y-71645295D01*
X152333333Y-71645295D02*
X152333333Y-71788152D01*
X152333333Y-71788152D02*
X152285714Y-71883390D01*
X152285714Y-71883390D02*
X152238095Y-71931009D01*
X152238095Y-71931009D02*
X152142857Y-71978628D01*
X152142857Y-71978628D02*
X151761905Y-71978628D01*
X153285714Y-72454819D02*
X152714286Y-72454819D01*
X153000000Y-72454819D02*
X153000000Y-71454819D01*
X153000000Y-71454819D02*
X152904762Y-71597676D01*
X152904762Y-71597676D02*
X152809524Y-71692914D01*
X152809524Y-71692914D02*
X152714286Y-71740533D01*
X168833333Y-70367319D02*
X168500000Y-69891128D01*
X168261905Y-70367319D02*
X168261905Y-69367319D01*
X168261905Y-69367319D02*
X168642857Y-69367319D01*
X168642857Y-69367319D02*
X168738095Y-69414938D01*
X168738095Y-69414938D02*
X168785714Y-69462557D01*
X168785714Y-69462557D02*
X168833333Y-69557795D01*
X168833333Y-69557795D02*
X168833333Y-69700652D01*
X168833333Y-69700652D02*
X168785714Y-69795890D01*
X168785714Y-69795890D02*
X168738095Y-69843509D01*
X168738095Y-69843509D02*
X168642857Y-69891128D01*
X168642857Y-69891128D02*
X168261905Y-69891128D01*
X169690476Y-69700652D02*
X169690476Y-70367319D01*
X169452381Y-69319700D02*
X169214286Y-70033985D01*
X169214286Y-70033985D02*
X169833333Y-70033985D01*
X158333333Y-80859580D02*
X158285714Y-80907200D01*
X158285714Y-80907200D02*
X158142857Y-80954819D01*
X158142857Y-80954819D02*
X158047619Y-80954819D01*
X158047619Y-80954819D02*
X157904762Y-80907200D01*
X157904762Y-80907200D02*
X157809524Y-80811961D01*
X157809524Y-80811961D02*
X157761905Y-80716723D01*
X157761905Y-80716723D02*
X157714286Y-80526247D01*
X157714286Y-80526247D02*
X157714286Y-80383390D01*
X157714286Y-80383390D02*
X157761905Y-80192914D01*
X157761905Y-80192914D02*
X157809524Y-80097676D01*
X157809524Y-80097676D02*
X157904762Y-80002438D01*
X157904762Y-80002438D02*
X158047619Y-79954819D01*
X158047619Y-79954819D02*
X158142857Y-79954819D01*
X158142857Y-79954819D02*
X158285714Y-80002438D01*
X158285714Y-80002438D02*
X158333333Y-80050057D01*
X158809524Y-80954819D02*
X159000000Y-80954819D01*
X159000000Y-80954819D02*
X159095238Y-80907200D01*
X159095238Y-80907200D02*
X159142857Y-80859580D01*
X159142857Y-80859580D02*
X159238095Y-80716723D01*
X159238095Y-80716723D02*
X159285714Y-80526247D01*
X159285714Y-80526247D02*
X159285714Y-80145295D01*
X159285714Y-80145295D02*
X159238095Y-80050057D01*
X159238095Y-80050057D02*
X159190476Y-80002438D01*
X159190476Y-80002438D02*
X159095238Y-79954819D01*
X159095238Y-79954819D02*
X158904762Y-79954819D01*
X158904762Y-79954819D02*
X158809524Y-80002438D01*
X158809524Y-80002438D02*
X158761905Y-80050057D01*
X158761905Y-80050057D02*
X158714286Y-80145295D01*
X158714286Y-80145295D02*
X158714286Y-80383390D01*
X158714286Y-80383390D02*
X158761905Y-80478628D01*
X158761905Y-80478628D02*
X158809524Y-80526247D01*
X158809524Y-80526247D02*
X158904762Y-80573866D01*
X158904762Y-80573866D02*
X159095238Y-80573866D01*
X159095238Y-80573866D02*
X159190476Y-80526247D01*
X159190476Y-80526247D02*
X159238095Y-80478628D01*
X159238095Y-80478628D02*
X159285714Y-80383390D01*
X151833333Y-69454819D02*
X151500000Y-68978628D01*
X151261905Y-69454819D02*
X151261905Y-68454819D01*
X151261905Y-68454819D02*
X151642857Y-68454819D01*
X151642857Y-68454819D02*
X151738095Y-68502438D01*
X151738095Y-68502438D02*
X151785714Y-68550057D01*
X151785714Y-68550057D02*
X151833333Y-68645295D01*
X151833333Y-68645295D02*
X151833333Y-68788152D01*
X151833333Y-68788152D02*
X151785714Y-68883390D01*
X151785714Y-68883390D02*
X151738095Y-68931009D01*
X151738095Y-68931009D02*
X151642857Y-68978628D01*
X151642857Y-68978628D02*
X151261905Y-68978628D01*
X152214286Y-68550057D02*
X152261905Y-68502438D01*
X152261905Y-68502438D02*
X152357143Y-68454819D01*
X152357143Y-68454819D02*
X152595238Y-68454819D01*
X152595238Y-68454819D02*
X152690476Y-68502438D01*
X152690476Y-68502438D02*
X152738095Y-68550057D01*
X152738095Y-68550057D02*
X152785714Y-68645295D01*
X152785714Y-68645295D02*
X152785714Y-68740533D01*
X152785714Y-68740533D02*
X152738095Y-68883390D01*
X152738095Y-68883390D02*
X152166667Y-69454819D01*
X152166667Y-69454819D02*
X152785714Y-69454819D01*
X163833333Y-70367319D02*
X163500000Y-69891128D01*
X163261905Y-70367319D02*
X163261905Y-69367319D01*
X163261905Y-69367319D02*
X163642857Y-69367319D01*
X163642857Y-69367319D02*
X163738095Y-69414938D01*
X163738095Y-69414938D02*
X163785714Y-69462557D01*
X163785714Y-69462557D02*
X163833333Y-69557795D01*
X163833333Y-69557795D02*
X163833333Y-69700652D01*
X163833333Y-69700652D02*
X163785714Y-69795890D01*
X163785714Y-69795890D02*
X163738095Y-69843509D01*
X163738095Y-69843509D02*
X163642857Y-69891128D01*
X163642857Y-69891128D02*
X163261905Y-69891128D01*
X164404762Y-69795890D02*
X164309524Y-69748271D01*
X164309524Y-69748271D02*
X164261905Y-69700652D01*
X164261905Y-69700652D02*
X164214286Y-69605414D01*
X164214286Y-69605414D02*
X164214286Y-69557795D01*
X164214286Y-69557795D02*
X164261905Y-69462557D01*
X164261905Y-69462557D02*
X164309524Y-69414938D01*
X164309524Y-69414938D02*
X164404762Y-69367319D01*
X164404762Y-69367319D02*
X164595238Y-69367319D01*
X164595238Y-69367319D02*
X164690476Y-69414938D01*
X164690476Y-69414938D02*
X164738095Y-69462557D01*
X164738095Y-69462557D02*
X164785714Y-69557795D01*
X164785714Y-69557795D02*
X164785714Y-69605414D01*
X164785714Y-69605414D02*
X164738095Y-69700652D01*
X164738095Y-69700652D02*
X164690476Y-69748271D01*
X164690476Y-69748271D02*
X164595238Y-69795890D01*
X164595238Y-69795890D02*
X164404762Y-69795890D01*
X164404762Y-69795890D02*
X164309524Y-69843509D01*
X164309524Y-69843509D02*
X164261905Y-69891128D01*
X164261905Y-69891128D02*
X164214286Y-69986366D01*
X164214286Y-69986366D02*
X164214286Y-70176842D01*
X164214286Y-70176842D02*
X164261905Y-70272080D01*
X164261905Y-70272080D02*
X164309524Y-70319700D01*
X164309524Y-70319700D02*
X164404762Y-70367319D01*
X164404762Y-70367319D02*
X164595238Y-70367319D01*
X164595238Y-70367319D02*
X164690476Y-70319700D01*
X164690476Y-70319700D02*
X164738095Y-70272080D01*
X164738095Y-70272080D02*
X164785714Y-70176842D01*
X164785714Y-70176842D02*
X164785714Y-69986366D01*
X164785714Y-69986366D02*
X164738095Y-69891128D01*
X164738095Y-69891128D02*
X164690476Y-69843509D01*
X164690476Y-69843509D02*
X164595238Y-69795890D01*
X141454819Y-69833333D02*
X142169104Y-69833333D01*
X142169104Y-69833333D02*
X142311961Y-69880952D01*
X142311961Y-69880952D02*
X142407200Y-69976190D01*
X142407200Y-69976190D02*
X142454819Y-70119047D01*
X142454819Y-70119047D02*
X142454819Y-70214285D01*
X141788152Y-68928571D02*
X142454819Y-68928571D01*
X141407200Y-69166666D02*
X142121485Y-69404761D01*
X142121485Y-69404761D02*
X142121485Y-68785714D01*
X154388472Y-80060882D02*
X154388472Y-80710630D01*
X154388472Y-80710630D02*
X154426692Y-80787071D01*
X154426692Y-80787071D02*
X154464913Y-80825292D01*
X154464913Y-80825292D02*
X154541354Y-80863512D01*
X154541354Y-80863512D02*
X154694236Y-80863512D01*
X154694236Y-80863512D02*
X154770677Y-80825292D01*
X154770677Y-80825292D02*
X154808897Y-80787071D01*
X154808897Y-80787071D02*
X154847118Y-80710630D01*
X154847118Y-80710630D02*
X154847118Y-80060882D01*
X155649747Y-80863512D02*
X155191101Y-80863512D01*
X155420424Y-80863512D02*
X155420424Y-80060882D01*
X155420424Y-80060882D02*
X155343983Y-80175543D01*
X155343983Y-80175543D02*
X155267542Y-80251984D01*
X155267542Y-80251984D02*
X155191101Y-80290205D01*
X140454819Y-53333333D02*
X141169104Y-53333333D01*
X141169104Y-53333333D02*
X141311961Y-53380952D01*
X141311961Y-53380952D02*
X141407200Y-53476190D01*
X141407200Y-53476190D02*
X141454819Y-53619047D01*
X141454819Y-53619047D02*
X141454819Y-53714285D01*
X141454819Y-52857142D02*
X140454819Y-52857142D01*
X140454819Y-52857142D02*
X140454819Y-52476190D01*
X140454819Y-52476190D02*
X140502438Y-52380952D01*
X140502438Y-52380952D02*
X140550057Y-52333333D01*
X140550057Y-52333333D02*
X140645295Y-52285714D01*
X140645295Y-52285714D02*
X140788152Y-52285714D01*
X140788152Y-52285714D02*
X140883390Y-52333333D01*
X140883390Y-52333333D02*
X140931009Y-52380952D01*
X140931009Y-52380952D02*
X140978628Y-52476190D01*
X140978628Y-52476190D02*
X140978628Y-52857142D01*
X141454819Y-51333333D02*
X141454819Y-51904761D01*
X141454819Y-51619047D02*
X140454819Y-51619047D01*
X140454819Y-51619047D02*
X140597676Y-51714285D01*
X140597676Y-51714285D02*
X140692914Y-51809523D01*
X140692914Y-51809523D02*
X140740533Y-51904761D01*
X147333333Y-48454819D02*
X147000000Y-47978628D01*
X146761905Y-48454819D02*
X146761905Y-47454819D01*
X146761905Y-47454819D02*
X147142857Y-47454819D01*
X147142857Y-47454819D02*
X147238095Y-47502438D01*
X147238095Y-47502438D02*
X147285714Y-47550057D01*
X147285714Y-47550057D02*
X147333333Y-47645295D01*
X147333333Y-47645295D02*
X147333333Y-47788152D01*
X147333333Y-47788152D02*
X147285714Y-47883390D01*
X147285714Y-47883390D02*
X147238095Y-47931009D01*
X147238095Y-47931009D02*
X147142857Y-47978628D01*
X147142857Y-47978628D02*
X146761905Y-47978628D01*
X147666667Y-47454819D02*
X148333333Y-47454819D01*
X148333333Y-47454819D02*
X147904762Y-48454819D01*
X146859580Y-45716666D02*
X146907200Y-45764285D01*
X146907200Y-45764285D02*
X146954819Y-45907142D01*
X146954819Y-45907142D02*
X146954819Y-46002380D01*
X146954819Y-46002380D02*
X146907200Y-46145237D01*
X146907200Y-46145237D02*
X146811961Y-46240475D01*
X146811961Y-46240475D02*
X146716723Y-46288094D01*
X146716723Y-46288094D02*
X146526247Y-46335713D01*
X146526247Y-46335713D02*
X146383390Y-46335713D01*
X146383390Y-46335713D02*
X146192914Y-46288094D01*
X146192914Y-46288094D02*
X146097676Y-46240475D01*
X146097676Y-46240475D02*
X146002438Y-46145237D01*
X146002438Y-46145237D02*
X145954819Y-46002380D01*
X145954819Y-46002380D02*
X145954819Y-45907142D01*
X145954819Y-45907142D02*
X146002438Y-45764285D01*
X146002438Y-45764285D02*
X146050057Y-45716666D01*
X145954819Y-45383332D02*
X145954819Y-44716666D01*
X145954819Y-44716666D02*
X146954819Y-45145237D01*
X147333333Y-82359580D02*
X147285714Y-82407200D01*
X147285714Y-82407200D02*
X147142857Y-82454819D01*
X147142857Y-82454819D02*
X147047619Y-82454819D01*
X147047619Y-82454819D02*
X146904762Y-82407200D01*
X146904762Y-82407200D02*
X146809524Y-82311961D01*
X146809524Y-82311961D02*
X146761905Y-82216723D01*
X146761905Y-82216723D02*
X146714286Y-82026247D01*
X146714286Y-82026247D02*
X146714286Y-81883390D01*
X146714286Y-81883390D02*
X146761905Y-81692914D01*
X146761905Y-81692914D02*
X146809524Y-81597676D01*
X146809524Y-81597676D02*
X146904762Y-81502438D01*
X146904762Y-81502438D02*
X147047619Y-81454819D01*
X147047619Y-81454819D02*
X147142857Y-81454819D01*
X147142857Y-81454819D02*
X147285714Y-81502438D01*
X147285714Y-81502438D02*
X147333333Y-81550057D01*
X147714286Y-81550057D02*
X147761905Y-81502438D01*
X147761905Y-81502438D02*
X147857143Y-81454819D01*
X147857143Y-81454819D02*
X148095238Y-81454819D01*
X148095238Y-81454819D02*
X148190476Y-81502438D01*
X148190476Y-81502438D02*
X148238095Y-81550057D01*
X148238095Y-81550057D02*
X148285714Y-81645295D01*
X148285714Y-81645295D02*
X148285714Y-81740533D01*
X148285714Y-81740533D02*
X148238095Y-81883390D01*
X148238095Y-81883390D02*
X147666667Y-82454819D01*
X147666667Y-82454819D02*
X148285714Y-82454819D01*
X166166667Y-75407200D02*
X166309524Y-75454819D01*
X166309524Y-75454819D02*
X166547619Y-75454819D01*
X166547619Y-75454819D02*
X166642857Y-75407200D01*
X166642857Y-75407200D02*
X166690476Y-75359580D01*
X166690476Y-75359580D02*
X166738095Y-75264342D01*
X166738095Y-75264342D02*
X166738095Y-75169104D01*
X166738095Y-75169104D02*
X166690476Y-75073866D01*
X166690476Y-75073866D02*
X166642857Y-75026247D01*
X166642857Y-75026247D02*
X166547619Y-74978628D01*
X166547619Y-74978628D02*
X166357143Y-74931009D01*
X166357143Y-74931009D02*
X166261905Y-74883390D01*
X166261905Y-74883390D02*
X166214286Y-74835771D01*
X166214286Y-74835771D02*
X166166667Y-74740533D01*
X166166667Y-74740533D02*
X166166667Y-74645295D01*
X166166667Y-74645295D02*
X166214286Y-74550057D01*
X166214286Y-74550057D02*
X166261905Y-74502438D01*
X166261905Y-74502438D02*
X166357143Y-74454819D01*
X166357143Y-74454819D02*
X166595238Y-74454819D01*
X166595238Y-74454819D02*
X166738095Y-74502438D01*
X167071429Y-74454819D02*
X167309524Y-75454819D01*
X167309524Y-75454819D02*
X167500000Y-74740533D01*
X167500000Y-74740533D02*
X167690476Y-75454819D01*
X167690476Y-75454819D02*
X167928572Y-74454819D01*
X168261905Y-74550057D02*
X168309524Y-74502438D01*
X168309524Y-74502438D02*
X168404762Y-74454819D01*
X168404762Y-74454819D02*
X168642857Y-74454819D01*
X168642857Y-74454819D02*
X168738095Y-74502438D01*
X168738095Y-74502438D02*
X168785714Y-74550057D01*
X168785714Y-74550057D02*
X168833333Y-74645295D01*
X168833333Y-74645295D02*
X168833333Y-74740533D01*
X168833333Y-74740533D02*
X168785714Y-74883390D01*
X168785714Y-74883390D02*
X168214286Y-75454819D01*
X168214286Y-75454819D02*
X168833333Y-75454819D01*
X150333333Y-82309580D02*
X150285714Y-82357200D01*
X150285714Y-82357200D02*
X150142857Y-82404819D01*
X150142857Y-82404819D02*
X150047619Y-82404819D01*
X150047619Y-82404819D02*
X149904762Y-82357200D01*
X149904762Y-82357200D02*
X149809524Y-82261961D01*
X149809524Y-82261961D02*
X149761905Y-82166723D01*
X149761905Y-82166723D02*
X149714286Y-81976247D01*
X149714286Y-81976247D02*
X149714286Y-81833390D01*
X149714286Y-81833390D02*
X149761905Y-81642914D01*
X149761905Y-81642914D02*
X149809524Y-81547676D01*
X149809524Y-81547676D02*
X149904762Y-81452438D01*
X149904762Y-81452438D02*
X150047619Y-81404819D01*
X150047619Y-81404819D02*
X150142857Y-81404819D01*
X150142857Y-81404819D02*
X150285714Y-81452438D01*
X150285714Y-81452438D02*
X150333333Y-81500057D01*
X150666667Y-81404819D02*
X151285714Y-81404819D01*
X151285714Y-81404819D02*
X150952381Y-81785771D01*
X150952381Y-81785771D02*
X151095238Y-81785771D01*
X151095238Y-81785771D02*
X151190476Y-81833390D01*
X151190476Y-81833390D02*
X151238095Y-81881009D01*
X151238095Y-81881009D02*
X151285714Y-81976247D01*
X151285714Y-81976247D02*
X151285714Y-82214342D01*
X151285714Y-82214342D02*
X151238095Y-82309580D01*
X151238095Y-82309580D02*
X151190476Y-82357200D01*
X151190476Y-82357200D02*
X151095238Y-82404819D01*
X151095238Y-82404819D02*
X150809524Y-82404819D01*
X150809524Y-82404819D02*
X150714286Y-82357200D01*
X150714286Y-82357200D02*
X150666667Y-82309580D01*
X133166667Y-51907200D02*
X133309524Y-51954819D01*
X133309524Y-51954819D02*
X133547619Y-51954819D01*
X133547619Y-51954819D02*
X133642857Y-51907200D01*
X133642857Y-51907200D02*
X133690476Y-51859580D01*
X133690476Y-51859580D02*
X133738095Y-51764342D01*
X133738095Y-51764342D02*
X133738095Y-51669104D01*
X133738095Y-51669104D02*
X133690476Y-51573866D01*
X133690476Y-51573866D02*
X133642857Y-51526247D01*
X133642857Y-51526247D02*
X133547619Y-51478628D01*
X133547619Y-51478628D02*
X133357143Y-51431009D01*
X133357143Y-51431009D02*
X133261905Y-51383390D01*
X133261905Y-51383390D02*
X133214286Y-51335771D01*
X133214286Y-51335771D02*
X133166667Y-51240533D01*
X133166667Y-51240533D02*
X133166667Y-51145295D01*
X133166667Y-51145295D02*
X133214286Y-51050057D01*
X133214286Y-51050057D02*
X133261905Y-51002438D01*
X133261905Y-51002438D02*
X133357143Y-50954819D01*
X133357143Y-50954819D02*
X133595238Y-50954819D01*
X133595238Y-50954819D02*
X133738095Y-51002438D01*
X134071429Y-50954819D02*
X134309524Y-51954819D01*
X134309524Y-51954819D02*
X134500000Y-51240533D01*
X134500000Y-51240533D02*
X134690476Y-51954819D01*
X134690476Y-51954819D02*
X134928572Y-50954819D01*
X135833333Y-51954819D02*
X135261905Y-51954819D01*
X135547619Y-51954819D02*
X135547619Y-50954819D01*
X135547619Y-50954819D02*
X135452381Y-51097676D01*
X135452381Y-51097676D02*
X135357143Y-51192914D01*
X135357143Y-51192914D02*
X135261905Y-51240533D01*
X147164320Y-51451037D02*
X147164320Y-52170350D01*
X147164320Y-52170350D02*
X147116366Y-52314213D01*
X147116366Y-52314213D02*
X147020457Y-52410122D01*
X147020457Y-52410122D02*
X146876595Y-52458076D01*
X146876595Y-52458076D02*
X146780686Y-52458076D01*
X148171359Y-52458076D02*
X147595908Y-52458076D01*
X147883634Y-52458076D02*
X147883634Y-51451037D01*
X147883634Y-51451037D02*
X147787725Y-51594899D01*
X147787725Y-51594899D02*
X147691817Y-51690808D01*
X147691817Y-51690808D02*
X147595908Y-51738762D01*
X151954819Y-51261904D02*
X152764342Y-51261904D01*
X152764342Y-51261904D02*
X152859580Y-51214285D01*
X152859580Y-51214285D02*
X152907200Y-51166666D01*
X152907200Y-51166666D02*
X152954819Y-51071428D01*
X152954819Y-51071428D02*
X152954819Y-50880952D01*
X152954819Y-50880952D02*
X152907200Y-50785714D01*
X152907200Y-50785714D02*
X152859580Y-50738095D01*
X152859580Y-50738095D02*
X152764342Y-50690476D01*
X152764342Y-50690476D02*
X151954819Y-50690476D01*
X152050057Y-50261904D02*
X152002438Y-50214285D01*
X152002438Y-50214285D02*
X151954819Y-50119047D01*
X151954819Y-50119047D02*
X151954819Y-49880952D01*
X151954819Y-49880952D02*
X152002438Y-49785714D01*
X152002438Y-49785714D02*
X152050057Y-49738095D01*
X152050057Y-49738095D02*
X152145295Y-49690476D01*
X152145295Y-49690476D02*
X152240533Y-49690476D01*
X152240533Y-49690476D02*
X152383390Y-49738095D01*
X152383390Y-49738095D02*
X152954819Y-50309523D01*
X152954819Y-50309523D02*
X152954819Y-49690476D01*
X158333333Y-77359580D02*
X158285714Y-77407200D01*
X158285714Y-77407200D02*
X158142857Y-77454819D01*
X158142857Y-77454819D02*
X158047619Y-77454819D01*
X158047619Y-77454819D02*
X157904762Y-77407200D01*
X157904762Y-77407200D02*
X157809524Y-77311961D01*
X157809524Y-77311961D02*
X157761905Y-77216723D01*
X157761905Y-77216723D02*
X157714286Y-77026247D01*
X157714286Y-77026247D02*
X157714286Y-76883390D01*
X157714286Y-76883390D02*
X157761905Y-76692914D01*
X157761905Y-76692914D02*
X157809524Y-76597676D01*
X157809524Y-76597676D02*
X157904762Y-76502438D01*
X157904762Y-76502438D02*
X158047619Y-76454819D01*
X158047619Y-76454819D02*
X158142857Y-76454819D01*
X158142857Y-76454819D02*
X158285714Y-76502438D01*
X158285714Y-76502438D02*
X158333333Y-76550057D01*
X158904762Y-76883390D02*
X158809524Y-76835771D01*
X158809524Y-76835771D02*
X158761905Y-76788152D01*
X158761905Y-76788152D02*
X158714286Y-76692914D01*
X158714286Y-76692914D02*
X158714286Y-76645295D01*
X158714286Y-76645295D02*
X158761905Y-76550057D01*
X158761905Y-76550057D02*
X158809524Y-76502438D01*
X158809524Y-76502438D02*
X158904762Y-76454819D01*
X158904762Y-76454819D02*
X159095238Y-76454819D01*
X159095238Y-76454819D02*
X159190476Y-76502438D01*
X159190476Y-76502438D02*
X159238095Y-76550057D01*
X159238095Y-76550057D02*
X159285714Y-76645295D01*
X159285714Y-76645295D02*
X159285714Y-76692914D01*
X159285714Y-76692914D02*
X159238095Y-76788152D01*
X159238095Y-76788152D02*
X159190476Y-76835771D01*
X159190476Y-76835771D02*
X159095238Y-76883390D01*
X159095238Y-76883390D02*
X158904762Y-76883390D01*
X158904762Y-76883390D02*
X158809524Y-76931009D01*
X158809524Y-76931009D02*
X158761905Y-76978628D01*
X158761905Y-76978628D02*
X158714286Y-77073866D01*
X158714286Y-77073866D02*
X158714286Y-77264342D01*
X158714286Y-77264342D02*
X158761905Y-77359580D01*
X158761905Y-77359580D02*
X158809524Y-77407200D01*
X158809524Y-77407200D02*
X158904762Y-77454819D01*
X158904762Y-77454819D02*
X159095238Y-77454819D01*
X159095238Y-77454819D02*
X159190476Y-77407200D01*
X159190476Y-77407200D02*
X159238095Y-77359580D01*
X159238095Y-77359580D02*
X159285714Y-77264342D01*
X159285714Y-77264342D02*
X159285714Y-77073866D01*
X159285714Y-77073866D02*
X159238095Y-76978628D01*
X159238095Y-76978628D02*
X159190476Y-76931009D01*
X159190476Y-76931009D02*
X159095238Y-76883390D01*
X148454819Y-86261904D02*
X148454819Y-85690476D01*
X149454819Y-85976190D02*
X148454819Y-85976190D01*
X149454819Y-85357142D02*
X148454819Y-85357142D01*
X148454819Y-85357142D02*
X148454819Y-84976190D01*
X148454819Y-84976190D02*
X148502438Y-84880952D01*
X148502438Y-84880952D02*
X148550057Y-84833333D01*
X148550057Y-84833333D02*
X148645295Y-84785714D01*
X148645295Y-84785714D02*
X148788152Y-84785714D01*
X148788152Y-84785714D02*
X148883390Y-84833333D01*
X148883390Y-84833333D02*
X148931009Y-84880952D01*
X148931009Y-84880952D02*
X148978628Y-84976190D01*
X148978628Y-84976190D02*
X148978628Y-85357142D01*
X149454819Y-83833333D02*
X149454819Y-84404761D01*
X149454819Y-84119047D02*
X148454819Y-84119047D01*
X148454819Y-84119047D02*
X148597676Y-84214285D01*
X148597676Y-84214285D02*
X148692914Y-84309523D01*
X148692914Y-84309523D02*
X148740533Y-84404761D01*
X148842261Y-67550057D02*
X148747023Y-67502438D01*
X148747023Y-67502438D02*
X148651785Y-67407200D01*
X148651785Y-67407200D02*
X148508928Y-67264342D01*
X148508928Y-67264342D02*
X148413690Y-67216723D01*
X148413690Y-67216723D02*
X148318452Y-67216723D01*
X148366071Y-67454819D02*
X148270833Y-67407200D01*
X148270833Y-67407200D02*
X148175595Y-67311961D01*
X148175595Y-67311961D02*
X148127976Y-67121485D01*
X148127976Y-67121485D02*
X148127976Y-66788152D01*
X148127976Y-66788152D02*
X148175595Y-66597676D01*
X148175595Y-66597676D02*
X148270833Y-66502438D01*
X148270833Y-66502438D02*
X148366071Y-66454819D01*
X148366071Y-66454819D02*
X148556547Y-66454819D01*
X148556547Y-66454819D02*
X148651785Y-66502438D01*
X148651785Y-66502438D02*
X148747023Y-66597676D01*
X148747023Y-66597676D02*
X148794642Y-66788152D01*
X148794642Y-66788152D02*
X148794642Y-67121485D01*
X148794642Y-67121485D02*
X148747023Y-67311961D01*
X148747023Y-67311961D02*
X148651785Y-67407200D01*
X148651785Y-67407200D02*
X148556547Y-67454819D01*
X148556547Y-67454819D02*
X148366071Y-67454819D01*
X149747023Y-67454819D02*
X149175595Y-67454819D01*
X149461309Y-67454819D02*
X149461309Y-66454819D01*
X149461309Y-66454819D02*
X149366071Y-66597676D01*
X149366071Y-66597676D02*
X149270833Y-66692914D01*
X149270833Y-66692914D02*
X149175595Y-66740533D01*
X161333333Y-70454819D02*
X161000000Y-69978628D01*
X160761905Y-70454819D02*
X160761905Y-69454819D01*
X160761905Y-69454819D02*
X161142857Y-69454819D01*
X161142857Y-69454819D02*
X161238095Y-69502438D01*
X161238095Y-69502438D02*
X161285714Y-69550057D01*
X161285714Y-69550057D02*
X161333333Y-69645295D01*
X161333333Y-69645295D02*
X161333333Y-69788152D01*
X161333333Y-69788152D02*
X161285714Y-69883390D01*
X161285714Y-69883390D02*
X161238095Y-69931009D01*
X161238095Y-69931009D02*
X161142857Y-69978628D01*
X161142857Y-69978628D02*
X160761905Y-69978628D01*
X162190476Y-69454819D02*
X162000000Y-69454819D01*
X162000000Y-69454819D02*
X161904762Y-69502438D01*
X161904762Y-69502438D02*
X161857143Y-69550057D01*
X161857143Y-69550057D02*
X161761905Y-69692914D01*
X161761905Y-69692914D02*
X161714286Y-69883390D01*
X161714286Y-69883390D02*
X161714286Y-70264342D01*
X161714286Y-70264342D02*
X161761905Y-70359580D01*
X161761905Y-70359580D02*
X161809524Y-70407200D01*
X161809524Y-70407200D02*
X161904762Y-70454819D01*
X161904762Y-70454819D02*
X162095238Y-70454819D01*
X162095238Y-70454819D02*
X162190476Y-70407200D01*
X162190476Y-70407200D02*
X162238095Y-70359580D01*
X162238095Y-70359580D02*
X162285714Y-70264342D01*
X162285714Y-70264342D02*
X162285714Y-70026247D01*
X162285714Y-70026247D02*
X162238095Y-69931009D01*
X162238095Y-69931009D02*
X162190476Y-69883390D01*
X162190476Y-69883390D02*
X162095238Y-69835771D01*
X162095238Y-69835771D02*
X161904762Y-69835771D01*
X161904762Y-69835771D02*
X161809524Y-69883390D01*
X161809524Y-69883390D02*
X161761905Y-69931009D01*
X161761905Y-69931009D02*
X161714286Y-70026247D01*
X161081666Y-82454819D02*
X161081666Y-83169104D01*
X161081666Y-83169104D02*
X161034047Y-83311961D01*
X161034047Y-83311961D02*
X160938809Y-83407200D01*
X160938809Y-83407200D02*
X160795952Y-83454819D01*
X160795952Y-83454819D02*
X160700714Y-83454819D01*
X161510238Y-82550057D02*
X161557857Y-82502438D01*
X161557857Y-82502438D02*
X161653095Y-82454819D01*
X161653095Y-82454819D02*
X161891190Y-82454819D01*
X161891190Y-82454819D02*
X161986428Y-82502438D01*
X161986428Y-82502438D02*
X162034047Y-82550057D01*
X162034047Y-82550057D02*
X162081666Y-82645295D01*
X162081666Y-82645295D02*
X162081666Y-82740533D01*
X162081666Y-82740533D02*
X162034047Y-82883390D01*
X162034047Y-82883390D02*
X161462619Y-83454819D01*
X161462619Y-83454819D02*
X162081666Y-83454819D01*
X143833333Y-67454819D02*
X143500000Y-66978628D01*
X143261905Y-67454819D02*
X143261905Y-66454819D01*
X143261905Y-66454819D02*
X143642857Y-66454819D01*
X143642857Y-66454819D02*
X143738095Y-66502438D01*
X143738095Y-66502438D02*
X143785714Y-66550057D01*
X143785714Y-66550057D02*
X143833333Y-66645295D01*
X143833333Y-66645295D02*
X143833333Y-66788152D01*
X143833333Y-66788152D02*
X143785714Y-66883390D01*
X143785714Y-66883390D02*
X143738095Y-66931009D01*
X143738095Y-66931009D02*
X143642857Y-66978628D01*
X143642857Y-66978628D02*
X143261905Y-66978628D01*
X144738095Y-66454819D02*
X144261905Y-66454819D01*
X144261905Y-66454819D02*
X144214286Y-66931009D01*
X144214286Y-66931009D02*
X144261905Y-66883390D01*
X144261905Y-66883390D02*
X144357143Y-66835771D01*
X144357143Y-66835771D02*
X144595238Y-66835771D01*
X144595238Y-66835771D02*
X144690476Y-66883390D01*
X144690476Y-66883390D02*
X144738095Y-66931009D01*
X144738095Y-66931009D02*
X144785714Y-67026247D01*
X144785714Y-67026247D02*
X144785714Y-67264342D01*
X144785714Y-67264342D02*
X144738095Y-67359580D01*
X144738095Y-67359580D02*
X144690476Y-67407200D01*
X144690476Y-67407200D02*
X144595238Y-67454819D01*
X144595238Y-67454819D02*
X144357143Y-67454819D01*
X144357143Y-67454819D02*
X144261905Y-67407200D01*
X144261905Y-67407200D02*
X144214286Y-67359580D01*
X157404761Y-70550057D02*
X157309523Y-70502438D01*
X157309523Y-70502438D02*
X157214285Y-70407200D01*
X157214285Y-70407200D02*
X157071428Y-70264342D01*
X157071428Y-70264342D02*
X156976190Y-70216723D01*
X156976190Y-70216723D02*
X156880952Y-70216723D01*
X156928571Y-70454819D02*
X156833333Y-70407200D01*
X156833333Y-70407200D02*
X156738095Y-70311961D01*
X156738095Y-70311961D02*
X156690476Y-70121485D01*
X156690476Y-70121485D02*
X156690476Y-69788152D01*
X156690476Y-69788152D02*
X156738095Y-69597676D01*
X156738095Y-69597676D02*
X156833333Y-69502438D01*
X156833333Y-69502438D02*
X156928571Y-69454819D01*
X156928571Y-69454819D02*
X157119047Y-69454819D01*
X157119047Y-69454819D02*
X157214285Y-69502438D01*
X157214285Y-69502438D02*
X157309523Y-69597676D01*
X157309523Y-69597676D02*
X157357142Y-69788152D01*
X157357142Y-69788152D02*
X157357142Y-70121485D01*
X157357142Y-70121485D02*
X157309523Y-70311961D01*
X157309523Y-70311961D02*
X157214285Y-70407200D01*
X157214285Y-70407200D02*
X157119047Y-70454819D01*
X157119047Y-70454819D02*
X156928571Y-70454819D01*
X157738095Y-69550057D02*
X157785714Y-69502438D01*
X157785714Y-69502438D02*
X157880952Y-69454819D01*
X157880952Y-69454819D02*
X158119047Y-69454819D01*
X158119047Y-69454819D02*
X158214285Y-69502438D01*
X158214285Y-69502438D02*
X158261904Y-69550057D01*
X158261904Y-69550057D02*
X158309523Y-69645295D01*
X158309523Y-69645295D02*
X158309523Y-69740533D01*
X158309523Y-69740533D02*
X158261904Y-69883390D01*
X158261904Y-69883390D02*
X157690476Y-70454819D01*
X157690476Y-70454819D02*
X158309523Y-70454819D01*
X144333333Y-82309580D02*
X144285714Y-82357200D01*
X144285714Y-82357200D02*
X144142857Y-82404819D01*
X144142857Y-82404819D02*
X144047619Y-82404819D01*
X144047619Y-82404819D02*
X143904762Y-82357200D01*
X143904762Y-82357200D02*
X143809524Y-82261961D01*
X143809524Y-82261961D02*
X143761905Y-82166723D01*
X143761905Y-82166723D02*
X143714286Y-81976247D01*
X143714286Y-81976247D02*
X143714286Y-81833390D01*
X143714286Y-81833390D02*
X143761905Y-81642914D01*
X143761905Y-81642914D02*
X143809524Y-81547676D01*
X143809524Y-81547676D02*
X143904762Y-81452438D01*
X143904762Y-81452438D02*
X144047619Y-81404819D01*
X144047619Y-81404819D02*
X144142857Y-81404819D01*
X144142857Y-81404819D02*
X144285714Y-81452438D01*
X144285714Y-81452438D02*
X144333333Y-81500057D01*
X145285714Y-82404819D02*
X144714286Y-82404819D01*
X145000000Y-82404819D02*
X145000000Y-81404819D01*
X145000000Y-81404819D02*
X144904762Y-81547676D01*
X144904762Y-81547676D02*
X144809524Y-81642914D01*
X144809524Y-81642914D02*
X144714286Y-81690533D01*
X155441666Y-83654819D02*
X155441666Y-84369104D01*
X155441666Y-84369104D02*
X155394047Y-84511961D01*
X155394047Y-84511961D02*
X155298809Y-84607200D01*
X155298809Y-84607200D02*
X155155952Y-84654819D01*
X155155952Y-84654819D02*
X155060714Y-84654819D01*
X155917857Y-84654819D02*
X155917857Y-83654819D01*
X155917857Y-83654819D02*
X156298809Y-83654819D01*
X156298809Y-83654819D02*
X156394047Y-83702438D01*
X156394047Y-83702438D02*
X156441666Y-83750057D01*
X156441666Y-83750057D02*
X156489285Y-83845295D01*
X156489285Y-83845295D02*
X156489285Y-83988152D01*
X156489285Y-83988152D02*
X156441666Y-84083390D01*
X156441666Y-84083390D02*
X156394047Y-84131009D01*
X156394047Y-84131009D02*
X156298809Y-84178628D01*
X156298809Y-84178628D02*
X155917857Y-84178628D01*
X156870238Y-83750057D02*
X156917857Y-83702438D01*
X156917857Y-83702438D02*
X157013095Y-83654819D01*
X157013095Y-83654819D02*
X157251190Y-83654819D01*
X157251190Y-83654819D02*
X157346428Y-83702438D01*
X157346428Y-83702438D02*
X157394047Y-83750057D01*
X157394047Y-83750057D02*
X157441666Y-83845295D01*
X157441666Y-83845295D02*
X157441666Y-83940533D01*
X157441666Y-83940533D02*
X157394047Y-84083390D01*
X157394047Y-84083390D02*
X156822619Y-84654819D01*
X156822619Y-84654819D02*
X157441666Y-84654819D01*
X142954819Y-86261904D02*
X142954819Y-85690476D01*
X143954819Y-85976190D02*
X142954819Y-85976190D01*
X143954819Y-85357142D02*
X142954819Y-85357142D01*
X142954819Y-85357142D02*
X142954819Y-84976190D01*
X142954819Y-84976190D02*
X143002438Y-84880952D01*
X143002438Y-84880952D02*
X143050057Y-84833333D01*
X143050057Y-84833333D02*
X143145295Y-84785714D01*
X143145295Y-84785714D02*
X143288152Y-84785714D01*
X143288152Y-84785714D02*
X143383390Y-84833333D01*
X143383390Y-84833333D02*
X143431009Y-84880952D01*
X143431009Y-84880952D02*
X143478628Y-84976190D01*
X143478628Y-84976190D02*
X143478628Y-85357142D01*
X143050057Y-84404761D02*
X143002438Y-84357142D01*
X143002438Y-84357142D02*
X142954819Y-84261904D01*
X142954819Y-84261904D02*
X142954819Y-84023809D01*
X142954819Y-84023809D02*
X143002438Y-83928571D01*
X143002438Y-83928571D02*
X143050057Y-83880952D01*
X143050057Y-83880952D02*
X143145295Y-83833333D01*
X143145295Y-83833333D02*
X143240533Y-83833333D01*
X143240533Y-83833333D02*
X143383390Y-83880952D01*
X143383390Y-83880952D02*
X143954819Y-84452380D01*
X143954819Y-84452380D02*
X143954819Y-83833333D01*
D12*
%TO.C,C4*%
X144265000Y-45761252D02*
X144265000Y-45238748D01*
X145735000Y-45761252D02*
X145735000Y-45238748D01*
%TO.C,J3*%
X131580000Y-86160000D02*
X131580000Y-86900000D01*
X131580000Y-86900000D02*
X132080000Y-86900000D01*
X131820000Y-76739000D02*
X131820000Y-86660000D01*
X131820000Y-76739000D02*
X142100000Y-76739000D01*
X131820000Y-79699000D02*
X142100000Y-79699000D01*
X131820000Y-84600000D02*
X142100000Y-84600000D01*
X131820000Y-86100000D02*
X142100000Y-86100000D01*
X131820000Y-86660000D02*
X142100000Y-86660000D01*
X138273000Y-83023000D02*
X138226000Y-83069000D01*
X138466000Y-83239000D02*
X138431000Y-83274000D01*
X140570000Y-80725000D02*
X140535000Y-80761000D01*
X140775000Y-80931000D02*
X140728000Y-80977000D01*
X142100000Y-76739000D02*
X142100000Y-86660000D01*
X132884574Y-82683042D02*
G75*
G02*
X132885001Y-81316001I1535419J683041D01*
G01*
X133736958Y-80464574D02*
G75*
G02*
X135103999Y-80465001I683041J-1535419D01*
G01*
X134448805Y-83680252D02*
G75*
G02*
X133736000Y-83534999I-28806J1680253D01*
G01*
X135103318Y-83534755D02*
G75*
G02*
X134420000Y-83679999I-683318J1534755D01*
G01*
X135955426Y-81316958D02*
G75*
G02*
X135955000Y-82684000I-1535426J-683042D01*
G01*
X141180000Y-82000000D02*
G75*
G02*
X137820000Y-82000000I-1680000J0D01*
G01*
X137820000Y-82000000D02*
G75*
G02*
X141180000Y-82000000I1680000J0D01*
G01*
%TO.C,C5*%
X165765000Y-72238748D02*
X165765000Y-72761252D01*
X167235000Y-72238748D02*
X167235000Y-72761252D01*
%TO.C,C6*%
X150265000Y-45761252D02*
X150265000Y-45238748D01*
X151735000Y-45761252D02*
X151735000Y-45238748D01*
%TO.C,R3*%
X170765000Y-72272936D02*
X170765000Y-72727064D01*
X172235000Y-72272936D02*
X172235000Y-72727064D01*
%TO.C,R1*%
X152727064Y-72765000D02*
X152272936Y-72765000D01*
X152727064Y-74235000D02*
X152272936Y-74235000D01*
%TO.C,R4*%
X168265000Y-72272936D02*
X168265000Y-72727064D01*
X169735000Y-72272936D02*
X169735000Y-72727064D01*
%TO.C,C9*%
X158761252Y-81265000D02*
X158238748Y-81265000D01*
X158761252Y-82735000D02*
X158238748Y-82735000D01*
%TO.C,R2*%
X152272936Y-69765000D02*
X152727064Y-69765000D01*
X152272936Y-71235000D02*
X152727064Y-71235000D01*
%TO.C,R8*%
X163265000Y-72727064D02*
X163265000Y-72272936D01*
X164735000Y-72727064D02*
X164735000Y-72272936D01*
%TO.C,J4*%
X130280000Y-59500000D02*
X130280000Y-60500000D01*
X130280000Y-60500000D02*
X131280000Y-60000000D01*
X131280000Y-60000000D02*
X130280000Y-59500000D01*
X131670000Y-54790000D02*
X140790000Y-54790000D01*
X131670000Y-63030000D02*
X132980000Y-63030000D01*
X131670000Y-75370000D02*
X131670000Y-54790000D01*
X132980000Y-56090000D02*
X139480000Y-56090000D01*
X132980000Y-63030000D02*
X132980000Y-56090000D01*
X132980000Y-67130000D02*
X131670000Y-67130000D01*
X132980000Y-67130000D02*
X132980000Y-67130000D01*
X132980000Y-74070000D02*
X132980000Y-67130000D01*
X139480000Y-56090000D02*
X139480000Y-74070000D01*
X139480000Y-74070000D02*
X132980000Y-74070000D01*
X140790000Y-54790000D02*
X140790000Y-75370000D01*
X140790000Y-75370000D02*
X131670000Y-75370000D01*
D13*
%TO.C,U1*%
X152778392Y-76808216D02*
X152778392Y-78508216D01*
X152778392Y-76808216D02*
X152878392Y-76808216D01*
X152778392Y-78508216D02*
X152878392Y-78508216D01*
X155878392Y-76808216D02*
X155778392Y-76808216D01*
X155878392Y-76808216D02*
X155878392Y-78508216D01*
X155878392Y-78508216D02*
X155778392Y-78508216D01*
D14*
X153478392Y-80127216D02*
G75*
G02*
X153278392Y-80127216I-100000J0D01*
G01*
X153278392Y-80127216D02*
G75*
G02*
X153478392Y-80127216I100000J0D01*
G01*
D12*
%TO.C,JP1*%
X137100000Y-51500000D02*
X139900000Y-51500000D01*
X137100000Y-53500000D02*
X137100000Y-51500000D01*
X139900000Y-51500000D02*
X139900000Y-53500000D01*
X139900000Y-53500000D02*
X137100000Y-53500000D01*
%TO.C,R7*%
X147727064Y-48765000D02*
X147272936Y-48765000D01*
X147727064Y-50235000D02*
X147272936Y-50235000D01*
%TO.C,C7*%
X147265000Y-45811252D02*
X147265000Y-45288748D01*
X148735000Y-45811252D02*
X148735000Y-45288748D01*
%TO.C,C2*%
X146765000Y-79238748D02*
X146765000Y-79761252D01*
X148235000Y-79238748D02*
X148235000Y-79761252D01*
%TO.C,SW2*%
X164350000Y-76050000D02*
X170650000Y-76050000D01*
X164350000Y-76300000D02*
X164350000Y-76050000D01*
X164350000Y-80800000D02*
X164350000Y-78200000D01*
X164350000Y-82950000D02*
X164350000Y-82700000D01*
X170650000Y-76050000D02*
X170650000Y-76300000D01*
X170650000Y-78200000D02*
X170650000Y-80800000D01*
X170650000Y-82700000D02*
X170650000Y-82950000D01*
X170650000Y-82950000D02*
X164350000Y-82950000D01*
%TO.C,C3*%
X149765000Y-79238748D02*
X149765000Y-79761252D01*
X151235000Y-79238748D02*
X151235000Y-79761252D01*
%TO.C,SW1*%
X134350000Y-43550000D02*
X140650000Y-43550000D01*
X134350000Y-43800000D02*
X134350000Y-43550000D01*
X134350000Y-48300000D02*
X134350000Y-45700000D01*
X134350000Y-50450000D02*
X134350000Y-50200000D01*
X140650000Y-43550000D02*
X140650000Y-43800000D01*
X140650000Y-45700000D02*
X140650000Y-48300000D01*
X140650000Y-50200000D02*
X140650000Y-50450000D01*
X140650000Y-50450000D02*
X134350000Y-50450000D01*
D13*
%TO.C,J1*%
X142500000Y-53000000D02*
X142500000Y-66000000D01*
X142500000Y-66000000D02*
X152500000Y-66000000D01*
X146135000Y-53000000D02*
X142500000Y-53000000D01*
X152500000Y-53000000D02*
X148865000Y-53000000D01*
X152500000Y-66000000D02*
X152500000Y-53000000D01*
D15*
X147600000Y-66651000D02*
G75*
G02*
X147400000Y-66651000I-100000J0D01*
G01*
X147400000Y-66651000D02*
G75*
G02*
X147600000Y-66651000I100000J0D01*
G01*
D16*
%TO.C,U2*%
X154119000Y-36935880D02*
X172381600Y-36935880D01*
X154119000Y-43722760D02*
X154119000Y-36935880D01*
X154119000Y-68584280D02*
X154119000Y-68137240D01*
X172381600Y-36935880D02*
X172381600Y-43722760D01*
X172381600Y-68137240D02*
X172381600Y-68584280D01*
X172381600Y-68584280D02*
X154119000Y-68584280D01*
X152391800Y-44500000D02*
G75*
G02*
X152137800Y-44500000I-127000J0D01*
G01*
X152137800Y-44500000D02*
G75*
G02*
X152391800Y-44500000I127000J0D01*
G01*
D12*
%TO.C,C8*%
X158761252Y-77765000D02*
X158238748Y-77765000D01*
X158761252Y-79235000D02*
X158238748Y-79235000D01*
D11*
%TO.C,TP1*%
X153250000Y-85000000D02*
G75*
G02*
X149750000Y-85000000I-1750000J0D01*
G01*
X149750000Y-85000000D02*
G75*
G02*
X153250000Y-85000000I1750000J0D01*
G01*
D12*
%TO.C,Q1*%
X147937500Y-67940000D02*
X147287500Y-67940000D01*
X147937500Y-67940000D02*
X148587500Y-67940000D01*
X147937500Y-71060000D02*
X147287500Y-71060000D01*
X147937500Y-71060000D02*
X148587500Y-71060000D01*
X149340000Y-71340000D02*
X148860000Y-71340000D01*
X149100000Y-71010000D01*
X149340000Y-71340000D01*
G36*
X149340000Y-71340000D02*
G01*
X148860000Y-71340000D01*
X149100000Y-71010000D01*
X149340000Y-71340000D01*
G37*
%TO.C,R6*%
X160765000Y-72814564D02*
X160765000Y-72360436D01*
X162235000Y-72814564D02*
X162235000Y-72360436D01*
%TO.C,J2*%
X159510000Y-86830000D02*
X159510000Y-85500000D01*
X160840000Y-86830000D02*
X159510000Y-86830000D01*
X162110000Y-84170000D02*
X172330000Y-84170000D01*
X162110000Y-86830000D02*
X162110000Y-84170000D01*
X162110000Y-86830000D02*
X172330000Y-86830000D01*
X172330000Y-86830000D02*
X172330000Y-84170000D01*
%TO.C,R5*%
X143265000Y-69272936D02*
X143265000Y-69727064D01*
X144735000Y-69272936D02*
X144735000Y-69727064D01*
%TO.C,Q2*%
X157562500Y-70940000D02*
X156912500Y-70940000D01*
X157562500Y-70940000D02*
X158212500Y-70940000D01*
X157562500Y-74060000D02*
X156912500Y-74060000D01*
X157562500Y-74060000D02*
X158212500Y-74060000D01*
X156400000Y-70990000D02*
X156160000Y-70660000D01*
X156640000Y-70660000D01*
X156400000Y-70990000D01*
G36*
X156400000Y-70990000D02*
G01*
X156160000Y-70660000D01*
X156640000Y-70660000D01*
X156400000Y-70990000D01*
G37*
%TO.C,C1*%
X143765000Y-79238748D02*
X143765000Y-79761252D01*
X145235000Y-79238748D02*
X145235000Y-79761252D01*
%TO.C,JP2*%
X154875000Y-85000000D02*
X157675000Y-85000000D01*
X154875000Y-87000000D02*
X154875000Y-85000000D01*
X157675000Y-85000000D02*
X157675000Y-87000000D01*
X157675000Y-87000000D02*
X154875000Y-87000000D01*
D11*
%TO.C,TP2*%
X147750000Y-85000000D02*
G75*
G02*
X144250000Y-85000000I-1750000J0D01*
G01*
X144250000Y-85000000D02*
G75*
G02*
X147750000Y-85000000I1750000J0D01*
G01*
%TD*%
M02*
