%TF.GenerationSoftware,KiCad,Pcbnew,8.0.1*%
%TF.CreationDate,2024-04-07T23:26:14-05:00*%
%TF.ProjectId,ece445_headset,65636534-3435-45f6-9865-61647365742e,rev?*%
%TF.SameCoordinates,Original*%
%TF.FileFunction,Soldermask,Top*%
%TF.FilePolarity,Negative*%
%FSLAX46Y46*%
G04 Gerber Fmt 4.6, Leading zero omitted, Abs format (unit mm)*
G04 Created by KiCad (PCBNEW 8.0.1) date 2024-04-07 23:26:14*
%MOMM*%
%LPD*%
G01*
G04 APERTURE LIST*
G04 Aperture macros list*
%AMRoundRect*
0 Rectangle with rounded corners*
0 $1 Rounding radius*
0 $2 $3 $4 $5 $6 $7 $8 $9 X,Y pos of 4 corners*
0 Add a 4 corners polygon primitive as box body*
4,1,4,$2,$3,$4,$5,$6,$7,$8,$9,$2,$3,0*
0 Add four circle primitives for the rounded corners*
1,1,$1+$1,$2,$3*
1,1,$1+$1,$4,$5*
1,1,$1+$1,$6,$7*
1,1,$1+$1,$8,$9*
0 Add four rect primitives between the rounded corners*
20,1,$1+$1,$2,$3,$4,$5,0*
20,1,$1+$1,$4,$5,$6,$7,0*
20,1,$1+$1,$6,$7,$8,$9,0*
20,1,$1+$1,$8,$9,$2,$3,0*%
%AMFreePoly0*
4,1,6,1.000000,0.000000,0.500000,-0.750000,-0.500000,-0.750000,-0.500000,0.750000,0.500000,0.750000,1.000000,0.000000,1.000000,0.000000,$1*%
%AMFreePoly1*
4,1,6,0.500000,-0.750000,-0.650000,-0.750000,-0.150000,0.000000,-0.650000,0.750000,0.500000,0.750000,0.500000,-0.750000,0.500000,-0.750000,$1*%
G04 Aperture macros list end*
%ADD10RoundRect,0.250000X0.475000X-0.250000X0.475000X0.250000X-0.475000X0.250000X-0.475000X-0.250000X0*%
%ADD11R,2.600000X2.600000*%
%ADD12C,2.600000*%
%ADD13RoundRect,0.250000X-0.475000X0.250000X-0.475000X-0.250000X0.475000X-0.250000X0.475000X0.250000X0*%
%ADD14RoundRect,0.250000X-0.450000X0.262500X-0.450000X-0.262500X0.450000X-0.262500X0.450000X0.262500X0*%
%ADD15RoundRect,0.250000X0.262500X0.450000X-0.262500X0.450000X-0.262500X-0.450000X0.262500X-0.450000X0*%
%ADD16RoundRect,0.250000X0.250000X0.475000X-0.250000X0.475000X-0.250000X-0.475000X0.250000X-0.475000X0*%
%ADD17RoundRect,0.250000X-0.262500X-0.450000X0.262500X-0.450000X0.262500X0.450000X-0.262500X0.450000X0*%
%ADD18RoundRect,0.250000X0.450000X-0.262500X0.450000X0.262500X-0.450000X0.262500X-0.450000X-0.262500X0*%
%ADD19RoundRect,0.250000X-0.600000X-0.600000X0.600000X-0.600000X0.600000X0.600000X-0.600000X0.600000X0*%
%ADD20C,1.700000*%
%ADD21RoundRect,0.080400X-0.321600X-0.696600X0.321600X-0.696600X0.321600X0.696600X-0.321600X0.696600X0*%
%ADD22FreePoly0,180.000000*%
%ADD23FreePoly1,180.000000*%
%ADD24R,1.550000X1.300000*%
%ADD25O,4.404000X2.304000*%
%ADD26O,2.004000X3.804000*%
%ADD27R,1.498600X0.889000*%
%ADD28R,0.889000X0.889000*%
%ADD29C,2.800000*%
%ADD30RoundRect,0.150000X0.587500X0.150000X-0.587500X0.150000X-0.587500X-0.150000X0.587500X-0.150000X0*%
%ADD31R,1.700000X1.700000*%
%ADD32O,1.700000X1.700000*%
%ADD33RoundRect,0.150000X-0.587500X-0.150000X0.587500X-0.150000X0.587500X0.150000X-0.587500X0.150000X0*%
%ADD34FreePoly0,0.000000*%
%ADD35FreePoly1,0.000000*%
G04 APERTURE END LIST*
D10*
%TO.C,C4*%
X145000000Y-46450000D03*
X145000000Y-44550000D03*
%TD*%
D11*
%TO.C,J3*%
X134420000Y-82000000D03*
D12*
X139500000Y-82000000D03*
%TD*%
D13*
%TO.C,C5*%
X166500000Y-71550000D03*
X166500000Y-73450000D03*
%TD*%
D10*
%TO.C,C6*%
X151000000Y-46450000D03*
X151000000Y-44550000D03*
%TD*%
D14*
%TO.C,R3*%
X171500000Y-71587500D03*
X171500000Y-73412500D03*
%TD*%
D15*
%TO.C,R1*%
X153412500Y-73500000D03*
X151587500Y-73500000D03*
%TD*%
D14*
%TO.C,R4*%
X169000000Y-71587500D03*
X169000000Y-73412500D03*
%TD*%
D16*
%TO.C,C9*%
X159450000Y-82000000D03*
X157550000Y-82000000D03*
%TD*%
D17*
%TO.C,R2*%
X151587500Y-70500000D03*
X153412500Y-70500000D03*
%TD*%
D18*
%TO.C,R8*%
X164000000Y-73412500D03*
X164000000Y-71587500D03*
%TD*%
D19*
%TO.C,J4*%
X134960000Y-60000000D03*
D20*
X137500000Y-60000000D03*
X134960000Y-62540000D03*
X137500000Y-62540000D03*
X134960000Y-65080000D03*
X137500000Y-65080000D03*
X134960000Y-67620000D03*
X137500000Y-67620000D03*
X134960000Y-70160000D03*
X137500000Y-70160000D03*
%TD*%
D21*
%TO.C,U1*%
X153378392Y-78843216D03*
X154328392Y-78843216D03*
X155278392Y-78843216D03*
X155278392Y-76473216D03*
X153378392Y-76473216D03*
%TD*%
D22*
%TO.C,JP1*%
X139225000Y-52500000D03*
D23*
X137775000Y-52500000D03*
%TD*%
D15*
%TO.C,R7*%
X148412500Y-49500000D03*
X146587500Y-49500000D03*
%TD*%
D10*
%TO.C,C7*%
X148000000Y-46500000D03*
X148000000Y-44600000D03*
%TD*%
D13*
%TO.C,C2*%
X147500000Y-78550000D03*
X147500000Y-80450000D03*
%TD*%
D24*
%TO.C,SW2*%
X163525000Y-77250000D03*
X171475000Y-77250000D03*
X163525000Y-81750000D03*
X171475000Y-81750000D03*
%TD*%
D13*
%TO.C,C3*%
X150500000Y-78550000D03*
X150500000Y-80450000D03*
%TD*%
D24*
%TO.C,SW1*%
X133525000Y-44750000D03*
X141475000Y-44750000D03*
X133525000Y-49250000D03*
X141475000Y-49250000D03*
%TD*%
D25*
%TO.C,J1*%
X147500000Y-63400000D03*
D26*
X147500000Y-54700000D03*
%TD*%
D27*
%TO.C,U2*%
X154500000Y-44500000D03*
X154500000Y-45770000D03*
X154500000Y-47040000D03*
X154500000Y-48310000D03*
X154500000Y-49580000D03*
X154500000Y-50850000D03*
X154500000Y-52120000D03*
X154500000Y-53390000D03*
X154500000Y-54660000D03*
X154500000Y-55930000D03*
X154500000Y-57200000D03*
X154500000Y-58470000D03*
X154500000Y-59740000D03*
X154500000Y-61010000D03*
X154500000Y-62280000D03*
X154500000Y-63550000D03*
X154500000Y-64820000D03*
X154500000Y-66090000D03*
X154500000Y-67360000D03*
X172000600Y-67360000D03*
X172000600Y-66090000D03*
X172000600Y-64820000D03*
X172000600Y-63550000D03*
X172000600Y-62280000D03*
X172000600Y-61010000D03*
X172000600Y-59740000D03*
X172000600Y-58470000D03*
X172000600Y-57200000D03*
X172000600Y-55930000D03*
X172000600Y-54660000D03*
X172000600Y-53390000D03*
X172000600Y-52120000D03*
X172000600Y-50850000D03*
X172000600Y-49580000D03*
X172000600Y-48310000D03*
X172000600Y-47040000D03*
X172000600Y-45770000D03*
X172000600Y-44500000D03*
D28*
X160347080Y-50898260D03*
X161746620Y-50898260D03*
X163146160Y-50898260D03*
X160347080Y-52297800D03*
X161746620Y-52297800D03*
X163146160Y-52297800D03*
X160347080Y-53697340D03*
X161746620Y-53697340D03*
X163146160Y-53697340D03*
%TD*%
D16*
%TO.C,C8*%
X159450000Y-78500000D03*
X157550000Y-78500000D03*
%TD*%
D29*
%TO.C,TP1*%
X151500000Y-85000000D03*
%TD*%
D30*
%TO.C,Q1*%
X148875000Y-70450000D03*
X148875000Y-68550000D03*
X147000000Y-69500000D03*
%TD*%
D18*
%TO.C,R6*%
X161500000Y-73500000D03*
X161500000Y-71675000D03*
%TD*%
D31*
%TO.C,J2*%
X160840000Y-85500000D03*
D32*
X163380000Y-85500000D03*
X165920000Y-85500000D03*
X168460000Y-85500000D03*
X171000000Y-85500000D03*
%TD*%
D14*
%TO.C,R5*%
X144000000Y-68587500D03*
X144000000Y-70412500D03*
%TD*%
D33*
%TO.C,Q2*%
X156625000Y-71550000D03*
X156625000Y-73450000D03*
X158500000Y-72500000D03*
%TD*%
D13*
%TO.C,C1*%
X144500000Y-78550000D03*
X144500000Y-80450000D03*
%TD*%
D34*
%TO.C,JP2*%
X155550000Y-86000000D03*
D35*
X157000000Y-86000000D03*
%TD*%
D29*
%TO.C,TP2*%
X146000000Y-85000000D03*
%TD*%
M02*
