M48
; DRILL file {KiCad 8.0.1} date 2024-04-07T23:26:38-0500
; FORMAT={-:-/ absolute / inch / decimal}
; #@! TF.CreationDate,2024-04-07T23:26:38-05:00
; #@! TF.GenerationSoftware,Kicad,Pcbnew,8.0.1
; #@! TF.FileFunction,MixedPlating,1,2
FMAT,2
INCH
; #@! TA.AperFunction,Plated,PTH,ViaDrill
T1C0.0118
; #@! TA.AperFunction,Plated,PTH,ComponentDrill
T2C0.0394
; #@! TA.AperFunction,Plated,PTH,ComponentDrill
T3C0.0512
; #@! TA.AperFunction,Plated,PTH,ComponentDrill
T4C0.0630
%
G90
G05
T1
X5.1969Y-1.7717
X5.315Y-1.7717
X5.5118Y-1.752
X5.6299Y-1.752
X5.689Y-2.5
X5.7677Y-1.752
X5.8465Y-2.0276
X5.8858Y-1.752
X5.8858Y-1.9488
X5.9252Y-2.5
X5.9646Y-2.3228
X5.9843Y-2.5869
X6.0039Y-1.752
X6.0039Y-3.189
X6.0039Y-3.2283
X6.0236Y-2.5394
X6.0433Y-3.189
X6.0433Y-3.2283
X6.0827Y-3.189
X6.0827Y-3.2283
X6.122Y-3.189
X6.122Y-3.2283
X6.1417Y-1.752
X6.2303Y-3.3366
X6.2598Y-1.9685
X6.2598Y-2.0079
X6.2598Y-2.0472
X6.2598Y-2.0866
X6.2598Y-2.126
X6.2795Y-2.1654
X6.2992Y-1.9488
X6.2992Y-2.7559
X6.3189Y-2.1654
X6.3386Y-1.9488
X6.3583Y-2.1654
X6.378Y-1.9488
X6.3976Y-2.1654
X6.4173Y-1.9488
X6.437Y-2.1654
X6.437Y-3.1102
X6.437Y-3.1496
X6.4567Y-1.9488
X6.4764Y-1.9882
X6.4764Y-2.0276
X6.4764Y-2.0669
X6.4764Y-2.1063
X6.4764Y-2.1457
X6.4764Y-3.1102
X6.4764Y-3.1496
X6.4961Y-2.9921
X6.5459Y-2.7752
X6.5857Y-2.7515
X6.5945Y-2.9331
X6.6535Y-2.9331
X6.6879Y-2.5984
X6.7126Y-1.752
X6.7126Y-2.3819
X6.7158Y-2.5032
X6.7323Y-3.1102
X6.7323Y-3.1496
X6.7717Y-3.1102
X6.7717Y-3.1496
T2
X5.3134Y-2.3622
X5.3134Y-2.4622
X5.3134Y-2.5622
X5.3134Y-2.6622
X5.3134Y-2.7622
X5.4134Y-2.3622
X5.4134Y-2.4622
X5.4134Y-2.5622
X5.4134Y-2.6622
X5.4134Y-2.7622
X6.3323Y-3.3661
X6.4323Y-3.3661
X6.5323Y-3.3661
X6.6323Y-3.3661
X6.7323Y-3.3661
T3
X5.2921Y-3.2283
X5.4921Y-3.2283
T4
X5.748Y-3.3465
X5.9646Y-3.3465
T2
G00X5.8071Y-2.124
M15
G01X5.8071Y-2.1831
M16
G05
T3
G00X5.7835Y-2.4961
M15
G01X5.8307Y-2.4961
M16
G05
M30
