%TF.GenerationSoftware,KiCad,Pcbnew,8.0.1*%
%TF.CreationDate,2024-04-07T23:26:14-05:00*%
%TF.ProjectId,ece445_headset,65636534-3435-45f6-9865-61647365742e,rev?*%
%TF.SameCoordinates,Original*%
%TF.FileFunction,Paste,Top*%
%TF.FilePolarity,Positive*%
%FSLAX46Y46*%
G04 Gerber Fmt 4.6, Leading zero omitted, Abs format (unit mm)*
G04 Created by KiCad (PCBNEW 8.0.1) date 2024-04-07 23:26:14*
%MOMM*%
%LPD*%
G01*
G04 APERTURE LIST*
G04 Aperture macros list*
%AMRoundRect*
0 Rectangle with rounded corners*
0 $1 Rounding radius*
0 $2 $3 $4 $5 $6 $7 $8 $9 X,Y pos of 4 corners*
0 Add a 4 corners polygon primitive as box body*
4,1,4,$2,$3,$4,$5,$6,$7,$8,$9,$2,$3,0*
0 Add four circle primitives for the rounded corners*
1,1,$1+$1,$2,$3*
1,1,$1+$1,$4,$5*
1,1,$1+$1,$6,$7*
1,1,$1+$1,$8,$9*
0 Add four rect primitives between the rounded corners*
20,1,$1+$1,$2,$3,$4,$5,0*
20,1,$1+$1,$4,$5,$6,$7,0*
20,1,$1+$1,$6,$7,$8,$9,0*
20,1,$1+$1,$8,$9,$2,$3,0*%
G04 Aperture macros list end*
%ADD10RoundRect,0.250000X0.475000X-0.250000X0.475000X0.250000X-0.475000X0.250000X-0.475000X-0.250000X0*%
%ADD11RoundRect,0.250000X-0.475000X0.250000X-0.475000X-0.250000X0.475000X-0.250000X0.475000X0.250000X0*%
%ADD12RoundRect,0.250000X-0.450000X0.262500X-0.450000X-0.262500X0.450000X-0.262500X0.450000X0.262500X0*%
%ADD13RoundRect,0.250000X0.262500X0.450000X-0.262500X0.450000X-0.262500X-0.450000X0.262500X-0.450000X0*%
%ADD14RoundRect,0.250000X0.250000X0.475000X-0.250000X0.475000X-0.250000X-0.475000X0.250000X-0.475000X0*%
%ADD15RoundRect,0.250000X-0.262500X-0.450000X0.262500X-0.450000X0.262500X0.450000X-0.262500X0.450000X0*%
%ADD16RoundRect,0.250000X0.450000X-0.262500X0.450000X0.262500X-0.450000X0.262500X-0.450000X-0.262500X0*%
%ADD17RoundRect,0.060000X-0.240000X-0.615000X0.240000X-0.615000X0.240000X0.615000X-0.240000X0.615000X0*%
%ADD18R,1.550000X1.300000*%
%ADD19R,1.498600X0.889000*%
%ADD20R,0.889000X0.889000*%
%ADD21RoundRect,0.150000X0.587500X0.150000X-0.587500X0.150000X-0.587500X-0.150000X0.587500X-0.150000X0*%
%ADD22RoundRect,0.150000X-0.587500X-0.150000X0.587500X-0.150000X0.587500X0.150000X-0.587500X0.150000X0*%
G04 APERTURE END LIST*
D10*
%TO.C,C4*%
X145000000Y-46450000D03*
X145000000Y-44550000D03*
%TD*%
D11*
%TO.C,C5*%
X166500000Y-71550000D03*
X166500000Y-73450000D03*
%TD*%
D10*
%TO.C,C6*%
X151000000Y-46450000D03*
X151000000Y-44550000D03*
%TD*%
D12*
%TO.C,R3*%
X171500000Y-71587500D03*
X171500000Y-73412500D03*
%TD*%
D13*
%TO.C,R1*%
X153412500Y-73500000D03*
X151587500Y-73500000D03*
%TD*%
D12*
%TO.C,R4*%
X169000000Y-71587500D03*
X169000000Y-73412500D03*
%TD*%
D14*
%TO.C,C9*%
X159450000Y-82000000D03*
X157550000Y-82000000D03*
%TD*%
D15*
%TO.C,R2*%
X151587500Y-70500000D03*
X153412500Y-70500000D03*
%TD*%
D16*
%TO.C,R8*%
X164000000Y-73412500D03*
X164000000Y-71587500D03*
%TD*%
D17*
%TO.C,U1*%
X153378392Y-78843216D03*
X154328392Y-78843216D03*
X155278392Y-78843216D03*
X155278392Y-76473216D03*
X153378392Y-76473216D03*
%TD*%
D13*
%TO.C,R7*%
X148412500Y-49500000D03*
X146587500Y-49500000D03*
%TD*%
D10*
%TO.C,C7*%
X148000000Y-46500000D03*
X148000000Y-44600000D03*
%TD*%
D11*
%TO.C,C2*%
X147500000Y-78550000D03*
X147500000Y-80450000D03*
%TD*%
D18*
%TO.C,SW2*%
X163525000Y-77250000D03*
X171475000Y-77250000D03*
X163525000Y-81750000D03*
X171475000Y-81750000D03*
%TD*%
D11*
%TO.C,C3*%
X150500000Y-78550000D03*
X150500000Y-80450000D03*
%TD*%
D18*
%TO.C,SW1*%
X133525000Y-44750000D03*
X141475000Y-44750000D03*
X133525000Y-49250000D03*
X141475000Y-49250000D03*
%TD*%
D19*
%TO.C,U2*%
X154500000Y-44500000D03*
X154500000Y-45770000D03*
X154500000Y-47040000D03*
X154500000Y-48310000D03*
X154500000Y-49580000D03*
X154500000Y-50850000D03*
X154500000Y-52120000D03*
X154500000Y-53390000D03*
X154500000Y-54660000D03*
X154500000Y-55930000D03*
X154500000Y-57200000D03*
X154500000Y-58470000D03*
X154500000Y-59740000D03*
X154500000Y-61010000D03*
X154500000Y-62280000D03*
X154500000Y-63550000D03*
X154500000Y-64820000D03*
X154500000Y-66090000D03*
X154500000Y-67360000D03*
X172000600Y-67360000D03*
X172000600Y-66090000D03*
X172000600Y-64820000D03*
X172000600Y-63550000D03*
X172000600Y-62280000D03*
X172000600Y-61010000D03*
X172000600Y-59740000D03*
X172000600Y-58470000D03*
X172000600Y-57200000D03*
X172000600Y-55930000D03*
X172000600Y-54660000D03*
X172000600Y-53390000D03*
X172000600Y-52120000D03*
X172000600Y-50850000D03*
X172000600Y-49580000D03*
X172000600Y-48310000D03*
X172000600Y-47040000D03*
X172000600Y-45770000D03*
X172000600Y-44500000D03*
D20*
X160347080Y-50898260D03*
X161746620Y-50898260D03*
X163146160Y-50898260D03*
X160347080Y-52297800D03*
X161746620Y-52297800D03*
X163146160Y-52297800D03*
X160347080Y-53697340D03*
X161746620Y-53697340D03*
X163146160Y-53697340D03*
%TD*%
D14*
%TO.C,C8*%
X159450000Y-78500000D03*
X157550000Y-78500000D03*
%TD*%
D21*
%TO.C,Q1*%
X148875000Y-70450000D03*
X148875000Y-68550000D03*
X147000000Y-69500000D03*
%TD*%
D16*
%TO.C,R6*%
X161500000Y-73500000D03*
X161500000Y-71675000D03*
%TD*%
D12*
%TO.C,R5*%
X144000000Y-68587500D03*
X144000000Y-70412500D03*
%TD*%
D22*
%TO.C,Q2*%
X156625000Y-71550000D03*
X156625000Y-73450000D03*
X158500000Y-72500000D03*
%TD*%
D11*
%TO.C,C1*%
X144500000Y-78550000D03*
X144500000Y-80450000D03*
%TD*%
M02*
