<?xml version="1.0" standalone="no"?>
 <!DOCTYPE svg PUBLIC "-//W3C//DTD SVG 1.1//EN" 
 "http://www.w3.org/Graphics/SVG/1.1/DTD/svg11.dtd"> 
<svg
  xmlns:svg="http://www.w3.org/2000/svg"
  xmlns="http://www.w3.org/2000/svg"
  xmlns:xlink="http://www.w3.org/1999/xlink"
  version="1.1"
  width="297.0022mm" height="210.0072mm" viewBox="0.0000 0.0000 297.0022 210.0072">
<title>SVG Image created as adapter_board-F_Cu.svg date 2024/04/08 23:37:47 </title>
  <desc>Image generated by PCBNEW </desc>
<g style="fill:#000000; fill-opacity:1.0000;stroke:#000000; stroke-opacity:1.0000;
stroke-linecap:round; stroke-linejoin:round;"
 transform="translate(0 0) scale(1 1)">
<path style="fill:#C83434; fill-opacity:1.0000; stroke:none;fill-rule:evenodd;"
d="M 155.5301,59.4286
155.5301,57.3712
156.4699,57.3712
156.4699,59.4286
Z" /> 
<path style="fill:#C83434; fill-opacity:1.0000; stroke:none;fill-rule:evenodd;"
d="M 157.5301,62.6286
157.5301,60.5712
158.4699,60.5712
158.4699,62.6286
Z" /> 
<path style="fill:#C83434; fill-opacity:1.0000; stroke:none;fill-rule:evenodd;"
d="M 159.5301,59.4286
159.5301,57.3712
160.4699,57.3712
160.4699,59.4286
Z" /> 
<path style="fill:#C83434; fill-opacity:1.0000; stroke:none;fill-rule:evenodd;"
d="M 161.5301,62.6286
161.5301,60.5712
162.4699,60.5712
162.4699,62.6286
Z" /> 
<path style="fill:#C83434; fill-opacity:1.0000; stroke:none;fill-rule:evenodd;"
d="M 163.5301,59.4286
163.5301,57.3712
164.4699,57.3712
164.4699,59.4286
Z" /> 
<path style="fill:#C83434; fill-opacity:1.0000; stroke:none;fill-rule:evenodd;"
d="M 165.5301,62.6286
165.5301,60.5712
166.4699,60.5712
166.4699,62.6286
Z" /> 
<path style="fill:#C83434; fill-opacity:1.0000; stroke:none;fill-rule:evenodd;"
d="M 167.5301,59.4286
167.5301,57.3712
168.4699,57.3712
168.4699,59.4286
Z" /> 
<path style="fill:#C83434; fill-opacity:1.0000; stroke:none;fill-rule:evenodd;"
d="M 169.5301,62.6286
169.5301,60.5712
170.4699,60.5712
170.4699,62.6286
Z" /> 
<path style="fill:#C83434; fill-opacity:1.0000; stroke:none;fill-rule:evenodd;"
d="M 171.5301,59.4286
171.5301,57.3712
172.4699,57.3712
172.4699,59.4286
Z" /> 
<path style="fill:#C83434; fill-opacity:1.0000; stroke:none;fill-rule:evenodd;"
d="M 173.5301,62.6286
173.5301,60.5712
174.4699,60.5712
174.4699,62.6286
Z" /> 
<path style="fill:#C83434; fill-opacity:1.0000; stroke:none;fill-rule:evenodd;"
d="M 169.8650,72.4100
169.8880,72.4146
169.9074,72.4276
169.9204,72.4470
169.9250,72.4700
169.9250,72.9500
169.9204,72.9730
169.9074,72.9924
169.8880,73.0054
169.8650,73.0100
168.6350,73.0100
168.6120,73.0054
168.5926,72.9924
168.5796,72.9730
168.5750,72.9500
168.5750,72.4700
168.5796,72.4470
168.5926,72.4276
168.6120,72.4146
168.6350,72.4100
Z" /> 
<path style="fill:#C83434; fill-opacity:1.0000; stroke:none;fill-rule:evenodd;"
d="M 169.8650,73.3600
169.8880,73.3646
169.9074,73.3776
169.9204,73.3970
169.9250,73.4200
169.9250,73.9000
169.9204,73.9230
169.9074,73.9424
169.8880,73.9554
169.8650,73.9600
168.6350,73.9600
168.6120,73.9554
168.5926,73.9424
168.5796,73.9230
168.5750,73.9000
168.5750,73.4200
168.5796,73.3970
168.5926,73.3776
168.6120,73.3646
168.6350,73.3600
Z" /> 
<path style="fill:#C83434; fill-opacity:1.0000; stroke:none;fill-rule:evenodd;"
d="M 169.8650,74.3100
169.8880,74.3146
169.9074,74.3276
169.9204,74.3470
169.9250,74.3700
169.9250,74.8500
169.9204,74.8730
169.9074,74.8924
169.8880,74.9054
169.8650,74.9100
168.6350,74.9100
168.6120,74.9054
168.5926,74.8924
168.5796,74.8730
168.5750,74.8500
168.5750,74.3700
168.5796,74.3470
168.5926,74.3276
168.6120,74.3146
168.6350,74.3100
Z" /> 
<path style="fill:#C83434; fill-opacity:1.0000; stroke:none;fill-rule:evenodd;"
d="M 172.2350,74.3100
172.2580,74.3146
172.2774,74.3276
172.2904,74.3470
172.2950,74.3700
172.2950,74.8500
172.2904,74.8730
172.2774,74.8924
172.2580,74.9054
172.2350,74.9100
171.0050,74.9100
170.9820,74.9054
170.9626,74.8924
170.9496,74.8730
170.9450,74.8500
170.9450,74.3700
170.9496,74.3470
170.9626,74.3276
170.9820,74.3146
171.0050,74.3100
Z" /> 
<path style="fill:#C83434; fill-opacity:1.0000; stroke:none;fill-rule:evenodd;"
d="M 172.2350,72.4100
172.2580,72.4146
172.2774,72.4276
172.2904,72.4470
172.2950,72.4700
172.2950,72.9500
172.2904,72.9730
172.2774,72.9924
172.2580,73.0054
172.2350,73.0100
171.0050,73.0100
170.9820,73.0054
170.9626,72.9924
170.9496,72.9730
170.9450,72.9500
170.9450,72.4700
170.9496,72.4470
170.9626,72.4276
170.9820,72.4146
171.0050,72.4100
Z" /> 
<path style="fill:#C83434; fill-opacity:1.0000; stroke:none;fill-rule:evenodd;"
d="M 155.5301,81.4286
155.5301,79.3712
156.4699,79.3712
156.4699,81.4286
Z" /> 
<path style="fill:#C83434; fill-opacity:1.0000; stroke:none;fill-rule:evenodd;"
d="M 157.5301,84.6286
157.5301,82.5712
158.4699,82.5712
158.4699,84.6286
Z" /> 
<path style="fill:#C83434; fill-opacity:1.0000; stroke:none;fill-rule:evenodd;"
d="M 159.5301,81.4286
159.5301,79.3712
160.4699,79.3712
160.4699,81.4286
Z" /> 
<path style="fill:#C83434; fill-opacity:1.0000; stroke:none;fill-rule:evenodd;"
d="M 161.5301,84.6286
161.5301,82.5712
162.4699,82.5712
162.4699,84.6286
Z" /> 
<path style="fill:#C83434; fill-opacity:1.0000; stroke:none;fill-rule:evenodd;"
d="M 163.5301,81.4286
163.5301,79.3712
164.4699,79.3712
164.4699,81.4286
Z" /> 
<path style="fill:#C83434; fill-opacity:1.0000; stroke:none;fill-rule:evenodd;"
d="M 165.5301,84.6286
165.5301,82.5712
166.4699,82.5712
166.4699,84.6286
Z" /> 
<path style="fill:#C83434; fill-opacity:1.0000; stroke:none;fill-rule:evenodd;"
d="M 167.5301,81.4286
167.5301,79.3712
168.4699,79.3712
168.4699,81.4286
Z" /> 
<path style="fill:#C83434; fill-opacity:1.0000; stroke:none;fill-rule:evenodd;"
d="M 169.5301,84.6286
169.5301,82.5712
170.4699,82.5712
170.4699,84.6286
Z" /> 
<path style="fill:#C83434; fill-opacity:1.0000; stroke:none;fill-rule:evenodd;"
d="M 171.5301,81.4286
171.5301,79.3712
172.4699,79.3712
172.4699,81.4286
Z" /> 
<path style="fill:#C83434; fill-opacity:1.0000; stroke:none;fill-rule:evenodd;"
d="M 173.5301,84.6286
173.5301,82.5712
174.4699,82.5712
174.4699,84.6286
Z" /> 
<path style="fill:#C83434; fill-opacity:1.0000; stroke:none;fill-rule:evenodd;"
d="M 158.3075,75.7550
158.3265,75.6593
158.3807,75.5782
158.4618,75.5240
158.5575,75.5050
159.2325,75.5050
159.3282,75.5240
159.4093,75.5782
159.4635,75.6593
159.4825,75.7550
159.4825,76.7050
159.4635,76.8007
159.4093,76.8818
159.3282,76.9360
159.2325,76.9550
158.5575,76.9550
158.4618,76.9360
158.3807,76.8818
158.3265,76.8007
158.3075,76.7050
Z" /> 
<path style="fill:#C83434; fill-opacity:1.0000; stroke:none;fill-rule:evenodd;"
d="M 160.3825,75.7550
160.4015,75.6593
160.4557,75.5782
160.5368,75.5240
160.6325,75.5050
161.3075,75.5050
161.4032,75.5240
161.4843,75.5782
161.5385,75.6593
161.5575,75.7550
161.5575,76.7050
161.5385,76.8007
161.4843,76.8818
161.4032,76.9360
161.3075,76.9550
160.6325,76.9550
160.5368,76.9360
160.4557,76.8818
160.4015,76.8007
160.3825,76.7050
Z" /> 
<path style="fill:#C83434; fill-opacity:1.0000; stroke:none;fill-rule:evenodd;"
d="M 158.3075,72.7450
158.3265,72.6493
158.3807,72.5682
158.4618,72.5140
158.5575,72.4950
159.2325,72.4950
159.3282,72.5140
159.4093,72.5682
159.4635,72.6493
159.4825,72.7450
159.4825,73.6950
159.4635,73.7907
159.4093,73.8718
159.3282,73.9260
159.2325,73.9450
158.5575,73.9450
158.4618,73.9260
158.3807,73.8718
158.3265,73.7907
158.3075,73.6950
Z" /> 
<path style="fill:#C83434; fill-opacity:1.0000; stroke:none;fill-rule:evenodd;"
d="M 160.3825,72.7450
160.4015,72.6493
160.4557,72.5682
160.5368,72.5140
160.6325,72.4950
161.3075,72.4950
161.4032,72.5140
161.4843,72.5682
161.5385,72.6493
161.5575,72.7450
161.5575,73.6950
161.5385,73.7907
161.4843,73.8718
161.4032,73.9260
161.3075,73.9450
160.6325,73.9450
160.5368,73.9260
160.4557,73.8718
160.4015,73.7907
160.3825,73.6950
Z" /> 
<path style="fill:#C83434; fill-opacity:1.0000; stroke:none;fill-rule:evenodd;"
d="M 163.7675,72.4750
163.7865,72.3793
163.8407,72.2982
163.9218,72.2440
164.0175,72.2250
164.6925,72.2250
164.7882,72.2440
164.8693,72.2982
164.9235,72.3793
164.9425,72.4750
164.9425,73.4250
164.9235,73.5207
164.8693,73.6018
164.7882,73.6560
164.6925,73.6750
164.0175,73.6750
163.9218,73.6560
163.8407,73.6018
163.7865,73.5207
163.7675,73.4250
Z" /> 
<path style="fill:#C83434; fill-opacity:1.0000; stroke:none;fill-rule:evenodd;"
d="M 165.8425,72.4750
165.8615,72.3793
165.9157,72.2982
165.9968,72.2440
166.0925,72.2250
166.7675,72.2250
166.8632,72.2440
166.9443,72.2982
166.9985,72.3793
167.0175,72.4750
167.0175,73.4250
166.9985,73.5207
166.9443,73.6018
166.8632,73.6560
166.7675,73.6750
166.0925,73.6750
165.9968,73.6560
165.9157,73.6018
165.8615,73.5207
165.8425,73.4250
Z" /> 
<path style="fill:#C83434; fill-opacity:1.0000; stroke:none;fill-rule:evenodd;"
d="M 169.5200,68.2100
169.5200,66.7100
171.0200,66.7100
171.0200,68.2100
Z" /> 
<path style="fill:#C83434; fill-opacity:1.0000; stroke:none;fill-rule:evenodd;"
d="M 163.7675,75.4850
163.7865,75.3893
163.8407,75.3082
163.9218,75.2540
164.0175,75.2350
164.6925,75.2350
164.7882,75.2540
164.8693,75.3082
164.9235,75.3893
164.9425,75.4850
164.9425,76.4350
164.9235,76.5307
164.8693,76.6118
164.7882,76.6660
164.6925,76.6850
164.0175,76.6850
163.9218,76.6660
163.8407,76.6118
163.7865,76.5307
163.7675,76.4350
Z" /> 
<path style="fill:#C83434; fill-opacity:1.0000; stroke:none;fill-rule:evenodd;"
d="M 165.8425,75.4850
165.8615,75.3893
165.9157,75.3082
165.9968,75.2540
166.0925,75.2350
166.7675,75.2350
166.8632,75.2540
166.9443,75.3082
166.9985,75.3893
167.0175,75.4850
167.0175,76.4350
166.9985,76.5307
166.9443,76.6118
166.8632,76.6660
166.7675,76.6850
166.0925,76.6850
165.9968,76.6660
165.9157,76.6118
165.8615,76.5307
165.8425,76.4350
Z" /> 
<path style="fill:#C83434; fill-opacity:1.0000; stroke:none;fill-rule:evenodd;"
d="M 164.4100,65.8500
163.9100,66.6000
162.9100,66.6000
162.9100,65.1000
163.9100,65.1000
Z" /> 
<path style="fill:#C83434; fill-opacity:1.0000; stroke:none;fill-rule:evenodd;"
d="M 165.3600,66.6000
164.2100,66.6000
164.7100,65.8500
164.2100,65.1000
165.3600,65.1000
Z" /> 
<path style="fill:#C83434; fill-opacity:1.0000; stroke:none;fill-rule:evenodd;"
d="M 158.3075,69.7350
158.3265,69.6393
158.3807,69.5582
158.4618,69.5040
158.5575,69.4850
159.2325,69.4850
159.3282,69.5040
159.4093,69.5582
159.4635,69.6393
159.4825,69.7350
159.4825,70.6850
159.4635,70.7807
159.4093,70.8618
159.3282,70.9160
159.2325,70.9350
158.5575,70.9350
158.4618,70.9160
158.3807,70.8618
158.3265,70.7807
158.3075,70.6850
Z" /> 
<path style="fill:#C83434; fill-opacity:1.0000; stroke:none;fill-rule:evenodd;"
d="M 160.3825,69.7350
160.4015,69.6393
160.4557,69.5582
160.5368,69.5040
160.6325,69.4850
161.3075,69.4850
161.4032,69.5040
161.4843,69.5582
161.5385,69.6393
161.5575,69.7350
161.5575,70.6850
161.5385,70.7807
161.4843,70.8618
161.4032,70.9160
161.3075,70.9350
160.6325,70.9350
160.5368,70.9160
160.4557,70.8618
160.4015,70.7807
160.3825,70.6850
Z" /> 
</g>
<g style="fill:#ECECEC; fill-opacity:1.0000; stroke:none;">
<circle cx="162.1500" cy="75.6800" r="0.4000" /> 
</g>
<g style="fill:#ECECEC; fill-opacity:1.0000; stroke:none;">
<circle cx="166.5800" cy="74.5100" r="0.4000" /> 
</g>
<g style="fill:#ECECEC; fill-opacity:1.0000; stroke:none;">
<circle cx="162.1500" cy="72.2700" r="0.4000" /> 
</g>
<g style="fill:#ECECEC; fill-opacity:1.0000; stroke:none;">
<circle cx="161.1300" cy="68.4200" r="0.4000" /> 
</g>
<g style="fill:#ECECEC; fill-opacity:1.0000; stroke:none;">
<circle cx="166.1500" cy="71.2900" r="0.4000" /> 
</g>
<g style="fill:#ECECEC; fill-opacity:1.0000; stroke:none;">
<circle cx="172.7200" cy="83.7600" r="0.4000" /> 
</g>
<g style="fill:#ECECEC; fill-opacity:1.0000; stroke:none;">
<circle cx="175.2000" cy="83.6100" r="0.4000" /> 
</g>
<g style="fill:#ECECEC; fill-opacity:1.0000; stroke:none;">
<circle cx="167.7400" cy="70.5700" r="0.4000" /> 
</g>
<g style="fill:#ECECEC; fill-opacity:1.0000; stroke:none;">
<circle cx="172.5700" cy="66.3100" r="0.4000" /> 
</g>
<g style="fill:#ECECEC; fill-opacity:1.0000; stroke:none;">
<circle cx="169.2000" cy="63.9300" r="0.4000" /> 
</g>
<g style="fill:none; 
stroke:#C83434; stroke-width:0.5080; stroke-opacity:1; 
stroke-linecap:round; stroke-linejoin:round;">
<path d="M163.4100 65.8500
L163.4100 75.0150
" />
<path d="M164.4209 67.4600
L170.2700 67.4600
" />
<path d="M171.6200 72.7100
L170.2700 71.3600
" />
<path d="M163.4100 65.8500
L163.4100 72.0050
" />
<path d="M170.2700 71.3600
L170.2700 67.4600
" />
<path d="M163.4100 65.8500
L163.4100 66.4491
" />
<path d="M163.4100 75.0150
L164.3550 75.9600
" />
<path d="M163.4100 72.0050
L164.3550 72.9500
" />
<path d="M163.4100 66.4491
L164.4209 67.4600
" />
<path d="M168.6164 72.7100
L169.2500 72.7100
" />
<path d="M169.2500 74.9700
L169.2500 74.6100
" />
<path d="M158.8950 73.2200
L158.8950 70.2100
" />
<path d="M167.7400 71.2000
L169.2500 72.7100
" />
<path d="M171.9700 58.3500
L172.5700 58.9500
" />
<path d="M172.5700 58.9500
L172.5700 66.3100
" />
<path d="M168.1210 73.2054
L168.6164 72.7100
" />
<path d="M167.7400 70.5700
L167.7400 71.2000
" />
<path d="M172.0000 58.3999
L172.0000 58.3800
" />
<path d="M169.2500 74.6100
L168.5750 74.6100
" />
<path d="M158.8950 76.2300
L160.0740 77.4090
" />
<path d="M172.0000 58.3800
L171.9700 58.3500
" />
<path d="M168.1210 74.1560
L168.1210 73.2054
" />
<path d="M158.8950 76.2300
L158.8950 73.2200
" />
<path d="M166.8110 77.4090
L169.2500 74.9700
" />
<path d="M160.0740 77.4090
L166.8110 77.4090
" />
<path d="M168.5750 74.6100
L168.1210 74.1560
" />
<path d="M164.8689 65.8411
L164.8689 65.8500
" />
<path d="M169.2000 63.9300
L166.7800 63.9300
" />
<path d="M166.7800 63.9300
L164.8689 65.8411
" />
<path style="fill:#C83434; fill-opacity:1.0000; stroke:none;fill-rule:evenodd;"
d="M 164.3127,68.2078
164.3205,68.2093
164.3466,68.2145
164.3466,68.2145
164.5013,68.2145
164.5013,68.2145
168.9035,68.2145
168.9705,68.2342
169.0163,68.2870
169.0241,68.3100
169.0259,68.3175
169.0762,68.4523
169.0762,68.4523
169.1625,68.5675
169.1625,68.5675
169.2777,68.6538
169.2777,68.6538
169.3451,68.6789
169.4125,68.7041
169.4125,68.7041
169.4200,68.7059
169.4807,68.7404
169.5131,68.8023
169.5155,68.8265
169.5155,71.2806
169.5155,71.2806
169.5155,71.4343
169.5227,71.4705
169.5227,71.4705
169.5400,71.5574
169.5411,71.5630
169.5445,71.5801
169.5530,71.6005
169.5586,71.6142
169.5661,71.6837
169.5348,71.7462
169.4748,71.7818
169.4049,71.7794
169.3564,71.7494
168.6155,71.0085
168.5821,70.9472
168.5853,70.8825
168.6257,70.7583
168.6455,70.5700
168.6257,70.3817
168.5672,70.2017
168.4725,70.0378
168.3459,69.8971
168.3459,69.8971
168.1927,69.7859
168.1927,69.7858
168.0198,69.7089
168.0198,69.7089
167.8740,69.6779
167.8346,69.6695
167.6454,69.6695
167.6129,69.6764
167.4602,69.7089
167.4602,69.7089
167.2873,69.7858
167.2873,69.7859
167.1341,69.8971
167.0075,70.0378
166.9128,70.2017
166.9128,70.2017
166.8543,70.3817
166.8543,70.3817
166.8345,70.5700
166.8543,70.7583
166.8543,70.7583
166.9128,70.9383
166.9128,70.9383
166.9510,71.0043
166.9689,71.0354
166.9855,71.0974
166.9855,71.1206
166.9855,71.1206
166.9855,71.2743
166.9978,71.3364
166.9978,71.3364
167.0145,71.4201
167.0145,71.4201
167.0354,71.4705
167.0354,71.4705
167.0661,71.5447
167.0714,71.5574
167.0714,71.5574
167.0732,71.5609
167.0737,71.5629
167.0737,71.5630
167.0737,71.5630
167.0875,71.6293
167.0625,71.6945
167.0062,71.7359
166.9364,71.7403
166.9249,71.7370
166.9202,71.7355
166.9202,71.7355
166.8175,71.7250
166.6800,71.7250
166.6800,74.1750
166.8175,74.1750
166.8175,74.1750
166.9202,74.1645
167.0866,74.1094
167.0866,74.1094
167.1774,74.0534
167.2448,74.0349
167.3115,74.0558
167.3562,74.1095
167.3665,74.1589
167.3665,74.2303
167.3665,74.2303
167.3665,74.2303
167.3955,74.3761
167.3955,74.3761
167.4524,74.5134
167.4524,74.5134
167.5349,74.6370
167.5349,74.6370
167.9378,75.0398
167.9713,75.1011
167.9663,75.1708
167.9378,75.2152
167.7206,75.4324
167.6593,75.4659
167.5896,75.4609
167.5336,75.4190
167.5096,75.3573
167.5070,75.3323
167.4519,75.1659
167.4519,75.1659
167.3598,75.0167
167.2358,74.8927
167.0866,74.8006
167.0866,74.8006
166.9202,74.7455
166.9202,74.7455
166.8175,74.7350
166.6800,74.7350
166.6800,76.0860
166.6603,76.1530
166.6075,76.1988
166.5560,76.2100
166.3040,76.2100
166.2370,76.1903
166.1912,76.1375
166.1800,76.0860
166.1800,74.7350
166.0425,74.7350
166.0425,74.7350
165.9398,74.7455
165.7734,74.8006
165.7734,74.8006
165.6242,74.8927
165.5002,75.0167
165.5002,75.0167
165.4983,75.0197
165.4965,75.0213
165.4957,75.0223
165.4955,75.0222
165.4464,75.0664
165.3774,75.0776
165.3133,75.0498
165.2873,75.0197
165.2872,75.0196
165.2852,75.0163
165.1612,74.8923
165.0118,74.8002
164.8453,74.7450
164.8453,74.7450
164.7425,74.7345
164.7425,74.7345
164.2885,74.7345
164.2215,74.7148
164.1757,74.6620
164.1645,74.6105
164.1645,74.2995
164.1842,74.2325
164.2370,74.1867
164.2885,74.1755
164.7425,74.1755
164.7425,74.1755
164.8453,74.1650
165.0118,74.1098
165.1612,74.0177
165.2852,73.8937
165.2873,73.8903
165.2892,73.8886
165.2897,73.8880
165.2898,73.8881
165.3392,73.8436
165.4082,73.8324
165.4722,73.8602
165.4983,73.8903
165.5002,73.8933
165.5002,73.8933
165.6242,74.0173
165.7734,74.1094
165.7734,74.1094
165.9398,74.1645
165.9398,74.1645
166.0425,74.1750
166.1800,74.1750
166.1800,74.1750
166.1800,71.7250
166.0425,71.7250
166.0425,71.7250
165.9398,71.7355
165.7734,71.7906
165.7734,71.7906
165.6242,71.8827
165.5002,72.0067
165.5002,72.0067
165.4983,72.0097
165.4965,72.0113
165.4957,72.0123
165.4955,72.0122
165.4464,72.0564
165.3774,72.0676
165.3133,72.0398
165.2873,72.0097
165.2872,72.0096
165.2852,72.0063
165.1612,71.8823
165.0118,71.7902
164.8453,71.7350
164.8453,71.7350
164.7425,71.7245
164.7425,71.7245
164.2885,71.7245
164.2215,71.7048
164.1757,71.6520
164.1645,71.6005
164.1645,68.3294
164.1842,68.2623
164.2370,68.2166
164.3061,68.2066
Z" /> 
<path style="fill:#C83434; fill-opacity:1.0000; stroke:none;fill-rule:evenodd;"
d="M 176.8330,55.9097
176.8788,55.9625
176.8900,56.0140
176.8900,87.0460
176.8703,87.1130
176.8175,87.1588
176.7660,87.1700
152.0240,87.1700
151.9570,87.1503
151.9112,87.0975
151.9000,87.0460
151.9000,84.6765
157.0296,84.6765
157.0296,84.6765
157.0360,84.7361
157.0863,84.8710
157.0863,84.8710
157.1726,84.9862
157.1726,84.9862
157.2878,85.0724
157.2878,85.0724
157.4226,85.1227
157.4226,85.1227
157.4295,85.1235
157.4822,85.1291
158.5178,85.1291
158.5774,85.1227
158.7122,85.0724
158.8274,84.9862
158.9137,84.8710
158.9640,84.7361
158.9704,84.6765
158.9704,84.6765
161.0296,84.6765
161.0296,84.6765
161.0360,84.7361
161.0863,84.8710
161.0863,84.8710
161.1726,84.9862
161.1726,84.9862
161.2878,85.0724
161.2878,85.0724
161.4226,85.1227
161.4226,85.1227
161.4295,85.1235
161.4822,85.1291
162.5178,85.1291
162.5774,85.1227
162.7122,85.0724
162.8274,84.9862
162.9137,84.8710
162.9640,84.7361
162.9704,84.6765
162.9704,84.6765
165.0296,84.6765
165.0296,84.6765
165.0360,84.7361
165.0863,84.8710
165.0863,84.8710
165.1726,84.9862
165.1726,84.9862
165.2878,85.0724
165.2878,85.0724
165.4226,85.1227
165.4226,85.1227
165.4295,85.1235
165.4822,85.1291
166.5178,85.1291
166.5774,85.1227
166.7122,85.0724
166.8274,84.9862
166.9137,84.8710
166.9640,84.7361
166.9704,84.6765
166.9704,84.6765
169.0296,84.6765
169.0296,84.6765
169.0360,84.7361
169.0863,84.8710
169.0863,84.8710
169.1726,84.9862
169.1726,84.9862
169.2878,85.0724
169.2878,85.0724
169.4226,85.1227
169.4226,85.1227
169.4295,85.1235
169.4822,85.1291
170.5178,85.1291
170.5774,85.1227
170.7122,85.0724
170.8274,84.9862
170.9137,84.8710
170.9640,84.7361
170.9704,84.6765
170.9704,83.8499
173.0301,83.8499
173.0301,84.6765
173.0365,84.7360
173.0365,84.7360
173.0867,84.8707
173.0867,84.8707
173.1729,84.9858
173.1729,84.9858
173.2880,85.0720
173.2880,85.0720
173.4227,85.1222
173.4227,85.1222
173.4823,85.1286
173.4823,85.1286
173.7500,85.1286
173.7500,83.8499
174.2500,83.8499
174.2500,85.1286
174.5177,85.1286
174.5177,85.1286
174.5773,85.1222
174.5773,85.1222
174.7120,85.0720
174.7120,85.0720
174.8271,84.9858
174.8271,84.9858
174.9133,84.8707
174.9133,84.8707
174.9635,84.7360
174.9635,84.7360
174.9699,84.6765
174.9699,84.6765
174.9699,83.8499
174.2500,83.8499
173.7500,83.8499
173.0301,83.8499
170.9704,83.8499
170.9704,83.3499
173.0301,83.3499
173.7500,83.3499
173.7500,82.0712
174.2500,82.0712
174.2500,83.3499
174.9699,83.3499
174.9699,82.5234
174.9699,82.5234
174.9635,82.4639
174.9635,82.4639
174.9133,82.3292
174.9133,82.3292
174.8271,82.2141
174.8271,82.2141
174.7120,82.1279
174.7120,82.1279
174.5773,82.0776
174.5773,82.0776
174.5177,82.0712
174.2500,82.0712
173.7500,82.0712
173.4823,82.0712
173.4227,82.0776
173.4227,82.0776
173.2880,82.1279
173.2880,82.1279
173.1729,82.2141
173.1729,82.2141
173.0867,82.3292
173.0867,82.3292
173.0365,82.4639
173.0365,82.4639
173.0301,82.5234
173.0301,83.3499
170.9704,83.3499
170.9704,82.5234
170.9640,82.4638
170.9138,82.3292
170.9137,82.3289
170.9137,82.3289
170.8274,82.2137
170.8274,82.2137
170.7122,82.1275
170.7122,82.1274
170.5774,82.0772
170.5774,82.0772
170.5178,82.0707
170.5178,82.0707
170.5178,82.0707
170.5178,82.0707
169.4822,82.0707
169.4822,82.0707
169.4226,82.0772
169.2878,82.1274
169.2878,82.1275
169.1726,82.2137
169.1726,82.2137
169.0863,82.3289
169.0863,82.3289
169.0360,82.4638
169.0296,82.5234
169.0296,82.5234
169.0296,82.5234
169.0296,84.6765
166.9704,84.6765
166.9704,82.5234
166.9640,82.4638
166.9138,82.3292
166.9137,82.3289
166.9137,82.3289
166.8274,82.2137
166.8274,82.2137
166.7122,82.1275
166.7122,82.1274
166.5774,82.0772
166.5774,82.0772
166.5178,82.0707
166.5178,82.0707
166.5178,82.0707
166.5178,82.0707
165.4822,82.0707
165.4822,82.0707
165.4226,82.0772
165.2878,82.1274
165.2878,82.1275
165.1726,82.2137
165.1726,82.2137
165.0863,82.3289
165.0863,82.3289
165.0360,82.4638
165.0296,82.5234
165.0296,82.5234
165.0296,82.5234
165.0296,84.6765
162.9704,84.6765
162.9704,82.5234
162.9640,82.4638
162.9138,82.3292
162.9137,82.3289
162.9137,82.3289
162.8274,82.2137
162.8274,82.2137
162.7122,82.1275
162.7122,82.1274
162.5774,82.0772
162.5774,82.0772
162.5178,82.0707
162.5178,82.0707
162.5178,82.0707
162.5178,82.0707
161.4822,82.0707
161.4822,82.0707
161.4226,82.0772
161.2878,82.1274
161.2878,82.1275
161.1726,82.2137
161.1726,82.2137
161.0863,82.3289
161.0863,82.3289
161.0360,82.4638
161.0296,82.5234
161.0296,82.5234
161.0296,82.5234
161.0296,84.6765
158.9704,84.6765
158.9704,82.5234
158.9640,82.4638
158.9138,82.3292
158.9137,82.3289
158.9137,82.3289
158.8274,82.2137
158.8274,82.2137
158.7122,82.1275
158.7122,82.1274
158.5774,82.0772
158.5774,82.0772
158.5178,82.0707
158.5178,82.0707
158.5178,82.0707
158.5178,82.0707
157.4822,82.0707
157.4822,82.0707
157.4226,82.0772
157.2878,82.1274
157.2878,82.1275
157.1726,82.2137
157.1726,82.2137
157.0863,82.3289
157.0863,82.3289
157.0360,82.4638
157.0296,82.5234
157.0296,82.5234
157.0296,82.5234
157.0296,84.6765
151.9000,84.6765
151.9000,81.4765
155.0296,81.4765
155.0296,81.4765
155.0360,81.5361
155.0863,81.6710
155.0863,81.6710
155.1726,81.7862
155.1726,81.7862
155.2878,81.8724
155.2878,81.8724
155.4226,81.9227
155.4226,81.9227
155.4295,81.9235
155.4822,81.9291
156.5178,81.9291
156.5774,81.9227
156.7122,81.8724
156.8274,81.7862
156.9137,81.6710
156.9640,81.5361
156.9704,81.4765
156.9704,81.4765
159.0296,81.4765
159.0296,81.4765
159.0360,81.5361
159.0863,81.6710
159.0863,81.6710
159.1726,81.7862
159.1726,81.7862
159.2878,81.8724
159.2878,81.8724
159.4226,81.9227
159.4226,81.9227
159.4295,81.9235
159.4822,81.9291
160.5178,81.9291
160.5774,81.9227
160.7122,81.8724
160.8274,81.7862
160.9137,81.6710
160.9640,81.5361
160.9704,81.4765
160.9704,81.4765
163.0296,81.4765
163.0296,81.4765
163.0360,81.5361
163.0863,81.6710
163.0863,81.6710
163.1726,81.7862
163.1726,81.7862
163.2878,81.8724
163.2878,81.8724
163.4226,81.9227
163.4226,81.9227
163.4295,81.9235
163.4822,81.9291
164.5178,81.9291
164.5774,81.9227
164.7122,81.8724
164.8274,81.7862
164.9137,81.6710
164.9640,81.5361
164.9704,81.4765
164.9704,81.4765
167.0296,81.4765
167.0296,81.4765
167.0360,81.5361
167.0863,81.6710
167.0863,81.6710
167.1726,81.7862
167.1726,81.7862
167.2878,81.8724
167.2878,81.8724
167.4226,81.9227
167.4226,81.9227
167.4295,81.9235
167.4822,81.9291
168.5178,81.9291
168.5774,81.9227
168.7122,81.8724
168.8274,81.7862
168.9137,81.6710
168.9640,81.5361
168.9704,81.4765
168.9704,81.4765
171.0296,81.4765
171.0296,81.4765
171.0360,81.5361
171.0863,81.6710
171.0863,81.6710
171.1726,81.7862
171.1726,81.7862
171.2878,81.8724
171.2878,81.8724
171.4226,81.9227
171.4226,81.9227
171.4295,81.9235
171.4822,81.9291
172.5178,81.9291
172.5774,81.9227
172.7122,81.8724
172.8274,81.7862
172.9137,81.6710
172.9640,81.5361
172.9704,81.4765
172.9704,79.3234
172.9640,79.2638
172.9137,79.1289
172.9137,79.1289
172.9137,79.1289
172.8274,79.0137
172.8274,79.0137
172.7122,78.9275
172.7122,78.9274
172.5774,78.8772
172.5774,78.8772
172.5178,78.8707
172.5178,78.8707
172.5178,78.8707
172.5178,78.8707
171.4822,78.8707
171.4822,78.8707
171.4226,78.8772
171.2878,78.9274
171.2878,78.9275
171.1726,79.0137
171.1726,79.0137
171.0863,79.1289
171.0863,79.1289
171.0360,79.2638
171.0296,79.3234
171.0296,79.3234
171.0296,79.3234
171.0296,81.4765
168.9704,81.4765
168.9704,79.3234
168.9640,79.2638
168.9137,79.1289
168.9137,79.1289
168.9137,79.1289
168.8274,79.0137
168.8274,79.0137
168.7122,78.9275
168.7122,78.9274
168.5774,78.8772
168.5774,78.8772
168.5178,78.8707
168.5178,78.8707
168.5178,78.8707
168.5178,78.8707
167.4822,78.8707
167.4822,78.8707
167.4226,78.8772
167.2878,78.9274
167.2878,78.9275
167.1726,79.0137
167.1726,79.0137
167.0863,79.1289
167.0863,79.1289
167.0360,79.2638
167.0296,79.3234
167.0296,79.3234
167.0296,79.3234
167.0296,81.4765
164.9704,81.4765
164.9704,79.3234
164.9640,79.2638
164.9137,79.1289
164.9137,79.1289
164.9137,79.1289
164.8274,79.0137
164.8274,79.0137
164.7122,78.9275
164.7122,78.9274
164.5774,78.8772
164.5774,78.8772
164.5178,78.8707
164.5178,78.8707
164.5178,78.8707
164.5178,78.8707
163.4822,78.8707
163.4822,78.8707
163.4226,78.8772
163.2878,78.9274
163.2878,78.9275
163.1726,79.0137
163.1726,79.0137
163.0863,79.1289
163.0863,79.1289
163.0360,79.2638
163.0296,79.3234
163.0296,79.3234
163.0296,79.3234
163.0296,81.4765
160.9704,81.4765
160.9704,79.3234
160.9640,79.2638
160.9137,79.1289
160.9137,79.1289
160.9137,79.1289
160.8274,79.0137
160.8274,79.0137
160.7122,78.9275
160.7122,78.9274
160.5774,78.8772
160.5774,78.8772
160.5178,78.8707
160.5178,78.8707
160.5178,78.8707
160.5178,78.8707
159.4822,78.8707
159.4822,78.8707
159.4226,78.8772
159.2878,78.9274
159.2878,78.9275
159.1726,79.0137
159.1726,79.0137
159.0863,79.1289
159.0863,79.1289
159.0360,79.2638
159.0296,79.3234
159.0296,79.3234
159.0296,79.3234
159.0296,81.4765
156.9704,81.4765
156.9704,79.3234
156.9640,79.2638
156.9137,79.1289
156.9137,79.1289
156.9137,79.1289
156.8274,79.0137
156.8274,79.0137
156.7122,78.9275
156.7122,78.9274
156.5774,78.8772
156.5774,78.8772
156.5178,78.8707
156.5178,78.8707
156.5178,78.8707
156.5178,78.8707
155.4822,78.8707
155.4822,78.8707
155.4226,78.8772
155.2878,78.9274
155.2878,78.9275
155.1726,79.0137
155.1726,79.0137
155.0863,79.1289
155.0863,79.1289
155.0360,79.2638
155.0296,79.3234
155.0296,79.3234
155.0296,79.3234
155.0296,81.4765
151.9000,81.4765
151.9000,76.7550
157.8070,76.7550
157.8070,76.7550
157.8175,76.8578
157.8175,76.8578
157.8727,77.0243
157.8727,77.0243
157.9648,77.1737
158.0888,77.2977
158.2382,77.3898
158.4047,77.4450
158.5075,77.4555
159.0021,77.4555
159.0692,77.4752
159.0898,77.4918
159.4836,77.8856
159.4836,77.8856
159.5930,77.9951
159.5930,77.9951
159.5930,77.9951
159.6756,78.0502
159.7166,78.0776
159.7970,78.1109
159.7970,78.1109
159.8206,78.1207
159.8539,78.1345
159.8539,78.1345
159.8539,78.1345
159.8781,78.1393
159.8781,78.1393
159.9997,78.1635
159.9997,78.1635
160.1544,78.1635
160.1544,78.1635
166.7306,78.1635
166.7306,78.1635
166.7367,78.1635
166.8853,78.1635
167.0069,78.1393
167.0069,78.1393
167.0069,78.1393
167.0311,78.1345
167.0669,78.1196
167.0879,78.1110
167.0879,78.1109
167.0880,78.1109
167.1684,78.0776
167.2920,77.9951
169.7208,75.5663
169.7208,75.5663
169.7310,75.5561
169.7310,75.5561
169.8361,75.4510
169.8361,75.4510
169.8404,75.4467
169.8418,75.4481
169.8920,75.4138
169.9139,75.4089
169.9681,75.4018
170.0113,75.3961
170.1477,75.3396
170.2648,75.2498
170.3366,75.1561
170.3931,75.1149
170.4628,75.1107
170.5237,75.1449
170.5334,75.1561
170.6052,75.2498
170.7223,75.3396
170.8587,75.3961
170.9683,75.4105
172.2717,75.4105
172.2717,75.4105
172.3361,75.4020
172.3813,75.3961
172.5177,75.3396
172.6348,75.2498
172.7246,75.1327
172.7811,74.9963
172.7955,74.8867
172.7955,74.3333
172.7937,74.3196
172.7811,74.2237
172.7811,74.2237
172.7246,74.0873
172.6348,73.9702
172.5349,73.8937
172.5177,73.8804
172.3813,73.8239
172.3813,73.8239
172.2717,73.8095
170.9683,73.8095
170.8587,73.8239
170.8587,73.8239
170.7223,73.8804
170.6236,73.9561
170.5584,73.9813
170.4900,73.9673
170.4605,73.9455
170.4250,73.9100
170.2283,73.9100
170.1613,73.8903
170.1528,73.8844
170.1477,73.8804
170.1477,73.8804
170.0113,73.8239
170.0113,73.8239
169.9017,73.8095
169.9017,73.8095
169.1240,73.8095
169.0570,73.7898
169.0112,73.7370
169.0000,73.6855
169.0000,73.6345
169.0197,73.5675
169.0725,73.5217
169.1240,73.5105
169.9017,73.5105
169.9661,73.5020
170.0113,73.4961
170.1477,73.4396
170.1477,73.4396
170.1528,73.4356
170.2180,73.4104
170.2283,73.4100
170.4250,73.4100
170.4605,73.3745
170.5218,73.3411
170.5915,73.3460
170.6236,73.3638
170.6376,73.3745
170.7223,73.4396
170.7788,73.4630
170.8587,73.4961
170.9683,73.5105
172.2717,73.5105
172.2717,73.5105
172.3361,73.5020
172.3813,73.4961
172.5177,73.4396
172.6348,73.3498
172.7246,73.2327
172.7811,73.0963
172.7955,72.9867
172.7955,72.4333
172.7945,72.4257
172.7811,72.3237
172.7811,72.3237
172.7246,72.1873
172.6348,72.0702
172.5177,71.9804
172.5177,71.9804
172.3813,71.9239
172.3813,71.9239
172.2717,71.9095
172.2717,71.9095
171.9379,71.9095
171.8708,71.8898
171.8502,71.8732
171.0608,71.0838
171.0273,71.0225
171.0245,70.9961
171.0245,68.8265
171.0442,68.7595
171.0970,68.7137
171.1200,68.7059
171.1275,68.7041
171.1275,68.7041
171.2623,68.6538
171.3775,68.5675
171.4638,68.4523
171.5141,68.3175
171.5205,68.2579
171.5205,66.7560
171.5402,66.6889
171.5930,66.6432
171.6621,66.6332
171.7257,66.6623
171.7519,66.6940
171.8375,66.8422
171.8375,66.8422
171.9641,66.9829
172.1173,67.0941
172.1173,67.0942
172.2902,67.1711
172.2902,67.1711
172.4754,67.2105
172.4754,67.2105
172.6646,67.2105
172.6646,67.2105
172.8498,67.1711
173.0227,67.0942
173.1759,66.9829
173.3025,66.8422
173.3972,66.6783
173.4557,66.4983
173.4755,66.3100
173.4557,66.1217
173.3972,65.9417
173.3411,65.8446
173.3245,65.7826
173.3245,63.2502
173.3442,63.1832
173.3970,63.1374
173.4618,63.1269
173.4822,63.1291
174.5178,63.1291
174.5774,63.1227
174.7122,63.0724
174.8274,62.9862
174.9137,62.8710
174.9640,62.7361
174.9704,62.6765
174.9704,60.5234
174.9640,60.4638
174.9137,60.3289
174.9137,60.3289
174.9137,60.3289
174.8274,60.2137
174.8274,60.2137
174.7122,60.1275
174.7122,60.1274
174.5774,60.0772
174.5774,60.0772
174.5178,60.0707
174.5178,60.0707
174.5178,60.0707
174.5178,60.0707
173.4822,60.0707
173.4822,60.0707
173.4617,60.0729
173.3930,60.0605
173.3419,60.0129
173.3245,59.9497
173.3245,59.0304
173.3245,59.0304
173.3245,58.8757
173.2955,58.7299
173.2955,58.7299
173.2386,58.5926
173.2386,58.5926
173.2236,58.5701
173.1561,58.4690
173.0466,58.3596
173.0466,58.3596
173.0067,58.3197
172.9732,58.2584
172.9704,58.2320
172.9704,57.3234
172.9704,57.3234
172.9704,57.3234
172.9640,57.2638
172.9137,57.1289
172.9137,57.1289
172.9137,57.1289
172.8274,57.0137
172.8274,57.0137
172.7122,56.9275
172.7122,56.9274
172.5774,56.8772
172.5774,56.8772
172.5178,56.8707
172.5178,56.8707
172.5178,56.8707
172.5178,56.8707
171.4822,56.8707
171.4822,56.8707
171.4226,56.8772
171.2878,56.9274
171.2878,56.9275
171.1726,57.0137
171.1726,57.0137
171.0863,57.1289
171.0863,57.1289
171.0360,57.2638
171.0296,57.3234
171.0296,57.3234
171.0296,57.3234
171.0296,59.4765
171.0296,59.4765
171.0360,59.5361
171.0863,59.6710
171.0863,59.6710
171.1726,59.7862
171.1726,59.7862
171.2878,59.8724
171.2878,59.8724
171.3327,59.8892
171.4226,59.9227
171.4822,59.9291
171.6915,59.9291
171.7585,59.9488
171.8043,60.0016
171.8155,60.0531
171.8155,65.7826
171.7989,65.8446
171.7693,65.8958
171.7428,65.9417
171.7428,65.9417
171.6843,66.1217
171.6843,66.1217
171.6744,66.2159
171.6645,66.3100
171.6696,66.3580
171.6570,66.4267
171.6093,66.4777
171.5415,66.4948
171.4753,66.4726
171.4470,66.4452
171.3775,66.3525
171.3775,66.3525
171.2623,66.2662
171.2623,66.2662
171.1275,66.2159
171.1275,66.2159
171.0679,66.2095
171.0679,66.2095
171.0679,66.2095
171.0679,66.2095
169.4721,66.2095
169.4721,66.2095
169.4125,66.2159
169.2777,66.2662
169.2777,66.2662
169.1625,66.3525
169.1625,66.3525
169.0762,66.4677
169.0762,66.4677
169.0259,66.6025
169.0241,66.6100
168.9896,66.6707
168.9277,66.7031
168.9035,66.7055
165.9895,66.7055
165.9225,66.6858
165.8767,66.6330
165.8655,66.5815
165.8655,65.9629
165.8852,65.8958
165.9018,65.8752
167.0562,64.7208
167.1175,64.6873
167.1439,64.6845
168.6662,64.6845
168.7332,64.7042
168.7391,64.7082
168.7473,64.7142
168.7473,64.7142
168.9202,64.7911
168.9202,64.7911
169.1054,64.8305
169.1054,64.8305
169.2946,64.8305
169.2946,64.8305
169.4798,64.7911
169.6527,64.7142
169.8059,64.6029
169.9325,64.4622
170.0272,64.2983
170.0857,64.1183
170.1055,63.9300
170.0857,63.7417
170.0272,63.5617
169.9325,63.3978
169.8933,63.3542
169.8770,63.3361
169.8468,63.2731
169.8554,63.2038
169.9001,63.1501
169.9668,63.1292
169.9692,63.1291
170.5178,63.1291
170.5178,63.1291
170.5774,63.1227
170.7122,63.0724
170.8274,62.9862
170.9137,62.8710
170.9640,62.7361
170.9704,62.6765
170.9704,60.5234
170.9640,60.4638
170.9137,60.3289
170.9137,60.3289
170.9137,60.3289
170.8274,60.2137
170.8274,60.2137
170.7122,60.1275
170.7122,60.1274
170.5774,60.0772
170.5774,60.0772
170.5178,60.0707
170.5178,60.0707
170.5178,60.0707
170.5178,60.0707
169.4822,60.0707
169.4822,60.0707
169.4226,60.0772
169.2878,60.1274
169.2878,60.1275
169.1726,60.2137
169.1726,60.2137
169.0863,60.3289
169.0863,60.3289
169.0360,60.4638
169.0296,60.5234
169.0296,60.5234
169.0296,60.5234
169.0296,62.6765
169.0296,62.6765
169.0360,62.7361
169.0894,62.8793
169.0881,62.8798
169.1009,62.9388
169.0765,63.0043
169.0206,63.0461
169.0030,63.0513
168.9202,63.0689
168.9202,63.0689
168.7473,63.1458
168.7473,63.1458
168.7391,63.1518
168.6732,63.1753
168.6662,63.1755
166.9335,63.1755
166.8664,63.1558
166.8207,63.1030
166.8107,63.0339
166.8342,62.9772
166.9137,62.8710
166.9137,62.8710
166.9137,62.8710
166.9640,62.7361
166.9704,62.6765
166.9704,60.5234
166.9640,60.4638
166.9137,60.3289
166.9137,60.3289
166.9137,60.3289
166.8274,60.2137
166.8274,60.2137
166.7122,60.1275
166.7122,60.1274
166.5774,60.0772
166.5774,60.0772
166.5178,60.0707
166.5178,60.0707
166.5178,60.0707
166.5178,60.0707
165.4822,60.0707
165.4822,60.0707
165.4226,60.0772
165.2878,60.1274
165.2878,60.1275
165.1726,60.2137
165.1726,60.2137
165.0863,60.3289
165.0863,60.3289
165.0360,60.4638
165.0296,60.5234
165.0296,60.5234
165.0296,60.5234
165.0296,62.6765
165.0296,62.6765
165.0360,62.7361
165.0863,62.8710
165.0863,62.8710
165.1726,62.9862
165.1726,62.9862
165.2878,63.0724
165.2878,63.0724
165.4226,63.1227
165.4226,63.1227
165.4295,63.1235
165.4822,63.1291
166.2145,63.1291
166.2815,63.1488
166.3273,63.2016
166.3372,63.2708
166.3082,63.3343
166.3021,63.3408
166.1939,63.4490
165.0848,64.5582
165.0235,64.5917
164.9971,64.5945
164.2100,64.5945
164.1297,64.6009
164.1297,64.6009
164.1013,64.6098
164.0467,64.6142
163.9100,64.5945
162.9100,64.5945
162.9100,64.5945
162.8381,64.5996
162.7000,64.6402
162.5790,64.7180
162.5790,64.7180
162.4847,64.8267
162.4847,64.8267
162.4250,64.9576
162.4250,64.9576
162.4045,65.1000
162.4045,66.6000
162.4096,66.6719
162.4195,66.7055
162.4502,66.8100
162.5280,66.9310
162.6127,67.0045
162.6505,67.0632
162.6555,67.0982
162.6555,71.9256
162.6555,71.9256
162.6555,72.0854
162.6555,72.0854
162.6555,74.9356
162.6555,74.9356
162.6555,75.0893
162.6755,75.1901
162.6755,75.1901
162.6845,75.2351
162.6845,75.2351
162.7025,75.2786
162.7025,75.2786
162.7414,75.3724
162.7414,75.3724
162.8239,75.4960
162.8239,75.4960
163.2307,75.9027
163.2642,75.9640
163.2670,75.9904
163.2670,76.4850
163.2670,76.4850
163.2704,76.5179
163.2576,76.5866
163.2097,76.6375
163.1470,76.6545
162.1815,76.6545
162.1145,76.6348
162.0687,76.5820
162.0575,76.5305
162.0575,76.4800
160.8440,76.4800
160.7770,76.4603
160.7312,76.4075
160.7200,76.3560
160.7200,75.0050
161.2200,75.0050
161.2200,75.9800
162.0575,75.9800
162.0575,75.7050
162.0575,75.7050
162.0470,75.6023
161.9919,75.4359
161.9919,75.4359
161.8998,75.2867
161.7758,75.1627
161.6266,75.0706
161.6266,75.0706
161.4602,75.0155
161.4602,75.0155
161.3575,75.0050
161.2200,75.0050
160.7200,75.0050
160.5825,75.0050
160.5825,75.0050
160.4798,75.0155
160.3134,75.0706
160.3134,75.0706
160.1642,75.1627
160.0402,75.2867
160.0402,75.2867
160.0383,75.2897
160.0365,75.2913
160.0357,75.2923
160.0355,75.2922
159.9864,75.3364
159.9174,75.3476
159.8533,75.3198
159.8273,75.2897
159.8272,75.2896
159.8252,75.2863
159.7012,75.1623
159.7012,75.1623
159.6966,75.1587
159.6562,75.1016
159.6495,75.0614
159.6495,74.3886
159.6692,74.3216
159.6966,74.2913
159.7011,74.2877
159.7012,74.2877
159.8252,74.1637
159.8273,74.1603
159.8292,74.1586
159.8297,74.1580
159.8298,74.1581
159.8792,74.1136
159.9482,74.1024
160.0122,74.1302
160.0383,74.1603
160.0402,74.1633
160.0402,74.1633
160.1642,74.2873
160.3134,74.3794
160.3134,74.3794
160.4798,74.4345
160.4798,74.4345
160.5825,74.4450
160.7200,74.4450
160.7200,74.4450
160.7200,73.4700
161.2200,73.4700
161.2200,74.4450
161.3575,74.4450
161.3575,74.4450
161.4602,74.4345
161.6266,74.3794
161.6266,74.3794
161.7758,74.2873
161.8998,74.1633
161.9919,74.0141
161.9919,74.0141
162.0470,73.8477
162.0470,73.8477
162.0575,73.7450
162.0575,73.7450
162.0575,73.4700
161.2200,73.4700
160.7200,73.4700
160.7200,71.9950
161.2200,71.9950
161.2200,72.9700
162.0575,72.9700
162.0575,72.6950
162.0575,72.6950
162.0470,72.5923
161.9919,72.4259
161.9919,72.4259
161.8998,72.2767
161.7758,72.1527
161.6266,72.0606
161.6266,72.0606
161.4602,72.0055
161.4602,72.0055
161.3575,71.9950
161.2200,71.9950
160.7200,71.9950
160.5825,71.9950
160.5825,71.9950
160.4798,72.0055
160.3134,72.0606
160.3134,72.0606
160.1642,72.1527
160.0402,72.2767
160.0402,72.2767
160.0383,72.2797
160.0365,72.2813
160.0357,72.2823
160.0355,72.2822
159.9864,72.3264
159.9174,72.3376
159.8533,72.3098
159.8273,72.2797
159.8272,72.2796
159.8252,72.2763
159.7012,72.1523
159.7012,72.1523
159.6966,72.1487
159.6562,72.0916
159.6495,72.0514
159.6495,71.3786
159.6692,71.3115
159.6966,71.2813
159.7011,71.2777
159.7012,71.2777
159.8252,71.1537
159.8273,71.1503
159.8292,71.1486
159.8297,71.1480
159.8298,71.1481
159.8792,71.1036
159.9482,71.0924
160.0122,71.1202
160.0383,71.1503
160.0402,71.1533
160.0402,71.1533
160.1642,71.2773
160.3134,71.3694
160.3134,71.3694
160.4798,71.4245
160.4798,71.4245
160.5825,71.4350
160.7200,71.4350
160.7200,71.4350
160.7200,70.4600
161.2200,70.4600
161.2200,71.4350
161.3575,71.4350
161.3575,71.4350
161.4602,71.4245
161.6266,71.3694
161.6266,71.3694
161.7758,71.2773
161.8998,71.1533
161.9919,71.0041
161.9919,71.0041
162.0470,70.8377
162.0470,70.8377
162.0575,70.7350
162.0575,70.7350
162.0575,70.4600
161.2200,70.4600
160.7200,70.4600
160.7200,68.9850
161.2200,68.9850
161.2200,69.9600
162.0575,69.9600
162.0575,69.6850
162.0575,69.6850
162.0470,69.5823
161.9919,69.4159
161.9919,69.4159
161.8998,69.2667
161.7758,69.1427
161.6266,69.0506
161.6266,69.0506
161.4602,68.9955
161.4602,68.9955
161.3575,68.9850
161.2200,68.9850
160.7200,68.9850
160.5825,68.9850
160.5825,68.9850
160.4798,68.9955
160.3134,69.0506
160.3134,69.0506
160.1642,69.1427
160.0402,69.2667
160.0402,69.2667
160.0383,69.2697
160.0365,69.2713
160.0357,69.2723
160.0355,69.2722
159.9864,69.3164
159.9174,69.3276
159.8533,69.2998
159.8273,69.2697
159.8272,69.2696
159.8252,69.2663
159.7012,69.1423
159.5518,69.0502
159.3853,68.9950
159.3853,68.9950
159.2825,68.9845
158.5075,68.9845
158.5075,68.9845
158.4047,68.9950
158.4047,68.9950
158.2382,69.0502
158.2382,69.0502
158.0888,69.1423
157.9648,69.2663
157.8727,69.4157
157.8727,69.4157
157.8726,69.4159
157.8175,69.5822
157.8175,69.5822
157.8175,69.5822
157.8070,69.6850
157.8070,70.7350
157.8070,70.7350
157.8175,70.8378
157.8175,70.8378
157.8700,70.9961
157.8727,71.0043
157.9648,71.1537
158.0888,71.2777
158.0888,71.2777
158.0934,71.2813
158.1338,71.3383
158.1405,71.3786
158.1405,72.0514
158.1208,72.1184
158.0934,72.1487
158.0888,72.1523
157.9648,72.2763
157.8727,72.4257
157.8727,72.4257
157.8448,72.5097
157.8175,72.5922
157.8175,72.5922
157.8175,72.5922
157.8070,72.6950
157.8070,73.7450
157.8070,73.7450
157.8175,73.8478
157.8175,73.8478
157.8727,74.0143
157.8727,74.0143
157.8854,74.0349
157.9648,74.1637
158.0888,74.2877
158.0888,74.2877
158.0934,74.2913
158.1338,74.3483
158.1405,74.3886
158.1405,75.0614
158.1208,75.1284
158.0934,75.1587
158.0888,75.1623
157.9648,75.2863
157.8727,75.4357
157.8727,75.4357
157.8448,75.5197
157.8175,75.6022
157.8175,75.6022
157.8175,75.6022
157.8070,75.7050
157.8070,76.7550
151.9000,76.7550
151.9000,62.6765
157.0296,62.6765
157.0296,62.6765
157.0360,62.7361
157.0863,62.8710
157.0863,62.8710
157.1726,62.9862
157.1726,62.9862
157.2878,63.0724
157.2878,63.0724
157.4226,63.1227
157.4226,63.1227
157.4295,63.1235
157.4822,63.1291
158.5178,63.1291
158.5774,63.1227
158.7122,63.0724
158.8274,62.9862
158.9137,62.8710
158.9640,62.7361
158.9704,62.6765
158.9704,62.6765
161.0296,62.6765
161.0296,62.6765
161.0360,62.7361
161.0863,62.8710
161.0863,62.8710
161.1726,62.9862
161.1726,62.9862
161.2878,63.0724
161.2878,63.0724
161.4226,63.1227
161.4226,63.1227
161.4295,63.1235
161.4822,63.1291
162.5178,63.1291
162.5774,63.1227
162.7122,63.0724
162.8274,62.9862
162.9137,62.8710
162.9640,62.7361
162.9704,62.6765
162.9704,60.5234
162.9640,60.4638
162.9137,60.3289
162.9137,60.3289
162.9137,60.3289
162.8274,60.2137
162.8274,60.2137
162.7122,60.1275
162.7122,60.1274
162.5774,60.0772
162.5774,60.0772
162.5178,60.0707
162.5178,60.0707
162.5178,60.0707
162.5178,60.0707
161.4822,60.0707
161.4822,60.0707
161.4226,60.0772
161.2878,60.1274
161.2878,60.1275
161.1726,60.2137
161.1726,60.2137
161.0863,60.3289
161.0863,60.3289
161.0360,60.4638
161.0296,60.5234
161.0296,60.5234
161.0296,60.5234
161.0296,62.6765
158.9704,62.6765
158.9704,60.5234
158.9640,60.4638
158.9137,60.3289
158.9137,60.3289
158.9137,60.3289
158.8274,60.2137
158.8274,60.2137
158.7122,60.1275
158.7122,60.1274
158.5774,60.0772
158.5774,60.0772
158.5178,60.0707
158.5178,60.0707
158.5178,60.0707
158.5178,60.0707
157.4822,60.0707
157.4822,60.0707
157.4226,60.0772
157.2878,60.1274
157.2878,60.1275
157.1726,60.2137
157.1726,60.2137
157.0863,60.3289
157.0863,60.3289
157.0360,60.4638
157.0296,60.5234
157.0296,60.5234
157.0296,60.5234
157.0296,62.6765
151.9000,62.6765
151.9000,59.4765
155.0296,59.4765
155.0296,59.4765
155.0360,59.5361
155.0863,59.6710
155.0863,59.6710
155.1726,59.7862
155.1726,59.7862
155.2878,59.8724
155.2878,59.8724
155.4226,59.9227
155.4226,59.9227
155.4295,59.9235
155.4822,59.9291
156.5178,59.9291
156.5774,59.9227
156.7122,59.8724
156.8274,59.7862
156.9137,59.6710
156.9640,59.5361
156.9704,59.4765
156.9704,59.4765
159.0296,59.4765
159.0296,59.4765
159.0360,59.5361
159.0863,59.6710
159.0863,59.6710
159.1726,59.7862
159.1726,59.7862
159.2878,59.8724
159.2878,59.8724
159.4226,59.9227
159.4226,59.9227
159.4295,59.9235
159.4822,59.9291
160.5178,59.9291
160.5774,59.9227
160.7122,59.8724
160.8274,59.7862
160.9137,59.6710
160.9640,59.5361
160.9704,59.4765
160.9704,59.4765
163.0296,59.4765
163.0296,59.4765
163.0360,59.5361
163.0863,59.6710
163.0863,59.6710
163.1726,59.7862
163.1726,59.7862
163.2878,59.8724
163.2878,59.8724
163.4226,59.9227
163.4226,59.9227
163.4295,59.9235
163.4822,59.9291
164.5178,59.9291
164.5774,59.9227
164.7122,59.8724
164.8274,59.7862
164.9137,59.6710
164.9640,59.5361
164.9704,59.4765
164.9704,59.4765
167.0296,59.4765
167.0296,59.4765
167.0360,59.5361
167.0863,59.6710
167.0863,59.6710
167.1726,59.7862
167.1726,59.7862
167.2878,59.8724
167.2878,59.8724
167.4226,59.9227
167.4226,59.9227
167.4295,59.9235
167.4822,59.9291
168.5178,59.9291
168.5774,59.9227
168.7122,59.8724
168.8274,59.7862
168.9137,59.6710
168.9640,59.5361
168.9704,59.4765
168.9704,57.3234
168.9640,57.2638
168.9137,57.1289
168.9137,57.1289
168.9137,57.1289
168.8274,57.0137
168.8274,57.0137
168.7122,56.9275
168.7122,56.9274
168.5774,56.8772
168.5774,56.8772
168.5178,56.8707
168.5178,56.8707
168.5178,56.8707
168.5178,56.8707
167.4822,56.8707
167.4822,56.8707
167.4226,56.8772
167.2878,56.9274
167.2878,56.9275
167.1726,57.0137
167.1726,57.0137
167.0863,57.1289
167.0863,57.1289
167.0360,57.2638
167.0296,57.3234
167.0296,57.3234
167.0296,57.3234
167.0296,59.4765
164.9704,59.4765
164.9704,57.3234
164.9640,57.2638
164.9137,57.1289
164.9137,57.1289
164.9137,57.1289
164.8274,57.0137
164.8274,57.0137
164.7122,56.9275
164.7122,56.9274
164.5774,56.8772
164.5774,56.8772
164.5178,56.8707
164.5178,56.8707
164.5178,56.8707
164.5178,56.8707
163.4822,56.8707
163.4822,56.8707
163.4226,56.8772
163.2878,56.9274
163.2878,56.9275
163.1726,57.0137
163.1726,57.0137
163.0863,57.1289
163.0863,57.1289
163.0360,57.2638
163.0296,57.3234
163.0296,57.3234
163.0296,57.3234
163.0296,59.4765
160.9704,59.4765
160.9704,57.3234
160.9640,57.2638
160.9137,57.1289
160.9137,57.1289
160.9137,57.1289
160.8274,57.0137
160.8274,57.0137
160.7122,56.9275
160.7122,56.9274
160.5774,56.8772
160.5774,56.8772
160.5178,56.8707
160.5178,56.8707
160.5178,56.8707
160.5178,56.8707
159.4822,56.8707
159.4822,56.8707
159.4226,56.8772
159.2878,56.9274
159.2878,56.9275
159.1726,57.0137
159.1726,57.0137
159.0863,57.1289
159.0863,57.1289
159.0360,57.2638
159.0296,57.3234
159.0296,57.3234
159.0296,57.3234
159.0296,59.4765
156.9704,59.4765
156.9704,57.3234
156.9640,57.2638
156.9137,57.1289
156.9137,57.1289
156.9137,57.1289
156.8274,57.0137
156.8274,57.0137
156.7122,56.9275
156.7122,56.9274
156.5774,56.8772
156.5774,56.8772
156.5178,56.8707
156.5178,56.8707
156.5178,56.8707
156.5178,56.8707
155.4822,56.8707
155.4822,56.8707
155.4226,56.8772
155.2878,56.9274
155.2878,56.9275
155.1726,57.0137
155.1726,57.0137
155.0863,57.1289
155.0863,57.1289
155.0360,57.2638
155.0296,57.3234
155.0296,57.3234
155.0296,57.3234
155.0296,59.4765
151.9000,59.4765
151.9000,56.0140
151.9197,55.9470
151.9725,55.9012
152.0240,55.8900
176.7660,55.8900
Z" /> 
</g> 
</svg>
