<?xml version="1.0" standalone="no"?>
 <!DOCTYPE svg PUBLIC "-//W3C//DTD SVG 1.1//EN" 
 "http://www.w3.org/Graphics/SVG/1.1/DTD/svg11.dtd"> 
<svg
  xmlns:svg="http://www.w3.org/2000/svg"
  xmlns="http://www.w3.org/2000/svg"
  xmlns:xlink="http://www.w3.org/1999/xlink"
  version="1.1"
  width="297.0022mm" height="210.0072mm" viewBox="0.0000 0.0000 297.0022 210.0072">
<title>SVG Image created as adapter_board-B_Silkscreen.svg date 2024/04/08 23:37:47 </title>
  <desc>Image generated by PCBNEW </desc>
<g style="fill:#000000; fill-opacity:1.0000;stroke:#000000; stroke-opacity:1.0000;
stroke-linecap:round; stroke-linejoin:round;"
 transform="translate(0 0) scale(1 1)">
</g>
<g style="fill:none; 
stroke:#E8B2A7; stroke-width:0.1500; stroke-opacity:1; 
stroke-linecap:round; stroke-linejoin:round;">
<text x="165.3925" y="71.1302"
transform="scale(-1 1) translate(-330.785000 0)"
textLength="11.2976" font-size="1.3333" lengthAdjust="spacingAndGlyphs"
text-anchor="middle" opacity="0">ECE445 SP24 </text>
<g class="stroked-text"><desc>ECE445 SP24 </desc>
<path d="M170.6782 70.4762
L170.3449 70.4762
" />
<path d="M170.2020 71.0000
L170.6782 71.0000
" />
<path d="M170.6782 71.0000
L170.6782 70.0000
" />
<path d="M170.6782 70.0000
L170.2020 70.0000
" />
<path d="M169.2020 70.9047
L169.2496 70.9524
" />
<path d="M169.2496 70.9524
L169.3925 71.0000
" />
<path d="M169.3925 71.0000
L169.4877 71.0000
" />
<path d="M169.4877 71.0000
L169.6306 70.9524
" />
<path d="M169.6306 70.9524
L169.7258 70.8571
" />
<path d="M169.7258 70.8571
L169.7735 70.7619
" />
<path d="M169.7735 70.7619
L169.8211 70.5714
" />
<path d="M169.8211 70.5714
L169.8211 70.4286
" />
<path d="M169.8211 70.4286
L169.7735 70.2381
" />
<path d="M169.7735 70.2381
L169.7258 70.1428
" />
<path d="M169.7258 70.1428
L169.6306 70.0476
" />
<path d="M169.6306 70.0476
L169.4877 70.0000
" />
<path d="M169.4877 70.0000
L169.3925 70.0000
" />
<path d="M169.3925 70.0000
L169.2496 70.0476
" />
<path d="M169.2496 70.0476
L169.2020 70.0952
" />
<path d="M168.7735 70.4762
L168.4401 70.4762
" />
<path d="M168.2973 71.0000
L168.7735 71.0000
" />
<path d="M168.7735 71.0000
L168.7735 70.0000
" />
<path d="M168.7735 70.0000
L168.2973 70.0000
" />
<path d="M167.4401 70.3333
L167.4401 71.0000
" />
<path d="M167.6782 69.9524
L167.9163 70.6667
" />
<path d="M167.9163 70.6667
L167.2973 70.6667
" />
<path d="M166.4877 70.3333
L166.4877 71.0000
" />
<path d="M166.7258 69.9524
L166.9639 70.6667
" />
<path d="M166.9639 70.6667
L166.3449 70.6667
" />
<path d="M165.4877 70.0000
L165.9639 70.0000
" />
<path d="M165.9639 70.0000
L166.0115 70.4762
" />
<path d="M166.0115 70.4762
L165.9639 70.4286
" />
<path d="M165.9639 70.4286
L165.8687 70.3809
" />
<path d="M165.8687 70.3809
L165.6306 70.3809
" />
<path d="M165.6306 70.3809
L165.5354 70.4286
" />
<path d="M165.5354 70.4286
L165.4877 70.4762
" />
<path d="M165.4877 70.4762
L165.4401 70.5714
" />
<path d="M165.4401 70.5714
L165.4401 70.8095
" />
<path d="M165.4401 70.8095
L165.4877 70.9047
" />
<path d="M165.4877 70.9047
L165.5354 70.9524
" />
<path d="M165.5354 70.9524
L165.6306 71.0000
" />
<path d="M165.6306 71.0000
L165.8687 71.0000
" />
<path d="M165.8687 71.0000
L165.9639 70.9524
" />
<path d="M165.9639 70.9524
L166.0115 70.9047
" />
<path d="M164.2973 70.9524
L164.1544 71.0000
" />
<path d="M164.1544 71.0000
L163.9163 71.0000
" />
<path d="M163.9163 71.0000
L163.8211 70.9524
" />
<path d="M163.8211 70.9524
L163.7735 70.9047
" />
<path d="M163.7735 70.9047
L163.7258 70.8095
" />
<path d="M163.7258 70.8095
L163.7258 70.7143
" />
<path d="M163.7258 70.7143
L163.7735 70.6190
" />
<path d="M163.7735 70.6190
L163.8211 70.5714
" />
<path d="M163.8211 70.5714
L163.9163 70.5238
" />
<path d="M163.9163 70.5238
L164.1068 70.4762
" />
<path d="M164.1068 70.4762
L164.2020 70.4286
" />
<path d="M164.2020 70.4286
L164.2496 70.3809
" />
<path d="M164.2496 70.3809
L164.2973 70.2857
" />
<path d="M164.2973 70.2857
L164.2973 70.1905
" />
<path d="M164.2973 70.1905
L164.2496 70.0952
" />
<path d="M164.2496 70.0952
L164.2020 70.0476
" />
<path d="M164.2020 70.0476
L164.1068 70.0000
" />
<path d="M164.1068 70.0000
L163.8687 70.0000
" />
<path d="M163.8687 70.0000
L163.7258 70.0476
" />
<path d="M163.2973 71.0000
L163.2973 70.0000
" />
<path d="M163.2973 70.0000
L162.9163 70.0000
" />
<path d="M162.9163 70.0000
L162.8211 70.0476
" />
<path d="M162.8211 70.0476
L162.7735 70.0952
" />
<path d="M162.7735 70.0952
L162.7258 70.1905
" />
<path d="M162.7258 70.1905
L162.7258 70.3333
" />
<path d="M162.7258 70.3333
L162.7735 70.4286
" />
<path d="M162.7735 70.4286
L162.8211 70.4762
" />
<path d="M162.8211 70.4762
L162.9163 70.5238
" />
<path d="M162.9163 70.5238
L163.2973 70.5238
" />
<path d="M162.3449 70.0952
L162.2973 70.0476
" />
<path d="M162.2973 70.0476
L162.2020 70.0000
" />
<path d="M162.2020 70.0000
L161.9639 70.0000
" />
<path d="M161.9639 70.0000
L161.8687 70.0476
" />
<path d="M161.8687 70.0476
L161.8211 70.0952
" />
<path d="M161.8211 70.0952
L161.7735 70.1905
" />
<path d="M161.7735 70.1905
L161.7735 70.2857
" />
<path d="M161.7735 70.2857
L161.8211 70.4286
" />
<path d="M161.8211 70.4286
L162.3925 71.0000
" />
<path d="M162.3925 71.0000
L161.7735 71.0000
" />
<path d="M160.9163 70.3333
L160.9163 71.0000
" />
<path d="M161.1544 69.9524
L161.3925 70.6667
" />
<path d="M161.3925 70.6667
L160.7735 70.6667
" />
</g><text x="165.3925" y="72.7401"
transform="scale(-1 1) translate(-330.785000 0)"
textLength="10.9643" font-size="1.3333" lengthAdjust="spacingAndGlyphs"
text-anchor="middle" opacity="0">Adapter Board</text>
<g class="stroked-text"><desc>Adapter Board</desc>
<path d="M170.5592 72.3242
L170.0830 72.3242
" />
<path d="M170.6544 72.6099
L170.3211 71.6099
" />
<path d="M170.3211 71.6099
L169.9877 72.6099
" />
<path d="M169.2258 72.6099
L169.2258 71.6099
" />
<path d="M169.2258 72.5623
L169.3211 72.6099
" />
<path d="M169.3211 72.6099
L169.5115 72.6099
" />
<path d="M169.5115 72.6099
L169.6068 72.5623
" />
<path d="M169.6068 72.5623
L169.6544 72.5147
" />
<path d="M169.6544 72.5147
L169.7020 72.4195
" />
<path d="M169.7020 72.4195
L169.7020 72.1337
" />
<path d="M169.7020 72.1337
L169.6544 72.0385
" />
<path d="M169.6544 72.0385
L169.6068 71.9909
" />
<path d="M169.6068 71.9909
L169.5115 71.9433
" />
<path d="M169.5115 71.9433
L169.3211 71.9433
" />
<path d="M169.3211 71.9433
L169.2258 71.9909
" />
<path d="M168.3211 72.6099
L168.3211 72.0861
" />
<path d="M168.3211 72.0861
L168.3687 71.9909
" />
<path d="M168.3687 71.9909
L168.4639 71.9433
" />
<path d="M168.4639 71.9433
L168.6544 71.9433
" />
<path d="M168.6544 71.9433
L168.7496 71.9909
" />
<path d="M168.3211 72.5623
L168.4163 72.6099
" />
<path d="M168.4163 72.6099
L168.6544 72.6099
" />
<path d="M168.6544 72.6099
L168.7496 72.5623
" />
<path d="M168.7496 72.5623
L168.7973 72.4671
" />
<path d="M168.7973 72.4671
L168.7973 72.3718
" />
<path d="M168.7973 72.3718
L168.7496 72.2766
" />
<path d="M168.7496 72.2766
L168.6544 72.2290
" />
<path d="M168.6544 72.2290
L168.4163 72.2290
" />
<path d="M168.4163 72.2290
L168.3211 72.1814
" />
<path d="M167.8449 71.9433
L167.8449 72.9433
" />
<path d="M167.8449 71.9909
L167.7496 71.9433
" />
<path d="M167.7496 71.9433
L167.5592 71.9433
" />
<path d="M167.5592 71.9433
L167.4639 71.9909
" />
<path d="M167.4639 71.9909
L167.4163 72.0385
" />
<path d="M167.4163 72.0385
L167.3687 72.1337
" />
<path d="M167.3687 72.1337
L167.3687 72.4195
" />
<path d="M167.3687 72.4195
L167.4163 72.5147
" />
<path d="M167.4163 72.5147
L167.4639 72.5623
" />
<path d="M167.4639 72.5623
L167.5592 72.6099
" />
<path d="M167.5592 72.6099
L167.7496 72.6099
" />
<path d="M167.7496 72.6099
L167.8449 72.5623
" />
<path d="M167.0830 71.9433
L166.7020 71.9433
" />
<path d="M166.9401 71.6099
L166.9401 72.4671
" />
<path d="M166.9401 72.4671
L166.8925 72.5623
" />
<path d="M166.8925 72.5623
L166.7973 72.6099
" />
<path d="M166.7973 72.6099
L166.7020 72.6099
" />
<path d="M165.9877 72.5623
L166.0830 72.6099
" />
<path d="M166.0830 72.6099
L166.2735 72.6099
" />
<path d="M166.2735 72.6099
L166.3687 72.5623
" />
<path d="M166.3687 72.5623
L166.4163 72.4671
" />
<path d="M166.4163 72.4671
L166.4163 72.0861
" />
<path d="M166.4163 72.0861
L166.3687 71.9909
" />
<path d="M166.3687 71.9909
L166.2735 71.9433
" />
<path d="M166.2735 71.9433
L166.0830 71.9433
" />
<path d="M166.0830 71.9433
L165.9877 71.9909
" />
<path d="M165.9877 71.9909
L165.9401 72.0861
" />
<path d="M165.9401 72.0861
L165.9401 72.1814
" />
<path d="M165.9401 72.1814
L166.4163 72.2766
" />
<path d="M165.5115 72.6099
L165.5115 71.9433
" />
<path d="M165.5115 72.1337
L165.4639 72.0385
" />
<path d="M165.4639 72.0385
L165.4163 71.9909
" />
<path d="M165.4163 71.9909
L165.3211 71.9433
" />
<path d="M165.3211 71.9433
L165.2258 71.9433
" />
<path d="M163.7973 72.0861
L163.6544 72.1337
" />
<path d="M163.6544 72.1337
L163.6068 72.1814
" />
<path d="M163.6068 72.1814
L163.5592 72.2766
" />
<path d="M163.5592 72.2766
L163.5592 72.4195
" />
<path d="M163.5592 72.4195
L163.6068 72.5147
" />
<path d="M163.6068 72.5147
L163.6544 72.5623
" />
<path d="M163.6544 72.5623
L163.7496 72.6099
" />
<path d="M163.7496 72.6099
L164.1306 72.6099
" />
<path d="M164.1306 72.6099
L164.1306 71.6099
" />
<path d="M164.1306 71.6099
L163.7973 71.6099
" />
<path d="M163.7973 71.6099
L163.7020 71.6576
" />
<path d="M163.7020 71.6576
L163.6544 71.7052
" />
<path d="M163.6544 71.7052
L163.6068 71.8004
" />
<path d="M163.6068 71.8004
L163.6068 71.8956
" />
<path d="M163.6068 71.8956
L163.6544 71.9909
" />
<path d="M163.6544 71.9909
L163.7020 72.0385
" />
<path d="M163.7020 72.0385
L163.7973 72.0861
" />
<path d="M163.7973 72.0861
L164.1306 72.0861
" />
<path d="M162.9877 72.6099
L163.0830 72.5623
" />
<path d="M163.0830 72.5623
L163.1306 72.5147
" />
<path d="M163.1306 72.5147
L163.1782 72.4195
" />
<path d="M163.1782 72.4195
L163.1782 72.1337
" />
<path d="M163.1782 72.1337
L163.1306 72.0385
" />
<path d="M163.1306 72.0385
L163.0830 71.9909
" />
<path d="M163.0830 71.9909
L162.9877 71.9433
" />
<path d="M162.9877 71.9433
L162.8449 71.9433
" />
<path d="M162.8449 71.9433
L162.7496 71.9909
" />
<path d="M162.7496 71.9909
L162.7020 72.0385
" />
<path d="M162.7020 72.0385
L162.6544 72.1337
" />
<path d="M162.6544 72.1337
L162.6544 72.4195
" />
<path d="M162.6544 72.4195
L162.7020 72.5147
" />
<path d="M162.7020 72.5147
L162.7496 72.5623
" />
<path d="M162.7496 72.5623
L162.8449 72.6099
" />
<path d="M162.8449 72.6099
L162.9877 72.6099
" />
<path d="M161.7973 72.6099
L161.7973 72.0861
" />
<path d="M161.7973 72.0861
L161.8449 71.9909
" />
<path d="M161.8449 71.9909
L161.9401 71.9433
" />
<path d="M161.9401 71.9433
L162.1306 71.9433
" />
<path d="M162.1306 71.9433
L162.2258 71.9909
" />
<path d="M161.7973 72.5623
L161.8925 72.6099
" />
<path d="M161.8925 72.6099
L162.1306 72.6099
" />
<path d="M162.1306 72.6099
L162.2258 72.5623
" />
<path d="M162.2258 72.5623
L162.2735 72.4671
" />
<path d="M162.2735 72.4671
L162.2735 72.3718
" />
<path d="M162.2735 72.3718
L162.2258 72.2766
" />
<path d="M162.2258 72.2766
L162.1306 72.2290
" />
<path d="M162.1306 72.2290
L161.8925 72.2290
" />
<path d="M161.8925 72.2290
L161.7973 72.1814
" />
<path d="M161.3211 72.6099
L161.3211 71.9433
" />
<path d="M161.3211 72.1337
L161.2735 72.0385
" />
<path d="M161.2735 72.0385
L161.2258 71.9909
" />
<path d="M161.2258 71.9909
L161.1306 71.9433
" />
<path d="M161.1306 71.9433
L161.0354 71.9433
" />
<path d="M160.2735 72.6099
L160.2735 71.6099
" />
<path d="M160.2735 72.5623
L160.3687 72.6099
" />
<path d="M160.3687 72.6099
L160.5592 72.6099
" />
<path d="M160.5592 72.6099
L160.6544 72.5623
" />
<path d="M160.6544 72.5623
L160.7020 72.5147
" />
<path d="M160.7020 72.5147
L160.7496 72.4195
" />
<path d="M160.7496 72.4195
L160.7496 72.1337
" />
<path d="M160.7496 72.1337
L160.7020 72.0385
" />
<path d="M160.7020 72.0385
L160.6544 71.9909
" />
<path d="M160.6544 71.9909
L160.5592 71.9433
" />
<path d="M160.5592 71.9433
L160.3687 71.9433
" />
<path d="M160.3687 71.9433
L160.2735 71.9909
" />
</g><text x="165.3925" y="74.3501"
transform="scale(-1 1) translate(-330.785000 0)"
textLength="6.7738" font-size="1.3333" lengthAdjust="spacingAndGlyphs"
text-anchor="middle" opacity="0">Team 64</text>
<g class="stroked-text"><desc>Team 64</desc>
<path d="M168.5592 73.2199
L167.9877 73.2199
" />
<path d="M168.2735 74.2199
L168.2735 73.2199
" />
<path d="M167.2735 74.1723
L167.3687 74.2199
" />
<path d="M167.3687 74.2199
L167.5592 74.2199
" />
<path d="M167.5592 74.2199
L167.6544 74.1723
" />
<path d="M167.6544 74.1723
L167.7020 74.0770
" />
<path d="M167.7020 74.0770
L167.7020 73.6961
" />
<path d="M167.7020 73.6961
L167.6544 73.6008
" />
<path d="M167.6544 73.6008
L167.5592 73.5532
" />
<path d="M167.5592 73.5532
L167.3687 73.5532
" />
<path d="M167.3687 73.5532
L167.2735 73.6008
" />
<path d="M167.2735 73.6008
L167.2258 73.6961
" />
<path d="M167.2258 73.6961
L167.2258 73.7913
" />
<path d="M167.2258 73.7913
L167.7020 73.8865
" />
<path d="M166.3687 74.2199
L166.3687 73.6961
" />
<path d="M166.3687 73.6961
L166.4163 73.6008
" />
<path d="M166.4163 73.6008
L166.5115 73.5532
" />
<path d="M166.5115 73.5532
L166.7020 73.5532
" />
<path d="M166.7020 73.5532
L166.7973 73.6008
" />
<path d="M166.3687 74.1723
L166.4639 74.2199
" />
<path d="M166.4639 74.2199
L166.7020 74.2199
" />
<path d="M166.7020 74.2199
L166.7973 74.1723
" />
<path d="M166.7973 74.1723
L166.8449 74.0770
" />
<path d="M166.8449 74.0770
L166.8449 73.9818
" />
<path d="M166.8449 73.9818
L166.7973 73.8865
" />
<path d="M166.7973 73.8865
L166.7020 73.8389
" />
<path d="M166.7020 73.8389
L166.4639 73.8389
" />
<path d="M166.4639 73.8389
L166.3687 73.7913
" />
<path d="M165.8925 74.2199
L165.8925 73.5532
" />
<path d="M165.8925 73.6484
L165.8449 73.6008
" />
<path d="M165.8449 73.6008
L165.7496 73.5532
" />
<path d="M165.7496 73.5532
L165.6068 73.5532
" />
<path d="M165.6068 73.5532
L165.5115 73.6008
" />
<path d="M165.5115 73.6008
L165.4639 73.6961
" />
<path d="M165.4639 73.6961
L165.4639 74.2199
" />
<path d="M165.4639 73.6961
L165.4163 73.6008
" />
<path d="M165.4163 73.6008
L165.3211 73.5532
" />
<path d="M165.3211 73.5532
L165.1782 73.5532
" />
<path d="M165.1782 73.5532
L165.0830 73.6008
" />
<path d="M165.0830 73.6008
L165.0354 73.6961
" />
<path d="M165.0354 73.6961
L165.0354 74.2199
" />
<path d="M163.3687 73.2199
L163.5592 73.2199
" />
<path d="M163.5592 73.2199
L163.6544 73.2675
" />
<path d="M163.6544 73.2675
L163.7020 73.3151
" />
<path d="M163.7020 73.3151
L163.7973 73.4580
" />
<path d="M163.7973 73.4580
L163.8449 73.6484
" />
<path d="M163.8449 73.6484
L163.8449 74.0294
" />
<path d="M163.8449 74.0294
L163.7973 74.1246
" />
<path d="M163.7973 74.1246
L163.7496 74.1723
" />
<path d="M163.7496 74.1723
L163.6544 74.2199
" />
<path d="M163.6544 74.2199
L163.4639 74.2199
" />
<path d="M163.4639 74.2199
L163.3687 74.1723
" />
<path d="M163.3687 74.1723
L163.3211 74.1246
" />
<path d="M163.3211 74.1246
L163.2735 74.0294
" />
<path d="M163.2735 74.0294
L163.2735 73.7913
" />
<path d="M163.2735 73.7913
L163.3211 73.6961
" />
<path d="M163.3211 73.6961
L163.3687 73.6484
" />
<path d="M163.3687 73.6484
L163.4639 73.6008
" />
<path d="M163.4639 73.6008
L163.6544 73.6008
" />
<path d="M163.6544 73.6008
L163.7496 73.6484
" />
<path d="M163.7496 73.6484
L163.7973 73.6961
" />
<path d="M163.7973 73.6961
L163.8449 73.7913
" />
<path d="M162.4163 73.5532
L162.4163 74.2199
" />
<path d="M162.6544 73.1723
L162.8925 73.8865
" />
<path d="M162.8925 73.8865
L162.2735 73.8865
" />
</g><text x="165.3925" y="75.9600"
transform="scale(-1 1) translate(-330.785000 0)"
textLength="11.7738" font-size="1.3333" lengthAdjust="spacingAndGlyphs"
text-anchor="middle" opacity="0">Hunter Baisden</text>
<g class="stroked-text"><desc>Hunter Baisden</desc>
<path d="M170.9163 75.8298
L170.9163 74.8298
" />
<path d="M170.9163 75.3060
L170.3449 75.3060
" />
<path d="M170.3449 75.8298
L170.3449 74.8298
" />
<path d="M169.4401 75.1632
L169.4401 75.8298
" />
<path d="M169.8687 75.1632
L169.8687 75.6870
" />
<path d="M169.8687 75.6870
L169.8211 75.7822
" />
<path d="M169.8211 75.7822
L169.7258 75.8298
" />
<path d="M169.7258 75.8298
L169.5830 75.8298
" />
<path d="M169.5830 75.8298
L169.4877 75.7822
" />
<path d="M169.4877 75.7822
L169.4401 75.7346
" />
<path d="M168.9639 75.1632
L168.9639 75.8298
" />
<path d="M168.9639 75.2584
L168.9163 75.2108
" />
<path d="M168.9163 75.2108
L168.8211 75.1632
" />
<path d="M168.8211 75.1632
L168.6782 75.1632
" />
<path d="M168.6782 75.1632
L168.5830 75.2108
" />
<path d="M168.5830 75.2108
L168.5354 75.3060
" />
<path d="M168.5354 75.3060
L168.5354 75.8298
" />
<path d="M168.2020 75.1632
L167.8211 75.1632
" />
<path d="M168.0592 74.8298
L168.0592 75.6870
" />
<path d="M168.0592 75.6870
L168.0115 75.7822
" />
<path d="M168.0115 75.7822
L167.9163 75.8298
" />
<path d="M167.9163 75.8298
L167.8211 75.8298
" />
<path d="M167.1068 75.7822
L167.2020 75.8298
" />
<path d="M167.2020 75.8298
L167.3925 75.8298
" />
<path d="M167.3925 75.8298
L167.4877 75.7822
" />
<path d="M167.4877 75.7822
L167.5354 75.6870
" />
<path d="M167.5354 75.6870
L167.5354 75.3060
" />
<path d="M167.5354 75.3060
L167.4877 75.2108
" />
<path d="M167.4877 75.2108
L167.3925 75.1632
" />
<path d="M167.3925 75.1632
L167.2020 75.1632
" />
<path d="M167.2020 75.1632
L167.1068 75.2108
" />
<path d="M167.1068 75.2108
L167.0592 75.3060
" />
<path d="M167.0592 75.3060
L167.0592 75.4012
" />
<path d="M167.0592 75.4012
L167.5354 75.4965
" />
<path d="M166.6306 75.8298
L166.6306 75.1632
" />
<path d="M166.6306 75.3536
L166.5830 75.2584
" />
<path d="M166.5830 75.2584
L166.5354 75.2108
" />
<path d="M166.5354 75.2108
L166.4401 75.1632
" />
<path d="M166.4401 75.1632
L166.3449 75.1632
" />
<path d="M164.9163 75.3060
L164.7735 75.3536
" />
<path d="M164.7735 75.3536
L164.7258 75.4012
" />
<path d="M164.7258 75.4012
L164.6782 75.4965
" />
<path d="M164.6782 75.4965
L164.6782 75.6393
" />
<path d="M164.6782 75.6393
L164.7258 75.7346
" />
<path d="M164.7258 75.7346
L164.7735 75.7822
" />
<path d="M164.7735 75.7822
L164.8687 75.8298
" />
<path d="M164.8687 75.8298
L165.2496 75.8298
" />
<path d="M165.2496 75.8298
L165.2496 74.8298
" />
<path d="M165.2496 74.8298
L164.9163 74.8298
" />
<path d="M164.9163 74.8298
L164.8211 74.8774
" />
<path d="M164.8211 74.8774
L164.7735 74.9251
" />
<path d="M164.7735 74.9251
L164.7258 75.0203
" />
<path d="M164.7258 75.0203
L164.7258 75.1155
" />
<path d="M164.7258 75.1155
L164.7735 75.2108
" />
<path d="M164.7735 75.2108
L164.8211 75.2584
" />
<path d="M164.8211 75.2584
L164.9163 75.3060
" />
<path d="M164.9163 75.3060
L165.2496 75.3060
" />
<path d="M163.8211 75.8298
L163.8211 75.3060
" />
<path d="M163.8211 75.3060
L163.8687 75.2108
" />
<path d="M163.8687 75.2108
L163.9639 75.1632
" />
<path d="M163.9639 75.1632
L164.1544 75.1632
" />
<path d="M164.1544 75.1632
L164.2496 75.2108
" />
<path d="M163.8211 75.7822
L163.9163 75.8298
" />
<path d="M163.9163 75.8298
L164.1544 75.8298
" />
<path d="M164.1544 75.8298
L164.2496 75.7822
" />
<path d="M164.2496 75.7822
L164.2973 75.6870
" />
<path d="M164.2973 75.6870
L164.2973 75.5917
" />
<path d="M164.2973 75.5917
L164.2496 75.4965
" />
<path d="M164.2496 75.4965
L164.1544 75.4489
" />
<path d="M164.1544 75.4489
L163.9163 75.4489
" />
<path d="M163.9163 75.4489
L163.8211 75.4012
" />
<path d="M163.3449 75.8298
L163.3449 75.1632
" />
<path d="M163.3449 74.8298
L163.3925 74.8774
" />
<path d="M163.3925 74.8774
L163.3449 74.9251
" />
<path d="M163.3449 74.9251
L163.2973 74.8774
" />
<path d="M163.2973 74.8774
L163.3449 74.8298
" />
<path d="M163.3449 74.8298
L163.3449 74.9251
" />
<path d="M162.9163 75.7822
L162.8211 75.8298
" />
<path d="M162.8211 75.8298
L162.6306 75.8298
" />
<path d="M162.6306 75.8298
L162.5354 75.7822
" />
<path d="M162.5354 75.7822
L162.4877 75.6870
" />
<path d="M162.4877 75.6870
L162.4877 75.6393
" />
<path d="M162.4877 75.6393
L162.5354 75.5441
" />
<path d="M162.5354 75.5441
L162.6306 75.4965
" />
<path d="M162.6306 75.4965
L162.7735 75.4965
" />
<path d="M162.7735 75.4965
L162.8687 75.4489
" />
<path d="M162.8687 75.4489
L162.9163 75.3536
" />
<path d="M162.9163 75.3536
L162.9163 75.3060
" />
<path d="M162.9163 75.3060
L162.8687 75.2108
" />
<path d="M162.8687 75.2108
L162.7735 75.1632
" />
<path d="M162.7735 75.1632
L162.6306 75.1632
" />
<path d="M162.6306 75.1632
L162.5354 75.2108
" />
<path d="M161.6306 75.8298
L161.6306 74.8298
" />
<path d="M161.6306 75.7822
L161.7258 75.8298
" />
<path d="M161.7258 75.8298
L161.9163 75.8298
" />
<path d="M161.9163 75.8298
L162.0115 75.7822
" />
<path d="M162.0115 75.7822
L162.0592 75.7346
" />
<path d="M162.0592 75.7346
L162.1068 75.6393
" />
<path d="M162.1068 75.6393
L162.1068 75.3536
" />
<path d="M162.1068 75.3536
L162.0592 75.2584
" />
<path d="M162.0592 75.2584
L162.0115 75.2108
" />
<path d="M162.0115 75.2108
L161.9163 75.1632
" />
<path d="M161.9163 75.1632
L161.7258 75.1632
" />
<path d="M161.7258 75.1632
L161.6306 75.2108
" />
<path d="M160.7735 75.7822
L160.8687 75.8298
" />
<path d="M160.8687 75.8298
L161.0592 75.8298
" />
<path d="M161.0592 75.8298
L161.1544 75.7822
" />
<path d="M161.1544 75.7822
L161.2020 75.6870
" />
<path d="M161.2020 75.6870
L161.2020 75.3060
" />
<path d="M161.2020 75.3060
L161.1544 75.2108
" />
<path d="M161.1544 75.2108
L161.0592 75.1632
" />
<path d="M161.0592 75.1632
L160.8687 75.1632
" />
<path d="M160.8687 75.1632
L160.7735 75.2108
" />
<path d="M160.7735 75.2108
L160.7258 75.3060
" />
<path d="M160.7258 75.3060
L160.7258 75.4012
" />
<path d="M160.7258 75.4012
L161.2020 75.4965
" />
<path d="M160.2973 75.1632
L160.2973 75.8298
" />
<path d="M160.2973 75.2584
L160.2496 75.2108
" />
<path d="M160.2496 75.2108
L160.1544 75.1632
" />
<path d="M160.1544 75.1632
L160.0115 75.1632
" />
<path d="M160.0115 75.1632
L159.9163 75.2108
" />
<path d="M159.9163 75.2108
L159.8687 75.3060
" />
<path d="M159.8687 75.3060
L159.8687 75.8298
" />
</g><g transform="rotate(-90.000000 155.0400 64.3200)">
<text x="155.0400" y="64.3200"
transform="scale(-1 1) translate(-310.080000 0)"
textLength="13.6310" font-size="1.3333" lengthAdjust="spacingAndGlyphs"
text-anchor="start" opacity="0">ESP32 Cam Front</text>
</g>
<g class="stroked-text"><desc>ESP32 Cam Front</desc>
<path d="M154.3860 64.6568
L154.3860 64.9901
" />
<path d="M154.9098 65.1330
L154.9098 64.6568
" />
<path d="M154.9098 64.6568
L153.9098 64.6568
" />
<path d="M153.9098 64.6568
L153.9098 65.1330
" />
<path d="M154.8622 65.5139
L154.9098 65.6568
" />
<path d="M154.9098 65.6568
L154.9098 65.8949
" />
<path d="M154.9098 65.8949
L154.8622 65.9901
" />
<path d="M154.8622 65.9901
L154.8146 66.0377
" />
<path d="M154.8146 66.0377
L154.7193 66.0853
" />
<path d="M154.7193 66.0853
L154.6241 66.0853
" />
<path d="M154.6241 66.0853
L154.5289 66.0377
" />
<path d="M154.5289 66.0377
L154.4812 65.9901
" />
<path d="M154.4812 65.9901
L154.4336 65.8949
" />
<path d="M154.4336 65.8949
L154.3860 65.7044
" />
<path d="M154.3860 65.7044
L154.3384 65.6092
" />
<path d="M154.3384 65.6092
L154.2908 65.5615
" />
<path d="M154.2908 65.5615
L154.1955 65.5139
" />
<path d="M154.1955 65.5139
L154.1003 65.5139
" />
<path d="M154.1003 65.5139
L154.0051 65.5615
" />
<path d="M154.0051 65.5615
L153.9574 65.6092
" />
<path d="M153.9574 65.6092
L153.9098 65.7044
" />
<path d="M153.9098 65.7044
L153.9098 65.9425
" />
<path d="M153.9098 65.9425
L153.9574 66.0853
" />
<path d="M154.9098 66.5139
L153.9098 66.5139
" />
<path d="M153.9098 66.5139
L153.9098 66.8949
" />
<path d="M153.9098 66.8949
L153.9574 66.9901
" />
<path d="M153.9574 66.9901
L154.0051 67.0377
" />
<path d="M154.0051 67.0377
L154.1003 67.0853
" />
<path d="M154.1003 67.0853
L154.2432 67.0853
" />
<path d="M154.2432 67.0853
L154.3384 67.0377
" />
<path d="M154.3384 67.0377
L154.3860 66.9901
" />
<path d="M154.3860 66.9901
L154.4336 66.8949
" />
<path d="M154.4336 66.8949
L154.4336 66.5139
" />
<path d="M153.9098 67.4187
L153.9098 68.0377
" />
<path d="M153.9098 68.0377
L154.2908 67.7044
" />
<path d="M154.2908 67.7044
L154.2908 67.8473
" />
<path d="M154.2908 67.8473
L154.3384 67.9425
" />
<path d="M154.3384 67.9425
L154.3860 67.9901
" />
<path d="M154.3860 67.9901
L154.4812 68.0377
" />
<path d="M154.4812 68.0377
L154.7193 68.0377
" />
<path d="M154.7193 68.0377
L154.8146 67.9901
" />
<path d="M154.8146 67.9901
L154.8622 67.9425
" />
<path d="M154.8622 67.9425
L154.9098 67.8473
" />
<path d="M154.9098 67.8473
L154.9098 67.5615
" />
<path d="M154.9098 67.5615
L154.8622 67.4663
" />
<path d="M154.8622 67.4663
L154.8146 67.4187
" />
<path d="M154.0051 68.4187
L153.9574 68.4663
" />
<path d="M153.9574 68.4663
L153.9098 68.5615
" />
<path d="M153.9098 68.5615
L153.9098 68.7996
" />
<path d="M153.9098 68.7996
L153.9574 68.8949
" />
<path d="M153.9574 68.8949
L154.0051 68.9425
" />
<path d="M154.0051 68.9425
L154.1003 68.9901
" />
<path d="M154.1003 68.9901
L154.1955 68.9901
" />
<path d="M154.1955 68.9901
L154.3384 68.9425
" />
<path d="M154.3384 68.9425
L154.9098 68.3711
" />
<path d="M154.9098 68.3711
L154.9098 68.9901
" />
<path d="M154.8146 70.7520
L154.8622 70.7044
" />
<path d="M154.8622 70.7044
L154.9098 70.5615
" />
<path d="M154.9098 70.5615
L154.9098 70.4663
" />
<path d="M154.9098 70.4663
L154.8622 70.3234
" />
<path d="M154.8622 70.3234
L154.7670 70.2282
" />
<path d="M154.7670 70.2282
L154.6717 70.1806
" />
<path d="M154.6717 70.1806
L154.4812 70.1330
" />
<path d="M154.4812 70.1330
L154.3384 70.1330
" />
<path d="M154.3384 70.1330
L154.1479 70.1806
" />
<path d="M154.1479 70.1806
L154.0527 70.2282
" />
<path d="M154.0527 70.2282
L153.9574 70.3234
" />
<path d="M153.9574 70.3234
L153.9098 70.4663
" />
<path d="M153.9098 70.4663
L153.9098 70.5615
" />
<path d="M153.9098 70.5615
L153.9574 70.7044
" />
<path d="M153.9574 70.7044
L154.0051 70.7520
" />
<path d="M154.9098 71.6092
L154.3860 71.6092
" />
<path d="M154.3860 71.6092
L154.2908 71.5615
" />
<path d="M154.2908 71.5615
L154.2432 71.4663
" />
<path d="M154.2432 71.4663
L154.2432 71.2758
" />
<path d="M154.2432 71.2758
L154.2908 71.1806
" />
<path d="M154.8622 71.6092
L154.9098 71.5139
" />
<path d="M154.9098 71.5139
L154.9098 71.2758
" />
<path d="M154.9098 71.2758
L154.8622 71.1806
" />
<path d="M154.8622 71.1806
L154.7670 71.1330
" />
<path d="M154.7670 71.1330
L154.6717 71.1330
" />
<path d="M154.6717 71.1330
L154.5765 71.1806
" />
<path d="M154.5765 71.1806
L154.5289 71.2758
" />
<path d="M154.5289 71.2758
L154.5289 71.5139
" />
<path d="M154.5289 71.5139
L154.4812 71.6092
" />
<path d="M154.9098 72.0854
L154.2432 72.0854
" />
<path d="M154.3384 72.0854
L154.2908 72.1330
" />
<path d="M154.2908 72.1330
L154.2432 72.2282
" />
<path d="M154.2432 72.2282
L154.2432 72.3711
" />
<path d="M154.2432 72.3711
L154.2908 72.4663
" />
<path d="M154.2908 72.4663
L154.3860 72.5139
" />
<path d="M154.3860 72.5139
L154.9098 72.5139
" />
<path d="M154.3860 72.5139
L154.2908 72.5615
" />
<path d="M154.2908 72.5615
L154.2432 72.6568
" />
<path d="M154.2432 72.6568
L154.2432 72.7996
" />
<path d="M154.2432 72.7996
L154.2908 72.8949
" />
<path d="M154.2908 72.8949
L154.3860 72.9425
" />
<path d="M154.3860 72.9425
L154.9098 72.9425
" />
<path d="M154.3860 74.5139
L154.3860 74.1806
" />
<path d="M154.9098 74.1806
L153.9098 74.1806
" />
<path d="M153.9098 74.1806
L153.9098 74.6568
" />
<path d="M154.9098 75.0377
L154.2432 75.0377
" />
<path d="M154.4336 75.0377
L154.3384 75.0854
" />
<path d="M154.3384 75.0854
L154.2908 75.1330
" />
<path d="M154.2908 75.1330
L154.2432 75.2282
" />
<path d="M154.2432 75.2282
L154.2432 75.3234
" />
<path d="M154.9098 75.7996
L154.8622 75.7044
" />
<path d="M154.8622 75.7044
L154.8146 75.6568
" />
<path d="M154.8146 75.6568
L154.7193 75.6092
" />
<path d="M154.7193 75.6092
L154.4336 75.6092
" />
<path d="M154.4336 75.6092
L154.3384 75.6568
" />
<path d="M154.3384 75.6568
L154.2908 75.7044
" />
<path d="M154.2908 75.7044
L154.2432 75.7996
" />
<path d="M154.2432 75.7996
L154.2432 75.9425
" />
<path d="M154.2432 75.9425
L154.2908 76.0377
" />
<path d="M154.2908 76.0377
L154.3384 76.0854
" />
<path d="M154.3384 76.0854
L154.4336 76.1330
" />
<path d="M154.4336 76.1330
L154.7193 76.1330
" />
<path d="M154.7193 76.1330
L154.8146 76.0854
" />
<path d="M154.8146 76.0854
L154.8622 76.0377
" />
<path d="M154.8622 76.0377
L154.9098 75.9425
" />
<path d="M154.9098 75.9425
L154.9098 75.7996
" />
<path d="M154.2432 76.5615
L154.9098 76.5615
" />
<path d="M154.3384 76.5615
L154.2908 76.6092
" />
<path d="M154.2908 76.6092
L154.2432 76.7044
" />
<path d="M154.2432 76.7044
L154.2432 76.8473
" />
<path d="M154.2432 76.8473
L154.2908 76.9425
" />
<path d="M154.2908 76.9425
L154.3860 76.9901
" />
<path d="M154.3860 76.9901
L154.9098 76.9901
" />
<path d="M154.2432 77.3234
L154.2432 77.7044
" />
<path d="M153.9098 77.4663
L154.7670 77.4663
" />
<path d="M154.7670 77.4663
L154.8622 77.5139
" />
<path d="M154.8622 77.5139
L154.9098 77.6092
" />
<path d="M154.9098 77.6092
L154.9098 77.7044
" />
</g><g transform="rotate(-90.000000 175.1300 64.6900)">
<text x="175.1300" y="64.6900"
transform="scale(-1 1) translate(-350.260000 0)"
textLength="13.3452" font-size="1.3333" lengthAdjust="spacingAndGlyphs"
text-anchor="start" opacity="0">ESP32 Cam Back</text>
</g>
<g class="stroked-text"><desc>ESP32 Cam Back</desc>
<path d="M174.4760 65.0268
L174.4760 65.3601
" />
<path d="M174.9998 65.5030
L174.9998 65.0268
" />
<path d="M174.9998 65.0268
L173.9998 65.0268
" />
<path d="M173.9998 65.0268
L173.9998 65.5030
" />
<path d="M174.9522 65.8839
L174.9998 66.0268
" />
<path d="M174.9998 66.0268
L174.9998 66.2649
" />
<path d="M174.9998 66.2649
L174.9522 66.3601
" />
<path d="M174.9522 66.3601
L174.9046 66.4077
" />
<path d="M174.9046 66.4077
L174.8093 66.4553
" />
<path d="M174.8093 66.4553
L174.7141 66.4553
" />
<path d="M174.7141 66.4553
L174.6189 66.4077
" />
<path d="M174.6189 66.4077
L174.5712 66.3601
" />
<path d="M174.5712 66.3601
L174.5236 66.2649
" />
<path d="M174.5236 66.2649
L174.4760 66.0744
" />
<path d="M174.4760 66.0744
L174.4284 65.9792
" />
<path d="M174.4284 65.9792
L174.3808 65.9315
" />
<path d="M174.3808 65.9315
L174.2855 65.8839
" />
<path d="M174.2855 65.8839
L174.1903 65.8839
" />
<path d="M174.1903 65.8839
L174.0951 65.9315
" />
<path d="M174.0951 65.9315
L174.0474 65.9792
" />
<path d="M174.0474 65.9792
L173.9998 66.0744
" />
<path d="M173.9998 66.0744
L173.9998 66.3125
" />
<path d="M173.9998 66.3125
L174.0474 66.4553
" />
<path d="M174.9998 66.8839
L173.9998 66.8839
" />
<path d="M173.9998 66.8839
L173.9998 67.2649
" />
<path d="M173.9998 67.2649
L174.0474 67.3601
" />
<path d="M174.0474 67.3601
L174.0951 67.4077
" />
<path d="M174.0951 67.4077
L174.1903 67.4553
" />
<path d="M174.1903 67.4553
L174.3332 67.4553
" />
<path d="M174.3332 67.4553
L174.4284 67.4077
" />
<path d="M174.4284 67.4077
L174.4760 67.3601
" />
<path d="M174.4760 67.3601
L174.5236 67.2649
" />
<path d="M174.5236 67.2649
L174.5236 66.8839
" />
<path d="M173.9998 67.7887
L173.9998 68.4077
" />
<path d="M173.9998 68.4077
L174.3808 68.0744
" />
<path d="M174.3808 68.0744
L174.3808 68.2173
" />
<path d="M174.3808 68.2173
L174.4284 68.3125
" />
<path d="M174.4284 68.3125
L174.4760 68.3601
" />
<path d="M174.4760 68.3601
L174.5712 68.4077
" />
<path d="M174.5712 68.4077
L174.8093 68.4077
" />
<path d="M174.8093 68.4077
L174.9046 68.3601
" />
<path d="M174.9046 68.3601
L174.9522 68.3125
" />
<path d="M174.9522 68.3125
L174.9998 68.2173
" />
<path d="M174.9998 68.2173
L174.9998 67.9315
" />
<path d="M174.9998 67.9315
L174.9522 67.8363
" />
<path d="M174.9522 67.8363
L174.9046 67.7887
" />
<path d="M174.0951 68.7887
L174.0474 68.8363
" />
<path d="M174.0474 68.8363
L173.9998 68.9315
" />
<path d="M173.9998 68.9315
L173.9998 69.1696
" />
<path d="M173.9998 69.1696
L174.0474 69.2649
" />
<path d="M174.0474 69.2649
L174.0951 69.3125
" />
<path d="M174.0951 69.3125
L174.1903 69.3601
" />
<path d="M174.1903 69.3601
L174.2855 69.3601
" />
<path d="M174.2855 69.3601
L174.4284 69.3125
" />
<path d="M174.4284 69.3125
L174.9998 68.7411
" />
<path d="M174.9998 68.7411
L174.9998 69.3601
" />
<path d="M174.9046 71.1220
L174.9522 71.0744
" />
<path d="M174.9522 71.0744
L174.9998 70.9315
" />
<path d="M174.9998 70.9315
L174.9998 70.8363
" />
<path d="M174.9998 70.8363
L174.9522 70.6934
" />
<path d="M174.9522 70.6934
L174.8570 70.5982
" />
<path d="M174.8570 70.5982
L174.7617 70.5506
" />
<path d="M174.7617 70.5506
L174.5712 70.5030
" />
<path d="M174.5712 70.5030
L174.4284 70.5030
" />
<path d="M174.4284 70.5030
L174.2379 70.5506
" />
<path d="M174.2379 70.5506
L174.1427 70.5982
" />
<path d="M174.1427 70.5982
L174.0474 70.6934
" />
<path d="M174.0474 70.6934
L173.9998 70.8363
" />
<path d="M173.9998 70.8363
L173.9998 70.9315
" />
<path d="M173.9998 70.9315
L174.0474 71.0744
" />
<path d="M174.0474 71.0744
L174.0951 71.1220
" />
<path d="M174.9998 71.9792
L174.4760 71.9792
" />
<path d="M174.4760 71.9792
L174.3808 71.9315
" />
<path d="M174.3808 71.9315
L174.3332 71.8363
" />
<path d="M174.3332 71.8363
L174.3332 71.6458
" />
<path d="M174.3332 71.6458
L174.3808 71.5506
" />
<path d="M174.9522 71.9792
L174.9998 71.8839
" />
<path d="M174.9998 71.8839
L174.9998 71.6458
" />
<path d="M174.9998 71.6458
L174.9522 71.5506
" />
<path d="M174.9522 71.5506
L174.8570 71.5030
" />
<path d="M174.8570 71.5030
L174.7617 71.5030
" />
<path d="M174.7617 71.5030
L174.6665 71.5506
" />
<path d="M174.6665 71.5506
L174.6189 71.6458
" />
<path d="M174.6189 71.6458
L174.6189 71.8839
" />
<path d="M174.6189 71.8839
L174.5712 71.9792
" />
<path d="M174.9998 72.4554
L174.3332 72.4554
" />
<path d="M174.4284 72.4554
L174.3808 72.5030
" />
<path d="M174.3808 72.5030
L174.3332 72.5982
" />
<path d="M174.3332 72.5982
L174.3332 72.7411
" />
<path d="M174.3332 72.7411
L174.3808 72.8363
" />
<path d="M174.3808 72.8363
L174.4760 72.8839
" />
<path d="M174.4760 72.8839
L174.9998 72.8839
" />
<path d="M174.4760 72.8839
L174.3808 72.9315
" />
<path d="M174.3808 72.9315
L174.3332 73.0268
" />
<path d="M174.3332 73.0268
L174.3332 73.1696
" />
<path d="M174.3332 73.1696
L174.3808 73.2649
" />
<path d="M174.3808 73.2649
L174.4760 73.3125
" />
<path d="M174.4760 73.3125
L174.9998 73.3125
" />
<path d="M174.4760 74.8839
L174.5236 75.0268
" />
<path d="M174.5236 75.0268
L174.5712 75.0744
" />
<path d="M174.5712 75.0744
L174.6665 75.1220
" />
<path d="M174.6665 75.1220
L174.8093 75.1220
" />
<path d="M174.8093 75.1220
L174.9046 75.0744
" />
<path d="M174.9046 75.0744
L174.9522 75.0268
" />
<path d="M174.9522 75.0268
L174.9998 74.9315
" />
<path d="M174.9998 74.9315
L174.9998 74.5506
" />
<path d="M174.9998 74.5506
L173.9998 74.5506
" />
<path d="M173.9998 74.5506
L173.9998 74.8839
" />
<path d="M173.9998 74.8839
L174.0474 74.9792
" />
<path d="M174.0474 74.9792
L174.0951 75.0268
" />
<path d="M174.0951 75.0268
L174.1903 75.0744
" />
<path d="M174.1903 75.0744
L174.2855 75.0744
" />
<path d="M174.2855 75.0744
L174.3808 75.0268
" />
<path d="M174.3808 75.0268
L174.4284 74.9792
" />
<path d="M174.4284 74.9792
L174.4760 74.8839
" />
<path d="M174.4760 74.8839
L174.4760 74.5506
" />
<path d="M174.9998 75.9792
L174.4760 75.9792
" />
<path d="M174.4760 75.9792
L174.3808 75.9315
" />
<path d="M174.3808 75.9315
L174.3332 75.8363
" />
<path d="M174.3332 75.8363
L174.3332 75.6458
" />
<path d="M174.3332 75.6458
L174.3808 75.5506
" />
<path d="M174.9522 75.9792
L174.9998 75.8839
" />
<path d="M174.9998 75.8839
L174.9998 75.6458
" />
<path d="M174.9998 75.6458
L174.9522 75.5506
" />
<path d="M174.9522 75.5506
L174.8570 75.5030
" />
<path d="M174.8570 75.5030
L174.7617 75.5030
" />
<path d="M174.7617 75.5030
L174.6665 75.5506
" />
<path d="M174.6665 75.5506
L174.6189 75.6458
" />
<path d="M174.6189 75.6458
L174.6189 75.8839
" />
<path d="M174.6189 75.8839
L174.5712 75.9792
" />
<path d="M174.9522 76.8839
L174.9998 76.7887
" />
<path d="M174.9998 76.7887
L174.9998 76.5982
" />
<path d="M174.9998 76.5982
L174.9522 76.5030
" />
<path d="M174.9522 76.5030
L174.9046 76.4554
" />
<path d="M174.9046 76.4554
L174.8093 76.4077
" />
<path d="M174.8093 76.4077
L174.5236 76.4077
" />
<path d="M174.5236 76.4077
L174.4284 76.4554
" />
<path d="M174.4284 76.4554
L174.3808 76.5030
" />
<path d="M174.3808 76.5030
L174.3332 76.5982
" />
<path d="M174.3332 76.5982
L174.3332 76.7887
" />
<path d="M174.3332 76.7887
L174.3808 76.8839
" />
<path d="M174.9998 77.3125
L173.9998 77.3125
" />
<path d="M174.6189 77.4077
L174.9998 77.6934
" />
<path d="M174.3332 77.6934
L174.7141 77.3125
" />
</g><text x="165.0000" y="85.0110"
transform="scale(-1 1) translate(-330.000000 0)"
textLength="1.9643" font-size="1.3333" lengthAdjust="spacingAndGlyphs"
text-anchor="middle" opacity="0">J1</text>
<g class="stroked-text"><desc>J1</desc>
<path d="M165.3333 83.9658
L165.3333 84.6801
" />
<path d="M165.3333 84.6801
L165.3810 84.8230
" />
<path d="M165.3810 84.8230
L165.4762 84.9182
" />
<path d="M165.4762 84.9182
L165.6190 84.9658
" />
<path d="M165.6190 84.9658
L165.7143 84.9658
" />
<path d="M164.3333 84.9658
L164.9048 84.9658
" />
<path d="M164.6190 84.9658
L164.6190 83.9658
" />
<path d="M164.6190 83.9658
L164.7143 84.1087
" />
<path d="M164.7143 84.1087
L164.8095 84.2039
" />
<path d="M164.8095 84.2039
L164.9048 84.2515
" />
</g><text x="165.0000" y="62.1510"
transform="scale(-1 1) translate(-330.000000 0)"
textLength="1.9643" font-size="1.3333" lengthAdjust="spacingAndGlyphs"
text-anchor="middle" opacity="0">J4</text>
<g class="stroked-text"><desc>J4</desc>
<path d="M165.3333 61.1058
L165.3333 61.8201
" />
<path d="M165.3333 61.8201
L165.3810 61.9630
" />
<path d="M165.3810 61.9630
L165.4762 62.0582
" />
<path d="M165.4762 62.0582
L165.6190 62.1058
" />
<path d="M165.6190 62.1058
L165.7143 62.1058
" />
<path d="M164.4286 61.4392
L164.4286 62.1058
" />
<path d="M164.6667 61.0582
L164.9048 61.7725
" />
<path d="M164.9048 61.7725
L164.2857 61.7725
" />
</g></g>
<g style="fill:none; 
stroke:#E8B2A7; stroke-width:0.5080; stroke-opacity:1; 
stroke-linecap:round; stroke-linejoin:round;">
<circle cx="153.8113" cy="58.3999" r="0.3810" /> 
<circle cx="153.8113" cy="80.3999" r="0.3810" /> 
</g>
<g style="fill:none; 
stroke:#E8B2A7; stroke-width:0.1524; stroke-opacity:1; 
stroke-linecap:round; stroke-linejoin:round;">
<path d="M154.4082 80.4343
L154.4082 85.2857
" />
<path d="M154.4082 85.2857
L155.2820 85.2857
" />
<path d="M156.9380 85.2857
L160.3620 85.2857
" />
<path d="M157.8220 80.4343
L154.4082 80.4343
" />
<path d="M162.0180 85.2857
L165.4420 85.2857
" />
<path d="M162.9020 80.4343
L159.4780 80.4343
" />
<path d="M167.0980 85.2857
L170.5220 85.2857
" />
<path d="M167.9820 80.4343
L164.5580 80.4343
" />
<path d="M172.1780 85.2857
L175.5918 85.2857
" />
<path d="M173.0620 80.4343
L169.6380 80.4343
" />
<path d="M175.5918 80.4343
L174.7180 80.4343
" />
<path d="M175.5918 85.2857
L175.5918 80.4343
" />
</g>
<g style="fill:none; 
stroke:#E8B2A7; stroke-width:0.5080; stroke-opacity:1; 
stroke-linecap:round; stroke-linejoin:round;">
<circle cx="153.7732" cy="84.5110" r="0.3810" /> 
</g>
<g style="fill:none; 
stroke:#E8B2A7; stroke-width:0.1524; stroke-opacity:1; 
stroke-linecap:round; stroke-linejoin:round;">
<path d="M154.4082 57.5743
L154.4082 62.4257
" />
<path d="M154.4082 62.4257
L155.2820 62.4257
" />
<path d="M156.9380 62.4257
L160.3620 62.4257
" />
<path d="M157.8220 57.5743
L154.4082 57.5743
" />
<path d="M162.0180 62.4257
L165.4420 62.4257
" />
<path d="M162.9020 57.5743
L159.4780 57.5743
" />
<path d="M167.0980 62.4257
L170.5220 62.4257
" />
<path d="M167.9820 57.5743
L164.5580 57.5743
" />
<path d="M172.1780 62.4257
L175.5918 62.4257
" />
<path d="M173.0620 57.5743
L169.6380 57.5743
" />
<path d="M175.5918 57.5743
L174.7180 57.5743
" />
<path d="M175.5918 62.4257
L175.5918 57.5743
" />
</g>
<g style="fill:none; 
stroke:#E8B2A7; stroke-width:0.5080; stroke-opacity:1; 
stroke-linecap:round; stroke-linejoin:round;">
<circle cx="153.7732" cy="61.6510" r="0.3810" /> 
</g> 
</svg>
