<?xml version="1.0" standalone="no"?>
 <!DOCTYPE svg PUBLIC "-//W3C//DTD SVG 1.1//EN" 
 "http://www.w3.org/Graphics/SVG/1.1/DTD/svg11.dtd"> 
<svg
  xmlns:svg="http://www.w3.org/2000/svg"
  xmlns="http://www.w3.org/2000/svg"
  xmlns:xlink="http://www.w3.org/1999/xlink"
  version="1.1"
  width="297.0022mm" height="210.0072mm" viewBox="0.0000 0.0000 297.0022 210.0072">
<title>SVG Image created as adapter_board-F_Silkscreen.svg date 2024/04/08 23:37:47 </title>
  <desc>Image generated by PCBNEW </desc>
<g style="fill:#000000; fill-opacity:1.0000;stroke:#000000; stroke-opacity:1.0000;
stroke-linecap:round; stroke-linejoin:round;"
 transform="translate(0 0) scale(1 1)">
</g>
<g style="fill:none; 
stroke:#F2EDA1; stroke-width:0.1500; stroke-opacity:1; 
stroke-linecap:round; stroke-linejoin:round;">
<g transform="rotate(-270.000000 174.7100 65.9100)">
<text x="174.7100" y="65.9100"
textLength="10.9167" font-size="1.3333" lengthAdjust="spacingAndGlyphs"
text-anchor="start" opacity="0">Crazyflie Rear</text>
</g>
<g class="stroked-text"><desc>Crazyflie Rear</desc>
<path d="M174.9354 66.8182
L174.8878 66.7706
" />
<path d="M174.8878 66.7706
L174.8402 66.6277
" />
<path d="M174.8402 66.6277
L174.8402 66.5325
" />
<path d="M174.8402 66.5325
L174.8878 66.3896
" />
<path d="M174.8878 66.3896
L174.9830 66.2944
" />
<path d="M174.9830 66.2944
L175.0783 66.2468
" />
<path d="M175.0783 66.2468
L175.2688 66.1992
" />
<path d="M175.2688 66.1992
L175.4116 66.1992
" />
<path d="M175.4116 66.1992
L175.6021 66.2468
" />
<path d="M175.6021 66.2468
L175.6973 66.2944
" />
<path d="M175.6973 66.2944
L175.7926 66.3896
" />
<path d="M175.7926 66.3896
L175.8402 66.5325
" />
<path d="M175.8402 66.5325
L175.8402 66.6277
" />
<path d="M175.8402 66.6277
L175.7926 66.7706
" />
<path d="M175.7926 66.7706
L175.7449 66.8182
" />
<path d="M174.8402 67.2468
L175.5068 67.2468
" />
<path d="M175.3164 67.2468
L175.4116 67.2944
" />
<path d="M175.4116 67.2944
L175.4592 67.3420
" />
<path d="M175.4592 67.3420
L175.5068 67.4373
" />
<path d="M175.5068 67.4373
L175.5068 67.5325
" />
<path d="M174.8402 68.2944
L175.3640 68.2944
" />
<path d="M175.3640 68.2944
L175.4592 68.2468
" />
<path d="M175.4592 68.2468
L175.5068 68.1515
" />
<path d="M175.5068 68.1515
L175.5068 67.9611
" />
<path d="M175.5068 67.9611
L175.4592 67.8658
" />
<path d="M174.8878 68.2944
L174.8402 68.1992
" />
<path d="M174.8402 68.1992
L174.8402 67.9611
" />
<path d="M174.8402 67.9611
L174.8878 67.8658
" />
<path d="M174.8878 67.8658
L174.9830 67.8182
" />
<path d="M174.9830 67.8182
L175.0783 67.8182
" />
<path d="M175.0783 67.8182
L175.1735 67.8658
" />
<path d="M175.1735 67.8658
L175.2211 67.9611
" />
<path d="M175.2211 67.9611
L175.2211 68.1992
" />
<path d="M175.2211 68.1992
L175.2688 68.2944
" />
<path d="M175.5068 68.6754
L175.5068 69.1992
" />
<path d="M175.5068 69.1992
L174.8402 68.6754
" />
<path d="M174.8402 68.6754
L174.8402 69.1992
" />
<path d="M175.5068 69.4849
L174.8402 69.7230
" />
<path d="M175.5068 69.9611
L174.8402 69.7230
" />
<path d="M174.8402 69.7230
L174.6021 69.6277
" />
<path d="M174.6021 69.6277
L174.5545 69.5801
" />
<path d="M174.5545 69.5801
L174.5068 69.4849
" />
<path d="M175.5068 70.1992
L175.5068 70.5801
" />
<path d="M174.8402 70.3420
L175.6973 70.3420
" />
<path d="M175.6973 70.3420
L175.7926 70.3896
" />
<path d="M175.7926 70.3896
L175.8402 70.4849
" />
<path d="M175.8402 70.4849
L175.8402 70.5801
" />
<path d="M174.8402 71.0563
L174.8878 70.9611
" />
<path d="M174.8878 70.9611
L174.9830 70.9134
" />
<path d="M174.9830 70.9134
L175.8402 70.9134
" />
<path d="M174.8402 71.4373
L175.5068 71.4373
" />
<path d="M175.8402 71.4373
L175.7926 71.3896
" />
<path d="M175.7926 71.3896
L175.7449 71.4373
" />
<path d="M175.7449 71.4373
L175.7926 71.4849
" />
<path d="M175.7926 71.4849
L175.8402 71.4373
" />
<path d="M175.8402 71.4373
L175.7449 71.4373
" />
<path d="M174.8878 72.2944
L174.8402 72.1992
" />
<path d="M174.8402 72.1992
L174.8402 72.0087
" />
<path d="M174.8402 72.0087
L174.8878 71.9134
" />
<path d="M174.8878 71.9134
L174.9830 71.8658
" />
<path d="M174.9830 71.8658
L175.3640 71.8658
" />
<path d="M175.3640 71.8658
L175.4592 71.9134
" />
<path d="M175.4592 71.9134
L175.5068 72.0087
" />
<path d="M175.5068 72.0087
L175.5068 72.1992
" />
<path d="M175.5068 72.1992
L175.4592 72.2944
" />
<path d="M175.4592 72.2944
L175.3640 72.3420
" />
<path d="M175.3640 72.3420
L175.2688 72.3420
" />
<path d="M175.2688 72.3420
L175.1735 71.8658
" />
<path d="M174.8402 74.1039
L175.3164 73.7706
" />
<path d="M174.8402 73.5325
L175.8402 73.5325
" />
<path d="M175.8402 73.5325
L175.8402 73.9134
" />
<path d="M175.8402 73.9134
L175.7926 74.0087
" />
<path d="M175.7926 74.0087
L175.7449 74.0563
" />
<path d="M175.7449 74.0563
L175.6497 74.1039
" />
<path d="M175.6497 74.1039
L175.5068 74.1039
" />
<path d="M175.5068 74.1039
L175.4116 74.0563
" />
<path d="M175.4116 74.0563
L175.3640 74.0087
" />
<path d="M175.3640 74.0087
L175.3164 73.9134
" />
<path d="M175.3164 73.9134
L175.3164 73.5325
" />
<path d="M174.8878 74.9134
L174.8402 74.8182
" />
<path d="M174.8402 74.8182
L174.8402 74.6277
" />
<path d="M174.8402 74.6277
L174.8878 74.5325
" />
<path d="M174.8878 74.5325
L174.9830 74.4849
" />
<path d="M174.9830 74.4849
L175.3640 74.4849
" />
<path d="M175.3640 74.4849
L175.4592 74.5325
" />
<path d="M175.4592 74.5325
L175.5068 74.6277
" />
<path d="M175.5068 74.6277
L175.5068 74.8182
" />
<path d="M175.5068 74.8182
L175.4592 74.9134
" />
<path d="M175.4592 74.9134
L175.3640 74.9611
" />
<path d="M175.3640 74.9611
L175.2688 74.9611
" />
<path d="M175.2688 74.9611
L175.1735 74.4849
" />
<path d="M174.8402 75.8182
L175.3640 75.8182
" />
<path d="M175.3640 75.8182
L175.4592 75.7706
" />
<path d="M175.4592 75.7706
L175.5068 75.6754
" />
<path d="M175.5068 75.6754
L175.5068 75.4849
" />
<path d="M175.5068 75.4849
L175.4592 75.3896
" />
<path d="M174.8878 75.8182
L174.8402 75.7230
" />
<path d="M174.8402 75.7230
L174.8402 75.4849
" />
<path d="M174.8402 75.4849
L174.8878 75.3896
" />
<path d="M174.8878 75.3896
L174.9830 75.3420
" />
<path d="M174.9830 75.3420
L175.0783 75.3420
" />
<path d="M175.0783 75.3420
L175.1735 75.3896
" />
<path d="M175.1735 75.3896
L175.2211 75.4849
" />
<path d="M175.2211 75.4849
L175.2211 75.7230
" />
<path d="M175.2211 75.7230
L175.2688 75.8182
" />
<path d="M174.8402 76.2944
L175.5068 76.2944
" />
<path d="M175.3164 76.2944
L175.4116 76.3420
" />
<path d="M175.4116 76.3420
L175.4592 76.3896
" />
<path d="M175.4592 76.3896
L175.5068 76.4849
" />
<path d="M175.5068 76.4849
L175.5068 76.5801
" />
</g><g transform="rotate(-90.000000 155.0400 77.4600)">
<text x="155.0400" y="77.4600"
textLength="13.4405" font-size="1.3333" lengthAdjust="spacingAndGlyphs"
text-anchor="start" opacity="0">Crazyflie Antenna</text>
</g>
<g class="stroked-text"><desc>Crazyflie Antenna</desc>
<path d="M154.8146 76.5518
L154.8622 76.5994
" />
<path d="M154.8622 76.5994
L154.9098 76.7423
" />
<path d="M154.9098 76.7423
L154.9098 76.8375
" />
<path d="M154.9098 76.8375
L154.8622 76.9804
" />
<path d="M154.8622 76.9804
L154.7670 77.0756
" />
<path d="M154.7670 77.0756
L154.6717 77.1232
" />
<path d="M154.6717 77.1232
L154.4812 77.1708
" />
<path d="M154.4812 77.1708
L154.3384 77.1708
" />
<path d="M154.3384 77.1708
L154.1479 77.1232
" />
<path d="M154.1479 77.1232
L154.0527 77.0756
" />
<path d="M154.0527 77.0756
L153.9574 76.9804
" />
<path d="M153.9574 76.9804
L153.9098 76.8375
" />
<path d="M153.9098 76.8375
L153.9098 76.7423
" />
<path d="M153.9098 76.7423
L153.9574 76.5994
" />
<path d="M153.9574 76.5994
L154.0051 76.5518
" />
<path d="M154.9098 76.1232
L154.2432 76.1232
" />
<path d="M154.4336 76.1232
L154.3384 76.0756
" />
<path d="M154.3384 76.0756
L154.2908 76.0280
" />
<path d="M154.2908 76.0280
L154.2432 75.9327
" />
<path d="M154.2432 75.9327
L154.2432 75.8375
" />
<path d="M154.9098 75.0756
L154.3860 75.0756
" />
<path d="M154.3860 75.0756
L154.2908 75.1232
" />
<path d="M154.2908 75.1232
L154.2432 75.2185
" />
<path d="M154.2432 75.2185
L154.2432 75.4089
" />
<path d="M154.2432 75.4089
L154.2908 75.5042
" />
<path d="M154.8622 75.0756
L154.9098 75.1708
" />
<path d="M154.9098 75.1708
L154.9098 75.4089
" />
<path d="M154.9098 75.4089
L154.8622 75.5042
" />
<path d="M154.8622 75.5042
L154.7670 75.5518
" />
<path d="M154.7670 75.5518
L154.6717 75.5518
" />
<path d="M154.6717 75.5518
L154.5765 75.5042
" />
<path d="M154.5765 75.5042
L154.5289 75.4089
" />
<path d="M154.5289 75.4089
L154.5289 75.1708
" />
<path d="M154.5289 75.1708
L154.4812 75.0756
" />
<path d="M154.2432 74.6946
L154.2432 74.1708
" />
<path d="M154.2432 74.1708
L154.9098 74.6946
" />
<path d="M154.9098 74.6946
L154.9098 74.1708
" />
<path d="M154.2432 73.8851
L154.9098 73.6470
" />
<path d="M154.2432 73.4089
L154.9098 73.6470
" />
<path d="M154.9098 73.6470
L155.1479 73.7423
" />
<path d="M155.1479 73.7423
L155.1955 73.7899
" />
<path d="M155.1955 73.7899
L155.2432 73.8851
" />
<path d="M154.2432 73.1708
L154.2432 72.7899
" />
<path d="M154.9098 73.0280
L154.0527 73.0280
" />
<path d="M154.0527 73.0280
L153.9574 72.9804
" />
<path d="M153.9574 72.9804
L153.9098 72.8851
" />
<path d="M153.9098 72.8851
L153.9098 72.7899
" />
<path d="M154.9098 72.3137
L154.8622 72.4089
" />
<path d="M154.8622 72.4089
L154.7670 72.4566
" />
<path d="M154.7670 72.4566
L153.9098 72.4566
" />
<path d="M154.9098 71.9327
L154.2432 71.9327
" />
<path d="M153.9098 71.9327
L153.9574 71.9804
" />
<path d="M153.9574 71.9804
L154.0051 71.9327
" />
<path d="M154.0051 71.9327
L153.9574 71.8851
" />
<path d="M153.9574 71.8851
L153.9098 71.9327
" />
<path d="M153.9098 71.9327
L154.0051 71.9327
" />
<path d="M154.8622 71.0756
L154.9098 71.1708
" />
<path d="M154.9098 71.1708
L154.9098 71.3613
" />
<path d="M154.9098 71.3613
L154.8622 71.4566
" />
<path d="M154.8622 71.4566
L154.7670 71.5042
" />
<path d="M154.7670 71.5042
L154.3860 71.5042
" />
<path d="M154.3860 71.5042
L154.2908 71.4566
" />
<path d="M154.2908 71.4566
L154.2432 71.3613
" />
<path d="M154.2432 71.3613
L154.2432 71.1708
" />
<path d="M154.2432 71.1708
L154.2908 71.0756
" />
<path d="M154.2908 71.0756
L154.3860 71.0280
" />
<path d="M154.3860 71.0280
L154.4812 71.0280
" />
<path d="M154.4812 71.0280
L154.5765 71.5042
" />
<path d="M154.6241 69.8851
L154.6241 69.4089
" />
<path d="M154.9098 69.9804
L153.9098 69.6470
" />
<path d="M153.9098 69.6470
L154.9098 69.3137
" />
<path d="M154.2432 68.9804
L154.9098 68.9804
" />
<path d="M154.3384 68.9804
L154.2908 68.9327
" />
<path d="M154.2908 68.9327
L154.2432 68.8375
" />
<path d="M154.2432 68.8375
L154.2432 68.6946
" />
<path d="M154.2432 68.6946
L154.2908 68.5994
" />
<path d="M154.2908 68.5994
L154.3860 68.5518
" />
<path d="M154.3860 68.5518
L154.9098 68.5518
" />
<path d="M154.2432 68.2185
L154.2432 67.8375
" />
<path d="M153.9098 68.0756
L154.7670 68.0756
" />
<path d="M154.7670 68.0756
L154.8622 68.0280
" />
<path d="M154.8622 68.0280
L154.9098 67.9327
" />
<path d="M154.9098 67.9327
L154.9098 67.8375
" />
<path d="M154.8622 67.1232
L154.9098 67.2185
" />
<path d="M154.9098 67.2185
L154.9098 67.4089
" />
<path d="M154.9098 67.4089
L154.8622 67.5042
" />
<path d="M154.8622 67.5042
L154.7670 67.5518
" />
<path d="M154.7670 67.5518
L154.3860 67.5518
" />
<path d="M154.3860 67.5518
L154.2908 67.5042
" />
<path d="M154.2908 67.5042
L154.2432 67.4089
" />
<path d="M154.2432 67.4089
L154.2432 67.2185
" />
<path d="M154.2432 67.2185
L154.2908 67.1232
" />
<path d="M154.2908 67.1232
L154.3860 67.0756
" />
<path d="M154.3860 67.0756
L154.4812 67.0756
" />
<path d="M154.4812 67.0756
L154.5765 67.5518
" />
<path d="M154.2432 66.6470
L154.9098 66.6470
" />
<path d="M154.3384 66.6470
L154.2908 66.5994
" />
<path d="M154.2908 66.5994
L154.2432 66.5042
" />
<path d="M154.2432 66.5042
L154.2432 66.3613
" />
<path d="M154.2432 66.3613
L154.2908 66.2661
" />
<path d="M154.2908 66.2661
L154.3860 66.2185
" />
<path d="M154.3860 66.2185
L154.9098 66.2185
" />
<path d="M154.2432 65.7423
L154.9098 65.7423
" />
<path d="M154.3384 65.7423
L154.2908 65.6946
" />
<path d="M154.2908 65.6946
L154.2432 65.5994
" />
<path d="M154.2432 65.5994
L154.2432 65.4566
" />
<path d="M154.2432 65.4566
L154.2908 65.3613
" />
<path d="M154.2908 65.3613
L154.3860 65.3137
" />
<path d="M154.3860 65.3137
L154.9098 65.3137
" />
<path d="M154.9098 64.4089
L154.3860 64.4089
" />
<path d="M154.3860 64.4089
L154.2908 64.4566
" />
<path d="M154.2908 64.4566
L154.2432 64.5518
" />
<path d="M154.2432 64.5518
L154.2432 64.7423
" />
<path d="M154.2432 64.7423
L154.2908 64.8375
" />
<path d="M154.8622 64.4089
L154.9098 64.5042
" />
<path d="M154.9098 64.5042
L154.9098 64.7423
" />
<path d="M154.9098 64.7423
L154.8622 64.8375
" />
<path d="M154.8622 64.8375
L154.7670 64.8851
" />
<path d="M154.7670 64.8851
L154.6717 64.8851
" />
<path d="M154.6717 64.8851
L154.5765 64.8375
" />
<path d="M154.5765 64.8375
L154.5289 64.7423
" />
<path d="M154.5289 64.7423
L154.5289 64.5042
" />
<path d="M154.5289 64.5042
L154.4812 64.4089
" />
</g><text x="165.0000" y="62.0999"
textLength="1.9643" font-size="1.3333" lengthAdjust="spacingAndGlyphs"
text-anchor="middle" opacity="0">J3</text>
<g class="stroked-text"><desc>J3</desc>
<path d="M164.6667 61.0548
L164.6667 61.7691
" />
<path d="M164.6667 61.7691
L164.6190 61.9119
" />
<path d="M164.6190 61.9119
L164.5238 62.0071
" />
<path d="M164.5238 62.0071
L164.3810 62.0548
" />
<path d="M164.3810 62.0548
L164.2857 62.0548
" />
<path d="M165.0476 61.0548
L165.6667 61.0548
" />
<path d="M165.6667 61.0548
L165.3333 61.4357
" />
<path d="M165.3333 61.4357
L165.4762 61.4357
" />
<path d="M165.4762 61.4357
L165.5714 61.4833
" />
<path d="M165.5714 61.4833
L165.6190 61.5310
" />
<path d="M165.6190 61.5310
L165.6667 61.6262
" />
<path d="M165.6667 61.6262
L165.6667 61.8643
" />
<path d="M165.6667 61.8643
L165.6190 61.9595
" />
<path d="M165.6190 61.9595
L165.5714 62.0071
" />
<path d="M165.5714 62.0071
L165.4762 62.0548
" />
<path d="M165.4762 62.0548
L165.1905 62.0548
" />
<path d="M165.1905 62.0548
L165.0952 62.0071
" />
<path d="M165.0952 62.0071
L165.0476 61.9595
" />
</g><text x="170.5900" y="71.5013"
textLength="1.8947" font-size="1.0702" lengthAdjust="spacingAndGlyphs"
text-anchor="middle" opacity="0">U1</text>
<g class="stroked-text"><desc>U1</desc>
<path d="M169.9785 70.6609
L169.9785 71.3106
" />
<path d="M169.9785 71.3106
L170.0167 71.3871
" />
<path d="M170.0167 71.3871
L170.0549 71.4253
" />
<path d="M170.0549 71.4253
L170.1314 71.4635
" />
<path d="M170.1314 71.4635
L170.2842 71.4635
" />
<path d="M170.2842 71.4635
L170.3607 71.4253
" />
<path d="M170.3607 71.4253
L170.3989 71.3871
" />
<path d="M170.3989 71.3871
L170.4371 71.3106
" />
<path d="M170.4371 71.3106
L170.4371 70.6609
" />
<path d="M171.2397 71.4635
L170.7811 71.4635
" />
<path d="M171.0104 71.4635
L171.0104 70.6609
" />
<path d="M171.0104 70.6609
L170.9340 70.7755
" />
<path d="M170.9340 70.7755
L170.8575 70.8520
" />
<path d="M170.8575 70.8520
L170.7811 70.8902
" />
</g><text x="165.0000" y="84.0999"
textLength="1.9643" font-size="1.3333" lengthAdjust="spacingAndGlyphs"
text-anchor="middle" opacity="0">J2</text>
<g class="stroked-text"><desc>J2</desc>
<path d="M164.6667 83.0548
L164.6667 83.7690
" />
<path d="M164.6667 83.7690
L164.6190 83.9119
" />
<path d="M164.6190 83.9119
L164.5238 84.0071
" />
<path d="M164.5238 84.0071
L164.3810 84.0548
" />
<path d="M164.3810 84.0548
L164.2857 84.0548
" />
<path d="M165.0952 83.1500
L165.1429 83.1024
" />
<path d="M165.1429 83.1024
L165.2381 83.0548
" />
<path d="M165.2381 83.0548
L165.4762 83.0548
" />
<path d="M165.4762 83.0548
L165.5714 83.1024
" />
<path d="M165.5714 83.1024
L165.6190 83.1500
" />
<path d="M165.6190 83.1500
L165.6667 83.2452
" />
<path d="M165.6667 83.2452
L165.6667 83.3405
" />
<path d="M165.6667 83.3405
L165.6190 83.4833
" />
<path d="M165.6190 83.4833
L165.0476 84.0548
" />
<path d="M165.0476 84.0548
L165.6667 84.0548
" />
</g><text x="157.1400" y="76.5800"
textLength="2.2024" font-size="1.3333" lengthAdjust="spacingAndGlyphs"
text-anchor="middle" opacity="0">C3</text>
<g class="stroked-text"><desc>C3</desc>
<path d="M156.9733 76.4396
L156.9257 76.4872
" />
<path d="M156.9257 76.4872
L156.7829 76.5348
" />
<path d="M156.7829 76.5348
L156.6876 76.5348
" />
<path d="M156.6876 76.5348
L156.5448 76.4872
" />
<path d="M156.5448 76.4872
L156.4495 76.3920
" />
<path d="M156.4495 76.3920
L156.4019 76.2967
" />
<path d="M156.4019 76.2967
L156.3543 76.1062
" />
<path d="M156.3543 76.1062
L156.3543 75.9634
" />
<path d="M156.3543 75.9634
L156.4019 75.7729
" />
<path d="M156.4019 75.7729
L156.4495 75.6777
" />
<path d="M156.4495 75.6777
L156.5448 75.5824
" />
<path d="M156.5448 75.5824
L156.6876 75.5348
" />
<path d="M156.6876 75.5348
L156.7829 75.5348
" />
<path d="M156.7829 75.5348
L156.9257 75.5824
" />
<path d="M156.9257 75.5824
L156.9733 75.6301
" />
<path d="M157.3067 75.5348
L157.9257 75.5348
" />
<path d="M157.9257 75.5348
L157.5924 75.9158
" />
<path d="M157.5924 75.9158
L157.7352 75.9158
" />
<path d="M157.7352 75.9158
L157.8305 75.9634
" />
<path d="M157.8305 75.9634
L157.8781 76.0110
" />
<path d="M157.8781 76.0110
L157.9257 76.1062
" />
<path d="M157.9257 76.1062
L157.9257 76.3443
" />
<path d="M157.9257 76.3443
L157.8781 76.4396
" />
<path d="M157.8781 76.4396
L157.8305 76.4872
" />
<path d="M157.8305 76.4872
L157.7352 76.5348
" />
<path d="M157.7352 76.5348
L157.4495 76.5348
" />
<path d="M157.4495 76.5348
L157.3543 76.4872
" />
<path d="M157.3543 76.4872
L157.3067 76.4396
" />
</g><text x="157.1700" y="73.6500"
textLength="2.2024" font-size="1.3333" lengthAdjust="spacingAndGlyphs"
text-anchor="middle" opacity="0">C2</text>
<g class="stroked-text"><desc>C2</desc>
<path d="M157.0033 73.5096
L156.9557 73.5572
" />
<path d="M156.9557 73.5572
L156.8129 73.6048
" />
<path d="M156.8129 73.6048
L156.7176 73.6048
" />
<path d="M156.7176 73.6048
L156.5748 73.5572
" />
<path d="M156.5748 73.5572
L156.4795 73.4620
" />
<path d="M156.4795 73.4620
L156.4319 73.3667
" />
<path d="M156.4319 73.3667
L156.3843 73.1762
" />
<path d="M156.3843 73.1762
L156.3843 73.0334
" />
<path d="M156.3843 73.0334
L156.4319 72.8429
" />
<path d="M156.4319 72.8429
L156.4795 72.7477
" />
<path d="M156.4795 72.7477
L156.5748 72.6524
" />
<path d="M156.5748 72.6524
L156.7176 72.6048
" />
<path d="M156.7176 72.6048
L156.8129 72.6048
" />
<path d="M156.8129 72.6048
L156.9557 72.6524
" />
<path d="M156.9557 72.6524
L157.0033 72.7001
" />
<path d="M157.3843 72.7001
L157.4319 72.6524
" />
<path d="M157.4319 72.6524
L157.5271 72.6048
" />
<path d="M157.5271 72.6048
L157.7652 72.6048
" />
<path d="M157.7652 72.6048
L157.8605 72.6524
" />
<path d="M157.8605 72.6524
L157.9081 72.7001
" />
<path d="M157.9081 72.7001
L157.9557 72.7953
" />
<path d="M157.9557 72.7953
L157.9557 72.8905
" />
<path d="M157.9557 72.8905
L157.9081 73.0334
" />
<path d="M157.9081 73.0334
L157.3367 73.6048
" />
<path d="M157.3367 73.6048
L157.9557 73.6048
" />
</g><text x="162.6625" y="73.6600"
textLength="2.2024" font-size="1.3333" lengthAdjust="spacingAndGlyphs"
text-anchor="middle" opacity="0">C4</text>
<g class="stroked-text"><desc>C4</desc>
<path d="M162.4958 73.5196
L162.4482 73.5672
" />
<path d="M162.4482 73.5672
L162.3054 73.6148
" />
<path d="M162.3054 73.6148
L162.2101 73.6148
" />
<path d="M162.2101 73.6148
L162.0673 73.5672
" />
<path d="M162.0673 73.5672
L161.9720 73.4720
" />
<path d="M161.9720 73.4720
L161.9244 73.3767
" />
<path d="M161.9244 73.3767
L161.8768 73.1862
" />
<path d="M161.8768 73.1862
L161.8768 73.0434
" />
<path d="M161.8768 73.0434
L161.9244 72.8529
" />
<path d="M161.9244 72.8529
L161.9720 72.7577
" />
<path d="M161.9720 72.7577
L162.0673 72.6624
" />
<path d="M162.0673 72.6624
L162.2101 72.6148
" />
<path d="M162.2101 72.6148
L162.3054 72.6148
" />
<path d="M162.3054 72.6148
L162.4482 72.6624
" />
<path d="M162.4482 72.6624
L162.4958 72.7101
" />
<path d="M163.3530 72.9482
L163.3530 73.6148
" />
<path d="M163.1149 72.5672
L162.8768 73.2815
" />
<path d="M162.8768 73.2815
L163.4958 73.2815
" />
</g><text x="170.2700" y="66.3120"
textLength="2.9643" font-size="1.3333" lengthAdjust="spacingAndGlyphs"
text-anchor="middle" opacity="0">TP1</text>
<g class="stroked-text"><desc>TP1</desc>
<path d="M169.0081 65.2668
L169.5795 65.2668
" />
<path d="M169.2938 66.2668
L169.2938 65.2668
" />
<path d="M169.9129 66.2668
L169.9129 65.2668
" />
<path d="M169.9129 65.2668
L170.2938 65.2668
" />
<path d="M170.2938 65.2668
L170.3890 65.3144
" />
<path d="M170.3890 65.3144
L170.4367 65.3621
" />
<path d="M170.4367 65.3621
L170.4843 65.4573
" />
<path d="M170.4843 65.4573
L170.4843 65.6002
" />
<path d="M170.4843 65.6002
L170.4367 65.6954
" />
<path d="M170.4367 65.6954
L170.3890 65.7430
" />
<path d="M170.3890 65.7430
L170.2938 65.7906
" />
<path d="M170.2938 65.7906
L169.9129 65.7906
" />
<path d="M171.4367 66.2668
L170.8652 66.2668
" />
<path d="M171.1510 66.2668
L171.1510 65.2668
" />
<path d="M171.1510 65.2668
L171.0557 65.4097
" />
<path d="M171.0557 65.4097
L170.9605 65.5049
" />
<path d="M170.9605 65.5049
L170.8652 65.5525
" />
</g><text x="162.6125" y="76.6600"
textLength="2.2024" font-size="1.3333" lengthAdjust="spacingAndGlyphs"
text-anchor="middle" opacity="0">C5</text>
<g class="stroked-text"><desc>C5</desc>
<path d="M162.4458 76.5196
L162.3982 76.5672
" />
<path d="M162.3982 76.5672
L162.2554 76.6148
" />
<path d="M162.2554 76.6148
L162.1601 76.6148
" />
<path d="M162.1601 76.6148
L162.0173 76.5672
" />
<path d="M162.0173 76.5672
L161.9220 76.4720
" />
<path d="M161.9220 76.4720
L161.8744 76.3767
" />
<path d="M161.8744 76.3767
L161.8268 76.1862
" />
<path d="M161.8268 76.1862
L161.8268 76.0434
" />
<path d="M161.8268 76.0434
L161.8744 75.8529
" />
<path d="M161.8744 75.8529
L161.9220 75.7577
" />
<path d="M161.9220 75.7577
L162.0173 75.6624
" />
<path d="M162.0173 75.6624
L162.1601 75.6148
" />
<path d="M162.1601 75.6148
L162.2554 75.6148
" />
<path d="M162.2554 75.6148
L162.3982 75.6624
" />
<path d="M162.3982 75.6624
L162.4458 75.7101
" />
<path d="M163.3506 75.6148
L162.8744 75.6148
" />
<path d="M162.8744 75.6148
L162.8268 76.0910
" />
<path d="M162.8268 76.0910
L162.8744 76.0434
" />
<path d="M162.8744 76.0434
L162.9696 75.9958
" />
<path d="M162.9696 75.9958
L163.2077 75.9958
" />
<path d="M163.2077 75.9958
L163.3030 76.0434
" />
<path d="M163.3030 76.0434
L163.3506 76.0910
" />
<path d="M163.3506 76.0910
L163.3982 76.1862
" />
<path d="M163.3982 76.1862
L163.3982 76.4243
" />
<path d="M163.3982 76.4243
L163.3506 76.5196
" />
<path d="M163.3506 76.5196
L163.3030 76.5672
" />
<path d="M163.3030 76.5672
L163.2077 76.6148
" />
<path d="M163.2077 76.6148
L162.9696 76.6148
" />
<path d="M162.9696 76.6148
L162.8744 76.5672
" />
<path d="M162.8744 76.5672
L162.8268 76.5196
" />
</g><text x="164.1350" y="64.5500"
textLength="2.9643" font-size="1.3333" lengthAdjust="spacingAndGlyphs"
text-anchor="middle" opacity="0">JP1</text>
<g class="stroked-text"><desc>JP1</desc>
<path d="M163.3017 63.5048
L163.3017 64.2191
" />
<path d="M163.3017 64.2191
L163.2540 64.3620
" />
<path d="M163.2540 64.3620
L163.1588 64.4572
" />
<path d="M163.1588 64.4572
L163.0160 64.5048
" />
<path d="M163.0160 64.5048
L162.9207 64.5048
" />
<path d="M163.7779 64.5048
L163.7779 63.5048
" />
<path d="M163.7779 63.5048
L164.1588 63.5048
" />
<path d="M164.1588 63.5048
L164.2540 63.5524
" />
<path d="M164.2540 63.5524
L164.3017 63.6001
" />
<path d="M164.3017 63.6001
L164.3493 63.6953
" />
<path d="M164.3493 63.6953
L164.3493 63.8382
" />
<path d="M164.3493 63.8382
L164.3017 63.9334
" />
<path d="M164.3017 63.9334
L164.2540 63.9810
" />
<path d="M164.2540 63.9810
L164.1588 64.0286
" />
<path d="M164.1588 64.0286
L163.7779 64.0286
" />
<path d="M165.3017 64.5048
L164.7302 64.5048
" />
<path d="M165.0160 64.5048
L165.0160 63.5048
" />
<path d="M165.0160 63.5048
L164.9207 63.6477
" />
<path d="M164.9207 63.6477
L164.8255 63.7429
" />
<path d="M164.8255 63.7429
L164.7302 63.7905
" />
</g><text x="157.1400" y="70.5000"
textLength="2.2024" font-size="1.3333" lengthAdjust="spacingAndGlyphs"
text-anchor="middle" opacity="0">C1</text>
<g class="stroked-text"><desc>C1</desc>
<path d="M156.9733 70.3596
L156.9257 70.4072
" />
<path d="M156.9257 70.4072
L156.7829 70.4548
" />
<path d="M156.7829 70.4548
L156.6876 70.4548
" />
<path d="M156.6876 70.4548
L156.5448 70.4072
" />
<path d="M156.5448 70.4072
L156.4495 70.3120
" />
<path d="M156.4495 70.3120
L156.4019 70.2167
" />
<path d="M156.4019 70.2167
L156.3543 70.0262
" />
<path d="M156.3543 70.0262
L156.3543 69.8834
" />
<path d="M156.3543 69.8834
L156.4019 69.6929
" />
<path d="M156.4019 69.6929
L156.4495 69.5977
" />
<path d="M156.4495 69.5977
L156.5448 69.5024
" />
<path d="M156.5448 69.5024
L156.6876 69.4548
" />
<path d="M156.6876 69.4548
L156.7829 69.4548
" />
<path d="M156.7829 69.4548
L156.9257 69.5024
" />
<path d="M156.9257 69.5024
L156.9733 69.5501
" />
<path d="M157.9257 70.4548
L157.3543 70.4548
" />
<path d="M157.6400 70.4548
L157.6400 69.4548
" />
<path d="M157.6400 69.4548
L157.5448 69.5977
" />
<path d="M157.5448 69.5977
L157.4495 69.6929
" />
<path d="M157.4495 69.6929
L157.3543 69.7405
" />
</g></g>
<g style="fill:none; 
stroke:#F2EDA1; stroke-width:0.1524; stroke-opacity:1; 
stroke-linecap:round; stroke-linejoin:round;">
<path d="M154.4463 58.6792
L154.4463 61.3208
" />
<path d="M154.4463 61.3208
L157.1974 61.3208
" />
<path d="M155.1974 58.6792
L154.4463 58.6792
" />
<path d="M158.8026 61.3208
L161.1974 61.3208
" />
<path d="M159.1974 58.6792
L156.8026 58.6792
" />
<path d="M162.8026 61.3208
L165.1974 61.3208
" />
<path d="M163.1974 58.6792
L160.8026 58.6792
" />
<path d="M166.8026 61.3208
L169.1974 61.3208
" />
<path d="M167.1974 58.6792
L164.8026 58.6792
" />
<path d="M170.8026 61.3208
L173.1974 61.3208
" />
<path d="M171.1974 58.6792
L168.8026 58.6792
" />
<path d="M174.8026 61.3208
L175.5537 61.3208
" />
<path d="M175.5537 58.6792
L172.8026 58.6792
" />
<path d="M175.5537 61.3208
L175.5537 58.6792
" />
</g>
<g style="fill:none; 
stroke:#F2EDA1; stroke-width:0.5080; stroke-opacity:1; 
stroke-linecap:round; stroke-linejoin:round;">
<circle cx="153.8113" cy="58.3999" r="0.3810" /> 
</g>
<g style="fill:none; 
stroke:#F2EDA1; stroke-width:0.1270; stroke-opacity:1; 
stroke-linecap:round; stroke-linejoin:round;">
<path d="M169.5850 72.1100
L169.5850 72.2100
" />
<path d="M169.5850 75.2100
L169.5850 75.1100
" />
<path d="M171.2850 72.1100
L169.5850 72.1100
" />
<path d="M171.2850 72.1100
L171.2850 72.2100
" />
<path d="M171.2850 75.2100
L169.5850 75.2100
" />
<path d="M171.2850 75.2100
L171.2850 75.1100
" />
</g>
<g style="fill:none; 
stroke:#F2EDA1; stroke-width:0.2000; stroke-opacity:1; 
stroke-linecap:round; stroke-linejoin:round;">
<circle cx="167.9660" cy="72.7100" r="0.1000" /> 
</g>
<g style="fill:none; 
stroke:#F2EDA1; stroke-width:0.1524; stroke-opacity:1; 
stroke-linecap:round; stroke-linejoin:round;">
<path d="M154.4463 80.6792
L154.4463 83.3208
" />
<path d="M154.4463 83.3208
L157.1974 83.3208
" />
<path d="M155.1974 80.6792
L154.4463 80.6792
" />
<path d="M158.8026 83.3208
L161.1974 83.3208
" />
<path d="M159.1974 80.6792
L156.8026 80.6792
" />
<path d="M162.8026 83.3208
L165.1974 83.3208
" />
<path d="M163.1974 80.6792
L160.8026 80.6792
" />
<path d="M166.8026 83.3208
L169.1974 83.3208
" />
<path d="M167.1974 80.6792
L164.8026 80.6792
" />
<path d="M170.8026 83.3208
L173.1974 83.3208
" />
<path d="M171.1974 80.6792
L168.8026 80.6792
" />
<path d="M174.8026 83.3208
L175.5537 83.3208
" />
<path d="M175.5537 80.6792
L172.8026 80.6792
" />
<path d="M175.5537 83.3208
L175.5537 80.6792
" />
</g>
<g style="fill:none; 
stroke:#F2EDA1; stroke-width:0.5080; stroke-opacity:1; 
stroke-linecap:round; stroke-linejoin:round;">
<circle cx="153.8113" cy="80.3999" r="0.3810" /> 
</g>
<g style="fill:none; 
stroke:#F2EDA1; stroke-width:0.1200; stroke-opacity:1; 
stroke-linecap:round; stroke-linejoin:round;">
<path d="M159.6712 75.4950
L160.1938 75.4950
" />
<path d="M159.6712 76.9650
L160.1938 76.9650
" />
<path d="M159.6712 72.4850
L160.1938 72.4850
" />
<path d="M159.6712 73.9550
L160.1938 73.9550
" />
<path d="M165.1312 72.2150
L165.6538 72.2150
" />
<path d="M165.1312 73.6850
L165.6538 73.6850
" />
<path d="M169.3200 66.5100
L171.2200 66.5100
" />
<path d="M169.3200 68.4100
L169.3200 66.5100
" />
<path d="M171.2200 66.5100
L171.2200 68.4100
" />
<path d="M171.2200 68.4100
L169.3200 68.4100
" />
<path d="M165.1312 75.2250
L165.6538 75.2250
" />
<path d="M165.1312 76.6950
L165.6538 76.6950
" />
<path d="M162.7350 64.8500
L165.5350 64.8500
" />
<path d="M162.7350 66.8500
L162.7350 64.8500
" />
<path d="M165.5350 64.8500
L165.5350 66.8500
" />
<path d="M165.5350 66.8500
L162.7350 66.8500
" />
<path d="M159.6712 69.4750
L160.1938 69.4750
" />
<path d="M159.6712 70.9450
L160.1938 70.9450
" />
</g>
<g style="fill:none; 
stroke:#F2EDA1; stroke-width:0.5080; stroke-opacity:1; 
stroke-linecap:round; stroke-linejoin:round;">
<circle cx="153.7732" cy="84.5110" r="0.3810" /> 
<circle cx="153.7732" cy="61.6510" r="0.3810" /> 
</g> 
</svg>
