<?xml version="1.0" standalone="no"?>
 <!DOCTYPE svg PUBLIC "-//W3C//DTD SVG 1.1//EN" 
 "http://www.w3.org/Graphics/SVG/1.1/DTD/svg11.dtd"> 
<svg
  xmlns:svg="http://www.w3.org/2000/svg"
  xmlns="http://www.w3.org/2000/svg"
  xmlns:xlink="http://www.w3.org/1999/xlink"
  version="1.1"
  width="297.0022mm" height="210.0072mm" viewBox="0.0000 0.0000 297.0022 210.0072">
<title>SVG Image created as adapter_board-F_Mask.svg date 2024/04/08 23:37:47 </title>
  <desc>Image generated by PCBNEW </desc>
<g style="fill:#000000; fill-opacity:1.0000;stroke:#000000; stroke-opacity:1.0000;
stroke-linecap:round; stroke-linejoin:round;"
 transform="translate(0 0) scale(1 1)">
<path style="fill:#D864FF; fill-opacity:0.4000; stroke:none;fill-rule:evenodd;"
d="M 155.5301,59.4286
155.5301,57.3712
156.4699,57.3712
156.4699,59.4286
Z" /> 
<path style="fill:#D864FF; fill-opacity:0.4000; stroke:none;fill-rule:evenodd;"
d="M 157.5301,62.6286
157.5301,60.5712
158.4699,60.5712
158.4699,62.6286
Z" /> 
<path style="fill:#D864FF; fill-opacity:0.4000; stroke:none;fill-rule:evenodd;"
d="M 159.5301,59.4286
159.5301,57.3712
160.4699,57.3712
160.4699,59.4286
Z" /> 
<path style="fill:#D864FF; fill-opacity:0.4000; stroke:none;fill-rule:evenodd;"
d="M 161.5301,62.6286
161.5301,60.5712
162.4699,60.5712
162.4699,62.6286
Z" /> 
<path style="fill:#D864FF; fill-opacity:0.4000; stroke:none;fill-rule:evenodd;"
d="M 163.5301,59.4286
163.5301,57.3712
164.4699,57.3712
164.4699,59.4286
Z" /> 
<path style="fill:#D864FF; fill-opacity:0.4000; stroke:none;fill-rule:evenodd;"
d="M 165.5301,62.6286
165.5301,60.5712
166.4699,60.5712
166.4699,62.6286
Z" /> 
<path style="fill:#D864FF; fill-opacity:0.4000; stroke:none;fill-rule:evenodd;"
d="M 167.5301,59.4286
167.5301,57.3712
168.4699,57.3712
168.4699,59.4286
Z" /> 
<path style="fill:#D864FF; fill-opacity:0.4000; stroke:none;fill-rule:evenodd;"
d="M 169.5301,62.6286
169.5301,60.5712
170.4699,60.5712
170.4699,62.6286
Z" /> 
<path style="fill:#D864FF; fill-opacity:0.4000; stroke:none;fill-rule:evenodd;"
d="M 171.5301,59.4286
171.5301,57.3712
172.4699,57.3712
172.4699,59.4286
Z" /> 
<path style="fill:#D864FF; fill-opacity:0.4000; stroke:none;fill-rule:evenodd;"
d="M 173.5301,62.6286
173.5301,60.5712
174.4699,60.5712
174.4699,62.6286
Z" /> 
<path style="fill:#D864FF; fill-opacity:0.4000; stroke:none;fill-rule:evenodd;"
d="M 169.9466,72.3080
169.9774,72.3141
170.0035,72.3315
170.0209,72.3576
170.0270,72.3884
170.0270,73.0316
170.0209,73.0624
170.0035,73.0885
169.9774,73.1059
169.9466,73.1120
168.5534,73.1120
168.5226,73.1059
168.4965,73.0885
168.4791,73.0624
168.4730,73.0316
168.4730,72.3884
168.4791,72.3576
168.4965,72.3315
168.5226,72.3141
168.5534,72.3080
Z" /> 
<path style="fill:#D864FF; fill-opacity:0.4000; stroke:none;fill-rule:evenodd;"
d="M 169.9466,73.2580
169.9774,73.2641
170.0035,73.2815
170.0209,73.3076
170.0270,73.3384
170.0270,73.9816
170.0209,74.0124
170.0035,74.0385
169.9774,74.0559
169.9466,74.0620
168.5534,74.0620
168.5226,74.0559
168.4965,74.0385
168.4791,74.0124
168.4730,73.9816
168.4730,73.3384
168.4791,73.3076
168.4965,73.2815
168.5226,73.2641
168.5534,73.2580
Z" /> 
<path style="fill:#D864FF; fill-opacity:0.4000; stroke:none;fill-rule:evenodd;"
d="M 169.9466,74.2080
169.9774,74.2141
170.0035,74.2315
170.0209,74.2576
170.0270,74.2884
170.0270,74.9316
170.0209,74.9624
170.0035,74.9885
169.9774,75.0059
169.9466,75.0120
168.5534,75.0120
168.5226,75.0059
168.4965,74.9885
168.4791,74.9624
168.4730,74.9316
168.4730,74.2884
168.4791,74.2576
168.4965,74.2315
168.5226,74.2141
168.5534,74.2080
Z" /> 
<path style="fill:#D864FF; fill-opacity:0.4000; stroke:none;fill-rule:evenodd;"
d="M 172.3166,74.2080
172.3474,74.2141
172.3735,74.2315
172.3909,74.2576
172.3970,74.2884
172.3970,74.9316
172.3909,74.9624
172.3735,74.9885
172.3474,75.0059
172.3166,75.0120
170.9234,75.0120
170.8926,75.0059
170.8665,74.9885
170.8491,74.9624
170.8430,74.9316
170.8430,74.2884
170.8491,74.2576
170.8665,74.2315
170.8926,74.2141
170.9234,74.2080
Z" /> 
<path style="fill:#D864FF; fill-opacity:0.4000; stroke:none;fill-rule:evenodd;"
d="M 172.3166,72.3080
172.3474,72.3141
172.3735,72.3315
172.3909,72.3576
172.3970,72.3884
172.3970,73.0316
172.3909,73.0624
172.3735,73.0885
172.3474,73.1059
172.3166,73.1120
170.9234,73.1120
170.8926,73.1059
170.8665,73.0885
170.8491,73.0624
170.8430,73.0316
170.8430,72.3884
170.8491,72.3576
170.8665,72.3315
170.8926,72.3141
170.9234,72.3080
Z" /> 
<path style="fill:#D864FF; fill-opacity:0.4000; stroke:none;fill-rule:evenodd;"
d="M 155.5301,81.4286
155.5301,79.3712
156.4699,79.3712
156.4699,81.4286
Z" /> 
<path style="fill:#D864FF; fill-opacity:0.4000; stroke:none;fill-rule:evenodd;"
d="M 157.5301,84.6286
157.5301,82.5712
158.4699,82.5712
158.4699,84.6286
Z" /> 
<path style="fill:#D864FF; fill-opacity:0.4000; stroke:none;fill-rule:evenodd;"
d="M 159.5301,81.4286
159.5301,79.3712
160.4699,79.3712
160.4699,81.4286
Z" /> 
<path style="fill:#D864FF; fill-opacity:0.4000; stroke:none;fill-rule:evenodd;"
d="M 161.5301,84.6286
161.5301,82.5712
162.4699,82.5712
162.4699,84.6286
Z" /> 
<path style="fill:#D864FF; fill-opacity:0.4000; stroke:none;fill-rule:evenodd;"
d="M 163.5301,81.4286
163.5301,79.3712
164.4699,79.3712
164.4699,81.4286
Z" /> 
<path style="fill:#D864FF; fill-opacity:0.4000; stroke:none;fill-rule:evenodd;"
d="M 165.5301,84.6286
165.5301,82.5712
166.4699,82.5712
166.4699,84.6286
Z" /> 
<path style="fill:#D864FF; fill-opacity:0.4000; stroke:none;fill-rule:evenodd;"
d="M 167.5301,81.4286
167.5301,79.3712
168.4699,79.3712
168.4699,81.4286
Z" /> 
<path style="fill:#D864FF; fill-opacity:0.4000; stroke:none;fill-rule:evenodd;"
d="M 169.5301,84.6286
169.5301,82.5712
170.4699,82.5712
170.4699,84.6286
Z" /> 
<path style="fill:#D864FF; fill-opacity:0.4000; stroke:none;fill-rule:evenodd;"
d="M 171.5301,81.4286
171.5301,79.3712
172.4699,79.3712
172.4699,81.4286
Z" /> 
<path style="fill:#D864FF; fill-opacity:0.4000; stroke:none;fill-rule:evenodd;"
d="M 173.5301,84.6286
173.5301,82.5712
174.4699,82.5712
174.4699,84.6286
Z" /> 
<path style="fill:#D864FF; fill-opacity:0.4000; stroke:none;fill-rule:evenodd;"
d="M 158.3075,75.7550
158.3265,75.6593
158.3807,75.5782
158.4618,75.5240
158.5575,75.5050
159.2325,75.5050
159.3282,75.5240
159.4093,75.5782
159.4635,75.6593
159.4825,75.7550
159.4825,76.7050
159.4635,76.8007
159.4093,76.8818
159.3282,76.9360
159.2325,76.9550
158.5575,76.9550
158.4618,76.9360
158.3807,76.8818
158.3265,76.8007
158.3075,76.7050
Z" /> 
<path style="fill:#D864FF; fill-opacity:0.4000; stroke:none;fill-rule:evenodd;"
d="M 160.3825,75.7550
160.4015,75.6593
160.4557,75.5782
160.5368,75.5240
160.6325,75.5050
161.3075,75.5050
161.4032,75.5240
161.4843,75.5782
161.5385,75.6593
161.5575,75.7550
161.5575,76.7050
161.5385,76.8007
161.4843,76.8818
161.4032,76.9360
161.3075,76.9550
160.6325,76.9550
160.5368,76.9360
160.4557,76.8818
160.4015,76.8007
160.3825,76.7050
Z" /> 
<path style="fill:#D864FF; fill-opacity:0.4000; stroke:none;fill-rule:evenodd;"
d="M 158.3075,72.7450
158.3265,72.6493
158.3807,72.5682
158.4618,72.5140
158.5575,72.4950
159.2325,72.4950
159.3282,72.5140
159.4093,72.5682
159.4635,72.6493
159.4825,72.7450
159.4825,73.6950
159.4635,73.7907
159.4093,73.8718
159.3282,73.9260
159.2325,73.9450
158.5575,73.9450
158.4618,73.9260
158.3807,73.8718
158.3265,73.7907
158.3075,73.6950
Z" /> 
<path style="fill:#D864FF; fill-opacity:0.4000; stroke:none;fill-rule:evenodd;"
d="M 160.3825,72.7450
160.4015,72.6493
160.4557,72.5682
160.5368,72.5140
160.6325,72.4950
161.3075,72.4950
161.4032,72.5140
161.4843,72.5682
161.5385,72.6493
161.5575,72.7450
161.5575,73.6950
161.5385,73.7907
161.4843,73.8718
161.4032,73.9260
161.3075,73.9450
160.6325,73.9450
160.5368,73.9260
160.4557,73.8718
160.4015,73.7907
160.3825,73.6950
Z" /> 
<path style="fill:#D864FF; fill-opacity:0.4000; stroke:none;fill-rule:evenodd;"
d="M 163.7675,72.4750
163.7865,72.3793
163.8407,72.2982
163.9218,72.2440
164.0175,72.2250
164.6925,72.2250
164.7882,72.2440
164.8693,72.2982
164.9235,72.3793
164.9425,72.4750
164.9425,73.4250
164.9235,73.5207
164.8693,73.6018
164.7882,73.6560
164.6925,73.6750
164.0175,73.6750
163.9218,73.6560
163.8407,73.6018
163.7865,73.5207
163.7675,73.4250
Z" /> 
<path style="fill:#D864FF; fill-opacity:0.4000; stroke:none;fill-rule:evenodd;"
d="M 165.8425,72.4750
165.8615,72.3793
165.9157,72.2982
165.9968,72.2440
166.0925,72.2250
166.7675,72.2250
166.8632,72.2440
166.9443,72.2982
166.9985,72.3793
167.0175,72.4750
167.0175,73.4250
166.9985,73.5207
166.9443,73.6018
166.8632,73.6560
166.7675,73.6750
166.0925,73.6750
165.9968,73.6560
165.9157,73.6018
165.8615,73.5207
165.8425,73.4250
Z" /> 
<path style="fill:#D864FF; fill-opacity:0.4000; stroke:none;fill-rule:evenodd;"
d="M 169.5200,68.2100
169.5200,66.7100
171.0200,66.7100
171.0200,68.2100
Z" /> 
<path style="fill:#D864FF; fill-opacity:0.4000; stroke:none;fill-rule:evenodd;"
d="M 163.7675,75.4850
163.7865,75.3893
163.8407,75.3082
163.9218,75.2540
164.0175,75.2350
164.6925,75.2350
164.7882,75.2540
164.8693,75.3082
164.9235,75.3893
164.9425,75.4850
164.9425,76.4350
164.9235,76.5307
164.8693,76.6118
164.7882,76.6660
164.6925,76.6850
164.0175,76.6850
163.9218,76.6660
163.8407,76.6118
163.7865,76.5307
163.7675,76.4350
Z" /> 
<path style="fill:#D864FF; fill-opacity:0.4000; stroke:none;fill-rule:evenodd;"
d="M 165.8425,75.4850
165.8615,75.3893
165.9157,75.3082
165.9968,75.2540
166.0925,75.2350
166.7675,75.2350
166.8632,75.2540
166.9443,75.3082
166.9985,75.3893
167.0175,75.4850
167.0175,76.4350
166.9985,76.5307
166.9443,76.6118
166.8632,76.6660
166.7675,76.6850
166.0925,76.6850
165.9968,76.6660
165.9157,76.6118
165.8615,76.5307
165.8425,76.4350
Z" /> 
<path style="fill:#D864FF; fill-opacity:0.4000; stroke:none;fill-rule:evenodd;"
d="M 164.4100,65.8500
163.9100,66.6000
162.9100,66.6000
162.9100,65.1000
163.9100,65.1000
Z" /> 
<path style="fill:#D864FF; fill-opacity:0.4000; stroke:none;fill-rule:evenodd;"
d="M 165.3600,66.6000
164.2100,66.6000
164.7100,65.8500
164.2100,65.1000
165.3600,65.1000
Z" /> 
<path style="fill:#D864FF; fill-opacity:0.4000; stroke:none;fill-rule:evenodd;"
d="M 158.3075,69.7350
158.3265,69.6393
158.3807,69.5582
158.4618,69.5040
158.5575,69.4850
159.2325,69.4850
159.3282,69.5040
159.4093,69.5582
159.4635,69.6393
159.4825,69.7350
159.4825,70.6850
159.4635,70.7807
159.4093,70.8618
159.3282,70.9160
159.2325,70.9350
158.5575,70.9350
158.4618,70.9160
158.3807,70.8618
158.3265,70.7807
158.3075,70.6850
Z" /> 
<path style="fill:#D864FF; fill-opacity:0.4000; stroke:none;fill-rule:evenodd;"
d="M 160.3825,69.7350
160.4015,69.6393
160.4557,69.5582
160.5368,69.5040
160.6325,69.4850
161.3075,69.4850
161.4032,69.5040
161.4843,69.5582
161.5385,69.6393
161.5575,69.7350
161.5575,70.6850
161.5385,70.7807
161.4843,70.8618
161.4032,70.9160
161.3075,70.9350
160.6325,70.9350
160.5368,70.9160
160.4557,70.8618
160.4015,70.7807
160.3825,70.6850
Z" /> 
</g> 
</svg>
