<?xml version="1.0" standalone="no"?>
 <!DOCTYPE svg PUBLIC "-//W3C//DTD SVG 1.1//EN" 
 "http://www.w3.org/Graphics/SVG/1.1/DTD/svg11.dtd"> 
<svg
  xmlns:svg="http://www.w3.org/2000/svg"
  xmlns="http://www.w3.org/2000/svg"
  xmlns:xlink="http://www.w3.org/1999/xlink"
  version="1.1"
  width="297.0022mm" height="210.0072mm" viewBox="0.0000 0.0000 297.0022 210.0072">
<title>SVG Image created as adapter_board-B_Cu.svg date 2024/04/08 23:37:47 </title>
  <desc>Image generated by PCBNEW </desc>
<g style="fill:#000000; fill-opacity:1.0000;stroke:#000000; stroke-opacity:1.0000;
stroke-linecap:round; stroke-linejoin:round;"
 transform="translate(0 0) scale(1 1)">
<path style="fill:#4D7FC4; fill-opacity:1.0000; stroke:none;fill-rule:evenodd;"
d="M 169.5200,68.2100
169.5200,66.7100
171.0200,66.7100
171.0200,68.2100
Z" /> 
<path style="fill:#4D7FC4; fill-opacity:1.0000; stroke:none;fill-rule:evenodd;"
d="M 156.6053,83.5077
156.6053,85.5143
155.6147,85.5143
155.6147,83.5077
Z" /> 
<path style="fill:#4D7FC4; fill-opacity:1.0000; stroke:none;fill-rule:evenodd;"
d="M 159.1453,80.2057
159.1453,82.2123
158.1547,82.2123
158.1547,80.2057
Z" /> 
<path style="fill:#4D7FC4; fill-opacity:1.0000; stroke:none;fill-rule:evenodd;"
d="M 161.6853,83.5077
161.6853,85.5143
160.6947,85.5143
160.6947,83.5077
Z" /> 
<path style="fill:#4D7FC4; fill-opacity:1.0000; stroke:none;fill-rule:evenodd;"
d="M 164.2253,80.2057
164.2253,82.2123
163.2347,82.2123
163.2347,80.2057
Z" /> 
<path style="fill:#4D7FC4; fill-opacity:1.0000; stroke:none;fill-rule:evenodd;"
d="M 166.7653,83.5077
166.7653,85.5143
165.7747,85.5143
165.7747,83.5077
Z" /> 
<path style="fill:#4D7FC4; fill-opacity:1.0000; stroke:none;fill-rule:evenodd;"
d="M 169.3053,80.2057
169.3053,82.2123
168.3147,82.2123
168.3147,80.2057
Z" /> 
<path style="fill:#4D7FC4; fill-opacity:1.0000; stroke:none;fill-rule:evenodd;"
d="M 171.8453,83.5077
171.8453,85.5143
170.8547,85.5143
170.8547,83.5077
Z" /> 
<path style="fill:#4D7FC4; fill-opacity:1.0000; stroke:none;fill-rule:evenodd;"
d="M 174.3853,80.2057
174.3853,82.2123
173.3947,82.2123
173.3947,80.2057
Z" /> 
<path style="fill:#4D7FC4; fill-opacity:1.0000; stroke:none;fill-rule:evenodd;"
d="M 156.6053,60.6477
156.6053,62.6543
155.6147,62.6543
155.6147,60.6477
Z" /> 
<path style="fill:#4D7FC4; fill-opacity:1.0000; stroke:none;fill-rule:evenodd;"
d="M 159.1453,57.3457
159.1453,59.3523
158.1547,59.3523
158.1547,57.3457
Z" /> 
<path style="fill:#4D7FC4; fill-opacity:1.0000; stroke:none;fill-rule:evenodd;"
d="M 161.6853,60.6477
161.6853,62.6543
160.6947,62.6543
160.6947,60.6477
Z" /> 
<path style="fill:#4D7FC4; fill-opacity:1.0000; stroke:none;fill-rule:evenodd;"
d="M 164.2253,57.3457
164.2253,59.3523
163.2347,59.3523
163.2347,57.3457
Z" /> 
<path style="fill:#4D7FC4; fill-opacity:1.0000; stroke:none;fill-rule:evenodd;"
d="M 166.7653,60.6477
166.7653,62.6543
165.7747,62.6543
165.7747,60.6477
Z" /> 
<path style="fill:#4D7FC4; fill-opacity:1.0000; stroke:none;fill-rule:evenodd;"
d="M 169.3053,57.3457
169.3053,59.3523
168.3147,59.3523
168.3147,57.3457
Z" /> 
<path style="fill:#4D7FC4; fill-opacity:1.0000; stroke:none;fill-rule:evenodd;"
d="M 171.8453,60.6477
171.8453,62.6543
170.8547,62.6543
170.8547,60.6477
Z" /> 
<path style="fill:#4D7FC4; fill-opacity:1.0000; stroke:none;fill-rule:evenodd;"
d="M 174.3853,57.3457
174.3853,59.3523
173.3947,59.3523
173.3947,57.3457
Z" /> 
</g>
<g style="fill:#ECECEC; fill-opacity:1.0000; stroke:none;">
<circle cx="162.1500" cy="75.6800" r="0.4000" /> 
</g>
<g style="fill:#ECECEC; fill-opacity:1.0000; stroke:none;">
<circle cx="166.5800" cy="74.5100" r="0.4000" /> 
</g>
<g style="fill:#ECECEC; fill-opacity:1.0000; stroke:none;">
<circle cx="162.1500" cy="72.2700" r="0.4000" /> 
</g>
<g style="fill:#ECECEC; fill-opacity:1.0000; stroke:none;">
<circle cx="161.1300" cy="68.4200" r="0.4000" /> 
</g>
<g style="fill:#ECECEC; fill-opacity:1.0000; stroke:none;">
<circle cx="166.1500" cy="71.2900" r="0.4000" /> 
</g>
<g style="fill:#ECECEC; fill-opacity:1.0000; stroke:none;">
<circle cx="172.7200" cy="83.7600" r="0.4000" /> 
</g>
<g style="fill:#ECECEC; fill-opacity:1.0000; stroke:none;">
<circle cx="175.2000" cy="83.6100" r="0.4000" /> 
</g>
<g style="fill:#ECECEC; fill-opacity:1.0000; stroke:none;">
<circle cx="167.7400" cy="70.5700" r="0.4000" /> 
</g>
<g style="fill:#ECECEC; fill-opacity:1.0000; stroke:none;">
<circle cx="172.5700" cy="66.3100" r="0.4000" /> 
</g>
<g style="fill:#ECECEC; fill-opacity:1.0000; stroke:none;">
<circle cx="169.2000" cy="63.9300" r="0.4000" /> 
</g>
<g style="fill:none; 
stroke:#4D7FC4; stroke-width:0.5080; stroke-opacity:1; 
stroke-linecap:round; stroke-linejoin:round;">
<path d="M172.5700 66.3100
L172.5700 67.5680
" />
<path d="M169.5680 70.5700
L167.7400 70.5700
" />
<path d="M172.5700 67.5680
L169.5680 70.5700
" />
<path d="M171.4776 63.9300
L169.2000 63.9300
" />
<path d="M173.8900 58.3490
L173.8900 61.5176
" />
<path d="M173.8900 61.5176
L171.4776 63.9300
" />
<path style="fill:#4D7FC4; fill-opacity:1.0000; stroke:none;fill-rule:evenodd;"
d="M 176.8330,55.9097
176.8788,55.9625
176.8900,56.0140
176.8900,87.0460
176.8703,87.1130
176.8175,87.1588
176.7660,87.1700
152.0240,87.1700
151.9570,87.1503
151.9112,87.0975
151.9000,87.0460
151.9000,85.5622
155.1142,85.5622
155.1142,85.5622
155.1206,85.6218
155.1709,85.7566
155.1709,85.7566
155.2572,85.8718
155.2572,85.8718
155.3724,85.9581
155.3724,85.9581
155.5072,86.0084
155.5072,86.0084
155.5141,86.0091
155.5668,86.0148
156.6532,86.0148
156.7128,86.0084
156.8476,85.9581
156.9628,85.8718
157.0491,85.7566
157.0994,85.6218
157.1058,85.5622
157.1058,85.5622
160.1942,85.5622
160.1942,85.5622
160.2006,85.6218
160.2509,85.7566
160.2509,85.7566
160.3372,85.8718
160.3372,85.8718
160.4524,85.9581
160.4524,85.9581
160.5872,86.0084
160.5872,86.0084
160.5941,86.0091
160.6468,86.0148
161.7332,86.0148
161.7928,86.0084
161.9276,85.9581
162.0428,85.8718
162.1291,85.7566
162.1794,85.6218
162.1858,85.5622
162.1858,85.5622
165.2742,85.5622
165.2742,85.5622
165.2806,85.6218
165.3309,85.7566
165.3309,85.7566
165.4172,85.8718
165.4172,85.8718
165.5324,85.9581
165.5324,85.9581
165.6672,86.0084
165.6672,86.0084
165.6741,86.0091
165.7268,86.0148
166.8132,86.0148
166.8728,86.0084
167.0076,85.9581
167.1228,85.8718
167.2091,85.7566
167.2594,85.6218
167.2658,85.5622
167.2658,84.7610
170.3547,84.7610
170.3547,85.5621
170.3611,85.6217
170.3611,85.6217
170.4113,85.7564
170.4113,85.7564
170.4975,85.8715
170.4975,85.8715
170.6126,85.9577
170.6126,85.9577
170.7473,86.0079
170.7473,86.0079
170.8069,86.0143
170.8069,86.0143
171.1000,86.0143
171.1000,84.7610
171.6000,84.7610
171.6000,86.0143
171.8931,86.0143
171.8931,86.0143
171.9527,86.0079
171.9527,86.0079
172.0874,85.9577
172.0874,85.9577
172.2025,85.8715
172.2025,85.8715
172.2886,85.7564
172.2887,85.7564
172.3389,85.6217
172.3389,85.6217
172.3453,85.5621
172.3453,85.5621
172.3453,84.7610
171.6000,84.7610
171.1000,84.7610
170.3547,84.7610
167.2658,84.7610
167.2658,84.2610
170.3547,84.2610
171.1000,84.2610
171.1000,83.0077
171.6000,83.0077
171.6000,84.2610
172.3453,84.2610
172.3453,83.4599
172.3453,83.4599
172.3389,83.4003
172.3389,83.4003
172.2887,83.2656
172.2886,83.2656
172.2025,83.1505
172.2025,83.1505
172.0874,83.0643
172.0874,83.0643
171.9527,83.0141
171.9527,83.0141
171.8931,83.0077
171.6000,83.0077
171.1000,83.0077
170.8069,83.0077
170.7473,83.0141
170.7473,83.0141
170.6126,83.0643
170.6126,83.0643
170.4975,83.1505
170.4975,83.1505
170.4113,83.2656
170.4113,83.2656
170.3611,83.4003
170.3611,83.4003
170.3547,83.4599
170.3547,84.2610
167.2658,84.2610
167.2658,83.4598
167.2594,83.4002
167.2092,83.2656
167.2091,83.2654
167.2091,83.2654
167.1228,83.1502
167.1228,83.1502
167.0076,83.0639
167.0076,83.0639
166.8728,83.0136
166.8728,83.0136
166.8132,83.0072
166.8132,83.0072
166.8132,83.0072
166.8132,83.0072
165.7268,83.0072
165.7268,83.0072
165.6672,83.0136
165.5324,83.0639
165.5324,83.0639
165.4172,83.1502
165.4172,83.1502
165.3309,83.2654
165.3309,83.2654
165.2806,83.4002
165.2742,83.4598
165.2742,83.4598
165.2742,83.4598
165.2742,85.5622
162.1858,85.5622
162.1858,83.4598
162.1794,83.4002
162.1292,83.2656
162.1291,83.2654
162.1291,83.2654
162.0428,83.1502
162.0428,83.1502
161.9276,83.0639
161.9276,83.0639
161.7928,83.0136
161.7928,83.0136
161.7332,83.0072
161.7332,83.0072
161.7332,83.0072
161.7332,83.0072
160.6468,83.0072
160.6468,83.0072
160.5872,83.0136
160.4524,83.0639
160.4524,83.0639
160.3372,83.1502
160.3372,83.1502
160.2509,83.2654
160.2509,83.2654
160.2006,83.4002
160.1942,83.4598
160.1942,83.4598
160.1942,83.4598
160.1942,85.5622
157.1058,85.5622
157.1058,83.4598
157.0994,83.4002
157.0492,83.2656
157.0491,83.2654
157.0491,83.2654
156.9628,83.1502
156.9628,83.1502
156.8476,83.0639
156.8476,83.0639
156.7128,83.0136
156.7128,83.0136
156.6532,83.0072
156.6532,83.0072
156.6532,83.0072
156.6532,83.0072
155.5668,83.0072
155.5668,83.0072
155.5072,83.0136
155.3724,83.0639
155.3724,83.0639
155.2572,83.1502
155.2572,83.1502
155.1709,83.2654
155.1709,83.2654
155.1206,83.4002
155.1142,83.4598
155.1142,83.4598
155.1142,83.4598
155.1142,85.5622
151.9000,85.5622
151.9000,82.2602
157.6542,82.2602
157.6542,82.2602
157.6606,82.3198
157.7109,82.4546
157.7109,82.4546
157.7972,82.5698
157.7972,82.5698
157.9124,82.6561
157.9124,82.6561
158.0472,82.7064
158.0472,82.7064
158.0541,82.7071
158.1068,82.7128
159.1932,82.7128
159.2528,82.7064
159.3876,82.6561
159.5028,82.5698
159.5891,82.4546
159.6394,82.3198
159.6458,82.2602
159.6458,82.2602
162.7342,82.2602
162.7342,82.2602
162.7406,82.3198
162.7909,82.4546
162.7909,82.4546
162.8772,82.5698
162.8772,82.5698
162.9924,82.6561
162.9924,82.6561
163.1272,82.7064
163.1272,82.7064
163.1341,82.7071
163.1868,82.7128
164.2732,82.7128
164.3328,82.7064
164.4676,82.6561
164.5828,82.5698
164.6691,82.4546
164.7194,82.3198
164.7258,82.2602
164.7258,82.2602
167.8142,82.2602
167.8142,82.2602
167.8206,82.3198
167.8709,82.4546
167.8709,82.4546
167.9572,82.5698
167.9572,82.5698
168.0724,82.6561
168.0724,82.6561
168.2072,82.7064
168.2072,82.7064
168.2141,82.7071
168.2668,82.7128
169.3532,82.7128
169.4128,82.7064
169.5476,82.6561
169.6628,82.5698
169.7491,82.4546
169.7994,82.3198
169.8058,82.2602
169.8058,82.2602
172.8942,82.2602
172.8942,82.2602
172.9006,82.3198
172.9509,82.4546
172.9509,82.4546
173.0372,82.5698
173.0372,82.5698
173.1524,82.6561
173.1524,82.6561
173.2872,82.7064
173.2872,82.7064
173.2941,82.7071
173.3468,82.7128
174.4332,82.7128
174.4928,82.7064
174.6276,82.6561
174.7428,82.5698
174.8291,82.4546
174.8794,82.3198
174.8858,82.2602
174.8858,80.1578
174.8794,80.0982
174.8291,79.9634
174.8291,79.9634
174.8291,79.9634
174.7428,79.8482
174.7428,79.8482
174.6276,79.7619
174.6276,79.7619
174.4928,79.7116
174.4928,79.7116
174.4332,79.7052
174.4332,79.7052
174.4332,79.7052
174.4332,79.7052
173.3468,79.7052
173.3468,79.7052
173.2872,79.7116
173.1524,79.7619
173.1524,79.7619
173.0372,79.8482
173.0372,79.8482
172.9509,79.9634
172.9509,79.9634
172.9006,80.0982
172.8942,80.1578
172.8942,80.1578
172.8942,80.1578
172.8942,82.2602
169.8058,82.2602
169.8058,80.1578
169.7994,80.0982
169.7491,79.9634
169.7491,79.9634
169.7491,79.9634
169.6628,79.8482
169.6628,79.8482
169.5476,79.7619
169.5476,79.7619
169.4128,79.7116
169.4128,79.7116
169.3532,79.7052
169.3532,79.7052
169.3532,79.7052
169.3532,79.7052
168.2668,79.7052
168.2668,79.7052
168.2072,79.7116
168.0724,79.7619
168.0724,79.7619
167.9572,79.8482
167.9572,79.8482
167.8709,79.9634
167.8709,79.9634
167.8206,80.0982
167.8142,80.1578
167.8142,80.1578
167.8142,80.1578
167.8142,82.2602
164.7258,82.2602
164.7258,80.1578
164.7194,80.0982
164.6691,79.9634
164.6691,79.9634
164.6691,79.9634
164.5828,79.8482
164.5828,79.8482
164.4676,79.7619
164.4676,79.7619
164.3328,79.7116
164.3328,79.7116
164.2732,79.7052
164.2732,79.7052
164.2732,79.7052
164.2732,79.7052
163.1868,79.7052
163.1868,79.7052
163.1272,79.7116
162.9924,79.7619
162.9924,79.7619
162.8772,79.8482
162.8772,79.8482
162.7909,79.9634
162.7909,79.9634
162.7406,80.0982
162.7342,80.1578
162.7342,80.1578
162.7342,80.1578
162.7342,82.2602
159.6458,82.2602
159.6458,80.1578
159.6394,80.0982
159.5891,79.9634
159.5891,79.9634
159.5891,79.9634
159.5028,79.8482
159.5028,79.8482
159.3876,79.7619
159.3876,79.7619
159.2528,79.7116
159.2528,79.7116
159.1932,79.7052
159.1932,79.7052
159.1932,79.7052
159.1932,79.7052
158.1068,79.7052
158.1068,79.7052
158.0472,79.7116
157.9124,79.7619
157.9124,79.7619
157.7972,79.8482
157.7972,79.8482
157.7109,79.9634
157.7109,79.9634
157.6606,80.0982
157.6542,80.1578
157.6542,80.1578
157.6542,80.1578
157.6542,82.2602
151.9000,82.2602
151.9000,70.5700
166.8345,70.5700
166.8543,70.7583
166.8543,70.7583
166.9128,70.9383
166.9128,70.9383
167.0075,71.1022
167.0559,71.1561
167.1341,71.2429
167.2873,71.3541
167.2873,71.3542
167.4602,71.4311
167.4602,71.4311
167.6454,71.4705
167.6454,71.4705
167.8346,71.4705
167.8346,71.4705
168.0198,71.4311
168.1927,71.3542
168.2009,71.3482
168.2668,71.3247
168.2738,71.3245
169.4876,71.3245
169.4876,71.3245
169.4937,71.3245
169.6423,71.3245
169.7639,71.3003
169.7639,71.3003
169.7639,71.3003
169.7881,71.2955
169.8484,71.2705
169.9254,71.2386
170.0490,71.1561
173.1561,68.0490
173.2386,67.9254
173.2955,67.7881
173.3114,67.7081
173.3245,67.6423
173.3245,67.4937
173.3245,67.4886
173.3245,67.4886
173.3245,66.8374
173.3411,66.7754
173.3972,66.6783
173.4557,66.4983
173.4755,66.3100
173.4557,66.1217
173.3972,65.9417
173.3025,65.7778
173.1759,65.6371
173.1759,65.6371
173.0227,65.5259
173.0227,65.5258
172.8498,65.4489
172.8498,65.4489
172.7040,65.4179
172.6646,65.4095
172.4754,65.4095
172.4429,65.4164
172.2902,65.4489
172.2902,65.4489
172.1173,65.5258
172.1173,65.5259
171.9641,65.6371
171.8375,65.7778
171.7428,65.9417
171.7428,65.9417
171.6843,66.1217
171.6843,66.1217
171.6744,66.2159
171.6645,66.3100
171.6696,66.3580
171.6570,66.4267
171.6093,66.4777
171.5415,66.4948
171.4753,66.4726
171.4470,66.4452
171.3775,66.3525
171.3775,66.3525
171.2623,66.2662
171.2623,66.2662
171.1275,66.2159
171.1275,66.2159
171.0679,66.2095
171.0679,66.2095
171.0679,66.2095
171.0679,66.2095
169.4721,66.2095
169.4721,66.2095
169.4125,66.2159
169.2777,66.2662
169.2777,66.2662
169.1625,66.3525
169.1625,66.3525
169.0762,66.4677
169.0762,66.4677
169.0259,66.6025
169.0195,66.6621
169.0195,66.6621
169.0195,68.2579
169.0195,68.2579
169.0259,68.3175
169.0762,68.4523
169.0762,68.4523
169.1625,68.5675
169.1625,68.5675
169.2777,68.6538
169.2777,68.6538
169.4125,68.7041
169.4125,68.7041
169.4194,68.7048
169.4721,68.7105
170.0611,68.7105
170.1282,68.7302
170.1739,68.7830
170.1838,68.8521
170.1548,68.9157
170.1488,68.9222
169.2918,69.7792
169.2305,69.8127
169.2041,69.8155
168.2738,69.8155
168.2068,69.7958
168.2009,69.7918
168.1927,69.7858
168.1927,69.7858
168.0198,69.7089
168.0198,69.7089
167.8740,69.6779
167.8346,69.6695
167.6454,69.6695
167.6129,69.6764
167.4602,69.7089
167.4602,69.7089
167.2873,69.7858
167.2873,69.7859
167.1341,69.8971
167.0075,70.0378
166.9128,70.2017
166.9128,70.2017
166.8543,70.3817
166.8543,70.3817
166.8345,70.5700
151.9000,70.5700
151.9000,63.9300
168.2945,63.9300
168.3143,64.1183
168.3143,64.1183
168.3728,64.2983
168.3728,64.2983
168.4675,64.4622
168.5159,64.5161
168.5941,64.6029
168.7473,64.7141
168.7473,64.7142
168.9202,64.7911
168.9202,64.7911
169.1054,64.8305
169.1054,64.8305
169.2946,64.8305
169.2946,64.8305
169.4798,64.7911
169.6527,64.7142
169.6609,64.7082
169.7267,64.6847
169.7338,64.6845
171.3972,64.6845
171.3972,64.6845
171.4033,64.6845
171.5519,64.6845
171.6735,64.6603
171.6735,64.6603
171.6735,64.6603
171.6977,64.6555
171.7580,64.6305
171.8350,64.5986
171.9586,64.5161
174.3710,62.1037
174.3710,62.1037
174.4761,61.9986
174.5586,61.8750
174.5586,61.8750
174.5586,61.8750
174.6155,61.7377
174.6155,61.7377
174.6445,61.5919
174.6445,61.4433
174.6445,61.4382
174.6445,61.4382
174.6445,59.8455
174.6642,59.7785
174.6942,59.7463
174.7428,59.7098
174.8291,59.5946
174.8794,59.4598
174.8858,59.4002
174.8858,57.2978
174.8794,57.2382
174.8291,57.1034
174.8291,57.1034
174.8291,57.1034
174.7428,56.9882
174.7428,56.9882
174.6276,56.9019
174.6276,56.9019
174.4928,56.8516
174.4928,56.8516
174.4332,56.8452
174.4332,56.8452
174.4332,56.8452
174.4332,56.8452
173.3468,56.8452
173.3468,56.8452
173.2872,56.8516
173.1524,56.9019
173.1524,56.9019
173.0372,56.9882
173.0372,56.9882
172.9509,57.1034
172.9509,57.1034
172.9006,57.2382
172.8942,57.2978
172.8942,57.2978
172.8942,57.2978
172.8942,59.4002
172.8942,59.4002
172.9006,59.4598
172.9509,59.5946
172.9509,59.5946
172.9509,59.5946
173.0372,59.7098
173.0858,59.7463
173.1277,59.8022
173.1355,59.8455
173.1355,61.1537
173.1158,61.2208
173.0992,61.2414
172.5575,61.7831
172.4962,61.8166
172.4265,61.8116
172.3705,61.7697
172.3461,61.7043
172.3458,61.6954
172.3458,60.5998
172.3458,60.5998
172.3458,60.5998
172.3394,60.5402
172.2891,60.4054
172.2891,60.4054
172.2891,60.4054
172.2028,60.2902
172.2028,60.2902
172.0876,60.2039
172.0876,60.2039
171.9528,60.1536
171.9528,60.1536
171.8932,60.1472
171.8932,60.1472
171.8932,60.1472
171.8932,60.1472
170.8068,60.1472
170.8068,60.1472
170.7472,60.1536
170.6124,60.2039
170.6124,60.2039
170.4972,60.2902
170.4972,60.2902
170.4109,60.4054
170.4109,60.4054
170.3606,60.5402
170.3542,60.5998
170.3542,60.5998
170.3542,60.5998
170.3542,62.7022
170.3542,62.7022
170.3606,62.7618
170.4109,62.8966
170.4109,62.8966
170.4712,62.9772
170.4956,63.0427
170.4808,63.1109
170.4314,63.1603
170.3719,63.1755
169.7338,63.1755
169.6668,63.1558
169.6609,63.1518
169.6527,63.1458
169.6527,63.1458
169.4798,63.0689
169.4798,63.0689
169.3340,63.0379
169.2946,63.0295
169.1054,63.0295
169.0729,63.0364
168.9202,63.0689
168.9202,63.0689
168.7473,63.1458
168.7473,63.1459
168.5941,63.2571
168.4675,63.3978
168.3728,63.5617
168.3728,63.5617
168.3143,63.7417
168.3143,63.7417
168.2945,63.9300
151.9000,63.9300
151.9000,62.7022
155.1142,62.7022
155.1142,62.7022
155.1206,62.7618
155.1709,62.8966
155.1709,62.8966
155.2572,63.0118
155.2572,63.0118
155.3724,63.0981
155.3724,63.0981
155.5072,63.1484
155.5072,63.1484
155.5141,63.1491
155.5668,63.1548
156.6532,63.1548
156.7128,63.1484
156.8476,63.0981
156.9628,63.0118
157.0491,62.8966
157.0994,62.7618
157.1058,62.7022
157.1058,62.7022
160.1942,62.7022
160.1942,62.7022
160.2006,62.7618
160.2509,62.8966
160.2509,62.8966
160.3372,63.0118
160.3372,63.0118
160.4524,63.0981
160.4524,63.0981
160.5872,63.1484
160.5872,63.1484
160.5941,63.1491
160.6468,63.1548
161.7332,63.1548
161.7928,63.1484
161.9276,63.0981
162.0428,63.0118
162.1291,62.8966
162.1794,62.7618
162.1858,62.7022
162.1858,62.7022
165.2742,62.7022
165.2742,62.7022
165.2806,62.7618
165.3309,62.8966
165.3309,62.8966
165.4172,63.0118
165.4172,63.0118
165.5324,63.0981
165.5324,63.0981
165.6672,63.1484
165.6672,63.1484
165.6741,63.1491
165.7268,63.1548
166.8132,63.1548
166.8728,63.1484
167.0076,63.0981
167.1228,63.0118
167.2091,62.8966
167.2594,62.7618
167.2658,62.7022
167.2658,60.5998
167.2594,60.5402
167.2091,60.4054
167.2091,60.4054
167.2091,60.4054
167.1228,60.2902
167.1228,60.2902
167.0076,60.2039
167.0076,60.2039
166.8728,60.1536
166.8728,60.1536
166.8132,60.1472
166.8132,60.1472
166.8132,60.1472
166.8132,60.1472
165.7268,60.1472
165.7268,60.1472
165.6672,60.1536
165.5324,60.2039
165.5324,60.2039
165.4172,60.2902
165.4172,60.2902
165.3309,60.4054
165.3309,60.4054
165.2806,60.5402
165.2742,60.5998
165.2742,60.5998
165.2742,60.5998
165.2742,62.7022
162.1858,62.7022
162.1858,60.5998
162.1794,60.5402
162.1291,60.4054
162.1291,60.4054
162.1291,60.4054
162.0428,60.2902
162.0428,60.2902
161.9276,60.2039
161.9276,60.2039
161.7928,60.1536
161.7928,60.1536
161.7332,60.1472
161.7332,60.1472
161.7332,60.1472
161.7332,60.1472
160.6468,60.1472
160.6468,60.1472
160.5872,60.1536
160.4524,60.2039
160.4524,60.2039
160.3372,60.2902
160.3372,60.2902
160.2509,60.4054
160.2509,60.4054
160.2006,60.5402
160.1942,60.5998
160.1942,60.5998
160.1942,60.5998
160.1942,62.7022
157.1058,62.7022
157.1058,60.5998
157.0994,60.5402
157.0491,60.4054
157.0491,60.4054
157.0491,60.4054
156.9628,60.2902
156.9628,60.2902
156.8476,60.2039
156.8476,60.2039
156.7128,60.1536
156.7128,60.1536
156.6532,60.1472
156.6532,60.1472
156.6532,60.1472
156.6532,60.1472
155.5668,60.1472
155.5668,60.1472
155.5072,60.1536
155.3724,60.2039
155.3724,60.2039
155.2572,60.2902
155.2572,60.2902
155.1709,60.4054
155.1709,60.4054
155.1206,60.5402
155.1142,60.5998
155.1142,60.5998
155.1142,60.5998
155.1142,62.7022
151.9000,62.7022
151.9000,59.4002
157.6542,59.4002
157.6542,59.4002
157.6606,59.4598
157.7109,59.5946
157.7109,59.5946
157.7972,59.7098
157.7972,59.7098
157.9124,59.7961
157.9124,59.7961
158.0472,59.8464
158.0472,59.8464
158.0541,59.8471
158.1068,59.8528
159.1932,59.8528
159.2528,59.8464
159.3876,59.7961
159.5028,59.7098
159.5891,59.5946
159.6394,59.4598
159.6458,59.4002
159.6458,59.4002
162.7342,59.4002
162.7342,59.4002
162.7406,59.4598
162.7909,59.5946
162.7909,59.5946
162.8772,59.7098
162.8772,59.7098
162.9924,59.7961
162.9924,59.7961
163.1272,59.8464
163.1272,59.8464
163.1341,59.8471
163.1868,59.8528
164.2732,59.8528
164.3328,59.8464
164.4676,59.7961
164.5828,59.7098
164.6691,59.5946
164.7194,59.4598
164.7258,59.4002
164.7258,59.4002
167.8142,59.4002
167.8142,59.4002
167.8206,59.4598
167.8709,59.5946
167.8709,59.5946
167.9572,59.7098
167.9572,59.7098
168.0724,59.7961
168.0724,59.7961
168.2072,59.8464
168.2072,59.8464
168.2141,59.8471
168.2668,59.8528
169.3532,59.8528
169.4128,59.8464
169.5476,59.7961
169.6628,59.7098
169.7491,59.5946
169.7994,59.4598
169.8058,59.4002
169.8058,57.2978
169.7994,57.2382
169.7491,57.1034
169.7491,57.1034
169.7491,57.1034
169.6628,56.9882
169.6628,56.9882
169.5476,56.9019
169.5476,56.9019
169.4128,56.8516
169.4128,56.8516
169.3532,56.8452
169.3532,56.8452
169.3532,56.8452
169.3532,56.8452
168.2668,56.8452
168.2668,56.8452
168.2072,56.8516
168.0724,56.9019
168.0724,56.9019
167.9572,56.9882
167.9572,56.9882
167.8709,57.1034
167.8709,57.1034
167.8206,57.2382
167.8142,57.2978
167.8142,57.2978
167.8142,57.2978
167.8142,59.4002
164.7258,59.4002
164.7258,57.2978
164.7194,57.2382
164.6691,57.1034
164.6691,57.1034
164.6691,57.1034
164.5828,56.9882
164.5828,56.9882
164.4676,56.9019
164.4676,56.9019
164.3328,56.8516
164.3328,56.8516
164.2732,56.8452
164.2732,56.8452
164.2732,56.8452
164.2732,56.8452
163.1868,56.8452
163.1868,56.8452
163.1272,56.8516
162.9924,56.9019
162.9924,56.9019
162.8772,56.9882
162.8772,56.9882
162.7909,57.1034
162.7909,57.1034
162.7406,57.2382
162.7342,57.2978
162.7342,57.2978
162.7342,57.2978
162.7342,59.4002
159.6458,59.4002
159.6458,57.2978
159.6394,57.2382
159.5891,57.1034
159.5891,57.1034
159.5891,57.1034
159.5028,56.9882
159.5028,56.9882
159.3876,56.9019
159.3876,56.9019
159.2528,56.8516
159.2528,56.8516
159.1932,56.8452
159.1932,56.8452
159.1932,56.8452
159.1932,56.8452
158.1068,56.8452
158.1068,56.8452
158.0472,56.8516
157.9124,56.9019
157.9124,56.9019
157.7972,56.9882
157.7972,56.9882
157.7109,57.1034
157.7109,57.1034
157.6606,57.2382
157.6542,57.2978
157.6542,57.2978
157.6542,57.2978
157.6542,59.4002
151.9000,59.4002
151.9000,56.0140
151.9197,55.9470
151.9725,55.9012
152.0240,55.8900
176.7660,55.8900
Z" /> 
</g> 
</svg>
