<?xml version="1.0" standalone="no"?>
 <!DOCTYPE svg PUBLIC "-//W3C//DTD SVG 1.1//EN" 
 "http://www.w3.org/Graphics/SVG/1.1/DTD/svg11.dtd"> 
<svg
  xmlns:svg="http://www.w3.org/2000/svg"
  xmlns="http://www.w3.org/2000/svg"
  xmlns:xlink="http://www.w3.org/1999/xlink"
  version="1.1"
  width="297.0022mm" height="210.0072mm" viewBox="0.0000 0.0000 297.0022 210.0072">
<title>SVG Image created as adapter_board-B_Paste.svg date 2024/04/08 23:37:47 </title>
  <desc>Image generated by PCBNEW </desc>
<g style="fill:#000000; fill-opacity:1.0000;stroke:#000000; stroke-opacity:1.0000;
stroke-linecap:round; stroke-linejoin:round;"
 transform="translate(0 0) scale(1 1)">
<path style="fill:#00C2C2; fill-opacity:0.9000; stroke:none;fill-rule:evenodd;"
d="M 156.6053,83.5077
156.6053,85.5143
155.6147,85.5143
155.6147,83.5077
Z" /> 
<path style="fill:#00C2C2; fill-opacity:0.9000; stroke:none;fill-rule:evenodd;"
d="M 159.1453,80.2057
159.1453,82.2123
158.1547,82.2123
158.1547,80.2057
Z" /> 
<path style="fill:#00C2C2; fill-opacity:0.9000; stroke:none;fill-rule:evenodd;"
d="M 161.6853,83.5077
161.6853,85.5143
160.6947,85.5143
160.6947,83.5077
Z" /> 
<path style="fill:#00C2C2; fill-opacity:0.9000; stroke:none;fill-rule:evenodd;"
d="M 164.2253,80.2057
164.2253,82.2123
163.2347,82.2123
163.2347,80.2057
Z" /> 
<path style="fill:#00C2C2; fill-opacity:0.9000; stroke:none;fill-rule:evenodd;"
d="M 166.7653,83.5077
166.7653,85.5143
165.7747,85.5143
165.7747,83.5077
Z" /> 
<path style="fill:#00C2C2; fill-opacity:0.9000; stroke:none;fill-rule:evenodd;"
d="M 169.3053,80.2057
169.3053,82.2123
168.3147,82.2123
168.3147,80.2057
Z" /> 
<path style="fill:#00C2C2; fill-opacity:0.9000; stroke:none;fill-rule:evenodd;"
d="M 171.8453,83.5077
171.8453,85.5143
170.8547,85.5143
170.8547,83.5077
Z" /> 
<path style="fill:#00C2C2; fill-opacity:0.9000; stroke:none;fill-rule:evenodd;"
d="M 174.3853,80.2057
174.3853,82.2123
173.3947,82.2123
173.3947,80.2057
Z" /> 
<path style="fill:#00C2C2; fill-opacity:0.9000; stroke:none;fill-rule:evenodd;"
d="M 156.6053,60.6477
156.6053,62.6543
155.6147,62.6543
155.6147,60.6477
Z" /> 
<path style="fill:#00C2C2; fill-opacity:0.9000; stroke:none;fill-rule:evenodd;"
d="M 159.1453,57.3457
159.1453,59.3523
158.1547,59.3523
158.1547,57.3457
Z" /> 
<path style="fill:#00C2C2; fill-opacity:0.9000; stroke:none;fill-rule:evenodd;"
d="M 161.6853,60.6477
161.6853,62.6543
160.6947,62.6543
160.6947,60.6477
Z" /> 
<path style="fill:#00C2C2; fill-opacity:0.9000; stroke:none;fill-rule:evenodd;"
d="M 164.2253,57.3457
164.2253,59.3523
163.2347,59.3523
163.2347,57.3457
Z" /> 
<path style="fill:#00C2C2; fill-opacity:0.9000; stroke:none;fill-rule:evenodd;"
d="M 166.7653,60.6477
166.7653,62.6543
165.7747,62.6543
165.7747,60.6477
Z" /> 
<path style="fill:#00C2C2; fill-opacity:0.9000; stroke:none;fill-rule:evenodd;"
d="M 169.3053,57.3457
169.3053,59.3523
168.3147,59.3523
168.3147,57.3457
Z" /> 
<path style="fill:#00C2C2; fill-opacity:0.9000; stroke:none;fill-rule:evenodd;"
d="M 171.8453,60.6477
171.8453,62.6543
170.8547,62.6543
170.8547,60.6477
Z" /> 
<path style="fill:#00C2C2; fill-opacity:0.9000; stroke:none;fill-rule:evenodd;"
d="M 174.3853,57.3457
174.3853,59.3523
173.3947,59.3523
173.3947,57.3457
Z" /> 
</g> 
</svg>
