%TF.GenerationSoftware,KiCad,Pcbnew,8.0.1*%
%TF.CreationDate,2024-04-01T15:48:33-05:00*%
%TF.ProjectId,adapter_board,61646170-7465-4725-9f62-6f6172642e6b,rev?*%
%TF.SameCoordinates,Original*%
%TF.FileFunction,Legend,Top*%
%TF.FilePolarity,Positive*%
%FSLAX46Y46*%
G04 Gerber Fmt 4.6, Leading zero omitted, Abs format (unit mm)*
G04 Created by KiCad (PCBNEW 8.0.1) date 2024-04-01 15:48:33*
%MOMM*%
%LPD*%
G01*
G04 APERTURE LIST*
%ADD10C,0.150000*%
%ADD11C,0.152400*%
%ADD12C,0.508000*%
%ADD13C,0.127000*%
%ADD14C,0.200000*%
%ADD15C,0.120000*%
G04 APERTURE END LIST*
D10*
X174935419Y-66818207D02*
X174887800Y-66770588D01*
X174887800Y-66770588D02*
X174840180Y-66627731D01*
X174840180Y-66627731D02*
X174840180Y-66532493D01*
X174840180Y-66532493D02*
X174887800Y-66389636D01*
X174887800Y-66389636D02*
X174983038Y-66294398D01*
X174983038Y-66294398D02*
X175078276Y-66246779D01*
X175078276Y-66246779D02*
X175268752Y-66199160D01*
X175268752Y-66199160D02*
X175411609Y-66199160D01*
X175411609Y-66199160D02*
X175602085Y-66246779D01*
X175602085Y-66246779D02*
X175697323Y-66294398D01*
X175697323Y-66294398D02*
X175792561Y-66389636D01*
X175792561Y-66389636D02*
X175840180Y-66532493D01*
X175840180Y-66532493D02*
X175840180Y-66627731D01*
X175840180Y-66627731D02*
X175792561Y-66770588D01*
X175792561Y-66770588D02*
X175744942Y-66818207D01*
X174840180Y-67246779D02*
X175506847Y-67246779D01*
X175316371Y-67246779D02*
X175411609Y-67294398D01*
X175411609Y-67294398D02*
X175459228Y-67342017D01*
X175459228Y-67342017D02*
X175506847Y-67437255D01*
X175506847Y-67437255D02*
X175506847Y-67532493D01*
X174840180Y-68294398D02*
X175363990Y-68294398D01*
X175363990Y-68294398D02*
X175459228Y-68246779D01*
X175459228Y-68246779D02*
X175506847Y-68151541D01*
X175506847Y-68151541D02*
X175506847Y-67961065D01*
X175506847Y-67961065D02*
X175459228Y-67865827D01*
X174887800Y-68294398D02*
X174840180Y-68199160D01*
X174840180Y-68199160D02*
X174840180Y-67961065D01*
X174840180Y-67961065D02*
X174887800Y-67865827D01*
X174887800Y-67865827D02*
X174983038Y-67818208D01*
X174983038Y-67818208D02*
X175078276Y-67818208D01*
X175078276Y-67818208D02*
X175173514Y-67865827D01*
X175173514Y-67865827D02*
X175221133Y-67961065D01*
X175221133Y-67961065D02*
X175221133Y-68199160D01*
X175221133Y-68199160D02*
X175268752Y-68294398D01*
X175506847Y-68675351D02*
X175506847Y-69199160D01*
X175506847Y-69199160D02*
X174840180Y-68675351D01*
X174840180Y-68675351D02*
X174840180Y-69199160D01*
X175506847Y-69484875D02*
X174840180Y-69722970D01*
X175506847Y-69961065D02*
X174840180Y-69722970D01*
X174840180Y-69722970D02*
X174602085Y-69627732D01*
X174602085Y-69627732D02*
X174554466Y-69580113D01*
X174554466Y-69580113D02*
X174506847Y-69484875D01*
X175506847Y-70199161D02*
X175506847Y-70580113D01*
X174840180Y-70342018D02*
X175697323Y-70342018D01*
X175697323Y-70342018D02*
X175792561Y-70389637D01*
X175792561Y-70389637D02*
X175840180Y-70484875D01*
X175840180Y-70484875D02*
X175840180Y-70580113D01*
X174840180Y-71056304D02*
X174887800Y-70961066D01*
X174887800Y-70961066D02*
X174983038Y-70913447D01*
X174983038Y-70913447D02*
X175840180Y-70913447D01*
X174840180Y-71437257D02*
X175506847Y-71437257D01*
X175840180Y-71437257D02*
X175792561Y-71389638D01*
X175792561Y-71389638D02*
X175744942Y-71437257D01*
X175744942Y-71437257D02*
X175792561Y-71484876D01*
X175792561Y-71484876D02*
X175840180Y-71437257D01*
X175840180Y-71437257D02*
X175744942Y-71437257D01*
X174887800Y-72294399D02*
X174840180Y-72199161D01*
X174840180Y-72199161D02*
X174840180Y-72008685D01*
X174840180Y-72008685D02*
X174887800Y-71913447D01*
X174887800Y-71913447D02*
X174983038Y-71865828D01*
X174983038Y-71865828D02*
X175363990Y-71865828D01*
X175363990Y-71865828D02*
X175459228Y-71913447D01*
X175459228Y-71913447D02*
X175506847Y-72008685D01*
X175506847Y-72008685D02*
X175506847Y-72199161D01*
X175506847Y-72199161D02*
X175459228Y-72294399D01*
X175459228Y-72294399D02*
X175363990Y-72342018D01*
X175363990Y-72342018D02*
X175268752Y-72342018D01*
X175268752Y-72342018D02*
X175173514Y-71865828D01*
X174840180Y-74103923D02*
X175316371Y-73770590D01*
X174840180Y-73532495D02*
X175840180Y-73532495D01*
X175840180Y-73532495D02*
X175840180Y-73913447D01*
X175840180Y-73913447D02*
X175792561Y-74008685D01*
X175792561Y-74008685D02*
X175744942Y-74056304D01*
X175744942Y-74056304D02*
X175649704Y-74103923D01*
X175649704Y-74103923D02*
X175506847Y-74103923D01*
X175506847Y-74103923D02*
X175411609Y-74056304D01*
X175411609Y-74056304D02*
X175363990Y-74008685D01*
X175363990Y-74008685D02*
X175316371Y-73913447D01*
X175316371Y-73913447D02*
X175316371Y-73532495D01*
X174887800Y-74913447D02*
X174840180Y-74818209D01*
X174840180Y-74818209D02*
X174840180Y-74627733D01*
X174840180Y-74627733D02*
X174887800Y-74532495D01*
X174887800Y-74532495D02*
X174983038Y-74484876D01*
X174983038Y-74484876D02*
X175363990Y-74484876D01*
X175363990Y-74484876D02*
X175459228Y-74532495D01*
X175459228Y-74532495D02*
X175506847Y-74627733D01*
X175506847Y-74627733D02*
X175506847Y-74818209D01*
X175506847Y-74818209D02*
X175459228Y-74913447D01*
X175459228Y-74913447D02*
X175363990Y-74961066D01*
X175363990Y-74961066D02*
X175268752Y-74961066D01*
X175268752Y-74961066D02*
X175173514Y-74484876D01*
X174840180Y-75818209D02*
X175363990Y-75818209D01*
X175363990Y-75818209D02*
X175459228Y-75770590D01*
X175459228Y-75770590D02*
X175506847Y-75675352D01*
X175506847Y-75675352D02*
X175506847Y-75484876D01*
X175506847Y-75484876D02*
X175459228Y-75389638D01*
X174887800Y-75818209D02*
X174840180Y-75722971D01*
X174840180Y-75722971D02*
X174840180Y-75484876D01*
X174840180Y-75484876D02*
X174887800Y-75389638D01*
X174887800Y-75389638D02*
X174983038Y-75342019D01*
X174983038Y-75342019D02*
X175078276Y-75342019D01*
X175078276Y-75342019D02*
X175173514Y-75389638D01*
X175173514Y-75389638D02*
X175221133Y-75484876D01*
X175221133Y-75484876D02*
X175221133Y-75722971D01*
X175221133Y-75722971D02*
X175268752Y-75818209D01*
X174840180Y-76294400D02*
X175506847Y-76294400D01*
X175316371Y-76294400D02*
X175411609Y-76342019D01*
X175411609Y-76342019D02*
X175459228Y-76389638D01*
X175459228Y-76389638D02*
X175506847Y-76484876D01*
X175506847Y-76484876D02*
X175506847Y-76580114D01*
X154814580Y-76551792D02*
X154862200Y-76599411D01*
X154862200Y-76599411D02*
X154909819Y-76742268D01*
X154909819Y-76742268D02*
X154909819Y-76837506D01*
X154909819Y-76837506D02*
X154862200Y-76980363D01*
X154862200Y-76980363D02*
X154766961Y-77075601D01*
X154766961Y-77075601D02*
X154671723Y-77123220D01*
X154671723Y-77123220D02*
X154481247Y-77170839D01*
X154481247Y-77170839D02*
X154338390Y-77170839D01*
X154338390Y-77170839D02*
X154147914Y-77123220D01*
X154147914Y-77123220D02*
X154052676Y-77075601D01*
X154052676Y-77075601D02*
X153957438Y-76980363D01*
X153957438Y-76980363D02*
X153909819Y-76837506D01*
X153909819Y-76837506D02*
X153909819Y-76742268D01*
X153909819Y-76742268D02*
X153957438Y-76599411D01*
X153957438Y-76599411D02*
X154005057Y-76551792D01*
X154909819Y-76123220D02*
X154243152Y-76123220D01*
X154433628Y-76123220D02*
X154338390Y-76075601D01*
X154338390Y-76075601D02*
X154290771Y-76027982D01*
X154290771Y-76027982D02*
X154243152Y-75932744D01*
X154243152Y-75932744D02*
X154243152Y-75837506D01*
X154909819Y-75075601D02*
X154386009Y-75075601D01*
X154386009Y-75075601D02*
X154290771Y-75123220D01*
X154290771Y-75123220D02*
X154243152Y-75218458D01*
X154243152Y-75218458D02*
X154243152Y-75408934D01*
X154243152Y-75408934D02*
X154290771Y-75504172D01*
X154862200Y-75075601D02*
X154909819Y-75170839D01*
X154909819Y-75170839D02*
X154909819Y-75408934D01*
X154909819Y-75408934D02*
X154862200Y-75504172D01*
X154862200Y-75504172D02*
X154766961Y-75551791D01*
X154766961Y-75551791D02*
X154671723Y-75551791D01*
X154671723Y-75551791D02*
X154576485Y-75504172D01*
X154576485Y-75504172D02*
X154528866Y-75408934D01*
X154528866Y-75408934D02*
X154528866Y-75170839D01*
X154528866Y-75170839D02*
X154481247Y-75075601D01*
X154243152Y-74694648D02*
X154243152Y-74170839D01*
X154243152Y-74170839D02*
X154909819Y-74694648D01*
X154909819Y-74694648D02*
X154909819Y-74170839D01*
X154243152Y-73885124D02*
X154909819Y-73647029D01*
X154243152Y-73408934D02*
X154909819Y-73647029D01*
X154909819Y-73647029D02*
X155147914Y-73742267D01*
X155147914Y-73742267D02*
X155195533Y-73789886D01*
X155195533Y-73789886D02*
X155243152Y-73885124D01*
X154243152Y-73170838D02*
X154243152Y-72789886D01*
X154909819Y-73027981D02*
X154052676Y-73027981D01*
X154052676Y-73027981D02*
X153957438Y-72980362D01*
X153957438Y-72980362D02*
X153909819Y-72885124D01*
X153909819Y-72885124D02*
X153909819Y-72789886D01*
X154909819Y-72313695D02*
X154862200Y-72408933D01*
X154862200Y-72408933D02*
X154766961Y-72456552D01*
X154766961Y-72456552D02*
X153909819Y-72456552D01*
X154909819Y-71932742D02*
X154243152Y-71932742D01*
X153909819Y-71932742D02*
X153957438Y-71980361D01*
X153957438Y-71980361D02*
X154005057Y-71932742D01*
X154005057Y-71932742D02*
X153957438Y-71885123D01*
X153957438Y-71885123D02*
X153909819Y-71932742D01*
X153909819Y-71932742D02*
X154005057Y-71932742D01*
X154862200Y-71075600D02*
X154909819Y-71170838D01*
X154909819Y-71170838D02*
X154909819Y-71361314D01*
X154909819Y-71361314D02*
X154862200Y-71456552D01*
X154862200Y-71456552D02*
X154766961Y-71504171D01*
X154766961Y-71504171D02*
X154386009Y-71504171D01*
X154386009Y-71504171D02*
X154290771Y-71456552D01*
X154290771Y-71456552D02*
X154243152Y-71361314D01*
X154243152Y-71361314D02*
X154243152Y-71170838D01*
X154243152Y-71170838D02*
X154290771Y-71075600D01*
X154290771Y-71075600D02*
X154386009Y-71027981D01*
X154386009Y-71027981D02*
X154481247Y-71027981D01*
X154481247Y-71027981D02*
X154576485Y-71504171D01*
X154624104Y-69885123D02*
X154624104Y-69408933D01*
X154909819Y-69980361D02*
X153909819Y-69647028D01*
X153909819Y-69647028D02*
X154909819Y-69313695D01*
X154243152Y-68980361D02*
X154909819Y-68980361D01*
X154338390Y-68980361D02*
X154290771Y-68932742D01*
X154290771Y-68932742D02*
X154243152Y-68837504D01*
X154243152Y-68837504D02*
X154243152Y-68694647D01*
X154243152Y-68694647D02*
X154290771Y-68599409D01*
X154290771Y-68599409D02*
X154386009Y-68551790D01*
X154386009Y-68551790D02*
X154909819Y-68551790D01*
X154243152Y-68218456D02*
X154243152Y-67837504D01*
X153909819Y-68075599D02*
X154766961Y-68075599D01*
X154766961Y-68075599D02*
X154862200Y-68027980D01*
X154862200Y-68027980D02*
X154909819Y-67932742D01*
X154909819Y-67932742D02*
X154909819Y-67837504D01*
X154862200Y-67123218D02*
X154909819Y-67218456D01*
X154909819Y-67218456D02*
X154909819Y-67408932D01*
X154909819Y-67408932D02*
X154862200Y-67504170D01*
X154862200Y-67504170D02*
X154766961Y-67551789D01*
X154766961Y-67551789D02*
X154386009Y-67551789D01*
X154386009Y-67551789D02*
X154290771Y-67504170D01*
X154290771Y-67504170D02*
X154243152Y-67408932D01*
X154243152Y-67408932D02*
X154243152Y-67218456D01*
X154243152Y-67218456D02*
X154290771Y-67123218D01*
X154290771Y-67123218D02*
X154386009Y-67075599D01*
X154386009Y-67075599D02*
X154481247Y-67075599D01*
X154481247Y-67075599D02*
X154576485Y-67551789D01*
X154243152Y-66647027D02*
X154909819Y-66647027D01*
X154338390Y-66647027D02*
X154290771Y-66599408D01*
X154290771Y-66599408D02*
X154243152Y-66504170D01*
X154243152Y-66504170D02*
X154243152Y-66361313D01*
X154243152Y-66361313D02*
X154290771Y-66266075D01*
X154290771Y-66266075D02*
X154386009Y-66218456D01*
X154386009Y-66218456D02*
X154909819Y-66218456D01*
X154243152Y-65742265D02*
X154909819Y-65742265D01*
X154338390Y-65742265D02*
X154290771Y-65694646D01*
X154290771Y-65694646D02*
X154243152Y-65599408D01*
X154243152Y-65599408D02*
X154243152Y-65456551D01*
X154243152Y-65456551D02*
X154290771Y-65361313D01*
X154290771Y-65361313D02*
X154386009Y-65313694D01*
X154386009Y-65313694D02*
X154909819Y-65313694D01*
X154909819Y-64408932D02*
X154386009Y-64408932D01*
X154386009Y-64408932D02*
X154290771Y-64456551D01*
X154290771Y-64456551D02*
X154243152Y-64551789D01*
X154243152Y-64551789D02*
X154243152Y-64742265D01*
X154243152Y-64742265D02*
X154290771Y-64837503D01*
X154862200Y-64408932D02*
X154909819Y-64504170D01*
X154909819Y-64504170D02*
X154909819Y-64742265D01*
X154909819Y-64742265D02*
X154862200Y-64837503D01*
X154862200Y-64837503D02*
X154766961Y-64885122D01*
X154766961Y-64885122D02*
X154671723Y-64885122D01*
X154671723Y-64885122D02*
X154576485Y-64837503D01*
X154576485Y-64837503D02*
X154528866Y-64742265D01*
X154528866Y-64742265D02*
X154528866Y-64504170D01*
X154528866Y-64504170D02*
X154481247Y-64408932D01*
X164666666Y-61054765D02*
X164666666Y-61769050D01*
X164666666Y-61769050D02*
X164619047Y-61911907D01*
X164619047Y-61911907D02*
X164523809Y-62007146D01*
X164523809Y-62007146D02*
X164380952Y-62054765D01*
X164380952Y-62054765D02*
X164285714Y-62054765D01*
X165047619Y-61054765D02*
X165666666Y-61054765D01*
X165666666Y-61054765D02*
X165333333Y-61435717D01*
X165333333Y-61435717D02*
X165476190Y-61435717D01*
X165476190Y-61435717D02*
X165571428Y-61483336D01*
X165571428Y-61483336D02*
X165619047Y-61530955D01*
X165619047Y-61530955D02*
X165666666Y-61626193D01*
X165666666Y-61626193D02*
X165666666Y-61864288D01*
X165666666Y-61864288D02*
X165619047Y-61959526D01*
X165619047Y-61959526D02*
X165571428Y-62007146D01*
X165571428Y-62007146D02*
X165476190Y-62054765D01*
X165476190Y-62054765D02*
X165190476Y-62054765D01*
X165190476Y-62054765D02*
X165095238Y-62007146D01*
X165095238Y-62007146D02*
X165047619Y-61959526D01*
X169978472Y-70660882D02*
X169978472Y-71310630D01*
X169978472Y-71310630D02*
X170016692Y-71387071D01*
X170016692Y-71387071D02*
X170054913Y-71425292D01*
X170054913Y-71425292D02*
X170131354Y-71463512D01*
X170131354Y-71463512D02*
X170284236Y-71463512D01*
X170284236Y-71463512D02*
X170360677Y-71425292D01*
X170360677Y-71425292D02*
X170398897Y-71387071D01*
X170398897Y-71387071D02*
X170437118Y-71310630D01*
X170437118Y-71310630D02*
X170437118Y-70660882D01*
X171239747Y-71463512D02*
X170781101Y-71463512D01*
X171010424Y-71463512D02*
X171010424Y-70660882D01*
X171010424Y-70660882D02*
X170933983Y-70775543D01*
X170933983Y-70775543D02*
X170857542Y-70851984D01*
X170857542Y-70851984D02*
X170781101Y-70890205D01*
X164666666Y-83054765D02*
X164666666Y-83769050D01*
X164666666Y-83769050D02*
X164619047Y-83911907D01*
X164619047Y-83911907D02*
X164523809Y-84007146D01*
X164523809Y-84007146D02*
X164380952Y-84054765D01*
X164380952Y-84054765D02*
X164285714Y-84054765D01*
X165095238Y-83150003D02*
X165142857Y-83102384D01*
X165142857Y-83102384D02*
X165238095Y-83054765D01*
X165238095Y-83054765D02*
X165476190Y-83054765D01*
X165476190Y-83054765D02*
X165571428Y-83102384D01*
X165571428Y-83102384D02*
X165619047Y-83150003D01*
X165619047Y-83150003D02*
X165666666Y-83245241D01*
X165666666Y-83245241D02*
X165666666Y-83340479D01*
X165666666Y-83340479D02*
X165619047Y-83483336D01*
X165619047Y-83483336D02*
X165047619Y-84054765D01*
X165047619Y-84054765D02*
X165666666Y-84054765D01*
X156973333Y-76439580D02*
X156925714Y-76487200D01*
X156925714Y-76487200D02*
X156782857Y-76534819D01*
X156782857Y-76534819D02*
X156687619Y-76534819D01*
X156687619Y-76534819D02*
X156544762Y-76487200D01*
X156544762Y-76487200D02*
X156449524Y-76391961D01*
X156449524Y-76391961D02*
X156401905Y-76296723D01*
X156401905Y-76296723D02*
X156354286Y-76106247D01*
X156354286Y-76106247D02*
X156354286Y-75963390D01*
X156354286Y-75963390D02*
X156401905Y-75772914D01*
X156401905Y-75772914D02*
X156449524Y-75677676D01*
X156449524Y-75677676D02*
X156544762Y-75582438D01*
X156544762Y-75582438D02*
X156687619Y-75534819D01*
X156687619Y-75534819D02*
X156782857Y-75534819D01*
X156782857Y-75534819D02*
X156925714Y-75582438D01*
X156925714Y-75582438D02*
X156973333Y-75630057D01*
X157306667Y-75534819D02*
X157925714Y-75534819D01*
X157925714Y-75534819D02*
X157592381Y-75915771D01*
X157592381Y-75915771D02*
X157735238Y-75915771D01*
X157735238Y-75915771D02*
X157830476Y-75963390D01*
X157830476Y-75963390D02*
X157878095Y-76011009D01*
X157878095Y-76011009D02*
X157925714Y-76106247D01*
X157925714Y-76106247D02*
X157925714Y-76344342D01*
X157925714Y-76344342D02*
X157878095Y-76439580D01*
X157878095Y-76439580D02*
X157830476Y-76487200D01*
X157830476Y-76487200D02*
X157735238Y-76534819D01*
X157735238Y-76534819D02*
X157449524Y-76534819D01*
X157449524Y-76534819D02*
X157354286Y-76487200D01*
X157354286Y-76487200D02*
X157306667Y-76439580D01*
X157003333Y-73509580D02*
X156955714Y-73557200D01*
X156955714Y-73557200D02*
X156812857Y-73604819D01*
X156812857Y-73604819D02*
X156717619Y-73604819D01*
X156717619Y-73604819D02*
X156574762Y-73557200D01*
X156574762Y-73557200D02*
X156479524Y-73461961D01*
X156479524Y-73461961D02*
X156431905Y-73366723D01*
X156431905Y-73366723D02*
X156384286Y-73176247D01*
X156384286Y-73176247D02*
X156384286Y-73033390D01*
X156384286Y-73033390D02*
X156431905Y-72842914D01*
X156431905Y-72842914D02*
X156479524Y-72747676D01*
X156479524Y-72747676D02*
X156574762Y-72652438D01*
X156574762Y-72652438D02*
X156717619Y-72604819D01*
X156717619Y-72604819D02*
X156812857Y-72604819D01*
X156812857Y-72604819D02*
X156955714Y-72652438D01*
X156955714Y-72652438D02*
X157003333Y-72700057D01*
X157384286Y-72700057D02*
X157431905Y-72652438D01*
X157431905Y-72652438D02*
X157527143Y-72604819D01*
X157527143Y-72604819D02*
X157765238Y-72604819D01*
X157765238Y-72604819D02*
X157860476Y-72652438D01*
X157860476Y-72652438D02*
X157908095Y-72700057D01*
X157908095Y-72700057D02*
X157955714Y-72795295D01*
X157955714Y-72795295D02*
X157955714Y-72890533D01*
X157955714Y-72890533D02*
X157908095Y-73033390D01*
X157908095Y-73033390D02*
X157336667Y-73604819D01*
X157336667Y-73604819D02*
X157955714Y-73604819D01*
X162495833Y-73519580D02*
X162448214Y-73567200D01*
X162448214Y-73567200D02*
X162305357Y-73614819D01*
X162305357Y-73614819D02*
X162210119Y-73614819D01*
X162210119Y-73614819D02*
X162067262Y-73567200D01*
X162067262Y-73567200D02*
X161972024Y-73471961D01*
X161972024Y-73471961D02*
X161924405Y-73376723D01*
X161924405Y-73376723D02*
X161876786Y-73186247D01*
X161876786Y-73186247D02*
X161876786Y-73043390D01*
X161876786Y-73043390D02*
X161924405Y-72852914D01*
X161924405Y-72852914D02*
X161972024Y-72757676D01*
X161972024Y-72757676D02*
X162067262Y-72662438D01*
X162067262Y-72662438D02*
X162210119Y-72614819D01*
X162210119Y-72614819D02*
X162305357Y-72614819D01*
X162305357Y-72614819D02*
X162448214Y-72662438D01*
X162448214Y-72662438D02*
X162495833Y-72710057D01*
X163352976Y-72948152D02*
X163352976Y-73614819D01*
X163114881Y-72567200D02*
X162876786Y-73281485D01*
X162876786Y-73281485D02*
X163495833Y-73281485D01*
X169008095Y-65266819D02*
X169579523Y-65266819D01*
X169293809Y-66266819D02*
X169293809Y-65266819D01*
X169912857Y-66266819D02*
X169912857Y-65266819D01*
X169912857Y-65266819D02*
X170293809Y-65266819D01*
X170293809Y-65266819D02*
X170389047Y-65314438D01*
X170389047Y-65314438D02*
X170436666Y-65362057D01*
X170436666Y-65362057D02*
X170484285Y-65457295D01*
X170484285Y-65457295D02*
X170484285Y-65600152D01*
X170484285Y-65600152D02*
X170436666Y-65695390D01*
X170436666Y-65695390D02*
X170389047Y-65743009D01*
X170389047Y-65743009D02*
X170293809Y-65790628D01*
X170293809Y-65790628D02*
X169912857Y-65790628D01*
X171436666Y-66266819D02*
X170865238Y-66266819D01*
X171150952Y-66266819D02*
X171150952Y-65266819D01*
X171150952Y-65266819D02*
X171055714Y-65409676D01*
X171055714Y-65409676D02*
X170960476Y-65504914D01*
X170960476Y-65504914D02*
X170865238Y-65552533D01*
X162445833Y-76519580D02*
X162398214Y-76567200D01*
X162398214Y-76567200D02*
X162255357Y-76614819D01*
X162255357Y-76614819D02*
X162160119Y-76614819D01*
X162160119Y-76614819D02*
X162017262Y-76567200D01*
X162017262Y-76567200D02*
X161922024Y-76471961D01*
X161922024Y-76471961D02*
X161874405Y-76376723D01*
X161874405Y-76376723D02*
X161826786Y-76186247D01*
X161826786Y-76186247D02*
X161826786Y-76043390D01*
X161826786Y-76043390D02*
X161874405Y-75852914D01*
X161874405Y-75852914D02*
X161922024Y-75757676D01*
X161922024Y-75757676D02*
X162017262Y-75662438D01*
X162017262Y-75662438D02*
X162160119Y-75614819D01*
X162160119Y-75614819D02*
X162255357Y-75614819D01*
X162255357Y-75614819D02*
X162398214Y-75662438D01*
X162398214Y-75662438D02*
X162445833Y-75710057D01*
X163350595Y-75614819D02*
X162874405Y-75614819D01*
X162874405Y-75614819D02*
X162826786Y-76091009D01*
X162826786Y-76091009D02*
X162874405Y-76043390D01*
X162874405Y-76043390D02*
X162969643Y-75995771D01*
X162969643Y-75995771D02*
X163207738Y-75995771D01*
X163207738Y-75995771D02*
X163302976Y-76043390D01*
X163302976Y-76043390D02*
X163350595Y-76091009D01*
X163350595Y-76091009D02*
X163398214Y-76186247D01*
X163398214Y-76186247D02*
X163398214Y-76424342D01*
X163398214Y-76424342D02*
X163350595Y-76519580D01*
X163350595Y-76519580D02*
X163302976Y-76567200D01*
X163302976Y-76567200D02*
X163207738Y-76614819D01*
X163207738Y-76614819D02*
X162969643Y-76614819D01*
X162969643Y-76614819D02*
X162874405Y-76567200D01*
X162874405Y-76567200D02*
X162826786Y-76519580D01*
X163301666Y-63504819D02*
X163301666Y-64219104D01*
X163301666Y-64219104D02*
X163254047Y-64361961D01*
X163254047Y-64361961D02*
X163158809Y-64457200D01*
X163158809Y-64457200D02*
X163015952Y-64504819D01*
X163015952Y-64504819D02*
X162920714Y-64504819D01*
X163777857Y-64504819D02*
X163777857Y-63504819D01*
X163777857Y-63504819D02*
X164158809Y-63504819D01*
X164158809Y-63504819D02*
X164254047Y-63552438D01*
X164254047Y-63552438D02*
X164301666Y-63600057D01*
X164301666Y-63600057D02*
X164349285Y-63695295D01*
X164349285Y-63695295D02*
X164349285Y-63838152D01*
X164349285Y-63838152D02*
X164301666Y-63933390D01*
X164301666Y-63933390D02*
X164254047Y-63981009D01*
X164254047Y-63981009D02*
X164158809Y-64028628D01*
X164158809Y-64028628D02*
X163777857Y-64028628D01*
X165301666Y-64504819D02*
X164730238Y-64504819D01*
X165015952Y-64504819D02*
X165015952Y-63504819D01*
X165015952Y-63504819D02*
X164920714Y-63647676D01*
X164920714Y-63647676D02*
X164825476Y-63742914D01*
X164825476Y-63742914D02*
X164730238Y-63790533D01*
X156973333Y-70359580D02*
X156925714Y-70407200D01*
X156925714Y-70407200D02*
X156782857Y-70454819D01*
X156782857Y-70454819D02*
X156687619Y-70454819D01*
X156687619Y-70454819D02*
X156544762Y-70407200D01*
X156544762Y-70407200D02*
X156449524Y-70311961D01*
X156449524Y-70311961D02*
X156401905Y-70216723D01*
X156401905Y-70216723D02*
X156354286Y-70026247D01*
X156354286Y-70026247D02*
X156354286Y-69883390D01*
X156354286Y-69883390D02*
X156401905Y-69692914D01*
X156401905Y-69692914D02*
X156449524Y-69597676D01*
X156449524Y-69597676D02*
X156544762Y-69502438D01*
X156544762Y-69502438D02*
X156687619Y-69454819D01*
X156687619Y-69454819D02*
X156782857Y-69454819D01*
X156782857Y-69454819D02*
X156925714Y-69502438D01*
X156925714Y-69502438D02*
X156973333Y-69550057D01*
X157925714Y-70454819D02*
X157354286Y-70454819D01*
X157640000Y-70454819D02*
X157640000Y-69454819D01*
X157640000Y-69454819D02*
X157544762Y-69597676D01*
X157544762Y-69597676D02*
X157449524Y-69692914D01*
X157449524Y-69692914D02*
X157354286Y-69740533D01*
D11*
%TO.C,J3*%
X154446300Y-58679200D02*
X154446300Y-61320800D01*
X154446300Y-61320800D02*
X157197359Y-61320800D01*
X155197360Y-58679200D02*
X154446300Y-58679200D01*
X158802639Y-61320800D02*
X161197361Y-61320800D01*
X159197360Y-58679200D02*
X156802640Y-58679200D01*
X162802641Y-61320800D02*
X165197361Y-61320800D01*
X163197359Y-58679200D02*
X160802640Y-58679200D01*
X166802641Y-61320800D02*
X169197360Y-61320800D01*
X167197359Y-58679200D02*
X164802639Y-58679200D01*
X170802640Y-61320800D02*
X173197360Y-61320800D01*
X171197359Y-58679200D02*
X168802639Y-58679200D01*
X174802640Y-61320800D02*
X175553700Y-61320800D01*
X175553700Y-58679200D02*
X172802639Y-58679200D01*
X175553700Y-61320800D02*
X175553700Y-58679200D01*
D12*
X154192300Y-58399945D02*
G75*
G02*
X153430300Y-58399945I-381000J0D01*
G01*
X153430300Y-58399945D02*
G75*
G02*
X154192300Y-58399945I381000J0D01*
G01*
D13*
%TO.C,U1*%
X169585000Y-72110000D02*
X169585000Y-72210000D01*
X169585000Y-75210000D02*
X169585000Y-75110000D01*
X171285000Y-72110000D02*
X169585000Y-72110000D01*
X171285000Y-72110000D02*
X171285000Y-72210000D01*
X171285000Y-75210000D02*
X169585000Y-75210000D01*
X171285000Y-75210000D02*
X171285000Y-75110000D01*
D14*
X168066000Y-72710000D02*
G75*
G02*
X167866000Y-72710000I-100000J0D01*
G01*
X167866000Y-72710000D02*
G75*
G02*
X168066000Y-72710000I100000J0D01*
G01*
D11*
%TO.C,J2*%
X154446300Y-80679200D02*
X154446300Y-83320800D01*
X154446300Y-83320800D02*
X157197359Y-83320800D01*
X155197360Y-80679200D02*
X154446300Y-80679200D01*
X158802639Y-83320800D02*
X161197361Y-83320800D01*
X159197360Y-80679200D02*
X156802640Y-80679200D01*
X162802641Y-83320800D02*
X165197361Y-83320800D01*
X163197359Y-80679200D02*
X160802640Y-80679200D01*
X166802641Y-83320800D02*
X169197360Y-83320800D01*
X167197359Y-80679200D02*
X164802639Y-80679200D01*
X170802640Y-83320800D02*
X173197360Y-83320800D01*
X171197359Y-80679200D02*
X168802639Y-80679200D01*
X174802640Y-83320800D02*
X175553700Y-83320800D01*
X175553700Y-80679200D02*
X172802639Y-80679200D01*
X175553700Y-83320800D02*
X175553700Y-80679200D01*
D12*
X154192300Y-80399945D02*
G75*
G02*
X153430300Y-80399945I-381000J0D01*
G01*
X153430300Y-80399945D02*
G75*
G02*
X154192300Y-80399945I381000J0D01*
G01*
D15*
%TO.C,C3*%
X159671248Y-75495000D02*
X160193752Y-75495000D01*
X159671248Y-76965000D02*
X160193752Y-76965000D01*
%TO.C,C2*%
X159671248Y-72485000D02*
X160193752Y-72485000D01*
X159671248Y-73955000D02*
X160193752Y-73955000D01*
%TO.C,C4*%
X165131248Y-72215000D02*
X165653752Y-72215000D01*
X165131248Y-73685000D02*
X165653752Y-73685000D01*
%TO.C,TP1*%
X169320000Y-66510000D02*
X171220000Y-66510000D01*
X169320000Y-68410000D02*
X169320000Y-66510000D01*
X171220000Y-66510000D02*
X171220000Y-68410000D01*
X171220000Y-68410000D02*
X169320000Y-68410000D01*
%TO.C,C5*%
X165131248Y-75225000D02*
X165653752Y-75225000D01*
X165131248Y-76695000D02*
X165653752Y-76695000D01*
%TO.C,JP1*%
X162735000Y-64850000D02*
X165535000Y-64850000D01*
X162735000Y-66850000D02*
X162735000Y-64850000D01*
X165535000Y-64850000D02*
X165535000Y-66850000D01*
X165535000Y-66850000D02*
X162735000Y-66850000D01*
%TO.C,C1*%
X159671248Y-69475000D02*
X160193752Y-69475000D01*
X159671248Y-70945000D02*
X160193752Y-70945000D01*
D12*
%TO.C,J1*%
X154154200Y-84511000D02*
G75*
G02*
X153392200Y-84511000I-381000J0D01*
G01*
X153392200Y-84511000D02*
G75*
G02*
X154154200Y-84511000I381000J0D01*
G01*
%TO.C,J4*%
X154154200Y-61651000D02*
G75*
G02*
X153392200Y-61651000I-381000J0D01*
G01*
X153392200Y-61651000D02*
G75*
G02*
X154154200Y-61651000I381000J0D01*
G01*
%TD*%
M02*
